<?xml version="1.0" encoding="UTF-8"?>
<svg width="73px" height="73px" viewBox="0 0 73 73" version="1.1" xmlns="http://www.w3.org/2000/svg" xmlns:xlink="http://www.w3.org/1999/xlink">
    <!-- Generator: Sketch 50.2 (55047) - http://www.bohemiancoding.com/sketch -->
    <title>ecodialer-PortfolioItemLogo</title>
    <desc>Created with Sketch.</desc>
    <defs>
        <linearGradient x1="100%" y1="0%" x2="100%" y2="100%" id="linearGradient-1">
            <stop stop-color="#8B8B8B" offset="0%"></stop>
            <stop stop-color="#131313" offset="100%"></stop>
        </linearGradient>
    </defs>
    <g id="Page-1" stroke="none" stroke-width="1" fill="none" fill-rule="evenodd">
        <g id="ecodialer-PortfolioItemLogo">
            <rect id="Rectangle-path" fill="#2C2C2C" fill-rule="nonzero" x="0" y="0" width="73" height="73"></rect>
            <path d="M29.0459,35.15186 C30.29102,35.15186 31.14062,36.04541 31.16992,37.38574 L26.82666,37.38574 C26.91455,36.05273 27.80811,35.15186 29.0459,35.15186 Z M31.14062,39.7441 C30.91357,40.4839 30.14453,40.9526 29.15576,40.9526 C27.74951,40.9526 26.82666,39.9785 26.82666,38.4771 L26.82666,38.4038 L32.49561,38.4038 L32.49561,37.90576 C32.49561,35.51807 31.17725,34.03125 29.06787,34.03125 C26.91455,34.03125 25.508301,35.63525 25.508301,38.0815 C25.508301,40.5278 26.90723,42.0732 29.12646,42.0732 C30.81104,42.0732 32.18066,41.0991 32.40039,39.7441 L31.14062,39.7441 Z M40.3618,36.67529 C40.2007,35.29102 39.0068,34.03125 37.0513,34.03125 C34.89062,34.03125 33.44775,35.62793 33.44775,38.0522 C33.44775,40.5352 34.89795,42.0732 37.0659,42.0732 C38.8677,42.0732 40.1641,41.0112 40.3765,39.4731 L39.124,39.4731 C38.9043,40.4253 38.1719,40.938 37.0732,40.938 C35.6963,40.938 34.74414,39.8467 34.74414,38.0522 C34.74414,36.30908 35.6816,35.1665 37.0586,35.1665 C38.2451,35.1665 38.9482,35.83301 39.1094,36.67529 L40.3618,36.67529 Z M44.8516,42.0732 C47.0708,42.0732 48.4917,40.4985 48.4917,38.0522 C48.4917,35.59863 47.0708,34.03125 44.8516,34.03125 C42.6323,34.03125 41.2114,35.59863 41.2114,38.0522 C41.2114,40.4985 42.6323,42.0732 44.8516,42.0732 Z M44.8516,40.938 C43.3867,40.938 42.5078,39.8613 42.5078,38.0522 C42.5078,36.24316 43.3794,35.1665 44.8516,35.1665 C46.3237,35.1665 47.1953,36.23584 47.1953,38.0522 C47.1953,39.8613 46.3237,40.938 44.8516,40.938 Z" id="Shape" fill="#FFFFFF" fill-rule="nonzero"></path>
            <circle id="Oval" stroke="#FFFFFF" cx="37" cy="37" r="24.5"></circle>
            <circle id="Oval" fill="url(#linearGradient-1)" fill-rule="nonzero" cx="53" cy="21" r="9"></circle>
        </g>
    </g>
</svg>