<svg width="73" height="73" viewBox="0 0 73 73" fill="none" xmlns="http://www.w3.org/2000/svg">
<rect width="73" height="73" fill="#333333"/>
<path d="M4.0459 7.15186C5.29102 7.15186 6.14062 8.04541 6.16992 9.38574H1.82666C1.91455 8.05273 2.80811 7.15186 4.0459 7.15186ZM6.14062 11.7441C5.91357 12.4839 5.14453 12.9526 4.15576 12.9526C2.74951 12.9526 1.82666 11.9785 1.82666 10.4771V10.4038H7.49561V9.90576C7.49561 7.51807 6.17725 6.03125 4.06787 6.03125C1.91455 6.03125 0.508301 7.63525 0.508301 10.0815C0.508301 12.5278 1.90723 14.0732 4.12646 14.0732C5.81104 14.0732 7.18066 13.0991 7.40039 11.7441H6.14062ZM15.3618 8.67529C15.2007 7.29102 14.0068 6.03125 12.0513 6.03125C9.89062 6.03125 8.44775 7.62793 8.44775 10.0522C8.44775 12.5352 9.89795 14.0732 12.0659 14.0732C13.8677 14.0732 15.1641 13.0112 15.3765 11.4731H14.124C13.9043 12.4253 13.1719 12.938 12.0732 12.938C10.6963 12.938 9.74414 11.8467 9.74414 10.0522C9.74414 8.30908 10.6816 7.1665 12.0586 7.1665C13.2451 7.1665 13.9482 7.83301 14.1094 8.67529H15.3618ZM19.8516 14.0732C22.0708 14.0732 23.4917 12.4985 23.4917 10.0522C23.4917 7.59863 22.0708 6.03125 19.8516 6.03125C17.6323 6.03125 16.2114 7.59863 16.2114 10.0522C16.2114 12.4985 17.6323 14.0732 19.8516 14.0732ZM19.8516 12.938C18.3867 12.938 17.5078 11.8613 17.5078 10.0522C17.5078 8.24316 18.3794 7.1665 19.8516 7.1665C21.3237 7.1665 22.1953 8.23584 22.1953 10.0522C22.1953 11.8613 21.3237 12.938 19.8516 12.938Z" transform="translate(25 28)" fill="white"/>
<circle cx="25" cy="25" r="24.5" transform="translate(12 12)" stroke="white"/>
<circle cx="9" cy="9" r="9" transform="translate(44 12)" fill="url(#paint0_linear)"/>
<defs>
<linearGradient id="paint0_linear" x2="1" gradientUnits="userSpaceOnUse" gradientTransform="translate(18) scale(18) rotate(90)">
<stop stop-color="#9FE280"/>
<stop offset="1" stop-color="#4EBDE7"/>
</linearGradient>
</defs>
</svg>
