<svg id="Layer_1" data-name="Layer 1" xmlns="http://www.w3.org/2000/svg" viewBox="0 0 300 300"><defs><style>.cls-1{fill:#fff;}.cls-2{fill:#010101;}.cls-3{fill:#808388;}</style></defs><title>PrequelMemes-DiscoveryImage</title><path class="cls-1" d="M34.57,36.8H265.43V263.2H34.57Z"/><path class="cls-2" d="M176.12,37c1.26,0,2.54,0,3.8,0a2.41,2.41,0,0,1,1.59.64,30.53,30.53,0,0,1,4,.19c1,.12,1.93.42,2.9.59,1.75.27,3.5.62,5.24.94a15.84,15.84,0,0,1,4.1,1.32c1.15.56,2.32.92,3.52,1.39l.21.42c1.17.62,2.33,1.27,3.49,1.9a48.88,48.88,0,0,1,5.18,3.76c1.59,1.33,3.31,2.47,4.85,3.85.87.76,1.75,1.51,2.6,2.3,1,1,1.87,2.16,2.86,3.18,1.44,1.5,2.47,3.29,3.88,4.82a14.07,14.07,0,0,1,2.07,2.85c.88,1.57,2,2.93,2.86,4.54.84,1.41,1.48,2.9,2.42,4.25a22.39,22.39,0,0,1,1.74,3.65c.61,1.34,1.41,2.59,2,4,.41,1,.54,2,.86,3a33.48,33.48,0,0,0,1.4,3.58c.58,1.48.82,3.1,1.43,4.57a20.69,20.69,0,0,1,1.12,3.45c.48,2.22,1.18,4.38,1.45,6.6a15.57,15.57,0,0,0,.35,1.69,28.47,28.47,0,0,1,.57,5.46c.1,1.49.33,3,.38,4.46s.2,2.82.25,4.24c.13,1.85-.12,3.69-.06,5.55a2.39,2.39,0,0,0-1,1.41,19.65,19.65,0,0,1-.36,2.42c-.4,1.74-.7,3.51-1.12,5.24a63.71,63.71,0,0,0-2.34,6.14,11.15,11.15,0,0,1-1.86,3.89,38.16,38.16,0,0,1-4.06,6.42,39.4,39.4,0,0,1-5,4.85c-.25.23-.65.13-1,.17a30.46,30.46,0,0,1-3.18,3.05,5.67,5.67,0,0,1-5.21,1.17,8,8,0,0,1-1.82,1,3.77,3.77,0,0,1-4.19-.31c-.73,1.5-1.66,2.91-2.43,4.39-.63,1.27-1.57,2.32-2.21,3.58a31.21,31.21,0,0,1-2,2.94,47.44,47.44,0,0,1-12.57,12.33c.46,1,1.32,1.33,2.11,2a16.55,16.55,0,0,1,2.78,3.24,22.47,22.47,0,0,0,3.75,3.17c1.07.89,2.17,1.69,3.16,2.64a18.23,18.23,0,0,0,2.1,1.92c1,.7,2.07,1.18,3.08,1.83s2,1.3,3,2c1.19.8,2.23,1.78,3.4,2.61,1.34,1,2.88,1.52,4.19,2.54,1.54,1.18,3,2.52,4.41,3.83s3.08,2.13,4.37,3.47c.84.82,1.44,1.81,2.28,2.62s1.55,1.26,2.32,1.94a27,27,0,0,1,2.84,3.17c1,1.2,2.27,2.19,3.3,3.4s1.88,2.42,2.94,3.53c.84.88,1.67,1.75,2.48,2.65,1.42,1.58,2.61,3.32,4,5s2.54,3.28,3.76,5c1.55,2.19,2.88,4.46,4.57,6.58,1.45,1.79,2.55,3.81,4,5.59a29.1,29.1,0,0,1,3.4,5.27c.32.54.38,1.46-.27,1.78-.89.19-1.45-.48-1.93-1.11-1.07-1.47-2-3-3.19-4.4-1.53-1.79-2.65-3.86-4.12-5.68-2.13-2.69-3.8-5.7-5.91-8.41-1.35-1.9-2.9-3.64-4.29-5.52a53.34,53.34,0,0,0-4.39-5c-1-1.07-1.86-2.29-2.85-3.4s-2.31-2.3-3.38-3.54c-.62-.72-1.2-1.48-1.83-2.19-1-1.12-2.28-1.83-3.34-2.91-.91-.91-1.54-2-2.49-2.87-1.23-1.13-2.77-2-4-3.13s-2.7-2.51-4.18-3.64c-1.14-.86-2.44-1.38-3.62-2.17-1.48-1-2.71-2.22-4.19-3.19-1.27-.83-2.49-1.75-3.82-2.45a12.9,12.9,0,0,1-3.46-2.54,39.66,39.66,0,0,0-4.4-3.86,17.82,17.82,0,0,1-3.11-2.71c-.54-.62-.9-1.36-1.47-2-.3,1.18.19,2.22.1,3.4a20.21,20.21,0,0,1-1,4.91,50.62,50.62,0,0,1-3.07,10.28c-.6,1.48-.92,3-1.55,4.51-.54,1.3-1.28,2.48-1.8,3.79a68.75,68.75,0,0,1-2.93,6.44c-.89,1.75-2.11,3.28-3,5s-2,3.38-2.93,5.08a22.76,22.76,0,0,1-3.07,4.1c-1.34,1.73-2.6,3.56-3.78,5.41-1,1.51-2.08,3-3.19,4.39-2.14,2.82-4.7,5.26-7,8a48.85,48.85,0,0,1-6.38,5.9,34.54,34.54,0,0,1-5.23,3.93,1.52,1.52,0,0,1-1.7,0l.54-.53a22,22,0,0,1-3.13-2.84c-.57-.7-1.07-1.46-1.64-2.15-.69-.88-1.48-1.66-2.17-2.53a22.67,22.67,0,0,1-1.64-2.59c-1-1.63-2.07-3.16-3.11-4.74a38.77,38.77,0,0,1-2.45-4.92,35.64,35.64,0,0,1-1.82-3.92,1.05,1.05,0,0,1-.61.12c-.13-.46.27-.94.13-1.38-.49-1.37-1.13-2.69-1.64-4-1-2.56-1.61-5.25-2.63-7.83a35.59,35.59,0,0,1-1.55-4.6,34.59,34.59,0,0,0-1.24-4.41c-.44-1.94-1.24-3.74-1.72-5.67-.32-1.19-.42-2.4-.69-3.61-.78-3.47-1.68-7-2.23-10.5-.29-1.61-.74-3.17-1.07-4.76a73.54,73.54,0,0,1-1.23-7.31c-.16-2.22-.54-4.41-.61-6.64l-.38.15c-4.11,1.6-8.49,2.58-12.56,4.28-1.78.65-3.6,1.19-5.39,1.8-2,.86-4.08,1.64-6.18,2.34-1.64.67-3.12,1.67-4.76,2.36-1.81,1-3.67,1.8-5.53,2.66-1.7.71-3.35.81-4.88,1.89a51.41,51.41,0,0,1-5.29,3.4,23.22,23.22,0,0,0-3.28,2.06c-1.14.84-2.43,1.38-3.55,2.24-1.78,1.35-3,3.07-4.62,4.54-1.11,1-2.35,1.78-3.39,2.88-1.25,1.33-2.34,2.88-3.47,4.34-.94,1.29-2,2.4-3.09,3.61a52.76,52.76,0,0,0-3.8,4.49c-.86,1.23-1.53,2.58-2.41,3.81-1,1.43-2.19,2.59-3.08,4.09a41.57,41.57,0,0,0-2.53,5.29,39.38,39.38,0,0,1-2.15,5,13.8,13.8,0,0,0-1.53,2.7l-.54.28c-.76-.34-.84-.65-.73-1.47.38-1.3,1.23-2.45,1.68-3.74a49.07,49.07,0,0,1,4.07-9.55c.93-1.52,2.16-2.75,3.12-4.24.6-.91,1.1-1.87,1.68-2.79,1.47-2.39,3.6-4.48,5.41-6.66,2.06-2.17,3.53-4.77,5.58-6.92,1.33-1.4,3-2.33,4.29-3.75A26.88,26.88,0,0,1,65,198.74c1-.72,2.17-1.23,3.18-2a28,28,0,0,1,3.72-2.32c1.91-1,3.56-2.38,5.39-3.52,1.63-1,3.35-1.14,5-1.94,2.16-1,4.24-2.19,6.41-3.18,1.16-.6,2.3-1.27,3.5-1.78,1.47-.48,2.94-1,4.37-1.57,2.36-1.1,4.94-1.72,7.37-2.64,1.27-.51,2.55-1,3.86-1.42,1.77-.59,3.58-1,5.34-1.66,1.43-.39,2.79-1,4.22-1.38.33-.18.57-.48.91-.65.56-.05,1,.24,1.54,0,2-.73,3.95-1.65,6-2.23,1-.24,1.75-.88,2.71-1.08a17.65,17.65,0,0,0,2.84-1.13c-.8-1.75-1.58-3.51-2.44-5.23a37.14,37.14,0,0,1-1.28-3.63,25.17,25.17,0,0,1-1-4.24c-.21-1.36-.64-2.68-.88-4-.09-.41-.08-.78-.41-1.09a17.32,17.32,0,0,1-2.56-3.48c-.59-1-.92-2.16-1.47-3.22-.73-1.41-1.08-2.91-1.68-4.37a16.91,16.91,0,0,1-1-3.14c-.26-1.93-.84-3.79-1.1-5.72-.38-1.63-.86-3.25-1.26-4.88a66.23,66.23,0,0,1-1.47-7.63c-.37-2.89-.85-5.75-1-8.66a42.42,42.42,0,0,1-.15-7.14c.09-2,.7-3.81.76-5.78.12-2.23.2-4.45.39-6.68l.79.55c.38-1.48.94-2.91,1.3-4.4s1.13-3,1.68-4.57c.87-2.39,2.27-4.45,3.3-6.76a20.06,20.06,0,0,1,2-3.12c1.21-1.64,2.17-3.67,3.52-5.2,1.9-2.13,3.61-4.39,5.65-6.39a51,51,0,0,1,6.1-5.74,37.4,37.4,0,0,0,3.47-3.23c1.65-1.61,3.68-2.66,5.33-4.28a39.21,39.21,0,0,1,5.27-3.44c1.73-1,3.54-1.95,5.26-3,1.42-.9,3-1.42,4.54-2.17A47,47,0,0,1,171.84,37C173.29,36.8,174.68,37.14,176.12,37Z"/><path class="cls-1" d="M177.57,39.31c.79.1,1.57.15,2.35.3,1.71.37,3.38.1,5.14.38,1,.12,1.89.46,2.86.63,2.1.33,4.18.77,6.24,1.23,1.77.39,3.22,1.37,4.91,2a31.37,31.37,0,0,1,4.51,2.39,46.64,46.64,0,0,1,5.13,3.8c1.57,1.34,3.28,2.5,4.81,3.89A27.78,27.78,0,0,1,217,57.14c.79,1,1.71,1.86,2.51,2.84s1.33,1.8,2,2.67,1.48,1.64,2.11,2.59,1.3,2.11,2,3.13a47,47,0,0,1,3,5.24,32,32,0,0,1,1.73,3,32.71,32.71,0,0,0,1.45,3.23,14.62,14.62,0,0,1,1.71,3.89,23.85,23.85,0,0,0,1.61,4.64c.69,1.51.92,3.07,1.46,4.6a23.59,23.59,0,0,1,1.18,3.47c.33,1.53.75,3,1.1,4.57.28,1.2.34,2.42.66,3.61a21.11,21.11,0,0,1,.56,4.11c.09,1.72.31,3.43.5,5.14,0,2.51.59,5,.38,7.44-.09.95,0,1.89,0,2.84a41.21,41.21,0,0,1-1.49,6.8,17.94,17.94,0,0,1-2.1,4.19c-.93,1.8-1.86,3.6-2.88,5.35a26.74,26.74,0,0,1-2.32,3.74,16,16,0,0,0-2,3.09,10.51,10.51,0,0,1-1.54,2.46c-.67.76-1.53,1.27-2.19,2a23.77,23.77,0,0,1-4.83,4.53,4.33,4.33,0,0,1-1.83.65c.4-.42.81-.83,1.21-1.25a34.83,34.83,0,0,0,2.65-3.59c1-1.4,1.87-2.89,2.76-4.37.75-1.27,1.68-2.35,2.34-3.67s1.12-3,1.89-4.38a22.77,22.77,0,0,0,1.35-2.74c.44-1.12.71-2.28,1.05-3.43s.91-2.21,1.29-3.35a36,36,0,0,0,.89-3.88c.44-2.17,1.11-4.23,1.4-6.44a30.68,30.68,0,0,0,.24-4.25c0-1.52.42-2.94.45-4.46a15.15,15.15,0,0,0-.65-5.09c-.21-.5-.79-.8-1.21-.3a12.53,12.53,0,0,0,.25,1.59,26,26,0,0,1-.62,6,48.09,48.09,0,0,0-.43,5.13,59.46,59.46,0,0,1-1.53,7.33c-.21,1-.37,2-.62,3-.35,1.31-1,2.43-1.4,3.71s-.69,2.52-1.19,3.74-1.15,2.26-1.67,3.44a34,34,0,0,1-1.79,4c-.81,1.28-1.71,2.5-2.45,3.82a65.45,65.45,0,0,1-3.83,5.76c-1.2,1.63-3.29,2.87-3.91,4.78a3.58,3.58,0,0,1-1.65.27c-.56-.11-1.12-.27-1.69-.35l.19-.58c.4,0,.86.11,1.13-.24,1.38-1.61,2.5-3.41,3.93-5,1.18-1.24,1.93-2.77,3.06-4.06a18.58,18.58,0,0,0,2.49-4.68c.58-1.39,1.69-2.38,2.29-3.76s.8-2.82,1.41-4.2c.32-.75.77-1.43,1.11-2.17a21.2,21.2,0,0,0,1.19-4.13c.32-1.49,1-2.77,1.47-4.22.28-1,.52-2,.7-3,.35-1.78.4-3.58.79-5.35A11.84,11.84,0,0,0,233,112a20.56,20.56,0,0,0-.94-4.19c-.16-.38-.49-1-1-.76s-.38.8-.27,1.26a16.23,16.23,0,0,1,.58,4.14c.16,2.1-.65,3.73-.88,5.81a34.88,34.88,0,0,1-1,5.79c-.41,1.54-1.17,2.92-1.55,4.47-.26,1.06-.44,2.12-.8,3.15-.38,1.21-1.13,2.18-1.58,3.36s-.74,2.73-1.36,4a11,11,0,0,1-1.13,1.75c-1.07,1.38-1.53,3.16-2.38,4.74-.68,1.32-1.72,2.34-2.46,3.62-.87,1.52-2.2,2.62-3.15,4.09a64.43,64.43,0,0,0,2.91-8.39,31.58,31.58,0,0,0,1.6-6.74c.07-2,.63-3.83.49-5.81a5.58,5.58,0,0,0-.49-2c0-.74.19-1.46.16-2.21a11.41,11.41,0,0,1,.48-2.72c.38-1.7.41-3.37.69-5.09.15-1.13.43-2.21.51-3.35a33.81,33.81,0,0,0,.3-5.59,96.43,96.43,0,0,0-1.07-10.45c-.17-.83-.39-1.65-.62-2.46s-.67-1.47-.87-2.27a2.76,2.76,0,0,0-.56-1.28c-.63,0-.26.61-.21,1a29.24,29.24,0,0,1,.71,4.12c.32,1.85.37,3.74.63,5.61a47.81,47.81,0,0,1,.15,10.23c-.09,1.88-.59,3.68-.78,5.55-.14,1-.16,2-.39,3-.71.51-.51,1.14-.56,1.91-.27.14-.52.21-.66.5-.39.59.12,1.34-.25,2a53.89,53.89,0,0,1-1.85-9.38c-.08-2.53-.18-5.06,0-7.59.05-4.32.77-8.63.81-12.95A8.21,8.21,0,0,0,215.9,96c-.18-.36-.19-.87-.69-.9a3.33,3.33,0,0,0-.68,1.61c-.18,1.78-.05,3.56-.27,5.32s-.28,3.73-.48,5.59a108.21,108.21,0,0,0-.23,12.51,43.9,43.9,0,0,0,2.63,10.6c.24.51.27,1.14,1,1.21a43.86,43.86,0,0,1-.65,12.19,28,28,0,0,1-.69,3.2,70.49,70.49,0,0,1-2.69,6.64c-1.35,2.21-2.09,4.68-3.56,6.75-1.11,1.67-1.94,3.47-3.18,5.06-1,1.65-2.23,3.12-3.34,4.7a51.09,51.09,0,0,1-5.37,5.79,66.24,66.24,0,0,1-5.35,4.25,37.34,37.34,0,0,1-6.94,4.22c-1.19.49-2.24,1.22-3.42,1.73a20.19,20.19,0,0,0-2.9,1.35,11.12,11.12,0,0,1-5.06,1.71,48.43,48.43,0,0,1-6.59,1.21c-2.61-.07-5.2.2-7.82.12a13.31,13.31,0,0,1-3.83-.52c-1.8-.26-3.27-1.18-5-1.67,0-.5.14-1-.23-1.45a13.35,13.35,0,0,0-2.06-2.19,29.47,29.47,0,0,1-3.14-3.33c-1.39-1.54-2.14-3.44-3.47-5-.86-1.1-1.91-2-2.7-3.11a8.93,8.93,0,0,1-1.26-2.56,31.37,31.37,0,0,0-1.4-3.72,15.79,15.79,0,0,1-.91-2.13c-.19-.75-.72-1.32-.91-2.08-.91-3-2-5.85-2.77-8.83a24.89,24.89,0,0,1-.9-3.76c-.23-2-.43-4-.56-6.06-.06-2.31-.25-4.61-.18-6.92A94.1,94.1,0,0,1,132,123.83c.38-2.54.9-5.07,1.25-7.61a20.21,20.21,0,0,1,5.36-2.91c1.32-.41,2.6-.94,3.88-1.46.63-.22.75-.82,1-1.36a19.16,19.16,0,0,1,2.94-.39c1.28,0,2.51-.38,3.79-.37a24.3,24.3,0,0,0,3.15-.15c.64-.12.75-.59,1-1.12-.23-.47-.37-1-1-1-.87,0-1.75.11-2.62.13.45-1.78.79-3.61,1.37-5.35.4-1.3.58-2.64,1-3.94,1.88-4.34,3.25-9,5-13.43a37.76,37.76,0,0,0,1.32-4.08,34.77,34.77,0,0,1,2.27-4.89c.84-1.15.46-2.4,1-3.6.81-1.84,1.77-3.61,2.6-5.44a69.85,69.85,0,0,0,2.93-6.39,2.61,2.61,0,0,0-.15-2.19,2.92,2.92,0,0,0-1.75,1.34c-1,1.39-2.09,2.69-3,4.18A70.19,70.19,0,0,0,159.44,71a74.68,74.68,0,0,0-3,7.54c-.69,2.12-1.38,4.23-2.17,6.31-.87,2.29-1.61,4.61-2.43,6.91-.9,2.61-2,5.28-2.67,8,.25-2.67.61-5.33.8-8,.17-1.6.3-3.22.62-4.8s1.15-2.87,1.7-4.31c1.11-2.86,2.27-5.7,3.53-8.5a14,14,0,0,0,1.07-4.32c.64-1.16,1.22-2.34,1.77-3.54a1.69,1.69,0,0,0,.1-1.39c-.31-.27-.93,0-1.17.31a17.29,17.29,0,0,0-1.85,3.07c-.63,1.09-1.29,2.16-1.91,3.26-.22.37-.58.54-.63,1l-.31-.11.19.51-.38-.05.14.48-.36,0,.1.41-.31.05.14.31-.53-.17.33.59-.36-.12q0,.38,0,.76l-.33-.05.17.47-.38,0,.19.5-.35-.09c0,.25,0,.5,0,.75l-.34,0,.19.48-.4,0,.18.49-.28-.05a2,2,0,0,1-.2.79,44.21,44.21,0,0,0-1.91,5c-.43,1.51-1,3-1.42,4.48-.64,2.38-1,4.82-1.57,7.23a93.53,93.53,0,0,0-.58,10.52,9.14,9.14,0,0,0,.58,2.53,50.29,50.29,0,0,0-7.08,1.6,17.06,17.06,0,0,0,.84-2.1,27.79,27.79,0,0,0,1-2.83c.92-3.31,2-6.59,2.75-9.92a32.39,32.39,0,0,1,3.34-8.77,37.56,37.56,0,0,0,4.06-8.38c.17-.58.19-1.19.35-1.78s.35-1,0-1.52-.68-.52-1.14-.68l.19-.57,0-.19a13.66,13.66,0,0,0-.34-3.72l-.73.13c1.65-3.15,3.73-6,5.36-9.19A10,10,0,0,0,155.24,58a4.12,4.12,0,0,0-.25-1.75,12,12,0,0,1,.12-1.23,6,6,0,0,1-1.49,1.68,5.22,5.22,0,0,0-1.46,1.64c-.91,1.4-1.78,2.84-2.69,4.24a48.26,48.26,0,0,0-4.3,7.5,61.84,61.84,0,0,1-2.71,6c.21-.73.69-1.65.3-2.38-.12-.36-.61-.35-.89-.19A2.61,2.61,0,0,0,141,75c-.76,2.27-2,4.31-2.72,6.59a41.64,41.64,0,0,0-1.48,4.82c-.66,2.76-1.78,5.14-2.21,7.93a35.79,35.79,0,0,1-.92,4,68.68,68.68,0,0,0-1.24,7,53.62,53.62,0,0,0-.26,5.79,26.49,26.49,0,0,1-.36-4.68,7.93,7.93,0,0,0-1.05-4.26c.42-1.51.76-3,1.1-4.56.52-2,1.2-4.05,1.65-6.12.25-.93.67-1.8,1-2.7.95-3,2-6,3.12-9a6.86,6.86,0,0,0,.76-2.86,4,4,0,0,0-.55-1.54,3.39,3.39,0,0,0-2,1.84,12.31,12.31,0,0,0,.15-3,1.32,1.32,0,0,0-.38-.81,15.3,15.3,0,0,0-2.6,3.46,87.59,87.59,0,0,0-3.27,10.8,6.45,6.45,0,0,1-.38.94c.49-1.78.5-3.58,1.13-5.33a38.74,38.74,0,0,0,1.8-5.48,1.61,1.61,0,0,0-.39-1.07,11.7,11.7,0,0,0,1.62-3.36,6,6,0,0,0,.07-3.11,10.1,10.1,0,0,0-2.82,1.9A8.22,8.22,0,0,0,129.39,74a34.21,34.21,0,0,0-1.81,3c-.2.38-.37.76-.56,1.14l-.07.12a6.06,6.06,0,0,0-.75,1.25,32.59,32.59,0,0,1-2.26,3.82,36.1,36.1,0,0,0-2.21,4.28,29,29,0,0,0-1.53,4c-.53,1.8-1.14,3.64-1.54,5.48a18.85,18.85,0,0,0-.2,2.9c-.06,1.28-.4,2.51-.45,3.8a29.39,29.39,0,0,0,.15,3.57c.26,3.71-.25,7.43,0,11.16a58,58,0,0,1,.43,5.81,11.82,11.82,0,0,0,.61,4.41,16.71,16.71,0,0,1,.44,2.06,11.77,11.77,0,0,1,.48,3c-.92-2.76-1.63-5.57-2.35-8.39-.46-2-.77-4-1.09-6.08-.34-2.68-.78-5.3-1-8a34.26,34.26,0,0,1,.28-10.75l.34-.37a27.26,27.26,0,0,1,2-11.17,26.88,26.88,0,0,1,1.52-4.24,31.49,31.49,0,0,1,2.43-5.15c.86-1.43,1.39-3,2.35-4.33.55-.79,1.16-1.55,1.68-2.36a28.62,28.62,0,0,1,2.74-4c1.64-1.79,3.17-3.67,4.81-5.46A73.11,73.11,0,0,1,140,57.83a27.68,27.68,0,0,0,3-2.6,20.66,20.66,0,0,1,3.09-2.72,25.66,25.66,0,0,0,3.53-2.73c3.16-2.4,6.94-4.14,10.32-6.22,1.15-.71,2.46-1.08,3.65-1.71a49,49,0,0,1,6.85-2.21,12.05,12.05,0,0,1,4.14-.33C175.59,39.4,176.56,39.13,177.57,39.31Z"/><path class="cls-2" d="M175.2,52.57c.55-.09.78.32,1,.72a3.52,3.52,0,0,1-.7,1.45c-.73.87-1.48,2.14-2.54,2.61-.39.2-1,0-1.06-.46s.56-1,.81-1.37C173.35,54.53,174,52.93,175.2,52.57Z"/><path class="cls-2" d="M152.57,54.55a.8.8,0,0,1,1.11,0,1,1,0,0,1-.13,1c-.45.59-1,1.13-1.37,1.75-.72,1-1.15,2.19-1.92,3.2-.48.66-1,1.2-1.49,1.88-.27.4-.46.87-.76,1.25a.57.57,0,0,1-.86,0c-.24-.27,0-.69.1-1,.64-1.4,1.8-2.38,2.43-3.79A13.3,13.3,0,0,1,152.57,54.55Z"/><path class="cls-3" d="M155.11,55a12,12,0,0,0-.12,1.23,4.12,4.12,0,0,1,.25,1.75,10,10,0,0,1-1.05,2.16c-1.64,3.16-3.71,6-5.36,9.19l.73-.13a13.66,13.66,0,0,1,.34,3.72l0,.19-.2-.36a10.53,10.53,0,0,0-1.75,2.53c-.88,1.94-1.76,3.88-2.69,5.8a38.13,38.13,0,0,0-2.48,5.29c-.92,2.85-2.07,5.64-2.9,8.56-.48,1.71-.51,3.5-1,5.21a21.62,21.62,0,0,0-.75,3.38,20.9,20.9,0,0,1-.45,3.87,12.14,12.14,0,0,1-.66-3.65,17.76,17.76,0,0,0-.18-4,4.62,4.62,0,0,1,0-2.69,12.85,12.85,0,0,0,.81-3.32,106.74,106.74,0,0,1,2.83-12.27c.61-1.8,1.39-3.54,2-5.33a61.84,61.84,0,0,0,2.71-6,48.26,48.26,0,0,1,4.3-7.5c.92-1.4,1.78-2.83,2.69-4.24a5.22,5.22,0,0,1,1.46-1.64A6,6,0,0,0,155.11,55Z"/><path class="cls-2" d="M156.8,56.34c.41-.25,1.06,0,.84.55a5.81,5.81,0,0,1-1.36,1.83c-.27.21-.5.1-.78,0-.2-.62.27-.87.55-1.36A10.4,10.4,0,0,1,156.8,56.34Z"/><path class="cls-3" d="M168.05,58.24a2.61,2.61,0,0,1,.15,2.19,69.85,69.85,0,0,1-2.93,6.39c-.83,1.84-1.79,3.6-2.6,5.44-.58,1.2-.21,2.46-1,3.6a5.67,5.67,0,0,0,.52-2.81,5.38,5.38,0,0,0-2.23,2c-1.16,1.95-2,4.13-3,6.17a36,36,0,0,0-2,5.11c-.65,2.1-1.56,4.07-2.09,6.22-.64,2.55-1.5,4.82-1.89,7.41-.23,1.63-.76,3.06-.82,4.68,0,1-.06,1.95-.06,2.92a27.85,27.85,0,0,0-3.91.52c-.38-1.12,0-2.51,0-3.67.24-2.89.38-5.84.83-8.71.41-2.09.89-4.18,1.39-6.25s1.29-3.84,1.86-5.8A22,22,0,0,1,151.68,80c1-1.85,1.61-3.84,2.58-5.68.86-1.52,1.7-3.05,2.64-4.53a14,14,0,0,1-1.07,4.32c-1.27,2.8-2.43,5.63-3.53,8.5-.55,1.44-1.24,2.84-1.7,4.31s-.45,3.2-.62,4.8c-.19,2.68-.55,5.34-.8,8,.67-2.68,1.77-5.35,2.67-8,.82-2.3,1.57-4.63,2.43-6.91.79-2.08,1.48-4.19,2.17-6.31a74.68,74.68,0,0,1,3-7.54,70.19,70.19,0,0,1,3.89-7.26c.87-1.49,2-2.78,3-4.18A2.92,2.92,0,0,1,168.05,58.24Z"/><path class="cls-2" d="M198.72,59c.29.25.58.38.59.8.07.68-.62,1.37-.91,2-.48.71-.57,1.84-1.25,2.36s-1.3-.51-1.2-1.19a7.65,7.65,0,0,1,1.59-3.35A1.22,1.22,0,0,1,198.72,59Z"/><path class="cls-2" d="M202.27,61.23c.27.38.61.73.51,1.24a5.14,5.14,0,0,1-1.27,2.62c-.41.42-1.47.38-1.35-.4s.59-1.6.77-2.44A1.31,1.31,0,0,1,202.27,61.23Z"/><path class="cls-2" d="M182.48,63.27c.18.74-.59,1.61-.82,2.29-.35,1.07-.56,2.18-1,3.25.27.48.61.89.48,1.48-.3,1.32-1.05,2.52-1.37,3.84a36.58,36.58,0,0,1-2.12,6,15.33,15.33,0,0,0-.9,4c-.36,4.06-.81,8-.29,12a66.27,66.27,0,0,0,1.62,8,3,3,0,0,1-.17,1.91c-.33.23-.57,0-.82-.24a2.65,2.65,0,0,1-.72-1.1,39.06,39.06,0,0,1-2-16c-.43.93-.88,1.85-1.3,2.79-.78,1.7-1.89,3.16-2.72,4.84a32.34,32.34,0,0,1-2.65,4.52c-1.42,2-2.37,4.25-3.85,6.17-.32.36-.59.79-1.12.43-.06-.4-.13-.63.15-1a33.18,33.18,0,0,0,2.45-4.69c.67-1.32,1.55-2.47,2.26-3.76s1.31-2.68,2.06-4c.64-1.14,1.32-2.13,1.83-3.3s1.06-2.65,1.65-4a30.66,30.66,0,0,0,2.59-8,.48.48,0,0,0-.12-.47l.09-.15c.73-2,1.22-4.17,1.88-6.23.36-1.09.88-2.09,1.27-3.15s.8-2.4,1.24-3.59a3.62,3.62,0,0,1,1.25-1.69C181.72,63.46,182,63,182.48,63.27Z"/><path class="cls-2" d="M136.47,65.18c-.51.88-1.23,1.65-1.82,2.48-.35.41-.46.9-1.13.73.78-1.17,1.2-2.53,2.15-3.52C135.91,64.58,136.58,64.74,136.47,65.18Z"/><path class="cls-2" d="M158.78,64.87a1.69,1.69,0,0,1-.1,1.39c-.56,1.2-1.14,2.38-1.77,3.54-.94,1.47-1.78,3-2.64,4.53-1,1.84-1.63,3.83-2.58,5.68a22,22,0,0,0-1.43,3.68c-.57,2-1.38,3.81-1.86,5.8s-1,4.16-1.39,6.25c-.45,2.87-.59,5.81-.83,8.71-.08,1.16-.42,2.55,0,3.67a27.85,27.85,0,0,1,3.91-.52c0-1,0-1.95.06-2.92.06-1.62.6-3.06.82-4.68.39-2.59,1.25-4.86,1.89-7.41.53-2.14,1.44-4.11,2.09-6.22a36,36,0,0,1,2-5.11c1-2,1.82-4.22,3-6.17a5.38,5.38,0,0,1,2.23-2,5.67,5.67,0,0,1-.52,2.81,34.77,34.77,0,0,0-2.27,4.89,34.54,34.54,0,0,0-2.62,6.06c-.7,2.19-1.67,4.26-2.23,6.5-.42,1.67-1.05,3.28-1.42,5-.41,1.3-.6,2.64-1,3.94-.58,1.74-.92,3.57-1.37,5.35.88,0,1.75-.16,2.62-.13.61.07.75.56,1,1-.21.52-.33,1-1,1.12a24.3,24.3,0,0,1-3.15.15c-1.28,0-2.51.34-3.79.37a19.16,19.16,0,0,0-2.94.39,44.68,44.68,0,0,0-6.56,1.67c-1.07.4-2.18.63-3.28.94a12.73,12.73,0,0,1-.27,2.21.78.78,0,0,1-1.25.31,5.22,5.22,0,0,1-.74-1.81,11,11,0,0,1-2.43.79c-.21,3,.35,5.92-.79,8.87-.27.48-.51.15-.91.07a34.22,34.22,0,0,0-.08-7c-.06-2.15.17-4.32.31-6.47a70.49,70.49,0,0,1,2.18-11.17c.51-2.48,1.36-4.86,2-7.32a35.56,35.56,0,0,1,1.84-5.87c.65-1.43,1-3,1.66-4.38.78-1.61.67-3.16,2.2-4.36.74,1.39,0,2.92-.5,4.26-.81,2-1.45,4.06-2.17,6.1a25,25,0,0,0-1.16,4.22c-.45,2.07-1.13,4.07-1.65,6.12-.33,1.53-.67,3.05-1.1,4.56a7.93,7.93,0,0,1,1.05,4.26,26.49,26.49,0,0,0,.36,4.68,53.62,53.62,0,0,1,.26-5.79,68.68,68.68,0,0,1,1.24-7,35.79,35.79,0,0,0,.92-4c.44-2.79,1.55-5.18,2.21-7.93a41.64,41.64,0,0,1,1.48-4.82c.74-2.28,2-4.32,2.72-6.59a2.61,2.61,0,0,1,.86-1.42c.28-.16.77-.17.89.19.39.73-.09,1.65-.3,2.38-.63,1.8-1.42,3.53-2,5.33a106.74,106.74,0,0,0-2.83,12.27,12.85,12.85,0,0,1-.81,3.32,4.62,4.62,0,0,0,0,2.69,17.76,17.76,0,0,1,.18,4,12.14,12.14,0,0,0,.66,3.65,20.9,20.9,0,0,0,.45-3.87,21.62,21.62,0,0,1,.75-3.38c.47-1.71.5-3.5,1-5.21.83-2.91,2-5.71,2.9-8.56a38.13,38.13,0,0,1,2.48-5.29c.93-1.91,1.81-3.86,2.69-5.8a10.53,10.53,0,0,1,1.75-2.53l.2.36-.19.57,0,.06c-.27.82-.54,1.63-.86,2.42-.88,2.23-1.62,4.56-2.69,6.69a35.05,35.05,0,0,0-1.86,4.37c-.86,2.78-2.08,5.59-2.79,8.43-.4,1.57-.43,3.19-.88,4.75a20.14,20.14,0,0,0-.87,3.84,18.2,18.2,0,0,1-.44,3.33,17.06,17.06,0,0,1-.84,2.1,50.29,50.29,0,0,1,7.08-1.6,9.14,9.14,0,0,1-.58-2.53,93.53,93.53,0,0,1,.58-10.52c.54-2.4.92-4.85,1.57-7.23.4-1.52,1-3,1.42-4.48a44.21,44.21,0,0,1,1.91-5,2,2,0,0,0,.2-.79l.28.05-.18-.49.4,0-.19-.48.34,0c0-.25,0-.5,0-.75l.35.09-.19-.5.38,0-.17-.47.33.05q0-.38,0-.76l.36.12-.33-.59.53.17-.14-.31.31-.05-.1-.41.36,0-.14-.48.38.05-.19-.51.31.11c0-.43.41-.59.63-1,.62-1.1,1.28-2.16,1.91-3.26a17.29,17.29,0,0,1,1.85-3.07C157.85,64.91,158.47,64.6,158.78,64.87Z"/><path class="cls-3" d="M142,64.91a.6.6,0,0,1,.82.5,2,2,0,0,1-.43,1.7c-1.28,1.8-2.3,3.75-3.67,5.49-.43.52-.84,1.38-1.48,1.63a.81.81,0,0,1-.84-1.28c1.25-2,2.24-4.12,3.6-6l.64.15c.47-.08.52-.5.62-.88l-.68-.26C141,65.49,141.3,65,142,64.91Z"/><path class="cls-2" d="M140.54,65.93l.68.26c-.1.38-.15.79-.62.88l-.64-.15A1.62,1.62,0,0,1,140.54,65.93Z"/><path class="cls-3" d="M133.56,70.33a6,6,0,0,1-.07,3.11,11.7,11.7,0,0,1-1.62,3.36,1.23,1.23,0,0,0-1.24.88c-.55,1.57-1,3.23-1.67,4.75a20.75,20.75,0,0,0-1.67,3.36,4.69,4.69,0,0,0-.58,1.9,14.84,14.84,0,0,1-1.08,5.18c.54-2.4.53-4.79,1.35-7.06s1.1-5,1.94-7.38a2.18,2.18,0,0,0-.29-2.07l-1,.62a34.21,34.21,0,0,1,1.81-3,8.22,8.22,0,0,1,1.34-1.78A10.1,10.1,0,0,1,133.56,70.33Z"/><path class="cls-2" d="M166.32,72.47c.52.47.39,1.22.29,1.84a38.9,38.9,0,0,1-1.5,5.93c-.61,1.71-.94,3.5-1.59,5.2a19.58,19.58,0,0,0-.63,2c-.94,2.08-1.32,4.47-2.15,6.61-.4,1-.67,2-1,3.08-.56,2-1.42,3.83-2,5.8a31.38,31.38,0,0,1-1.26,3.33l-.25.38a.9.9,0,0,1-.61-.3c.31-1.45.79-2.85,1-4.33.44-2,1.19-4,1.64-6,.38-1.73,1.09-3.36,1.47-5.1.71-3,2.06-5.76,2.79-8.76.36-1.46.94-2.84,1.34-4.28s.64-3.07,1.21-4.47C165.29,72.94,165.83,72.37,166.32,72.47Z"/><path class="cls-2" d="M205.81,73.08l0-.09a9.87,9.87,0,0,1,.3,3.55c-.13,1.51-.54,3-.65,4.5a49.09,49.09,0,0,1-1,6.69c-.37,1.68-.64,3.39-1,5.07-.51,2.28-1.44,4.27-2.14,6.47a25.28,25.28,0,0,1-1.68,4.11c-1,1.86-1.54,3.84-2.66,5.62-.88,1.38-1.32,2.78-2.61,3.86a.66.66,0,0,1-1,.11c-.19-.67.68-1.1,1-1.64.73-1.24,1.35-2.57,2-3.87.7-1.62,1.17-3.33,2-4.91,1-2,1.54-4.22,2.37-6.33a28.39,28.39,0,0,0,1.51-5.37c.46-2.72,1.16-5.35,1.47-8.06A36.69,36.69,0,0,1,205,75.43,10.42,10.42,0,0,1,205.81,73.08Z"/><path class="cls-2" d="M219,73.36a1.09,1.09,0,0,1,1.29.36,13,13,0,0,1,1.6,2.87c.33.72.74,1.41,1,2.16a1.17,1.17,0,0,1-.49,1.21A1.45,1.45,0,0,1,221,79a44.25,44.25,0,0,1-2-4.47C218.8,74.15,218.65,73.76,219,73.36Z"/><path class="cls-3" d="M135.58,73.49a1.32,1.32,0,0,1,.38.81,12.31,12.31,0,0,1-.15,3,3.39,3.39,0,0,1,2-1.84,4,4,0,0,1,.55,1.54,6.86,6.86,0,0,1-.76,2.86c-1.08,3-2.18,5.95-3.12,9-.32.91-.73,1.77-1,2.7a25,25,0,0,1,1.16-4.22c.72-2,1.35-4.09,2.17-6.1.49-1.34,1.23-2.87.5-4.26-1.54,1.19-1.42,2.74-2.2,4.36-.64,1.43-1,3-1.66,4.38a35.56,35.56,0,0,0-1.84,5.87c-.6,2.46-1.45,4.84-2,7.32A70.49,70.49,0,0,0,127.48,110c-.14,2.15-.37,4.32-.31,6.47a34.22,34.22,0,0,1,.08,7c.4.08.64.41.91-.07,1.15-2.95.58-5.84.79-8.87a11,11,0,0,0,2.43-.79,5.22,5.22,0,0,0,.74,1.81.78.78,0,0,0,1.25-.31,12.73,12.73,0,0,0,.27-2.21c1.1-.31,2.21-.54,3.28-.94a44.68,44.68,0,0,1,6.56-1.67c-.29.53-.42,1.14-1,1.36-1.28.52-2.56,1-3.88,1.46a20.21,20.21,0,0,0-5.36,2.91c-.35,2.54-.88,5.07-1.25,7.61a94.1,94.1,0,0,0-1.67,13.66c-.07,2.31.12,4.61.18,6.92.12,2,.32,4,.56,6.06a24.89,24.89,0,0,0,.9,3.76c.8,3,1.86,5.88,2.77,8.83.19.75.72,1.33.91,2.08a15.79,15.79,0,0,0,.91,2.13,31.37,31.37,0,0,1,1.4,3.72,8.93,8.93,0,0,0,1.26,2.56c.79,1.15,1.84,2,2.7,3.11,1.32,1.58,2.08,3.48,3.47,5a29.47,29.47,0,0,0,3.14,3.33,13.35,13.35,0,0,1,2.06,2.19c.37.4.21.94.23,1.45a85.94,85.94,0,0,1-11.91-11,35.81,35.81,0,0,1-3-4.16,43,43,0,0,1-2.77-4.6c-.7-1.59-1.44-3.16-2.2-4.72a32.07,32.07,0,0,1-1.09-3.13c-.77-1.92-.85-4.16-1.39-6.18-.21-.69-.24-1.41-.42-2.1a12.75,12.75,0,0,1-.28-3.22c0-1.52-.48-3-.54-4.47-.07-1.13.12-2.23,0-3.35-.06-1.28-.36-2.51-.41-3.79-.06-1.48.07-3-.05-4.47a30.8,30.8,0,0,1-.14-4.47,34.13,34.13,0,0,0,0-3.58,2.19,2.19,0,0,0-.51-1.41c-.36-.3-.59.14-.88.31a.32.32,0,0,1-.27-.42c0-2.26-.44-4.48-.44-6.74,0-.42-.1-.95.29-1.22.49,2,.13,4.21.85,6.09a5.24,5.24,0,0,0,1.29,2.11,1.11,1.11,0,0,0,.15-.62c-.12-.86-.41-1.7-.5-2.57-.14-1.27,0-2.52-.08-3.8s-.4-2.65-.39-4a69,69,0,0,1,.47-8.93,84.17,84.17,0,0,1,1.27-8.44,39.28,39.28,0,0,1,1.38-7.09,6.45,6.45,0,0,0,.38-.94A87.59,87.59,0,0,1,133,76.95,15.3,15.3,0,0,1,135.58,73.49Z"/><path class="cls-3" d="M149.64,73.78l0-.06c.46.16.88.21,1.14.68s.09,1,0,1.52-.19,1.2-.35,1.78a37.56,37.56,0,0,1-4.06,8.38A32.39,32.39,0,0,0,143,94.85c-.79,3.34-1.83,6.62-2.75,9.92a27.79,27.79,0,0,1-1,2.83,18.2,18.2,0,0,0,.44-3.33,20.14,20.14,0,0,1,.87-3.84c.45-1.56.48-3.17.88-4.75.71-2.84,1.93-5.65,2.79-8.43a35.05,35.05,0,0,1,1.86-4.37c1.07-2.13,1.81-4.47,2.69-6.69C149.1,75.41,149.37,74.6,149.64,73.78Z"/><path class="cls-2" d="M173.46,75.14a4.42,4.42,0,0,1,.17,2.35A44.13,44.13,0,0,1,172.06,83c-.75,2.07-1.2,4.23-2.11,6.18q-.89,1.9-1.72,3.84a35.69,35.69,0,0,1-2.67,4.69c-.75,1.19-1.24,2.51-2,3.68-.51.78-1,1.54-1.57,2.29a11.55,11.55,0,0,1-1.88,2.16c-.32.25-.58.48-1,.2-.1-.58.52-1,.76-1.55.73-1.34,1.63-2.56,2.33-3.92s1.17-2.64,1.92-3.88a35.8,35.8,0,0,0,2.4-4.27c.58-1.36,1.16-2.71,1.78-4a31.58,31.58,0,0,0,1.37-4c.67-2.18,1.51-4.27,2-6.51A3.9,3.9,0,0,1,173.46,75.14Z"/><path class="cls-2" d="M227.7,76.54a14.06,14.06,0,0,1,1.89,4.26c-.19.41-.28.79-.74,1a1.14,1.14,0,0,1-1.13-.82,16.92,16.92,0,0,1-.92-3.63c0-.35-.1-.63.13-.93C227.23,76.32,227.49,76.25,227.7,76.54Z"/><path class="cls-2" d="M131.87,76.81a1.61,1.61,0,0,1,.39,1.07,38.74,38.74,0,0,1-1.8,5.48c-.63,1.75-.64,3.55-1.13,5.33a39.28,39.28,0,0,0-1.38,7.09,84.17,84.17,0,0,0-1.27,8.44,69,69,0,0,0-.47,8.93c0,1.36.27,2.67.39,4s-.06,2.53.08,3.8c.09.87.38,1.71.5,2.57a1.11,1.11,0,0,1-.15.62,5.24,5.24,0,0,1-1.29-2.11c-.73-1.88-.36-4.09-.85-6.09l-.19,0a86.23,86.23,0,0,1,.21-11.24c.29-2.63.55-5.25,1.11-7.85.32-1.47.43-3,.71-4.43.35-1.95,1-3.82,1.27-5.81a17,17,0,0,1,1-4.14c.69-1.52,1.12-3.18,1.67-4.75A1.23,1.23,0,0,1,131.87,76.81Z"/><path class="cls-2" d="M181.31,77.44a2.89,2.89,0,0,1,.41,1.78c-.18,1.45-.25,2.9-.47,4.34s-.71,3.1-.93,4.7c-.32,2.12-.27,4.24-.4,6.37a24.87,24.87,0,0,0,0,6.69c.33,2.24,1,4.28,1.54,6.48a32.3,32.3,0,0,0,1.27,3.81c.1.43.81.49,1.15.67a16.12,16.12,0,0,1-1-3.6c-.43-2.35-.1-4.56-.28-6.93a41.89,41.89,0,0,1-.13-4.24c.05-2,.55-3.9.78-5.93a37.8,37.8,0,0,1,.52-4.13c.42-1.9,1-3.75,1.3-5.68a4.82,4.82,0,0,1,.67-1.82c.24-.35.35-.72.83-.79a4.77,4.77,0,0,1,.5,2.27c-.29,2.51-1.19,5-1.61,7.49-.18,1.36-.25,2.74-.48,4.1a30.76,30.76,0,0,0-.58,4.26c0,1.64,0,3.28.06,4.91.1,2.1-.18,4.15,0,6.25a22.73,22.73,0,0,0,.64,4.32c1.39.56,2.82,1,4.17,1.62a73.61,73.61,0,0,1,7.32,3.66c.9.46,1.84.8,2.7,1.34a31,31,0,0,1,4,2.46c.44.39.84,1,.39,1.52s-1.44.23-2-.11a52,52,0,0,0-5.58-3.12,68.06,68.06,0,0,0-11.29-5.29,30.91,30.91,0,0,0-5-1.73,30.74,30.74,0,0,1-3.86-.81.72.72,0,0,1-.16-1.23,2.82,2.82,0,0,1,1.84-.26,25.41,25.41,0,0,1,3.73.58,13.31,13.31,0,0,1-1.62-3.29,35.71,35.71,0,0,1-2.09-8.92,32.56,32.56,0,0,1,.18-4.78c.14-1.82.06-3.61.3-5.42a41.17,41.17,0,0,1,1-5.33c.33-1.54.41-3.26.85-4.8A2.75,2.75,0,0,1,181.31,77.44Z"/><path class="cls-3" d="M171.66,77.85c-.49,2.24-1.34,4.33-2,6.51a31.58,31.58,0,0,1-1.37,4c-.63,1.34-1.2,2.69-1.78,4a35.8,35.8,0,0,1-2.4,4.27c-.76,1.24-1.21,2.61-1.92,3.88s-1.6,2.58-2.33,3.92c-.24.5-.86,1-.76,1.55l-.23-.11a10.33,10.33,0,0,1-1.26.65c-.29-.15-.59-.3-.89-.44l-.17.08a31.38,31.38,0,0,0,1.26-3.33c.57-2,1.43-3.83,2-5.8.29-1,.57-2.08,1-3.08.83-2.14,1.21-4.53,2.15-6.61.16,3.05-1,5.71-1.71,8.64a24.57,24.57,0,0,0,4.33-7.77A38.1,38.1,0,0,1,167.65,83c.51-1,.92-2,1.43-3a3,3,0,0,1,2.39-1.67Z"/><path class="cls-3" d="M127,78.24a8.07,8.07,0,0,1-.44,2.1c-.29,1.19-.53,2.39-.82,3.58s-.7,2.2-.94,3.34-.37,2.49-.57,3.79-.6,2.67-.87,4-.34,2.81-.58,4.23a43.8,43.8,0,0,0-.78,5.37,70,70,0,0,0-.37,8c.12,1.64.09,3.27.1,4.91a45.61,45.61,0,0,0,.88,5.8,25.48,25.48,0,0,0,1.37,6.21,7.27,7.27,0,0,1,.68,1.87,45.73,45.73,0,0,1,0,5.85,17,17,0,0,1-1.33-2.72,18,18,0,0,1-1.21-3.88c-.23-1.41-.46-2.81-.81-4.2a31.42,31.42,0,0,1-.83-5.58c0-1,0-1.9,0-2.86,0-1.44-.33-2.85-.34-4.29s.29-2.81.27-4.24-.18-2.67,0-4,.44-2.51.56-3.79a28.84,28.84,0,0,1,.43-4.43c.3-1.26,1.28-2.78,1.06-4.08-.39-.67-.85-.55-1.46-.26a28.92,28.92,0,0,1-1,3,13.32,13.32,0,0,0-.68,4.65c0,1.75-.61,3.39-.66,5.13-.07,1.34.06,2.68,0,4s-.28,2.51-.26,3.79c0,1.5.28,3,.34,4.47s0,2.82.15,4.24a34.88,34.88,0,0,0,.92,5.21c.41,1.6.55,3.25,1,4.85a30.51,30.51,0,0,0,3.52,7.66c.32.58.88,1.25.85,1.93,0,1.16-.07,2.33-.09,3.49-.5-.87-.79-1.82-1.23-2.72-.61-1.29-1.17-2.59-1.67-3.93-.61-1.65-1.49-3.28-2-5a11.77,11.77,0,0,0-.48-3,16.71,16.71,0,0,0-.44-2.06,11.82,11.82,0,0,1-.61-4.41,58,58,0,0,0-.43-5.81c-.29-3.74.23-7.45,0-11.16a29.39,29.39,0,0,1-.15-3.57c0-1.28.39-2.51.45-3.8a18.85,18.85,0,0,1,.2-2.9c.4-1.84,1-3.68,1.54-5.48a29,29,0,0,1,1.53-4,36.1,36.1,0,0,1,2.21-4.28,32.59,32.59,0,0,0,2.26-3.82A6.06,6.06,0,0,1,127,78.24Z"/><path class="cls-2" d="M194.23,78.21a.88.88,0,0,1,.5,1,100,100,0,0,1-1.25,10.5c-.5,2.45-.46,4.9-1,7.33-.43,1.8-.86,3.6-1.31,5.39a37,37,0,0,1-1.91,5.47,20.65,20.65,0,0,1-1.79,4.26,1,1,0,0,1-.83.44l-.26-.54a7.86,7.86,0,0,0,1-2.8,25.16,25.16,0,0,1,1.24-4.32c.69-2.05,1.08-4.1,1.61-6.19a35.84,35.84,0,0,0,.86-4.13c.2-1.65.3-3.31.62-4.95.48-2.44.78-4.89,1-7.36a25.69,25.69,0,0,1,.61-3.81C193.56,78.3,193.82,78.06,194.23,78.21Z"/><path class="cls-3" d="M175.62,78.5a.48.48,0,0,1,.12.47,30.66,30.66,0,0,1-2.59,8c-.59,1.3-1.08,2.65-1.65,4s-1.19,2.16-1.83,3.3c-.75,1.3-1.32,2.68-2.06,4s-1.59,2.45-2.26,3.76a33.18,33.18,0,0,1-2.45,4.69c-.28.33-.21.56-.15,1l-.28-.15c-.44.12-.73.33-1.15,0-.45-1.46.38-2.49.65-3.76.54-.76,1.06-1.52,1.57-2.29a14.27,14.27,0,0,0,3-4.31,74.15,74.15,0,0,1,3.7-6.81,43.9,43.9,0,0,0,4.35-9.5A11.39,11.39,0,0,1,175.62,78.5Z"/><path class="cls-2" d="M199.73,79.26a4.89,4.89,0,0,1,.42,1.74,26.78,26.78,0,0,1-.6,5.94,33.78,33.78,0,0,0-.79,4.79,38.75,38.75,0,0,1-2.31,8.51,29.46,29.46,0,0,1-2,4.91c-.52,1-.88,2-1.34,3.07a29.49,29.49,0,0,1-1.86,3.53c-.31.46-.62,1-1.27.79-.47-.18-.49-.51-.33-.94.67-1.64,1.57-3.17,2.14-4.86.65-2,1.71-3.75,2.34-5.73.95-3,2.11-5.75,2.58-8.93a37.48,37.48,0,0,1,.7-4.62,24.23,24.23,0,0,0,.77-4.2,8.5,8.5,0,0,1,.64-3.22C199.07,79.65,199.21,79.24,199.73,79.26Z"/><path class="cls-2" d="M213.31,80.23a.6.6,0,0,1,.8.3,7.9,7.9,0,0,1,.47,2,31.18,31.18,0,0,1,.45,4.7,65.49,65.49,0,0,1-1,9.63c-.54,2.33-1.57,4.53-2.07,6.88a22.91,22.91,0,0,1-1.89,4.65,35.37,35.37,0,0,1-2.68,5.58c-.56.78-1,1.64-1.66,2.38-.34.41-.79.4-1.27.52a1.52,1.52,0,0,1-.23-1.3,12.35,12.35,0,0,1,1.36-2.27,16.88,16.88,0,0,0,1.85-3.52c.61-1.51,1.3-3,2-4.44a35.5,35.5,0,0,0,1.27-4.1,38,38,0,0,0,1.73-5.89,63.21,63.21,0,0,0,1-9.47c-.08-1.4,0-2.82-.11-4.21C213.24,81.24,212.84,80.55,213.31,80.23Z"/><path class="cls-2" d="M207,80.54c1.55,2.3,1.91,4.81,2.24,7.51A27.27,27.27,0,0,1,209,92.4,51.38,51.38,0,0,1,208,98.86c-.42,2.27-1.13,4.49-1.77,6.7a42.65,42.65,0,0,1-2.83,6.52c-.52,1.14-1.09,2.27-1.71,3.37a3.88,3.88,0,0,1-1.23,1.49.8.8,0,0,1-1.22-.3,2,2,0,0,1,.34-1.47c.38-.67.77-1.33,1.09-2,1.11-2.41,2.51-4.8,3.39-7.3a72.06,72.06,0,0,0,2.26-8.25A52.53,52.53,0,0,0,207.5,89a18.56,18.56,0,0,0-.9-6.87c-.21-.61-.63-1-.42-1.7C206.46,80.45,206.72,80.34,207,80.54Z"/><path class="cls-3" d="M159.37,80.75a37.76,37.76,0,0,1-1.32,4.08c-1.7,4.43-3.07,9.09-5,13.43.36-1.68,1-3.29,1.42-5,.57-2.24,1.53-4.31,2.23-6.5A34.54,34.54,0,0,1,159.37,80.75Z"/><path class="cls-1" d="M129,82.44a17,17,0,0,0-1,4.14c-.28,2-.92,3.86-1.27,5.81-.28,1.47-.39,3-.71,4.43-.55,2.6-.81,5.21-1.11,7.85a86.23,86.23,0,0,0-.21,11.24l.19,0c-.39.27-.26.8-.29,1.22,0,2.26.4,4.48.44,6.74a.32.32,0,0,0,.27.42l-.17.16c-.12,1.21-.17,2.42-.34,3.62a9,9,0,0,1-.13-1.85l-.24-.17.36,0c-.2-2-.13-4.13-.25-6.18-.13-4.11-.19-8.21-.15-12.32a41.44,41.44,0,0,0,.07-4.47,7.51,7.51,0,0,1-.29-1.84c.26-1.39.48-2.78.61-4.19a31.35,31.35,0,0,1,.85-4.2,14.84,14.84,0,0,0,1.08-5.18,4.69,4.69,0,0,1,.58-1.9A20.75,20.75,0,0,1,129,82.44Z"/><path class="cls-2" d="M224.54,95.1a42.92,42.92,0,0,1,2.24,12.23,45.68,45.68,0,0,1,.18,6.37c-.06,2.38-.47,4.65-.65,7a32.68,32.68,0,0,1-.87,4.59c-.4,2.08-1,4.14-1.62,6.17a20.13,20.13,0,0,1-1.26,4,1.55,1.55,0,0,1-1.25.89c-.48-1.26.17-2.13.39-3.34.51-2.56,1.43-5,1.95-7.55.31-1.61.79-3.14,1-4.77.19-2.46.73-4.85.8-7.33,0-1.86.07-3.74-.06-5.59a79.63,79.63,0,0,0-.76-9c-.31-1.36-.57-2.73-.83-4.09C224.15,94.74,224.38,94.65,224.54,95.1Z"/><path class="cls-3" d="M135.3,99.37a20.36,20.36,0,0,1,.27,2.85,14.79,14.79,0,0,0,.15,3.79c.41,1.5.52,2.88,1.43,4.2a27.24,27.24,0,0,1-3.22.9,46.18,46.18,0,0,1,.31-5.13C134.59,103.77,134.83,101.55,135.3,99.37Z"/><path class="cls-3" d="M124.16,101.27a7.51,7.51,0,0,0,.29,1.84,41.44,41.44,0,0,1-.07,4.47c0,4.11,0,8.21.15,12.32.12,2.06.06,4.13.25,6.18l-.36,0c-.2-1.12-.21-2.26-.38-3.38a50.94,50.94,0,0,1-.68-5.32c0-1.41.06-2.82,0-4.23a30.3,30.3,0,0,1,.08-4.7A67.56,67.56,0,0,1,124.16,101.27Z"/><path class="cls-1" d="M130.2,104.42c.42,1.95,0,3.9.48,5.85a4,4,0,0,0-1,2.51c-.21.17-.4.35-.59.54A73.14,73.14,0,0,1,130.2,104.42Z"/><path class="cls-3" d="M130.68,110.28c.11.62.19,1.25.28,1.87-.43.21-.86.42-1.28.64A4,4,0,0,1,130.68,110.28Z"/><path class="cls-2" d="M151.57,117.17a2.8,2.8,0,0,1,.25,2.49,6.89,6.89,0,0,1-1.37,3.09c-.51.53-1,1.27-1.73,1.49a2.26,2.26,0,0,1-2.53-.58c-.71-.73-.62-1.53-.7-2.47a5.81,5.81,0,0,1,0-1.13,9.52,9.52,0,0,1,2-3C148.52,116,150.63,115.85,151.57,117.17Z"/><path class="cls-2" d="M186.59,122.68a2,2,0,0,1,1.88.44,3.47,3.47,0,0,1,1,2.32,6.52,6.52,0,0,1-1.37,4.16,3.88,3.88,0,0,1-1.75.83c-.54.17-1,.48-1.54.27s-.94-.5-1-1c-.44-1.46.39-3.21.88-4.58A4.88,4.88,0,0,1,186.59,122.68Z"/><path class="cls-2" d="M160.5,126.88c.84.53.46,1.31.3,2.09a35.87,35.87,0,0,1-1.8,4.55,46.69,46.69,0,0,0-2.18,6.2,4.82,4.82,0,0,0,.54,3.36c.35.54.93.85,1.31,1.38a2.45,2.45,0,0,0,3,1.22,8.72,8.72,0,0,0,3.36-1.54,1.32,1.32,0,0,1,1.13-.07,1,1,0,0,1,0,1.5,7.1,7.1,0,0,1-3.73,2.23,9,9,0,0,1-2.57.09,4.9,4.9,0,0,1-2.67-1.93c-.41-.63-1-1.07-1.42-1.71a7.56,7.56,0,0,1-.6-4.53,37.51,37.51,0,0,1,3-7.92c.63-1.55,1.36-3.05,1.93-4.62Z"/><path class="cls-1" d="M120.4,139.19l0,0,0,.05a29.74,29.74,0,0,0,3.2,6c.22,1.12.48,2.23.67,3.35a13.9,13.9,0,0,1-1.17-2.34c-.46-1.18-1.1-2.25-1.48-3.47s-.88-2.32-1.24-3.52v-.14Z"/><path class="cls-3" d="M123.64,145.31a5.73,5.73,0,0,0,1.52,1.2,20.84,20.84,0,0,1,.48,3.92,10.76,10.76,0,0,1-1.32-1.77C124.11,147.54,123.86,146.43,123.64,145.31Z"/><path class="cls-3" d="M132.76,172.56a52.54,52.54,0,0,0,3.57,5.27l-.2,0a13.67,13.67,0,0,1-2.09.93c-1.54.52-3,1.1-4.56,1.7a38.73,38.73,0,0,1-.65-6.18A13.33,13.33,0,0,0,132.76,172.56Z"/><path class="cls-3" d="M126.71,174.76q0,.67,0,1.34c-.59.3-1.2.56-1.77.88a21.08,21.08,0,0,0-2.3,2c-.81.61-1.61,1.24-2.41,1.86-.16-1.12-.17-2.26-.38-3.37C122.17,176.57,124.37,175.47,126.71,174.76Z"/><path class="cls-3" d="M127,177.32c0,.31,0,.61,0,.92a9,9,0,0,0-.93.72,48.62,48.62,0,0,0-3.87,3.27c-.63.67-1,1.47-1.61,2.19-.06-.86-.09-1.71-.2-2.56a32.51,32.51,0,0,0,4.16-3.08A6,6,0,0,1,127,177.32Z"/><path class="cls-3" d="M117.84,177.92c.07,2.23.45,4.42.61,6.64a28.62,28.62,0,0,1-3,1,33.77,33.77,0,0,0-5.59,2.19c-1.63.79-3.33,1.37-5,2.11-1,.45-2.05.57-3.08.94-1.52.49-2.87,1.32-4.35,1.89-1.31.52-2.69.73-4,1.22-2.34.84-4.45,2.17-6.82,3a56.16,56.16,0,0,0-7.49,3.43c-2.33,1.25-4.72,2.12-7,3.53-.9.5-1.75,1.08-2.65,1.6-.38.19-1,.49-1.34.06a.62.62,0,0,1,.18-1c1.33-.9,2.72-1.73,4-2.68,1.11-.81,2-1.88,3.07-2.74a38.34,38.34,0,0,1,5.39-3.31c2.45-1.3,4.45-2.87,7-4,1.25-.59,2.51-1,3.7-1.66s2.33-1.41,3.56-2c1.69-.84,3.49-1.34,5.17-2.2,1-.53,2.06-1.1,3.15-1.54,1.32-.57,2.67-.89,4-1.35s2.68-1.16,4.06-1.74c1-.4,2-.6,2.92-1.09s2-.94,3.05-1.4c.46-.22.66-.5.06-.74Z"/><path class="cls-1" d="M136.13,177.78l.2,0a14.18,14.18,0,0,0,1,1.32c1.54,1.52,3,3.13,4.57,4.59a53.58,53.58,0,0,0,5.81,4.91,16.83,16.83,0,0,1,1.6,1.09c.87,1,2.33,1.3,3.51,1.83a17.77,17.77,0,0,0,3.38.87,22.87,22.87,0,0,0,4.92.32,30.58,30.58,0,0,0,3.35-.23,36.59,36.59,0,0,0,4.46-.22c1.41-.28,2.82-.57,4.21-1,1.11-.31,2.27-.33,3.38-.63,2.19-.48,4.14-1.53,6.3-2.19,1-.44,2.1-.46,3-1.05,1.4-.85,2.74-1.78,4.1-2.68-.36,2-.69,3.95-1.22,5.88-.62,2.36-1,4.71-1.76,7-.48,1.56-1.1,3.06-1.58,4.62-.31,1-.56,2-.92,2.91-.09.34-.39.33-.66.5a2.81,2.81,0,0,1-.24,1.57c-1.18,2.33-1.94,4.82-3.14,7.13-1.3,2.49-3,4.65-4.11,7.24a30.31,30.31,0,0,1-2.7,4.9c-1,1.59-2.44,3-3.45,4.56a51.92,51.92,0,0,1-5.78,7.42,39.29,39.29,0,0,1-2.82,3c-1.69,1.45-3.47,3.56-5.62,4.26-.51-.71-1.07-1.38-1.6-2.08s-.88-1.61-1.45-2.35a28.42,28.42,0,0,1-2.58-3.68c-.69-1.23-1.42-2.42-2.21-3.59-1.32-1.94-2.21-4.11-3.53-6.07a26.48,26.48,0,0,1-2.55-5c-.71-1.75-2-3.24-2.58-5.08-.35-.92-.57-1.88-.93-2.8s-.82-1.73-1.24-2.59a28.7,28.7,0,0,1-1.4-4.69c-.42-1.73-1.08-3.38-1.62-5.07-.78-2.92-1.2-5.87-2.09-8.76-.5-2.3-1.19-4.54-1.57-6.87s-.89-4.43-1.14-6.7c1.51-.6,3-1.18,4.56-1.7A13.67,13.67,0,0,0,136.13,177.78Z"/><path class="cls-1" d="M127.45,179.83a27.86,27.86,0,0,0-2.94,2.35,3.85,3.85,0,0,1-.5.85l-.8-.27a1,1,0,0,1,.86-.25l-.12-.39.46-.11A27.73,27.73,0,0,1,127.45,179.83Z"/><path class="cls-1" d="M127.57,181.72q0,.3,0,.61a27.84,27.84,0,0,1-2.43,2.46,13.8,13.8,0,0,0-3.77,4.88c-.08-.58-.21-1.15-.27-1.73a30.58,30.58,0,0,1,3.35-3.39A16.32,16.32,0,0,1,127.57,181.72Z"/><path class="cls-1" d="M123.2,182.76l.8.27c-1,1.24-2.17,2.28-3.13,3.54q-.09-.59-.2-1.18C121.59,184.57,122.26,183.51,123.2,182.76Z"/><path class="cls-1" d="M191.44,183.7a6.77,6.77,0,0,0,2.14,2.47,15.24,15.24,0,0,1-.16,1.78,21.43,21.43,0,0,0-1.94-3.45C191.46,184.23,191.45,184,191.44,183.7Z"/><path class="cls-1" d="M128,184.27c.16.77.28,1.54.41,2.31a23.86,23.86,0,0,0-2.25,1.67c-1.69,1.25-2.33,3.3-4.06,4.61-.12-.61-.26-1.21-.39-1.81,1.29-1.75,2.26-3.45,4-4.8A14.58,14.58,0,0,0,128,184.27Z"/><path class="cls-1" d="M191.3,186.6a23.88,23.88,0,0,0,1.35,2.69,2.34,2.34,0,0,0,.77.63c-.09.69-.19,1.38-.3,2.07-.67-1.24-1.25-2.52-1.84-3.79A4.93,4.93,0,0,1,191.3,186.6Z"/><path class="cls-1" d="M128.66,188c.08.38.16.75.24,1.13-1.64,1.16-2.81,3.16-4.14,4.63-.7.7-1.28,1.5-2,2.21-.15-.73-.32-1.45-.42-2.19,1.59-1,2.49-2.46,3.76-3.8C126.93,189.27,127.84,188.69,128.66,188Z"/><path class="cls-1" d="M129.22,190.35a6.83,6.83,0,0,1,.2,1.37,25.77,25.77,0,0,1-2.06,2.41,29,29,0,0,0-4,5,7.74,7.74,0,0,1-.25-1.56,21.08,21.08,0,0,1,2.15-2.39,45.25,45.25,0,0,0,3-3.47A3.78,3.78,0,0,0,129.22,190.35Z"/><path class="cls-1" d="M190.77,190.43c.4.88.81,1.76,1.25,2.62a1.86,1.86,0,0,0,.6.62c-.23.77-.5,1.52-.69,2.31-.46-1.34-.72-2.72-1.25-4C190.42,191.4,190.67,191,190.77,190.43Z"/><path class="cls-1" d="M129.95,193.56c.19.92.52,1.8.73,2.71a10.58,10.58,0,0,1-1.32,1.2c-.9.77-1.44,1.8-2.35,2.56a21.92,21.92,0,0,0-2.8,2.94c-.16-.62-.3-1.24-.42-1.86a30.8,30.8,0,0,1,3.85-5.13C128.42,195.17,129.24,194.43,129.95,193.56Z"/><path class="cls-1" d="M190,194a10.47,10.47,0,0,0,1.47,4.08c-.1.35-.21.7-.32,1.05a18.58,18.58,0,0,0-1.21-3.69C189.65,195,189.89,194.45,190,194Z"/><path class="cls-1" d="M189.1,197.54c.33,1,.54,2,.81,3a4.61,4.61,0,0,1,.31,1.22,16.79,16.79,0,0,1-.9,2.42c-.26-1.47-.62-2.95-.81-4.43A21,21,0,0,1,189.1,197.54Z"/><path class="cls-1" d="M131.11,198.09v.08c0,.25.09.49.13.74-.53.58-1.09,1.14-1.64,1.7a27.72,27.72,0,0,0-4.6,5.84,12.26,12.26,0,0,1-.33-1.94,30.13,30.13,0,0,1,4-4A30.37,30.37,0,0,1,131.11,198.09Z"/><path class="cls-1" d="M131.69,200.87c.08.25.14.52.2.77a13.59,13.59,0,0,0-2.41,2.84,53.63,53.63,0,0,0-3.7,5.72,15.86,15.86,0,0,1-.47-2.21,34.88,34.88,0,0,1,4.93-5.88C130.71,201.73,131.12,201.12,131.69,200.87Z"/><path class="cls-1" d="M187.71,202a11.5,11.5,0,0,0,.57,2.64c.09.36.38.42.66.62-.35.81-.63,1.64-.93,2.47a24.45,24.45,0,0,0-1-3.46A18,18,0,0,1,187.71,202Z"/><path class="cls-1" d="M132.36,203.51c.11.3.2.6.3.9-1.06,1.21-1.81,2.57-2.77,3.85-.7,1-1.41,2-2.1,3a12.47,12.47,0,0,1-1.2,1.73q-.22-.72-.44-1.44c1.31-2.06,2.94-3.9,4.35-5.84A17.45,17.45,0,0,1,132.36,203.51Z"/><path class="cls-1" d="M133.36,206.44c.25.77.44,1.55.69,2.32-.83,0-1.19.72-1.72,1.26a39.21,39.21,0,0,0-2.69,3.11,30.65,30.65,0,0,0-2,3.15c-.16-.54-.32-1.07-.51-1.59a26.39,26.39,0,0,1,1.78-2.52c1.26-1.63,2.5-3.29,3.75-4.93A9.31,9.31,0,0,1,133.36,206.44Z"/><path class="cls-1" d="M186.15,206.54l0-.08a27.87,27.87,0,0,0,1,3.66,24.56,24.56,0,0,1-1.27,2.47c-.19-1.43-.31-2.88-.46-4.32A7.24,7.24,0,0,1,186.15,206.54Z"/><path class="cls-1" d="M134.37,210.25a2.36,2.36,0,0,1,.2.92,20.81,20.81,0,0,1-1.95,2.27,38,38,0,0,0-4.13,5.95c-.19-.73-.4-1.46-.59-2.2a11.24,11.24,0,0,0,1.53-1.82,36.25,36.25,0,0,1,3.54-3.82A5.16,5.16,0,0,1,134.37,210.25Z"/><path class="cls-1" d="M184.37,210.72v.08c.16,1.38.42,2.77.55,4.16a6.27,6.27,0,0,1-.34.72,15,15,0,0,0-.87-3.59A12.42,12.42,0,0,1,184.37,210.72Z"/><path class="cls-1" d="M135.21,212.93c.19.79-.51,1.15-.94,1.71a37.08,37.08,0,0,0-5,7.46l-.37-1.33c1.55-2.13,3.05-4.33,4.78-6.31A7.57,7.57,0,0,1,135.21,212.93Z"/><path class="cls-1" d="M182.9,213.89c.23,1.33.46,2.67.66,4a17.71,17.71,0,0,1-1.45,2.91c-.07-1.51-.19-3-.33-4.51C182.09,215.48,182.58,214.73,182.9,213.89Z"/><path class="cls-1" d="M136,214.94l.32.73a22.23,22.23,0,0,0-1.86,2.33,29.64,29.64,0,0,0-2.9,4.46c-.44,1-.84,2-1.21,2.95a16.38,16.38,0,0,1-.67-2.14A56.77,56.77,0,0,1,136,214.94Z"/><path class="cls-1" d="M136.9,217.3l0,.06c.29.63.51,1.27.74,1.92a24.44,24.44,0,0,0-4,4.75,28.49,28.49,0,0,0-2.19,4.39c-.19-.54-.36-1.08-.51-1.63.66-1.12,1.29-2.26,1.84-3.43A58.68,58.68,0,0,1,136.9,217.3Z"/><path class="cls-1" d="M180.47,218.41c0,1.47.26,2.92.31,4.39a12.66,12.66,0,0,1-.81,1.49c.05-1.56-.15-3.05-.2-4.6A5.59,5.59,0,0,1,180.47,218.41Z"/><path class="cls-1" d="M138.2,220.48c.29.44.54.9.8,1.37a5.91,5.91,0,0,0-1.66,1.69c-1.79,2.63-3.77,5.6-4.59,8.69a24.62,24.62,0,0,1-1-2.75,21.63,21.63,0,0,0,2-3.47,29.2,29.2,0,0,1,2.15-3A25.94,25.94,0,0,1,138.2,220.48Z"/><path class="cls-1" d="M178.48,221.78c.15.86.17,1.72.27,2.58a15.53,15.53,0,0,1,.25,1.55,12.92,12.92,0,0,1-1,1.9c0-1.46.07-2.91,0-4.37A4.4,4.4,0,0,1,178.48,221.78Z"/><path class="cls-1" d="M139.74,223.13c.2.43.39.87.58,1.31a3.54,3.54,0,0,0-1.51,1.45,36.44,36.44,0,0,0-5.16,8.54,6.93,6.93,0,0,1-.5-1.11c.88-1.51,1.47-3.15,2.45-4.61l2.37-3.45A8.34,8.34,0,0,1,139.74,223.13Z"/><path class="cls-1" d="M176.59,225.6l0-.05c-.08,1.4.08,2.77.13,4.16a8.73,8.73,0,0,1-1,1.78c.05-1.35-.13-2.67-.2-4A17.54,17.54,0,0,1,176.59,225.6Z"/><path class="cls-1" d="M140.83,225.83v0l0-.05c.43,1,1,1.92,1.51,2.9a19.2,19.2,0,0,1-2.26,3,28.33,28.33,0,0,0-4.15,7.2c-.4-.42-.63-1-1-1.44s-.87-1.26-.45-1.8a51,51,0,0,1,5.6-8.69A8.5,8.5,0,0,0,140.83,225.83Z"/><path class="cls-1" d="M174.23,229.09c0,.74.13,1.46.21,2.19s-.2,1.31-.17,2a17.38,17.38,0,0,0-1.43,1.85c0-1.42.16-2.86,0-4.28C173.33,230.24,173.79,229.68,174.23,229.09Z"/><path class="cls-1" d="M143.31,230.07c.19.27.36.55.54.83-2.7,3.14-5.47,6.64-6.82,10.6a15,15,0,0,1-.58-1.49c1.26-1.75,2.09-3.91,3.45-5.66C141,232.87,142.21,231.52,143.31,230.07Z"/><path class="cls-1" d="M144.5,232.17c.17.3.34.61.5.91-.82,1.3-1.83,2.44-2.55,3.81-.62,1.21-1.48,2.27-2.11,3.47s-1.27,2.61-2,3.85q-.35-.66-.67-1.33c.55-1,1.06-2.11,1.65-3.14a45.68,45.68,0,0,1,2.72-4,19.58,19.58,0,0,1,1.38-1.75A16,16,0,0,0,144.5,232.17Z"/><path class="cls-1" d="M171.5,232.81a29,29,0,0,0,0,4.09c-.36.59-.75,1.17-1.11,1.77a12.46,12.46,0,0,0-.18-3.88C170.55,234.1,171.09,233.48,171.5,232.81Z"/><path class="cls-1" d="M145.75,234.34c.16.23.31.46.45.69a18.48,18.48,0,0,0-1.75,3,54.75,54.75,0,0,0-3.36,6.91,22.5,22.5,0,0,0-.84,2.41l-1.35-2.24c1.29-1.75,2.13-3.72,3.3-5.53C143.36,237.94,144.23,235.78,145.75,234.34Z"/><path class="cls-1" d="M146.91,236.15l.63.75c-1.47,2.7-3,5.39-4.3,8.17-.54,1.4-1.24,2.72-1.75,4.14a3.68,3.68,0,0,1-.59-1c.37-1.13.9-2.22,1.38-3.32,1-1.93,1.8-3.9,2.91-5.76C145.78,238.18,146.32,237.16,146.91,236.15Z"/><path class="cls-1" d="M169,236.37a19.64,19.64,0,0,1-.05,2.49c0,.59.11,1.19,0,1.78-.5.86-1.19,1.61-1.73,2.45a19.7,19.7,0,0,0,.45-5.28l.68-.85A5.66,5.66,0,0,1,169,236.37Z"/><path class="cls-1" d="M148.36,238.46c.22.3.42.62.63.93-1,.24-1,1.31-1.49,2.1a62.56,62.56,0,0,0-3.15,8,16.45,16.45,0,0,0-.73,2.84,14,14,0,0,1-1.36-2.1c.46-1.17,1.13-2.28,1.65-3.42a55.7,55.7,0,0,1,2.59-5C147.1,240.68,147.7,239.55,148.36,238.46Z"/><path class="cls-1" d="M166.28,239.45a24.38,24.38,0,0,0-.26,3,8.49,8.49,0,0,1-.3,2.55c-.58.84-1.34,1.56-2,2.35a43.63,43.63,0,0,0,.51-5.61C164.89,240.94,165.6,240.22,166.28,239.45Z"/><path class="cls-1" d="M149.56,240.28l.57.79a36.05,36.05,0,0,0-1.83,4.39,33.89,33.89,0,0,0-2.49,9.48c-.49-.62-1-1.22-1.55-1.79a44.73,44.73,0,0,1,1.64-4.49c.44-1.27.93-2.53,1.4-3.79C147.91,243.26,148.86,241.84,149.56,240.28Z"/><path class="cls-1" d="M151.13,242.35a12.2,12.2,0,0,1,1.34,1.89c-.46-.32-.77-.56-1.35-.28-.56.55-.64,1.59-.89,2.3a45.19,45.19,0,0,0-2.64,10.68l-1.07-1.28c.75-2.5,1.12-5,2.16-7.42C149.5,246.28,150.2,244.27,151.13,242.35Z"/><path class="cls-1" d="M162.64,243.21c-.17,1.53-.38,3-.5,4.58a4.6,4.6,0,0,0,.09,1.2c-.6.73-1.24,1.41-1.87,2.11.34-2.12.49-4.24.68-6.38C161.57,244.23,162.11,243.73,162.64,243.21Z"/><path class="cls-1" d="M152.41,244.9l0,.07a6.86,6.86,0,0,0,1.28,1.9c-.33,1.3-.91,2.5-1.31,3.78-.57,1.67-1,3.37-1.47,5.07-.31,1.1-.77,2.13-1.15,3.22-.49-.4-1-.81-1.44-1.26.56-1.91,1.1-3.83,1.59-5.76A54.69,54.69,0,0,1,152.41,244.9Z"/><path class="cls-1" d="M159.55,246.08c-.19,2-.44,4-.7,6,.06.86-.66,1.25-1.16,1.85,0,.15,0,.29,0,.44-1,.88-1.94,1.71-2.94,2.54.67-2.68,1.38-5.35,2-8.05a2.39,2.39,0,0,1,.4-1.09,34.49,34.49,0,0,1-.92,5.65,2.24,2.24,0,0,0,0,1,.73.73,0,0,0,.81.21,4.91,4.91,0,0,0,.73-2.11,40.28,40.28,0,0,0,.87-5.6C158.89,246.63,159.22,246.36,159.55,246.08Z"/><path class="cls-1" d="M154.86,248.07l.81.09c-.34,1.09-.54,2.21-.83,3.32a60.23,60.23,0,0,0-1.43,6.37c-.76.71-1.58,1.34-2.38,2-.16-1.31.61-2.12,1-3.35A76.16,76.16,0,0,1,154.86,248.07Z"/><path d="M155.37,167.26c3.5.18,6.94,2.31,10.38,3.05a15.31,15.31,0,0,0,8.83-.41.9.9,0,0,0-.48-1.73,29.69,29.69,0,0,1-10.92-.46c-2.69-.53-5.15-1.86-7.92-1.16a.36.36,0,0,0,.1.71Z"/><path d="M155,174.7c2.05,5.25,9.9,5.25,14.1,3,1-.53.31-2.26-.79-1.86-4.2,1.55-9.32,1.8-12.68-1.54-.25-.25-.78,0-.63.37Z"/><path d="M146.55,157.8c.35,2.5,4.18,4,6.16,4.89a24.21,24.21,0,0,0,11.38,1.87,82.56,82.56,0,0,0,12.64-1.79c3.12-.61,7.85-1.35,10.05-3.86.77-.88.05-2.6-1.24-2.14a84.62,84.62,0,0,1-19.19,4.64,29.87,29.87,0,0,1-10.57-.46c-3.13-.76-5.86-2.42-8.83-3.57-.26-.1-.44.19-.41.41Z"/><path d="M151.21,161.19h-.05a.51.51,0,0,0-.64.49c-.12,2.73,2.28,7.16,4.53,8.68,3.13,2.12,6.93,2.58,10.63,2.62s7.69-.79,10.48-3.15c3.12-2.63,4.85-6.09,7.32-9.21a1.41,1.41,0,0,0-2-2c-2,1.74-3.5,4.11-5.27,6.1a12.92,12.92,0,0,1-9.65,4.7,18.07,18.07,0,0,1-9.92-1.8c-1.71-1-2.65-2.84-3.71-4.39-.49-.73-.92-1.72-1.78-2l.3.74,0,0a.47.47,0,0,0-.28-.68Z"/><path d="M184.29,155.28c-.1.66.48,1.34.77,1.91.48.93.76,1.95,1.23,2.88a.91.91,0,0,0,1.69-.46,4.88,4.88,0,0,0-1.2-3.09c-.44-.58-1.2-1.62-2-1.59a.48.48,0,0,0-.46.35Z"/><path d="M154.2,165.89c2.88,2.81,8.63,3.25,12.46,3.16a32.52,32.52,0,0,0,6.55-1c1.52-.36,3.26-.58,4.38-1.76a1.24,1.24,0,0,0-1.75-1.75c-.95.88-3.11,1.13-4.3,1.44a36.35,36.35,0,0,1-5.95,1c-3.7.33-7.47-.74-11-1.65a.39.39,0,0,0-.38.65Z"/><path d="M147.43,155.75c-1,.12-1.32,1.28-1.6,2.08a3.88,3.88,0,0,0-.13,3.06,1,1,0,0,0,1.83-.24,20.06,20.06,0,0,0,.27-2.21c0-.7.21-1.4.22-2.09a.6.6,0,0,0-.6-.6Z"/></svg>