<svg id="Layer_1" data-name="Layer 1" xmlns="http://www.w3.org/2000/svg" viewBox="0 0 300 300"><defs><style>.cls-1{fill:#fff;}.cls-2{fill:#010101;}.cls-3{fill:#808388;}</style></defs><title>PrequelMemes-DiscoveryImage</title><path class="cls-1" d="M45.16,38.29H254.84V261.71H45.16Z"/><path class="cls-2" d="M166.71,38.56a17.14,17.14,0,0,1,2.53.28c2.26.47,4.51.53,6.77,1.12a54,54,0,0,0,5.89,1.41c1.27.41,2.53.76,3.8,1.19a14.61,14.61,0,0,1,4.57,1.74A42.1,42.1,0,0,1,195,46.39c1,.67,2.14,1.08,3.18,1.66s2.13,1.38,3.17,2.11A10.29,10.29,0,0,1,204.53,52a49.2,49.2,0,0,1,6.12,5.29,38.78,38.78,0,0,1,3.41,3.76,34.55,34.55,0,0,1,3.13,4,34.36,34.36,0,0,1,2.83,4c.33.69.84,1.26,1.18,2a40.7,40.7,0,0,1,2.3,4c.41,1,.9,1.94,1.35,2.92.48,1.36,1.39,2.92,1.93,4.23s1,2.66,1.59,3.85c.33.72.55,1.51.95,2.2.16.73.22,1.49.44,2.21a9,9,0,0,0,.59,1.89c.6,2,.83,3.89,1.31,5.94.55,1.44.36,2.67.82,4.22a10.37,10.37,0,0,0,.24,1.67,54.81,54.81,0,0,1,.19,6c-.26,1.07,0,2.3-.3,3.36a5.68,5.68,0,0,1-.21,1.69c-.16,1.75-.44,3.4-.77,5.12-.24.3-.45,1-.87,1s-.18-.37-.54-.31c-.11.67-.27,1.35-.42,2a9.59,9.59,0,0,0-.51,1.92c-.31,1-.55,1.92-.94,2.86-.3.68-.36,1.44-.67,2.11-.44,1-.84,2.13-1.34,3.1-.38.68-.52,1.54-.95,2.2-.51,1.45-1.62,2.73-2.3,4.08a21.25,21.25,0,0,1-1.61,2.6,23.69,23.69,0,0,1-2.46,3,20.25,20.25,0,0,1-2.63,2.64,15.94,15.94,0,0,1-2.91,2.18A16.29,16.29,0,0,1,212,151a6.88,6.88,0,0,1-1.73,1,3.06,3.06,0,0,0-.36.82,48,48,0,0,1-3.22,6.77c-.72,1.49-1.66,2.87-2.49,4.31-.33.64-.65,1.31-1,1.92-1,1.42-2,3-3.09,4.33a30.89,30.89,0,0,1-2.85,3.49,69.65,69.65,0,0,1-4.75,5.17c-.85.78-1.48,1.74-2.37,2.5a51.26,51.26,0,0,1-6.2,5.24c-1.21.74-2.35,1.67-3.61,2.31-.09.3.59.45.77.68a17.12,17.12,0,0,1,1.84,1.36c1.25.81,2.71,1.34,4,2.15.35.08.71,0,1,.33a1.65,1.65,0,0,0,.75.72c.9.64,1.87,1.2,2.74,1.9a18.65,18.65,0,0,0,3.27,1.63c1.89.7,3.18,2,4.88,2.91,1.27.68,2.63,1.18,4,1.78,1,.52,2,1.05,3,1.58,1.48.79,2.52,1.83,4.11,2.44a23.85,23.85,0,0,1,2.31.91c2.13.94,3.37,2.87,5.58,3.77a13.16,13.16,0,0,1,2.66,1.72c.75.57,1.54,1.15,2.24,1.78a31.94,31.94,0,0,1,3.88,3.08,39.87,39.87,0,0,0,3,2.92c1.65,1.34,3,2.94,4.51,4.37a27.62,27.62,0,0,1,3.8,3.59,24.31,24.31,0,0,0,2.34,2.53c1.75,1.58,2.88,3.54,4.38,5.31,3.24,4.92,6.43,9.42,9.27,14.58,0,.44.45,1.66-.09,1.85-1.56-.52-2.08-1.9-3-3.14-1.7-2.6-3.37-5.3-5.1-7.81-.4-.7-1-1.3-1.35-2-1-1.8-2.28-3.16-3.42-4.85a47.85,47.85,0,0,0-3.72-4.08c-.57-.5-.92-1.17-1.48-1.7-1.25-1.47-2.86-2.46-4.17-3.86-1.12-1.13-2.19-2.29-3.4-3.32a40.65,40.65,0,0,1-3.35-3.24,15.82,15.82,0,0,0-2.24-1.77c-2.13-1.53-3.93-3.46-6.31-4.46a17,17,0,0,1-3.08-2.23,12.36,12.36,0,0,0-4-2.11,17.72,17.72,0,0,1-3.46-2c-1.2-.74-2.51-1.26-3.71-2a30.21,30.21,0,0,1-6.06-3.24,12.73,12.73,0,0,0-3-1.7,20.69,20.69,0,0,1-4.84-2.91c-.18-.12-.4-.36-.63-.34,0,.79.3,1.5.28,2.29.09,1.79-.64,3.28-.66,5.07a9,9,0,0,1-.14,1.49,14.54,14.54,0,0,1-1,4.21,31,31,0,0,0-.65,3.82c-.53,1.67-1.23,3.35-1.62,5.06-.19.53-.15,1.07-.36,1.6a15.65,15.65,0,0,1-1.73,4.22c-.9,2.36-2.2,4.52-3,6.89a7.18,7.18,0,0,1-1.24,2.17c-1.4,1.58-2.5,3.39-3.86,5a41.42,41.42,0,0,1-4.85,6c-.39.31-.69.74-1.07,1.05a8,8,0,0,0-1.78.06,11.25,11.25,0,0,1-2.89,1c-1.87.27-4.09-.2-6-.24a13.78,13.78,0,0,0-1.8-.45c-1.13-.42-2.27-.62-3.36-1.14s-2.15-.87-3.17-1.3c-1.27-.9-2.79-1.09-4.06-2-1.59-.84-2.75-2.35-4.23-3.37-.65-.34-1.22-.78-1.85-1.15-1.14-.51-1.9-1.63-2.94-2.35a7.94,7.94,0,0,0-2.29-1.31,2.36,2.36,0,0,0-.94-.72c-1.27-.82-2.29-1.92-3.49-2.85-1.53-1.2-3.17-2.13-4.58-3.46a40.16,40.16,0,0,0-5.2-4.54c-1.21-.9-2.16-2.06-3.3-3-1.62-1.79-3.76-2.82-5.42-4.53-1-.87-2.23-1.54-3.26-2.4-.28-.24-.63-.33-.92-.57-.81-.73-1.74-1.39-2.56-2.09a15.8,15.8,0,0,1-1.56-1.44c-.9-.92-1.81-1.85-2.74-2.73-.39-.41-.92-.61-1.31-1s-.83-1-1.38-1.36c-.7-.67-1.18-1.53-1.87-2.21s-1.42-1.35-2-2.18a4.36,4.36,0,0,0-.76-.75,4.31,4.31,0,0,0-.67-1,.3.3,0,0,0-.34-.15c-1.18.86-2.26,1.83-3.47,2.65-1,.65-2.05,1.36-3,2.08a32.39,32.39,0,0,1-3.35,2.76c-1,.72-2,1.54-3,2.26a20.83,20.83,0,0,1-3.6,3.16,15,15,0,0,0-2.85,2.87,37.09,37.09,0,0,1-3.41,3.14,20.94,20.94,0,0,0-1.35,1.61A32.68,32.68,0,0,1,63.9,220c-.44.56-.79,1.2-1.2,1.78C62,223,61.13,224,60.37,225.14c-1.3,2-2.61,3.86-3.82,5.9-1,2.18-2.5,4.76-3.42,7a56.41,56.41,0,0,0-4.22,11.21c-.74,2.29-1,4.25-1.61,6.59-.21.47-.07,1-.29,1.44,0,1-.27,2.06-.25,3.09.22.36.66.4.46.93a.84.84,0,0,1-1.43-.21c-.45-.76-.28-1.52-.51-2.31A31.9,31.9,0,0,1,46.58,250c.38-1,.48-2,.82-3,.45-1.75,1.1-3.5,1.72-5.2.79-2.32,2-4.69,3-6.94a60.32,60.32,0,0,1,4.66-8.44c.81-1.14,1.43-2.31,2.24-3.43a23.33,23.33,0,0,0,1.46-2.14,24.4,24.4,0,0,1,1.76-2.49,42,42,0,0,0,3-3.14,14.25,14.25,0,0,1,2-2.39c.88-1,2.38-1.84,3.13-3,.57-.63,1.11-1.26,1.7-1.87,1.18-1.12,2.53-1.95,3.73-3a8.22,8.22,0,0,1,1.34-1.41c.55-.36,1-.8,1.58-1.16a35,35,0,0,0,3.32-2.6,30.8,30.8,0,0,1,4-3A44.89,44.89,0,0,0,89.72,194c1-.62,1.95-1.3,2.91-1.94s2.07-1.14,3.06-1.79c2.37-1.17,4.39-2.87,6.77-4a41.47,41.47,0,0,0,3.8-2.55c.81-.48,1.58-1,2.4-1.44.54-.29.95-.75,1.5-1,1.22-.74,2.28-1.68,3.48-2.44a11.27,11.27,0,0,0,2.18-2.08,8.24,8.24,0,0,0,1.08-3,6.7,6.7,0,0,1,.57-2.31c.66-1.45.81-3,1.37-4.47.15-.41.1-.81.35-1.16.06-1.08.29-2.33.35-3.28a15.77,15.77,0,0,1-1.79-.47c-2.18-.73-3.75-2.22-5.43-3.7a29.75,29.75,0,0,1-3.77-4.46c-1.23-1.74-2.54-3.67-3.65-5.48-.46-1.07-1.12-2-1.55-3.08a32.78,32.78,0,0,1-1.51-3.1c-.44-.89-.62-1.83-1-2.74-.16-.75-.58-1.36-.76-2.1a18.12,18.12,0,0,1-.74-2.54c-.65-2.5-1.16-5.46-1.61-8a7.31,7.31,0,0,0-.21-1.59c0-.88,0-1.76-.08-2.64-.11-1.41.08-2.81,0-4.23-.08-1.94.1-3.86.08-5.8a21.55,21.55,0,0,0,.22-2.67c.23-.67.08-1.42.32-2.09,0-.74.29-1.4.31-2.14.25-.75.07-1.54.33-2.3.08-.87.27-2.09.43-3s.45-1.67.55-2.54.24-2,.52-3c.15-.77.2-1.57.42-2.32s.58-1.31.44-2.11a6,6,0,0,1,.56-2.94,22.08,22.08,0,0,0,.9-2.37c.8-2.94,2.3-5.4,3.59-8.12.76-2.12,2.1-3.77,3.19-5.7s2.23-3.86,3.36-5.73a32.24,32.24,0,0,1,2.19-3.28c.73-1,1.42-2,2.22-2.89.68-1.15,1.73-1.91,2.49-3,.7-.78,1.47-1.52,2.14-2.33,1.27-1.18,2.54-2.2,3.79-3.4.73-.64,1.45-1.21,2.22-1.8,1-.68,2-1.21,3-1.84a58.26,58.26,0,0,0,5.33-2.88c.88-.44,1.65-.86,2.53-1.3a23.44,23.44,0,0,1,3-1.22c1-.47,2.13-.76,3.18-1.2a36.75,36.75,0,0,0,3.93-.93c1.12-.22,2.45-.47,3.57-.64a7.34,7.34,0,0,1,3-.14c1.7,0,3.35-.3,5.08-.27A29.39,29.39,0,0,1,166.71,38.56Z"/><path class="cls-1" d="M161,40.24a37.91,37.91,0,0,1,4.65,0,12.24,12.24,0,0,1,2.53.27c.71,0,1.3.24,2,.28,2,.42,4.15.43,6,1.15,1.53.43,3,.6,4.45,1,1.66.27,3.22,1.07,4.86,1.41a13.22,13.22,0,0,1,3.7,1.45c1,.54,2.06.86,3,1.4,1.35.45,2.4,1.4,3.71,2A25.69,25.69,0,0,1,201.59,53a3,3,0,0,1,1.45.32c.52.46,1.21.74,1.73,1.2a47.8,47.8,0,0,1,6.26,6,13,13,0,0,1,1.63,2,28.81,28.81,0,0,1,2.07,2.59c.61,1,1.38,1.84,2,2.8,1.11,1.45,1.91,3,2.89,4.52a50.07,50.07,0,0,1,3.6,7.2c.68,1.4,1.34,2.7,2,4.09.62,2.3,2.06,4.46,2.41,6.79.2.78.36,1.54.61,2.31a22.62,22.62,0,0,1,.91,3.92c.36,1,.4,2.06.73,3.06a47.92,47.92,0,0,1,.79,6.35,42.91,42.91,0,0,1-.39,9.72c-.09.73,0,1.49-.09,2.22a2.14,2.14,0,0,0-.46.19,4.82,4.82,0,0,1-.38,1.71c-.52,2.2-1.43,4.27-2,6.47a8.92,8.92,0,0,0-.67,1.67,35.16,35.16,0,0,1-1.76,4.12,27.82,27.82,0,0,1-1.89,4,32.53,32.53,0,0,0-1.9,3.15,28,28,0,0,1-4.52,5.49,13.48,13.48,0,0,1,1-1.6c1-1.56,1.61-3.29,2.57-4.83a31.71,31.71,0,0,0,1.64-4.06,25,25,0,0,0,1.35-3.26c.15-1,.54-1.86.69-2.83a35.65,35.65,0,0,0,1.14-5.51,50.06,50.06,0,0,0,.83-7c.26-.57.06-1.31.29-1.88a42.61,42.61,0,0,0,.32-4.54,30.91,30.91,0,0,0,.15-3.71,12.39,12.39,0,0,0-.8-4.16l-.15-.11-.24,0-.12.21a51.89,51.89,0,0,1,0,6c-.23,1.27-.1,2.65-.33,3.91-.12,2.14-.64,4.56-.72,6.87-.46,2.48-.71,4.31-1.06,6.76a13.36,13.36,0,0,1-.54,1.92c-.28,1.26-.83,3.29-1.22,4.54-.55,1.35-1.19,2.65-1.64,4a45.91,45.91,0,0,1-2.09,4.23,42.44,42.44,0,0,1-4.09,6.73A15.5,15.5,0,0,0,211.7,149a.3.3,0,0,1-.32.13,12.52,12.52,0,0,0,.48-1.51c.19-.27.21-.23.49-.08.75-.11.64-1,.89-1.49a14.85,14.85,0,0,0,.63-1.89c.67-2.16,1.34-4.42,2-6.57a24.78,24.78,0,0,1,1.12-3.81c.09-.39.47-.94.23-1.3-.48-.36-.73,0-1,.38.3-1.53.63-3.07.94-4.59a36.36,36.36,0,0,0,1.05-7.82c.24-.58.06-1.19.33-1.77a83.38,83.38,0,0,0,0-8.79c-.31-1.24-.4-2.57-.77-3.8-.12-1.06-.25-2-.45-3.05-.09-.26-.08-.52-.42-.46-.11.29,0,.68.05,1a39.88,39.88,0,0,1,.78,5.91c0,1.48,0,2.95,0,4.42a30.8,30.8,0,0,0-.2,3.81,55.11,55.11,0,0,0-.88,6.8c-.25.42,0,1-.31,1.36a37.48,37.48,0,0,1-.86,4.14c-.3,1.91-.89,3.69-1.17,5.69a4.83,4.83,0,0,0,0,2.32c-.13.69-.46,1.34-.57,2-.31.18-.67-.28-1-.33-1-.47-2-.79-3-1.2a42.72,42.72,0,0,1-7.14-3.68A18.69,18.69,0,0,1,199.2,132a20.27,20.27,0,0,1-2.08-1.94c-.37-.37-.7-.68-1.27-.53s-.42.64-.27,1c.95,1.49,2.5,2.6,3.67,3.92a13.92,13.92,0,0,0,3.06,2.22,37.2,37.2,0,0,0,6.85,3.52c.62.38,1.32.45,1.95.78s1.26.74,2,.57c.16.37-.32.35-.5.58A23.24,23.24,0,0,0,211,146c-.51,1-.73,2.21-1.18,3.26-.34.9-.77,1.76-1.1,2.66a20.37,20.37,0,0,1-1.3,2.94c-1.07,2.07-2.24,4.31-3.48,6.25-.85,1.2-1.46,2.42-2.22,3.71-1.46,2.33-3.22,4.36-4.87,6.54-1.81,2-3.65,4.24-5.67,6.16-1,1-1.9,2.17-3,3.11a50.73,50.73,0,0,1-4.68,4c-.83.69-1.8,1.07-2.61,1.79-1.67.94-3.4,2.33-5.27,2.81-1.3.54-2.68.94-4,1.35-.78.06-1.55.18-2.33.29a10.43,10.43,0,0,1-2.94.19,16.31,16.31,0,0,1-2.54-.34c-.45-.18-1,0-1.46-.27a5.68,5.68,0,0,1-2.36-.57c-1.26-.51-2.73-.91-4-1.47a86.52,86.52,0,0,1-9.38-4.59,22.62,22.62,0,0,1-4.52-2.67c-.93-.82-1.8-1.72-2.72-2.56-.33-.26-.5-.63-.88-.83-.16-.28,0-.59-.12-.9a21.46,21.46,0,0,0-1-2.54,14.16,14.16,0,0,0-1.4-2.85c-1.28-2.07-2.46-4.14-3.67-6.25a17.85,17.85,0,0,1-1.72-3.58,36.49,36.49,0,0,1-1.3-3.51,69.69,69.69,0,0,1-2.46-8.19c-.15-.79-.45-1.56-.57-2.35-.05-.37.13-.68.12-1.05a19.55,19.55,0,0,0,.11-3.18,1.7,1.7,0,0,1-.11-.63c0-2-.1-4-.13-5.92s.12-4,.16-6c.28-.88.06-1.77.32-2.64.18-2.22.72-4.9,1-7,.45-.35,1-.46,1.5-.83.17-.09.38-.33.56-.34.22.26.3.57.7.57.77-.26,1.6-.38,2.33-.7.32,0,.53.28.84.31a7.17,7.17,0,0,0,3.91-1.45c.11-.11.57-.32.47-.49l-.15,0a10.27,10.27,0,0,0,1.87-.88c1-.48,2-1,3-1.48s2-.76,2.87-1.32a10.87,10.87,0,0,1,2.21-1c1.28-.49,2.19-1.44,3.42-2a8.33,8.33,0,0,0,3.92-3.61,8.78,8.78,0,0,0,.7-1.68c.73-1.09,1.54-2.13,2.25-3.25a16,16,0,0,0,2.1-3.6c.42-.73.5-1.67.87-2.35.25,1.6,0,3.48.35,5.1,0,1.07.21,2.1.31,3.15.41,1.38.53,2.58,1.5,3.74a1.92,1.92,0,0,0,1.06.66,1.69,1.69,0,0,0,1.45.43,5.85,5.85,0,0,0,1.84,3.45c.3,1,.05,2.55.79,3.43.16.3.44.39.71.56.09.48-.09,1.07,0,1.59s-.11,1.25.33,1.48c.56.08,1.29.29,1.72-.18a19.38,19.38,0,0,0,2-2.24c.26-.07.23.25.5.34.6.24,1.13-.24,1.6-.55a14.52,14.52,0,0,0,2.5-2.15c1.05-1.16,2.51-2,3.62-3.15.89-.86,1.65-1.87,2.53-2.76a40.73,40.73,0,0,0,6.73-9.17,35.22,35.22,0,0,0,1.87-3.8,13.32,13.32,0,0,0,.91-3.11c.2,1.31.2,2.4.29,3.72.19.74.06,1.57.29,2.3.08,2.12.63,4.41.82,6.57.09,1.45.38,2.61.53,4a33.81,33.81,0,0,0,3.28,9.06,18.1,18.1,0,0,0,3.25,5c.36.37.93.53,1.23,0,0-.45-.51-.9-.6-1.35.23-.78-.3-1.59-.42-2.35-.45-2.3-1-4.65-1.31-7-.26-.65-.13-1.34-.35-2a18.93,18.93,0,0,0-.5-3.69c-.12-1.22-.55-2.28-.77-3.49-.33-1.81-.94-3.81-1.11-5.71a32.1,32.1,0,0,1-.71-4.12c-.11-.57-.06-1.14-.19-1.69-.18-.85,0-1.7-.26-2.53-.09-1.2-.07-2.39-.07-3.6a7.33,7.33,0,0,0-.61-2.73c-.08-.22-.31-.5-.56-.48-.44.25-.55.91-.84,1.32s-.23,1.19-.66,1.33c-.42-.06-.75-.12-.93.34a8.69,8.69,0,0,0,0,1.71c.07,1.06,0,2.12.08,3.18.2.49,0,1.09.15,1.61-.18-.32-.56-.74-.87-.28A30.36,30.36,0,0,1,190.53,97a41.44,41.44,0,0,1-8.6,12.11,20.17,20.17,0,0,1-3.69,3.68,28.15,28.15,0,0,0-2.6,2.34c0-.33.37-.55.52-.83,1-1.25,1.91-2.47,2.74-3.8s2.24-2.87,3.06-4.35A77.13,77.13,0,0,0,187,95.37,10.26,10.26,0,0,0,189,90.71a.76.76,0,0,0-.07-.6,2.39,2.39,0,0,1-.59.17l-.1-.42c.11-.34.28-.92,0-1.19-.26-.08-.44.12-.47.37a11.45,11.45,0,0,1-1.12,3.78l-.11-.17c-.25.08-.43.37-.61.56a16.58,16.58,0,0,0-2.11,3c-1.31,2.65-3.08,4.93-4.52,7.52-.8,1.35-1.6,2.81-2.39,4.16a66.69,66.69,0,0,0-3.56,5.94,26.79,26.79,0,0,1-1.72,2.72c-.06.13-.3.55-.08.63a17.14,17.14,0,0,1-1.1,1.37l-.24,0c.31-1.07.44-2.15.83-3.2a43.91,43.91,0,0,1,1.7-4.87c.48-1.3,1-2.59,1.47-3.89.85-1.71,1.47-3.56,2.3-5.28,1-2.56,2.18-4.89,3.17-7.4.25-.46.73-1.26.08-1.61-.76-.19-1.11.63-1.43,1.15-1,2-1.84,4.11-2.75,6.13-.6,1.63-1.39,3.16-2,4.78-1.28,2.91-2.38,6-3.49,9a12.55,12.55,0,0,0-.73,2.88h-.19a31,31,0,0,1,.37-7.21c.18-2.15.63-4.12.93-6.21a26.27,26.27,0,0,1,.56-2.66c.6-3.44,1.3-6.84,2-10.25.38-1.44.49-3.24,1.2-4.57a3.84,3.84,0,0,1,.09-.42.76.76,0,0,1-.35.12c-.26-.29-.38-.66-.84-.4-.66.29-.66,1.06-.84,1.66-.14.87-.49,1.67-.68,2.52-.36,1.6-.81,3.27-1,4.89-.25.66-.26,1.47-.49,2.12a1.29,1.29,0,0,1,.1-1.07c.09-.8,0-1.63.08-2.43.32-1.12,0-2.38.32-3.49a25.52,25.52,0,0,1,.34-2.75,11.55,11.55,0,0,0-.06-3.37c-.07-.35-.29-.67-.39-1-.5-.21-1.06.94-1.37,1.23,0-1.41.46-2.76.45-4.13-.29-.42-.48-1-1.11-.68-.8.52-.47,1.15-.71,2-.22,3-.86,5.76-1.18,8.57a3.39,3.39,0,0,0-.19,1.14,24.35,24.35,0,0,0-.42,2.68c-.23.53-.1,1.1-.31,1.64a6,6,0,0,1-.21,1.48c0,1.37-.33,2.71-.41,4.06l-.09-.1c-.06-2,.09-4.05-.08-6.06a3.47,3.47,0,0,1-.11-1.27c0-2.68-.23-5.35-.22-8a5.57,5.57,0,0,0-.16-1.9,9.2,9.2,0,0,1,.15-2.76c0-2.23.76-4.12-.16-6.28-.28-.2-.45.19-.58.38a6.61,6.61,0,0,0-.74,1.59,7.48,7.48,0,0,0-.6,2.56,2.21,2.21,0,0,0-.52.09,8.41,8.41,0,0,0,0,3.19c-.2.76-.11,1.53-.26,2.3a20.09,20.09,0,0,1-.3,2.22,6.78,6.78,0,0,1-.18,1.57c0,1.35-.07,2.71-.21,4.05a3.21,3.21,0,0,0-1.09,1.22,94.22,94.22,0,0,1-4.83,9.32c-.8,1.37-1.41,2.81-2.09,4.24a6.43,6.43,0,0,0-.38,1.06,26.32,26.32,0,0,1-3,3.17,2.57,2.57,0,0,1-1,.85c-.37.45-.94.39-1.28.86-.65.44-1.57.71-2.29,1.15.08-.33.36-.47.58-.74.9-1.11,1.8-2.08,2.73-3.18a58.7,58.7,0,0,0,4.92-6.09,38.23,38.23,0,0,0,2.14-3.17c.55-.82.9-1.72,1.44-2.53.52-1.32,1.19-2.6,1.82-3.87.4-.6.34-1.26.78-1.85-.06-.58.33-.93.4-1.48a26.57,26.57,0,0,0,.89-3.61,4.57,4.57,0,0,0,.18-2.22c-.36-.27-.47-.27-.82,0,.12,1.25-.52,2.24-.8,3.5a36,36,0,0,1-1.65,3.8,5.49,5.49,0,0,0-1.16,1.36,45.31,45.31,0,0,0-3.19,4.63,51.44,51.44,0,0,1-3.19,5.05c-1.37,1.78-2.89,3.45-4.35,5.16-2.12,2.29-4,4.75-6.44,6.67-.76.6-1.55,1.15-2.35,1.69-.33.29-.81.44-1,.81-.68.4-1.46.61-2.16,1a7,7,0,0,1-1.82.63,1.33,1.33,0,0,1,.36-.36,2.7,2.7,0,0,0,1.23-.44,9.18,9.18,0,0,0,3.58-3.37l0-.19c1.22-1.18,2.44-2.38,3.62-3.6s2.2-2.58,3.2-4,2.11-3.32,3.14-4.91a30.71,30.71,0,0,0,2.19-2.85,23.79,23.79,0,0,0,1.53-3.28,3.27,3.27,0,0,0,.26-1.87l-.19,0a18.56,18.56,0,0,0-3.67,2.69,9.9,9.9,0,0,0-1.56,1.82c-1.76,2.45-3.46,5-5.25,7.44-1.38,1.86-3,3.48-4.48,5.23-.88,1-1.51,2.13-2.33,3.15-.2.39-.57.59-.66,1a12,12,0,0,1-1,.78c-.34.44-.59.92-1.16,1.13a6,6,0,0,1-1.39,1.17c-.39.16-.67.58-1.07.68a56.37,56.37,0,0,0,4.7-6.35,83.76,83.76,0,0,0,4-7.65c.55-1.28,1.07-2.55,1.7-3.8,1.23-2.52,2.11-5.15,3.21-7.73.24-.84.75-1.34.62-2.27-.11-.73.44-1,.57-1.71.69-1.38,1.12-2.9,1.79-4.27.4,0,.54,0,.74-.32.4-.7,1.3-1.36,1.33-2.2-.17-.45-.65-.06-.88.12a11.6,11.6,0,0,0-1.19,1.61c-.35-.33-.42-.94-1-1.1a2,2,0,0,0-2,1.26c-1.31,3.76-3.37,7.36-5.06,11-2.14,4.19-3.5,9.29-5.79,13.43-.61,1.13-1.3,2.23-1.92,3.36-.79,1.34-1.41,2.87-2.07,4.29a5.87,5.87,0,0,0-.7,2.34l.09.06a5.85,5.85,0,0,0-.64,1c-.5-.18-.56,0-.92.16.51-1.22,1.2-2.41,1.7-3.64s1.08-2.61,1.52-3.94c.14-.23.2-.51.35-.73a7.72,7.72,0,0,0,.93-1.38c1.34-2.23,2.55-4.53,3.71-6.86a15.42,15.42,0,0,0,1.38-3.93,9.65,9.65,0,0,0,.42-2.32,6.14,6.14,0,0,0,.21-2.56c-.29,0-.35.18-.53.35A16.16,16.16,0,0,0,132.17,98c-.15,0-.23-.05-.25-.13.34-1.08.57-2.19.89-3.28.22-.29.15-.62.27-1,.16-.71.41-1.64.56-2.32,0-.46.12-1.32-.33-1.6-.41,0-.76.52-1,.84-.69,1.7-1,3.63-1.49,5.39-.13.55-.33,1.14-.44,1.69-.88,2.68-1.26,5.59-2.25,8.24-1,1.73-1.71,3.11-2.74,4.83-.23.37-.23.81-.73.91.34-1.23.41-2.4.75-3.61a53.56,53.56,0,0,1,1.37-5.6c.49-2,1-4.08,1.54-6a21.7,21.7,0,0,0,.69-3,1,1,0,0,0-.28-1.37c-.61-.13-1,.41-1.17,1-.66,2.69-1.37,5.36-2,8-.71,2.86-1.56,6-2,8.88a37.67,37.67,0,0,0-.81,5.28,6.78,6.78,0,0,0-.18,1.49,1.05,1.05,0,0,0-.19.58c-.34.77-.76,1.61-1.12,2.38-.12.19-.19.7-.5.61a9.22,9.22,0,0,1-.25-1.9,30.15,30.15,0,0,1,0-3.81c0-.32.29-.55.34-.85a11.53,11.53,0,0,1,.45-1.92c.34-.84.41-1.79.78-2.61.09-.47.24-.91.33-1.37.24-.61.18-1.3.47-1.88.62-3,1.81-6,2.67-8.92a19.06,19.06,0,0,0,1.25-5.5c.22-.53,0-1.05.36-1.55a12.43,12.43,0,0,0,.09-2.59h-.12A20.42,20.42,0,0,0,124,92a12.11,12.11,0,0,0-1.21,2.57c-.12.28-.32.54-.41.83a.89.89,0,0,0-1.34-1c-.67.45-.8,1.63-1.09,2.3a4,4,0,0,1-.22,1.26c-.09,2.33-.55,4.86-.73,7.09-.24,1.66-.21,3.31-.54,5-.22-.14-.12-.64-.14-.86,0-.53,0-1.06.08-1.59.2-.74.11-1.47.26-2.22s.08-1.44.19-2.14,0-1.31.29-1.87a7.43,7.43,0,0,1,.2-1.27c.17-.55,0-1.21.26-1.69,0-1.25.53-2.65.7-3.92.3-.9.34-1.85.62-2.76a20.24,20.24,0,0,0,.18-4.1,4.89,4.89,0,0,0-.33-1.87c-.4-.1-.84.68-1.09.94-.93,1.57-2.09,3.31-2.32,5.14-.42,1.76-.83,3.51-1.14,5.29a3.36,3.36,0,0,0-1,2.54c-.28,1-.23,2.13-.52,3.15a83.85,83.85,0,0,0-.33,11.87c0,1.71.23,3.38.33,5.08.22.6.09,1.27.31,1.88.1.37-.06.95.19,1.25a21.57,21.57,0,0,0,.28,4.66,13,13,0,0,1,.44,2.75c.29,1.25.42,2.58.8,3.81a10.9,10.9,0,0,0,1.43,3.6,2.22,2.22,0,0,0,1.84.67c.06.9,0,1.82.08,2.72,0,.36-.24.52-.34.84a5.18,5.18,0,0,0,.09,1.48,28.21,28.21,0,0,1-2.32-4.43c-.51-3.1-1.75-6.27-2.24-9.41-.88-3.3-1.27-6.49-1.88-9.82,0-1-.21-2-.21-3,0-.43-.19-.82-.18-1.26a2.9,2.9,0,0,0-.19-1.27c-.06-.74,0-1.49-.08-2.22a6.4,6.4,0,0,1-.11-1.8c.15-.63.12-1.29.21-1.92.23-.43.1-1,.25-1.46a10.83,10.83,0,0,1,.24-1.46c.47-2.18.78-3.84,1.17-6,.27-1.18.65-2.27.82-3.48a71,71,0,0,0,1.74-7c.43-1.28.56-2.27,1-3.57a3.06,3.06,0,0,0,0-1.74l-.24,0c-1,.81-1,1.81-1.36,2.93-.26.61-.28,1.34-.6,1.92q-.59,2.59-1.19,5.18a21.2,21.2,0,0,0-.87,3.16c-.12.88-.52,1.65-.58,2.54-.26.82-.25,1.75-.53,2.55a5.21,5.21,0,0,1,0-1.48,20.88,20.88,0,0,0,.22-2.87c.25-.81.08-1.63.33-2.43a11.73,11.73,0,0,1,.21-1.69,14.15,14.15,0,0,0-.27-4.86,2.67,2.67,0,0,0-.61-1.69c-.76.3-1.2,1.58-1.54,2.27s-.43,1.32-.82,1.92a3.11,3.11,0,0,0-.19,1.26,1.15,1.15,0,0,0-1.23.47,6.14,6.14,0,0,0-.59,1.89,22.3,22.3,0,0,0-.86,5,31,31,0,0,0-.45,3.09,21.33,21.33,0,0,0-.4,3.67,21.28,21.28,0,0,0-.22,2.89,22.25,22.25,0,0,0-.21,2.52,1.21,1.21,0,0,0-.13-.75c-.09-1.28-.33-2.52-.46-3.8a7.57,7.57,0,0,1-.4-1.28c-.4-.11-.44.68-.62.92-.41.7-.31,1.51-.72,2.2.08-2,.38-4.39.68-6.37-.06-.47-.17-1-.72-1.09a1.36,1.36,0,0,0-.92.78A45,45,0,0,0,102,107c-.06,1.42-.31,2.82-.32,4.25a13.58,13.58,0,0,0-.16,2.08,35.34,35.34,0,0,0,0,5.62,13.78,13.78,0,0,0,.19,2.54c0,1.17.23,2.3.31,3.46a42.2,42.2,0,0,0,1.3,6.35,63.22,63.22,0,0,0,4.29,11,11.24,11.24,0,0,0,.73,2.22c1.23,3,2.59,5.93,4,8.85a32.08,32.08,0,0,0,2.47,4.53.21.21,0,0,1,0,.3,26.74,26.74,0,0,1-4.48-5.11c-.41-.47-.6-1-1-1.5-1-1.29-1.7-2.66-2.6-4-1.29-2.71-2.91-5.41-3.78-8.26-.52-1.42-1.05-2.77-1.45-4.24-.38-1.91-1-3.81-1.21-5.73a24.83,24.83,0,0,0-.55-2.74c-.14-1.82-.21-3.65-.25-5.48.19-2-.1-4,.16-5.93,0-1.41,0-2.82.11-4.23.22-.66.1-1.42.26-2.09a32.18,32.18,0,0,0,.58-4.11c.29-1.59.48-3,.65-4.57.74-2.91.84-5.74,1.63-8.63.31-1.06.92-1.84.89-3a27.53,27.53,0,0,0,.7-3.17c.91-2.45,2.29-4.82,3.43-7.16a20.59,20.59,0,0,1,1.46-3c.48-.89,1.16-1.68,1.6-2.59.68-1,1.09-2.13,1.8-3.09.72-1.19,1.37-2.38,2.19-3.52A16.72,16.72,0,0,1,116,64.15c.94-1.26,1.87-2.45,2.85-3.69a9.62,9.62,0,0,1,1.69-1.92,33.23,33.23,0,0,1,4.56-4.74c1-.85,2-1.85,3.08-2.64a25.4,25.4,0,0,1,3.58-2.34c.89-.37,1.62-1,2.53-1.31.75-.42,1.46-.86,2.16-1.35s1.34-.67,2-1a28.48,28.48,0,0,1,4.11-1.79A19.74,19.74,0,0,1,146.94,42a34.76,34.76,0,0,1,3.93-1,9.57,9.57,0,0,0,2.08-.38C155.76,40.41,158.17,40.32,161,40.24Z"/><path class="cls-2" d="M175.67,62.48c.82-.44,1.33.5,1.48,1.17,0,.92.45,2.22,0,3.06-.59.38-1.34.23-1.46-.52,0-.92,0-1.84,0-2.76C175.69,63.07,175.46,62.84,175.67,62.48Z"/><path class="cls-2" d="M170.59,62.69a.69.69,0,0,1,.89.55,15.29,15.29,0,0,1,.21,3.16,2.69,2.69,0,0,1-.78,2c-.56-.1-.59-.94-.71-1.37,0-1.05.07-2.12,0-3.17C170.27,63.47,170.2,62.93,170.59,62.69Z"/><path class="cls-2" d="M123.47,66.93c.28.79-.25,1.11-.57,1.75-.83,1.33-1.84,2.53-2.75,3.81-.57.85-1,1.79-1.54,2.69-.68,1.17-1.42,2.25-2.07,3.43s-1.37,2.42-1.93,3.75c-.26.36-.18,1.07-.77,1.06-.49-.16-.38-.53-.32-.94a39.7,39.7,0,0,1,3-6.25c1.17-1.79,1.86-3.6,3.17-5.29,1-1.3,1.93-2.56,2.86-3.91C122.73,66.76,123.18,66.83,123.47,66.93Z"/><path class="cls-2" d="M127.81,67.6c.67.27.16,1.22-.23,1.54a18.1,18.1,0,0,0-2.29,3.41c-.48,1-1.13,1.85-1.61,2.83h-.43c-.19-.57.11-.9.34-1.37a12.34,12.34,0,0,1,1-2.56,19.47,19.47,0,0,1,2-2.92C126.9,68.13,127.19,67.57,127.81,67.6Z"/><path class="cls-2" d="M136.82,69.22a1.59,1.59,0,0,1-.37,1.38,39.61,39.61,0,0,1-3.19,3.79c-.37.43-.7.9-1.34.58a.92.92,0,0,1-.06-.53,5.66,5.66,0,0,1,1.08-1.64,35,35,0,0,1,2.26-3A1.56,1.56,0,0,1,136.82,69.22Z"/><path class="cls-2" d="M116.8,69.59l.08.19a7.71,7.71,0,0,1-1.07,2.39,45.84,45.84,0,0,0-2.49,4.27c-.74,1.51-1.64,2.88-2.33,4.43-.56,1.08-1,2.2-1.54,3.3-.63,1.58-1.15,3.17-1.84,4.73-.52,1.35-1,2.73-1.48,4.15-.19.46-.13,1.43-.73,1.55-.54,0-.5-.52-.39-.91.11-.89.54-1.66.7-2.54.29-.73.4-1.49.69-2.22.47-1.16,1-2.5,1.4-3.69a64,64,0,0,1,4-8.57c1.29-2.31,2.33-4.89,4.31-6.69C116.34,69.82,116.54,69.53,116.8,69.59Z"/><path class="cls-3" d="M164.31,73.21c.92,2.16.14,4.06.16,6.28a9.2,9.2,0,0,0-.15,2.76,5.57,5.57,0,0,1,.16,1.9c0,2.68.23,5.35.22,8a3.47,3.47,0,0,0,.11,1.27c.18,2,0,4.06.08,6.06l.09.1c.11.49-.12.94-.1,1.45-.08.9,0,1.82-.13,2.71a6.42,6.42,0,0,0-.33,1.94c-.05.47,0,1.07-.63,1.08-.55-1-.42-2.07-.75-3.16a23.49,23.49,0,0,0-.23-2.46c-.07-2.64-.23-5.28-.11-7.93,0-1.77.15-3.52.23-5.28.08-2.24.48-4.57.75-6.79a7.39,7.39,0,0,0,.11-1.88.8.8,0,0,0-1.41-.12A9,9,0,0,1,161.9,81a8.41,8.41,0,0,1,0-3.19,2.21,2.21,0,0,1,.52-.09,7.48,7.48,0,0,1,.6-2.56,6.61,6.61,0,0,1,.74-1.59C163.86,73.4,164,73,164.31,73.21Z"/><path class="cls-2" d="M213.7,73.87c.89-.59,1.45.79,1.93,1.3,1.79,2,2.71,4.37,3.78,6.77.59,1.54,1.16,3.17,1.65,4.75a2.39,2.39,0,0,1-.11,1.63.54.54,0,0,1-.45-.26,11.8,11.8,0,0,1-1.59-3.48,27.22,27.22,0,0,0-1.52-3.79,33.8,33.8,0,0,0-3.26-6C213.53,74.76,213.33,74.35,213.7,73.87Z"/><path class="cls-3" d="M128.15,75.85A14,14,0,0,1,127,77.61c-.34.36-1,.69-1.44.35s0-.78.21-1.16a6.46,6.46,0,0,1,1.19-2A.83.83,0,0,1,128.15,75.85Z"/><path class="cls-2" d="M143.88,77.07c.57.07.6.68.31,1.07-.71.72-1.25,1.53-1.88,2.31-.3.48-.5,1-.85,1.49-.41.21-.75-.13-.73-.54a6.83,6.83,0,0,1,1.58-3.26C142.74,77.75,143.23,77,143.88,77.07Z"/><path class="cls-2" d="M168.41,78.09c.63-.31.83.26,1.11.68,0,1.38-.42,2.73-.45,4.13-.13.9-.19,1.74-.38,2.63-.32,1.22-.27,2.46-.57,3.69,0,.76-.34,1.36-.31,2.12-.29,1.53-.43,3.13-.64,4.65-.16.78-.07,1.56-.28,2.32a6.75,6.75,0,0,1-.25,1.88,33.75,33.75,0,0,0,.28,8.27c.23.88.27,1.78.52,2.66h.23c.23-1.17,0-2.64.41-3.74.05-1.12.33-2.26.46-3.37.33-1.69.55-3.39.94-5.07.13-1,.5-2.12.55-3.15.24-.65.25-1.46.49-2.12.2-1.62.64-3.29,1-4.89.19-.86.54-1.65.68-2.52.18-.6.18-1.38.84-1.66.47-.26.59.11.84.4a.76.76,0,0,0,.35-.12,3.84,3.84,0,0,0-.09.42c-.72,1.33-.82,3.13-1.2,4.57-.65,3.41-1.35,6.81-2,10.25a26.27,26.27,0,0,0-.56,2.66c-.3,2.09-.75,4.06-.93,6.21a31,31,0,0,0-.37,7.21h.19a12.55,12.55,0,0,1,.73-2.88c1.11-3,2.21-6.06,3.49-9,.6-1.62,1.4-3.15,2-4.78.9-2,1.79-4.14,2.75-6.13.32-.52.67-1.34,1.43-1.15.65.36.17,1.15-.08,1.61-1,2.52-2.2,4.84-3.17,7.4-.83,1.73-1.45,3.58-2.3,5.28-.49,1.29-1,2.59-1.47,3.89a43.91,43.91,0,0,0-1.7,4.87c-.39,1-.52,2.13-.83,3.2l.24,0a17.14,17.14,0,0,0,1.1-1.37,54.46,54.46,0,0,0,6.1-7.7,42,42,0,0,0,3.29-4.76,56.78,56.78,0,0,0,2.86-5.36c.69-1.34,1.2-2.73,1.87-4.07.23-.85.78-1.58,1-2.43A11.45,11.45,0,0,0,187.72,89c0-.25.2-.44.47-.37.3.28.13.86,0,1.19a22.35,22.35,0,0,1-.5,3.28,10.75,10.75,0,0,0-.68,2.23A77.13,77.13,0,0,1,182,106.18c-.82,1.49-2.08,2.91-3.06,4.35s-1.79,2.56-2.74,3.8c-.15.29-.52.51-.52.83a28.15,28.15,0,0,1,2.6-2.34,20.17,20.17,0,0,0,3.69-3.68A41.44,41.44,0,0,0,190.53,97a30.36,30.36,0,0,0,1.84-4.13c.3-.47.69,0,.87.28-.17-.52,0-1.12-.15-1.61-.05-1.06,0-2.12-.08-3.18a8.69,8.69,0,0,1,0-1.71c.19-.46.51-.4.93-.34.14.15.35.36.33.58.06,1.73.19,3.44.23,5.17.19.74.13,1.48.25,2.22a12.43,12.43,0,0,1,.24,2.33c.18.76.1,1.55.25,2.32a8.83,8.83,0,0,0,.25,1.9c.13,1.11.31,2.19.48,3.29.4,1.07.14,2.4.59,3.44a19.93,19.93,0,0,0,1,5.13,40,40,0,0,0,2.2,5.51,51.33,51.33,0,0,0,2.58,4.84c.09.46.6.91.6,1.35-.31.54-.87.37-1.23,0a18.1,18.1,0,0,1-3.25-5,33.81,33.81,0,0,1-3.28-9.06c-.15-1.41-.44-2.57-.53-4-.19-2.17-.74-4.45-.82-6.57-.23-.73-.1-1.56-.29-2.3-.09-1.32-.1-2.41-.29-3.72a13.32,13.32,0,0,1-.91,3.11,35.22,35.22,0,0,1-1.87,3.8,40.73,40.73,0,0,1-6.73,9.17c-.88.88-1.63,1.9-2.53,2.76-1.11,1.15-2.57,2-3.62,3.15a14.52,14.52,0,0,1-2.5,2.15c-.47.31-1,.8-1.6.55-.27-.09-.24-.41-.5-.34a19.38,19.38,0,0,1-2,2.24c-.44.47-1.16.26-1.72.18-.45-.23-.31-1.06-.33-1.48s.11-1.1,0-1.59c-.27-.17-.55-.26-.71-.56-.74-.89-.49-2.42-.79-3.43a5.85,5.85,0,0,1-1.84-3.45,1.69,1.69,0,0,1-1.45-.43,1.92,1.92,0,0,1-1.06-.66c-1-1.16-1.09-2.36-1.5-3.74-.1-1.05-.3-2.09-.31-3.15-.31-1.63-.1-3.5-.35-5.1-.37.68-.46,1.63-.87,2.35a16,16,0,0,1-2.1,3.6c-.71,1.12-1.53,2.16-2.25,3.25-.82.75-1.45,1.63-2.22,2.43-.35.31-.26.78-.57,1.11s-.75.81-1.13,1.2a2,2,0,0,0-.69.55c-1.23.6-2.15,1.54-3.42,2a10.87,10.87,0,0,0-2.21,1c-.89.56-2,.72-2.87,1.32s-2,1-3,1.48a10.27,10.27,0,0,1-1.87.88c-.29.25-.73.27-1,.47-1.26.75-2.63.71-4,1.2-.73.31-1.56.44-2.33.7-.4,0-.49-.31-.7-.57-.18,0-.39.25-.56.34-.46.37-1.05.48-1.5.83-.73.06-1.16.62-1.86.91a5.69,5.69,0,0,1-1.72.66c-.41,0-.63.22-.79.57a27.22,27.22,0,0,1-1.9,3.38,35.12,35.12,0,0,0,.63,3.8c.27,1.13.4,2.28.73,3.39a2.23,2.23,0,0,1,.19,1.37.62.62,0,0,1-1-.32c-.19-.87-.68-1.65-.88-2.53s-.59-1.53-.71-2.35c-.28-.74-.3-1.59-.53-2.35-.29-1.28-.42-2.52-.67-3.78,0-1.12-.16-2.24-.22-3.37a5.84,5.84,0,0,0-.1-1.48c-.16-1.26,0-2.55-.19-3.8-.06-1.69,0-3.39,0-5.08l-.07-.19c.33-1.66.3-3.31.54-5,.18-2.24.64-4.76.73-7.09a4,4,0,0,0,.22-1.26c.28-.68.42-1.85,1.09-2.3a.89.89,0,0,1,1.34,1,5.42,5.42,0,0,0-.46,1.88,28.48,28.48,0,0,0-.41,3.62c-.24.7,0,1.42-.34,2.06-.07,1.16-.27,2.26-.33,3.41-.21,1.15-.11,2.33-.32,3.48-.18,3.45,0,7,0,10.45a28.78,28.78,0,0,1,.35,4.25.68.68,0,0,0,.28.54,9.21,9.21,0,0,1,.52-1.4c.18-.28-.06-.68.1-1l.44-.2c.27-1.53,0-3.22.29-4.76a1.59,1.59,0,0,1-.07-.46,1.05,1.05,0,0,1,.19-.58,6.78,6.78,0,0,1,.18-1.49,37.67,37.67,0,0,1,.81-5.28c.42-2.91,1.27-6,2-8.88.65-2.68,1.36-5.34,2-8,.12-.54.56-1.09,1.17-1a1,1,0,0,1,.28,1.37,21.7,21.7,0,0,1-.69,3c-.55,2-1,4.05-1.54,6a53.56,53.56,0,0,0-1.37,5.6c-.34,1.2-.41,2.38-.75,3.61-.14.56-.12,1.14-.21,1.7a21.35,21.35,0,0,0-.36,2.19c0,1.29-.44,2.55-.47,3.83a50.13,50.13,0,0,0,3.38-8.77c.35-1.55.9-3.15,1.13-4.7,1-2.65,1.37-5.56,2.25-8.24.11-.55.3-1.14.44-1.69.52-1.76.79-3.69,1.49-5.39.21-.31.56-.83,1-.84.46.28.38,1.14.33,1.6-.15.68-.4,1.62-.56,2.32-.13.34-.05.66-.27,1-.31,1.09-.55,2.2-.89,3.28-.16.55-.17,1.14-.35,1.69,0,.55-.34.94-.39,1.48a6,6,0,0,1-.45,1.45,34.81,34.81,0,0,1-1.12,4.06c-.26,1.08-.47,2.08-.78,3.15a5.07,5.07,0,0,0-.35,1.92c-.15.22-.21.49-.35.73-.44,1.33-1,2.62-1.52,3.94s-1.18,2.42-1.7,3.64c.36-.14.42-.33.92-.16a5.85,5.85,0,0,1,.64-1,64.06,64.06,0,0,0,8.65-14c.57-1.34,1.14-2.65,1.73-4,1.49-2.77,2.33-5.69,3.77-8.48.33-.63.66-1.51,1.35-1.81.33-.14.49.13.53.41.13.93-.38,1.44-.62,2.27-1.09,2.58-2,5.2-3.21,7.73-.63,1.25-1.14,2.52-1.7,3.8a83.76,83.76,0,0,1-4,7.65,56.37,56.37,0,0,1-4.7,6.35c.41-.1.68-.51,1.07-.68a6,6,0,0,0,1.39-1.17c.56-.21.82-.69,1.16-1.13a12,12,0,0,0,1-.78,22.65,22.65,0,0,0,2.62-2.21c1.6-1.2,2.87-2.76,4.43-4a34.59,34.59,0,0,0,3.74-5.16c.7-1.16,1.36-2.26,2-3.44A9.69,9.69,0,0,1,147.57,98c.17-.14.43-.38.67-.26.17,1.34-.7,2.79-1.19,3.94-1,1.59-2.09,3.42-3.14,4.91s-2.09,2.66-3.2,4-2.4,2.43-3.62,3.6c-1.19.84-2.16,1.91-3.41,2.69-.53.43-1.32.54-1.43,1.31a1.33,1.33,0,0,0-.36.36,7,7,0,0,0,1.82-.63c.7-.38,1.48-.6,2.16-1,1.11-.11,1.91-.81,3-1.2.66-.33,1.3-.37,1.81-1a42.52,42.52,0,0,0,4.18-4.28c2.07-2.44,4.29-4.74,6.18-7.34a45.21,45.21,0,0,0,3.38-4.86,45.24,45.24,0,0,0,2.12-4.22,15.13,15.13,0,0,0,1.08-2.51,36,36,0,0,0,1.65-3.8c.29-1.26.92-2.24.8-3.5.36-.27.47-.26.82,0a4.57,4.57,0,0,1-.18,2.22,26.57,26.57,0,0,1-.89,3.61c-.07.56-.46.9-.4,1.48-.44.59-.38,1.25-.78,1.85-.64,1.27-1.3,2.55-1.82,3.87-.54.82-.9,1.72-1.44,2.53a38.23,38.23,0,0,1-2.14,3.17,58.7,58.7,0,0,1-4.92,6.09c-.93,1.11-1.83,2.08-2.73,3.18-.22.27-.5.41-.58.74.72-.45,1.64-.71,2.29-1.15.33-.48.91-.41,1.28-.86a2.57,2.57,0,0,0,1-.85,26.32,26.32,0,0,0,3-3.17,33.57,33.57,0,0,0,4.19-5.07,19.33,19.33,0,0,0,3-5.68,18.13,18.13,0,0,0,.86-3.76c.54-.27.27-.83.31-1.32.14-1.34.17-2.7.21-4.05a6.78,6.78,0,0,0,.18-1.57,20.09,20.09,0,0,0,.3-2.22c.15-.77.05-1.54.26-2.3a9,9,0,0,0,.47-1.84.8.8,0,0,1,1.41.12,7.39,7.39,0,0,1-.11,1.88c-.27,2.22-.67,4.56-.75,6.79-.07,1.76-.25,3.52-.23,5.28-.12,2.65,0,5.28.11,7.93a23.49,23.49,0,0,1,.23,2.46c.33,1.09.2,2.14.75,3.16,0,.4,0,1,.59,1.07s.5.33.78.52c-.15-1.54-.36-3-.4-4.6.14-.89.05-1.81.13-2.71,0-.51.21-1,.1-1.45.08-1.35.37-2.7.41-4.06a6,6,0,0,0,.21-1.48c.22-.54.09-1.11.31-1.64a24.35,24.35,0,0,1,.42-2.68,3.39,3.39,0,0,1,.19-1.14c.33-2.81,1-5.58,1.18-8.57C167.94,79.24,167.61,78.61,168.41,78.09Z"/><path class="cls-3" d="M170.44,81.67c.1.34.32.67.39,1a11.55,11.55,0,0,1,.06,3.37,25.52,25.52,0,0,0-.34,2.75c-.31,1.11,0,2.37-.32,3.49-.07.8,0,1.63-.08,2.43a1.29,1.29,0,0,0-.1,1.07c0,1-.42,2.11-.55,3.15-.4,1.69-.62,3.39-.94,5.07-.14,1.11-.41,2.25-.46,3.37-.46,1.1-.18,2.57-.41,3.74h-.23c-.25-.88-.29-1.78-.52-2.66a33.75,33.75,0,0,1-.28-8.27,6.75,6.75,0,0,0,.25-1.88c.21-.77.12-1.55.28-2.32.21-1.52.35-3.12.64-4.65,0-.76.33-1.36.31-2.12.3-1.23.25-2.48.57-3.69.19-.89.25-1.73.38-2.63C169.38,82.61,169.94,81.46,170.44,81.67Z"/><path class="cls-2" d="M147,82.45c0,.84-.93,1.5-1.33,2.2-.21.35-.35.35-.74.32a.68.68,0,0,1,0-.8,11.6,11.6,0,0,1,1.19-1.61C146.31,82.39,146.79,82,147,82.45Z"/><path class="cls-3" d="M143.87,83.08c.6.16.66.77,1,1.1a.68.68,0,0,0,0,.8c-.68,1.37-1.11,2.89-1.79,4.27-.13.68-.68,1-.57,1.71,0-.27-.21-.55-.53-.41-.69.3-1,1.18-1.35,1.81-1.44,2.79-2.28,5.71-3.77,8.48-.6,1.33-1.16,2.64-1.73,4a64.06,64.06,0,0,1-8.65,14l-.09-.06a5.87,5.87,0,0,1,.7-2.34c.66-1.42,1.28-3,2.07-4.29.62-1.13,1.31-2.23,1.92-3.36,2.29-4.14,3.65-9.24,5.79-13.43,1.69-3.65,3.74-7.24,5.06-11A2,2,0,0,1,143.87,83.08Z"/><path class="cls-3" d="M195.45,83.69c.26,0,.48.26.56.48a7.33,7.33,0,0,1,.61,2.73c0,1.2,0,2.4.07,3.6.22.83.08,1.69.26,2.53.14.55.09,1.12.19,1.69a32.1,32.1,0,0,0,.71,4.12c.16,1.9.77,3.89,1.11,5.71.22,1.21.65,2.26.77,3.49a18.93,18.93,0,0,1,.5,3.69c.22.67.1,1.36.35,2,.33,2.31.87,4.66,1.31,7,.13.77.65,1.58.42,2.35a51.33,51.33,0,0,1-2.58-4.84c.22-.5-.17-.83-.27-1.3-.42-1.52-.92-3-1.41-4.45-.36-1.65-1.22-3.24-1.47-4.88-.46-1-.19-2.37-.59-3.44-.17-1.1-.36-2.18-.48-3.29a8.83,8.83,0,0,1-.25-1.9c-.14-.78-.06-1.56-.25-2.32a12.43,12.43,0,0,0-.24-2.33c-.12-.74-.06-1.49-.25-2.22,0-1.73-.17-3.44-.23-5.17,0-.22-.19-.43-.33-.58.43-.14.43-1,.66-1.33S195,83.94,195.45,83.69Z"/><path class="cls-2" d="M213,83.8c.55,0,.72.92,1,1.3a26,26,0,0,1,1.7,5c0,.33-.12,1-.55.92a2,2,0,0,1-.72-1.36,25.33,25.33,0,0,0-.86-2.71,9.72,9.72,0,0,1-.54-2.14C212.92,84.44,212.48,84,213,83.8Z"/><path class="cls-3" d="M120.79,85.67a4.89,4.89,0,0,1,.33,1.87,20.24,20.24,0,0,1-.18,4.1c-.28.91-.31,1.87-.62,2.76-.17,1.27-.66,2.67-.7,3.92-.29.48-.09,1.14-.26,1.69a7.43,7.43,0,0,0-.2,1.27c-.25.56,0,1.3-.29,1.87s-.06,1.44-.19,2.14-.06,1.48-.26,2.22c0,.53,0,1.06-.08,1.59,0,.23-.08.73.14.86l.07.19c0,1.69-.07,3.39,0,5.08.17,1.26,0,2.54.19,3.8a5.84,5.84,0,0,1,.1,1.48c.05,1.12.17,2.24.22,3.37.25,1.26.38,2.5.67,3.78a1.3,1.3,0,0,0-.85.67,34.49,34.49,0,0,1-2.19-9.12c-.21-.91-.08-1.8-.27-2.72-.12-2.81-.15-5.64-.05-8.46,0-.37.16-.68.15-1.05,0-1.42.15-2.8.22-4.22.16-1.05.35-2.12.41-3.19,0-.69.32-1.17.06-1.89-.12-.45-.42-.89-1-.65.31-1.78.72-3.53,1.14-5.29.23-1.83,1.39-3.57,2.32-5.14C119.94,86.35,120.39,85.58,120.79,85.67Z"/><path class="cls-3" d="M155.19,86.58c.16.62-.47,1-.86.44C154.21,86.47,154.78,86.32,155.19,86.58Z"/><path class="cls-2" d="M192.81,86.68a11,11,0,0,1-.41,4.13c-.14.24-.19,1-.45,1.07-.09-.53-.46-.75-.71-1.18a12.36,12.36,0,0,0,.7-4A.46.46,0,0,1,192.81,86.68Z"/><path class="cls-3" d="M112.37,86.7a2.67,2.67,0,0,1,.61,1.69,14.15,14.15,0,0,1,.27,4.86,11.73,11.73,0,0,0-.21,1.69c-.25.8-.08,1.63-.33,2.43a20.88,20.88,0,0,1-.22,2.87,5.21,5.21,0,0,0,0,1.48c-.08,1-.38,2-.52,3a32.91,32.91,0,0,0-.59,3.58c-.1,1.26-.16,2.53-.14,3.8,0,.34-.24.54-.3.85a48.18,48.18,0,0,0-.26,7c.12,1.56.3,3.13.52,4.68a33.51,33.51,0,0,0,.82,3.79c.3,1.53.89,3,1.28,4.53.53,1.72,1.07,3.26,1.65,4.95a31,31,0,0,0,4.75,8c-.31.49.64,1.29.16,1.83a1,1,0,0,1-1.66.14,21.63,21.63,0,0,1-2.2-4.5c-.4-1.42-1.07-2.77-1.42-4.2-.42-1-.65-2.13-1.06-3.17a64.13,64.13,0,0,1-2.57-9,79.42,79.42,0,0,1-1.71-10.45c-.07-1.77-.36-3.53-.4-5.29a51.9,51.9,0,0,1-.14-9.08c0-.33.08-.82-.13-1.1s.09-.68.12-1a38.29,38.29,0,0,1,1.42-6.65,1.3,1.3,0,0,0-.33-1.2A3.11,3.11,0,0,1,110,90.9c.38-.6.47-1.3.82-1.92S111.61,87,112.37,86.7Z"/><path class="cls-3" d="M127.23,87.4h.12a12.43,12.43,0,0,1-.09,2.59c-.32.5-.14,1-.36,1.55a19.06,19.06,0,0,1-1.25,5.5c-.86,2.93-2.05,5.93-2.67,8.92-.29.58-.23,1.27-.47,1.88-.09.47-.24.91-.33,1.37-.37.83-.44,1.77-.78,2.61a11.53,11.53,0,0,0-.45,1.92c-.05.3-.31.53-.34.85a30.15,30.15,0,0,0,0,3.81,9.22,9.22,0,0,0,.25,1.9c.31.09.38-.42.5-.61.36-.78.78-1.62,1.12-2.38a1.59,1.59,0,0,0,.07.46c-.26,1.55,0,3.23-.29,4.76l-.44.2c-.16.27.08.67-.1,1a9.21,9.21,0,0,0-.52,1.4.68.68,0,0,1-.28-.54,28.78,28.78,0,0,0-.35-4.25c0-3.49-.17-7,0-10.45.21-1.16.11-2.33.32-3.48.06-1.15.26-2.25.33-3.41.31-.64.1-1.36.34-2.06a28.48,28.48,0,0,1,.41-3.62,5.42,5.42,0,0,1,.46-1.88c.1-.29.29-.55.41-.83A12.11,12.11,0,0,1,124,92,20.42,20.42,0,0,1,127.23,87.4Z"/><path class="cls-2" d="M199.77,87.86c.34.54.16,1.14.21,1.79q.14,2,.25,4l.12.4c.06,1.36.29,2.7.33,4.06a7,7,0,0,1,.2,1.48c.23.52.09,1.13.31,1.64.09,1.41.49,3,.56,4.48.22.44.08,1,.26,1.46.24,2,.6,3.7.86,5.71.08,1.12.48,2.14.55,3.27.51,1.92.65,4,1.2,5.84a29.19,29.19,0,0,0,1.45,4.83c.22.3.22.77.49,1a4.78,4.78,0,0,0-.15-1c-.16-.4,0-.89-.25-1.26,0-.78-.35-1.42-.31-2.21-.25-.58-.11-1.21-.31-1.81-.1-.92-.24-1.83-.29-2.75-.18-3.77-.8-7.66-.65-11.42.12-2.54,0-5.07.28-7.61,0-.35,0-.65.22-.94s.56-.09.6.3a28.55,28.55,0,0,0,.1,4.23c.19,2.15.1,4.39.18,6.55.09.92.16,1.84.2,2.77.25.64,0,1.37.31,2a18.17,18.17,0,0,0,.21,2.33c0,1.56.25,3,.33,4.56a3.84,3.84,0,0,1,.17,1.15c.24.51.11,1.05.29,1.58.23,1.2.41,2.7.71,3.91.21.75.42,1.51.56,2.27a7.75,7.75,0,0,0,.33,1.23c.23,1,1,1.89.4,2.83a.76.76,0,0,1-.65,0,19.41,19.41,0,0,1-1.88-5.11c-.29-.11-.66,0-1-.09s-.75-.58-1-.94a24.5,24.5,0,0,1-1.85-4.67c-1-5-2.15-9.86-2.66-14.89a13.86,13.86,0,0,0-.31-2c0-1.13-.28-2.24-.31-3.37-.28-.66-.11-1.35-.33-2,0-.94-.26-1.72-.29-2.64-.25-1.35-.08-2.82-.36-4.12a15.87,15.87,0,0,0-.19-2.33c0-1.4-.17-2.82-.05-4.21C198.82,87.71,199.4,87.76,199.77,87.86Z"/><path class="cls-3" d="M188.2,89.86l.1.42a2.39,2.39,0,0,0,.59-.17.76.76,0,0,1,.07.6A10.26,10.26,0,0,1,187,95.37a10.75,10.75,0,0,1,.68-2.23A22.35,22.35,0,0,0,188.2,89.86Z"/><path class="cls-3" d="M161,91.15c0,.49.23,1.05-.31,1.32a18.13,18.13,0,0,1-.86,3.76,19.33,19.33,0,0,1-3,5.68,33.57,33.57,0,0,1-4.19,5.07,6.43,6.43,0,0,1,.38-1.06c.68-1.43,1.29-2.87,2.09-4.24a94.22,94.22,0,0,0,4.83-9.32A3.21,3.21,0,0,1,161,91.15Z"/><path class="cls-3" d="M157.59,91.56a15.13,15.13,0,0,1-1.08,2.51,45.24,45.24,0,0,1-2.12,4.22,45.21,45.21,0,0,1-3.38,4.86c-1.89,2.59-4.1,4.9-6.18,7.34a42.52,42.52,0,0,1-4.18,4.28c-.51.58-1.15.62-1.81,1-1.07.4-1.87,1.09-3,1.2.24-.37.71-.53,1-.81.8-.54,1.59-1.09,2.35-1.69,2.48-1.92,4.32-4.38,6.44-6.67,1.46-1.71,3-3.37,4.35-5.16a51.44,51.44,0,0,0,3.19-5.05,45.31,45.31,0,0,1,3.19-4.63A5.49,5.49,0,0,1,157.59,91.56Z"/><path class="cls-3" d="M186.49,92.63l.11.17c-.2.85-.75,1.58-1,2.43-.67,1.35-1.18,2.73-1.87,4.07a56.78,56.78,0,0,1-2.86,5.36,42,42,0,0,1-3.29,4.76,54.46,54.46,0,0,1-6.1,7.7c-.22-.08,0-.5.08-.63a26.79,26.79,0,0,0,1.72-2.72,66.69,66.69,0,0,1,3.56-5.94c.78-1.35,1.59-2.8,2.39-4.16,1.43-2.59,3.21-4.87,4.52-7.52a16.58,16.58,0,0,1,2.11-3C186.06,93,186.23,92.71,186.49,92.63Z"/><path class="cls-3" d="M150.84,93.64l.19,0a3.27,3.27,0,0,1-.26,1.87,23.79,23.79,0,0,1-1.53,3.28,30.71,30.71,0,0,1-2.19,2.85c.49-1.15,1.36-2.59,1.19-3.94-.24-.12-.5.12-.67.26a9.69,9.69,0,0,0-1.86,2.16c-.67,1.18-1.33,2.28-2,3.44a34.59,34.59,0,0,1-3.74,5.16c-1.56,1.27-2.83,2.82-4.43,4A22.65,22.65,0,0,1,132.9,115c.09-.44.46-.63.66-1,.82-1,1.45-2.17,2.33-3.15,1.51-1.74,3.1-3.37,4.48-5.23,1.79-2.42,3.49-5,5.25-7.44a9.9,9.9,0,0,1,1.56-1.82A18.56,18.56,0,0,1,150.84,93.64Z"/><path class="cls-3" d="M135.11,94.6a6.14,6.14,0,0,1-.21,2.56,9.65,9.65,0,0,1-.42,2.32,15.42,15.42,0,0,1-1.38,3.93c-1.16,2.33-2.37,4.63-3.71,6.86a7.72,7.72,0,0,1-.93,1.38,5.07,5.07,0,0,1,.35-1.92c.31-1.08.52-2.08.78-3.15a34.81,34.81,0,0,0,1.12-4.06,6,6,0,0,0,.45-1.45c0-.54.39-.93.39-1.48.19-.55.19-1.14.35-1.69,0,.08.1.12.25.13a16.16,16.16,0,0,1,2.42-3.08C134.76,94.78,134.83,94.57,135.11,94.6Z"/><path class="cls-2" d="M209.05,98c.34-.12.49.22.63.46a36,36,0,0,1,1.67,4.87c.22,1.33.45,2.35.67,3.68a19.18,19.18,0,0,0,.17,2.45c0,1.44.24,2.69.3,4.11.34,2.71,0,5.33.19,8,0,1.51,0,3,0,4.55a107.69,107.69,0,0,0,1.19,12.78.84.84,0,0,1-.69,1c-.57-.19-.66-.68-.87-1.16-.38-1.77-.45-3.82-.68-5.66-.33.5-.44,1.44-1.19,1.47s-.85-.5-.7-1.12a16.11,16.11,0,0,0,.8-4.22A31.63,31.63,0,0,0,211,125c0-1.06,0-2.11,0-3.17-.13-2.75.15-5.48-.07-8.23a25.28,25.28,0,0,1-.22-3.07c-.26-1.48,0-3-.23-4.57-.22-.39,0-.81-.31-1.16-.08-1.8-.8-3.57-.9-5.38C209.3,98.93,208.85,98.38,209.05,98Z"/><path class="cls-1" d="M108.62,101c.21.27.11.77.13,1.1a51.9,51.9,0,0,0,.14,9.08c0,1.76.33,3.52.4,5.29A79.42,79.42,0,0,0,111,127a64.13,64.13,0,0,0,2.57,9c.41,1,.64,2.14,1.06,3.17.35,1.43,1,2.78,1.42,4.2a21.63,21.63,0,0,0,2.2,4.5,1,1,0,0,0,1.66-.14c.48-.55-.47-1.34-.16-1.83.54.53.33,1.23.34,1.93a4.72,4.72,0,0,1-.13,1.26c-.06.9,0,1.81,0,2.71a6.29,6.29,0,0,0-1.15,0c-.82-1.08-1.43-2.37-2.19-3.51s-1.49-2.2-2.07-3.41a55.4,55.4,0,0,1-3.77-8.53c-.34-.94-.68-1.89-.93-2.85-.28-1.62-.82-3.06-1.11-4.67s-.52-3.86-.83-5.59c-.07-1-.06-1.88-.21-2.86a106.45,106.45,0,0,1,0-10.77c0-.38.15-.67.13-1.05a42.73,42.73,0,0,1,.62-5.92A7.41,7.41,0,0,1,108.62,101Z"/><path class="cls-1" d="M164.75,103.77c0,1.57.25,3.06.4,4.6-.27-.19-.36-.49-.78-.52s-.55-.67-.59-1.07c.64,0,.58-.61.63-1.08A6.42,6.42,0,0,1,164.75,103.77Z"/><path class="cls-3" d="M104.88,105.8a7.57,7.57,0,0,0,.4,1.28c.14,1.28.38,2.52.46,3.8a1.21,1.21,0,0,1,.13.75,60.17,60.17,0,0,0,.26,9.1,27.12,27.12,0,0,0,.39,4.42,50.07,50.07,0,0,0,1.13,6.16,2,2,0,0,1,.22,1,1.43,1.43,0,0,0,.12,1.08,10.94,10.94,0,0,0,.49,2.42,77.76,77.76,0,0,0,3.79,11.23c0,.21.2.59,0,.74-1.25-1.76-2.28-3.86-3.32-5.68a21.3,21.3,0,0,1-1.58-3.67c-.6-1.3-1-2.67-1.52-4-.42-1.51-.9-3-1.19-4.55a9.46,9.46,0,0,0-.38-1.27c-.14-1.4-.41-2.73-.59-4.13a5.49,5.49,0,0,0-.22-1.48c-.21-1.55-.2-3.11-.36-4.65-.05-2.15.08-4.3.11-6.44.26-1,.15-2,.34-3,.41-.69.31-1.49.72-2.2C104.44,106.48,104.49,105.69,104.88,105.8Z"/><path class="cls-3" d="M128.16,105.91c-.23,1.55-.78,3.15-1.13,4.7a50.13,50.13,0,0,1-3.38,8.77c0-1.28.42-2.54.47-3.83a21.35,21.35,0,0,1,.36-2.19c.1-.57.08-1.14.21-1.7.49-.1.5-.54.73-.91C126.46,109,127.19,107.64,128.16,105.91Z"/><path class="cls-3" d="M155.69,106.13a8.78,8.78,0,0,1-.7,1.68,8.33,8.33,0,0,1-3.92,3.61,2,2,0,0,1,.69-.55c.38-.39.78-.79,1.13-1.2s.22-.8.57-1.11C154.24,107.76,154.88,106.88,155.69,106.13Z"/><path class="cls-1" d="M196.58,107.58c.26,1.64,1.12,3.23,1.47,4.88.49,1.49,1,2.94,1.41,4.45.1.47.49.8.27,1.3a40,40,0,0,1-2.2-5.51A19.93,19.93,0,0,1,196.58,107.58Z"/><path class="cls-3" d="M112.56,110.15a6.4,6.4,0,0,0,.11,1.8c.08.74,0,1.49.08,2.22a2.9,2.9,0,0,1,.19,1.27c0,.44.17.83.18,1.26,0,1,.19,2,.21,3,.61,3.33,1,6.52,1.88,9.82.49,3.14,1.73,6.31,2.24,9.41a47.61,47.61,0,0,1-2.59-7.39c-.34-1.34-.87-2.57-1.12-3.93a45.44,45.44,0,0,1-1.09-6.89,37.53,37.53,0,0,1-.09-5.47c0-.65.24-1.18-.07-1.79A21.25,21.25,0,0,1,112.56,110.15Z"/><path class="cls-3" d="M137.09,114.18l0,.19a9.18,9.18,0,0,1-3.58,3.37,2.7,2.7,0,0,1-1.23.44c.11-.77.9-.88,1.43-1.31C134.93,116.1,135.9,115,137.09,114.18Z"/><path class="cls-3" d="M137.75,118.17l.15,0c.1.17-.36.38-.47.49a7.17,7.17,0,0,1-3.91,1.45c-.31,0-.52-.29-.84-.31,1.4-.49,2.77-.45,4-1.2C137,118.44,137.46,118.42,137.75,118.17Z"/><path class="cls-3" d="M127.57,121.14c-.29,2.09-.83,4.77-1,7-.26.88,0,1.77-.32,2.64,0,2-.18,4-.16,6s.14,3.95.13,5.92a1.7,1.7,0,0,0,.11.63,19.55,19.55,0,0,1-.11,3.18c0,.37-.17.68-.12,1.05.12.8.41,1.56.57,2.35a69.69,69.69,0,0,0,2.46,8.19,36.49,36.49,0,0,0,1.3,3.51,17.85,17.85,0,0,0,1.72,3.58c1.2,2.11,2.39,4.18,3.67,6.25a14.16,14.16,0,0,1,1.4,2.85,21.46,21.46,0,0,1,1,2.54c.15.31,0,.62.12.9-.5-.3-.81-.87-1.25-1.26a38,38,0,0,1-3.61-3.73c.23-.13,0-.43-.14-.57-1.06-1.64-2.05-3.29-3-5-.22-.29-.29-.76-.6-1-.08.72.69,1.59.44,2.28a17.64,17.64,0,0,1-1.58-2.13c-.74-1.08-1.5-2.18-2.2-3.28a34.78,34.78,0,0,1-2.36-3.67c.16-.37-.13-.58-.25-.91-.34-1.07-1-2-1.3-3.14-.23-.46-.21-.93-.58-1.29.05-1.35-.05-2.65-.13-4a18.22,18.22,0,0,0,0-2c-.05-.31-.16-.56,0-.87s.42-.36.27-.68a9.71,9.71,0,0,1,0-1.92,22.23,22.23,0,0,0,.22-3.08,8.55,8.55,0,0,0,.19-1.57,6.87,6.87,0,0,0,.44-2.68,12.75,12.75,0,0,0-1.14-2.2c-.53-1.33-1.16-2.64-1.72-4,.4-.07.23-.82.25-1.12.12.82.52,1.54.71,2.35s.69,1.66.88,2.53a.62.62,0,0,0,1,.32,2.23,2.23,0,0,0-.19-1.37c-.33-1.11-.46-2.26-.73-3.39a35.12,35.12,0,0,1-.63-3.8,27.22,27.22,0,0,0,1.9-3.38c.16-.35.38-.6.79-.57a5.69,5.69,0,0,0,1.72-.66C126.41,121.75,126.84,121.19,127.57,121.14Z"/><path class="cls-3" d="M115.15,122.81c.33.73.43,1.5.7,2.24a47.89,47.89,0,0,0,3.34,8.51c.52,1,1.14,2,1.64,3l-.32.15a16.27,16.27,0,0,0-.1,3l.17.07a6.78,6.78,0,0,1-.14,1.66c-.29.69-.05,1.58-.28,2.28-.14,0-.28-.16-.4-.39a5.18,5.18,0,0,1-.09-1.48c.1-.32.38-.48.34-.84,0-.9,0-1.82-.08-2.72a2.22,2.22,0,0,1-1.84-.67,10.9,10.9,0,0,1-1.43-3.6c-.38-1.23-.51-2.56-.8-3.81a13,13,0,0,0-.44-2.75A21.57,21.57,0,0,1,115.15,122.81Z"/><path class="cls-1" d="M124.21,122.79c.44,0,0,.62-.1.8l-.45,0A7.54,7.54,0,0,1,124.21,122.79Z"/><path class="cls-2" d="M155.07,124.49a15.36,15.36,0,0,0,3.41.41c.6.18,1.26.13,1.88.25s1.57.08,2.33.26c1.21.07,2.39.3,3.6.27,2.84-.14,5.49.28,8.35-.16a33.6,33.6,0,0,0,4.12-.32,8.87,8.87,0,0,1,3.38-.27c.48.07,1,.6.62,1.07s-.57.39-.94.53a24.73,24.73,0,0,1-4.12.83,21.42,21.42,0,0,0-2.87.18,52,52,0,0,1-7.28-.07,26.85,26.85,0,0,1-4.65-.27,6.22,6.22,0,0,1-1.46-.2c-1.33-.06-2.61-.44-3.93-.51-.53-.22-1.09-.19-1.61-.45s-1.19-.37-1.45-.9S154.65,124.41,155.07,124.49Z"/><path class="cls-3" d="M208.63,124.82c.45.21.1,1,.38,1.36a11.63,11.63,0,0,1,.55,2.79,20.47,20.47,0,0,1,.21,2.11c-.08.48-.51.31-.68.66a7.75,7.75,0,0,1-.33-1.23c.41,0,.4-.35.44-.68a13.16,13.16,0,0,0-.17-2.12,7.19,7.19,0,0,1-.22-1.9A2,2,0,0,1,208.63,124.82Z"/><path class="cls-1" d="M119.71,127.66c.23.76.25,1.61.53,2.35,0,.29.15,1-.25,1.12-.36-.94-.8-1.85-1.14-2.8A1.3,1.3,0,0,1,119.71,127.66Z"/><path class="cls-2" d="M174.4,131a1.3,1.3,0,0,1,.48.93,5.9,5.9,0,0,1-.21,1.69,10.77,10.77,0,0,1-2.44,4.7,1.75,1.75,0,0,1-2,.25,2,2,0,0,1-.48-2.19c.08-.44-.1-.84,0-1.26a9.13,9.13,0,0,1,1.29-2.45c.42-.5,1-.87,1.42-1.33A1.93,1.93,0,0,1,174.4,131Z"/><path class="cls-1" d="M107.87,132.32a47.81,47.81,0,0,0,4,10.48,34.92,34.92,0,0,0,2.36,4.37c.25.6.73,1,1,1.56.65,1.08,1.39,2.33,2.11,3.38.46.59,1,1.13,1.48,1.69a7.7,7.7,0,0,1,1.15,1.81,1.72,1.72,0,0,1,.15,1.41c-.62-.21-1.15-.84-1.82-1-.29-.07-.36-.31-.55-.51a82.54,82.54,0,0,1-5.51-7.7c.21-.15.05-.53,0-.74a77.76,77.76,0,0,1-3.79-11.23,10.94,10.94,0,0,1-.49-2.42A1.43,1.43,0,0,1,107.87,132.32Z"/><path class="cls-1" d="M120.52,136.69l.32-.15c.09.31.37.48.32.86a11.37,11.37,0,0,0-.57,2.38l-.17-.07A16.27,16.27,0,0,1,120.52,136.69Z"/><path class="cls-2" d="M200.11,139.19a5.05,5.05,0,0,1,1.45,0,2.2,2.2,0,0,1,1.45,2c.1,1.07-.67,2.11-1.22,3a3.36,3.36,0,0,1-2.76,1.44,1.35,1.35,0,0,1-1.12-.72A3.06,3.06,0,0,1,198,144a2.7,2.7,0,0,1,0-1.93C198.57,140.93,198.87,139.78,200.11,139.19Z"/><path class="cls-3" d="M107.54,142.28c.34.69.82,1.29,1.15,2a81.49,81.49,0,0,0,6.42,9.89,3.91,3.91,0,0,0,.55,1.32c.64,1.05,1,2.39,1.93,3.15.39.63.06,1-.43,1.41l.06.18a24.8,24.8,0,0,1-2.5-2,.21.21,0,0,0,0-.3,32.08,32.08,0,0,1-2.47-4.53c-1.43-2.92-2.78-5.85-4-8.85A11.24,11.24,0,0,1,107.54,142.28Z"/><path class="cls-2" d="M192.4,142.78c.18.4.34.79.55,1.17a48.87,48.87,0,0,0,2.68,5.11,5.47,5.47,0,0,1,.07,3.82c-.22.34-.44.7-.67,1-.5.43-1,1.09-1.7,1.22a17.21,17.21,0,0,1-3,.7,11.26,11.26,0,0,1-4.42.39,8.66,8.66,0,0,1-2.93-.68,14.82,14.82,0,0,1-3.74-1.86c-.35-.54-1-.94-.77-1.69s1-.7,1.46-.34a11.9,11.9,0,0,0,5.59,2.19,7.6,7.6,0,0,0,4.2-.22,13.58,13.58,0,0,0,2.31-.44,2.1,2.1,0,0,0,1.65-1.83,2.42,2.42,0,0,0-.1-1.71,26.53,26.53,0,0,1-1.54-3.35c-.38-1-1-2.27-.77-3.37A.63.63,0,0,1,192.4,142.78Z"/><path class="cls-3" d="M179.26,153.68a14.82,14.82,0,0,0,3.74,1.86,8.66,8.66,0,0,0,2.93.68,11.26,11.26,0,0,0,4.42-.39,1.83,1.83,0,0,1-1.26,1,13.3,13.3,0,0,1-5.06.46,11.94,11.94,0,0,1-4.65-1.85A1.15,1.15,0,0,1,179.26,153.68Z"/><path class="cls-1" d="M115.11,154.16a19.93,19.93,0,0,0,3.5,3.62,2.46,2.46,0,0,1,1.44.88c0,.7-.19,1.3-.17,2-.07.32.07.73-.19.95a3.25,3.25,0,0,0-1.5-.87,1.51,1.51,0,0,0-1-.54l-.06-.18c.49-.38.82-.79.43-1.41-1-.75-1.29-2.09-1.93-3.15A3.91,3.91,0,0,1,115.11,154.16Z"/><path class="cls-1" d="M121.94,154.09c.37.36.35.83.58,1.29.33,1.1,1,2.07,1.3,3.14.12.32.41.53.25.91-.62-1.35-1.27-2.52-2-3.82C121.79,155.13,122,154.65,121.94,154.09Z"/><path class="cls-1" d="M123.23,162.85a10.91,10.91,0,0,1,1.07,1.6c0,.29-.22.56-.38.78a10.88,10.88,0,0,0-1.14,2.67,1.71,1.71,0,0,0-.33.92.47.47,0,0,1-.23-.1A11.35,11.35,0,0,0,123.23,162.85Z"/><path class="cls-3" d="M124.29,164.46a15.8,15.8,0,0,1,1.63,2.27c-.25.14-.29.47-.35.73-1.29,5-2.93,10.21-3.83,15.23-.53,2-.83,4.12-1.21,6.12a17.62,17.62,0,0,1-.22,2c-.31.52-.73,1.52-1.38,1.63a3,3,0,0,1-1.33-1.74c-.15-1.61.28-3,.2-4.58a.93.93,0,0,1-1.57.51c-.47-.42-.14-.9-.29-1.39-.32,0-.58.39-.88.53s-.58.44-.37.9c-.5-.76-.66-1.79-1.23-2.53-.23-.4-.36-.85-.61-1.23a7.12,7.12,0,0,0,2-.78c.71-.52,1.19-1.13,2.12-1.25a18.5,18.5,0,0,0,.53-2.4c.34-.39.77-.66,1.13-1,.5-.92,1.1-1.9,1.54-2.84,0-1,.61-1.8.92-2.74s.79-2.14,1.17-3.15a.47.47,0,0,0,.23.1,1.71,1.71,0,0,1,.33-.92,10.88,10.88,0,0,1,1.14-2.67C124.07,165,124.33,164.75,124.29,164.46Z"/><path class="cls-1" d="M129.78,166.24c.31.21.38.67.6,1,1,1.7,2,3.35,3,5,.09.14.38.44.14.57a48,48,0,0,1-3.32-4.24C130.47,167.83,129.7,167,129.78,166.24Z"/><path class="cls-1" d="M125.92,166.72c.69,1.12,1.58,2.13,2.36,3.2,2.18,2.55,4.43,5.19,6.8,7.57,1.12,1.28,2.41,2.38,3.6,3.6a7.14,7.14,0,0,0,1,.72c1.53.92,2.88,2.08,4.41,3a15.35,15.35,0,0,1,2.77,1.66c.92.54,1.85,1.13,2.77,1.65A29.23,29.23,0,0,0,154,190c1.72.7,3.56,1,5.28,1.73a14.61,14.61,0,0,0,2.94.74c1.26,0,2.37.71,3.6.67s2.54.33,3.78-.15a10.1,10.1,0,0,0,2.66-.67c.9-.24,1.78-.56,2.66-.86a17.11,17.11,0,0,0,2.72-.75c.25-.12.36-.33.55-.51a1.44,1.44,0,0,1,1,0,6.76,6.76,0,0,1,.25,2.63c0,1.4.07,2.83-.08,4.23-.21.82-.19,1.71-.47,2.54-.44,1.92-.53,4.1-1.33,5.9-.47,1.12-.82,2.26-1.23,3.4a16.9,16.9,0,0,1-1.55,4.18,37.21,37.21,0,0,1-3.69,5.35,26.29,26.29,0,0,1-3.67,4.19c-.66.6-1.49.89-2.18,1.42a9.08,9.08,0,0,1-3,1.27c-.87.38-2.2.29-2.85,1a17.06,17.06,0,0,1-2.15-.69,59.38,59.38,0,0,1-7.39-3.82c-1.16-.92-2.41-1.69-3.56-2.63a38.23,38.23,0,0,0-5-4.24,34.72,34.72,0,0,1-2.85-2.65c-1.58-1.62-3.63-2.39-5.1-4.2-1.05-1.52-2.73-2.69-4-4a26.42,26.42,0,0,0-2.29-2.35c-1.42-1.31-2.55-3-4-4.21-.86-.57-1.32-1.49-2.14-2.1a30.26,30.26,0,0,1-4-5.09c-.77-1.22-1.64-2.34-2.28-3.63-.21-.46,0-.67.37-.9s.56-.52.88-.53c.15.5-.18,1,.29,1.39a.93.93,0,0,0,1.57-.51c.08,1.56-.35,3-.2,4.58a3,3,0,0,0,1.33,1.74c.65-.12,1.07-1.11,1.38-1.63a17.62,17.62,0,0,0,.22-2c.38-2,.68-4.15,1.21-6.12.9-5,2.55-10.22,3.83-15.23C125.63,167.2,125.67,166.86,125.92,166.72Z"/><path class="cls-2" d="M171.25,168a39.67,39.67,0,0,1,5.8,0,15.43,15.43,0,0,1,7.63,1.48,10.51,10.51,0,0,1,3.31,2.23.92.92,0,0,1-.58,1.5c-.74.13-1.08-.45-1.52-.91a11.82,11.82,0,0,0-2.54-1.44,11,11,0,0,0-3.25-1c-.92-.11-1.85-.07-2.75-.21-1.82,0-3.56-.31-5.38-.2a10.35,10.35,0,0,1-3.41-.13c-.22-.1-.6-.2-.66-.47s.43-.36.66-.47C169.44,168.23,170.4,168.25,171.25,168Z"/><path class="cls-2" d="M174.3,176.23c1.06,0,2.52-.53,3.49,0a11.94,11.94,0,0,1,1.22.89c.16.28.28.59.41.89a.76.76,0,0,1-.68,1,4.32,4.32,0,0,1-2-.42,16.39,16.39,0,0,1-2.61-.24,1.43,1.43,0,0,1-1.1-1C172.93,176.67,173.67,176.21,174.3,176.23Z"/><path class="cls-1" d="M117.45,178.47a18.5,18.5,0,0,1-.53,2.4c-.93.12-1.41.73-2.12,1.25a7.12,7.12,0,0,1-2,.78l-.12-.46c.75-.73,1.76-1.25,2.58-1.94.34-.34.81-.42,1.17-.73S117.06,178.85,117.45,178.47Z"/><path class="cls-1" d="M110.9,183.59c.15.29-.48.55-.65.71a4.59,4.59,0,0,0-1.46.91,89.48,89.48,0,0,0-8.84,6.59c-1.2,1-2.51,1.85-3.62,2.9a10.82,10.82,0,0,1-1.33.8.74.74,0,0,1-.7.16,11.32,11.32,0,0,0-.85-1.18l.07-.21c1.64-1,3.52-2.07,5.23-3a50.36,50.36,0,0,1,4.63-2.82c1.88-1.07,3.6-2.38,5.36-3.5C109.54,184.46,110.12,184.13,110.9,183.59Z"/><path class="cls-3" d="M110.9,183.59H111c.13.4.14.82.28,1.21a2.86,2.86,0,0,1,.44,1c-.19.45-.64.37-1,.27-2,.81-2.83,2.87-4.84,3.6-1,.34-1.74,1.11-2.75,1.48a11.54,11.54,0,0,0-3.51,2,7.7,7.7,0,0,1-3.27,1.57c1.11-1,2.42-2,3.62-2.9a89.48,89.48,0,0,1,8.84-6.59,4.59,4.59,0,0,1,1.46-.91C110.41,184.13,111,183.87,110.9,183.59Z"/><path class="cls-3" d="M124.35,186.69c.18,1.33.38,2.71.65,4a1.07,1.07,0,1,1-2,.81c-.08-.63-.21-1.26-.27-1.89a6.86,6.86,0,0,1-.15-3.09A1,1,0,0,1,124.35,186.69Z"/><path class="cls-1" d="M112.16,187.38c.26,0,.34.38.42.56.11.39.47.59.37,1a11.83,11.83,0,0,0-2.13,1.46c-.76.65-1.42,1.43-2.22,2s-1.8,1-2.69,1.53c-1.05.56-1.75,1.58-2.82,2.08-.82.56-1.75.86-2.57,1.39A26.32,26.32,0,0,1,97.38,199a1.84,1.84,0,0,1-.5-.46c.11-.37.62-.61.91-.85,2.57-2,5.31-3.67,7.9-5.62a8.07,8.07,0,0,0,1.6-1.34c1.21-.66,2.33-1.51,3.49-2.25C111.26,188.07,111.56,187.6,112.16,187.38Z"/><path class="cls-1" d="M113.89,190.25c.17.28.63.75.43,1.08a7.14,7.14,0,0,1-1.52,1.49,13.76,13.76,0,0,0-3.42,2.49c-1.38,1.48-3.09,1.93-4.68,3.14a29.26,29.26,0,0,1-4.16,2.85c-.52-.29-.84-.89-1.35-1.23-.16-.21-.49-.3-.46-.59a8,8,0,0,0,2.26-.92c1-.62,2-1.07,3-1.63.79-.44,1.41-1.15,2.14-1.66a17.23,17.23,0,0,1,2.16-1.24c1.84-.85,2.88-2.67,4.72-3.71C113.3,190.17,113.69,189.88,113.89,190.25Z"/><path class="cls-3" d="M107.29,190.69a8.07,8.07,0,0,1-1.6,1.34c-2.59,2-5.33,3.64-7.9,5.62-.29.24-.79.48-.91.85a10.14,10.14,0,0,0-1.18-1.28c-.2-.21-.38-.44,0-.6a28.31,28.31,0,0,0,4-2q2.7-1.68,5.52-3.12A11.09,11.09,0,0,1,107.29,190.69Z"/><path class="cls-1" d="M180.94,191c.6.79,1.34,1.35,2,2.08a16.06,16.06,0,0,0,1.92,1.72c.42.4,1,.57,1.43,1-.08.59.33,1.4.09,1.9a.55.55,0,0,1-.41-.23c-.62-.58-1.29-1.12-1.9-1.69a8.63,8.63,0,0,0-2.87-2A15.64,15.64,0,0,0,180.94,191Z"/><path class="cls-1" d="M115.14,192.63h.15a12.55,12.55,0,0,1,.93,1.42c-.69,1.07-1.75,1.31-2.61,2.08-1.12.81-2.13,1.7-3.32,2.43-.79.6-1.51,1.32-2.32,1.89s-1.38,1.14-2.15,1.64a13.35,13.35,0,0,0-2.09,1.75.49.49,0,0,1-.4.12c-.61-.53-1.09-1.17-1.74-1.66-.11-.05-.14-.15-.11-.3a20.33,20.33,0,0,0,3.92-2.46c1.28-1.05,3.16-1.64,4.38-2.79.49-.43.93-.91,1.43-1.32a10.22,10.22,0,0,1,1.91-1.26A9.12,9.12,0,0,0,115.14,192.63Z"/><path class="cls-1" d="M117.18,195.18c.53.62.91,1.34,1.44,2v.2a19.53,19.53,0,0,0-3.06,2.24c-1.37.87-2.54,2-3.9,2.88-.77.56-1.47,1.19-2.19,1.81s-1.63,1.32-2.39,2.06c-.24.17-.49.42-.76.15a10,10,0,0,1-2.09-1.76,45.72,45.72,0,0,0,4.13-3c1.14-.65,2-1.72,3.15-2.37l2.75-2.06c.7-.64,1.65-1,2.34-1.69C116.76,195.42,117,195.1,117.18,195.18Z"/><path class="cls-1" d="M181.37,195.2c.36,0,.59.48.89.64q1.31,1.24,2.72,2.36a3.06,3.06,0,0,0,1.39.77l.1.17c-.14.54-.21,1.11-.38,1.64a23.35,23.35,0,0,0-2.93-2.22,6.14,6.14,0,0,0-1.78-1A23.15,23.15,0,0,0,181.37,195.2Z"/><path class="cls-3" d="M92.52,196.79a4.36,4.36,0,0,1,.76.75c.56.82,1.39,1.37,2,2.18h-.21c-1,.95-2,1.81-3.06,2.73-2,1.71-3.77,3.56-5.61,5.39a53.91,53.91,0,0,1-5.24,4.05c-.31.19-.53.29-.57-.18-2.3,2.41-4.56,4-6.72,6.64a13.26,13.26,0,0,0-2.2,3.3,6.11,6.11,0,0,0-.78.7c-1,1.28-2,2.47-3,3.76-.75.93-1.21,2-1.86,3a.58.58,0,0,1-.7.16c-.35-.23-.29-.64-.16-1,.48-1.1,1.2-2.07,1.73-3.15,1.09-2.11,2.58-4,3.57-6.15A20.48,20.48,0,0,1,74,213.84a59.89,59.89,0,0,0,4.33-4.34,49.89,49.89,0,0,1,5.11-4.83c1.12-1.07,2.2-2.17,3.22-3.34a18.38,18.38,0,0,1,3-2.72A24.64,24.64,0,0,1,92.52,196.79Z"/><path class="cls-1" d="M119.4,198.35c.3-.14.6.4.83.55s.75.37.49.75a16,16,0,0,0-2.38,1.87c-.67.61-1.44,1.06-2.07,1.73s-1.34,1.19-2,1.81c-1.11,1.15-2.33,2.17-3.41,3.35-.34.21-.63.87-1,.88a29.4,29.4,0,0,1-2.48-2c-.09-.3.4-.38.57-.55,1.17-1,2.54-1.83,3.73-2.83,1-.8,2.14-1.5,3.14-2.36.69-.5,1.44-.94,2.11-1.48A17.74,17.74,0,0,1,119.4,198.35Z"/><path class="cls-1" d="M181.45,198.77c.71.58,1.49,1,2.19,1.6.63.38,1.43,1.08,2.2,1,.16.37-.07.86,0,1.26a.28.28,0,0,1-.4,0,18.12,18.12,0,0,0-4.3-2.65l-.05-.19C181.23,199.55,181,198.61,181.45,198.77Z"/><path class="cls-1" d="M121.88,200.59c.19.21.64.54.61.84-.64.69-1.38,1.3-2.08,1.92-1.16.84-2,1.91-3.08,2.86-.76.73-1.37,1.59-2.12,2.32-.88,1-1.68,2-2.63,2.94l-.19,0c-.51-.55-1.18-1-1.68-1.52,0-.38.74-.67,1-.9.67-.58,1.28-1.24,2-1.78.77-.7,1.48-1.46,2.28-2.12,1-.68,1.82-1.62,2.81-2.31.83-.6,1.5-1.32,2.35-1.86C121.39,200.84,121.62,200.54,121.88,200.59Z"/><path class="cls-1" d="M180.77,201.14c.31-.17.64.24.9.38,1.34.77,2.54,1.66,3.87,2.49l.09.19a9.77,9.77,0,0,1-.39,2.21l-.1,0a1.11,1.11,0,0,0-.26-.31c-1.12-.92-2.22-1.85-3.4-2.7-.25-.22-.83-.32-.91-.68A12.93,12.93,0,0,0,180.77,201.14Z"/><path class="cls-1" d="M123.7,202.62a13.76,13.76,0,0,0,1,1.06.26.26,0,0,1-.09.35,53,53,0,0,0-7,7.21c-.83.74-1.39,1.7-2.19,2.46-.15.15-.28.45-.53.39a8.77,8.77,0,0,1-1.18-1.15c-.14-.18-.44-.36-.31-.62,1.63-1.61,3.06-3.43,4.64-5.09a39.86,39.86,0,0,1,3.1-2.85c.57-.55,1.16-1.07,1.78-1.58C123.22,202.64,123.44,202.39,123.7,202.62Z"/><path class="cls-1" d="M180.29,204.07c1.47,1,2.94,2.54,4.48,3.43.19.34-.14,1-.21,1.34a.27.27,0,0,1-.3.27c-1.57-1.1-2.85-2.14-4.4-3.23A13.9,13.9,0,0,1,180.29,204.07Z"/><path class="cls-1" d="M125.78,204.72c.24-.05.39.21.55.34.31.32.66.6,1,.92-.45.6-1.31,1.06-1.82,1.83a7.72,7.72,0,0,1-1.39,1.57c-.74.69-1.2,1.59-2,2.25s-1.12,1.53-1.84,2.18c-1,.87-1.21,2-2.4,2.65l-.14,0a15.42,15.42,0,0,0-1.9-1.7c0-.33.25-.31.44-.5a9.66,9.66,0,0,0,1.57-1.58c1.1-1,1.93-2.15,3-3.16A41.81,41.81,0,0,1,125.78,204.72Z"/><path class="cls-1" d="M128.27,207c.36,0,1.11.56,1.34.81-.47.75-1.26,1.22-1.7,2a8.69,8.69,0,0,1-1.58,1.82c-.5.63-.89,1.33-1.42,1.94-.86.81-1.33,1.87-2.13,2.73a12.15,12.15,0,0,0-1.66,2.8c-.3.27-.56-.07-.8-.24-.54-.51-1.08-1-1.62-1.55a.36.36,0,0,1-.15-.37c.3-.27.65-.47.94-.75.53-.47.87-1.09,1.43-1.53a7.23,7.23,0,0,0,1.38-1.56,24.5,24.5,0,0,0,1.94-2.08c.63-.85,1.53-1.41,2.16-2.28A9.82,9.82,0,0,1,128.27,207Z"/><path class="cls-1" d="M179.39,207.18a.51.51,0,0,1,.4.22,24.65,24.65,0,0,0,3.72,2.8c.24.17.59.21.64.55a11.27,11.27,0,0,1-.64,2.9c-.29,0-.4-.34-.59-.51a30.44,30.44,0,0,0-3.1-2.83,4.19,4.19,0,0,0-1.18-.73c-.21-.37.22-1,.28-1.35S179.09,207.38,179.39,207.18Z"/><path class="cls-1" d="M131.11,208.74c.49.42,1,.84,1.5,1.25.09.49-.44.94-.73,1.27a30.75,30.75,0,0,0-2.53,3c-.55.65-1.1,1.33-1.59,2-.51.87-1.28,1.58-1.76,2.46-.55,1.2-1.59,1.85-1.9,3.18l-.2,0a18.84,18.84,0,0,0-2.12-1.87c-.22-.37.27-.57.4-.86a11.23,11.23,0,0,1,1.82-2.43c.55-.6.88-1.34,1.48-1.9a10.56,10.56,0,0,0,1.35-1.61c.62-1,1.58-1.49,2.16-2.49a12.54,12.54,0,0,1,1.73-1.86A.27.27,0,0,1,131.11,208.74Z"/><path class="cls-1" d="M178.21,210.64c.27,0,.46.3.65.45A35,35,0,0,1,183,215c-.09.62-.38,1.19-.49,1.82-.31,0-.45-.27-.67-.44-1.18-1.07-2.32-2.19-3.5-3.26-.22-.22-.52-.39-.65-.67C177.87,211.86,178,211.21,178.21,210.64Z"/><path class="cls-1" d="M133.73,211.34a2,2,0,0,1,.75.56c-.31.88-1.21,1.57-1.52,2.48a28.34,28.34,0,0,1-2.23,3.55,28.41,28.41,0,0,1-1.6,2.79,27.69,27.69,0,0,0-1,2.62c-.19.48-.72.88-.69,1.4a.45.45,0,0,0,.79.19c.38-.54.75-1.1,1.09-1.67.55-1.59,1.76-3,2.45-4.5a21.65,21.65,0,0,1,1.33-1.86c.74-.85,1.1-2,1.78-2.86a4.21,4.21,0,0,0,.86-1.27c.42,0,.92.66,1.22,1-.14.79-.88,1.54-1.12,2.33a15.59,15.59,0,0,1-1.55,3.13c-.62,1.21-1.15,2.47-1.85,3.64-1,1.22-1.33,2.83-2.15,4.19h-.15c-1.12-.81-2.2-1.54-3.29-2.39-.65-.67-1.39-1.35-2-2a6.74,6.74,0,0,1,1.22-1.73,12.6,12.6,0,0,0,1.59-2.25c1-1.14,1.72-2.45,2.76-3.55.86-.92,1.5-2,2.45-2.84C133.19,212,133.38,211.55,133.73,211.34Z"/><path class="cls-1" d="M177.19,213.81c1.53,1.6,3.13,3.13,4.8,4.57a3.27,3.27,0,0,1-.33,1.64c-.28,0-.52-.45-.76-.62-1.57-1.31-3.13-2.68-4.8-3.87-.12-.26.12-.41.22-.64l.56-.94A.23.23,0,0,1,177.19,213.81Z"/><path class="cls-1" d="M137.84,214.66c.3-.08.44.26.66.42s.63.46.55.76a23.52,23.52,0,0,0-1.53,4.45c-.54,1.55-1.4,2.93-1.84,4.53a29.25,29.25,0,0,1-1.35,3.05,14.65,14.65,0,0,0-.53,1.82.28.28,0,0,1-.41,0c-.59-.46-1.15-1-1.7-1.47a.56.56,0,0,1-.22-.74c.48-1.07.88-2.14,1.4-3.19a22.9,22.9,0,0,0,1.83-3.48c.22-.59.62-1.06.87-1.63a18.82,18.82,0,0,0,1.58-3.32A8.6,8.6,0,0,0,137.84,214.66Z"/><path class="cls-1" d="M175.58,216.17c1.51,1.68,3.28,2.87,5,4.43.2.21.54.44.58.74a21.64,21.64,0,0,0-1,2.23l-.16,0a5.71,5.71,0,0,0-1-1.12c-1.52-1.46-3-3-4.5-4.48a12.06,12.06,0,0,1,.77-1.24C175.28,216.59,175.41,216.13,175.58,216.17Z"/><path class="cls-1" d="M140.08,216.52c.35,0,.68.67.92.92.21.42.82.69.89,1.14a12.79,12.79,0,0,1-.87,2.35c-.38,1-.57,2-.93,2.94-.46,1.93-1.66,3.71-2,5.7a15.66,15.66,0,0,0-.39,2.89c-.71-.38-1.31-1-2.07-1.35-.24-.18-.73-.3-.68-.67a10.09,10.09,0,0,1,.94-2.94c.57-1.34,1.07-2.71,1.62-4.06a25.41,25.41,0,0,0,1.37-3.26A15.13,15.13,0,0,1,140.08,216.52Z"/><path class="cls-1" d="M173.67,219c.3.19.48.55.75.79,1.39,1.64,3,3.06,4.51,4.57.18.21.39.34.48.62-.31.68-.57,1.41-.95,2.05-.27.08-.5-.3-.7-.44a59.27,59.27,0,0,1-5.12-4.82,2.15,2.15,0,0,1-.56-.81A11.42,11.42,0,0,1,173.67,219Z"/><path class="cls-1" d="M143.13,219.53c.42.46,1,.73,1.39,1.18.07.31-.17.7-.15,1.06a45.59,45.59,0,0,0-.82,5.92c-.08,2.32-.7,4.9-.41,7.19a5.12,5.12,0,0,1,0,1.63,33.18,33.18,0,0,0-3.28-2.11c-.3-.22-.73-.46-.89-.8a6.17,6.17,0,0,0,.1-1.47,17.38,17.38,0,0,1,.33-2.75c.43-2,1.62-3.87,2-5.9.44-1.27.92-2.57,1.33-3.84C142.8,219.43,142.93,219.4,143.13,219.53Z"/><path class="cls-1" d="M145.7,221.63c.47.29.81.73,1.26,1.05.23.22.73.38.62.78-.31,2-.64,4-.93,5.94a3.09,3.09,0,0,0-.12,1,49,49,0,0,0-.21,5.71c0,.88.28,2.09.27,3l-.19,0a9.42,9.42,0,0,1-2-1.63c0-.41.32-.74.27-1.19a12,12,0,0,0-.18-2.33,36.46,36.46,0,0,1,.17-4.44c0-1.05.24-2,.24-3.06a12.41,12.41,0,0,0,.24-2c.21-.45.09-1,.27-1.46S145.38,221.91,145.7,221.63Z"/><path class="cls-1" d="M171.34,222a20.42,20.42,0,0,0,2.08,2.36c1.37,1.4,3,2.56,4.35,4a13.26,13.26,0,0,1-1.23,2.88l-.21,0a13.65,13.65,0,0,0-1.25-1.72c-1.12-1.5-1.67-3.23-2.95-4.67a21,21,0,0,1-1.65-2C170.67,222.57,171,222,171.34,222Z"/><path class="cls-1" d="M148.61,224c.32,0,.42.27.64.45.42.46,1,.7,1.43,1.16-.09,3.19.15,6.32.07,9.51a23,23,0,0,0,.15,4.55,6.14,6.14,0,0,0,.27,1.7.94.94,0,0,1-.53-.15,29.2,29.2,0,0,0-3.17-1.49c0-.33.44-.41.35-.8-.63-3.54-.24-7.42.18-11A24,24,0,0,0,148.61,224Z"/><path class="cls-1" d="M169.46,223.83l.18.05a26.16,26.16,0,0,1,2.67,3.67,26.77,26.77,0,0,0,2.88,4.11c.13.19.42.4.36.65-.17.47-.66.81-.89,1.21-.14.17-.17.46-.44.39-.56-.92-.85-1.93-1.35-2.87a17.61,17.61,0,0,0-1.33-2.09,33.09,33.09,0,0,0-2.52-3.81c-.12-.17-.45-.37-.39-.59C168.91,224.31,169.19,224.09,169.46,223.83Z"/><path class="cls-1" d="M167.53,225.32a9.87,9.87,0,0,1,1.45,2,26.81,26.81,0,0,0,2.22,3.48c.87,1.35,1.28,2.84,2.22,4.13,0,.54-.69,1.06-.94,1.53-.23.14-.3.72-.58.66-.32-.79-.5-1.62-.81-2.42a36.79,36.79,0,0,1-1.59-3.43c-.7-1.48-1.88-2.71-2.54-4.23-.18-.3-.57-.67-.54-1A2.89,2.89,0,0,1,167.53,225.32Z"/><path class="cls-1" d="M151.89,226.43c.43,0,.61.31,1,.48s.78.3,1.06.65c0,2.23,0,4.45,0,6.68a5.4,5.4,0,0,0,.1,1.46,24.34,24.34,0,0,0,.51,5.73,5.52,5.52,0,0,1,.28,1.29l-.19.07c-.9-.33-1.78-.66-2.68-1,.56-.53.5-.89.34-1.6a44.67,44.67,0,0,1-.32-5.92c0-2.54-.14-5.07-.19-7.62Z"/><path class="cls-1" d="M165.36,226.69a18.11,18.11,0,0,0,1.6,3.07c.32.51.72,1,1,1.53.53,1.09,1,2.23,1.58,3.28s.79,2.51,1.48,3.68a17.22,17.22,0,0,1-2.66,3.36c-.19,0-.31,0-.34-.21-1-2.89-1.64-5.93-2.53-8.86a25.58,25.58,0,0,0-1.4-4.84c-.08-.23-.3-.26-.26-.55C164.34,227.1,164.87,226.59,165.36,226.69Z"/><path class="cls-1" d="M163.23,227.34a33.34,33.34,0,0,0,.63,3.92c.7,2.77,1.57,5.68,2.17,8.48.23.77.33,1.59.63,2.34.07.22.32.49.14.72a6.48,6.48,0,0,1-2.44,1.07l-.22-.09a27.61,27.61,0,0,1-1.67-6.58c-.41-2.51-.84-4.59-1.19-7,0-.74-.41-1.49-.42-2.22A19.22,19.22,0,0,0,163.23,227.34Z"/><path class="cls-1" d="M155.13,228a15.67,15.67,0,0,0,2,.63,35,35,0,0,0,.23,3.5c.4,3,.91,6.73,1.47,9.71.13.6.62,1.42.43,2a11.53,11.53,0,0,1-2.65-.52,16.52,16.52,0,0,1-1.21-5.5c-.26-2.81-.1-5.26-.21-8A15.55,15.55,0,0,1,155.13,228Z"/><path class="cls-1" d="M158.13,228.43c.55.08,1.16-.19,1.68,0a8.73,8.73,0,0,0,.2,2.33c.6,3.71,1.11,7,1.85,10.67.14.93.64,1.81.79,2.7a4,4,0,0,1-1.79-.23,33.8,33.8,0,0,1-1.55-6.28c-.39-2.37-.69-4.36-1-6.76A13.37,13.37,0,0,1,158.13,228.43Z"/></svg>