<svg id="Layer_1" data-name="Layer 1" xmlns="http://www.w3.org/2000/svg" viewBox="0 0 300 300"><defs><style>.cls-1{fill:#fff;}.cls-2{fill:#010101;}.cls-3{fill:#808388;}</style></defs><title>PrequelMemes-DiscoveryImage</title><path class="cls-1" d="M55.07,32.24H244.93V267.76H55.07Z"/><path class="cls-2" d="M148.65,32.59c.93-.06,2.19-.42,3.08-.08.33.1.32.52.64.58a29.53,29.53,0,0,1,3.13.23A51.49,51.49,0,0,1,161,34c1.85.16,3.55.69,5.38,1a59.76,59.76,0,0,1,6,1.64,29.87,29.87,0,0,1,4.05,1.49c1.25.51,2.53.92,3.8,1.38a37.14,37.14,0,0,1,4.26,2.18c4.77,2.43,9.36,4.44,13.54,7.93,1.14.86,2.09,1.9,3.15,2.85,1.68,1.61,3.2,3.4,4.83,5.05a2.5,2.5,0,0,1,.91.77c.46.69,1,1.33,1.51,2a6.16,6.16,0,0,0,.38,1.09,44.79,44.79,0,0,1,2.24,4.4c.67,1.73,1.42,3.4,2,5.15.86,2.68,1.77,5.35,2.56,8.06S217.33,84.3,218,87c.54,2.11,1.09,4.22,1.48,6.37.27,1.3.4,2.61.7,3.9.6,3.74.69,7.47,1.31,11.21.17,1.3.24,2.59.31,3.9.34,2.82.43,5.66.67,8.47a4,4,0,0,1-.26,2.58A79.66,79.66,0,0,1,220,140.92c-.46,1.87-1.18,3.64-1.79,5.47-1.56,3.27-2.73,6.45-4.61,9.49A61.89,61.89,0,0,1,204,168.74a57.26,57.26,0,0,1-5.71,5.64,30.13,30.13,0,0,1-4.32,2.91,24.82,24.82,0,0,1-5.36,2.3A16.35,16.35,0,0,0,186,180a11.48,11.48,0,0,1-3.28.5c-.15.27-.06.58-.11.89a14.87,14.87,0,0,0-.28,2.76,9.19,9.19,0,0,1,.71,1.87c.54,2.34,1.92,4.37,2.85,6.55a4.36,4.36,0,0,0,.51.89c.29,0,.53.19.76,0a.72.72,0,0,0,.4.34c.86.34,1.77.54,2.65.83,1.39.43,2.61,1.08,4,1.59,3,1.15,6,2.5,8.89,3.93a110.53,110.53,0,0,1,10.74,6c1.32.87,2.6,1.81,3.93,2.68,2.11,1.38,4,3.07,6,4.55,1.53,1.21,3,2.55,4.47,3.8,1.66,1.53,3.4,2.9,5,4.55,2.4,2.36,4.74,4.76,7,7.28a21.54,21.54,0,0,0,3.19,3.21,9.37,9.37,0,0,1,1.33,1.14,1,1,0,0,1-.73,1.52c-.66.1-1.08-.54-1.54-.9-1.79-1.23-2.94-2.89-4.43-4.45-1.07-1.27-2.3-2.38-3.38-3.64-1.82-1.69-3.49-3.53-5.32-5.21-2.21-1.92-4.38-3.91-6.64-5.76-1.87-1.36-3.64-2.85-5.52-4.19s-3.73-2.64-5.7-3.83a108.41,108.41,0,0,0-11.31-6.18l-.31,0a3.75,3.75,0,0,1-.56,1.19,2.34,2.34,0,0,0-.78,1.66c0,.56-.57,1.1-.82,1.58s-.77,1.2-1.13,1.82c-.46.83-1.18,1.45-1.65,2.27-.24.39-.44.8-.67,1.19-.58,1-1.42,1.78-1.95,2.81-.76,1.41-1.87,2.57-2.62,4-.53,1-1.29,1.74-1.88,2.66s-1.14,2.14-1.78,3.19c-1,1.85-2.42,3.4-3.42,5.26a40.05,40.05,0,0,1-2.72,3.91,77.68,77.68,0,0,1-4.77,6.16c-1.41,1.69-2.67,3.5-4.13,5.16-2,2.52-4.1,5-6.24,7.41a28.42,28.42,0,0,0-2,2.38c-1.26,1.55-2.63,3-4,4.51a20,20,0,0,1-1.77,2c-1,.84-1.8,1.92-2.83,2.75s-2,1.69-3,2.6a2.08,2.08,0,0,1-.86.57c-2,.58-4,1.59-6,1.9a4.85,4.85,0,0,1-1.64-.07,10.22,10.22,0,0,1-5.17-1.83,31.15,31.15,0,0,1-4.45-3.19,77.5,77.5,0,0,1-6.2-6.61c-1.14-1.56-2.21-3.17-3.27-4.77-1.56-2.36-2.87-4.86-4.26-7.32-3.61-6.72-6-13.65-8.56-20.83-1-2.61-1.68-5.28-2.56-7.92a69.73,69.73,0,0,1-2.77-8.61c-.23-1.16-.56-2.3-.82-3.45a30.12,30.12,0,0,0-1.06-5.21c-1.54.29-3.38,1.44-4.89,2a37,37,0,0,0-5,2.46c-1.92,1.13-3.9,2.09-5.74,3.35-1.18.78-2.21,1.66-3.43,2.36-1,.64-2.11,1.15-3.09,1.87s-2.21,1.66-3.38,2.4a43.2,43.2,0,0,0-3.65,2.55c-1.82,1.5-3.76,2.84-5.58,4.34s-3.61,2.68-5.31,4.16c-1.31,1.12-2.74,2.09-4.07,3.2a30.94,30.94,0,0,1-3.12,2.67c-.26.19-.43.63-.82.44a.61.61,0,0,1-.1-1c.79-1,1.77-1.82,2.62-2.74a29,29,0,0,1,2.76-2.39c1-.75,1.87-1.59,2.83-2.36,1.29-1.06,2.66-2,3.93-3.08,1.64-1.41,3.41-2.65,5.09-4a42.28,42.28,0,0,1,4.55-3.28c1.64-1.06,3.07-2.32,4.77-3.28a27.5,27.5,0,0,0,3.63-2.34c2.29-1.74,4.78-3.08,7.22-4.58a25.16,25.16,0,0,1,3.7-1.9c2-.83,3.84-1.92,5.86-2.63,1.2-.5,2.35-1.11,3.58-1.56a31.51,31.51,0,0,1,4.72-1.62,26,26,0,0,0,4.17-1.26,5.05,5.05,0,0,0,1.34-.51q0-.24,0-.49c-1-.67-2.12-1.14-3.14-1.78a12.16,12.16,0,0,0-1.7-.79l.3-.34a97,97,0,0,1-6.77-7.07c-1.77-2.14-4-4.13-5.4-6.57-.39-.76-1-1.36-1.37-2.14-.44-1-1-2-1.53-3a20.44,20.44,0,0,1-1.63-3.33,11.83,11.83,0,0,0-.41-1.63c-.72-1.67-1.17-3.43-1.92-5.09s-1.16-3.37-1.81-5c-1.1-2.62-1.37-5.2-2.13-7.92a30.73,30.73,0,0,1-.48-3.69c-.4-2.28-.06-4.53-.28-6.82a12.53,12.53,0,0,0,.07-1.74,26.73,26.73,0,0,1-2.72-4,32.91,32.91,0,0,1-4-8.24c-.51-1.84-.94-3.7-1.28-5.58-.22-1.11-.09-2.22-.37-3.34a29.66,29.66,0,0,1-.5-4.72c-.25-1.26-.07-2.48-.2-3.75,0-1.72.08-3.45,0-5.17.06-1.11.19-2.2.16-3.31A55.47,55.47,0,0,1,80.17,88a18.28,18.28,0,0,1,.77-3.3c.25-.62.43-1.27.64-1.9.44-2,1.21-3.83,1.76-5.78.5-1,.67-2.19,1.14-3.24.73-1.92,1.69-3.78,2.61-5.61a27.63,27.63,0,0,1,3.6-6.32c1-1.57,2.14-3,3.16-4.5.57-.73,1.18-1.44,1.79-2.14.17-.23.5-.19.75-.23,1.21-.94,2.19-2.1,3.34-3.1s2.12-1.87,3.19-2.8c.93-.73,1.89-1.42,2.81-2.16a46.56,46.56,0,0,1,8.19-4.84c1.91-.82,3.79-1.7,5.72-2.49s4.07-1.43,6.12-2.13c1.54-.42,3-1.13,4.52-1.54a50.19,50.19,0,0,1,5.19-1.44c1.3-.33,2.63-.36,3.94-.65,1.59-.17,3.18-.35,4.75-.65A42.44,42.44,0,0,0,148.65,32.59Z"/><path class="cls-1" d="M149.9,34.24c1.51.2,3,0,4.54.31,1.94.21,3.87.32,5.79.67,2.31.21,4.51.88,6.79,1.29,1.69.38,3.31,1.05,5,1.49s3.31,1.26,5,1.87c1.05.42,2.14.71,3.18,1.16S182,42,183,42.54c1.86,1,3.78,1.87,5.64,2.86a60.5,60.5,0,0,1,7.11,4.44A45.78,45.78,0,0,1,199.21,53c1.59,1.42,3,3.05,4.51,4.58A13.19,13.19,0,0,1,205.4,60,33.16,33.16,0,0,1,207.53,63c.33.7.57,1.45.9,2.15.59,1.25,1.38,2.38,2,3.64.64,1.41,1.07,2.9,1.66,4.34,1.17,2.8,1.89,5.66,2.81,8.62a108.49,108.49,0,0,1,3.34,14.9c.75,3.74.77,7.57,1.37,11.36.28,1.79.32,3.57.46,5.37.14,1.58.25,3.17.35,4.76a14.19,14.19,0,0,0,.16,2.69,16.66,16.66,0,0,1,0,4.31,91,91,0,0,1-1.4,12c-.38,1.45-.65,2.92-1.12,4.34s-.9,2.7-1.37,4c-.65,1.51-1.4,3-2,4.5-.61,1.3-1.17,2.61-1.9,3.84a1.56,1.56,0,0,0-2,0c-1.78,1.41-3.4,3.09-5.07,4.63-1.18,1.1-2.43,2.11-3.62,3.2-1.4,1.29-2.69,2.68-4.14,3.92-1.27,1.08-2.63,2.06-3.92,3.11a3.93,3.93,0,0,0-.71.73,5.64,5.64,0,0,1-1.83.6c.1-.48-.09-.95,0-1.41a44,44,0,0,0,5.31-4.41,2.45,2.45,0,0,0,.48-.6c1-.7,2.11-1.15,3.14-1.79a32,32,0,0,0,4.37-3.07c1.69-1.51,3.46-3.17,4.07-5.44a.79.79,0,0,0-.52-1,.79.79,0,0,1,.2-.52c1.65-2.11,3.46-4.11,5-6.32a28.42,28.42,0,0,0,1.33-3,2.54,2.54,0,0,0,.18-1.13c-.65-.12-1.49.71-2.06,1a7.48,7.48,0,0,1,.84-1.31,27.64,27.64,0,0,0,1.84-2.92,3.84,3.84,0,0,0,.17-2.56c-.55-.23-1.44.29-1.9.62a8.9,8.9,0,0,0-2.32,2.64c-2,2.9-4.24,5.66-6.53,8.35-1.25,1.44-2.59,2.77-3.79,4.27s-2.63,2.73-3.93,4.13c-1,1.1-2,2.33-2.94,3.47a4.29,4.29,0,0,0-.89,1.17l-.64.44-.21-.07,0-.17c.68-1.2,1.31-2.41,2.07-3.57a10.78,10.78,0,0,0,1.27-2.45,3.34,3.34,0,0,1,.66-.8c2.6-2.45,5.28-4.48,7.53-7.34,1.87-2.35,3.81-4.26,5.31-6.84.6-1.06,1.22-2.09,1.85-3.13a3.94,3.94,0,0,0,.7-2.31c-.09-.35-.33-.45-.67-.36-.22.39-.06.8-.23,1.2a7.11,7.11,0,0,1-.76,1.12,26,26,0,0,0-2,2.94,68.25,68.25,0,0,1-5.12,6.44,42.83,42.83,0,0,1-4.8,4.92,9.33,9.33,0,0,1,1-1.92c1-1.8,1.85-3.64,2.84-5.42a10.86,10.86,0,0,0,1-2.12c.74-1,1.62-1.86,2.31-2.89a34.12,34.12,0,0,0,2.39-4.18,26.83,26.83,0,0,0,1.48-3.09c.44-1.27.81-2.58,1.16-3.89a3.48,3.48,0,0,0,0-1.84c-.16-.45-.79-.82-1.2-.44s.13.89,0,1.44a31,31,0,0,1-1.22,3.8,8.9,8.9,0,0,1-1-.33,1.52,1.52,0,0,0-1.49.64c-1.12,1.77-2.21,3.56-3.34,5.33-1.34,2.16-2.36,4.53-3.54,6.79a18.85,18.85,0,0,0-1.32,2.78,8.23,8.23,0,0,1-1.66,1.69,4.07,4.07,0,0,1,.55-1.11c.58-1.05,1.25-2.06,1.87-3.09,1.37-2.33,2.52-4.8,3.73-7.22,1.35-3,2.92-6,4.18-9.06,1-2.46,2.25-4.79,3.29-7.24a3.29,3.29,0,0,0,.34-1.79,1.3,1.3,0,0,0-1.8-.73,2.5,2.5,0,0,0-1,1.3,43.11,43.11,0,0,0,.85-4.77c0-.76.2-1.51.26-2.27,0-.38,0-1-.54-1s-.31.84-.39,1.21c-.2,1-.46,1.91-.57,2.89s-.49,1.78-.7,2.68c-.36,1.55-.93,3-1.38,4.55a61.23,61.23,0,0,1-3.43,8.87c-.05.25-.21.46-.27.7l-.18.06c.07.37-.2.51-.25.86-1.12,2.48-2.36,4.64-3.61,7-.86,1.62-2,3.11-3,4.65-.76,1.13-1.4,2.26-2.27,3.31-.75.86-1.59,1.65-2.37,2.48-.25-.29.17-.57.29-.84,1.32-1.85,1.81-3.87,2.79-5.9a18.57,18.57,0,0,0,.7-2,1.85,1.85,0,0,0,.11-.9,51.48,51.48,0,0,0,5.28-12.05,26.87,26.87,0,0,0,1.08-6.89c0-.34-.42-.71-.74-.43-.25-.15,0-.39.08-.56.54-1,1-2.12,1.63-3.13a6.28,6.28,0,0,0,.92-3.73c0-.37-.45-.29-.67-.14a7.13,7.13,0,0,0-2,1.87c-1.15,1.81-1.93,3.73-2.9,5.59a3.61,3.61,0,0,0-.24.95c.13-1.94.89-3.45.7-5.37-.12-.36-.31-.39-.66-.34a11.09,11.09,0,0,1-.41,2.49c-.54,1.42-.77,2.9-1.26,4.33a38.62,38.62,0,0,1-2.11,5.51c-1.31,2.81-2.81,5.51-4.23,8.26a.53.53,0,0,1,0-.48,83,83,0,0,0,6.16-17.35c.83-3.14,1.52-6.32,2.35-9.47.69-2.63,1.11-5.3,1.71-8,.25-1.48.56-2.95.75-4.44a5.05,5.05,0,0,0-.11-2l.09-.15c.58.53,1.16-.15,1.11-.75a97.54,97.54,0,0,0-2.08-10.22,11.5,11.5,0,0,0-1.08-3,1.29,1.29,0,0,0-1.74-.51.6.6,0,0,0,.17.83c.48.37.55,1,.74,1.52.62,2.39,1.18,4.8,1.66,7.22.24,1.39.57,2.91.88,4.3-.89.11-1.47,1.14-1.77,1.89-.81,3-1.55,5.92-2.19,8.92-.91,3.87-2,7.69-2.93,11.57q-.75,3.11-1.63,6.2a9.79,9.79,0,0,0-.51,2.08c0,.52-.41,1-.51,1.5-.19-.29,0-.4,0-.7.64-2.88,1.49-5.69,2.11-8.57a25.65,25.65,0,0,0,.58-2.76,48.9,48.9,0,0,0,1.19-5.17c.11-1.32.31-2.62.45-3.94a4,4,0,0,0-.11-1,72.36,72.36,0,0,0,.11-9.93,38.26,38.26,0,0,0-.85-6c-.24-1-.51-2-.74-3.07a4.61,4.61,0,0,0-.46-1.74.85.85,0,0,0-1.43.32c-.19,1.25.24,2.25.24,3.46.29,2.41.33,4.8.43,7.23s.08,4.94-.16,7.44A68.3,68.3,0,0,1,188.3,113c-.48,2-.89,4-1.44,6-.07.38-.29.91-.09,1.26-.37.67-.63,1.41-1,2.1-.25-.37.1-.92.17-1.32a113,113,0,0,0,2.37-14.65c.2-1.44.28-2.89.45-4.33.08-4.59.38-8.9-.46-13.44a19.13,19.13,0,0,0-1.26-3.5,3.78,3.78,0,0,0-1.38-1.72,1,1,0,0,0-1.4.46c-.15.5.24.93.33,1.46a28.61,28.61,0,0,1,.81,4.14c.14,1,.11,2.1.24,3.14l-.62.09c-.16-5.53-.94-11.38-3.75-16.25a.75.75,0,0,0-1.2,0c-.29.38,0,1,0,1.4.16,2.77,1.07,5.33,1.33,8.06.19,1,.14,1.95.31,2.92a13.47,13.47,0,0,1,0,2.5c-.06-.49-.31-1.56-1-.89.53,1.81.11,3.36.17,5.18a65.52,65.52,0,0,1-.43,8.47,96.56,96.56,0,0,1-3.67,14,42.5,42.5,0,0,1-3.94,8,10.59,10.59,0,0,1-1,1.52c.39-1.08.6-2.24.92-3.35a55.26,55.26,0,0,1,1.74-5.47,28.56,28.56,0,0,1,1.51-3,52.88,52.88,0,0,0,3.49-10,17.83,17.83,0,0,0,.44-3.94.42.42,0,0,0-.81-.1c0,1.37-.65,2.44-.87,3.8-.52,1.75-1.07,3.52-1.72,5.23,0,.29.2.5.12.79a69.58,69.58,0,0,1-2.9,6.57,46.26,46.26,0,0,1-2.14,4.25l-.18.06c-.23-1.11.48-2.47.93-3.45a.7.7,0,0,0-.29-.38,62.88,62.88,0,0,1,2-7.16c.11-.35,0-.78.19-1.11.62-1.18,1.26-2.34,1.78-3.57a36.61,36.61,0,0,0,1.73-4.09,24.9,24.9,0,0,0,1.32-5.16,10.41,10.41,0,0,0-.06-3.2c-.1-.23-.44-.55-.67-.29s.06.86-.1,1.23c-.28,1-.48,2.08-.71,3.13s-.8,2.29-1.13,3.46a21,21,0,0,1-1.36,3.33,47.84,47.84,0,0,1-2.17,4.45,22.08,22.08,0,0,1-2.71,4.09.27.27,0,0,1-.42,0c-.41-.55-.56-1.36-1.32-1.49-.55,0-.63.54-.58,1a8.37,8.37,0,0,0,.55,1.19.81.81,0,0,1-.94-.4,8.74,8.74,0,0,1-.62-1.87.7.7,0,0,0-1.25.1,3.69,3.69,0,0,0,.93,2.89,2.93,2.93,0,0,0,1.67.66c.46.18.86-.1,1.33.07.25-.14.34-.35.66-.39.48,0,.65-.4,1.06-.55a28.19,28.19,0,0,0-1,4.7,29.68,29.68,0,0,0-.09,3.93c0,.67.2,1.31.23,2a3.06,3.06,0,0,1,.35.28c-.1.84-.34,1.65-.45,2.49a6.85,6.85,0,0,1-.26,1.85,3,3,0,0,0,.5,1.48c.44.28.55,0,.71-.35.45.51.92.41,1.51.56.08.71.74,1.17,1.36.68a48.06,48.06,0,0,0,3.07-5.21,9.54,9.54,0,0,0,.58-1.14.55.55,0,0,1,.24.48,4.91,4.91,0,0,0,.4,1.83l.17.06c1.42-1.44,1.93-3.69,2.31-5.6s.83-3.71,1.19-5.58a46.19,46.19,0,0,0,2.11-6.26c.28.6-.06,1.48-.1,2.12-.23,2.08-.64,4.12-1,6.19a71,71,0,0,1-4,9.64,7.4,7.4,0,0,1-1.44,1.87,6.62,6.62,0,0,1-2.3,1.81c-.57.18-1.24-.18-1.67.31-.31.71.36,1,.94,1.13a3.21,3.21,0,0,0,1.8-.41c-.76,1.33-1.48,2.65-2.29,3.95-.28.64.06,1.08.71,1.21l.5-.2A30.69,30.69,0,0,0,177,136c.71-1.25,1.42-2.5,2.08-3.78l.05.24a10.28,10.28,0,0,0-.76,2.06c-.1.3-.28.55-.39.85-.21.76-1.17,1.15-1.49,1.87a1.56,1.56,0,0,0,.24.47l.1.15c-.16.67-.62,1.09-.24,1.81a1.37,1.37,0,0,0,2.33.14c.74-1.36,1.32-2.82,2-4.22a25.69,25.69,0,0,0,1.47-3.75c.41-1.07,1.18-1.94,1.66-2.93.2.31,0,.58,0,.9-.57,1.57-1.06,3.17-1.61,4.75a17.46,17.46,0,0,0-.91,3,24.45,24.45,0,0,1-2.4,3.58,40.11,40.11,0,0,1-2.64,3.15.89.89,0,0,0-.2,1,.84.84,0,0,0,1.26,0,15.31,15.31,0,0,0,1.75-1.95,11,11,0,0,0-.39,1.82c.22,1-.83,1.88-1.41,2.56a.85.85,0,0,0,.06,1.24c.36.33.91.06,1.35,0a4.12,4.12,0,0,0,2.09-1.36c.21.32-.09.76-.15,1.1a27.7,27.7,0,0,1-1.71,5.18c-.7,1.53-1.29,3-2.13,4.49-1,1.68-1.92,3.34-2.79,5.06a7.33,7.33,0,0,0-.42,1.68c-1.09,1.21-2.4,2.27-3.58,3.41-1.58,1.45-3.09,3-4.73,4.36-2,1.62-4,3.12-5.93,4.81a71.41,71.41,0,0,1-6,4.73c-.3.24-.61.35-.64.78a16.48,16.48,0,0,1-2.34,1.21,47.48,47.48,0,0,1-4.73,1.84c-1.36.43-2.75.81-4.09,1.32a22.34,22.34,0,0,1-3.8.91c-.6.66-1.62.44-2.44.58-1.72.24-3.44.16-5.16.26a76.13,76.13,0,0,1-8.46-.21,33.88,33.88,0,0,1-5.55-.66c-.42-.19-.81-.42-1.23-.6-.84-.37-1.43-1-2.23-1.45s-1.24-1-2-1.36c-1.67-1.7-3.34-3.43-4.86-5.28s-2.86-3.35-4.18-5.12c-.61-.79-1-1.75-1.58-2.55a5.76,5.76,0,0,1-.83-1.44c-.23-.63-.66-1.15-.89-1.78a19.6,19.6,0,0,0-1.61-3.78,17.85,17.85,0,0,1-1.8-4.45c-.31-1.2-.82-2.32-1.24-3.48-.56-1.47-.92-3-1.5-4.48a35.29,35.29,0,0,1-1.25-5.06,29.85,29.85,0,0,1-.78-3.92c-.09-1.53-.31-3-.37-4.55a19.83,19.83,0,0,0,0-3.72c-.06-.33.2-.55.37-.8.12-.52-.35-.76-.27-1.26.08-1.11,0-2.21.08-3.32s0-2.06.27-3.09c.38-2,.38-4,.71-6,.14-1.3.15-2.62.35-3.91a2,2,0,0,0,2.22-.68c.36-.36.2-1.17-.38-1.16s-.58.28-.88.52-.57.07-.85-.07l-.27-.58a3.13,3.13,0,0,1-1.36-1.33c-.24-1.17-.34-2.37-.58-3.54-.47-2.39-.58-4.81-.89-7.23A64,64,0,0,1,91,82.76a3.24,3.24,0,0,0-.12-1.87.29.29,0,0,0-.38,0,3.37,3.37,0,0,0-1.16,1.92A68.48,68.48,0,0,0,86.85,101a41.9,41.9,0,0,0,.48,5.61c.14,2.42.73,4.81,1.11,7.2a19.44,19.44,0,0,0,1.22,3.5,12.67,12.67,0,0,0-.47,2.59c-.23,1.32-.4,2.65-.54,4a21.91,21.91,0,0,1-2.48-5.56,44.25,44.25,0,0,1-1.88-6.79,37.79,37.79,0,0,1-.91-6.4,51.61,51.61,0,0,1,.83-14.87c.26-1.36.72-2.67,1-4s.63-2.4.9-3.62A4.06,4.06,0,0,0,86,81.21a.5.5,0,0,0-.52.28,9.71,9.71,0,0,0-1.37,3.34c-.5,2.17-1.2,4.28-1.55,6.47a51.6,51.6,0,0,0-.67,13.89,39,39,0,0,0,.84,6.15c.24,1,.33,2,.61,2.9a63.92,63.92,0,0,0,2.55,7.42,13.1,13.1,0,0,0,1.87,3c.21.29.63.55.68.9a37.76,37.76,0,0,0-.47,5.13l-.21,0c-.61-1-1.13-2-1.76-3a27.17,27.17,0,0,1-3.39-7.45c-.41-1.57-.77-3.15-1.06-4.74a30.2,30.2,0,0,0-.51-4.11c-.22-1.71-.25-3.48-.4-5.19-.19-2.55.06-5.09-.06-7.64.25-1.52.11-3,.36-4.54a53.34,53.34,0,0,1,1.19-6.4,12.17,12.17,0,0,1,.66-2.45c.54-1.29.81-2.73,1.23-4.07.4-1.14.76-2.29,1.12-3.44A16.27,16.27,0,0,0,86.08,75a57.24,57.24,0,0,1,2.8-6.11,29.6,29.6,0,0,1,2-4c1-1.4,1.92-2.79,2.88-4.19,1-1.23,1.76-2.62,2.72-3.86,1.47-1,2.61-2.54,4-3.68.6-.51,1.25-1,1.84-1.47a49.14,49.14,0,0,1,4.54-3.31c1.88-1.23,3.74-2.48,5.72-3.55,1.35-.83,2.83-1.43,4.19-2.25A77.92,77.92,0,0,1,126.34,39c3.84-1.24,8-2.84,12-3.26,1.63-.33,3.29-.38,4.92-.69a5.34,5.34,0,0,1,1.88-.1,1.15,1.15,0,0,0,.5-.18C147.06,34.67,148.49,34.25,149.9,34.24Z"/><path class="cls-2" d="M113,52.77a9.87,9.87,0,0,1-1.17,2c-1,1.21-2.12,2.29-3.13,3.48a12.18,12.18,0,0,0-2.58,3.45h-.39c-.26-.72.32-1.62.7-2.22A27.9,27.9,0,0,1,109,56C110.26,54.68,111.22,53.39,113,52.77Z"/><path class="cls-2" d="M120.61,55c.3-.19.75-.38.81.15-.23.83-.87,1.13-1.41,1.72s-.86.94-1.27,1.43c-.28.28-.59.46-.77,0a5.35,5.35,0,0,1,.73-1A7,7,0,0,1,120.61,55Z"/><path class="cls-2" d="M147.36,55.44a1.53,1.53,0,0,1-.46,1.27c-.7.61-1.44,1.18-2.17,1.76a2.87,2.87,0,0,0-.54.7c-.39.2-.68-.05-.62-.47.33-1.15,1.42-1.85,2.23-2.68C146.14,55.64,146.84,55.18,147.36,55.44Z"/><path class="cls-2" d="M102.71,55.85c.08.44-.27.89-.43,1.29-1.08,2.32-3.26,4.14-4.59,6.38-.76,1-1.38,2.17-2.12,3.22-.26.29-.57.9-1,.79a.6.6,0,0,1-.39-1c.65-.9,1.1-1.9,1.71-2.82A36.08,36.08,0,0,1,98,60.66c.91-1,1.71-2.14,2.57-3.21A8,8,0,0,1,102.71,55.85Z"/><path class="cls-3" d="M174.18,57.75a5.18,5.18,0,0,1,1.46,1.86c.23.54.56.93.46,1.55,0,.44-.21,1.29-.79,1.22a2.27,2.27,0,0,1-1.36-.89,11.09,11.09,0,0,1-.74-2.39c-.07-.4-.38-.79-.11-1.17A.76.76,0,0,1,174.18,57.75Z"/><path class="cls-3" d="M167.13,67.24a1.16,1.16,0,0,1,.64,0c.27.45.38,1,.65,1.42a7.19,7.19,0,0,1,1,2.41.93.93,0,0,1-.49.9c-.54.08-.9-.43-1.1-.85-.36-.92-.44-2-.75-2.94C167,67.83,166.86,67.56,167.13,67.24Z"/><path class="cls-3" d="M140.09,68.3c1.36,1,1.56,2.46,2,4a42.66,42.66,0,0,1,1.37,7.88c.22.85.07,1.73.27,2.59.07,1.13.1,2.29.08,3.43-.1-.82,0-1.65-.17-2.47s0-1.68-.2-2.48a53.5,53.5,0,0,0-1.13-6,35.68,35.68,0,0,0-1.9-6.21c-.17-.35-.56-1-1-.5s.14.77.23,1.16c.67,2.35,1.14,4.77,1.6,7.16a65.87,65.87,0,0,1,.92,14.09c-.12,2.54-.18,5.13-.48,7.64-.32,2.78-.46,5.53-.89,8.3-.21.73-.14,1.5-.34,2.23l-.16-.07-.05,0a5.27,5.27,0,0,1-.73,2,.37.37,0,0,1-.39.19l-.18-.41a26.06,26.06,0,0,1-.88-3.4c.37-.25.38-.62.5-1A66.6,66.6,0,0,0,140.81,95a52.65,52.65,0,0,0,.06-7.34c-.19-1.2-.14-2.41-.28-3.61-.15-2.8-.58-5.59-1-8.37-.45-2.16-.72-4.34-1.07-6.51,0-.34-.06-.71.28-.91A1.7,1.7,0,0,1,140.09,68.3Z"/><path class="cls-2" d="M140.43,69a35.68,35.68,0,0,1,1.9,6.21,53.5,53.5,0,0,1,1.13,6c.2.8.08,1.66.2,2.48s.07,1.64.17,2.47a94.29,94.29,0,0,1-.46,12.24c-.42,3.37-.55,6.73-1.19,10.08-.18.82-.15,1.63-.32,2.43.46-.37.92-.72,1.4-1,1.87-1.08,2.74-2.77,4.07-4.39a43.51,43.51,0,0,0,2.45-4,7,7,0,0,0,.89-1.71,41.4,41.4,0,0,0,2.45-9.37c.18-1.29.08-2.63.24-3.93.11-.65,0-1.31.12-2,.39-.1.4.24.43.54,0,.56,0,1.14.06,1.69a25.4,25.4,0,0,1,.18,4.34,25.68,25.68,0,0,1-.52,3.57,33.75,33.75,0,0,1-2.13,6.69,46.29,46.29,0,0,1-2.75,4.68c-.57.76-1.18,1.5-1.73,2.28a7.51,7.51,0,0,0,2.88-2.38,14.34,14.34,0,0,0,3.57-3.85,30.08,30.08,0,0,0,2.58-3.82c.61-1.1,1.4-2.08,2-3.22a53.31,53.31,0,0,0,3.17-7.35c.43-1.41.87-2.81,1.31-4.21a12.46,12.46,0,0,0,.67-3.18c0-.38-.2-.72-.09-1.08.36-.29.54.17.68.43a9.21,9.21,0,0,1-.29,4.68,56.49,56.49,0,0,1-2.88,8.33c-.69,1.43-1.3,2.93-2.12,4.27-1.18,1.73-2.12,3.6-3.39,5.28-.8,1-1.54,2.06-2.31,3.09a10.17,10.17,0,0,0-1.3,1.17c-.28.27-.7.52-.84.89.2.35.26.46.7.4l.39,0a2,2,0,0,0,1.35-.29,29.15,29.15,0,0,0,6-4.92,57.15,57.15,0,0,0,3.71-4.34A52.24,52.24,0,0,0,170,87.69a24,24,0,0,0,1.08-2.42,8.76,8.76,0,0,0,.57-2.35c0-.29.49-.39.58-.07.08.82-.26,1.67-.23,2.5-.45,1-.63,2.06-1.14,3a34.52,34.52,0,0,1-2.27,4.5c-.79,1.2-1.56,2.43-2.42,3.58s-1.76,2.1-2.57,3.21c-.93,1.28-2,2.35-3.06,3.55a15.51,15.51,0,0,1-1.75,1.76,38.48,38.48,0,0,1-3,2.65,9.49,9.49,0,0,1,0,1.24,1,1,0,0,0,1.27.36A11.66,11.66,0,0,0,161,106.1c1.46-1.44,2.93-2.86,4.36-4.33a65.5,65.5,0,0,0,7.21-9.52c.69-1.22,1.53-2.34,2.26-3.53.2-.24-.07-.48-.15-.7.17-.67,1.25-.2,1.06.41a18.11,18.11,0,0,1-2.12,4.65,56.08,56.08,0,0,1-6.09,8.38c-2.05,2.41-4.48,4.49-6.59,6.84-.54.49-1.05,1-1.62,1.47.8.42.44,1.27.47,2a1.21,1.21,0,0,0,.89,1.29,2.82,2.82,0,0,0,1.58-.32c-.15-.82.89-1.44,1.43-1.9,1.83-.85,3-2.91,4.18-4.48,1.38-2.06,3.07-3.91,4.28-6.07.87-1.42,1.63-2.91,2.47-4.35s1.23-2.72,1.93-4.06a35,35,0,0,0,1.59-4.25,4.22,4.22,0,0,0,.34-2.31c0-.42-.48-.49-.29-.87.61-.28,1.12.4,1.27.91.56,1.43-.22,3.1-.57,4.51a36.66,36.66,0,0,1-1.88,4.73,16.1,16.1,0,0,1-.94,1.93c-1.24,2.15-2.42,4.48-3.83,6.53-.72.94-1.38,1.93-2.08,2.89-2.18,3-4.11,5.91-7.19,8.09a3.37,3.37,0,0,1-2.06.49,2.46,2.46,0,0,1-2.34-1.43,3.66,3.66,0,0,1,0-2.74,3.21,3.21,0,0,1-2.55.5c-.88-.36-1.81-.88-1.75-2a10,10,0,0,1-2,.75,3.49,3.49,0,0,1-2.89-.73,4.14,4.14,0,0,1-1.34.75c-.39.25-.61.53-1.12.39-.36-.09-.43-.36-.56-.67-.53.6-1.18,1-1.75,1.6a22.19,22.19,0,0,1-1.73,1.93c-.69-.12-1.33.24-1.89-.15a.73.73,0,0,1-.79,0,2.08,2.08,0,0,1-.69,0l0,.25c1.64.32,3.34.43,5,.85a17.92,17.92,0,0,1,3.07.83c.88.3,1.85.4,2.72.77,1.24.55,2.5.58,3.69,1.3a1,1,0,0,1,0,1.63,1.39,1.39,0,0,1-1.37,0c-.92-.38-1.91-.47-2.83-.89s-1.93-.53-2.88-.87a21.12,21.12,0,0,0-3.25-.94c-1.72-.34-3.44-.72-5.16-1a59.1,59.1,0,0,1-6.59-1.3.46.46,0,0,1,0-.91c1.82-.4,4.07.32,5.95.36a5.92,5.92,0,0,1-2.68-2.83,1,1,0,0,0-.28-.5,17,17,0,0,1-1.11-1.44,3.48,3.48,0,0,0-.8,0,3.89,3.89,0,0,0-.68-1.16,40.34,40.34,0,0,1-4.88-6.51,26,26,0,0,1-1.81-5c-.43,1.48-.63,3-1,4.54a46.51,46.51,0,0,1-2.32,7.1c-.52,1.07-1.09,2.11-1.53,3.22-.55.81-1,2-2,2.32a1.15,1.15,0,0,1-1.1.3c-.45,1.43-.17,3.12-.74,4.49-.58.17-.62-.16-.84-.59-.32-.18-.57-.42-.87-.62-1-.68-1.46-1.79-2.61-2.36a18.29,18.29,0,0,1-3.59-3.81,14.94,14.94,0,0,1-1.83-3.37,61,61,0,0,1-3.49-8.75A40.9,40.9,0,0,1,102,90.61c-.39-2.3-.3-4.61-.49-6.93,0-1.46,0-2.89.11-4.34a4.27,4.27,0,0,1,.55-1.43c.12-.2.31-.52.59-.4a5.17,5.17,0,0,1,.58,1.82,76.64,76.64,0,0,0,.47,12,45.15,45.15,0,0,0,1.63,7c.85,2.81,2.26,5.52,3.38,8.23a26.29,26.29,0,0,0,3.2,5.34c-.55-1.27-1.19-2.5-1.64-3.82-.72-1.84-1-3.76-1.57-5.65-.64-2.31-1-4.65-1.48-7-.23-1.3-.48-2.59-.6-3.9a43.51,43.51,0,0,1-.39-5,40.57,40.57,0,0,1,.39-7.53,44.49,44.49,0,0,1,1.4-6.55c.25-.38.76-1.13,1.24-1.15.4.22.4,1.18.41,1.59A71.93,71.93,0,0,0,108.44,81a46.15,46.15,0,0,0-.24,6.61c0,1.46.25,2.89.36,4.34a96,96,0,0,0,2.05,10.62c.42,1.4.6,2.84,1.06,4.23a47,47,0,0,0,2,5.08,27.48,27.48,0,0,0,1.54,3c.18.26.29.67.59.8a42.34,42.34,0,0,1-.09-9.7c0-.34.18-.59,0-.92-.29-1.18.08-2.62.05-3.83.18-2.61.1-5.25.27-7.85-.1-.82-.05-1.65-.07-2.48a65.58,65.58,0,0,0-.5-6.82c-.38-2.53-.67-5.06-.84-7.62a7.19,7.19,0,0,1,.38-3.27c.12,0,.21.08.26.24.25.6.37,1.26.57,1.88.2,1.47.2,3,.42,4.44.19,2.07.57,4.12.71,6.2a38.2,38.2,0,0,1,.33,5.16,67.55,67.55,0,0,1-.35,8.7c-.08,1.49-.47,3-.42,4.5.46,1.51.17,3,.33,4.55.29,0,.22-.39.26-.59a21.61,21.61,0,0,1,.43-2.69,73.77,73.77,0,0,0,.69-11.36c.13-2.47.23-4.87.44-7.35s.23-5.31.42-7.82a7.39,7.39,0,0,1,.83-2.48l.18.1a9.28,9.28,0,0,1,.61,2.47c-.06,2.73-.2,5.54-.37,8.26-.14,1.87-.31,3.73-.37,5.58-.2,2.67-.06,5.38-.3,8.06a29.18,29.18,0,0,1-.76,5.61,27.25,27.25,0,0,1-.82,3.9,3.55,3.55,0,0,0-.39,1.19,21.9,21.9,0,0,0,1.8-3.25c.29-.68.65-1.3,1-2a47,47,0,0,0,2.87-9.21,50.24,50.24,0,0,0,1.23-6.61c-.12-2.28-.46-4.53-.49-6.82a46.16,46.16,0,0,1-.28-6.82,11.18,11.18,0,0,1,.57-2l.23,0a5,5,0,0,1,.78,3,66,66,0,0,0,.37,6.82c.12,2,.43,4,.56,6.08a36.16,36.16,0,0,0,2.4,8.68c.94,1.75,2.15,3.36,3.26,5,.12.26.46.19.7.24-.15-3-.55-6-.73-9.06-.19-1.37-.15-2.72-.22-4.1-.23-2.22-.08-4.42-.18-6.64,0-1.93.16-3.86.12-5.79s.4-3.7.31-5.58c0-.63,0-1.92.75-2.17.31.12.4.3.27.52a5.62,5.62,0,0,0-.1,2.89c.19,1.31,0,2.6.08,3.92.11,2.08-.1,4.13-.09,6.2.16,1.46.05,2.87.11,4.34.15,3.11.28,6.19.61,9.29.12,2,.47,4,.5,6a9.41,9.41,0,0,1,.63,1.26,17.1,17.1,0,0,0,2,4.26,6.11,6.11,0,0,0,1.31,1.42,27.93,27.93,0,0,1-1.67-5.75,44.58,44.58,0,0,1-.91-8.85c.08-3.62-.2-7.15-.42-10.75,0-.29.16-.65.51-.56a.92.92,0,0,1,.35.76c.51,7,.61,13.83,2.18,20.76a26.06,26.06,0,0,0,.88,3.4,11.43,11.43,0,0,1,.28,1.42c.27,0,.4-.28.59-.46a22.88,22.88,0,0,0,.64-2.6c.2-.73.13-1.49.34-2.23.43-2.77.56-5.52.89-8.3.3-2.51.36-5.1.48-7.64a65.87,65.87,0,0,0-.92-14.09c-.46-2.4-.93-4.81-1.6-7.16-.09-.39-.52-.78-.23-1.16S140.27,68.65,140.43,69Z"/><path class="cls-2" d="M148.61,71.39c.11-.15.22-.13.33.06a12,12,0,0,1,.64,1.93,46.24,46.24,0,0,1-.78,16.71c-1,4.18-2.25,8.38-3.58,12.46a2.74,2.74,0,0,0-.68.51c-.6,0-.15-.68-.14-1a19.52,19.52,0,0,1,1-4.28c.66-2.34,1.23-4.71,1.85-7.06A48,48,0,0,0,148.63,80C148.89,77.09,148.24,74.25,148.61,71.39Z"/><path class="cls-2" d="M102.1,74.45a.91.91,0,0,1,.23,1.14c-.73,2.92-1.55,5.76-2,8.71a67.23,67.23,0,0,0-1,7.43,39.22,39.22,0,0,0-.13,5.58,21.05,21.05,0,0,0,.13,2.23,1.94,1.94,0,0,1,.39.63c.2.78.38,1.56.54,2.35a38,38,0,0,0,3.38,5.32c1.13,1.24,2.3,2.82,3.78,3.64,1,.56,2.06.11,2.87.85a1.3,1.3,0,0,1,.69,1.83c-.34.66-.94.64-1.58.73a25.4,25.4,0,0,0-3.95.59c-1.31.18-2.49.77-3.79,1-1,.31-2,.84-3,1.19-1.37.46-2.61,1.2-4,1.62a12.35,12.35,0,0,0-2,.93.68.68,0,0,1-1-.62,2,2,0,0,1,.57-1c.93-.94,2.25-1.26,3.45-2s2.43-1.15,3.65-1.72a9.12,9.12,0,0,1,1.79-.76c1.16-.26,2.18-.81,3.37-1,.8-.07,1.53-.38,2.32-.47-.17-.35-.78-.51-1.06-.82a24.48,24.48,0,0,1-4.63-5.49,27,27,0,0,1-1.39-2.63,8,8,0,0,0,.12,1,70.63,70.63,0,0,0,2,7.22c.11.43.47.92.4,1.37a.42.42,0,0,1-.74,0,24.46,24.46,0,0,1-3.12-7.81,59.4,59.4,0,0,1-.94-9.74,52.26,52.26,0,0,1,.33-6.63,74,74,0,0,1,2.95-14.4C100.92,74.36,101.75,74,102.1,74.45Z"/><path class="cls-3" d="M155.4,75.49a9.54,9.54,0,0,1,.35,3c-.2,1.24-.3,2.5-.61,3.72-.26,1.4-.72,2.75-1,4.13,0,1.44.47,3.18.07,4.79a25.4,25.4,0,0,0-.18-4.34c-.08-.55,0-1.13-.06-1.69,0-.3,0-.63-.43-.54-.12.65,0,1.3-.12,2-.16,1.3-.06,2.64-.24,3.93l-.18-.06-.05,0c-.46,1.82-1,3.64-1.33,5.49-.33,1.18-.63,2.36-1,3.54a.65.65,0,0,0,.07.42,7,7,0,0,1-.89,1.71,43.51,43.51,0,0,1-2.45,4c-1.32,1.61-2.19,3.3-4.07,4.39a14.9,14.9,0,0,1,1.05-2.64c.79-1.67,1.6-3.34,2.45-5A32.39,32.39,0,0,0,149,95.43a64,64,0,0,1,1.69-6.61c.8-3.19,1.88-6.27,2.5-9.51a9,9,0,0,1,1.54-3.43C154.87,75.7,155.11,75.29,155.4,75.49Z"/><path class="cls-2" d="M95.17,75.54h.21a3.11,3.11,0,0,1,.25,1.75,68,68,0,0,0-2.08,7.53,54.5,54.5,0,0,0-1.63,13.94,35.35,35.35,0,0,0,.15,4.16,40.44,40.44,0,0,0,.67,5.75,44.46,44.46,0,0,0,1.08,5.26c.13.37.65,1,.27,1.33a.42.42,0,0,1-.57,0,5.1,5.1,0,0,1-.75-1.35,14.44,14.44,0,0,1-1.3-4,48.47,48.47,0,0,1-1.11-8.68c0-2-.11-4,.07-6a56.66,56.66,0,0,1,.88-7.83,71.69,71.69,0,0,1,2.59-9.94A4.21,4.21,0,0,1,95.17,75.54Z"/><path class="cls-3" d="M181.3,76.45c2.81,4.87,3.59,10.71,3.75,16.25.06.46.3.85.36,1.31a9.3,9.3,0,0,1-.14,2.1,23.64,23.64,0,0,1-.3,3.45,60.3,60.3,0,0,1-1.36,7.89,66.35,66.35,0,0,1-5,13.84c.17-1.72.6-3.42.86-5.13.06-.56.37-1.2.18-1.74a58.59,58.59,0,0,0,1.94-8,23,23,0,0,0,.48-4.37A70.68,70.68,0,0,0,182,93c0-.57-.32-1-.26-1.6a13.47,13.47,0,0,0,0-2.5c-.18-1-.12-2-.31-2.92-.25-2.73-1.17-5.29-1.33-8.06,0-.43-.31-1,0-1.4A.75.75,0,0,1,181.3,76.45Z"/><path class="cls-3" d="M173.86,78.47c.59.31.59.9.6,1.49-.11,1.36-.9,2.27-1.43,3.52a9.86,9.86,0,0,1-1,1.87c0-.84.31-1.69.23-2.5-.08-.32-.54-.23-.58.07a8.76,8.76,0,0,1-.57,2.35A24,24,0,0,1,170,87.69a52.24,52.24,0,0,1-7.2,10.56,57.15,57.15,0,0,1-3.71,4.34,29.15,29.15,0,0,1-6,4.92,2,2,0,0,1-1.35.29c.71-1,1.88-1.56,2.67-2.47,1.06-1.22,1.85-2.68,2.92-3.9.57-.67,1.22-1.27,1.79-1.94,1.53-1.71,2.52-3.73,4-5.53a47.79,47.79,0,0,0,4.85-7.34A72.64,72.64,0,0,1,172,79.53C172.42,79,173.14,78.37,173.86,78.47Z"/><path class="cls-2" d="M194.63,79.25a1.29,1.29,0,0,1,1.74.51,11.5,11.5,0,0,1,1.08,3A97.54,97.54,0,0,1,199.54,93c.05.6-.52,1.28-1.11.75l-.35-.61c-.31-1.38-.64-2.91-.88-4.3-.47-2.42-1-4.83-1.66-7.22-.19-.55-.25-1.15-.74-1.52A.6.6,0,0,1,194.63,79.25Z"/><path class="cls-3" d="M161.84,81.64c.51.59.36,1.26.66,1.91-.44,1.4-.89,2.81-1.31,4.21A53.31,53.31,0,0,1,158,95.11c-.56,1.14-1.34,2.12-2,3.22a30.08,30.08,0,0,1-2.58,3.82,14.34,14.34,0,0,1-3.57,3.85,11.66,11.66,0,0,1,.9-2.19c.92-2,2.41-3.46,3.26-5.43,1.25-2.77,2.39-5.58,3.6-8.37a35.79,35.79,0,0,0,1.52-3.85,12.72,12.72,0,0,1,.78-2.31,14.61,14.61,0,0,1,1.14-1.75C161.3,81.92,161.56,81.59,161.84,81.64Z"/><path class="cls-3" d="M190.87,82.38a4.61,4.61,0,0,1,.46,1.74c.23,1,.51,2,.74,3.07a38.26,38.26,0,0,1,.85,6,72.36,72.36,0,0,1-.11,9.93c-.19-.48-.5-1.37-1.18-1.1s.31.79.17,1.3c-.08,1.32-.57,2.6-.69,3.93a36.41,36.41,0,0,1-1.88,6.85c-.57,1.87-1.34,3.63-2,5.45a3.7,3.7,0,0,1-.4.74c-.2-.35,0-.88.09-1.26.55-2,1-4,1.44-6a68.3,68.3,0,0,0,1.63-12.2c.24-2.5.13-4.89.16-7.44s-.13-4.82-.43-7.23c0-1.21-.43-2.21-.24-3.46A.85.85,0,0,1,190.87,82.38Z"/><path class="cls-2" d="M202.27,82.93a.47.47,0,0,1,.41,0,3.19,3.19,0,0,0,.36,1.53,9,9,0,0,1,1,2.72c.63,2.61,1.3,5.21,1.76,7.85.16,1.16.61,2.33.27,3.5,0,.16-.11.22-.31.2a5.87,5.87,0,0,1-1.18-3.07c-.6-3.29-1.45-6.53-2.09-9.82A4.65,4.65,0,0,1,202.27,82.93Z"/><path class="cls-3" d="M185.69,83.42a3.78,3.78,0,0,1,1.38,1.72,19.13,19.13,0,0,1,1.26,3.5c.84,4.53.55,8.85.46,13.44-.17,1.44-.25,2.89-.45,4.33A113,113,0,0,1,186,121.05c-.07.4-.42,1-.17,1.32a86.12,86.12,0,0,1-4.35,7.54c-.88,1.46-1.82,2.88-2.76,4.29a.71.71,0,0,1-.34.28,10.28,10.28,0,0,1,.76-2.06l-.05-.24a71.25,71.25,0,0,0,5.52-12.35,72.87,72.87,0,0,0,2.49-9.3c.58-2.43.85-4.93,1.18-7.41.25-1.26.26-2.57.43-3.84,0-.29.27-.83,0-1s-.76.13-.85.54c-.21,1-.14,2-.4,3-.65,3-1,6-1.78,8.88-.32,1.38-.57,2.8-1,4.16a41.17,41.17,0,0,1-1.45,4.53c.32-2.06.73-4.11,1-6.19,0-.64.38-1.52.1-2.12a52.33,52.33,0,0,0,2.18-11.41,32,32,0,0,0,.11-4.86,4.71,4.71,0,0,0-.84-2.23c-.13-1-.1-2.1-.24-3.14a28.61,28.61,0,0,0-.81-4.14c-.09-.52-.48-1-.33-1.46A1,1,0,0,1,185.69,83.42Z"/><path class="cls-2" d="M95.93,86.18c.44,1.63-.08,3.09-.22,4.73-.23,3-.42,5.91-.53,8.89a9.85,9.85,0,0,0,0,2.06,38.36,38.36,0,0,0,.28,4.75A28.75,28.75,0,0,0,96.77,113c.15.5.49,1,.34,1.55a.8.8,0,0,1-1.09-.39c-1.51-2.36-1.85-4.87-2.24-7.57-.25-1.45-.19-2.88-.32-4.34-.07-2,.14-4,.19-6,.1-1.34.27-2.65.44-4A20.07,20.07,0,0,1,95.3,87C95.46,86.71,95.59,86.19,95.93,86.18Z"/><path class="cls-2" d="M209.18,87.55c.48-.26.5.47.55.77a2,2,0,0,1,.57.64,13.82,13.82,0,0,1,.75,2.6,44.59,44.59,0,0,1,1,5.86,6.76,6.76,0,0,1-.08,2c-.08.27,0,.7-.43.54a10.27,10.27,0,0,1-.79-2c-.29-2-.54-4-1-6a20.42,20.42,0,0,0-.74-3.1C209.08,88.48,208.94,87.82,209.18,87.55Z"/><path class="cls-1" d="M152.9,90.39l.05,0,.18.06a41.4,41.4,0,0,1-2.45,9.37.65.65,0,0,1-.07-.42c.33-1.18.63-2.36,1-3.54C151.94,94,152.43,92.21,152.9,90.39Z"/><path class="cls-2" d="M181.74,91.38c-.06.58.25,1,.26,1.6a70.68,70.68,0,0,1,.1,9.09,23,23,0,0,1-.48,4.37,58.59,58.59,0,0,1-1.94,8,43.11,43.11,0,0,1-2.5,7.09,46,46,0,0,1-4.36,7.81c-.15.31-.46.56-.52.9.55.1,1.54.23,1.78-.46,1.55-2.81,3.12-5.61,4.57-8.47a66.35,66.35,0,0,0,5-13.84A60.3,60.3,0,0,0,185,99.56a23.64,23.64,0,0,0,.3-3.45,9.3,9.3,0,0,0,.14-2.1c-.06-.46-.3-.85-.36-1.31l.62-.09a4.71,4.71,0,0,1,.84,2.23,32,32,0,0,1-.11,4.86,52.33,52.33,0,0,1-2.18,11.41,46.19,46.19,0,0,1-2.11,6.26A63.07,63.07,0,0,1,179,124.1c-.38.69-.74,1.39-1.15,2.07a9.54,9.54,0,0,1-.58,1.14,48.06,48.06,0,0,1-3.07,5.21c-.62.49-1.29,0-1.36-.68-.59-.15-1.07,0-1.51-.56-.16.36-.28.63-.71.35a3,3,0,0,1-.5-1.48,6.85,6.85,0,0,0,.26-1.85c.11-.84.35-1.65.45-2.49a3.06,3.06,0,0,0-.35-.28c0-.67-.24-1.31-.23-2a29.68,29.68,0,0,1,.09-3.93,28.19,28.19,0,0,1,1-4.7c-.41.14-.58.52-1.06.55-.32,0-.41.24-.66.39-.47-.17-.87.11-1.33-.07a2.93,2.93,0,0,1-1.67-.66,3.69,3.69,0,0,1-.93-2.89.7.7,0,0,1,1.25-.1,8.74,8.74,0,0,0,.62,1.87.81.81,0,0,0,.94.4,8.37,8.37,0,0,1-.55-1.19c0-.43,0-1,.58-1,.77.13.91.94,1.32,1.49a.27.27,0,0,0,.42,0,22.08,22.08,0,0,0,2.71-4.09,47.84,47.84,0,0,0,2.17-4.45,21,21,0,0,0,1.36-3.33c.33-1.17.78-2.3,1.13-3.46s.43-2.09.71-3.13c.16-.36-.24-1,.1-1.23s.57.06.67.29a10.41,10.41,0,0,1,.06,3.2,24.9,24.9,0,0,1-1.32,5.16,36.61,36.61,0,0,1-1.73,4.09c-.52,1.23-1.16,2.39-1.78,3.57-.18.32-.08.75-.19,1.11a62.88,62.88,0,0,0-2,7.16.7.7,0,0,1,.29.38c-.44,1-1.15,2.34-.93,3.45l.18-.06a46.26,46.26,0,0,0,2.14-4.25,69.58,69.58,0,0,0,2.9-6.57c.08-.29-.14-.51-.12-.79.65-1.7,1.2-3.48,1.72-5.23.22-1.36.89-2.44.87-3.8a.42.42,0,0,1,.81.1,17.83,17.83,0,0,1-.44,3.94,52.88,52.88,0,0,1-3.49,10,28.56,28.56,0,0,0-1.51,3,55.26,55.26,0,0,0-1.74,5.47c-.32,1.11-.52,2.27-.92,3.35a10.59,10.59,0,0,0,1-1.52,42.5,42.5,0,0,0,3.94-8,96.56,96.56,0,0,0,3.67-14,65.52,65.52,0,0,0,.43-8.47c-.06-1.82.36-3.37-.17-5.18C181.43,89.81,181.68,90.89,181.74,91.38Z"/><path class="cls-3" d="M198.08,93.13l.35.61-.09.15a5.05,5.05,0,0,1,.11,2c-.19,1.49-.5,3-.75,4.44-.6,2.65-1,5.32-1.71,8-.83,3.14-1.52,6.32-2.35,9.47a83,83,0,0,1-6.16,17.35.53.53,0,0,0,0,.48,21.8,21.8,0,0,1-1.36,2.26,56.63,56.63,0,0,1-4.92,7.28c-.7.79-1.17,1.7-2.15,2.17-.35.18-.84.29-1,.67a.8.8,0,0,0,.88,1.11c-.43.05-1,.33-1.35,0a.85.85,0,0,1-.06-1.24c.58-.68,1.63-1.57,1.41-2.56a11,11,0,0,1,.39-1.82,60.19,60.19,0,0,0,4.16-5.79,59.08,59.08,0,0,0,8.51-17.49,37.74,37.74,0,0,0,1.1-5.58c.19-.93.32-1.86.5-2.79a1.2,1.2,0,0,0-.1-.76c-.39-.13-.64-.07-.74.35a86.28,86.28,0,0,1-3.1,11.6c-.14.3-.21.65-.52.81a9.79,9.79,0,0,1,.51-2.08q.87-3.08,1.63-6.2c.9-3.88,2-7.69,2.93-11.57.63-3,1.38-6,2.19-8.92C196.61,94.26,197.19,93.24,198.08,93.13Z"/><path class="cls-2" d="M188.65,98.25c.31.2.09.74,0,1-.17,1.27-.18,2.58-.43,3.84-.33,2.48-.6,5-1.18,7.41a72.87,72.87,0,0,1-2.49,9.3,71.25,71.25,0,0,1-5.52,12.35c-.66,1.28-1.38,2.53-2.08,3.78a30.69,30.69,0,0,1-1.59,2.74l-.5.2c-.64-.13-1-.57-.71-1.21.81-1.3,1.54-2.62,2.29-3.95a3.21,3.21,0,0,1-1.8.41c-.58-.09-1.24-.42-.94-1.13.43-.5,1.1-.13,1.67-.31a6.62,6.62,0,0,0,2.3-1.81,7.4,7.4,0,0,0,1.44-1.87,71,71,0,0,0,4-9.64,41.17,41.17,0,0,0,1.45-4.53c.43-1.36.68-2.77,1-4.16.76-2.92,1.13-5.93,1.78-8.88.26-1,.19-2,.4-3C187.88,98.38,188.21,98,188.65,98.25Z"/><path class="cls-2" d="M214.91,99.71c.3-.13.62-.2.76.18.23,1.4.2,2.81.29,4.25,0,.32.07.73-.24.94-.4.44-1.06,0-1.05-.52,0-1.28-.14-2.65-.06-3.94A1.73,1.73,0,0,1,214.91,99.71Z"/><path class="cls-2" d="M191.63,102c.68-.27,1,.63,1.18,1.1a4,4,0,0,1,.11,1c-.15,1.32-.34,2.62-.45,3.94a48.9,48.9,0,0,1-1.19,5.17,7.65,7.65,0,0,0-.65,1.82,57.24,57.24,0,0,1-3.17,7.62,62.18,62.18,0,0,1-3.42,6.19c-.48,1-1.25,1.86-1.66,2.93l-.25.21c-.85,1.28-1.65,2.61-2.59,3.82-.25.36-.62.44-.95.7s-.76.77-1.19,1.1c-.22.19-.42.06-.67,0a1.56,1.56,0,0,1-.24-.47c.31-.72,1.28-1.11,1.49-1.87.11-.3.29-.55.39-.85a.71.71,0,0,0,.34-.28c.95-1.41,1.88-2.83,2.76-4.29a86.12,86.12,0,0,0,4.35-7.54c.33-.69.59-1.44,1-2.1a3.7,3.7,0,0,0,.4-.74c.71-1.81,1.48-3.58,2-5.45a36.41,36.41,0,0,0,1.88-6.85c.12-1.32.61-2.61.69-3.93C191.94,102.8,191,102.37,191.63,102Z"/><path class="cls-3" d="M152.78,105.38a8.33,8.33,0,0,1-1.44,2.46c-.43.06-.49-.06-.7-.4.13-.37.56-.63.84-.89A10.17,10.17,0,0,1,152.78,105.38Z"/><path class="cls-1" d="M140.29,109l.05,0,.16.07a22.88,22.88,0,0,1-.64,2.6c-.19.18-.32.42-.59.46a11.43,11.43,0,0,0-.28-1.42l.18.41a.37.37,0,0,0,.39-.19A5.27,5.27,0,0,0,140.29,109Z"/><path class="cls-2" d="M207.56,109.54c.53,0,.52.62.54,1-.06.76-.23,1.5-.26,2.27a43.11,43.11,0,0,1-.85,4.77c-.65,2.19-1.29,4.38-2,6.56-.5,1.24-.86,2.54-1.35,3.78a76,76,0,0,1-3.94,8.24c-1,1.62-1.66,3.34-2.77,4.87-1.23,1.75-2.37,3.56-3.57,5.33a22.1,22.1,0,0,1-2.75,3c-1.5,1.52-3,3.09-4.62,4.45-.42.39-.76,1-1.23,1.33-.41.17-.73.43-1.19.24a.77.77,0,0,1,0-1.34,20.26,20.26,0,0,0,1.5-1.39c1.48-1.16,2.73-2.58,4.11-3.85.79-.83,1.62-1.62,2.37-2.48.87-1,1.5-2.18,2.27-3.31,1-1.54,2.13-3,3-4.65,1.26-2.4,2.49-4.56,3.61-7,0-.34.32-.48.25-.86l.18-.06c.07-.25.22-.45.27-.7a61.23,61.23,0,0,0,3.43-8.87c.44-1.53,1-3,1.38-4.55.21-.9.51-1.78.7-2.68s.37-1.93.57-2.89C207.24,110.38,207,109.57,207.56,109.54Z"/><path class="cls-2" d="M193.42,111a1.2,1.2,0,0,1,.1.76c-.18.93-.31,1.86-.5,2.79a37.74,37.74,0,0,1-1.1,5.58,59.08,59.08,0,0,1-8.51,17.49,60.19,60.19,0,0,1-4.16,5.79,15.31,15.31,0,0,1-1.75,1.95.84.84,0,0,1-1.26,0,.89.89,0,0,1,.2-1,40.11,40.11,0,0,0,2.64-3.15,24.45,24.45,0,0,0,2.4-3.58,1.85,1.85,0,0,0,.39-.43A67.41,67.41,0,0,0,187.81,127a13.65,13.65,0,0,0,.73-1.69c.1-.52.51-1,.51-1.5.32-.16.38-.52.52-.81a86.28,86.28,0,0,0,3.1-11.6C192.78,110.95,193,110.9,193.42,111Z"/><path class="cls-3" d="M200.59,112.28c.22-.15.66-.23.67.14a6.28,6.28,0,0,1-.92,3.73c-.61,1-1.08,2.09-1.63,3.13-.06.18-.33.42-.08.56l-.21.21-.18.19c-.7,1.68-1.48,3.32-2.23,5-1.5,3.6-2.69,7.32-4.14,10.94a7.82,7.82,0,0,0-.44,2.27l.19.13c-.81,1.28-1.57,2.59-2.39,3.87-1.15,1.84-2.49,3.58-3.72,5.38-.9,1.3-1.87,2.54-2.81,3.81-.64.87-1.45,1.6-2.08,2.47a.7.7,0,0,0,.67,1.05c.36,0,.55-.21.78-.44a79.1,79.1,0,0,0,6-7.86c1.82-2.44,3.36-5,5-7.63a1.85,1.85,0,0,1-.11.9,18.57,18.57,0,0,1-.7,2c-1,2-1.46,4-2.79,5.9-.12.27-.54.55-.29.84-1.38,1.27-2.63,2.69-4.11,3.85a20.26,20.26,0,0,1-1.5,1.39.77.77,0,0,0,0,1.34c.46.2.78-.06,1.19-.24a1.34,1.34,0,0,0,.46.32,2.43,2.43,0,0,0-.79.11c0,.31.17.52,0,.82-.44,1.17-1.46,1.48-2.18,2.39-.88,1.05-1.81,2-2.67,3.12a22.27,22.27,0,0,1-1.94,1.77c-1,.9-1.67,2-2.68,2.89-1.21,1.23-2.71,2.08-3.92,3.31s-2.45,2.23-3.64,3.38a84.8,84.8,0,0,1-8.63,6.47c-1,.61-2,1.2-2.91,1.83s-2.07,1-3.05,1.68c0-.43.34-.54.64-.78a71.41,71.41,0,0,0,6-4.73c1.91-1.69,4-3.19,5.93-4.81,1.64-1.37,3.15-2.91,4.73-4.36,1.18-1.14,2.49-2.2,3.58-3.41a7.33,7.33,0,0,1,.42-1.68c.88-1.72,1.84-3.38,2.79-5.06.84-1.46,1.43-3,2.13-4.49a27.7,27.7,0,0,0,1.71-5.18c.07-.34.36-.78.15-1.1.74-.82,1.39-1.71,2.09-2.56.82-1,1.51-2.17,2.31-3.2.18,1.35-.57,2.87-.64,4.22a55.77,55.77,0,0,0,2.48-6.15,22.88,22.88,0,0,0,.72-2.37c1.56-2.63,2.94-5.37,4.29-8.11a45.1,45.1,0,0,0,1.83-4.19c.5-1.52,1-3.07,1.38-4.62a3.61,3.61,0,0,1,.24-.95c1-1.86,1.75-3.78,2.9-5.59A7.13,7.13,0,0,1,200.59,112.28Z"/><path class="cls-3" d="M191.28,113.25a25.65,25.65,0,0,1-.58,2.76c-.62,2.88-1.47,5.7-2.11,8.57-.1.29-.24.4,0,.7a13.65,13.65,0,0,1-.73,1.69,67.41,67.41,0,0,1-5.94,10.18,1.85,1.85,0,0,1-.39.43,17.46,17.46,0,0,1,.91-3c.55-1.58,1-3.18,1.61-4.75.08-.32.24-.59,0-.9a62.18,62.18,0,0,0,3.42-6.19,57.24,57.24,0,0,0,3.17-7.62A7.65,7.65,0,0,1,191.28,113.25Z"/><path class="cls-3" d="M174.72,113.66h.17l.07.17-.09.15h-.14l-.08-.15Z"/><path class="cls-1" d="M179.68,114.41c.2.54-.11,1.18-.18,1.74-.26,1.71-.7,3.41-.86,5.13-1.45,2.86-3,5.67-4.57,8.47-.23.68-1.23.55-1.78.46.07-.34.37-.59.52-.9a46,46,0,0,0,4.36-7.81A43.11,43.11,0,0,0,179.68,114.41Z"/><path class="cls-2" d="M195.44,115c.35,0,.54,0,.66.34.19,1.92-.57,3.43-.7,5.37-.38,1.56-.88,3.1-1.38,4.62a45.1,45.1,0,0,1-1.83,4.19c-1.35,2.74-2.73,5.49-4.29,8.11-.81,1.46-1.77,2.84-2.56,4.31-.81,1-1.49,2.17-2.31,3.2-.7.86-1.36,1.74-2.09,2.56a4.12,4.12,0,0,1-2.09,1.36.8.8,0,0,1-.88-1.11c.18-.38.67-.49,1-.67,1-.47,1.45-1.38,2.15-2.17a56.63,56.63,0,0,0,4.92-7.28,21.8,21.8,0,0,0,1.36-2.26c1.42-2.75,2.92-5.45,4.23-8.26a38.62,38.62,0,0,0,2.11-5.51c.49-1.43.72-2.92,1.26-4.33A11.09,11.09,0,0,0,195.44,115Z"/><path class="cls-3" d="M209.73,117a3.29,3.29,0,0,1-.34,1.79c-1,2.44-2.29,4.77-3.29,7.24-1.26,3.08-2.83,6-4.18,9.06-1.21,2.42-2.36,4.88-3.73,7.22-.62,1-1.28,2-1.87,3.09a4.07,4.07,0,0,0-.55,1.11c-1.49,1.13-2.72,2.51-4.24,3.59-.61.34-1.15.77-1.74,1.13.11-.7.69-1.12.82-1.83a22.1,22.1,0,0,0,2.75-3c1.19-1.77,2.34-3.58,3.57-5.33,1.11-1.53,1.81-3.25,2.77-4.87a76,76,0,0,0,3.94-8.24c.49-1.25.85-2.54,1.35-3.78.71-2.18,1.34-4.37,2-6.56a2.5,2.5,0,0,1,1-1.3A1.3,1.3,0,0,1,209.73,117Z"/><path class="cls-3" d="M182.12,117.35c-.36,1.87-.79,3.72-1.19,5.58s-.89,4.16-2.31,5.6l-.17-.06a4.91,4.91,0,0,1-.4-1.83.55.55,0,0,0-.24-.48c.4-.68.77-1.38,1.15-2.07A63.07,63.07,0,0,0,182.12,117.35Z"/><path class="cls-2" d="M198.64,119.85c.33-.28.71.09.74.43a26.87,26.87,0,0,1-1.08,6.89A51.48,51.48,0,0,1,193,139.22c-1.59,2.58-3.13,5.19-5,7.63a79.1,79.1,0,0,1-6,7.86c-.23.23-.43.45-.78.44a.7.7,0,0,1-.67-1.05c.63-.87,1.44-1.61,2.08-2.47.94-1.27,1.91-2.51,2.81-3.81,1.23-1.79,2.57-3.54,3.72-5.38.83-1.27,1.58-2.59,2.39-3.87a56.23,56.23,0,0,0,4.67-9.89c.67-1.67,1.06-3.42,1.59-5.13a16.12,16.12,0,0,0,.54-3.5Z"/><path class="cls-2" d="M140.86,120.4a4.09,4.09,0,0,1,.78,1.92,6.46,6.46,0,0,1-.76,4.43c-.49.46-1,.87-1.7.65a1.9,1.9,0,0,1-1-1.61,6.88,6.88,0,0,1-.51-2.86,3.9,3.9,0,0,1,1.24-2.75A2.09,2.09,0,0,1,140.86,120.4Z"/><path class="cls-1" d="M198.43,120.06a16.12,16.12,0,0,1-.54,3.5c-.53,1.72-.92,3.46-1.59,5.13a56.23,56.23,0,0,1-4.67,9.89l-.19-.13a7.82,7.82,0,0,1,.44-2.27c1.45-3.63,2.64-7.34,4.14-10.94.75-1.67,1.53-3.3,2.23-5Z"/><path class="cls-2" d="M103,120.71c.7,0,.9.49.92,1.1a1.82,1.82,0,0,1,.6.61,12.67,12.67,0,0,1,0,5.07c-.17.59-.36,1.31-1,1.54a1.12,1.12,0,0,1-1.59-.28c-.72-.82-.56-1.72-.53-2.72.06-1.19.44-2.33.41-3.51C102.06,121.9,102.12,120.72,103,120.71Z"/><path class="cls-3" d="M207.13,129.29a8.9,8.9,0,0,0,1,.33,55.49,55.49,0,0,1-3.42,6.62,39.77,39.77,0,0,1-3.3,4.14,41.44,41.44,0,0,1-4,4.44,18.85,18.85,0,0,1,1.32-2.78c1.18-2.26,2.19-4.63,3.54-6.79,1.13-1.77,2.23-3.55,3.34-5.33A1.52,1.52,0,0,1,207.13,129.29Z"/><path class="cls-2" d="M111.66,130.68a.47.47,0,0,1,.58.3,12.6,12.6,0,0,1-1,1.89,41.11,41.11,0,0,0-1.87,4.32,33.81,33.81,0,0,1-.85,3.28,22,22,0,0,0-.44,2.93,3.9,3.9,0,0,0,2.36,2.41c.61.24,1.1.78,1.71,1a6.72,6.72,0,0,0,2.38.07c1.94-.4,4.19-.38,6-1.19a6.55,6.55,0,0,0,2.2-1.73c.58-.62.69-1.33,1.54-1.71a.73.73,0,0,1,.92.75c-.12,1.37-1.37,2.53-2.37,3.37-2.18,1.7-5.06,1.76-7.68,2.13a7.7,7.7,0,0,1-3.4-.08,5.9,5.9,0,0,1-1.67-.93,17.42,17.42,0,0,1-1.76-1.15,4.67,4.67,0,0,1-1.61-2.92c0-.76.27-1.49.33-2.24.21-1,.61-2,.83-3a22.33,22.33,0,0,1,2.53-6.1C110.75,131.57,111.12,130.89,111.66,130.68Z"/><path class="cls-3" d="M182.38,131.81a25.69,25.69,0,0,1-1.47,3.75c-.67,1.4-1.24,2.86-2,4.22a1.37,1.37,0,0,1-2.33-.14c-.38-.73.08-1.14.24-1.81l-.1-.15c.25,0,.45.16.67,0,.43-.33.79-.76,1.19-1.1s.7-.34.95-.7c.94-1.21,1.75-2.54,2.59-3.82Z"/><path class="cls-3" d="M215.8,135.5a3.84,3.84,0,0,1-.17,2.56,27.64,27.64,0,0,1-1.84,2.92,7.48,7.48,0,0,0-.84,1.31c.57-.3,1.4-1.13,2.06-1a2.54,2.54,0,0,1-.18,1.13,28.42,28.42,0,0,1-1.33,3c-1.57,2.2-3.38,4.21-5,6.32a.79.79,0,0,0-.2.52c-.43-.1-1.2-.14-1.47.29-.11.56.59.41.92.39a1.07,1.07,0,0,1-.09.35l-.11-.19a1.8,1.8,0,0,0-.5.51c-1.17,1.48-2.56,2.82-3.85,4.22-.11.08-.11.19,0,.31a40.74,40.74,0,0,1-9.46,5.31,24.91,24.91,0,0,1-3.56,1.4,27.73,27.73,0,0,1-5.59,1.68l-.07-.2a34.34,34.34,0,0,1,1.2-4.7,2.58,2.58,0,0,1,1.14-.72,18.2,18.2,0,0,0,2.21-1.29,25.43,25.43,0,0,0,3.1-2.06c1-.76,1.82-1.62,2.74-2.44.36-.31.6-.67,1.07-.79a10.78,10.78,0,0,1-1.27,2.45c-.76,1.16-1.39,2.37-2.07,3.57l0,.17.21.07a9.9,9.9,0,0,1-1.82.66c-1.41.44-2.81-.12-4.17-.13a.71.71,0,0,0-.18,1.31,13,13,0,0,0,3.89.3,13.16,13.16,0,0,0,4.23-1.69,22.71,22.71,0,0,0,3.14-2c2-1.42,3.87-3,5.78-4.55a11.78,11.78,0,0,0,3-3,4.9,4.9,0,0,0,1-2.11c0-.68-1-.8-1.38-.38s.1.52.28.79a2.32,2.32,0,0,1-.49.87,13.49,13.49,0,0,1-2.73,2.45c-2.89,2.2-5.7,4.83-8.89,6.6a4,4,0,0,1-1,.43,4.29,4.29,0,0,1,.89-1.17c1-1.14,1.91-2.37,2.94-3.47,1.3-1.4,2.73-2.63,3.93-4.13s2.54-2.83,3.79-4.27c2.29-2.69,4.5-5.45,6.53-8.35a8.9,8.9,0,0,1,2.32-2.64C214.36,135.78,215.25,135.27,215.8,135.5Z"/><path class="cls-1" d="M187.9,137.61a22.88,22.88,0,0,1-.72,2.37,55.77,55.77,0,0,1-2.48,6.15c.07-1.35.82-2.87.64-4.22C186.13,140.45,187.1,139.07,187.9,137.61Z"/><path class="cls-3" d="M203.19,140.72a10.86,10.86,0,0,1-1,2.12c-1,1.79-1.87,3.62-2.84,5.42a9.33,9.33,0,0,0-1,1.92c-1.51,1.23-2.9,2.61-4.35,3.92a36.35,36.35,0,0,1-3.67,3.15c-1.11.77-2.3,1.4-3.43,2.14-.23.14-.73.42-.71-.08.22-1.21.69-2.33,1-3.51.12-.36-.07-.65-.16-1l.42-.48c.31,0,.67.13.94-.07a28.27,28.27,0,0,0,2.56-1.77,15.3,15.3,0,0,0,2.52-2c1.19-1.08,2.41-2.14,3.66-3.16a51.53,51.53,0,0,0,4.09-4.37C201.94,142.21,202.48,141.38,203.19,140.72Z"/><path class="cls-2" d="M207.72,149.39a4.9,4.9,0,0,1-1,2.11,11.78,11.78,0,0,1-3,3c-1.92,1.54-3.77,3.13-5.78,4.55a22.71,22.71,0,0,1-3.14,2,13.16,13.16,0,0,1-4.23,1.69,13,13,0,0,1-3.89-.3.71.71,0,0,1,.18-1.31c1.36,0,2.76.57,4.17.13a9.9,9.9,0,0,0,1.82-.66l.64-.44a4,4,0,0,0,1-.43c3.19-1.76,6-4.39,8.89-6.6a13.49,13.49,0,0,0,2.73-2.45,2.32,2.32,0,0,0,.49-.87c-.18-.26-.51-.43-.28-.79S207.71,148.71,207.72,149.39Z"/><path class="cls-1" d="M190.61,149.41c-.13.7-.71,1.12-.82,1.83a17.91,17.91,0,0,1-2.3,1.64c-.3.19-.32.4-.36.73-.93.31-1.39,1.14-1.91,1.91a1.34,1.34,0,0,1-.46-.32c.47-.36.81-.94,1.23-1.33C187.63,152.5,189.11,150.93,190.61,149.41Z"/><path class="cls-1" d="M207.52,153.1l.11.19a16.86,16.86,0,0,1-4.46,4.83c-.12-.12-.12-.22,0-.31,1.29-1.39,2.68-2.74,3.85-4.22A1.8,1.8,0,0,1,207.52,153.1Z"/><path class="cls-3" d="M212.73,153.88c-1.23,2-2.41,4.07-3.79,6a6.7,6.7,0,0,0-1.2,1.06c-.79.8-1.69,1.48-2.47,2.28-.34.64-.56,1.33-.94,2a.28.28,0,0,0,.09.4c-1.23,1.36-2.51,2.65-3.73,4a34.5,34.5,0,0,1-5.64,4.89,30.34,30.34,0,0,1-4.53,2.49,16.45,16.45,0,0,1-3,1c-1.08,0-2,.66-3.07.94.33-.49.86-.59,1.37-.9a14.68,14.68,0,0,0,1.87-1.1,11.09,11.09,0,0,1-2.86.92,14.68,14.68,0,0,1-2.16-.18c0-.61.11-1.21.19-1.81,1,.67,2.26.5,3.44.62a10.53,10.53,0,0,0,4.36-.62c.3-.16.62-.27.68-.65s-.23-.39-.59-.35c-2.64.48-5-.21-7.55-.3a12,12,0,0,1,.27-1.6c.33,0,.64.25,1,.2a75.18,75.18,0,0,0,7.62-1.75,24.63,24.63,0,0,0,5-1.78A13.32,13.32,0,0,0,201,167a3.47,3.47,0,0,0,1-1.68c.07-.39-.35-.85-.73-.57a2.87,2.87,0,0,1-1.23,1.67,18,18,0,0,1-4.29,2.32,7.42,7.42,0,0,1-2.39.72,3.93,3.93,0,0,1,.71-.73c1.29-1.05,2.65-2,3.92-3.11,1.45-1.24,2.73-2.63,4.14-3.92,1.18-1.09,2.44-2.1,3.62-3.2,1.67-1.54,3.3-3.22,5.07-4.63A1.56,1.56,0,0,1,212.73,153.88Z"/><path class="cls-1" d="M208.94,159.88a65.52,65.52,0,0,1-4.52,5.69.28.28,0,0,1-.09-.4c.38-.63.6-1.31.94-2,.78-.8,1.68-1.48,2.47-2.28A6.7,6.7,0,0,1,208.94,159.88Z"/><path class="cls-2" d="M126.55,160.3c1.32.15,2.6-.17,3.93-.07a29.26,29.26,0,0,1,10.22,1.87,4.28,4.28,0,0,1,1.9,2.19,2.67,2.67,0,0,1-.35,2.27,14.08,14.08,0,0,1-2.14,3,3.54,3.54,0,0,1-1.54,1.39,13.26,13.26,0,0,1-4.48.73c-1,.15-2,.17-3,.27a32,32,0,0,0-5.17.07c-1.37.18-2.72.4-4.1.48-1.84.31-3.69.31-5.52.67-.34,0-.5.38-.8.49a1.53,1.53,0,0,1-1.13-.17c-.42.16-.82.35-1.25.48s-.43-.11-.39-.38.73-.49.79-.84c-.28-.7-1-1-1.2-1.69-.47-1.31-1-2.56-1.47-3.89a16.62,16.62,0,0,1-.38-2.94c.05-.37.78-.2.78-.58a15,15,0,0,0-1.67.56c-.74.27-1.52.32-2.26.59l-.27,0-.1-.29a20.29,20.29,0,0,1,4.83-2.17,41.48,41.48,0,0,1,7.13-1.79c.34-.07.49.29.79.38C122,160.58,124.26,160.47,126.55,160.3Z"/><path class="cls-3" d="M182.22,161.2c-.15.73-.19,1.48-.38,2.2a51.67,51.67,0,0,0-1,7.26c-.07,1.31,0,2.62-.07,3.93a5.72,5.72,0,0,0,.17,1.24,48.91,48.91,0,0,0-.23,5c-.07.37-.57.4-.61.83a7.78,7.78,0,0,0,.4,2.05c.41,1.45.75,2.92,1.19,4.35.12.41.57.53.71,1,.61,1.52,1.61,3.05,2.15,4.55-.21.27-.6.49-.38.88s.74.21,1,.25c1,1.74,2.35,3.2,3.27,5a1.88,1.88,0,0,1,.42,1.37,28.92,28.92,0,0,1-.18,3.12,34.19,34.19,0,0,1,.13-3.55,9.79,9.79,0,0,0-1.61-.73c-.8-.41-1.64-.22-2.37-.73s-1.2-.73-1.81-1.08c-.25-.15-.61-.07-.9-.12a1.7,1.7,0,0,1-.92-1.41,9.42,9.42,0,0,0-3.65-.68c-.15-.3.4-.54.61-.65a9.46,9.46,0,0,1,3.12-.18,8.11,8.11,0,0,0-.87-1.17c-1.33-1.57-1.81-3.91-2.16-5.88a56.72,56.72,0,0,1-1.17-7.81c-.17-2.35-.68-4.64-.82-7-.12-.06-.25,0-.38.12a27.84,27.84,0,0,1-5.11,3.77,56.53,56.53,0,0,0-5.62,3.26c-2.63,1.67-5.3,3.3-8,4.77a5.14,5.14,0,0,1-1.54.7,27.12,27.12,0,0,0-5.07.76c1.16-.66,2.41-1.06,3.53-1.83.8-.56,1.72-.87,2.53-1.41,1.7-1.13,3.46-2.16,5.14-3.33,2.39-1.72,4.72-3.53,7-5.45,1.36-1.33,2.75-2.62,4.1-4,1.06-1,2.31-1.81,3.32-2.88,1.3-1.16,2.12-2.66,3.51-3.72a13.79,13.79,0,0,0,2.32-2.65A.37.37,0,0,1,182.22,161.2Z"/><path class="cls-1" d="M129,162.08c1.47-.1,2.87.13,4.34.18,1,0,1.88.36,2.83.44l0,.23a2,2,0,0,0-.82-.19,1.6,1.6,0,0,1-.26.73,4,4,0,0,1-.43,1.58,8.38,8.38,0,0,0-1.86-.53,30.15,30.15,0,0,0-3.16-.71,30.67,30.67,0,0,1-3.48-.21c-1.94.21-3.87.16-5.81.45a27.51,27.51,0,0,0-7.87,1.79h-.23c0-.62-.34-1.29-.29-1.89,1.71-.3,3.38-.79,5.1-1a65.73,65.73,0,0,1,7-.68C125.73,162,127.37,162.21,129,162.08Z"/><path class="cls-3" d="M197.22,163.61a2.45,2.45,0,0,1-.48.6,44,44,0,0,1-5.31,4.41c-.07.46.12.93,0,1.41-1.49.48-3,.81-4.55,1.14a24.91,24.91,0,0,0-3.15.7,8.14,8.14,0,0,1,.19-1.66,11.44,11.44,0,0,1,.32-2,69.92,69.92,0,0,0,11.18-3.92A10.78,10.78,0,0,1,197.22,163.61Z"/><path class="cls-1" d="M176.27,173.18c.14,2.35.65,4.64.82,7a56.72,56.72,0,0,0,1.17,7.81c.35,2,.83,4.32,2.16,5.88a8.11,8.11,0,0,1,.87,1.17,9.46,9.46,0,0,0-3.12.18c-.21.11-.76.35-.61.65a9.42,9.42,0,0,1,3.65.68,1.7,1.7,0,0,0,.92,1.41c.28,0,.65,0,.9.12.61.35,1.22.7,1.81,1.08s1.58.32,2.37.73a9.79,9.79,0,0,1,1.61.73,34.19,34.19,0,0,0-.13,3.55,3.82,3.82,0,0,1-.17,1.62c-.83,1.69-1.85,3.28-2.64,5a37.88,37.88,0,0,1-2.54,4.28,29.45,29.45,0,0,1-2.67,3.95c-1,1.21-1.89,2.5-2.82,3.76a73.33,73.33,0,0,1-6.33,6.51,36.15,36.15,0,0,1-5.4,4.31,12.64,12.64,0,0,1-2.17,1.14c-1.14.62-2.13,1.52-3.28,2.09-1.45.59-2.83,1.31-4.27,1.91-1.76.62-3.51,1.33-5.31,1.82a27.85,27.85,0,0,1-3.69.08,37.58,37.58,0,0,1-5.68-1.71c-1.31-.51-2.71-.58-4-1.08a46.1,46.1,0,0,1-5.44-4.73,16,16,0,0,1-2.22-2.33c-2-2.77-4.48-5.43-6.34-8.31-.62-1-1.31-1.87-1.94-2.83a41,41,0,0,1-4.44-8.53c-.57-2.1-1.57-4-2.08-6.13-.22-1-.6-2-.88-2.93a9.86,9.86,0,0,1,.84-1.82,3.14,3.14,0,0,0,1.23-1.66,30.12,30.12,0,0,0,1.49-7.19c1,.27,2.06.14,3.07.41,1.17.16,2.31,0,3.48.06,1.81.14,3.57-.06,5.37,0,.83,0,1.64-.25,2.48-.23a27.29,27.29,0,0,0,3.07-.2,31,31,0,0,0,5.2-1.1,4.86,4.86,0,0,0,.56-.51c.91-.2,1.75-.58,2.64-.84,1.18-.41,2.43-.68,3.58-1.17s2.09-.77,3.12-1.2a27.12,27.12,0,0,1,5.07-.76,5.14,5.14,0,0,0,1.54-.7c2.74-1.48,5.41-3.11,8-4.77a56.53,56.53,0,0,1,5.62-3.26,27.84,27.84,0,0,0,5.11-3.77C176,173.16,176.15,173.12,176.27,173.18Z"/><path class="cls-2" d="M127.79,175.49a1.38,1.38,0,0,1,1.51.74c0,.41-.44.78-.78.91-1.65.22-3.32.41-5,.72a20.72,20.72,0,0,0-2.77.67c-.46.17-1.09.49-1.57.28a1,1,0,0,1,.06-1,3.57,3.57,0,0,1,1.59-1A31.17,31.17,0,0,1,127.79,175.49Z"/><path class="cls-1" d="M187.65,176.92a14.68,14.68,0,0,1-1.87,1.1c-.51.32-1,.42-1.37.9a13.74,13.74,0,0,1-1.8.38c0-.55,0-1.09,0-1.64a14.68,14.68,0,0,0,2.16.18A11.09,11.09,0,0,0,187.65,176.92Z"/><path class="cls-3" d="M185.84,192.61c.47.38,1,.32,1.27.84-.23.23-.48.07-.76,0A4.36,4.36,0,0,1,185.84,192.61Z"/><path class="cls-1" d="M115.29,193.69a10.19,10.19,0,0,0-.43,1.18c-.54,1.2-.71,2.49-1.37,3.65l-.16,0a19.9,19.9,0,0,1-.8-4.09c.75-.21,1.48-.43,2.21-.7A.72.72,0,0,1,115.29,193.69Z"/><path class="cls-1" d="M109.12,195.35a.53.53,0,0,1-.18.18c-1.09.76-2.17,1.82-3.3,2.46-.08-.37-.19-.74-.25-1.12C106.58,196.26,107.9,195.91,109.12,195.35Z"/><path class="cls-1" d="M110.57,195.71a.86.86,0,0,1,.15.6,25.4,25.4,0,0,0-4.07,3.62c-.16.14-.3.4-.52.45-.1-.49-.2-1-.35-1.44a16.73,16.73,0,0,1,1.76-1.2A24.38,24.38,0,0,1,110.57,195.71Z"/><path class="cls-1" d="M189.44,196.11a3.4,3.4,0,0,1,.71.19l-.11.49C189.79,196.76,189.65,196.29,189.44,196.11Z"/><path class="cls-1" d="M190.89,197a.79.79,0,0,1,.53.15c1.19.64,2.06,1.68,3.26,2.31a12.69,12.69,0,0,1,1.54,1l-.23.08a10.28,10.28,0,0,0-1.86-.74c-.77-.62-1.44-1.34-2.25-1.92C191.49,197.58,191.07,197.47,190.89,197Z"/><path class="cls-1" d="M110.91,197.43l0,0c.12.68.4,1.31.54,2a11.37,11.37,0,0,0-4.49,4.43l-.2.07a25.91,25.91,0,0,0-.41-2.66C108,200,109.28,198.55,110.91,197.43Z"/><path class="cls-1" d="M193.53,197.77c1.58.61,3.15,1.32,4.69,2.05a2,2,0,0,1-.32,1.1c-.25.17-.32-.18-.47-.31C196.38,199.38,194.64,198.81,193.53,197.77Z"/><path class="cls-3" d="M191,198.38A4.72,4.72,0,0,1,192.5,200a6.43,6.43,0,0,1,2.38,3.4c-.36,0-1-.6-1.26-.28-.36-.58-.73-1.15-1.05-1.76-.5-.64-1.14-1-1.17-1.94C191.37,199,190.93,198.86,191,198.38Z"/><path class="cls-3" d="M194.12,199.81a10.28,10.28,0,0,1,1.86.74l.23-.08a7,7,0,0,1,1.14,1.42,4.18,4.18,0,0,1-.87,2A12.65,12.65,0,0,0,194.12,199.81Z"/><path class="cls-1" d="M111.71,200.56l.18,0a19.79,19.79,0,0,1,.48,2,5.41,5.41,0,0,0-1.37,1,13.39,13.39,0,0,0-3.18,4.08l-.18.05c-.18-.8-.41-1.61-.52-2.43a18.46,18.46,0,0,0,1.45-1.66A14.91,14.91,0,0,1,111.71,200.56Z"/><path class="cls-3" d="M199.2,201.85c0,.36.32.39.57.54,3,1.46,5.84,3.25,8.83,4.77a50.59,50.59,0,0,1,5.82,3.72c1.5,1,3.07,1.87,4.55,2.89,1.18.81,2.24,1.74,3.37,2.61a59.11,59.11,0,0,1,4.47,4,4.81,4.81,0,0,1,1.41,2.12c.12.29.17.75-.25.78a3.8,3.8,0,0,1-2.8-.84c-1.5-1.2-2.93-2.45-4.51-3.56-1.21-.86-2.32-1.82-3.55-2.64s-2.46-1.53-3.69-2.31c-1.44-.9-2.76-1.93-4.2-2.83-1.62-1-3.37-1.83-5-2.8-2-1.1-3.87-2.23-5.89-3.21a.6.6,0,0,0-.7,0c.25-.48.85-1,.82-1.58A2.34,2.34,0,0,1,199.2,201.85Z"/><path class="cls-1" d="M194.89,203.36c.34.49.45,1,1,1.26v.13a13.09,13.09,0,0,1-1,1.57,8.67,8.67,0,0,0-1.27-3.24C193.88,202.76,194.53,203.37,194.89,203.36Z"/><path class="cls-1" d="M192.34,203.35a13.57,13.57,0,0,1,1.2,2.84c.16.55.06,1.12.21,1.67-.24.47-.53.92-.77,1.38.18-1.31-.33-2.49-.39-3.87A9.55,9.55,0,0,0,192.34,203.35Z"/><path class="cls-1" d="M112.77,203.61h.06a16.64,16.64,0,0,1,.65,2.52,9.45,9.45,0,0,0-3,3.18,22.81,22.81,0,0,0-1.56,2.18c-.29-1-.74-2-.95-3a3.78,3.78,0,0,0,1.08-1A19.16,19.16,0,0,1,112.77,203.61Z"/><path class="cls-1" d="M191.33,204.43l.16,0a13.35,13.35,0,0,0,.25,3.44c.23,1.15-.24,2.17-.15,3.31,0,.28-.32.53-.48.76.28-1.35-.6-2.59-.31-3.86a6.86,6.86,0,0,0,0-2.48C191,205.18,191.17,204.82,191.33,204.43Z"/><path class="cls-1" d="M113.94,207.45a11.18,11.18,0,0,1,.69,2.31,1.56,1.56,0,0,0-.81.23,9.22,9.22,0,0,0-2,2.6c-.51.84-1.33,1.44-1.61,2.36l-.1,0c-.27-.89-.63-1.74-.92-2.62a22.49,22.49,0,0,1,1.55-1.69c.94-1,1.63-2.31,2.7-3.09A.52.52,0,0,1,113.94,207.45Z"/><path class="cls-1" d="M189.7,207.46a6.42,6.42,0,0,0,.07,2.87,3.52,3.52,0,0,1-.27,2.59,1.29,1.29,0,0,0,.22,1.32c-.49.53-.85,1.29-1.29,1.8a7.74,7.74,0,0,0,.15-3.65,11.17,11.17,0,0,1-.15-3c.26-.25.56-.37.7-.72S189.38,207.73,189.7,207.46Z"/><path class="cls-1" d="M114.95,210.61c.32.9.87,1.73,1.11,2.66-.29.07-.55,0-.75.27-.93,1.09-1.68,2.33-2.49,3.51a5.85,5.85,0,0,0-1,2.75.48.48,0,0,1-.2-.26c-.29-.86-.54-1.73-.81-2.59a3.61,3.61,0,0,1,.45-1.26c.44-1,1.27-1.48,1.8-2.34a16.82,16.82,0,0,1,1.34-2A3.49,3.49,0,0,0,114.95,210.61Z"/><path class="cls-1" d="M187.22,211.57a10.56,10.56,0,0,1,.23,2.47c0,.64-.29,1.22-.31,1.86a12.79,12.79,0,0,0,.07,2,.91.91,0,0,1-.48.61,7.16,7.16,0,0,0,.16-3.46,5.89,5.89,0,0,1-.35-2.26A12.77,12.77,0,0,1,187.22,211.57Z"/><path class="cls-1" d="M116.6,214.28a10.38,10.38,0,0,0,.59,1.25,2.48,2.48,0,0,1-.48.66c-.51.6-.92,1.28-1.42,1.88a18.78,18.78,0,0,0-2.63,4l-.15,0a7.57,7.57,0,0,1-.56-1.57c.49-.24.57-.73.89-1.2a17,17,0,0,1,1.86-2.7c.48-.63.9-1.3,1.37-1.93C116.21,214.58,116.36,214.18,116.6,214.28Z"/><path class="cls-1" d="M185.53,214.52a6.21,6.21,0,0,1,.24,2,9.9,9.9,0,0,0-.22,2.8c0,.24.28.43.46.58a10.79,10.79,0,0,1-1.55,2.19,15.82,15.82,0,0,1,.19-2.88A5.44,5.44,0,0,0,184,217C184.49,216.14,185,215.31,185.53,214.52Z"/><path class="cls-1" d="M117.89,217a3,3,0,0,1,.55,1,29.15,29.15,0,0,0-2.52,3.6,21.19,21.19,0,0,0-2.19,3.59l-.18,0c-.16-.48-.33-1-.5-1.44a1.71,1.71,0,0,1,.41-.7,15.6,15.6,0,0,0,1.13-1.77c.87-1.39,2-2.53,2.95-3.86Z"/><path class="cls-1" d="M183.17,218.29l.08,0c.27,1.35-.31,2.51-.1,3.85.09.54.09,1.09.2,1.63-.44.62-.87,1.26-1.34,1.85a15.87,15.87,0,0,1,.13-3.07,3.91,3.91,0,0,0-.32-2.47C182.31,219.48,182.72,218.88,183.17,218.29Z"/><path class="cls-1" d="M119.13,219.22l.15,0c.25.4.55.79.76,1.21-.69.27-1,.85-1.35,1.43-.74,1.37-1.27,2.81-2,4.17a18.92,18.92,0,0,0-1.39,3.39l-.17,0c-.29-1-.67-1.9-1-2.84.91-1.21,1.59-2.57,2.51-3.78S118.16,220.33,119.13,219.22Z"/><path class="cls-1" d="M181,221.1c.18,1.07-.29,2-.2,3.07.06.57,0,1.36.44,1.81a1.2,1.2,0,0,0,.56,0c-.65.89-1.1,1.92-1.75,2.81a9.61,9.61,0,0,0-.81,1.15c.49-1.09.18-2.1.09-3.24-.15-1,0-2-.26-2.92C179.74,222.85,180.35,221.94,181,221.1Z"/><path class="cls-1" d="M120.64,221.55a.24.24,0,0,1,.32.13c.43.64.89,1.26,1.33,1.89l0,.18a32.23,32.23,0,0,0-1.86,2.76,37.27,37.27,0,0,0-2.52,4.5,14.27,14.27,0,0,0-1.17,2.62,14.42,14.42,0,0,1-.87-2.22c.27-1,.77-2,1.12-2.93a30.45,30.45,0,0,1,1.61-3.18A21.57,21.57,0,0,1,120.64,221.55Z"/><path class="cls-1" d="M123.08,225l.17-.05a4.28,4.28,0,0,1,.62.85,6.88,6.88,0,0,0-1.33,3.07q-.61,1.3-1.3,2.56a24.64,24.64,0,0,0-1.21,2.74c-.48,1.19-1,2.32-1.44,3.54-.13,0-.2,0-.21-.15-.29-.81-.79-1.63-1-2.46a28.94,28.94,0,0,1,1.86-3.81A48.29,48.29,0,0,1,123.08,225Z"/><path class="cls-1" d="M178.12,225c-.14,1.52.31,3.06.14,4.61-.17.63-.27.79.14,1.34-.37.55-.76,1.07-1.14,1.61a12.38,12.38,0,0,0-.14-3.66,9,9,0,0,0-.29-2.5c.07-.31.42-.51.61-.75S177.82,225.11,178.12,225Z"/><path class="cls-1" d="M124.63,226.73c.55.68,1.07,1.37,1.65,2-1,1.36-1.52,3.11-2.38,4.56a71.25,71.25,0,0,0-3.14,7.4c-.15.19-.28.87-.47.92-.35-.72-.7-1.44-1.07-2.15a50,50,0,0,1,2.31-5.62c.51-1.31,1.29-2.45,1.89-3.71.29-.6.58-1.17.92-1.74.17-.35.47-.75.12-1.1C124.21,227.18,124.41,226.58,124.63,226.73Z"/><path class="cls-1" d="M175.89,227.28c-.1,1.46.2,2.86.18,4.32-.08.93-.18,1.87-.27,2.8a5.68,5.68,0,0,1-1.31,1.52c-.19-1.29,0-2.62-.1-3.91a15.55,15.55,0,0,0-.73-2.65C174.39,228.66,175.14,228,175.89,227.28Z"/><path class="cls-1" d="M127.23,230h.14c.7.81,1.32,1.68,2,2.46.54.57,1.15,1.07,1.7,1.63a2.44,2.44,0,0,1-.54.91,10.29,10.29,0,0,0-1.26,2c-.67,1.79-1.5,3.52-2.16,5.31-.62,1.43-1,2.92-1.71,4.33a25.44,25.44,0,0,0-.9,2.43,13.05,13.05,0,0,1-.87-1.38c-.13-.32-.51-.67-.49-1,.62-1.33,1.29-2.65,1.79-4,.78-1.56,1.27-3.25,2-4.82.69-1.28,1.41-2.55,2.17-3.79.24-.39.87-.89.43-1.35a.66.66,0,0,0-1.07-.13,22.87,22.87,0,0,0-2.36,4,37.07,37.07,0,0,0-1.82,4.41c-.29.66-.6,1.31-.84,2s-.73,1.56-1,2.4l-.22,0c-.36-.75-.79-1.47-1.21-2.19a5.85,5.85,0,0,1,.53-1.2c.58-1.08.85-2.27,1.37-3.38C124.31,235.69,125.71,232.81,127.23,230Z"/><path class="cls-1" d="M173,230.18c.13.75.27,1.5.35,2.25a26.15,26.15,0,0,0,.06,4.1c0,.23.24.39.23.62-.29.33-.58.66-.85,1-.16.16-.29.49-.54.47a19.46,19.46,0,0,1-.1-3.51,25,25,0,0,0-.69-3.55c.29-.36.67-.65,1-1C172.59,230.45,172.75,230.19,173,230.18Z"/><path class="cls-1" d="M170.53,232.45a13.06,13.06,0,0,1,.33,1.43c.33,1.45,0,2.87.2,4.34.11.65-.09,1.21.27,1.79-.37.46-.76.91-1.11,1.39l-.16.06c-.11-1.56,0-3.14-.21-4.69-.22-1.09-.63-2.15-.9-3.23C169.44,233.25,170,232.54,170.53,232.45Z"/><path class="cls-1" d="M168.23,234.1a24.46,24.46,0,0,0,.5,2.65c.19,1.16,0,2.36.11,3.54a9.84,9.84,0,0,1-.14,2.69c0,.53-.59.94-.88,1.37-.15.16-.29.49-.54.48,0-.92.18-1.77.23-2.68,0-.62-.11-1.24-.16-1.86a16.93,16.93,0,0,0-.3-3.52,12.15,12.15,0,0,0-.77-1.4C166.93,235,167.56,234.49,168.23,234.1Z"/><path class="cls-1" d="M132.33,235.45c.3.44.68.85.94,1.31a11.9,11.9,0,0,0-.86,1.91c-.44,1.13-1.06,2.14-1.58,3.24-.63,1.28-1.08,2.63-1.67,3.93-.89,2.11-1.57,4.28-2.51,6.38l-.15-.07c-.35-.59-.78-1.12-1.12-1.72.52-1.61,1.2-3.11,1.86-4.66,1-2.63,2-5.24,3.16-7.79A8.75,8.75,0,0,1,132.33,235.45Z"/><path class="cls-1" d="M165.31,236.19a4.23,4.23,0,0,1,.35,2.23c-.11,1.35.4,2.59.34,3.93,0,.83-.13,1.65-.22,2.48a10.12,10.12,0,0,1,.06,1.85c-.4.47-.78,1-1.2,1.42a16.87,16.87,0,0,1,0-2.85c.13-1.59-.42-2.95-.46-4.55a11.57,11.57,0,0,0-.81-3,6.4,6.4,0,0,0,1.36-.78l-.2-.37C164.76,236.48,165.09,236.09,165.31,236.19Z"/><path class="cls-1" d="M134.25,237.65l.15,0a8.93,8.93,0,0,1,1.22.84,16.68,16.68,0,0,0-1.13,2.69c-1,3.26-2.77,6.43-3.56,9.71a50.19,50.19,0,0,0-1.46,5.26,23.59,23.59,0,0,1-2.22-2.89,7.14,7.14,0,0,1,.8-1.73c.92-2,1.56-4,2.46-6a39.59,39.59,0,0,1,1.74-3.84C133,240.34,133.56,239,134.25,237.65Z"/><path class="cls-1" d="M162.57,238.12a11.72,11.72,0,0,1,.52,2.79c0,1.52.53,2.84.39,4.34a17.52,17.52,0,0,0,0,4.12c-.66.72-1.28,1.55-1.93,2.24a23,23,0,0,0-.15-5.84,18.86,18.86,0,0,0-.53-3.61,14.23,14.23,0,0,0-.81-2.93l0-.21A15.69,15.69,0,0,1,162.57,238.12Z"/><path class="cls-1" d="M136.85,239.39l.05,0,.09,0a5.1,5.1,0,0,0-.85,2.38,22.05,22.05,0,0,1-.76,2.68c-.54,1.88-.95,3.8-1.45,5.69a38.65,38.65,0,0,0-1.67,9,23,23,0,0,1-2-2.07c.41-1.58.9-3.15,1.44-4.7.36-1,.54-2,.91-3,1-2.76,2.33-5.42,3.24-8.23A11.12,11.12,0,0,1,136.85,239.39Z"/><path class="cls-1" d="M159.29,239.36l0,0c.29.87.29,1.83.52,2.72a19.39,19.39,0,0,1,.52,3.55,20.14,20.14,0,0,1,.11,5.67c-.11.65-.28,1,.15,1.54-.56.61-1.08,1.26-1.64,1.87-.23.16-.33.6-.64.54a2.27,2.27,0,0,0,0-1.15c-.15-.52.1-1.11.07-1.65-.18-2.29-.59-4.53-.73-6.82-.13-1.81-1.1-3.3-1.32-5.11Q157.82,240,159.29,239.36Z"/><path class="cls-1" d="M138.37,240.14c.88.5,1.84.71,2.75,1.13-.05.69-.36,1.39-.45,2.09-.31,1.83-1.31,3.29-1.77,5.09-.68,2.07-1.16,4.19-1.8,6.28-.38,1.65-.75,3.3-1,5a15.28,15.28,0,0,0-.4,2.62,18.25,18.25,0,0,1-2.18-2c-.4-.32-.28-1-.23-1.49a61.14,61.14,0,0,1,1.62-7.54c.58-1.64.9-3.37,1.39-5.06.29-1.61,1-3,1.36-4.58A4.22,4.22,0,0,1,138.37,240.14Z"/><path class="cls-1" d="M155.37,241A9.78,9.78,0,0,0,156,244a23.48,23.48,0,0,1,.57,4.54c.1,1.35.37,2.7.33,4.1a14.52,14.52,0,0,0-.28,2.71,3,3,0,0,1,.45.56,7.39,7.39,0,0,0-.28,1.07c-.28.47-.79.76-1.12,1.2A9,9,0,0,1,154,260c-.05-1.53.39-3,.13-4.59a13.85,13.85,0,0,1,.07-3.31c.1-1.5-.49-2.86-.45-4.33a21,21,0,0,0-.31-3.31,20.21,20.21,0,0,1-.54-2.55C153.7,241.56,154.53,241.22,155.37,241Z"/><path class="cls-1" d="M142.67,241.87l.29,0,.06.26c-.32.8-.21,1.7-.47,2.53-.49,1.64-.76,3.33-1.27,5a38.5,38.5,0,0,0-1.17,5.57c-.26,1.91-.55,3.88-.78,5.78a13.2,13.2,0,0,0,.13,3.85,8.88,8.88,0,0,1-1.42-.9,15.46,15.46,0,0,1-1.5-1.06,19.6,19.6,0,0,1,.6-2.3,54.89,54.89,0,0,1,1.69-7.06c.5-1.88,1.08-3.73,1.7-5.58a29.12,29.12,0,0,0,1.32-3.27A14.08,14.08,0,0,1,142.67,241.87Z"/><path class="cls-1" d="M144.6,242.42c.25-.12.61,0,.88.06a11.48,11.48,0,0,0-.57,3,14.6,14.6,0,0,1-.41,3.43c-.22,1.27-.43,2.53-.67,3.81s-.19,2.56-.39,3.83c-.1,2.44-.58,5.07-.45,7.55a2.19,2.19,0,0,1-.21,1,1.11,1.11,0,0,1,.12.83,10.85,10.85,0,0,1-2.67-.68,41.39,41.39,0,0,1,.59-6.11c.29-2.06.52-4.15.93-6.2.32-1.4.69-2.78,1.11-4.16s.62-2.62,1-3.91A8.54,8.54,0,0,1,144.6,242.42Z"/><path class="cls-1" d="M151.79,242.27a31.24,31.24,0,0,1,.55,3.56c.2,1.18,0,2.36.21,3.54.13.61.18,1.24.29,1.85a13.3,13.3,0,0,1-.14,2.08c-.19,1.32.18,2.6,0,3.92s-.35,2.89-.48,4.35a8.51,8.51,0,0,1-1.81,1.37c-.64.31-1.21.75-1.86,1a20.7,20.7,0,0,1,.39-3c.2-1.61.34-3.25.55-4.86.1-1.41,0-2.82.17-4.23a8.71,8.71,0,0,0,0-2.18,14.53,14.53,0,0,1,0-3c.15-1.26-.45-2.68-.45-3.88C150.07,242.68,151,242.36,151.79,242.27Z"/><path class="cls-1" d="M147,242.91c.38,0,.77,0,1.15-.05a12.71,12.71,0,0,0,.11,2c.32,1.48-.11,2.83,0,4.32a16.13,16.13,0,0,1-.06,3.72c-.06.82,0,1.65-.05,2.48-.09,1.26-.36,2.5-.46,3.76a56.59,56.59,0,0,1-.81,5.65,13,13,0,0,0-2,.65,4.83,4.83,0,0,1-1.33.37c-.27-.74.54-.81.44-1.55-.1-1.26.25-2.46.26-3.73.19-1.43.35-2.86.42-4.31.23-1.31.16-2.64.45-4s.43-2.47.74-3.69.27-2.74.62-4.06A9.07,9.07,0,0,0,147,242.91Z"/></svg>