<svg id="Layer_1" data-name="Layer 1" xmlns="http://www.w3.org/2000/svg" viewBox="0 0 300 300"><defs><style>.cls-1{fill:#fff;}.cls-2{fill:#010101;}.cls-3{fill:#808388;}</style></defs><title>PrequelMemes-DiscoveryImage</title><path class="cls-1" d="M40.59,33.42H259.41V266.58H40.59Z"/><path class="cls-2" d="M148.9,33.65a40.08,40.08,0,0,1,7.72,0,35.48,35.48,0,0,1,4.63.43c2.86.21,5.78.38,8.6.86,1.46.26,3,.21,4.41.51a29.77,29.77,0,0,1,4.39.86c1.23.3,2.46.39,3.66.78s2.73.73,4.06,1.25c2.85,1.11,5.66,2.33,8.44,3.61a23.65,23.65,0,0,1,6.58,4.26c.57.53,1.3.91,1.82,1.49.39.41.45.95.79,1.41.88,1.24,1.87,2.4,2.77,3.63s1.7,2.37,2.71,3.47a30.56,30.56,0,0,1,2.94,4.34c.32.47.85.77,1.21,1.22a13.65,13.65,0,0,1,1.19,2.33c.34.67.84,1.19,1.25,1.84.57.88.82,1.91,1.37,2.81a15.65,15.65,0,0,1,1.47,2.71c1.09,2.89,2.68,5.65,3.6,8.6.43,1.3,1.16,2.43,1.54,3.75a54.54,54.54,0,0,0,1.82,6.29,29.58,29.58,0,0,1,1,4.85c.47,2.87,1.29,5.59,1.65,8.49.21,1.5.33,3,.56,4.49a60.09,60.09,0,0,1,.54,8.64,86.57,86.57,0,0,1-.94,11.23c-.21.89-.4,1.77-.54,2.67A28.76,28.76,0,0,1,227,134a1.91,1.91,0,0,1-1.46,1.4,37,37,0,0,0-1.88,3.63,13.24,13.24,0,0,1-2.08,2.57c-.49.49-.75,1.07-1.49,1.18a12.27,12.27,0,0,1-1.38,3,20.74,20.74,0,0,0-1.8,3.07,9.06,9.06,0,0,1-2.07,2.77c-1.23,1.34-2.44,2.7-3.69,4a57.91,57.91,0,0,1-4.79,4.05,23,23,0,0,1-4,2.37,20.9,20.9,0,0,0-2.42,1.15c-.5.32-.91.12-1.43,0-1.15,2.37-2.1,4.82-3.33,7.15a25.52,25.52,0,0,1-1.71,3.13c-1.56,2.25-3.06,4.54-4.55,6.84a20.67,20.67,0,0,1,3,1c2.51,1.09,5,2.19,7.48,3.37,3.69,1.71,7.37,3.43,10.93,5.4,4.48,2.22,8.45,5.26,12.6,7.88,4.44,2.77,8.67,5.85,12.84,9,2.36,2,4.8,3.84,7.07,5.94,1,1,2,1.95,3,2.94,1.56,1.55,2.8,3.37,4.31,4.95a39.64,39.64,0,0,1,2.62,3.11c.92,1.09,1.68,2.29,2.58,3.4a24.27,24.27,0,0,1,2.29,3.64c.38.85,1.18,1.41,1.6,2.19a1.13,1.13,0,0,1-1.7,1.2,10.06,10.06,0,0,1-2.25-3.25,73.92,73.92,0,0,0-6.19-8.37c-1.52-1.45-2.69-3.17-4.12-4.7-1-1.21-2.18-2.23-3.28-3.34-2.3-2.21-4.88-4.15-7.28-6.17-3.2-2.41-6.43-4.78-9.76-7-1.69-1.11-3.41-2.16-5.08-3.29-2.69-1.81-5.36-3.68-8.18-5.28-2.75-1.45-5.46-3-8.27-4.29a36.58,36.58,0,0,0-3.46-1.59l-.12.45c-.59,1.88-.71,3.89-1.38,5.73-1.07,3.55-2.31,7-3.45,10.57-.64,2-1.43,3.85-2.14,5.77a6.48,6.48,0,0,0-.15,1,2.64,2.64,0,0,0-.63,1c-1,2.47-2,4.92-3.21,7.3-1.28,2.78-2.72,5.49-4.16,8.2-2.06,3.75-4.56,7.19-6.91,10.76-1.15,1.58-2.32,3.14-3.43,4.74-1.93,2.54-3.9,5-6,7.41a113.08,113.08,0,0,1-10,10.51c-1.26,1.11-2.53,2.17-3.83,3.23a24.76,24.76,0,0,0-3.24,2.48,5.8,5.8,0,0,1-1.89.22,27.34,27.34,0,0,1-3.75-.37,7.38,7.38,0,0,1-2.76-.72,18.63,18.63,0,0,1-3.32-1.55c-.4-.29-.39-.74-.67-1.1-1.66-1.86-3.38-3.67-5-5.55A40.62,40.62,0,0,1,131,253.4c-1.14-2.06-2.73-3.94-4-5.9-.63-.92-1.3-1.82-1.86-2.77-.9-1.6-1.91-3.12-2.76-4.75-1.56-2.8-3.32-5.5-5-8.24-.72-1.22-1.2-2.56-1.89-3.8a24.89,24.89,0,0,1-1.53-3.3c-.63-1.57-1.54-3-2.15-4.58s-1.41-3.29-2-5c-.56-1.87-1.54-3.67-2.27-5.5-.51-1.31-1.16-2.55-1.67-3.85a24.15,24.15,0,0,0-1.26-3.13,23.59,23.59,0,0,1-1.73-3.61c-.68-2-1.72-3.5-1.93-5.63a14.55,14.55,0,0,0-.71-3.42c-.36-1.44-.79-2.85-1.09-4.3,0-.56.35-.73.71-1.06-1.53,1-3.09,2-4.67,2.92A28.89,28.89,0,0,1,91,190a16.07,16.07,0,0,0-2.51,1.7A30.74,30.74,0,0,0,85,193.83a18.63,18.63,0,0,1-2.65,2c-2.39,1.46-4.43,3.41-6.78,4.89-1.36.83-2.52,1.91-3.87,2.74-2.38,1.59-4.55,3.43-6.94,5A10.66,10.66,0,0,0,63,209.79a8.61,8.61,0,0,1-1.87,1.29l-.66-.08c-1.39.87-2.64,1.92-4,2.82-1.54,1-2.69,2.22-4.16,3.34-1.19.94-2.22,2-3.31,3.09s-2.25,2.16-3.37,3.25c-.69.63-1.41,1.24-2.06,1.91s-1.45,1.18-2.16,1.81c-.3.17-.5-.14-.71-.3a6.71,6.71,0,0,1,1.88-2.51c.59-.67,1.25-1.24,1.89-1.86,1.14-1.15,2.19-2.37,3.38-3.46s2.17-2.24,3.37-3.25a43.88,43.88,0,0,1,4.23-3.48c1.48-1,2.86-2.16,4.38-3.13,2-1.29,3.86-2.84,5.93-4,1.37-.88,2.72-1.81,4-2.81.7-.57,1.53-1,2.24-1.53a48,48,0,0,1,4.63-3.08c1.66-1.24,3.23-2.54,5-3.62a22.34,22.34,0,0,0,2.6-2c1.15-.94,2.53-1.38,3.69-2.29A10.62,10.62,0,0,1,90,188.46a22.27,22.27,0,0,0,3.48-2c1.45-1,3-1.78,4.46-2.8s3.22-1.82,4.84-2.69a20.12,20.12,0,0,1,2.24-1c1.78-.47,3.45-1.23,5.21-1.76.16-.32-.1-.45-.28-.67a10.63,10.63,0,0,1-1.71-3.17c-.48-1.18-1.16-2.25-1.62-3.44a54,54,0,0,1-2.23-7.29,2.58,2.58,0,0,0-1.83-.61c-.79,0-1.57-.83-2.23-1.22-1.89-1.31-2.66-3.09-3.89-4.93a8.24,8.24,0,0,1-1.15-3.05c-.28-1.81-1-3.42-.72-5.29-.12-.61-.47-1.15-.61-1.76-.26-1.13-.47-2.26-.65-3.4a23.77,23.77,0,0,0-1.08-2.35c-.93-2.12-1.92-4.2-2.74-6.36-.74-1.69-1.2-3.46-1.81-5.2-.91-2.78-2.13-5.48-3.07-8.26-.64-1.91-1.1-3.87-1.82-5.76A56.81,56.81,0,0,1,81,105.1c-.51-3.43.13-7.18.64-10.59.28-2.14,1-4.27,1.48-6.39a27.8,27.8,0,0,1,1.47-4.75c.75-1.52,1-3.2,1.65-4.76a70.85,70.85,0,0,1,4.18-9.27c.65-1.24,1.36-2.45,2.1-3.64a5.29,5.29,0,0,1,1.68-1.43c.36-.45.63-1,1-1.45.92-1.35,2.07-2.47,3.09-3.75,1.25-1.56,2.84-2.72,4.17-4.21s2.88-2.55,4.21-4a32,32,0,0,1,3.23-3C111,47,112.13,46,113.3,45a41.29,41.29,0,0,1,5.38-3.45,59.67,59.67,0,0,1,8.6-4.43,13.57,13.57,0,0,0,3-.5c1.61-.28,3.12-.88,4.74-1.1,2-.29,3.91-1,6-1.14.75-.12,1.48.07,2.21-.12A52.69,52.69,0,0,1,148.9,33.65Z"/><path class="cls-1" d="M155.73,35.46c1.19.09,2.34-.09,3.53.1,3,.47,6,.44,9,.91,1,.15,1.91.42,2.89.53a45.68,45.68,0,0,1,7.72,1.44,50,50,0,0,1,6.62,1.85c3,1.16,5.91,2.57,8.86,3.87a17.42,17.42,0,0,1,3.11,1.78c1.35.84,2.41,2,3.7,2.91.56.37.88.87,1.61.83.73,1.11,1.48,2.18,2.28,3.24,1,1.44,2.06,2.94,3.22,4.28A34.93,34.93,0,0,1,211,61.32c1,1.43,1.57,3.07,2.46,4.56,1.46,2.46,2.07,5.07,3.21,7.66A67.47,67.47,0,0,1,219,81.95c.5,2.19.91,4.4,1.28,6.62a71.59,71.59,0,0,1,1.46,8.6c.23,1.25.48,2.49.66,3.75a27.83,27.83,0,0,1,0,5.07,41.79,41.79,0,0,1-.41,4.88c-.54,2.92-1,5.85-1.35,8.8a42.51,42.51,0,0,1-1.06,6c-.86,3.39-2.28,6.87-2.93,10.33a15.44,15.44,0,0,1-1.13,2.35c-.68-.32-1.22-.63-1.85,0a11.46,11.46,0,0,1-1.8,2.84c.45-1.05.75-2.15,1.23-3.18a19.58,19.58,0,0,0,1.29-3.32c.44-1.76,1.24-3.36,1.55-5.16.22-1.26.68-2.44,1-3.67a56.83,56.83,0,0,0,1.29-9c0-1.92.4-3.6-.1-5.52-.16-.49-.17-1.16-.83-1.18-.46.34-.05.52,0,1a38.2,38.2,0,0,1-.41,5.19,54.17,54.17,0,0,1-1.31,8.93c-.27,1.2-.74,2.34-1,3.53-.17.78-.38,1.55-.57,2.33a2.79,2.79,0,0,1,0-1.46,68.53,68.53,0,0,0,1.14-8.15c.15-2.29.53-4.54.57-6.84,0-2.75.24-5.57.11-8.38-.19-2.52-.18-5-.47-7.52a36.76,36.76,0,0,0-1.15-5.94A33.09,33.09,0,0,0,213.09,89a1.79,1.79,0,0,0-.69-.85.91.91,0,0,0-1,.26c-.19.38.23.83.29,1.23.19,1.09.07,2.2.31,3.29a71.71,71.71,0,0,1,1,10.1c-.31-2.09-.47-4.22-.88-6.31a41.62,41.62,0,0,0-1.36-4.54,7.69,7.69,0,0,0-1.59-2.8,1.38,1.38,0,0,0-1.37-.42c-.51.16-.78.58-1.12,1-.34-.68-.45-1.15-1.23-1.41-.45-2-1-4-1.52-6a29,29,0,0,0-1.78-4.58c-.24-.49-.57-1.07-1.17-1.15-.37,0-.86.28-.81.7s.54.29.81.34a26.6,26.6,0,0,1,2.11,6.66c-.38-.62-.44-1.33-1.28-1.45-.44-1.76-.54-3.85-1.86-5.21a5.91,5.91,0,0,0,0,1.92l-.26-.08c-.33-.92-.42-2-1.42-2.4-.37.08-.48.25-.33.51a4.21,4.21,0,0,1,.68,1.21c.3,1.15.58,2.3.92,3.43a62.19,62.19,0,0,1,2.09,10.8c.55,3,.54,6,.88,9a28.35,28.35,0,0,0,.24,3.77c0,1,.05,2,.05,3.07,0,.34-.06.81.15,1.09,0,1.42.23,2.79.2,4.21.1,2.13.2,4.27.32,6.4,0,2.41,0,4.83,0,7.24-.11-3,.11-6-.14-9,0-2.06-.25-4.12-.31-6.18a15.07,15.07,0,0,1-.27-2.44,1.72,1.72,0,0,1-.21-.87,74.34,74.34,0,0,0-1.46-8.93c-.41-2-1-4-1.48-6.06s-1.11-4.14-1.73-6.2c-.4-1.33-.64-2.67-1.09-4s-1-2.44-1.44-3.69A41,41,0,0,0,193,74.44c-.53-1-1.17-1.92-1.75-2.89a20.29,20.29,0,0,0-1.9-3,.85.85,0,0,0-1.36.1c-.07.52.23.58.65.59.88,1.44,1.34,3.11,2.25,4.55,1.85,3.1,2.34,6.44,3.77,9.69A19.35,19.35,0,0,1,196,88.34a84.81,84.81,0,0,1,1.34,15.44c0,2.24-.17,4.5-.34,6.74l-.61.22c0-1,.11-2,.13-3,.07-2.4-.15-4.87-.28-7.28s-.6-4.7-.85-7.06a93.32,93.32,0,0,0-3.31-13.79,31.88,31.88,0,0,0-3.19-6.75,13.28,13.28,0,0,0-4.26-4.57c-.4,0-.55,0-.75.39,0,.33.25.55.43.8a27.55,27.55,0,0,1,3.32,5.56c-.91.13-.78.86-.76,1.58l.54-.1a59.68,59.68,0,0,1,1.89,6.94,87.75,87.75,0,0,1,1.79,8.59c.39,2,.58,4,.79,6,.39,2.56.52,5.14.66,7.72a83,83,0,0,1,.09,8.61,49.09,49.09,0,0,1-1.18,8.16c-.47,1.47-1,2.95-1.53,4.39-.2.59-.65.88-1,1.33a51,51,0,0,0,.93-7c.36-3.13.37-6.31.44-9.45a2.83,2.83,0,0,0,.83-1.8A99.3,99.3,0,0,0,191,99.15a30.48,30.48,0,0,0-.43-5.72c-.38-2.23-.58-4.46-1.08-6.65a32.89,32.89,0,0,0-1.95-6.63,14.93,14.93,0,0,0-3-5,2.71,2.71,0,0,0-1.19-.6c-.3-1.15-.71-2.26-1-3.41a1.66,1.66,0,0,0-.53-1,.57.57,0,0,0-.94.3,7.82,7.82,0,0,1,.36,1.31,35.29,35.29,0,0,0,.65,6.74c.57,2.61,1.38,5.18,1.82,7.83.53,2.86.69,5.76,1.2,8.62.33,2.18.8,4.32,1.18,6.49a14.49,14.49,0,0,0,1.31,3.51,4.81,4.81,0,0,0,.92,1.33,23.72,23.72,0,0,0,.12,3.88,28.06,28.06,0,0,1,0,3.31c-.06,1.91-.08,3.83-.25,5.74-.38-.43-.42-1.14-.64-1.66-.71-1.86-1.33-3.76-2-5.64-.73-2.29-1.14-4.7-1.69-7-.34-1.35-.41-2.74-.7-4.1-.68-3.53-1.47-7-2.17-10.57-.32-2.08-.24-4.18-.57-6.26a35.41,35.41,0,0,1-.51-4.88c0-1.73-.12-3.45-.14-5.19a.67.67,0,0,0-1.07-.49c-.36.24-.3.89-.3,1.26.09,1.54.12,3.09.1,4.63a37.81,37.81,0,0,0,.81,6.16c.35,2.73.67,5.46,1.11,8.17.45,2.89,1.14,5.73,1.6,8.63a68.12,68.12,0,0,0,1.32,6.71c.25,1.29.65,2.53,1,3.8-1.07-1.41-2-2.91-3.08-4.32a43.89,43.89,0,0,1-5.93-14.27,26.84,26.84,0,0,1-.51-2.93l.16-.44a55.21,55.21,0,0,0,2.69,9,4.36,4.36,0,0,0,2.31,2.64,4.19,4.19,0,0,0-.21-3.11c-1.33-3.47-1.89-7-2.93-10.58a97.91,97.91,0,0,1-2.31-13.36,81,81,0,0,1-1.31-9.15c0-.32.3-.76.05-1-.75-.29-1.48.59-1.56,1.27-.29,3,.29,6.07.61,9a12,12,0,0,1,.19,2.93,9.66,9.66,0,0,0-.82-3.06c-.29-.53-.58-1.15-1.22-1.32-.56.26-.41.51-.18,1,.81,1.42.73,3.11,1.13,4.66.41,1.71.61,3.46,1,5.18a43.36,43.36,0,0,1,.56,4.3,33.21,33.21,0,0,1,.4,5.72c-.18,2.22,0,4.43-.13,6.64-.31,3.3-.09,6.28-.83,9.48-.27,1.37-.89,2.61-1.19,4a7.63,7.63,0,0,1-1.52,3.41,1.67,1.67,0,0,1-1.48.7,7.37,7.37,0,0,0-.43-1.44c.28-1,.47-2,.83-2.92a15.8,15.8,0,0,0,.84-3.5c.17-1.18.44-2.34.56-3.53a25.84,25.84,0,0,0,.07-3.31c0-1.42,0-2.8-.1-4.21a33.59,33.59,0,0,1-.3-5.62,8.56,8.56,0,0,0,0-4.62c0-.22-.18-.32-.47-.3-.14-1.34-.22-2.67-.45-4a44,44,0,0,1-1.31-8.61c-.24-.54-.07-1.19-.26-1.77-.41-1.28-.44-2.63-.8-3.94-.5-1.82-.81-3.66-1.44-5.44a9,9,0,0,0-1-2.49l-.09.29a16.12,16.12,0,0,0,.47,3.86c.35,2,.8,4.08,1.12,6.13H165a8,8,0,0,0,.28,2.27c-.75,3.52-.62,7-1.2,10.58a11.71,11.71,0,0,0-.19,1.54c-.2-1.92-.1-3.81-.39-5.73-.19-1.33-.33-2.67-.53-4-.3-1.69-.68-3.37-1.1-5-.21-.53-.42-1.43-1.09-1.51a.85.85,0,0,0-.09.72,32.39,32.39,0,0,1,.5,3.41c.36,2.05.53,4.12.75,6.19s.18,4.25.39,6.38,0,4,.08,6a41.47,41.47,0,0,1-.07,4.19c-.2,2.42-.36,4.86-.63,7.28a41.39,41.39,0,0,1-.95,4.75c-.21,1.28-.29,2.57-.55,3.84-.59-1.78-.72-3.7-1.43-5.47-.18-2-.79-3.77-.73-5.76,0-1.56-.21-3.08-.3-4.64-.12-1.09,0-2.19-.15-3.28-.14-.73.35-1.5.51-2.23.69-2.51,1-5.15,1.41-7.72a12.48,12.48,0,0,1,.45-2.15c1-1.3.92-2.7,1-4.25,0-.92-.34-1.74-.24-2.67.15-1.31.39-2.5-.34-3.71a4,4,0,0,0-.83,1.75c-.3,1.54-.43,3.09-.63,4.63-.36,2.88-.89,5.74-1.3,8.61a44.87,44.87,0,0,1-1.14,6.14c-.16-.13-.33-.26-.51-.39-.14.36-.27.73-.4,1.09-.36.11-.64.15-.79.54a53.47,53.47,0,0,1-3.72,8.85c-1.48,2.53-2.68,5.21-4,7.8.14-1.24.28-2.49.47-3.72a7.44,7.44,0,0,0,.89-1.46c.53-1.29,1.18-2.53,1.71-3.83.63-1.91,1.3-3.8,2-5.66a30.21,30.21,0,0,0,1.39-3.21c.15-.59,0-1.24.21-1.84.33-1,.69-2,1.07-3A36.59,36.59,0,0,0,156.27,83a24.56,24.56,0,0,0,.49-4.61,3.28,3.28,0,0,0-.61-1.58,1,1,0,0,0-.58.53c-.59.86-.44,2.13-.66,3.15a25.85,25.85,0,0,1-.62,3.23,14.58,14.58,0,0,1,0-2c.5-3.31,1-7,.36-10.28a5.08,5.08,0,0,0-1.82-3c-.2-.06-.37,0-.51.27.13.3.32.58.42.9a45.46,45.46,0,0,1-.31,8.69q-.68,5.25-1.55,10.48a17,17,0,0,0,0,6.39c-.69,1.84-1.34,3.7-2.06,5.53a5.59,5.59,0,0,0-.58,2.2,4.18,4.18,0,0,1-.57,2c.47-5.59.33-11.18.37-16.71a62.25,62.25,0,0,0,.7-6.43,11.66,11.66,0,0,0-1.05-4.13l-.4.13q-.08-.32-.15-.66a9.75,9.75,0,0,0-1.44-3.9c-.19-.38-.91-.36-.77.16a23.11,23.11,0,0,1,.84,3.75c.08,1.33.21,2.64.4,4-.29,3.7-1,7.35-1.26,11-.43,4.6.13,9-.51,13.67-.38,2.31-1,4.57-1.31,6.88-.29-1.5-.75-2.95-.95-4.47-.23-1.31-.27-2.63-.41-3.95-.19-1.85,0-3.73-.1-5.6-.13-2.84,0-5.68,0-8.52-.05-1.93.23-3.82.29-5.74.06-1.47,0-2.93.11-4.4a14.86,14.86,0,0,0,.06-1.88.71.71,0,0,0-1.31,0,38,38,0,0,0-.47,6.77,52.88,52.88,0,0,0-.26,6.84c0,2.4-.16,4.73,0,7.13a6.29,6.29,0,0,1-.28-1.51,53.05,53.05,0,0,1-.34-9.26c.13-3.69.59-7.48.49-11.14a10.26,10.26,0,0,0-1.08-3.24c-.39-.06-.52.41-.69.68a12.43,12.43,0,0,0-.87,2.56c-.23,3.75-.55,7.5-.72,11.25-.36,6.34.91,12.39,2.08,18.56.13.55.08,1.51.58,1.87s.92,0,1.31-.41c.15,1.75.83,3.39,1,5.12a27.08,27.08,0,0,1-5.1-10c-.54-1.93-.74-3.87-1.1-5.84a43.54,43.54,0,0,1-.5-5.08,50.67,50.67,0,0,1-.4-5.72,6.07,6.07,0,0,0,.45-2.58l-.61-.16c.39-1.65,1.28-2.94.75-4.66-.2-.27-.43.08-.6.19.16-.83.18-1.67.37-2.49,0-.37.23-.65-.08-1l-.16-.22a3.94,3.94,0,0,0,.26-1.5c-.06-.52-.11-1.12-.73-1.25a2.69,2.69,0,0,0-1.62,1,45.57,45.57,0,0,0-2.57,6c-.88,2.47-1.54,5-2.5,7.48a30.47,30.47,0,0,0-1.94,6.64,36.94,36.94,0,0,1-.84,4.27,16.09,16.09,0,0,1,.11-4.69c.5-2.36,1-4.71,1.55-7.06.5-2.64.8-5.31,1.35-7.94.08-.58.31-1.39-.07-1.89-.5-.26-.84.08-1,.56-.35,1.81-1,3.56-1.24,5.4-.08-.34-.16-.68-.24-1l-.26.11a10.32,10.32,0,0,0-.92,2.55c-.41,2.39-.72,4.79-1,7.2a2.88,2.88,0,0,0-1.15,1A4.28,4.28,0,0,0,121,94a22.78,22.78,0,0,0-1.12,4.74c-.29,2.06-.2,4.13-.54,6.18a.65.65,0,0,0,1.19.47,14.6,14.6,0,0,0,.55-2.78,26.48,26.48,0,0,1,.88-3.9A43,43,0,0,0,121,108a64.38,64.38,0,0,0,.59,9,38.34,38.34,0,0,1-1.8-6.47A59.1,59.1,0,0,1,118.68,100c0-1.84.1-3.68.09-5.51a12.43,12.43,0,0,1,.86-3.73c.51-1.46.78-3,1.28-4.43.2-.62.14-1.26.27-1.88a13.84,13.84,0,0,0,.92-3,12.8,12.8,0,0,0,0-3.52c-.53.14-.86.75-1.17,1.18a14,14,0,0,0-1.67,3.21c-.75,2-1.67,3.83-2.24,5.86-.91,3.1-1.59,6.25-2.64,9.31.17-2.86.77-5.69,1.07-8.54.4-2.64.62-5.3,1-7.94a7.12,7.12,0,0,0,0-3.49c-.2-.44-.39-.43-.78-.19a3.54,3.54,0,0,0-1.45,2,35.94,35.94,0,0,0-.65,4c-.27,2.84-.7,5.66-1.07,8.5a50.74,50.74,0,0,0-.71,9.26c0,3,.33,6,.42,9a18.8,18.8,0,0,0,.71,5.76c.18.44.41.6.89.45,0,.86.35,1.56,0,2.38-.1.35-.37.15-.55,0A4.21,4.21,0,0,1,112,116.9c-.12-1,0-2-.2-3a82.61,82.61,0,0,1-1.1-10.37c-.06-1.19.15-2.34.15-3.53s.16-2.64.26-4a4.59,4.59,0,0,0,0-2,5.56,5.56,0,0,1,.17-2.23c.38-2.93,1.19-5.72,1.78-8.61.09-.33-.21-.81-.58-.74-.7.22-.69,1.17-1,1.74-.32.41-.69.67-.81,1.21-.3,1.31-.52,2.64-.84,4s-.43,2.73-.68,4.11c-.39,2.14-.49,4.33-.68,6.5,0,6.65,0,13.22.41,19.86a8.35,8.35,0,0,1,.12,1.72c-.23-.86-.42-1.74-.62-2.61s-.68-1.58-.86-2.42a17.44,17.44,0,0,0-.46-2.09,48.72,48.72,0,0,1-1.18-6.06c-.24-1-.07-2.07-.22-3.11-.28-1.54-.27-3.09-.53-4.63-.06-1.11-.09-2.21-.22-3.31,0-2.28-.1-4.56,0-6.84-.06-1.86.38-3.66.4-5.51s1-3.42.13-5.26a2.79,2.79,0,0,0-1.12,1.93,28.73,28.73,0,0,0-.51,3.76c0,1.26-.28,2.49-.28,3.75,0,2.14-.14,4.26,0,6.4.09.71-.32,1.28-.3,2a24.76,24.76,0,0,0,.19,4.83c.21,1.18.24,2.36.53,3.53s.36,2.66.65,4a35.56,35.56,0,0,0,.84,4.44,11.51,11.51,0,0,1,.54,2.19c.16,1.11.8,2,1,3.07a38.67,38.67,0,0,0,1,3.87,2.54,2.54,0,0,1-.74,2.55.62.62,0,0,1-.89,0,9.72,9.72,0,0,1-2.46-3.08,42.61,42.61,0,0,1-4-8.38,52.86,52.86,0,0,1-1.67-7.5c-.22-2-.34-4-.55-6-.12-2.35-.14-4.7-.11-7.06-.08-1.86.26-3.66.31-5.52.23-1.39.48-2.78.6-4.19s.82-2.91,1.1-4.41c.08-.38-.07-.88-.53-.87s-.61.52-.81,1A20,20,0,0,0,97,85.25c-.06,1.36-.54,2.62-.54,4a26.53,26.53,0,0,1-.17,3c-.34.28-.65.49-.7,1-.09,1,.1,2.06.08,3.09,0,1.54.23,3.08.32,4.63a69.74,69.74,0,0,0,2.82,14.78,32.64,32.64,0,0,0,4.78,8.89,12,12,0,0,0,1.56,1.61c-.17.55-.12,1.16-.31,1.69-.61.51-1.61,0-2.16-.42-2.48-2-3.95-5.33-5.31-8.14a43.35,43.35,0,0,1-1.49-4.71,26.07,26.07,0,0,1-.78-3.09c-.54-1.83-.92-3.71-1.32-5.57a5.36,5.36,0,0,1-.43-2.4c-.09-2,.25-4,.28-6a47,47,0,0,1,.81-5.07c-.35-1.24,0-2.37.1-3.64.45-2.16.82-4.32,1.12-6.51a2,2,0,0,0-.35-1.06c-1.19.38-1.27,1.55-1.46,2.6-.17,2-.81,3.94-.92,6-.06,1.19-.36,2.35-.49,3.53-.16,1.35-.59,2.63-.83,4-.2,1.11-.17,2.23-.35,3.33a36.53,36.53,0,0,0,0,5.27,71.53,71.53,0,0,0,1,9,44.67,44.67,0,0,0,2,7.75,34.06,34.06,0,0,0,2,4.71A46.72,46.72,0,0,0,99.56,133c.29.39.65.73.9,1.14.05,1.84,0,3.67.09,5.5-.79-.94-1.63-1.84-2.37-2.82-1.15-1.45-1.94-3-3-4.54A25.59,25.59,0,0,1,93.75,130c-.69-1.28-1.2-2.64-1.85-3.95a17.43,17.43,0,0,1-.73-1.62,68.61,68.61,0,0,1-2.2-6.8,46.13,46.13,0,0,1-1-4.85c-.21-1.18-.23-2.33-.35-3.53-.16-1.4,0-2.78-.07-4.19-.05-1.11.3-2.22.17-3.3a11.59,11.59,0,0,1,.13-3.52,30.75,30.75,0,0,1,.59-4.65c.34-1.2.24-2.42.49-3.61A31,31,0,0,0,90,85.7a35.31,35.31,0,0,1,1.29-4.63c.19-.5-.27-1-.71-.56-.33.82-.57,1.68-.86,2.52a21.07,21.07,0,0,0-.84,2.89c-.27,1.91-1.12,3.81-1.15,5.74,0,1.37-.63,2.59-.65,4-.05,1.93-.51,3.81-.46,5.74-.07,1.12-.46,2.17-.49,3.31a27.28,27.28,0,0,1-.13,3.21l-.38.32a25.55,25.55,0,0,0,.13,5.51c0,1.56.4,3.08.59,4.63.12,1.14.6,2.18.76,3.3-.82-2.19-1.31-4.46-2.09-6.64a41.47,41.47,0,0,1-1.52-10.78,23.67,23.67,0,0,1,.1-4.86c.28-2.14.57-4.29,1-6.4.61-2.24,1.12-4.5,1.74-6.74.36-1.42,1.15-2.65,1.5-4.07a32.31,32.31,0,0,1,2.81-6.88c.77-1.32,1.39-2.7,2.11-4.05a31,31,0,0,1,3.16-5.48,27.24,27.24,0,0,1,2.4-3.11c1-1,1.83-2.14,2.83-3.13s2.19-1.92,3.18-3c1.14-1.24,2.5-2.2,3.68-3.38a37,37,0,0,1,3.8-3.47c1.68-1.27,3.09-2.62,4.84-3.73,1.54-1,3.25-1.75,4.84-2.69a50.53,50.53,0,0,1,5.38-2.79,15.11,15.11,0,0,1,2.25-.94c1.46-.34,2.93-.68,4.36-1.14,1.6-.52,3.27-.79,4.88-1.27A46.57,46.57,0,0,1,143.6,36a52.16,52.16,0,0,1,6.19-.62A26.07,26.07,0,0,1,155.73,35.46Z"/><path class="cls-2" d="M161.93,47.82c.52-.1.73.58,1,.91a22.39,22.39,0,0,1,2,3.55c.28.46.35,1.28-.16,1.6a1.27,1.27,0,0,1-1.19-.72c-.78-1.36-1.23-2.86-1.93-4.27C161.46,48.49,161.36,47.91,161.93,47.82Z"/><path class="cls-2" d="M176.09,48.36c.83,1.11,2,1.79,2.82,2.92a4.64,4.64,0,0,1,1.25,3.28,4.65,4.65,0,0,1-1.28-.82A9,9,0,0,1,177.56,52c-.62-.94-1.49-1.61-2-2.61-.17-.38-.7-.74-.67-1.15C175.19,47.56,175.77,48,176.09,48.36Z"/><path class="cls-2" d="M187.73,49.5a2,2,0,0,1,.82.74A32.76,32.76,0,0,1,191,54.83c.18.43.09,1.3-.43,1.48a1.35,1.35,0,0,1-1.35-.81c-.57-1.14-1.05-2.31-1.61-3.45-.36-.7-.41-1.39-1.1-1.86A.83.83,0,0,1,187.73,49.5Z"/><path class="cls-2" d="M148.67,51.64l.51.2a8.81,8.81,0,0,1,.9,2.42,2,2,0,0,1-.5,2.09c-.41-.34-1-.76-1-1.32-.19-.88-.41-1.76-.56-2.65C148,51.92,148.31,51.81,148.67,51.64Z"/><path class="cls-2" d="M137.26,54.79a10.47,10.47,0,0,1,0,4.2,1.3,1.3,0,0,1-.67,1c-.53.09-.77-.37-.86-.81,0-.8.15-1.61.19-2.41a19.28,19.28,0,0,1,.11-2.26C136.41,54,137,54.22,137.26,54.79Z"/><path class="cls-2" d="M126.86,56.74c.23.31.47.55.26,1a50.43,50.43,0,0,1-2.38,4.71c-.23.39-.33.84-.58,1.21s-.81.23-.81-.2a8.15,8.15,0,0,1,1.19-3.56c.48-.94.87-1.94,1.42-2.84C126.19,56.7,126.5,56.72,126.86,56.74Z"/><path class="cls-2" d="M117.35,58.09a5.45,5.45,0,0,1-.84,2.48c-.81,1.32-1.66,2.62-2.46,4A3.31,3.31,0,0,1,112.94,66c-.28-.19-.63-.37-.44-.77a25.92,25.92,0,0,1,2.69-5.05A4.53,4.53,0,0,1,117.35,58.09Z"/><path class="cls-2" d="M109.86,58.54a5.56,5.56,0,0,1-.68,2c-1,1.55-1.62,3.26-2.74,4.75-.76,1-1.2,2.28-2.1,3.09-.58-.27-.3-.73-.2-1.21a11.42,11.42,0,0,1,1.26-2.66c1-1.53,1.64-3.33,2.73-4.79A3.7,3.7,0,0,1,109.86,58.54Z"/><path class="cls-2" d="M202.68,60.35a25.51,25.51,0,0,1,1.22,3.07.65.65,0,0,1-1.2.44c-.26-.6-.38-1.25-.6-1.87a4.27,4.27,0,0,1-.45-1.65A.55.55,0,0,1,202.68,60.35Z"/><path class="cls-2" d="M102.89,60.87a.72.72,0,0,1,1.05.79c-.77,2.14-2.33,4.14-3.34,6.19a32.86,32.86,0,0,1-1.88,3.63c-.41.61-.63,1.55-1.43,1.73a.78.78,0,0,1-.83-1,18.46,18.46,0,0,1,1.34-2.76c.58-1.13,1-2.31,1.67-3.42.71-1.26,1.5-2.48,2.23-3.73A4.78,4.78,0,0,1,102.89,60.87Z"/><path class="cls-3" d="M173.31,65.26c.25.26,0,.71-.05,1a81,81,0,0,0,1.31,9.15,97.91,97.91,0,0,0,2.31,13.36c1,3.55,1.6,7.11,2.93,10.58a4.19,4.19,0,0,1,.21,3.11,4.36,4.36,0,0,1-2.31-2.64,55.21,55.21,0,0,1-2.69-9l-.16.44c-.06-.23-.1-.46-.14-.7a36.76,36.76,0,0,0-.77-6.06c-.32-1.43-.56-2.91-.94-4.33a15.87,15.87,0,0,1-.45-1.67,12,12,0,0,0-.19-2.93c-.32-3-.9-6.06-.61-9C171.83,65.84,172.56,65,173.31,65.26Z"/><path class="cls-3" d="M184.61,68.31a13.28,13.28,0,0,1,4.26,4.57,31.88,31.88,0,0,1,3.19,6.75,93.32,93.32,0,0,1,3.31,13.79c.25,2.36.66,4.7.85,7.06s.35,4.87.28,7.28c0,1-.12,2-.13,3l.61-.22c-.06.61-.09,1.24-.18,1.85-.08-.39-.11-.69-.47-.92-.21,1,.1,1.9-.63,2.72-.36.55-.8.37-1.36.36.08-1.45.06-2.91.09-4.36,0-2.74-.28-5.43-.41-8.16-.18-2.51-.57-5-.81-7.5A89,89,0,0,0,190.85,83,38.66,38.66,0,0,0,189,77.12a4.75,4.75,0,0,0-1.37-2.06,27.55,27.55,0,0,0-3.32-5.56c-.18-.25-.47-.47-.43-.8C184.05,68.31,184.21,68.31,184.61,68.31Z"/><path class="cls-3" d="M152.87,68.44a5.08,5.08,0,0,1,1.82,3c.61,3.32.14,7-.36,10.28l-.21-.17c0,1.15-.11,2.3-.11,3.45a9.93,9.93,0,0,1-.78,3c-.88,2.33-1.57,4.72-2.28,7.1a17,17,0,0,1,0-6.39q.86-5.22,1.55-10.48a45.46,45.46,0,0,0,.31-8.69c-.1-.31-.29-.59-.42-.9C152.5,68.48,152.67,68.39,152.87,68.44Z"/><path class="cls-3" d="M181.82,70.19a1.66,1.66,0,0,1,.53,1c.31,1.14.72,2.26,1,3.41a2.71,2.71,0,0,1,1.19.6,14.93,14.93,0,0,1,3,5,32.89,32.89,0,0,1,1.95,6.63c.5,2.19.69,4.43,1.08,6.65a30.48,30.48,0,0,1,.43,5.72,99.3,99.3,0,0,1,.06,10.81,2.83,2.83,0,0,1-.83,1.8c0-1.48-.06-3,0-4.44a34.56,34.56,0,0,0-.36-5.27,36.92,36.92,0,0,0-.36-4.1c-.81-4-1.41-8.28-2.57-12.23-.43-1.5-.72-3-1.22-4.44-.34-1-.81-2-1.16-3.07a15.37,15.37,0,0,0-2.35-4.89c-.22-.2-.59-.71-.88-.38.38,1.78,1.22,3.43,1.66,5.14s1.15,3,1.54,4.63.71,3,1.11,4.54c.83,3.61,1.39,7.27,2.16,10.89.28,1.4.24,2.79.39,4.2.09,1.22.3,2.46.29,3.68l-.18.27a4.81,4.81,0,0,1-.92-1.33,14.49,14.49,0,0,1-1.31-3.51c-.38-2.17-.86-4.31-1.18-6.49-.51-2.86-.67-5.76-1.2-8.62-.44-2.65-1.25-5.22-1.82-7.83a35.29,35.29,0,0,1-.65-6.74,7.82,7.82,0,0,0-.36-1.31A.57.57,0,0,1,181.82,70.19Z"/><path class="cls-3" d="M134.12,73c.62.13.67.73.73,1.25a3.94,3.94,0,0,1-.26,1.5l.16.22c-.42-.06-.55,0-.75.36a12.44,12.44,0,0,0-.72,3.17,5.78,5.78,0,0,0-.77,1.79c-.58,1.65-1,3.34-1.61,5a63.39,63.39,0,0,0-2.35,6.95c-.46,2.08-.75,4.31-1.34,6.38a52.87,52.87,0,0,0-1.26,5.75,1.82,1.82,0,0,1-.33,1,8.86,8.86,0,0,1-.42-2c-.27-2-.42-4-.55-6a36.94,36.94,0,0,0,.84-4.27,30.47,30.47,0,0,1,1.94-6.64c1-2.43,1.62-5,2.5-7.48a45.57,45.57,0,0,1,2.57-6A2.69,2.69,0,0,1,134.12,73Z"/><path class="cls-3" d="M138.87,73.63a10.26,10.26,0,0,1,1.08,3.24c.1,3.66-.36,7.45-.49,11.14a53.05,53.05,0,0,0,.34,9.26,6.29,6.29,0,0,0,.28,1.51,20.91,20.91,0,0,1,0,2.35,43.32,43.32,0,0,0,.48,7c-.38.39-.73.76-1.31.41s-.46-1.32-.58-1.87c-1.17-6.17-2.45-12.22-2.08-18.56.16-3.75.48-7.5.72-11.25a12.43,12.43,0,0,1,.87-2.56C138.35,74,138.48,73.57,138.87,73.63Z"/><path class="cls-3" d="M165.25,76c.12.67.19,1.32.37,2a11.11,11.11,0,0,1,.59,2.43c.09,2.71.36,5.39.2,8.11a7.88,7.88,0,0,0-.31,1.6c-.41,2.84-.57,5.74-.71,8.6a38,38,0,0,1-.54,6.62,32,32,0,0,1-1.54,5.54c-.4,1-.64,2-1.12,2.89a13.25,13.25,0,0,1,.49-4.12,65,65,0,0,0,1.22-10.27c.23-2.16.06-4.44.09-6.62a37.35,37.35,0,0,0-.13-4.63,11.71,11.71,0,0,1,.19-1.54C164.62,83,164.5,79.52,165.25,76Z"/><path class="cls-3" d="M160.71,76.41c-.1.93.26,1.75.24,2.67-.07,1.55,0,3-1,4.25C160.12,81,160.59,78.73,160.71,76.41Z"/><path class="cls-3" d="M201,76.77c.6.08.92.66,1.17,1.15a29,29,0,0,1,1.78,4.58c.51,2,1.07,4,1.52,6,.79.26.89.73,1.23,1.41.35-.38.61-.81,1.12-1a1.38,1.38,0,0,1,1.37.42,7.69,7.69,0,0,1,1.59,2.8,41.62,41.62,0,0,1,1.36,4.54c.42,2.08.57,4.22.88,6.31A71.71,71.71,0,0,0,212,93c-.24-1.09-.12-2.2-.31-3.29-.06-.4-.48-.85-.29-1.23a.91.91,0,0,1,1-.26,1.79,1.79,0,0,1,.69.85,33.09,33.09,0,0,1,1.08,3.74,36.76,36.76,0,0,1,1.15,5.94c.29,2.51.28,5,.47,7.52.13,2.81-.08,5.63-.11,8.38,0,2.3-.42,4.55-.57,6.84a68.53,68.53,0,0,1-1.14,8.15,2.79,2.79,0,0,0,0,1.46c-.32.89-.66,1.76-.92,2.67a6.19,6.19,0,0,1-.66.66c-.27.2-.73.11-1,.12-.56,1.44-1,2.93-1.52,4.38-.32.91-.77,1.73-1,2.67a23,23,0,0,1-1.61,4.4c-.17.41-.43.73-.34,1.2-1,1.18-1.63,2.6-2.68,3.74-.45.58-1,1.1-1.46,1.63a5,5,0,0,1-1.71,2c.51-2.59,2.11-4.5,2.64-7a37.39,37.39,0,0,1,1.42-4.09c.26-.77.47-1.55.76-2.32a22.27,22.27,0,0,0,1.21-3.5,27.23,27.23,0,0,1,.81-2.88c.45-1.38.56-2.83,1.08-4.2,1-3.38,1.33-7.16,2.08-10.59a30.59,30.59,0,0,0,.53-4.85,8.33,8.33,0,0,0-.58-3.25,1.49,1.49,0,0,0,.14-.5,70.7,70.7,0,0,0-.26-11.27,4.27,4.27,0,0,1,.05-2,34.57,34.57,0,0,0-1.41-5.77A4.23,4.23,0,0,0,208.06,90c-.36.31-.6.64-1.11.65a14.66,14.66,0,0,1,1.07,3.4,86.89,86.89,0,0,1,.94,9.26,119.67,119.67,0,0,1-.46,13.92c-.42,4.05-1,8.1-1.54,12.13a7.82,7.82,0,0,1-1.14,3.06c.23-1.69.49-3.38.77-5.07a105.19,105.19,0,0,0,1.64-18.75,70.51,70.51,0,0,0-1.4-13.88,4.79,4.79,0,0,0-.8-1.89,1.77,1.77,0,0,0-.49,1.43c.41,3.3.75,6.61.94,9.93a108.42,108.42,0,0,1-.75,17.87,9.42,9.42,0,0,1-.47,3,10.2,10.2,0,0,1,0-1.22,59.17,59.17,0,0,0-.27-8.14c-.22-2.58-.29-5.16-.44-7.75-.15-1.76-.17-3.53-.29-5.29-.2-4.61-.93-9.32-1.55-13.9-.25-1.93-.57-3.84-.9-5.76.83.11.9.83,1.28,1.45A26.6,26.6,0,0,0,201,77.81c-.27-.05-.78,0-.81-.34S200.59,76.73,201,76.77Z"/><path class="cls-3" d="M147.2,77.07q.07.33.15.66l.4-.13a11.66,11.66,0,0,1,1.05,4.13,62.25,62.25,0,0,1-.7,6.43c0-1.85-.2-3.69-.27-5.54S147.3,78.93,147.2,77.07Z"/><path class="cls-3" d="M115.64,77.38c.39-.24.58-.25.78.19a7.12,7.12,0,0,1,0,3.49c-.36,2.64-.58,5.31-1,7.94-.3,2.85-.9,5.68-1.07,8.54,1.06-3.06,1.73-6.21,2.64-9.31.57-2,1.49-3.9,2.24-5.86A14,14,0,0,1,121,79.16c.31-.42.64-1,1.17-1.18a12.8,12.8,0,0,1,0,3.52,13.84,13.84,0,0,1-.92,3c-.13.62-.08,1.26-.27,1.88a6.68,6.68,0,0,0,.06-1.85,3.66,3.66,0,0,0-1.32,2.18c-.46,1.67-.86,3.45-1.5,5.11a4.2,4.2,0,0,0-1,1.62c-.3,1.43-.06,2.85-.56,4.29s-.51,2.86-.86,4.29c-.41,1.77-.59,3.57-1,5.34-.2,2.34-.68,4.69-.68,7a12.91,12.91,0,0,1-.34,2c-.48.15-.71,0-.89-.45a18.8,18.8,0,0,1-.71-5.76c-.09-3-.42-6-.42-9a50.74,50.74,0,0,1,.71-9.26c.37-2.83.8-5.66,1.07-8.5a35.94,35.94,0,0,1,.65-4A3.54,3.54,0,0,1,115.64,77.38Z"/><path class="cls-3" d="M198.31,77.25c1,.45,1.09,1.49,1.42,2.4l.26.08c.33,1.16.44,2.34.69,3.53a99.15,99.15,0,0,1,1.37,11c.18,2.36.47,4.7.61,7.06,0,1.56.26,3.09.16,4.65a28.35,28.35,0,0,1-.24-3.77c-.34-3-.33-6-.88-9a62.19,62.19,0,0,0-2.09-10.8c-.34-1.14-.62-2.29-.92-3.43a4.21,4.21,0,0,0-.68-1.21C197.83,77.5,197.94,77.33,198.31,77.25Z"/><path class="cls-3" d="M220,77.76c.6,1.13.9,2.44,1.38,3.62a26.83,26.83,0,0,1,1.17,2.77c.5,2.13,1,4.27,1.71,6.34.1,1.38.28,2.74.3,4.13a96.07,96.07,0,0,1,.41,10,35,35,0,0,1,0,7.1,23.74,23.74,0,0,1-.13-2.69,7,7,0,0,1,.09-2.65,17.74,17.74,0,0,0-.23-3.31c-.11-1.48-.42-2.92-.62-4.38a26.26,26.26,0,0,1-.54-3.34,72.19,72.19,0,0,0-1.37-7.28c-.35-2.1-.76-4.19-1.21-6.27C220.6,80.49,220.23,79.13,220,77.76Z"/><path class="cls-1" d="M133.28,79.48c-.19,1.22-.15,2.61-.46,3.81-.26.81-.59,1.61-.88,2.41-.11.41-.47.55-.68.89A17.43,17.43,0,0,0,129.79,91c-1.51,5.26-2.11,10.58-3.15,15.93-.23,1-.27,2-.49,3a24.28,24.28,0,0,1-.53-3.6,1.82,1.82,0,0,0,.33-1,52.87,52.87,0,0,1,1.26-5.75c.58-2.07.87-4.3,1.34-6.38a63.39,63.39,0,0,1,2.35-6.95c.57-1.65,1-3.34,1.61-5A5.78,5.78,0,0,1,133.28,79.48Z"/><path class="cls-3" d="M146.24,81c.26,2.93.32,5.89.29,8.84a136.77,136.77,0,0,1-.93,20.29c-.3,2.07-.42,4.19-.89,6.23a3.93,3.93,0,0,1-.56-.15,23,23,0,0,1-1-3.61c.36-2.31.93-4.57,1.31-6.88.64-4.63.08-9.07.51-13.67C145.25,88.4,146,84.75,146.24,81Z"/><path class="cls-1" d="M166.41,88.51c0,1.72.07,3.41,0,5.13-.18,2.13-.3,4.27-.42,6.4s-.67,4.47-1,6.73a24.18,24.18,0,0,1-1,5.4c-.41.82-.95,1.59-1.33,2.43a4.87,4.87,0,0,1-.79,1.28,17.51,17.51,0,0,1,.4-2.11c.48-.91.72-1.93,1.12-2.89a32,32,0,0,0,1.54-5.54,38,38,0,0,0,.54-6.62c.14-2.86.3-5.76.71-8.6A7.88,7.88,0,0,1,166.41,88.51Z"/><path class="cls-3" d="M169.22,89.7c.29,0,.45.09.47.3a8.56,8.56,0,0,1,0,4.62,3,3,0,0,1-.18-1.2C169.5,92.17,169.35,90.94,169.22,89.7Z"/><path class="cls-1" d="M208.06,90a4.23,4.23,0,0,1,1.37,2.26,34.57,34.57,0,0,1,1.41,5.77,4.27,4.27,0,0,0-.05,2,70.7,70.7,0,0,1,.26,11.27,1.49,1.49,0,0,1-.14.5l-.22-.3a18.42,18.42,0,0,0-.66,3.78c-.14,1.43-.55,2.77-.59,4.19a29.52,29.52,0,0,1-.69,4.17c-.51,2.48-.68,4.91-1.59,7.3-.84,2.17-1.45,4.4-2.14,6.62a47.54,47.54,0,0,1,.79-5.08A7.82,7.82,0,0,0,207,129.4c.58-4,1.13-8.08,1.54-12.13a119.67,119.67,0,0,0,.46-13.92,86.89,86.89,0,0,0-.94-9.26,14.66,14.66,0,0,0-1.07-3.4C207.46,90.67,207.7,90.34,208.06,90Z"/><path class="cls-1" d="M132.67,90.38a18.11,18.11,0,0,1,.23,4c.29-1.29.3-2.65.66-3.94,0,.85.14,1.69.18,2.54a57.64,57.64,0,0,0,1.05,9.47c.39,1.24,0,2.28-.13,3.54a3,3,0,0,1,.33,2.28,4.05,4.05,0,0,1-.64-1.18c-.48-1.13-1-2.26-1.38-3.42a15.71,15.71,0,0,1-.5-4.29C132.2,96.53,131.92,93.15,132.67,90.38Z"/><path class="cls-1" d="M224.25,90.49A34.45,34.45,0,0,1,225,95c.38,2.52,1.11,5,1.43,7.48.49,4,1,8.07,1.14,12.15a86,86,0,0,1-.77,11.47c-.08,1.32-.5,2.55-.69,3.85a3.62,3.62,0,0,0-.82,1.2,33.66,33.66,0,0,1-2.06,5.13,11.89,11.89,0,0,1-1.73,2.84c.17-1.46.79-3.18.18-4.56a1.33,1.33,0,0,1-.59-.14c-.15-.47.15-1,.27-1.5.44-1.54,1-3.07,1.25-4.64a37.8,37.8,0,0,0,1-4.18,49,49,0,0,0,.86-5.06,43.88,43.88,0,0,0,.43-7.24,35,35,0,0,0,0-7.1,96.07,96.07,0,0,0-.41-10C224.53,93.23,224.35,91.87,224.25,90.49Z"/><path class="cls-3" d="M123,91.58a22,22,0,0,1-.61,4.68c-.16.81-.27,1.62-.45,2.42a26.48,26.48,0,0,0-.88,3.9,14.6,14.6,0,0,1-.55,2.78.65.65,0,0,1-1.19-.47c.34-2.05.24-4.12.54-6.18A22.78,22.78,0,0,1,121,94a4.28,4.28,0,0,1,.87-1.36A2.88,2.88,0,0,1,123,91.58Z"/><path class="cls-1" d="M130.69,92.69v.06a35,35,0,0,0,.19,6.84,17.07,17.07,0,0,0,.4,4,47.37,47.37,0,0,0,2.36,5.76c.45,1.14.93,2.29,1.47,3.39.17.31.51.66.89.45a2.28,2.28,0,0,0,.51-1.44c0-1.39-.12-2.77-.07-4.16a23.75,23.75,0,0,0,2.49,4.41c.78,1.1,1.62,2.44,3.07,2.66a27.06,27.06,0,0,0,1.41,3.69c.3.46.29,1,1,.86.56-1,.7-2.11,1.25-3.09.43,0,.65.1.93-.3a12,12,0,0,0,1.35-2.63,27.54,27.54,0,0,1,1.63-2.54c1-1.89,2.16-3.74,3.19-5.63a23,23,0,0,0,2.55-5.4,5.61,5.61,0,0,1,.9-1.72c0,2,.28,3.93.22,5.91a19,19,0,0,0,.53,4c.18.88.18,1.77.35,2.65a50.11,50.11,0,0,0,2.59,7.07,1.63,1.63,0,0,0,1.78.38c.38-.27.67-.64,1-.91a6.49,6.49,0,0,0,1.38-1.71,12.41,12.41,0,0,0,1.38-2.63,23.78,23.78,0,0,0,1.05-5.54l.66,0c.39-1.35.2-2.68.57-4a8.15,8.15,0,0,1,.73-2.19c0,1.79,0,3.59,0,5.38a13.39,13.39,0,0,1-.28,2.89,34.33,34.33,0,0,1-1,4.85c-.49,1.3-.81,2.66-1.26,4-.18.56.05.84.46,1.18a2,2,0,0,0,1,1.46,2.9,2.9,0,0,0,3.57-1.1c1.45-1,1.7-2.77,3.09-3.92s1.44-2.9,1.89-4.48a30.29,30.29,0,0,0,1.6-5.44,31.09,31.09,0,0,0,2.8,4.41c.86,1.07,1.53,2.25,2.45,3.28a10.38,10.38,0,0,0,2.7,2.59c.46,1.15.94,2.28,1.4,3.43.26.69.8,1.2,1.11,1.84a37.09,37.09,0,0,1-1.28,8.08,3.46,3.46,0,0,0-.25,1.44,1,1,0,0,0,1.58.56c.32-.23.32-.55.42-.9a2.35,2.35,0,0,0,1.32-.9c.39-.14.81-.1,1-.49a17.41,17.41,0,0,0,1.45-3.39,10.15,10.15,0,0,0,1.56-.48,5.29,5.29,0,0,0,2.6-3.11,22.44,22.44,0,0,0,1.19-5.2c.31,2.73-.07,5.44.3,8.16a41.94,41.94,0,0,1-.13,8.38c-.09,1.87,0,3.75-.13,5.63A38.87,38.87,0,0,1,197,143c-.51,2.6-.67,5.26-1.25,7.84a17.3,17.3,0,0,0-.59,2.76,7.36,7.36,0,0,1-.27,2.26,73.45,73.45,0,0,1-3,7c-.84,1.57-1.38,3.23-2.34,4.68a10.89,10.89,0,0,0-1.31,2.85,13.52,13.52,0,0,1-1,2.16c-.68,1.32-1.28,2.67-1.92,4a22.85,22.85,0,0,1-2,2.88c-1.23,1.77-2.59,3.45-3.89,5.17a8.07,8.07,0,0,0-1.29,1.86,9.71,9.71,0,0,0-.8,2.55,6.44,6.44,0,0,0,1.86-.52l-.89.93a82.52,82.52,0,0,1-6.24,5.68c-1.27,1.19-2.73,2.1-4.07,3.2s-2.82,1.82-4.13,2.86c-.75-.35-1.16.19-1.84.43-2.83,1.26-5.74,2.37-8.59,3.56-1.07.43-2,1-3.2.84-2.53-.33-5.36-.41-7.75-1.33-2.93-1.54-6-2.84-8.89-4.43a49.18,49.18,0,0,1-5.41-3.62A36.75,36.75,0,0,1,124.1,193c-1.1-1.3-2.26-2.55-3.33-3.87a1.17,1.17,0,0,1,.06-.56,87.62,87.62,0,0,1-6.09-7.6c.08-.38.3-.69-.14-.94a1.19,1.19,0,0,0-.62,0c-.33-.36-.64-.72-.95-1.1-1.42-1.51-2.06-3.73-3.12-5.51a20.46,20.46,0,0,1-2.39-5.54,110.12,110.12,0,0,1-2.84-13.12c-.27-2.37-.75-4.7-1.09-7.06-.32-3.18-.8-6.33-1.07-9.52,0-1.61.05-3.21-.06-4.82a43.19,43.19,0,0,1,.19-4.34,3,3,0,0,0,2.77.16,1.85,1.85,0,0,0,.89-1.67,2.35,2.35,0,0,0,1.36-.06,3.2,3.2,0,0,0,1.74-2.38,2.38,2.38,0,0,0,1.09-.12,20,20,0,0,1,3.31.12,76.36,76.36,0,0,1,11,1.89c1.94.41,3.79,1.09,5.7,1.62,1.52.45,2.85,1.28,4.43,1.59.62.1,1.39.5,1.94.05a7.09,7.09,0,0,0,2.13-3.08,1,1,0,0,0-1.41-1.29c-.86.44-1.06,1.9-1.78,2.38-1.57-.19-3-1.11-4.6-1.55a68.27,68.27,0,0,0-17.67-3.06,15.14,15.14,0,0,0-4.07.64c0-.17,0-.33,0-.5.32-.1.64-.19.63-.59,0-.81.16-1.61.17-2.42a23,23,0,0,1-.14-2.64c0-1.32-.2-2.63-.16-3.95.39.37.32.81.39,1.3a8.37,8.37,0,0,0,.88,2.74,3.92,3.92,0,0,0,1.86,1.93,1.12,1.12,0,0,0,1.43-.37,3.72,3.72,0,0,0,.57-2.54,4.54,4.54,0,0,1,.08-1.77c.23-1.1.07-2.19.22-3.3.16-1.54.35-3.09.54-4.63.36-1.69.46-3.39.86-5.07a3.08,3.08,0,0,1,.09.65,50.22,50.22,0,0,0,1.69,10.39,15.65,15.65,0,0,0,1.79,4.39c.3.34.6.81,1.13.75l.55-.38c.41.08.76.08.87-.39.1-1.38-.09-2.78-.07-4.17a108.21,108.21,0,0,1,.28-11.36c.18,1.44.4,2.88.53,4.33a17.18,17.18,0,0,1,.18,2.63.53.53,0,0,0,.18.37c.08.27-.16.83.24.87.06.33-.17,1.17.21,1.33a1.5,1.5,0,0,0,.06.55c.82.92.88,2.39,1.32,3.52.42.53.6,1.25,1.35,1.29,0-.71-.13-1.41-.15-2.12h.09c0,.48.12.73.41.76a16.36,16.36,0,0,0,.22-2.39,49.72,49.72,0,0,1,.75-10c.48-2.3.81-4.63,1.25-6.94.21-1.28.59-2.5.84-3.77Z"/><path class="cls-3" d="M168,93.46a16,16,0,0,1,.11,2.6c0,1.57.26,3.19.38,4.77a8.15,8.15,0,0,0-.73,2.19c-.37,1.35-.18,2.68-.57,4l-.66,0c.28-2.13.74-4.22.93-6.36C167.7,98.28,167.48,95.88,168,93.46Z"/><path class="cls-1" d="M198.85,98.69a63.14,63.14,0,0,1,1.23,6.19,41.31,41.31,0,0,1,.6,4.65,11.72,11.72,0,0,0-.24-1.59,17.94,17.94,0,0,0-1.41-4.41C198.89,101.94,198.89,100.31,198.85,98.69Z"/><path class="cls-1" d="M175,99.58c.57,1.48,1.12,3,1.73,4.42a29.63,29.63,0,0,1-.83,3.3,36.28,36.28,0,0,0-1.51,4.43,19.74,19.74,0,0,1-.75,2.46,25.34,25.34,0,0,1,.62-3.55c.51-2.94.37-6.06.65-9C175,100.91,175,100.25,175,99.58Z"/><path class="cls-3" d="M222.36,100.92c.31,1.44.31,2.95.53,4.41a28.31,28.31,0,0,1-.06,4.19c-.09,2.23.42,4.5,0,6.62a34.08,34.08,0,0,0-.53,4.42,10.1,10.1,0,0,1-.55,2c-.3,1.4-.89,2.69-1.22,4.08a12.19,12.19,0,0,1-.74,2.34c-.64,1.45-.88,3-1.64,4.36-.5.88-1,1.8-1.5,2.66.65-3.46,2.07-6.94,2.93-10.33a42.51,42.51,0,0,0,1.06-6c.34-2.95.81-5.88,1.35-8.8a41.79,41.79,0,0,0,.41-4.88A27.83,27.83,0,0,0,222.36,100.92Z"/><path class="cls-3" d="M199,103.55a17.94,17.94,0,0,1,1.41,4.41,11.72,11.72,0,0,1,.24,1.59q.73,6.7.87,13.43c0,2.06,0,4.12-.07,6.18a5,5,0,0,0,.62,2.24,1.82,1.82,0,0,0,.56-.48,13.47,13.47,0,0,0,.47,2.31c-.25,1.59-.36,3.19-.56,4.79a37.6,37.6,0,0,0-.55,6.82c.16.19.49.37.53.62-.27.9-.56,1.81-.85,2.71-.38,1.23-1.12,2.29-1.51,3.53a15.82,15.82,0,0,1-1.87,3.94,21,21,0,0,0-1.58,2.42c0,.94.71,1.11,1.5,1a46.73,46.73,0,0,1-2.21,5.14c-1,2.15-2,4.31-3.08,6.4a26.55,26.55,0,0,1-2.38,3.81c-1.4,2-2.61,4.11-4.1,6-.73,1.09-1.71,2-2.53,3-1.62,1.67-3.11,3.45-4.72,5.14a6.44,6.44,0,0,1-1.86.52,9.71,9.71,0,0,1,.8-2.55,8.07,8.07,0,0,1,1.29-1.86c1.3-1.72,2.66-3.39,3.89-5.17a22.85,22.85,0,0,0,2-2.88c.64-1.34,1.24-2.69,1.92-4a13.52,13.52,0,0,0,1-2.16,10.89,10.89,0,0,1,1.31-2.85c1-1.45,1.51-3.11,2.34-4.68a73.45,73.45,0,0,0,3-7,7.36,7.36,0,0,0,.27-2.26,17.3,17.3,0,0,1,.59-2.76c.58-2.58.73-5.25,1.25-7.84a38.87,38.87,0,0,0,.74-4.06c.13-1.87,0-3.75.13-5.63A41.94,41.94,0,0,0,198,125c-.37-2.73,0-5.44-.3-8.16.21-1.22.41-2.45.74-3.65a3.7,3.7,0,0,1,.69,1.34c-.07-1.2-.24-2.38-.28-3.57h0l-.19.12C198.85,108.55,198.91,106,199,103.55Z"/><path class="cls-1" d="M93.21,109.8c.63,1.71.83,3.5,1.43,5.23a41,41,0,0,0,1.49,4.89c.65,1.28,1.17,2.6,1.95,3.82a14.3,14.3,0,0,0,3.35,4.41c-.37.56-.22,1.2-.53,1.76a5.49,5.49,0,0,0-.45,2.52,34.3,34.3,0,0,1-1.67-3.24c-.62-1.33-1.38-2.64-1.94-4a50.73,50.73,0,0,1-3.28-12.79A17.94,17.94,0,0,0,93.21,109.8Z"/><path class="cls-1" d="M198.8,110.93h0c0,1.2.2,2.38.28,3.57a3.7,3.7,0,0,0-.69-1.34c.06-.71.17-1.4.2-2.11Z"/><path class="cls-1" d="M196.33,111.45c.36.23.39.53.47.92-.29,1.55-.63,3.1-.87,4.66a19.24,19.24,0,0,1-.94,4.18c-.47,1.07-.89,2.09-2.07,2.53a42.89,42.89,0,0,0,1.43-9.2c.56,0,1,.18,1.36-.36C196.43,113.35,196.12,112.49,196.33,111.45Z"/><path class="cls-2" d="M175.15,123.12a2.75,2.75,0,0,1,1.27.49,1.74,1.74,0,0,1-1.49,1.34c-2.16.51-4.2,1.37-6.38,1.81a53.17,53.17,0,0,0-6.31,1.82,27.34,27.34,0,0,0-3.61,1.28c-.85.45-1.69.89-2.49,1.42a1.57,1.57,0,0,1-1.52.12,6.08,6.08,0,0,1-1.88-2.71.72.72,0,0,1,1-.9,13.34,13.34,0,0,1,1.48,1.94,18.28,18.28,0,0,1,4.91-2.45c1.27-.35,2.46-.9,3.73-1.21s2.79-.8,4.21-1.13C170.54,124.55,172.69,123.46,175.15,123.12Z"/><path class="cls-1" d="M90.1,125.9c.87,1.51,1.44,3.15,2.25,4.67.72,1.37,1.7,2.53,2.51,3.86a20,20,0,0,0,5.85,6.32c.13,1.21.26,2.42.44,3.62a40.44,40.44,0,0,1-5.39-6.65q-1.15-2-2.39-4a45.89,45.89,0,0,1-2.16-4.79A28,28,0,0,1,90.1,125.9Z"/><path class="cls-3" d="M222.66,128.24c-.29,1.57-.81,3.11-1.25,4.64-.11.46-.42,1-.27,1.5a1.33,1.33,0,0,0,.59.14c-.81.15-.18.85-.57,1.41a9.62,9.62,0,0,0-.71,2.26l-.15-.17a33,33,0,0,1-1.74,3,.46.46,0,0,0,0,.59c-.05.15-.11.31-.17.46l-.21.08c0-.43,0-.85.09-1.28-.44.13-.71.71-1,1.07-.73,1.26-1.64,2.37-2.29,3.68s-1.69,1.76-2.4,2.89c-.64.89-1.07,2-2,2.66-.63.47-1.11,1.09-1.76,1.55-1,.71-1.9,1.46-2.84,2.21-1.28.38-1.81,1.5-3.1,1.31a1.49,1.49,0,0,1-1-.48,37.56,37.56,0,0,0,4.21-4.65c.81-1.08,1.37-2.32,2.25-3.34l.62,0a11.62,11.62,0,0,0,2.8-1.57,7.78,7.78,0,0,0,2.85-1.81,10.73,10.73,0,0,0,2.12-2.93,29.17,29.17,0,0,1,1.59-2.63,10.48,10.48,0,0,0,1-2.41c.42-1.35,1.22-2.48,1.57-3.87a28,28,0,0,1,1-3.42A1.84,1.84,0,0,1,222.66,128.24Z"/><path class="cls-1" d="M203.28,128.62v-.08a39.41,39.41,0,0,1-.15,4.68,13.47,13.47,0,0,1-.47-2.31A3.77,3.77,0,0,0,203.28,128.62Z"/><path class="cls-2" d="M164.7,131.68a2.2,2.2,0,0,1,1,1.66,6.89,6.89,0,0,1-1.46,5.65,1.9,1.9,0,0,1-1.88.68,2.67,2.67,0,0,1-1.24-2.13,12.44,12.44,0,0,1,.09-3.41c.22-.81.29-1.59,1.24-1.81C163.15,131.93,163.87,131.27,164.7,131.68Z"/><path class="cls-2" d="M123.52,132c.68-.17,1,.21,1.43.59,1,.54,1,1.76.92,2.76a11.27,11.27,0,0,1-1.39,3.78,1.85,1.85,0,0,1-2.07.92,1.93,1.93,0,0,1-1-1.41,9,9,0,0,1,.75-5.06A3.39,3.39,0,0,1,123.52,132Z"/><path class="cls-1" d="M91,132.62h0l0,0c.81,1.78,2,3.36,3,5.06a29.91,29.91,0,0,0,5.72,6.84,7.79,7.79,0,0,0,1.62,1.2c.26,3.24,1,6.37,1.38,9.6.32,2.08.69,4.14,1.15,6.2a3.22,3.22,0,0,0-2.27-1.27c-1.68-1.2-2.36-2.9-3.51-4.59-.83-1.21-.8-2.5-1.24-3.84a15.12,15.12,0,0,1-.39-2.41c1.33,2.52,2.27,5,4.55,6.84.36.26.88,1.06,1.35.65.32-.39-.58-.88-.72-1.25-.63-1.33-1.45-2.55-2.07-3.87-.82-1.89-1.77-3.73-2.65-5.59-2-4.51-4.14-8.92-5.92-13.51v-.13Z"/><path class="cls-1" d="M213,133.7a25,25,0,0,1-1.4,3.64,42.35,42.35,0,0,1-1.64,3.91,17.45,17.45,0,0,0-1.68,3.37,7.64,7.64,0,0,1-1.46,2.51c-.09-.47.16-.78.34-1.2a23,23,0,0,0,1.61-4.4c.24-.94.69-1.76,1-2.67.55-1.44,1-2.94,1.52-4.38.32,0,.78.08,1-.12A6.19,6.19,0,0,0,213,133.7Z"/><path class="cls-2" d="M137.78,135c.31.2.19.7.17,1-.19,1.17-.35,2.34-.42,3.53-.08,1.46-.8,2.56-1.1,4-.6,2.09-1.64,4-2.09,6.18-.31,1.68-1.41,3.37-.68,5.09s2,2.43,3.38,3.46a6.6,6.6,0,0,0,3,1,50.26,50.26,0,0,0,6.84-.3c.89-.29,1.78-.53,2.68-.77,1.35-.76,2-2.66,2.45-4a.91.91,0,0,1,1.7.19,5.38,5.38,0,0,1-.38,2,7.16,7.16,0,0,1-2.58,3.39,10,10,0,0,1-2.32.73,6.83,6.83,0,0,1-1.76.44c-.89,0-1.76.21-2.65.19a24,24,0,0,1-5.62-.31,10.43,10.43,0,0,1-3.3-1.72,7.44,7.44,0,0,1-3.3-4c-.65-1.95,0-3.48.58-5.31a24.59,24.59,0,0,1,1.64-5.06c.5-1.11.67-2.31,1.16-3.43.9-1.89.47-4,1.59-5.93A.75.75,0,0,1,137.78,135Z"/><path class="cls-3" d="M215.5,138.32c-.69,1-1.41,1.88-2.08,2.84a1.93,1.93,0,0,0-.24,1.46,14,14,0,0,1-1.64,1.73c-.32.29-.82.34-1.14.62s-.3.62-.74.71a25.52,25.52,0,0,1,2.19-4.54,11.46,11.46,0,0,0,1.8-2.84C214.28,137.69,214.82,138,215.5,138.32Z"/><path class="cls-1" d="M220.3,138l.15.17a13.53,13.53,0,0,1-1,2.61c-.23.33-.66.49-.9.83a.46.46,0,0,1,0-.59A33,33,0,0,0,220.3,138Z"/><path class="cls-1" d="M218.16,142.16l.21-.08c.07.29.3.65.15.94-.45,1.46-1.42,2.47-2.16,3.76a14.76,14.76,0,0,1-2.14,3.36c-1,1-1.93,2-3,3a25.47,25.47,0,0,1-2.49,2.36,28.9,28.9,0,0,1-6.68,4.81,10.1,10.1,0,0,1-2.65.65l.14-.54a22,22,0,0,0,4.71-2.13c1.8-1.15,3.37-2.68,5.06-4,.93-.69,1.65-1.58,2.52-2.33,1-.95,1.51-2.43,2.46-3.49.39-.43.82-.79,1.17-1.26a27,27,0,0,0,1.33-2.4A10.14,10.14,0,0,0,218.16,142.16Z"/><path class="cls-1" d="M206,154.94c-.63.49-1.25,1-1.9,1.44a40.25,40.25,0,0,1-4,2.08,5.44,5.44,0,0,0-.11-1.73,1.08,1.08,0,0,1,.09-.87,2.2,2.2,0,0,0,.66.37c.44.08.84-.24,1.2-.45a1.49,1.49,0,0,0,1,.48C204.23,156.44,204.76,155.31,206,154.94Z"/><path class="cls-1" d="M111.41,179.83a3.27,3.27,0,0,1,.65,1.11c-.81.31-1.63.6-2.46.85a23.09,23.09,0,0,0-2.82,1.28A18.42,18.42,0,0,0,104,184.4a17.11,17.11,0,0,1-2.55,1.5l-.2-.69c.3-.3.64-.42.54-.93-.29-.41-.56-.27-1-.29,1.29-.56,2.46-1.36,3.77-1.88,1.07-.49,2.2-.71,3.31-1.11S110.22,180.18,111.41,179.83Z"/><path class="cls-3" d="M188,181.69c.47-.07.39.61.26.88-.48,1.24-1,2.44-1.4,3.71s-1.06,2.78-1.48,4.22A43,43,0,0,1,183,197a7.26,7.26,0,0,0-1.39,2.12,9,9,0,0,0-1.28,3,14.52,14.52,0,0,1-.7,2.55c-.9,2.29-1.61,4.68-2.59,6.94-1,2.07-1.1,4.34-2.22,6.38s-2.5,4.3-3.65,6.51a40.08,40.08,0,0,1-2,3.92c-1.36,1.89-2.44,3.93-3.61,5.94-.14-.36-.73-.09-1-.32a1.15,1.15,0,0,1-.14-1.34c1.12-2.07,2.32-4.11,3.41-6.2-.49-.9-.16-2.16,0-3.11,1-2.5,2.18-5,3.2-7.46.91-3.47,2.95-6.8,4.05-10.2,1-3,2.24-5.87,3.38-8.8-1.28.68-2.47,1.54-3.75,2.23a7.43,7.43,0,0,0-1.69,1.16c-1.84,1.7-3.7,3.38-5.68,4.91a19.62,19.62,0,0,1-5.74,3.39,9,9,0,0,1,1.93-2.57,27,27,0,0,1,2.78-2.7,3,3,0,0,0-1,.28,68.27,68.27,0,0,1-6.43,2.65,2.79,2.79,0,0,1-.56,0,10.88,10.88,0,0,1,2.31-1.16,31.6,31.6,0,0,0,3.89-2.12,45.37,45.37,0,0,0,4.91-3.24c1.18-1,2.47-1.78,3.62-2.8,1.78-1.6,3.64-3.11,5.4-4.74,2.45-2.5,4.73-5.12,7.11-7.67C186.4,183.64,187.13,182.61,188,181.69Z"/><path class="cls-1" d="M112.7,181.86c.33.44.67.85,1,1.32-1.24.66-2.57,1.14-3.82,1.78a30.71,30.71,0,0,0-6.48,3.87c-.33.27-.41.74.1.84a11.79,11.79,0,0,0,1.59-.9q1.82-1.08,3.72-2c1.85-1,3.82-1.73,5.69-2.68a3.86,3.86,0,0,1,1.1,2.27c-1.8.81-3.55,1.7-5.38,2.44-1.18.54-2.23,1.33-3.39,1.92a16,16,0,0,0-3.11,2.19c-.34.26-.53.87,0,1,1.29-.65,2.32-1.65,3.63-2.25s2.5-1.55,3.87-2.08c1.59-.6,3.06-1.44,4.65-2.05a9,9,0,0,1,.46,1.59,1.2,1.2,0,0,0-1,.13c-1.48.88-3,1.67-4.47,2.6s-3,1.71-4.33,2.7c-.8.56-1.46,1.27-2.29,1.78a10.24,10.24,0,0,1-1-3.2c-.15-2.25-1-4.15-1.41-6.36a21.78,21.78,0,0,0,2.72-1.5,13.21,13.21,0,0,1,2.38-1.12,27.11,27.11,0,0,1,3.51-1.51C111.13,182.44,111.88,182,112.7,181.86Z"/><path class="cls-1" d="M190.8,182.85c2,1,4,1.94,6.08,2.88a9.14,9.14,0,0,1,1.73.93c-.11.26-.22.53-.32.8a65.08,65.08,0,0,0-7.75-3.18l-.15-.15.11-.51Z"/><path class="cls-3" d="M190.51,183.62l-.11.51.15.15a65.08,65.08,0,0,1,7.75,3.18,24.62,24.62,0,0,0-1,3.65c-.42-.22-.67-.66-1-1a35.24,35.24,0,0,0-3.85-3.21c-.72-.59-1.59-.92-2.34-1.45A6.94,6.94,0,0,1,190.51,183.62Z"/><path class="cls-3" d="M189.94,186.54a25.5,25.5,0,0,1,3.65,2.69,16.31,16.31,0,0,1,3,3,25.24,25.24,0,0,1-3-1.43c-1.35-.59-2.68-1.27-4.07-1.74A16.94,16.94,0,0,1,189.94,186.54Z"/><path class="cls-3" d="M199.56,187.61l0,.43c1.36.64,2.74,1.22,4.06,1.95,1.71.95,3.43,1.89,5.18,2.78a36.43,36.43,0,0,1,4.46,2.61c1.89,1.29,3.86,2.43,5.76,3.7,4.41,2.94,8.49,6.73,12.57,10.16a4.4,4.4,0,0,1,1.32,2c.13.46.48.65.82.94,1.94,1.51,3.74,3.18,5.63,4.74,2.1,1.74,4.3,3.09,6.26,5a2.75,2.75,0,0,1,.76,1.91,3.33,3.33,0,0,1-2.63-.94c-1.72-1.29-3.53-2.47-5.21-3.81-2.31-1.82-4.48-3.94-6.86-5.71a34.39,34.39,0,0,1-3.19-1.43c-2.07-1.33-4.06-2.89-6-4.37-2.31-1.69-4.69-3.07-7.06-4.63-1.83-1.19-3.65-2.4-5.55-3.5-3.79-2.16-7.63-4.26-11.57-6.15l-.13.07C198.85,191.5,199,189.49,199.56,187.61Z"/><path class="cls-1" d="M118.34,189.21a77.36,77.36,0,0,0,6.72,7.24c.35.27.46.71.78,1a52.94,52.94,0,0,0,8.2,5.48,42.08,42.08,0,0,0,5,2.68c.54,1.1,2.22.92,3.13,1.51a17.13,17.13,0,0,0,3.28,1.16,5.67,5.67,0,0,0,3,.44,37,37,0,0,1,4.42-.42c1.77-.73,3.63-1.35,5.44-2a2.79,2.79,0,0,0,.56,0,68.27,68.27,0,0,0,6.43-2.65,3,3,0,0,1,1-.28,27,27,0,0,0-2.78,2.7,9,9,0,0,0-1.93,2.57,19.62,19.62,0,0,0,5.74-3.39c2-1.53,3.84-3.21,5.68-4.91a7.43,7.43,0,0,1,1.69-1.16c1.28-.69,2.47-1.55,3.75-2.23-1.14,2.93-2.35,5.83-3.38,8.8-1.11,3.4-3.14,6.72-4.05,10.2-1,2.5-2.18,5-3.2,7.46-.19,1-.52,2.22,0,3.11-1.09,2.09-2.29,4.13-3.41,6.2a1.15,1.15,0,0,0,.14,1.34c.26.23.86,0,1,.32-.79,1.13-1.54,2.29-2.23,3.48a68,68,0,0,1-4.78,5.77,9.22,9.22,0,0,1-2.78,1.05,17.26,17.26,0,0,1-2.43.61,15.79,15.79,0,0,0-1.73.17,5.16,5.16,0,0,1-2.24-.19,16.12,16.12,0,0,1-3.59-2.14c-.45-.32-.46-.78-.76-1.21a44.68,44.68,0,0,0-2.95-3.46,71.9,71.9,0,0,1-4.65-5.94c-.75-1.23-1.52-2.45-2.25-3.7-1-1.71-2.14-3.32-3.06-5.07s-1.77-3.42-2.62-5.15-1.88-3.28-2.66-5.06c-.57-1.39-1.2-2.74-1.79-4.12-.78-2-1.91-3.81-2.59-5.84-.42-1.34-1-2.6-1.33-4s-.84-2.72-1.22-4.09c-.31-1.65-.59-3.31-.95-5a2.67,2.67,0,0,0-.49-.64C118.39,189.63,118.36,189.42,118.34,189.21Z"/><path class="cls-1" d="M189.47,189.09c1.39.47,2.73,1.15,4.07,1.74a25.24,25.24,0,0,0,3,1.43l.2.23c-.2,1.05-.64,2.06-.9,3.1a2,2,0,0,1-.81-.74A40.78,40.78,0,0,0,189.47,189.09Z"/><path class="cls-1" d="M116.4,190c.1,1.09.35,2.16.48,3.24a31.75,31.75,0,0,0-3.31,1.8c-1,.7-2.23,1.11-3.24,1.89-1.41,1-2.95,1.69-3.92,3.23,0,.41.29.44.59.27.6-.37,1.11-.85,1.71-1.22s1.45-.85,2.15-1.34c1.11-.79,2.4-1.22,3.53-2a17.37,17.37,0,0,1,2.88-1.45c.26.93.63,1.84.95,2.75-1.13.14-1.7.91-2.63,1.44s-2.2.94-3.21,1.64a23.77,23.77,0,0,1-3,1.67,19.23,19.23,0,0,0-2,1.53,21.64,21.64,0,0,0-1.06-2.21,21.14,21.14,0,0,1-1.82-4.15,4.88,4.88,0,0,0,1.43-.81,58.09,58.09,0,0,1,5.61-3.45C113.16,191.86,114.87,191.09,116.4,190Z"/><path class="cls-1" d="M189.45,190.37a58.14,58.14,0,0,1,4.7,5.16,9.85,9.85,0,0,1,1.21,1.53c-.44,1.07-.77,2.18-1.15,3.28-1.2-1.12-2-2.54-3.24-3.62a34.6,34.6,0,0,0-3.25-3.16c-.21-.2-.53-.29-.36-.65a17.91,17.91,0,0,1,.8-2.21C188.58,190.56,189,190.48,189.45,190.37Z"/><path class="cls-1" d="M187,194.07c.71.69,1.43,1.38,2.1,2.11.88,1,1.92,1.9,2.72,3a28.19,28.19,0,0,0,2,2.3c-.34,1.11-.75,2.2-1.13,3.31a25.63,25.63,0,0,0-2.16-2.56c-.87-.86-1.57-1.81-2.51-2.56s-1.79-1.34-2.63-2.08a23.7,23.7,0,0,0,1.35-3A4.66,4.66,0,0,1,187,194.07Z"/><path class="cls-1" d="M118.54,198.47c.15.6.28,1.19.47,1.78-2.23,1.5-4.72,2.29-7.07,3.56-1.31.53-2.49,1.29-3.75,1.88-.15-.4-.31-.78-.48-1.17.48-.44,1-.81,1.52-1.2a15.43,15.43,0,0,1,2.18-1.14c1-.53,1.88-1.22,3-1.66a14,14,0,0,0,2.52-1.25A3.12,3.12,0,0,1,118.54,198.47Z"/><path class="cls-1" d="M185,198.49c.68.57,1.3,1.2,2,1.74a29.4,29.4,0,0,1,2.6,2.7,16.63,16.63,0,0,1,2,2.42,2.15,2.15,0,0,0,.63.56c-.37.88-.73,1.76-1.05,2.65-1.2-1.17-2.18-2.46-3.45-3.54a40.12,40.12,0,0,0-4.2-3.29C184,200.65,184.48,199.55,185,198.49Z"/><path class="cls-1" d="M119.56,201.6c.07.39.14.77.21,1.16-1.84.69-3.5,1.87-5.27,2.73a54.63,54.63,0,0,0-5,3.09c-.24-.6-.51-1.18-.76-1.78,1.79-1,3.68-1.77,5.49-2.71,1.25-.58,2.55-1.09,3.77-1.73A6.5,6.5,0,0,1,119.56,201.6Z"/><path class="cls-1" d="M183.23,202.43c1,.9,2.08,1.76,3.05,2.71a16.5,16.5,0,0,1,2.35,2.3,25.8,25.8,0,0,1,2.07,2.41c-.52,1.12-1,2.27-1.45,3.41a2.5,2.5,0,0,1-.69-.69c-1-1.31-2.22-2.22-3.36-3.47a23,23,0,0,0-3.66-3c.53-1,1-2.11,1.46-3.2Z"/><path class="cls-1" d="M120.22,203.88l.35.94a56,56,0,0,0-5.52,3.44,29.5,29.5,0,0,0-2.93,2.14c-.47.39-.84.88-1.29,1.28-.28-.68-.58-1.34-.88-2a56.27,56.27,0,0,1,5.76-3.37C117.2,205.49,118.68,204.58,120.22,203.88Z"/><path class="cls-1" d="M121.1,205.93a21.93,21.93,0,0,1,.83,2,20.35,20.35,0,0,0-2.51,1.57c-1.86,1.21-3.67,2.49-5.45,3.82-.69.49-1.17,1.2-1.89,1.64a20.28,20.28,0,0,0-.82-2.31c1.64-1.67,3.62-2.7,5.5-4C118.17,207.66,119.7,206.92,121.1,205.93Z"/><path class="cls-1" d="M181.13,207c.57.37,1,.85,1.58,1.25,1.31,1,2.28,2.25,3.5,3.34a36.52,36.52,0,0,1,2.52,2.9c-.46,1-.89,2.06-1.44,3l-.11,0a20.36,20.36,0,0,1-3.25-2.94,41.92,41.92,0,0,0-4.57-3.6C179.89,209.56,180.12,208.21,181.13,207Z"/><path class="cls-3" d="M155.66,208.85c.23.24.24.42,0,.54A12.51,12.51,0,0,1,153,211.1c-.29.15-.76.15-.72-.28a7,7,0,0,1,1.51-.89C154.38,209.65,155,208.91,155.66,208.85Z"/><path class="cls-1" d="M122.45,209.27c.21.59.44,1.17.68,1.75a13.84,13.84,0,0,0-3.12,2.19c-.62.48-1.28.92-1.86,1.44a35.24,35.24,0,0,0-4.19,4.66l-.13,0c-.41-1.11-.91-2.18-1.33-3.28.93-.6,1.69-1.41,2.6-2,2.21-1.57,4.47-3.08,6.76-4.52Z"/><path class="cls-1" d="M179,211.91c1.19.84,2.25,1.8,3.38,2.7.86.69,1.47,1.6,2.32,2.31s1.37,1.19,2,1.8c-.44,1-1,2-1.48,3.06-.66-.49-1.06-1.21-1.7-1.73-.92-.93-1.92-1.75-2.8-2.72a15.22,15.22,0,0,0-2.89-2.29A21.7,21.7,0,0,1,179,211.91Z"/><path class="cls-1" d="M123.65,212.12c.24.52.49,1,.77,1.54a23.17,23.17,0,0,1-2.19,1.78,47.94,47.94,0,0,0-5.75,5.7c-.39.45-.7,1-1.11,1.39-.35-.61-.64-1.25-1-1.86a17.94,17.94,0,0,1,2.53-3.07,24.88,24.88,0,0,1,3.1-2.86c.95-.67,1.81-1.43,2.73-2.12A1.94,1.94,0,0,1,123.65,212.12Z"/><path class="cls-1" d="M125,214.85c.28.54.54,1.08.83,1.62-.94,0-1.37.93-2,1.48-1.4,1.25-2.64,2.65-3.92,4a21,21,0,0,0-3.09,4,13.91,13.91,0,0,1-1-2.42c1.44-1.71,3-3.25,4.56-4.87A42.07,42.07,0,0,1,125,214.85Z"/><path class="cls-1" d="M177.37,216.56c.71.59,1.36,1.25,2.08,1.82,1.28,1,2.35,2.22,3.54,3.3a2,2,0,0,0,.78.3c.28.27.57.53.86.79-.36,1-1,1.86-1.4,2.81a14.48,14.48,0,0,1-2.59-2.43,25.3,25.3,0,0,0-2.63-2.21c-.59-.54-1.22-1-1.83-1.55A23.14,23.14,0,0,0,177.37,216.56Z"/><path class="cls-1" d="M126.35,217.2c.41.72.85,1.43,1.22,2.17a35.5,35.5,0,0,0-2.64,2.51c-1.29,1.38-2.76,2.52-4,4-.92,1-1.68,2.2-2.5,3.32-.33-.7-.65-1.4-1-2.08a24.13,24.13,0,0,1,3.73-4.55c1-1.05,1.94-2.14,3-3.13A16.13,16.13,0,0,0,126.35,217.2Z"/><path class="cls-1" d="M175.79,220.23a31.55,31.55,0,0,0,2.83,2.51c1.1.76,1.74,1.9,2.8,2.72.35.34,1,.75,1.15,1.2-.92,1.78-2.06,3.4-3.09,5.1A16.93,16.93,0,0,1,178,230.4c-1.44-1.22-2.42-2.59-4.07-3.45a4.67,4.67,0,0,1-1.39-1c.32-.83.82-1.59,1.21-2.39a7.86,7.86,0,0,1,.82.74c.71.71,1.65,1.1,2.34,1.86.89,1,2,1.72,2.92,2.6a1.69,1.69,0,0,0,1.19.45,2.09,2.09,0,0,0-.14-.82,10.58,10.58,0,0,0-1.84-1.71,26.53,26.53,0,0,0-2.6-2.25c-.79-.46-1.48-1.06-2.22-1.59A14.74,14.74,0,0,1,175.79,220.23Z"/><path class="cls-1" d="M128.08,220.92c.4.74.78,1.48,1.19,2.21-.54.56-1.12,1.09-1.65,1.66-1.27,1.4-2.79,2.49-3.93,4a23.59,23.59,0,0,0-3,4.24c-.55-.89-1.13-1.76-1.67-2.66a39.52,39.52,0,0,1,3.9-4.76c1.25-1.18,2.53-2.31,3.73-3.55A6.78,6.78,0,0,1,128.08,220.92Z"/><path class="cls-1" d="M130,224.45c.36.73.77,1.43,1.18,2.12a7.24,7.24,0,0,0-2.3,1.93,59.74,59.74,0,0,0-5.38,6.32,4.65,4.65,0,0,1-1.07,1.14c-.36-.62-.73-1.24-1.12-1.84.62-1.15,1.52-2.14,2.25-3.22a26.88,26.88,0,0,1,3.56-3.72C128.16,226.35,129,225.22,130,224.45Z"/><path class="cls-1" d="M172.29,226.55c.4.29.76.63,1.18.9a20.53,20.53,0,0,1,3.08,2.88,22.28,22.28,0,0,1,2.29,2.3c-.45.73-1,1.43-1.45,2.13a7.17,7.17,0,0,0-1.61-1.89c-1.36-1-2.24-2.31-3.71-3.14-.32-.23-.83-.37-1.08-.66C171.43,228.24,171.87,227.4,172.29,226.55Z"/><path class="cls-1" d="M131.83,227.79c.26.83.93,1.35,1.16,2.19-.49.53-1,1.05-1.5,1.55a33.36,33.36,0,0,0-6.4,8.93c-.63-1-1.13-2-1.73-3-.09-.22-.32-.41-.08-.62.71-.77,1.43-1.53,2.07-2.36a74.55,74.55,0,0,1,5.73-6.19C131.3,228.05,131.52,227.78,131.83,227.79Z"/><path class="cls-1" d="M170.36,230a10.07,10.07,0,0,1,3.33,2.54,25.44,25.44,0,0,1,2.19,2c.3.4.59.8.9,1.18a12.37,12.37,0,0,1-1.13,1.56,39.85,39.85,0,0,0-4.27-4,6.12,6.12,0,0,0-2.41-1.16A17.09,17.09,0,0,1,170.36,230Z"/><path class="cls-1" d="M133.6,231.28l.74,1.31c-1.23,1.71-2.62,3.31-3.71,5.11a54.11,54.11,0,0,0-3.4,6.2,1.76,1.76,0,0,1-.56-.74c-.32-.59-.66-1.17-1-1.74.32-.52.66-1,1-1.55A38.24,38.24,0,0,1,133.6,231.28Z"/><path class="cls-1" d="M168.68,232.64a9.87,9.87,0,0,1,2.06,1.28,51.4,51.4,0,0,1,4.34,4.18c-.56.7-1.06,1.44-1.6,2.17a.26.26,0,0,1-.3-.15,12.82,12.82,0,0,0-1.64-1.91c-1.43-1.23-2.31-2.63-4.11-3.41l.94-1.63Z"/><path class="cls-1" d="M135.15,233.91a24.29,24.29,0,0,0,1.65,2.46,54.16,54.16,0,0,0-5,6.49,17.87,17.87,0,0,0-2.26,4.44.18.18,0,0,1-.26-.13c-.4-.69-.91-1.31-1.32-2a1.78,1.78,0,0,1,.31-.76,67.47,67.47,0,0,1,4.84-7.95C133.82,235.64,134.4,234.68,135.15,233.91Z"/><path class="cls-1" d="M167,235.49a20.3,20.3,0,0,1,1.88,1.65,22.6,22.6,0,0,0,1.64,1.68,18.43,18.43,0,0,1,2.19,2.6,18.94,18.94,0,0,1-1.83,2.23c-.48-.73-.94-1.48-1.44-2.2-.65-1-1.52-1.72-2.21-2.65a4.46,4.46,0,0,0-1.51-1.33c.31-.49.63-1,.95-1.45Z"/><path class="cls-1" d="M137.44,237.48h.19c.37.42.68.89,1,1.32-.74,1.28-1.85,2.25-2.6,3.51a50.38,50.38,0,0,0-4.45,8.18c-.58-.77-1.12-1.59-1.66-2.39a8.93,8.93,0,0,0,.81-1.37,38.65,38.65,0,0,1,3.39-5.24A24.86,24.86,0,0,1,137.44,237.48Z"/><path class="cls-1" d="M165.27,238.16c.47.24.81.84,1.14,1.25.71,1,1.63,1.87,2.26,2.94a17.71,17.71,0,0,0,1.48,2.21,34.15,34.15,0,0,1-2.8,3.44c-.38-1-.86-1.91-1.14-2.94a5.74,5.74,0,0,0-1.06-1.83c-.59-.8-.86-1.74-1.53-2.49C164.23,239.92,164.72,239,165.27,238.16Z"/><path class="cls-1" d="M139.45,239.89a3.57,3.57,0,0,1,1.25,1.3,62.92,62.92,0,0,0-3.8,6.75,41.78,41.78,0,0,0-1.89,4.29c-.26.82-.51,1.63-.8,2.44a22.44,22.44,0,0,1-1.93-3.09,43.16,43.16,0,0,1,3.33-6.24,28.83,28.83,0,0,1,2.67-4A15.57,15.57,0,0,0,139.45,239.89Z"/><path class="cls-1" d="M163,241.64c.32.12.43.66.6.94.45,1.1,1.37,1.82,1.65,2.94s.92,2.23,1.25,3.41a41.14,41.14,0,0,1-3.16,3.65,9.52,9.52,0,0,0-.32-3.45,22.06,22.06,0,0,1-.36-3.29,7.51,7.51,0,0,0-1-2.83C162.14,242.57,162.58,242.11,163,241.64Z"/><path class="cls-1" d="M141.85,241.92a14.89,14.89,0,0,1,1.73,2c-.45.91-1.11,1.69-1.57,2.6a65.54,65.54,0,0,0-3,6,28.29,28.29,0,0,0-2,5.55c-.51-.26-.83-.85-1.22-1.26-.24-.31-.64-.61-.75-1,.27-.92.77-1.76,1-2.68a43,43,0,0,1,2.14-4.73c1-2.07,2.23-3.9,3.34-5.87Z"/><path class="cls-1" d="M160.85,243.9c.79,1.55.57,3.06.77,4.71a9.5,9.5,0,0,1,.3,4.08c-.15.51.08.63.39,1-.36.42-.74.82-1.14,1.21,0-2-.55-3.95-.69-5.93a19.85,19.85,0,0,0-.79-3.94l.7-.66Z"/><path class="cls-1" d="M144.64,244.8a11.84,11.84,0,0,0,1.58,1.15c-.62,2.16-1.81,4.05-2.51,6.19a53.16,53.16,0,0,0-1.82,5.84c-.27,1.55-.66,3.06-.79,4.63-.53-.13-.84-.73-1.23-1.11-.71-.86-1.49-1.67-2.12-2.59a8.74,8.74,0,0,0,.49-1.27,77.9,77.9,0,0,1,6-12.33A3.15,3.15,0,0,1,144.64,244.8Z"/><path class="cls-1" d="M158.64,245.76c.42,2.37.51,4.78.93,7.15a16.79,16.79,0,0,1,.24,3.31c-1.22,1.07-2.28,2.33-3.54,3.33.06-1.11.12-2.22.16-3.33-.11-2.28,0-4.56-.06-6.84a10.29,10.29,0,0,0-.42-2.68A14.47,14.47,0,0,0,158.64,245.76Z"/><path class="cls-1" d="M147.35,246.56c.52.22,1,.48,1.54.68-.3,1.17-.86,2.29-1.15,3.46-.52,2.52-1.3,4.95-1.63,7.5-.38,1.95-.65,3.89-1,5.85a15.27,15.27,0,0,1-3.08-1.07c.19-1.48.64-2.88.9-4.34a28,28,0,0,1,1.51-4.84,43.56,43.56,0,0,1,2.36-5.62C147.1,247.72,146.94,246.9,147.35,246.56Z"/><path class="cls-1" d="M154.75,247c.45,1.77.21,3.84.29,5.67.07,1.18.07,2.35.13,3.53s-.13,2.21,0,3.3c0,.38.29.39.55.58a39.88,39.88,0,0,1-4.3,3.4,12.28,12.28,0,0,1,.11-2.83,18.78,18.78,0,0,0,.35-2.45c.16-1.93.69-3.8.77-5.74a29.18,29.18,0,0,0,.18-5.16A6.58,6.58,0,0,0,154.75,247Z"/><path class="cls-1" d="M150.38,247.52c.45,0,.9,0,1.35-.07a35.79,35.79,0,0,1-.19,4.69c-.07,2.19-.53,4.32-.75,6.5a27.65,27.65,0,0,0-.49,3.31c0,.75,0,1.5,0,2.26-1.22.67-3,.31-4.27-.06a24.93,24.93,0,0,0,.71-3.06c.59-2.29.79-4.62,1.47-6.88.35-1.16.59-2.35.93-3.51S149.9,248.55,150.38,247.52Z"/><path d="M142,178.12c4,.43,8.43,1.23,12.35-.17a.63.63,0,0,0-.33-1.21c-4,1-7.93.62-12,.76a.31.31,0,0,0,0,.62Z"/><path d="M140.4,179c-.29-1.64,3.66-2.37,4.9-2.69,3.27-.85,6.69.81,9.29,2.66.63.45,1.26-.5.79-1-2.83-3.12-7.73-3.9-11.59-2.68a8.84,8.84,0,0,0-4.15,2.22c-.51.6-.42,1.77.54,1.79a.22.22,0,0,0,.21-.28Z"/><path d="M141,177.36c2.17,6.35,9,5.11,13.63,2.3a.91.91,0,0,0-.92-1.57c-2,1-4,2-6.27,2.19-2.52.16-4.25-1.55-5.79-3.3a.39.39,0,0,0-.65.38Z"/><path d="M142.64,176.76c1,1.25,2.9,1.2,4.37,1.07a15.64,15.64,0,0,0,5.74-1.28.49.49,0,0,0-.25-.91c-1.38-.06-2.89.64-4.23.93a8.47,8.47,0,0,1-5.38-.14.21.21,0,0,0-.25.32Z"/><path d="M144.83,180.51c1.06-.47,2-1.09,3.05-1.66a20.75,20.75,0,0,0,2.86-1.57c.42-.33,0-.89-.47-.81A8.1,8.1,0,0,0,147.4,178a28.56,28.56,0,0,0-2.81,2.18c-.18.16,0,.4.24.32Z"/><path d="M143.9,183.52c1,2.31,5.14,1.63,6.93.86.58-.25.16-1.2-.43-1-1.62.51-4.86,1.4-6.19-.1-.17-.19-.41.05-.32.25Z"/></svg>