<?xml version="1.0" encoding="UTF-8"?>
<svg width="1025px" height="1024px" viewBox="0 0 1025 1024" version="1.1" xmlns="http://www.w3.org/2000/svg" xmlns:xlink="http://www.w3.org/1999/xlink">
    <!-- Generator: Sketch 50.2 (55047) - http://www.bohemiancoding.com/sketch -->
    <title>Beeline-PortfolioItemLogo</title>
    <desc>Created with Sketch.</desc>
    <defs></defs>
    <g id="Page-1" stroke="none" stroke-width="1" fill="none" fill-rule="evenodd">
        <g id="Beeline-PortfolioItemLogo">
            <rect id="Rectangle-path" fill="#2C2C2C" fill-rule="nonzero" x="1" y="0" width="1024" height="1024"></rect>
            <g id="blur_3_bk" transform="translate(0.000000, 190.000000)" fill="#494949" fill-rule="nonzero" opacity="0.8">
                <rect id="bee_blur:_purple" x="0" y="180" width="654" height="277.5"></rect>
                <rect id="bee_blur:_purple_copy_3" x="0" y="0.5" width="293" height="179.5"></rect>
            </g>
            <g id="bee" transform="translate(225.000000, 189.000000)">
                <path d="M180.086,0.985 C158.359285,0.988092321 136.816399,4.9655533 116.521,12.721 C213.234,42.908 291.502,115.339 348.921,187.188 C368.836351,183.457285 389.030991,181.413702 409.29,181.079 L409.468,181.079 L409.999,181.07 L410.399,181.07 L410.992,181.062 L411.532,181.055 L411.881,181.055 L412.451,181.055 L412.693,181.055 L413.516,181.055 L413.716,181.055 L414.386,181.055 L416.365,181.055 L416.89,181.055 L417.09,181.055 L417.616,181.055 L417.8,181.055 L418.378,181.055 L418.5,181.055 C439.213,181.227 433.259,193.474 453,197.015 C389.778,118.034 327.619,28.156 217.22,4.888 C205.010487,2.30671657 192.565392,1.00369163 180.086,1 M116.521,12.736 C47.5929403,39.010206 1.75653085,104.778923 0.966243599,178.540612 C0.17595635,252.302301 44.5927055,319.037996 112.942,346.783 C165.327,264.948 249.977,205.764 348.92,187.203 C291.502,115.354 213.234,42.923 116.52,12.736" id="back_wing_copy" fill="#FFFFFF" opacity="0.4"></path>
                <path d="M415.469,181.027 C253.679,181.027 116.887,288.127 72.021,435.333 C56.107,487.551 95.352,540.278 149.909,540.278 L583.757,540.278 C702.712,540.278 767.357,401.39 691.074,310.049 C625.218,231.19 526.2,181.027 415.469,181.027 Z M130.069,540.277 L149.91,540.277 C143.646593,540.276145 137.403899,539.557795 131.304,538.136 L130.069,540.277 Z" id="body" fill="#494949"></path>
                <path d="M130.065,540.277 L149.906,540.277 C143.642593,540.276145 137.399899,539.557795 131.3,538.136 L130.065,540.277 Z M415.465,181.027 C387.234776,181.014213 359.101184,184.32466 331.645,190.89 L131.3,538.137 C137.400049,539.55793 143.642643,540.276268 149.906,540.278 L307.525,540.278 L507.855,193.06 C477.711457,185.054372 446.653507,181.009343 415.465,181.027 Z M691.073,310.049 C670.220139,285.084813 646.090253,263.052227 619.338,244.549 L448.715,540.277 L583.756,540.277 C702.711,540.277 767.353,401.391 691.073,310.049 Z" id="stripes" fill="#949494" fill-rule="nonzero"></path>
                <path d="M672.024,403.554 C672.007434,428.258203 651.97022,448.273038 627.266013,448.261996 C602.561807,448.250953 582.542493,428.218215 582.548011,403.514007 C582.553529,378.809799 602.581791,358.786006 627.286,358.786 C639.155315,358.789712 650.53699,363.508477 658.92705,371.904163 C667.31711,380.29985 672.028244,391.684685 672.024,403.554 Z" id="eye" fill="#FFFFFF"></path>
                <path d="M675.024,403.554 C675.013508,418.821221 662.630232,431.190174 647.363009,431.182997 C632.095786,431.17582 619.724144,418.795229 619.728007,403.528004 C619.73187,388.26078 632.109775,375.886451 647.377,375.887 C654.712093,375.889652 661.745705,378.806049 666.930524,383.994618 C672.115342,389.183187 675.026653,396.218907 675.024,403.554 Z" id="pupil" fill="#000000" fill-rule="nonzero"></path>
            </g>
            <g id="blur_3_fr" transform="translate(0.000000, 647.000000)" fill="#EEEEEE" opacity="0.8">
                <polygon id="blur_set_3_copy" points="0 0 409 0 317.705357 179 0 179"></polygon>
            </g>
            <g id="front_bee" transform="translate(95.000000, 189.000000)">
                <path d="M658.24,547.465 C629.71,596.914 566.524,637 517.108,637 C467.692,637 450.76,596.913 479.29,547.464 C507.82,498.015 571.008,457.928 620.424,457.928 C669.84,457.928 686.772,498.016 658.24,547.465 Z M348.201,547.465 C319.671,596.914 256.485,637 207.069,637 C157.653,637 140.722,596.913 169.252,547.464 C197.782,498.015 260.97,457.928 310.385,457.928 C359.8,457.928 376.733,498.016 348.2,547.465 L348.201,547.465 Z" id="wheels_copy_7" fill="#000000" fill-rule="nonzero"></path>
                <path d="M535.131,371.1 L565.658,318.19 C582.958,349.805 591.883,370.49 591.883,370.49 C591.883,370.49 569.786,370.866 535.131,371.1 Z M358.162,370.246 C314.101,369.418 269.889,368.003 231.638,365.676 C194.448,363.414 162.894,360.291 142.572,356.008 C45.672,335.585 -16.328,240.424 4.072,143.459 C13.7954336,96.8793016 41.6582757,56.085018 81.5090696,30.0825626 C121.359864,4.08010721 169.921242,-4.99205318 216.472,4.869 C226.672,7.01833333 236.685667,9.63433333 246.513,12.717 C343.226,42.904 421.494,115.335 478.913,187.184 L478.924,187.197 C473.112,188.289 467.35,189.518667 461.638,190.886 L358.162,370.246 Z M478.931,187.2 C473.119,188.292 467.357,189.521667 461.645,190.889 L358.162,370.25 C400.405,371.044 442.51,371.297 479.111,371.297 C499.884,371.297 518.89,371.216 535.131,371.104 L565.658,318.194 C546.635,283.431 517.482,235.446 478.931,187.201 L478.931,187.2 Z" id="front_wing_copy" fill="#FFFFFF" opacity="0.85"></path>
            </g>
        </g>
    </g>
</svg>