<?xml version="1.0" encoding="utf-8"?>
<!-- Generator: Adobe Illustrator 21.1.0, SVG Export Plug-In . SVG Version: 6.00 Build 0)  -->
<svg version="1.1" id="Layer_1" xmlns="http://www.w3.org/2000/svg" xmlns:xlink="http://www.w3.org/1999/xlink" x="0px" y="0px"
	 viewBox="0 0 300 300" style="enable-background:new 0 0 300 300;" xml:space="preserve">
<style type="text/css">
	.st0{fill:#77A6CD;}
	.st1{fill:#808489;}
	.st2{fill:#323A45;}
</style>
<g>
	<g id="Artboard-Copy-2">
		<g id="Group-2" transform="translate(53.000000, 51.000000)">
			<path id="Fill-32" class="st0" d="M84.5,138.8c-0.1,0.1-0.1,0.2-0.2,0.4c-0.1,0.3,0.3,0.5,0.4,0.2c0.1-0.1,0.1-0.2,0.2-0.4
				C85.1,138.8,84.7,138.6,84.5,138.8"/>
			<path id="Fill-33" class="st1" d="M82.9,140c-0.1-0.1-0.1-0.1-0.2-0.2c-0.1-0.2-0.4-0.3-0.6-0.1c0,0-0.1,0.1-0.1,0.1
				c-0.2,0.2-0.2,0.5,0,0.6c2.8,2.8,9.3,1.1,12.4-0.1c5.2-2,10.4-5.3,13.2-10.2c0.5-0.9-0.6-1.7-1.4-1.1c-1.9,1.7-3.6,3.7-5.6,5.3
				c-1.9,1.5-4.1,2.5-6.3,3.5c-2.1,1-4.3,1.5-6.6,1.9c-1.1,0.2-2.1,0.3-3.2,0.3C84.1,140.1,83.5,140.1,82.9,140
				c-0.6,0.3-0.7,0.4-0.3,0.5C82.9,140.6,83.2,140.2,82.9,140"/>
			<path id="Fill-34" class="st1" d="M103.2,145.9c3.1-4.8,6.6-10.7,5.6-16.7c-0.1-0.8-1.3-0.5-1.3,0.2c-0.3,6-2.1,10.8-5.2,16
				C102,145.9,102.9,146.5,103.2,145.9"/>
			<path id="Fill-35" class="st1" d="M103.9,138.3c1.8-2.9,3-6.1,4.1-9.3c0.2-0.6-0.8-1-1-0.4c-1.3,3.1-2.3,6.3-3.9,9.2
				C102.8,138.4,103.6,138.8,103.9,138.3"/>
			<path id="Fill-36" class="st1" d="M101.7,130.3c4.3-4.2,8-8.3,10.9-13.6c2.9-5.2,5-11,6.5-16.7c2.9-11.1,3.9-24.1,1.2-35.4
				c-0.3-1.2-2.3-1-2.2,0.3c1.1,11.4,1.4,22.3-1.2,33.6c-2.5,11-7.6,23.2-15.6,31.4C101,130.2,101.5,130.6,101.7,130.3"/>
			<path id="Fill-37" class="st1" d="M129.7,81.5c0.5,2.4-0.6,5.1-1.5,7.3c-1.1,2.5-2.4,4.3-5.1,4.7c-1.1,0.2-0.9,1.8,0,2.1
				c2.9,1,5.2-2.8,6.2-4.9c1.2-2.7,2.3-6.5,1.5-9.5C130.6,80.5,129.6,80.8,129.7,81.5"/>
			<path id="Fill-38" class="st1" d="M137.2,58c1.9,4.1,1.4,9.5,1.1,13.9c-0.3,4.9-1.2,9.8-2.6,14.4c-2.3,7.5-7.7,15.1-15.9,16.6
				c-0.9,0.2-0.7,1.6,0.2,1.6c3.9,0.2,7.3-2.5,9.9-5c3.2-3.1,5.3-6.8,6.8-11c1.9-5.3,2.8-11,3.1-16.6c0.2-4.6,0.5-10.2-2-14.3
				C137.5,57.3,137,57.6,137.2,58"/>
			<path id="Fill-39" class="st1" d="M141.8,70.1c0.9,7.1-0.5,14.2-3.8,20.5c-1.7,3.1-3.9,5.9-6.4,8.4c-2.9,2.8-6.4,4-10.4,4.5
				c-0.8,0.1-1.2,1.4-0.2,1.5c7.8,1.1,13.9-6.2,17.4-12.2c4-6.8,5.5-15,4.1-22.8C142.4,69.7,141.8,69.8,141.8,70.1"/>
			<path id="Fill-40" class="st1" d="M139.9,89.7c-1.6,6.3-3.6,12.7-8.4,17.4c-4.1,4-9.6,6.1-12.8,11c-0.5,0.8,0.6,1.6,1.3,1
				c4.1-4.5,9.9-7.2,13.9-11.9c4.1-4.8,5.6-11.2,6.6-17.3C140.6,89.5,140,89.3,139.9,89.7"/>
			<path id="Fill-41" class="st1" d="M106.8,31.6c7.1,4.1,12.5,10.4,17.1,17.1c4.4,6.5,6.9,14,5.3,21.8c-0.1,0.6,0.7,1.3,1.2,0.7
				c2.1-2.6,1.4-6.3,0.9-9.4c-0.7-4.5-2.6-8.5-5.1-12.4c-4.8-7.3-11.2-14.4-19-18.4C106.7,30.8,106.4,31.4,106.8,31.6"/>
			<path id="Fill-42" class="st1" d="M73.6,31.8c1.8,6.8,5.1,12.9,9.4,18.4c3.3,4.1,8,9.7,13.9,8.6c1-0.2,1-1.8,0-2
				c-2.8-0.4-5-0.9-7.3-2.7c-2.2-1.7-4.1-3.8-5.9-5.9c-4.2-4.9-7.4-10.6-9.4-16.7C74.1,31.2,73.4,31.3,73.6,31.8"/>
			<path id="Fill-43" class="st1" d="M99.8,52.9c5.9,6.3,13.7,13.1,22.7,14c1.1,0.1,1.3-1.6,0.2-1.8c-8.7-2.2-15.6-6.8-22-13.1
				C100.1,51.3,99.2,52.3,99.8,52.9"/>
			<path id="Fill-44" class="st1" d="M53.4,47.2c-0.5-3.4,4.4-6.6,6.8-8.3c1.1-0.8,2.3-1.6,3.5-2.4c1.5-1.1,3-1.4,4.6-2.1
				c0.9-0.4,1-1.4,0.3-1.9c-2.6-1.9-8.1,3.5-10.1,5c-2.8,2.2-7.5,5.8-6.3,10C52.4,48.4,53.5,48,53.4,47.2"/>
			<path id="Fill-45" class="st1" d="M63.9,32.5c-0.9,6.4,3.4,12.9,7,17.8c3.9,5.4,9.4,7.6,16,6.6c1.1-0.2,0.7-1.7-0.2-1.8
				c-2.7-0.3-5.4-0.4-8-1.2c-2.9-1-5.2-3.7-6.9-6.1c-3.4-4.7-6.1-9.6-7.1-15.3C64.6,32.1,64,32.1,63.9,32.5"/>
			<path id="Fill-46" class="st1" d="M57.2,28.2c-4.5,2.9-7.3,7.4-8,12.7c-0.7,5.4,0,12.4,3.1,17c0.5,0.8,1.8,0.3,1.6-0.7
				c-1.2-4.9-3-9.1-3-14.3c0-5.5,2.3-10.6,6.7-14C58.2,28.6,57.8,27.8,57.2,28.2"/>
			<path id="Fill-47" class="st1" d="M47,30.4c-1.7,6.1-2.9,12.3-2.1,18.6c0.4,2.9,1.3,5.7,2.7,8.3c1.4,2.6,3.4,4.5,4.3,7.3
				c0.3,1.2,2.3,1,2.2-0.3c-0.2-2.2-1.6-4-2.9-5.7c-1.9-2.5-3.2-5-4-8.1c-1.8-6.5-0.6-13.5,0.9-19.9C48.2,30.1,47.2,29.8,47,30.4"/>
			<path id="Fill-48" class="st1" d="M50.8,108.8c-3.6-8.7,1.7-17.4,4.5-25.5c0.3-0.8-1.1-1.4-1.4-0.6c-3.5,8.2-8.5,17.7-4.1,26.5
				C50,109.8,51,109.4,50.8,108.8"/>
			<path id="Fill-49" class="st1" d="M73.1,103.8c1.5,1.3,2.4,2.5,4.5,3c2,0.5,4.2,0.1,6.1-0.4c1.2-0.3,0.7-2.1-0.5-1.8
				c-1.9,0.5-3.9,0.9-5.9,0.5c-1.5-0.3-2.5-1.5-3.9-2C73.1,103.1,72.9,103.6,73.1,103.8"/>
			<path id="Fill-50" class="st2" d="M113.5,148.3c1.1,2.1,3.7,3.2,5.7,4.1c3.2,1.5,6.5,2.8,9.7,4.4c6.8,3.5,13.3,7.7,20.1,11.2
				c1,0.5,1.7-0.8,0.8-1.4c-5.8-3.9-11.9-7.4-18.2-10.6c-2.8-1.4-5.7-2.8-8.6-3.9c-3-1.1-6.5-2-8.9-4.2
				C113.7,147.6,113.3,148,113.5,148.3"/>
			<path id="Fill-392" class="st2" d="M89.3,186.9c3.9-1.4,7.3-3.7,10.9-5.8c4.3-2.5,8.6-5.2,12.7-8.1c3.3-2.3,6.5-4.7,9.4-7.4
				c2.9-2.7,3.8-6,4.8-9.7c0.2-0.7-0.9-1-1.1-0.3c-1.2,3.8-2.5,6.6-5.5,9.4c-3.1,2.9-6.6,5.5-10,7.9c-3.6,2.5-7.3,4.8-10.9,7.1
				c-3.4,2.2-6.8,4.6-10.5,6.2C88.7,186.5,89,187.1,89.3,186.9"/>
			<path id="Fill-460" class="st2" d="M55.1,52.2c0.2-0.4,0.3-0.6,0.5-1c0.2-0.6-0.7-1-1.1-0.5c-1.7,2.6-2,6.1-2.3,9.1
				c-0.4,4.1-0.3,8.2-0.5,12.3c-0.3,8.7-0.5,17.3,0,26c0.4,7.9,1.7,15.6,5.4,22.7c2.9,5.6,6.5,11,11.9,14.4c10.6,6.6,24,5.4,34.4-1
				c6.1-3.8,10.2-10.7,13.3-17c3.4-7.1,5.7-14.7,7.5-22.4c0.9-3.8,1.5-7.7,1.2-11.6c-0.1-1.5-2.2-1.5-2.3,0
				c-0.7,7.4-2.6,14.7-5.1,21.7c-2.5,7.2-5.8,14.1-10.3,20.3c-7.7,10.6-22.7,13.5-34.4,8.3c-5.9-2.7-9.2-7.4-12.4-12.8
				c-4.1-6.9-5.5-14.5-6-22.5c-0.5-8-0.7-15.9-0.5-23.9c0.1-3.9,0.1-7.7,0-11.6c-0.1-4,0.4-7.5,1.2-11.4c-0.4-0.1-0.8-0.1-1.2-0.2
				c0.1,0.3,0,0.6,0,1C54.3,52.3,54.9,52.5,55.1,52.2"/>
			<path id="Fill-461" class="st2" d="M123.4,75.4c-0.1,0.1-0.1,0.1-0.2,0.2c-0.3,0.3,0,0.8,0.4,0.7c0.7-0.1,1.3-0.6,1.7-1.1
				c0.6-0.8,3.8-5.3,4.1-2.1c0.2,1.7-0.2,3.2-0.5,4.8c-0.4,2.1-0.9,4.2-1.5,6.2c-0.3,1-0.7,2-1.2,3c-0.5,0.9-0.3,0.8-0.8,0.5
				c-1.4-1-2.8,1.1-1.8,2.3c5,5.5,7.9-9.6,8.3-11.9c0.4-2.5,1.2-6.7-1.4-8.2c-1.5-0.9-3.3,0-4.4,1.1c-1.1,1.1-2.7,3.4-3,4.9
				c0.3,0,0.6,0.1,0.8,0.1c0-0.1,0-0.2,0-0.3C123.9,75.3,123.6,75.2,123.4,75.4"/>
			<path id="Fill-462" class="st2" d="M67.6,31.1c-3.9-3.3-10.7,3.5-12.8,6.3c-4.8,6.3-6.1,15.7-4.5,23.4c0.2,1.2,1.9,0.8,2-0.3
				c0.2-3.3-0.1-6.6,0.2-9.9c0.3-3.7,1.5-7.2,3.3-10.4c2.3-4,6.7-8.3,11.5-8.4C67.7,31.7,67.9,31.3,67.6,31.1"/>
			<path id="Fill-463" class="st2" d="M66.5,24.5c0.6,4.8,0.5,9.2,2.3,13.8c1.4,3.9,3.7,7.3,6.3,10.5c2.5,3.1,5.5,5.8,9.2,7.5
				c1.9,0.9,3.9,1.7,5.9,2.4c2.4,0.8,5,0.5,7.5,0.7c1.1,0.1,1.1-1.4,0.2-1.8c-1.9-0.7-4-0.8-6-1.1c-2.2-0.4-4.3-1.5-6.3-2.4
				c-3.5-1.5-6.2-4.1-8.8-7c-2.8-3.2-5.2-7-6.8-10.9c-1.6-3.8-1.7-7.9-2.8-11.8C66.9,24,66.4,24.2,66.5,24.5"/>
			<path id="Fill-464" class="st2" d="M88.9,46.8c2.6,6,6.8,10.8,12.1,14.7c6.4,4.6,13.7,7.3,21.6,7.5c1.5,0,1.7-2.2,0.3-2.6
				c-1.5-0.4-2.9-0.5-4.5-0.5c-2.2-0.1-4.4-0.9-6.5-1.6c-3.2-1.1-6.2-2.7-9.1-4.4c-5.6-3.4-10-7.9-13.5-13.3
				C89.2,46.2,88.8,46.5,88.9,46.8"/>
			<path id="Fill-465" class="st2" d="M102.7,46.1c2,5,5.2,8.9,9.4,12.2c2.2,1.7,4.6,3.3,6.7,5.1c1.2,1.1,2.4,2.2,3.3,3.6
				c1,1.4,1.4,3.3,2.2,4.9c0.7,1.3,2.8,0.1,2-1.2c-1.4-2.5-2.2-4.9-4.3-7c-1.8-1.9-4.1-3.4-6.2-4.8c-5.3-3.6-9.7-7.4-12.7-13.1
				C103.1,45.6,102.6,45.8,102.7,46.1"/>
			<path id="Fill-466" class="st2" d="M120.9,69.2c0.7,1.3,1.5,2.7,2.5,3.7c0.7,0.7,1.9-0.4,1.1-1.1c-1.1-1-2.1-2.1-3.3-2.9
				C121.1,68.7,120.8,69,120.9,69.2"/>
			<path id="Fill-467" class="st2" d="M120.4,54.2c2,2.5,3.1,5.6,4.5,8.4c1.5,2.9,1.7,5.5,2.5,8.6c0.2,0.7,1.3,0.8,1.5,0
				c0.7-3-0.8-6-2.2-8.5c-1.7-3-3.4-6.3-5.8-8.8C120.5,53.5,120.1,53.9,120.4,54.2"/>
			<path id="Fill-468" class="st2" d="M49.3,19.4c5.9-5.3,13.7-8,21-10.7c7.8-2.9,15.7-5.6,24-6.1c8.1-0.5,16.6,1.3,24,4.8
				c6.9,3.3,12.2,9.4,16.9,15.3c9.2,11.5,14.8,26.6,16.3,41.2c1.5,14.4,0.2,30.4-9.6,41.7c-4,4.6-8.8,6.8-14.8,7.6
				c-1.1,0.1-1.5,1.8-0.3,2c13,2.6,22.5-12.7,25.7-23.1c4.1-13.3,2.9-28.6-0.7-41.9c-3.9-14-11.2-26.1-21.1-36.7
				C120.5,2.7,104.5-1.6,90.1,0.5C82,1.8,74.5,4.8,67,7.8c-6.7,2.7-13.2,5.8-18.2,11.1C48.5,19.2,49,19.7,49.3,19.4"/>
			<path id="Fill-469" class="st2" d="M46.8,21.6c0.2-0.3,0.3-0.3,0.4-0.7c0.2-0.4-0.5-0.7-0.7-0.3c-3.7,7.2-5,15.9-5,23.9
				c0,4.2,0.9,8.1,2.3,12c1.4,4.2,3.4,8.5,4.5,12.8c1,4.2-1.1,8.4-3.1,12c-1.9,3.4-3.9,6.7-4.8,10.5c-1.6,6.6,0.1,13.7,5.6,17.9
				c1.1,0.8,2.3-0.9,1.4-1.8c-5.4-5.5-5.7-13.3-2.4-20c3.2-6.5,7.6-11.7,6.3-19.4c-0.3-1.5-1-3-1.6-4.5c-0.9-2.1-1.6-4.3-2.4-6.5
				c-1.5-4-2.8-7.9-3.1-12.2c-0.6-8.4,1.2-16.5,3.2-24.5c-0.3,0-0.5-0.1-0.8-0.1c0,0.2-0.1,0.3-0.1,0.5
				C46.2,21.6,46.6,21.8,46.8,21.6"/>
			<path id="Fill-470" class="st2" d="M45.5,96.5c-1,4.2-2.2,9.1-0.2,13.3c1.5,3.2,4.9,7.6,8.9,7c1.1-0.2,0.9-1.5,0.3-2
				c-1-0.8-2.3-1.2-3.3-1.9c-1.6-1.1-2.8-2.7-3.7-4.3c-2.1-3.7-1-8-1.4-12C46,96.3,45.6,96.2,45.5,96.5"/>
			<path id="Fill-471" class="st2" d="M50.6,108.7c0.8,3.4,3.2,5.9,6.2,7.6c0.8,0.4,1.4-0.7,0.7-1.2c-2.6-1.8-5-3.5-6-6.7
				C51.3,107.9,50.5,108.2,50.6,108.7"/>
			<path id="Fill-472" class="st2" d="M72.1,114c4.6,2.9,9.8,3.2,15.1,2.7c3.9-0.4,10.1-0.6,12.8-3.7c0.6-0.7,0-1.6-0.9-1.5
				c-1.9,0.3-3.6,1.3-5.5,1.8c-2.5,0.6-5,0.9-7.5,1.2c-2.5,0.3-4.9,0.4-7.3,0.2c-2.2-0.1-4.3-1.2-6.5-1.2
				C72,113.4,71.9,113.8,72.1,114"/>
			<path id="Fill-473" class="st2" d="M97.5,111c0.3,0.7,0.8,1.2,1.3,1.8c0.5,0.6,0.8,1.3,1.3,1.9c0.8,1.1,2.5,0.1,1.8-1.1
				c-0.4-0.8-1.1-1.3-1.8-1.8c-0.6-0.5-1.3-1-2-1.3C97.8,110.3,97.4,110.7,97.5,111"/>
			<path id="Fill-474" class="st2" d="M76.2,115.8c0.6,0.3,0.9,1.7,1.1,2.2c0.3,1,0.3,2.4,1.4,2.8c0.4,0.1,1-0.1,1.2-0.5
				c0.5-1.1-0.6-2.5-1.2-3.4c-0.6-0.9-1.2-1.7-2.4-1.7C76.1,115.3,76,115.7,76.2,115.8"/>
			<path id="Fill-475" class="st2" d="M74.9,119.4c4.2,3.6,10,4.3,15.3,2.8c3.6-1.1,8.9-3.4,9.2-7.6c0.1-1.2-1.4-1.3-1.9-0.5
				c-2.4,3.1-5.3,4.6-8.9,5.8c-4.6,1.6-8.8,0.1-13.3-0.9C74.9,118.9,74.7,119.2,74.9,119.4"/>
			<path id="Fill-476" class="st2" d="M79,118.7c3.8,1.9,9.9,4.1,13.7,1.2c0.9-0.7,0.4-2.1-0.8-1.8c-2.2,0.6-4,1.1-6.3,0.9
				c-2.2-0.2-4.3-0.7-6.5-0.9C78.9,118,78.7,118.5,79,118.7"/>
			<path id="Fill-477" class="st2" d="M79.2,125.1c3,2.5,7.3,2.9,10.8,1.3c0.8-0.4,0.2-1.6-0.6-1.4c-3.4,0.8-6.6,1-9.9-0.4
				C79.2,124.5,79,124.9,79.2,125.1"/>
			<path id="Fill-478" class="st2" d="M92.5,73.2c-0.5,0.9-0.4,2.2-0.5,3.2c-0.2,1.3-0.3,2.6-0.4,3.9c0,2.1,3.3,2.1,3.3,0
				c0-1.6,0.5-7.2-1.9-7.4C92.8,72.9,92.6,73,92.5,73.2"/>
			<path id="Fill-479" class="st2" d="M71.6,57.9c-2.1-0.9-5.8,0.1-7.8,1c-2.3,1.1-4.6,3.4-3.6,6.1c0.3,1,1.7,0.8,1.8-0.2
				c0.4-2.7,1.7-3.8,4.2-4.7c1.7-0.6,3.9-0.6,5.5-1.5C72,58.4,71.9,58,71.6,57.9"/>
			<path id="Fill-480" class="st2" d="M92.8,59.6c5.1,0.3,7.3,4.7,10.3,8.1c0.7,0.8,2.1-0.3,1.5-1.1c-2.7-4-6.5-8.3-11.8-7.5
				C92.5,59.1,92.5,59.6,92.8,59.6"/>
			<path id="Fill-481" class="st2" d="M118.1,111.9c-0.3-0.4-0.6-0.5-0.8-0.2c-0.3,0.6-0.4,0.8-0.6,1.4c-0.3,1-0.2,2.1-0.1,3.1
				c0.2,2.1,1.2,4,2.8,5.4c3.2,2.9,8.4,2.6,12.2,1.3c1.2-0.4,1.1-2.5-0.3-2.3c-2.8,0.3-5.7,0.7-8.5-0.1c-3.9-1.1-4.7-5.6-4.1-9
				c0.1-0.4-0.4-0.8-0.8-0.4c-0.1,0.1-0.2,0.3-0.2,0.4C117.6,111.8,117.9,112,118.1,111.9"/>
			<path id="Fill-482" class="st2" d="M136.4,115.1c-1,1.4-3.1,1.8-4.7,1.3c-1.9-0.5-1.3-1.5-1.5-3.1c-0.1-1-1.1-1.4-1.9-0.8
				c-2.6,2.1-0.3,5.5,2.2,6.3c2.7,0.8,5.6-0.8,6.8-3.2C137.5,115,136.8,114.6,136.4,115.1"/>
			<path id="Fill-483" class="st2" d="M137.7,116.2c-2,3.2-6.1,3.9-9.5,3.2c-1.1-0.3-1.5,1.3-0.5,1.7c4.1,1.4,9.2-0.2,10.5-4.6
				C138.2,116.1,137.8,116,137.7,116.2"/>
			<path id="Fill-484" class="st2" d="M76.7,138c1.8,1.4,1.9,4.4,2,6.4c0.2,2.2-0.1,4.7,0.6,6.7c0.4,1.3,2.6,1.2,2.5-0.3
				c-0.2-3-0.5-13.5-4.9-13.4C76.7,137.4,76.5,137.8,76.7,138"/>
			<path id="Fill-485" class="st2" d="M109.9,124.5c0,2.5-0.4,5-0.6,7.5c-0.2,2.7-0.1,5.4,0,8.2c0.1,3.2,0.1,9.2,3.1,11.1
				c0.8,0.5,1.7-0.2,1.8-1c0.2-1.8-0.9-3.6-1.3-5.3c-0.6-2.6-0.8-5.2-1-7.8c-0.2-2.4-0.3-4.8-0.4-7.1c-0.1-1.9,0.1-3.9-0.7-5.7
				C110.6,123.8,109.9,124,109.9,124.5"/>
			<path id="Fill-486" class="st2" d="M91.3,157.5c-0.1,1.5,0.7,3,2.4,2.8c1.6-0.1,3.1-1.2,4.2-2.3c0.9-0.9-0.5-2.3-1.4-1.4
				c-0.7,0.6-1.5,1.2-2.4,1.7c-1,0.6-1.5,0.2-1.7-0.9C92.3,156.7,91.3,156.9,91.3,157.5"/>
			<path id="Fill-487" class="st2" d="M35.8,197.6c1.3-1.5,1.7-3.6,2.3-5.4c0.9-2.7,1.6-5.5,2.6-8.1c1.9-5.2,5.3-8.7,9.4-12.2
				c5.2-4.2,10.5-8.2,16-12c2.5-1.7,5-3.4,7.5-5.1c2.5-1.7,4.8-3.7,7.5-5.2c1.2-0.7,0.4-2.9-1-2.3c-2.7,1.1-4.9,2.8-7.2,4.5
				c-2.7,1.9-5.6,3.7-8.3,5.6c-5.4,3.7-10.7,7.7-15.8,11.8c-4,3.3-7.5,6.6-9.6,11.4c-2.3,5.3-2.8,11.2-3.8,16.8
				C35.3,197.6,35.6,197.9,35.8,197.6"/>
			<path id="Fill-488" class="st2" d="M111.2,145.5c6.4,1.4,11.8,4.6,17.3,8c5.6,3.4,11.5,6.2,17.3,9.3c5.9,3.2,11.5,7.1,16.3,11.9
				c4.6,4.6,4.8,10.3,5.6,16.4c0.2,1.7,2.5,1,2.7-0.4c0.7-5.4-0.5-12.1-4.2-16.4c-4.7-5.5-10.9-9.8-17.2-13.3
				c-6.3-3.5-12.9-6.3-19.2-9.9c-5.5-3.2-11.9-7.1-18.5-6.9C110.7,144.3,110.5,145.3,111.2,145.5"/>
			<path id="Fill-489" class="st2" d="M74.6,153.7C74.6,153.7,74.6,153.7,74.6,153.7c0.1-0.3-0.2-0.5-0.4-0.4
				c-1.7,1-0.7,6.6-0.6,7.9c0.4,4,1.1,8.1,2.1,12c0.8,3.3,3.5,14,8.8,11.6c1-0.4,1-2.1,0-2.6c-4.1-1.8-5.3-7.1-6.3-11.1
				c-0.9-3.4-1.6-6.8-2.3-10.2c-0.3-1.8-0.5-3.7-0.8-5.6c-0.1-0.5-0.1-0.9-0.2-1.4c-0.2-0.9-0.3-0.1-0.6-0.1
				C74.4,153.9,74.5,153.8,74.6,153.7"/>
			<path id="Fill-490" class="st2" d="M124.8,151c-1.5,4.2-5.5,7.1-8.7,9.9c-4.1,3.5-8,7.1-12.4,10.2c-3.7,2.6-7.5,4.8-11.4,7
				c-2.7,1.6-5.6,3.4-8.8,3.5c-1.5,0-1.9,1.9-0.7,2.7c2.5,1.8,7-1.1,9.1-2.3c4.3-2.4,8.6-5,12.6-7.9c4.8-3.5,9.1-7.6,13.4-11.7
				c3.3-3.1,7.4-6.6,8.2-11.2C126.2,150.6,125.1,150.2,124.8,151"/>
			<path id="Fill-676" class="st2" d="M65.8,74.5c0.2,1.8-2,7,1.1,7.6c0.9,0.1,1.5-0.3,1.6-1.2c0.1-0.5-0.2-0.9-0.3-1.4
				c-0.1-0.6,0-1.3,0-1.9c0-1.2,0-2.4-0.5-3.5C67.2,73.2,65.7,73.6,65.8,74.5"/>
			<path id="Fill-677" class="st2" d="M69.8,97.5c1.1,3,1.6,5.4,4.5,7.1c2.9,1.7,7.1,1.2,10.3,0.4c1.1-0.3,0.7-1.7-0.2-1.8
				c-2.8-0.3-5.7,0.4-8.5-0.3c-3.2-0.8-3.7-3.6-5.4-5.8C70.2,96.9,69.7,97.1,69.8,97.5"/>
		</g>
	</g>
	<g id="Group-2_1_" transform="translate(0.000000, 122.000000)">
		<path id="Fill-76" class="st1" d="M67.7,124.7c3.1-2.2,3.5-7.3,4.2-10.5c0.4-1.8,1.1-3.6,1.6-5.4c0.4-1.4,1-3.3,0.4-4.7
			c-0.2-0.5-1.2-0.4-1.3,0.2c-0.4,1.6-0.5,3.2-1,4.7c-0.5,1.6-1,3.2-1.4,4.8c-0.4,1.9-0.7,3.8-1.2,5.6c-0.4,1.8-1.3,3.3-1.9,5
			C67.2,124.7,67.5,124.9,67.7,124.7"/>
		<path id="Fill-77" class="st1" d="M55.4,103.3c3.6,2.2,7.1,3.2,11.1,3.8c2.6,0.4,6.5,1.6,8.5-0.7c0.5-0.6-0.1-1.5-0.8-1.1
			c-2.4,1.4-5.4,0.7-8,0.4c-3.8-0.4-7.1-1.2-10.6-2.9C55.4,102.6,55.1,103.1,55.4,103.3"/>
		<path id="Fill-78" class="st1" d="M63.7,108.6c2.4,0.1,4.7,0.3,7.1-0.1c0.8-0.1,0.4-0.9-0.3-0.8c-2.2,0.2-4.5,0.2-6.7,0.2
			C63.1,108,63.1,108.6,63.7,108.6"/>
		<path id="Fill-79" class="st1" d="M59.3,85.2c0.9,1.9,4.2,2.9,6.1,3.4c2.2,0.5,5.7,0.1,6.8-2.3c0.4-0.9-0.6-1.8-1.3-1.1
			c-0.7,0.7-0.5,1.3,0,2.1c0.5,0.8,1.6,0.3,1.5-0.6c-0.1-0.5-0.3-0.6-0.5-1c-0.1,0.4-0.2,0.8-0.3,1.1c0.1-0.1,0.2-0.1,0.3-0.2
			c-0.3-0.5-0.6-1-0.9-1.5c-0.9,0.5-1.5,1.2-2.5,1.6c-1.2,0.4-2.6,0.3-3.8,0.1c-1.8-0.3-3.4-1.7-5.2-1.9
			C59.3,84.7,59.2,85,59.3,85.2"/>
		<path id="Fill-80" class="st1" d="M72,77.2c0.3,1.6-0.2,3.2-1,4.6c-0.5,1-1.6,2-1.8,3.1c-0.1,0.5,0.5,1.1,1.1,0.8
			c1.4-0.9,2-2.8,2.5-4.2c0.5-1.5,0.5-3.1-0.3-4.5C72.5,76.6,72,76.9,72,77.2"/>
		<path id="Fill-81" class="st1" d="M77.7,76.2c1.9,0.8-2.2,8.2-2.4,9.6c-0.2,1,1.3,1.4,1.7,0.4c0.7-1.7,4.2-9.6,1-10.4
			C77.6,75.7,77.5,76.1,77.7,76.2"/>
		<path id="Fill-82" class="st1" d="M81.9,74c-0.1,1.1-0.4,2.1-0.6,3.2c-0.1,0.5,0.4,0.8,0.5,0.2c0.2-1.1,0.6-2.3,0.4-3.5
			C82.1,73.7,81.9,73.7,81.9,74"/>
		<path id="Fill-83" class="st1" d="M65.2,81c-0.2,0.9-0.2,1.9-1,2.7c0.3-0.1,0.6-0.2,0.9-0.3c-0.3,0-0.3,0-0.6-0.1
			c-1.1-0.3-1.5,0.8-0.7,1.2c0.4,0.2,0.8,0.5,1.4,0.4c0.7-0.2,0.9-0.4,1.1-0.9c0.3-0.9,0-1.8-0.1-2.7C65.9,80.8,65.2,80.6,65.2,81"
			/>
		<path id="Fill-84" class="st1" d="M61.2,81.2c-0.8-1-1.8-1.8-3-2.3c-0.4-0.2-1,0.3-0.9,0.8c0,0.3,0.1,0.6,0.3,0.8
			c0.2,0.2,0.4,0.2,0.7,0.3c0.6,0.2,1-0.7,0.6-1.1c-0.1-0.1-0.1-0.1-0.2-0.2c-0.3-0.2,0.2,0.5,0,0.1c-0.2,0.3-0.5,0.7-0.7,1
			c1.1,0,1.9,0.6,2.7,1.3C61,82,61.5,81.5,61.2,81.2"/>
		<path id="Fill-85" class="st1" d="M74.5,90.9c-2.8,2.4-7.7,6.1-7.3,10.2c0.1,0.8,1.1,0.9,1.4,0.2c0.9-2,1.3-3.8,2.8-5.5
			c1.2-1.5,2.7-2.8,3.7-4.4C75.4,91,74.9,90.6,74.5,90.9"/>
		<path id="Fill-518" class="st2" d="M53.5,72c-0.8,1.8-1,4.5-1.1,6.4c-0.1,1.9,0,3.7,0,5.6c0,1.7-0.2,3.4,0.3,5.1
			c0.3,0.9,2.1,1,2.3,0c0.8-3.7-0.2-7.8-0.3-11.5c-0.1-1.2,1-5.1-0.7-5.8C53.7,71.7,53.6,71.8,53.5,72"/>
		<path id="Fill-519" class="st2" d="M53.8,73.6c0.3-0.7,0.6-1.3,0.9-2c0.6-1.2,2.1-1.7,3.2-2.3c2.1-1,4-2.5,6-3.7
			c1.7-1.1,3.5-2,5.3-3c2.1-1.1,4.1-1.5,6.5-2c0.9-0.2,0.8-1.6,0-1.8c-4.2-1-9.3,3-12.7,5c-2.6,1.5-5.1,3.2-7.7,4.7
			c-1.9,1.1-2,2.8-2,4.8C53.3,73.8,53.6,73.9,53.8,73.6"/>
		<path id="Fill-520" class="st2" d="M75.7,59.8c1.7,0.5,2.9,1.8,4.2,2.9c1.2,1.1,2.6,2.1,3.9,3.1c3.5,2.7,0.9,6.4-0.1,9.6
			c-0.4,1.1,1.4,1.8,2,0.8c1.6-2.9,4.1-7.7,1.3-10.7c-1.7-1.8-4.1-3.1-6.1-4.6c-1.4-1-3.2-2.4-5.1-2.2C75.2,58.9,75,59.6,75.7,59.8"
			/>
		<path id="Fill-521" class="st2" d="M75.3,66.4c1.8,1.9,3.3,3.6,4.6,5.9c0.9,1.6,1.2,3,0.7,4.8c-0.5,1.6-1.5,3-1.7,4.7
			c-0.1,1.1,1.4,1.2,1.9,0.5c2.5-3.2,3.3-7.2,1.4-10.7c-0.9-1.8-4-6.6-6.7-5.8C75.2,65.9,75.2,66.2,75.3,66.4"/>
		<path id="Fill-522" class="st2" d="M71.3,70.2c1.7,2.5,3.4,4.7,3.1,8.1c-0.2,2.3-0.5,4-1.5,6.1c-0.4,0.8,0.2,1.5,1,1.4
			c2.2-0.4,2.3-5.2,2.4-7.1c0.2-3.8-1.9-6.8-4.6-8.8C71.4,69.7,71.1,70,71.3,70.2"/>
		<path id="Fill-523" class="st2" d="M63.5,72.5c1.1,0.7,2.2,1.3,3.1,2.1c0.8,0.8,1.4,1.7,2.6,2.1c0.6,0.2,1.3-0.4,1.1-1
			c-0.4-1.1-1.8-1.9-2.8-2.6c-1.1-0.7-2.3-1.3-3.7-1.4C63.2,71.7,63.1,72.3,63.5,72.5"/>
		<path id="Fill-524" class="st2" d="M67.8,76.4c-0.1,1.3,0.2,2.6,0.1,3.9c-0.1,1.3-1,2.3-0.5,3.7c0.3,1,2,1.1,2.3,0
			c0.6-2.6,1.1-5.5-0.5-7.9C68.8,75.5,67.9,75.8,67.8,76.4"/>
		<path id="Fill-525" class="st2" d="M59.3,76.2c0.5,0.8,1.2,1.4,1.9,2.1c0.6,0.8,1.2,2,2.1,2.4c0.5,0.2,1-0.3,1-0.8
			c0-1.1-1.1-1.9-1.8-2.5c-0.8-0.7-1.8-1.4-2.8-1.6C59.4,75.7,59.1,76,59.3,76.2"/>
		<path id="Fill-526" class="st2" d="M65.1,78.9c-2,1.2-2.6,3.2-0.8,4.6c0.6,0.5,2.1,0.2,1.8-0.5c-0.3-0.6-0.6-1.2-0.6-1.8
			c0-0.7,0.6-1.3,0.8-2C66.4,78.9,65.6,78.6,65.1,78.9"/>
		<path id="Fill-527" class="st2" d="M67.5,85.1c1.7,1.2,5.7,0.9,6.7-1.1c0.4-0.7-0.4-1.5-1.2-1.1c-0.8,0.5-1.5,0.9-2.5,1.2
			c-1,0.2-2,0-2.9,0.1C67.1,84.3,67.2,84.8,67.5,85.1"/>
		<path id="Fill-528" class="st2" d="M72.3,83.6c2.4,3,7.7-0.5,7.9-3.1c0.1-0.8-1.3-0.9-1.8-0.4c-1.2,1.3-2.9,4.2-5.4,2.9
			C72.6,82.7,72,83.2,72.3,83.6"/>
		<path id="Fill-529" class="st2" d="M73.9,83.8c-3.6,0.3-5.8,6.1-3.9,8.6c0.7,0.9,2,0.1,1.6-0.8c-1-2.1,0.2-6.1,2.6-7.1
			C74.4,84.3,74.3,83.7,73.9,83.8"/>
		<path id="Fill-530" class="st2" d="M53.3,88.8c-1.5,0.4-1,3.2-0.9,4.3c0.2,2.1,0.6,3.5,2.6,4.6c5,2.6,12.2,5.8,17.7,3.1
			c1-0.5,0.5-2-0.6-2c-2.4-0.1-4.6,0.4-7,0.1c-2.6-0.4-5.1-1.4-7.4-2.6c-1.6-0.8-2.6-1.1-3.1-2.9c-0.3-1.3-0.4-3.3-1.1-4.4
			C53.5,88.8,53.4,88.8,53.3,88.8"/>
		<path id="Fill-531" class="st2" d="M49.7,92.9c-1.6,2.2,1.1,4.7,2.6,6c2.4,2.1,5.5,3.3,8.5,4.1c2.7,0.7,5.4,0.8,8.1,0.8
			c1.6,0,4.4,0.1,5.2-1.8c0.5-1.3-1.2-2.4-1.8-1.1c-0.5,1.1-3.5,0.8-4.4,0.8c-1.8,0-3.6,0-5.5-0.3c-2.3-0.4-4.5-1.1-6.6-2.1
			c-1.6-0.8-6.6-3.4-5.7-6.1C50.4,92.8,49.9,92.6,49.7,92.9"/>
		<path id="Fill-532" class="st2" d="M75.1,101c-2,2.9-2.2,6.9-2.9,10.2c-0.9,4.1-1.8,8.2-2.9,12.3c-0.3,1.2,1.7,1.7,2.1,0.5
			c2.5-7.4,3.2-15.1,4.8-22.6C76.4,100.9,75.5,100.5,75.1,101"/>
		<path id="Fill-533" class="st2" d="M48.8,97c0.1-0.2,0.2-0.3,0.4-0.5c-0.2-0.2-0.4-0.4-0.6-0.5c-1.7,3.7-2.4,8.2-3.2,12.2
			c-0.8,4.2-1.2,8.5-1,12.8c0.1,1.1,1.5,1.1,1.6,0c0.2-4.4,0.5-8.7,1.2-13.1c0.6-3.9,1.9-7.7,2.1-11.7c0-0.5-0.7-0.6-0.8-0.1
			c0,0.2-0.1,0.4-0.1,0.7C48.3,97,48.6,97.3,48.8,97"/>
		<path id="Fill-534" class="st2" d="M72.4,97.9c0.3,0.4,0.6,0.7,0.6,1.3c0,0.5-0.3,1-0.4,1.5c-0.2,1,0.9,1.5,1.7,0.9
			c1.6-1.3,1-4.2-1.1-4.7C72.6,96.6,72,97.3,72.4,97.9"/>
		<path id="Fill-535" class="st2" d="M84.7,76.8c-3.6,1.9-6.9,5.4-8.8,9c-1.6,3-0.2,5.3,3.1,5c5.7-0.4,13.2-10.7,6.8-14.9
			c-0.7-0.4-1.5,0.4-1.1,1.1c0.8,1.3,1.6,2.2,1.2,3.9c-0.3,1.1-1,2.3-1.6,3.3c-1.2,2.1-2.9,3.5-5.2,4.1C75.5,89.3,79.3,84,80,83
			c1.6-2,3.3-3.9,5.1-5.7C85.4,77,85,76.6,84.7,76.8"/>
		<path id="Fill-536" class="st2" d="M79.2,89c-0.4,0.9-2.7,1.5-3.6,1.8c-1.2,0.5-3.4,0.6-4.2,1.5c-0.2,0.2-0.2,0.6,0,0.8
			c1.1,1.5,4.3-0.3,5.5-0.9c1.1-0.6,3.6-1.7,3.3-3.2C80.1,88.7,79.4,88.6,79.2,89"/>
		<path id="Fill-537" class="st2" d="M72.7,92.8c-1.1,0.2-1.8,1.3-2.3,2.2c-0.6,1.2-1.6,2.8-1.1,4.1c0.2,0.7,1.3,0.9,1.7,0.2
			c0.6-1,0.5-2.2,0.9-3.3c0.3-0.9,0.6-1.9,1.2-2.6C73.4,93.1,73.1,92.7,72.7,92.8"/>
		<path id="Fill-538" class="st2" d="M67.3,87.3c1.4,2.2,1.4,4.3,0.7,6.7c-0.2,0.7,1,1.2,1.3,0.5c1.2-2.4,1.6-6.1-1.5-7.6
			C67.5,86.7,67.1,87,67.3,87.3"/>
		<path id="Fill-539" class="st2" d="M53.4,86.9c-0.4,2.1,0.6,3.9,1.9,5.5c1.7,2.1,3.6,2.8,6.2,3.3c0.8,0.1,1.2-1.1,0.3-1.3
			c-1.9-0.4-3.5-0.7-5-2.1c-1.6-1.4-2.7-3.3-3-5.4C53.8,86.8,53.4,86.7,53.4,86.9"/>
		<path id="Fill-540" class="st2" d="M57.6,76.3c0.2,0.2-0.1,3-0.2,3.4c-0.1,1.1-0.3,2.3-0.2,3.5c0,0.6,0.7,0.9,0.8,0.2
			c0.1-1.5,0.2-3,0.2-4.5c0-0.7,0.1-2.8-0.5-3C57.5,75.7,57.4,76.1,57.6,76.3"/>
		<path id="Fill-541" class="st2" d="M57.3,81.1c0.7,2.8,2.5,5.9,5.1,7.1c2.3,1.2,6,0.8,5.9-2.6c0-0.9-1.1-1.2-1.6-0.4
			c-3,4.7-6.9-2.7-9.1-4.3C57.4,80.7,57.2,80.9,57.3,81.1"/>
		<path id="Fill-542" class="st2" d="M61.2,79.8c-0.4-0.5-0.7-0.8-1.2-1c-0.5-0.2-1,0.1-1.5,0.3c-0.9,0.6-1.5,2-1.2,3.2
			c0.1,0.5,0.9,0.6,1,0c0.1-0.6,0.3-1.2,0.7-1.7c0.5-0.7,1.2-0.5,1.9-0.3C61.2,80.4,61.4,80.1,61.2,79.8"/>
	</g>
	<g id="Group-2_2_" transform="translate(0.000000, 122.000000)">
		<path id="Fill-76_1_" class="st1" d="M242.9,123.7c0.2,0.1,0.5,0,0.4-0.2c-0.6-1.7-1.5-3.3-1.9-5c-0.5-1.9-0.8-3.8-1.2-5.6
			c-0.3-1.6-0.9-3.2-1.4-4.8c-0.5-1.6-0.6-3.2-1-4.7c-0.1-0.5-1.1-0.7-1.3-0.2c-0.7,1.4-0.1,3.3,0.4,4.7c0.6,1.8,1.2,3.6,1.6,5.4
			C239.4,116.4,239.8,121.5,242.9,123.7"/>
		<path id="Fill-77_1_" class="st1" d="M255.2,102.3c0.3-0.2,0-0.7-0.3-0.5c-3.5,1.7-6.8,2.4-10.6,2.9c-2.6,0.3-5.6,1.1-8-0.4
			c-0.7-0.4-1.3,0.5-0.8,1.1c2.1,2.3,5.9,1.1,8.5,0.7C248.1,105.5,251.6,104.6,255.2,102.3"/>
		<path id="Fill-78_1_" class="st1" d="M246.8,107.6c0.6,0,0.7-0.6,0-0.7c-2.3,0-4.5,0-6.7-0.2c-0.8-0.1-1.1,0.6-0.3,0.8
			C242.1,107.9,244.5,107.7,246.8,107.6"/>
		<path id="Fill-79_1_" class="st1" d="M251.3,84.2c0.1-0.2,0-0.5-0.2-0.4c-1.8,0.2-3.4,1.6-5.2,1.9c-1.2,0.2-2.6,0.4-3.8-0.1
			c-1-0.4-1.6-1.1-2.5-1.6c-0.3,0.5-0.6,1-0.9,1.5c0.1,0.1,0.2,0.1,0.3,0.2c-0.1-0.4-0.2-0.8-0.3-1.1c-0.2,0.4-0.4,0.5-0.5,1
			c-0.1,0.9,0.9,1.5,1.5,0.6c0.5-0.8,0.7-1.4,0-2.1c-0.7-0.7-1.7,0.2-1.3,1.1c1.1,2.4,4.6,2.8,6.8,2.3
			C247.1,87.1,250.4,86.1,251.3,84.2"/>
		<path id="Fill-80_1_" class="st1" d="M238.6,76.2c0-0.3-0.4-0.6-0.6-0.2c-0.8,1.4-0.8,3-0.3,4.5c0.5,1.4,1.1,3.4,2.5,4.2
			c0.6,0.4,1.2-0.2,1.1-0.8c-0.2-1.1-1.3-2.1-1.8-3.1C238.8,79.3,238.3,77.8,238.6,76.2"/>
		<path id="Fill-81_1_" class="st1" d="M232.9,75.2c0.2-0.1,0.1-0.5-0.2-0.4c-3.2,0.8,0.3,8.7,1,10.4c0.4,1,1.9,0.6,1.7-0.4
			C235,83.3,231,76,232.9,75.2"/>
		<path id="Fill-82_1_" class="st1" d="M228.7,73c0-0.3-0.3-0.4-0.3-0.1c-0.2,1.2,0.1,2.4,0.4,3.5c0.1,0.5,0.7,0.3,0.5-0.2
			C229.1,75.2,228.8,74.2,228.7,73"/>
		<path id="Fill-83_1_" class="st1" d="M245.4,80c-0.1-0.3-0.8-0.2-0.8,0.1c-0.1,0.9-0.5,1.8-0.1,2.7c0.2,0.5,0.4,0.7,1.1,0.9
			c0.5,0.2,1-0.2,1.4-0.4c0.8-0.4,0.4-1.4-0.7-1.2c-0.3,0.1-0.4,0.1-0.6,0.1c0.3,0.1,0.6,0.2,0.9,0.3
			C245.6,81.9,245.6,80.9,245.4,80"/>
		<path id="Fill-84_1_" class="st1" d="M249.4,80.2c-0.3,0.4,0.2,0.8,0.5,0.5c0.8-0.7,1.6-1.3,2.7-1.3c-0.2-0.3-0.5-0.7-0.7-1
			c-0.2,0.4,0.3-0.3,0-0.1c-0.1,0.1-0.1,0.1-0.2,0.2c-0.4,0.5,0,1.3,0.6,1.1c0.3-0.1,0.5-0.1,0.7-0.3c0.2-0.2,0.3-0.5,0.3-0.8
			c0-0.5-0.5-0.9-0.9-0.8C251.3,78.3,250.3,79.2,249.4,80.2"/>
		<path id="Fill-85_1_" class="st1" d="M236,89.9c-0.3-0.3-0.9,0.1-0.7,0.5c1,1.6,2.4,3,3.7,4.4c1.5,1.7,1.9,3.5,2.8,5.5
			c0.3,0.7,1.3,0.6,1.4-0.2C243.8,96,238.8,92.3,236,89.9"/>
		<path id="Fill-518_1_" class="st2" d="M257.1,71c-0.1-0.2-0.3-0.2-0.5-0.2c-1.6,0.6-0.6,4.6-0.7,5.8c-0.2,3.7-1.1,7.8-0.3,11.5
			c0.2,1,2,0.9,2.3,0c0.5-1.6,0.3-3.4,0.3-5.1c0-1.9,0.1-3.7,0-5.6C258.1,75.4,257.9,72.8,257.1,71"/>
		<path id="Fill-519_1_" class="st2" d="M256.8,72.6c0.1,0.3,0.5,0.1,0.5-0.1c0-2-0.1-3.7-2-4.8c-2.6-1.5-5.1-3.2-7.7-4.7
			c-3.4-2-8.5-6.1-12.7-5c-0.8,0.2-0.9,1.6,0,1.8c2.3,0.5,4.3,0.8,6.5,2c1.8,0.9,3.6,1.9,5.3,3c2,1.2,3.9,2.7,6,3.7
			c1.1,0.5,2.6,1.1,3.2,2.3C256.2,71.3,256.5,72,256.8,72.6"/>
		<path id="Fill-520_1_" class="st2" d="M234.9,58.8c0.7-0.2,0.5-1-0.2-1c-1.9-0.2-3.7,1.1-5.1,2.2c-2,1.5-4.4,2.8-6.1,4.6
			c-2.8,3-0.4,7.8,1.3,10.7c0.6,1,2.4,0.3,2-0.8c-1.1-3.2-3.6-6.9-0.1-9.6c1.3-1,2.7-2,3.9-3.1C232,60.6,233.2,59.3,234.9,58.8"/>
		<path id="Fill-521_1_" class="st2" d="M235.2,65.4c0.2-0.2,0.1-0.5-0.2-0.5c-2.7-0.8-5.8,4-6.7,5.8c-1.9,3.5-1.1,7.5,1.4,10.7
			c0.5,0.7,2,0.6,1.9-0.5c-0.2-1.7-1.2-3.1-1.7-4.7c-0.5-1.8-0.2-3.2,0.7-4.8C231.9,69,233.5,67.3,235.2,65.4"/>
		<path id="Fill-522_1_" class="st2" d="M239.3,69.2c0.2-0.2-0.2-0.6-0.4-0.4c-2.7,2-4.8,5.1-4.6,8.8c0.1,1.8,0.1,6.7,2.4,7.1
			c0.8,0.1,1.4-0.6,1-1.4c-0.9-2-1.3-3.8-1.5-6.1C235.9,73.9,237.6,71.7,239.3,69.2"/>
		<path id="Fill-523_1_" class="st2" d="M247.1,71.5c0.4-0.2,0.3-0.8-0.2-0.8c-1.4,0.1-2.6,0.7-3.7,1.4c-1,0.7-2.4,1.5-2.8,2.6
			c-0.2,0.5,0.5,1.2,1.1,1c1.2-0.4,1.8-1.3,2.6-2.1C245,72.8,246,72.2,247.1,71.5"/>
		<path id="Fill-524_1_" class="st2" d="M242.8,75.4c0-0.7-1-0.9-1.4-0.3c-1.6,2.4-1.1,5.3-0.5,7.9c0.3,1.1,1.9,1,2.3,0
			c0.5-1.3-0.4-2.4-0.5-3.7C242.6,78,242.8,76.7,242.8,75.4"/>
		<path id="Fill-525_1_" class="st2" d="M251.3,75.2c0.2-0.2-0.1-0.5-0.3-0.4c-1,0.2-2,1-2.8,1.6c-0.7,0.6-1.8,1.4-1.8,2.5
			c0,0.5,0.5,1,1,0.8c0.9-0.4,1.5-1.6,2.1-2.4C250,76.6,250.8,76,251.3,75.2"/>
		<path id="Fill-526_1_" class="st2" d="M245.5,77.9c-0.5-0.3-1.2,0-1.1,0.4c0.2,0.7,0.8,1.3,0.8,2c0,0.6-0.3,1.2-0.6,1.8
			c-0.3,0.7,1.2,1,1.8,0.5C248,81.1,247.5,79.1,245.5,77.9"/>
		<path id="Fill-527_1_" class="st2" d="M243.1,84.1c0.3-0.2,0.4-0.8-0.1-0.9c-1-0.2-2,0.1-2.9-0.1c-0.9-0.2-1.7-0.7-2.5-1.2
			c-0.8-0.4-1.5,0.4-1.2,1.1C237.4,84.9,241.4,85.3,243.1,84.1"/>
		<path id="Fill-528_1_" class="st2" d="M238.3,82.6c0.3-0.4-0.3-0.9-0.8-0.6c-2.4,1.3-4.2-1.6-5.4-2.9c-0.5-0.5-1.8-0.5-1.8,0.4
			C230.6,82.1,235.9,85.6,238.3,82.6"/>
		<path id="Fill-529_1_" class="st2" d="M236.7,82.8c-0.4,0-0.6,0.5-0.2,0.7c2.4,1,3.6,5,2.6,7.1c-0.5,0.9,0.9,1.7,1.6,0.8
			C242.5,88.9,240.3,83.1,236.7,82.8"/>
		<path id="Fill-530_1_" class="st2" d="M257.3,87.8c-0.1,0-0.2,0-0.2,0.1c-0.7,1.1-0.8,3.1-1.1,4.4c-0.5,1.8-1.5,2.1-3.1,2.9
			c-2.3,1.2-4.8,2.2-7.4,2.6c-2.4,0.4-4.6-0.2-7-0.1c-1,0-1.6,1.5-0.6,2c5.6,2.7,12.8-0.5,17.7-3.1c1.9-1,2.4-2.5,2.6-4.6
			C258.3,91,258.8,88.2,257.3,87.8"/>
		<path id="Fill-531_1_" class="st2" d="M260.9,91.9c-0.2-0.3-0.7-0.1-0.5,0.2c0.9,2.6-4.1,5.3-5.7,6.1c-2.1,1-4.3,1.7-6.6,2.1
			c-1.8,0.3-3.6,0.3-5.5,0.3c-0.9,0-3.9,0.3-4.4-0.8c-0.5-1.3-2.3-0.2-1.8,1.1c0.8,1.9,3.6,1.8,5.2,1.8c2.7,0,5.5-0.1,8.1-0.8
			c3-0.8,6.1-2,8.5-4.1C259.8,96.6,262.4,94.1,260.9,91.9"/>
		<path id="Fill-532_1_" class="st2" d="M235.5,100c-0.4-0.6-1.3-0.2-1.1,0.4c1.6,7.6,2.3,15.2,4.8,22.6c0.4,1.2,2.5,0.7,2.1-0.5
			c-1.1-4.1-2-8.2-2.9-12.3C237.7,106.9,237.4,103,235.5,100"/>
		<path id="Fill-533_1_" class="st2" d="M261.8,96c0.2,0.2,0.5,0,0.4-0.3c0-0.2-0.1-0.4-0.1-0.7c-0.1-0.5-0.8-0.4-0.8,0.1
			c0.2,3.9,1.5,7.8,2.1,11.7c0.7,4.3,1.1,8.7,1.2,13.1c0,1.1,1.5,1.1,1.6,0c0.3-4.3-0.2-8.6-1-12.8c-0.7-4-1.5-8.5-3.2-12.2
			c-0.2,0.2-0.4,0.4-0.6,0.5C261.6,95.7,261.7,95.9,261.8,96"/>
		<path id="Fill-534_1_" class="st2" d="M238.2,96.9c0.4-0.5-0.2-1.2-0.9-1.1c-2.1,0.6-2.7,3.5-1.1,4.7c0.8,0.6,1.9,0,1.7-0.9
			c-0.1-0.5-0.4-1-0.4-1.5C237.6,97.6,237.9,97.3,238.2,96.9"/>
		<path id="Fill-535_1_" class="st2" d="M225.9,75.8c-0.3-0.2-0.7,0.3-0.4,0.5c1.8,1.8,3.5,3.7,5.1,5.7c0.7,0.9,4.5,6.2,0.8,5.3
			c-2.2-0.6-4-2-5.2-4.1c-0.6-1-1.3-2.2-1.6-3.3c-0.4-1.7,0.4-2.6,1.2-3.9c0.4-0.7-0.4-1.6-1.1-1.1c-6.4,4.2,1.1,14.4,6.8,14.9
			c3.3,0.3,4.7-2.1,3.1-5C232.8,81.2,229.5,77.6,225.9,75.8"/>
		<path id="Fill-536_1_" class="st2" d="M231.4,88c-0.2-0.4-1-0.3-1.1,0.1c-0.3,1.4,2.2,2.6,3.3,3.2c1.2,0.6,4.4,2.4,5.5,0.9
			c0.2-0.2,0.2-0.6,0-0.8c-0.8-0.9-3-1-4.2-1.5C234.1,89.5,231.9,88.9,231.4,88"/>
		<path id="Fill-537_1_" class="st2" d="M237.9,91.8c-0.4-0.1-0.7,0.4-0.4,0.7c0.7,0.7,0.9,1.7,1.2,2.6c0.4,1.1,0.3,2.3,0.9,3.3
			c0.4,0.7,1.4,0.5,1.7-0.2c0.5-1.3-0.5-3-1.1-4.1C239.7,93.1,239,92,237.9,91.8"/>
		<path id="Fill-538_1_" class="st2" d="M243.3,86.3c0.2-0.3-0.2-0.6-0.5-0.4c-3.2,1.5-2.7,5.2-1.5,7.6c0.3,0.7,1.5,0.2,1.3-0.5
			C241.9,90.6,241.9,88.5,243.3,86.3"/>
		<path id="Fill-539_1_" class="st2" d="M257.2,85.9c-0.1-0.3-0.4-0.2-0.4,0.1c-0.3,2.1-1.4,4-3,5.4c-1.5,1.3-3.1,1.7-5,2.1
			c-0.8,0.2-0.5,1.4,0.3,1.3c2.6-0.5,4.5-1.2,6.2-3.3C256.7,89.9,257.7,88,257.2,85.9"/>
		<path id="Fill-540_1_" class="st2" d="M253,75.3c0.2-0.2,0.1-0.6-0.1-0.5c-0.6,0.2-0.5,2.4-0.5,3c0,1.5,0.1,3,0.2,4.5
			c0.1,0.8,0.7,0.5,0.8-0.2c0.1-1.1-0.1-2.4-0.2-3.5C253.1,78.3,252.8,75.5,253,75.3"/>
		<path id="Fill-541_1_" class="st2" d="M253.3,80.1c0-0.2-0.2-0.4-0.3-0.3c-2.2,1.6-6.1,9-9.1,4.3c-0.5-0.7-1.5-0.5-1.6,0.4
			c-0.1,3.4,3.6,3.8,5.9,2.6C250.8,85.9,252.6,82.8,253.3,80.1"/>
		<path id="Fill-542_1_" class="st2" d="M249.4,78.8c-0.2,0.2,0,0.6,0.2,0.5c0.7-0.2,1.4-0.4,1.9,0.3c0.4,0.5,0.6,1.1,0.7,1.7
			c0.1,0.6,0.9,0.5,1,0c0.3-1.2-0.2-2.6-1.2-3.2c-0.4-0.3-1-0.5-1.5-0.3C250.1,78,249.8,78.4,249.4,78.8"/>
	</g>
</g>
</svg>
