<?xml version="1.0" encoding="UTF-8"?>
<svg width="100px" height="100px" viewBox="0 0 100 100" version="1.1" xmlns="http://www.w3.org/2000/svg" xmlns:xlink="http://www.w3.org/1999/xlink">
    <!-- Generator: Sketch 50.2 (55047) - http://www.bohemiancoding.com/sketch -->
    <title>Artboard</title>
    <desc>Created with Sketch.</desc>
    <defs>
        <polygon id="path-1" points="0 0 55 0 55 54 0 54"></polygon>
    </defs>
    <g id="Artboard" stroke="none" stroke-width="1" fill="none" fill-rule="evenodd">
        <g id="Asset-1" transform="translate(-46.000000, -44.000000)" fill="#0095DA" fill-rule="nonzero">
            <path d="M158.578717,39.4106037 C199.522775,8.46099704 229.755997,150.743077 80.0232574,144.819797 C-29.3764542,140.492845 0.0917087918,85.3138154 15.6334947,84.3809462 C72.1651655,80.9893809 86.2506648,61.6546893 105.766687,58.7666972 C121.258827,56.4741804 132.088049,59.4351906 158.578717,39.4106037 Z" id="Shape" style="mix-blend-mode: multiply;"></path>
            <path d="M178.288667,13.471675 C200.943583,-6.09960131 188.55746,176 91.5499209,176 C-29.7248833,176 8.88177957,75.9112111 29.8846142,54.2809913 C73.6846306,9.1727819 105.556083,76.3046478 178.288667,13.471675 Z" id="Shape" style="mix-blend-mode: multiply;"></path>
            <path d="M188.406998,73.8589531 C183.228524,124.000353 114.656233,159 90.3507555,159 C66.0452777,159 1.6139769,93.9160142 31.9693121,80.5680225 C71.6057802,63.1402251 62.6019059,47.9684087 89.880566,50.0840955 C166.448635,56.0227993 204.355112,-80.5486008 188.406998,73.8589531 Z" id="Shape" style="mix-blend-mode: multiply;"></path>
            <path d="M149.038564,61.6554838 C190.890501,24.4301814 175.945187,181 77.9787779,181 C6.71415805,181 4.87950059,99.5180737 16.1618221,88.9405962 C37.9159789,68.5411752 33.8749277,45.0997027 58.3804385,47.1223434 C79.4821602,48.8649262 117.452362,89.7521418 149.038564,61.6554838 Z" id="Shape" style="mix-blend-mode: multiply;"></path>
        </g>
        <g id="Group" transform="translate(23.000000, 24.000000)">
            <mask id="mask-2" fill="white">
                <use xlink:href="#path-1"></use>
            </mask>
            <g id="Clip-2"></g>
            <path d="M8.69535375,44.8068013 C3.5654699,39.7082863 1,33.5273141 1,26.2638848 C1,19.0072765 3.5654699,12.8026928 8.69535375,7.64698545 C10.4593453,5.92229482 12.3410771,4.4998317 14.3363252,3.37749728 C18.2423442,1.12548263 22.6071806,0 27.4292503,0 C34.7587117,0 41.0021119,2.54847045 46.1620908,7.64698545 C51.3225977,12.8026928 53.9028511,19.0072765 53.9028511,26.2638848 C53.9028511,31.3907336 52.624604,35.9902584 50.0681098,40.0629839 L56,45.9564202 L48.9118268,53 L43.2397043,47.395149 C38.7085533,50.8251163 33.438226,52.5398376 27.4292503,52.5398376 C22.6071806,52.5398376 18.2423442,51.4154044 14.3363252,49.1628651 C12.3410771,48.0121968 10.4593453,46.5608752 8.69535375,44.8068013 Z M14.3363252,15.2367785 C11.6642027,18.3708148 10.3305174,22.0468666 10.3305174,26.2638848 C10.3305174,30.4604396 11.6642027,34.1165528 14.3363252,37.2311751 C14.6267159,37.5869221 14.9392819,37.9311256 15.2766631,38.2664093 C18.6536431,41.6008811 22.7027455,43.2683794 27.4292503,43.2683794 C30.7856389,43.2683794 33.8141499,42.4167904 36.5131996,40.7094149 L32.779831,37.0160479 L39.9128828,29.9714187 L43.0971489,33.1337887 C44.0332629,31.0260667 44.498944,28.7357489 44.498944,26.2638848 C44.498944,21.5484011 42.8262936,17.5375903 39.4799366,14.2314523 C36.1520591,10.8959311 32.1351637,9.22843283 27.4292503,9.22843283 C22.7027455,9.22843283 18.6536431,10.8959311 15.2766631,14.2314523 C14.9392819,14.566736 14.6267159,14.9014949 14.3363252,15.2367785 Z M22.5100317,21.37525 C23.8896515,20.0341154 25.5295671,19.3624988 27.4292503,19.3624988 C29.3384372,19.3624988 30.968321,20.0341154 32.3178458,21.37525 C33.68849,22.7169092 34.3727561,24.3461043 34.3727561,26.2638848 C34.3727561,28.1800911 33.68849,29.7993169 32.3178458,31.1220869 C30.968321,32.4626968 29.3384372,33.1337887 27.4292503,33.1337887 C25.5295671,33.1337887 23.8896515,32.4626968 22.5100317,31.1220869 C21.1610348,29.7993169 20.4852165,28.1800911 20.4852165,26.2638848 C20.4852165,24.3461043 21.1610348,22.7169092 22.5100317,21.37525 Z" id="Fill-1" fill="#FFFFFF" mask="url(#mask-2)"></path>
        </g>
    </g>
</svg>