<?xml version="1.0" encoding="UTF-8"?>
<svg width="100px" height="100px" viewBox="0 0 100 100" version="1.1" xmlns="http://www.w3.org/2000/svg" xmlns:xlink="http://www.w3.org/1999/xlink">
    <!-- Generator: Sketch 50.2 (55047) - http://www.bohemiancoding.com/sketch -->
    <title>Artboard</title>
    <desc>Created with Sketch.</desc>
    <defs>
        <polygon id="path-1" points="0 0 57 0 57 56 0 56"></polygon>
    </defs>
    <g id="Artboard" stroke="none" stroke-width="1" fill="none" fill-rule="evenodd">
        <g id="Endless-Aisle-PortfolioItemLogo" transform="translate(-50.000000, -45.000000)">
            <g id="Asset-1" fill-rule="nonzero">
                <path d="M165.186164,41.1525088 C207.836224,8.83496376 239.329164,157.405754 83.3575598,151.220672 C-30.6004731,146.702474 0.095529992,89.0845918 16.2848903,88.1104908 C75.1720474,84.569022 89.8444425,64.3797584 110.173632,61.3641203 C126.311278,58.9702768 137.591718,62.0621604 165.186164,41.1525088 Z" id="Shape" fill="#A2A2A2" style="mix-blend-mode: multiply;"></path>
                <path d="M185.717361,14.0671081 C209.316232,-6.36919695 196.414021,183.779006 95.3645009,183.779006 C-30.9634201,183.779006 9.25185372,79.2664028 31.1298065,56.6801511 C76.7548235,9.57820872 109.954253,79.6772289 185.717361,14.0671081 Z" id="Shape" fill="#737373" style="mix-blend-mode: multiply;"></path>
                <path d="M196.25729,77.1234372 C190.863046,129.481032 119.433576,166.027624 94.1153703,166.027624 C68.7971643,166.027624 1.68122594,98.0669983 33.3013668,84.1290401 C74.5893544,65.9309533 65.2103186,50.0885594 93.6255896,52.2977572 C173.383995,58.4989451 212.869908,-84.10876 196.25729,77.1234372 Z" id="Shape" fill="#A2A2A2" style="mix-blend-mode: multiply;"></path>
                <path d="M155.248504,64.3805881 C198.844272,25.5099684 183.276236,189 81.2278936,189 C6.99391464,189 5.08281311,103.916663 16.8352314,92.8716723 C39.4958114,71.5706194 35.286383,47.0930597 60.8129568,49.2050989 C82.7939169,51.0247019 122.34621,93.7190873 155.248504,64.3805881 Z" id="Shape" fill="#A2A2A2" style="mix-blend-mode: multiply;"></path>
            </g>
            <g id="Group" transform="translate(72.000000, 71.000000)">
                <g id="Fill-1-Clipped">
                    <mask id="mask-2" fill="white">
                        <use xlink:href="#path-1"></use>
                    </mask>
                    <g id="path-1"></g>
                    <path d="M9.01154843,46.4663125 C3.69512335,41.1789636 1.03636364,34.7690665 1.03636364,27.2366213 C1.03636364,19.7112497 3.69512335,13.2768666 9.01154843,7.93020713 C10.8396851,6.14163907 12.7898435,4.66649213 14.8576461,3.50258977 C18.9057022,1.16716717 23.4292599,0 28.4266776,0 C36.0226649,0 42.4930978,2.64285824 47.8407123,7.93020713 C53.188874,13.2768666 55.8629548,19.7112497 55.8629548,27.2366213 C55.8629548,32.5533534 54.538226,37.3232309 51.8887683,41.5467981 L58.0363636,47.6585098 L50.6904387,54.962963 L44.8120572,49.1505249 C40.1161371,52.707528 34.6541615,54.4857575 28.4266776,54.4857575 C23.4292599,54.4857575 18.9057022,53.3196786 14.8576461,50.983712 C12.7898435,49.7904263 10.8396851,48.2853521 9.01154843,46.4663125 Z M14.8576461,15.8011036 C12.0883555,19.0512153 10.7061726,22.8634172 10.7061726,27.2366213 C10.7061726,31.588604 12.0883555,35.3801288 14.8576461,38.6101075 C15.1585965,38.9790303 15.4825285,39.3359821 15.8321781,39.6836837 C19.3319574,43.1416545 23.5282999,44.870912 28.4266776,44.870912 C31.9051167,44.870912 35.0437554,43.9877826 37.8409523,42.217171 L33.9718249,38.3870126 L41.3642604,31.0814712 L44.664318,34.3609661 C45.6344725,32.1751803 46.1170874,29.8000359 46.1170874,27.2366213 C46.1170874,22.34649 44.3836134,18.1871307 40.9155707,14.7585431 C37.4666794,11.2994841 33.3037151,9.57022664 28.4266776,9.57022664 C23.5282999,9.57022664 19.3319574,11.2994841 15.8321781,14.7585431 C15.4825285,15.1062447 15.1585965,15.4534021 14.8576461,15.8011036 Z M23.3285783,22.1669259 C24.7583661,20.7761197 26.457915,20.0796284 28.4266776,20.0796284 C30.4052895,20.0796284 32.0944418,20.7761197 33.4930402,22.1669259 C34.913526,23.5582762 35.6226745,25.2478119 35.6226745,27.2366213 C35.6226745,29.2237982 34.913526,30.9029953 33.4930402,32.2747568 C32.0944418,33.6650189 30.4052895,34.3609661 28.4266776,34.3609661 C26.457915,34.3609661 24.7583661,33.6650189 23.3285783,32.2747568 C21.930527,30.9029953 21.2301335,29.2237982 21.2301335,27.2366213 C21.2301335,25.2478119 21.930527,23.5582762 23.3285783,22.1669259 Z" id="Fill-1" fill="#FFFFFF" fill-rule="nonzero" mask="url(#mask-2)"></path>
                </g>
            </g>
        </g>
    </g>
</svg>