<?xml version="1.0" encoding="UTF-8"?>
<svg width="223px" height="224px" viewBox="0 0 223 224" version="1.1" xmlns="http://www.w3.org/2000/svg" xmlns:xlink="http://www.w3.org/1999/xlink">
    <!-- Generator: Sketch 50.2 (55047) - http://www.bohemiancoding.com/sketch -->
    <title>Group Copy</title>
    <desc>Created with Sketch.</desc>
    <defs>
        <polygon id="path-1" points="0 0.196175189 95.735 0.196175189 95.735 142.999977 0 142.999977"></polygon>
    </defs>
    <g id="Page-1" stroke="none" stroke-width="1" fill="none" fill-rule="evenodd">
        <g id="Group-Copy" transform="translate(0.000000, -1.000000)">
            <g id="Header-Logo" transform="translate(62.000000, 0.000000)">
                <g id="Group-3" transform="translate(0.000000, 0.804000)">
                    <g id="Fill-1-Clipped">
                        <mask id="mask-2" fill="white">
                            <use xlink:href="#path-1"></use>
                        </mask>
                        <g id="path-1"></g>
                        <path d="M50.303,125.4973 L50.136,125.7693 L50.38,125.8103 L50.303,125.4973 Z M24.753,64.1013 C24.883,63.9803 25.108,63.8653 25.116,63.7373 C25.123,63.6103 24.911,63.4703 24.796,63.3353 C24.67,63.4573 24.452,63.5723 24.443,63.7023 C24.434,63.8273 24.641,63.9673 24.753,64.1013 Z M62.466,51.1683 L62.266,51.5633 L62.587,51.5963 L62.466,51.1683 Z M35.069,47.1543 C34.974,47.0253 34.88,46.8963 34.786,46.7683 C34.669,46.8743 34.469,46.9733 34.458,47.0893 C34.447,47.2073 34.622,47.3433 34.715,47.4713 C34.833,47.3663 34.951,47.2603 35.069,47.1543 Z M48.029,35.6663 L47.854,36.0033 L48.136,36.0323 L48.029,35.6663 Z M49.128,33.3833 C49.031,33.4913 48.866,33.5923 48.856,33.7073 C48.846,33.8253 48.989,33.9553 49.064,34.0803 C49.161,33.9723 49.327,33.8703 49.338,33.7543 C49.348,33.6383 49.204,33.5073 49.128,33.3833 Z M26.157,30.4103 C26.064,30.3013 25.94,30.0843 25.881,30.1013 C25.43,30.2273 25.408,30.4533 25.826,30.6643 C25.88,30.6913 26.044,30.5003 26.157,30.4103 Z M10.614,29.1993 C10.516,29.1363 10.384,29.0003 10.329,29.0263 C10.2,29.0873 10.031,29.2223 10.024,29.3353 C10.018,29.4493 10.186,29.6703 10.283,29.6733 C10.582,29.6833 10.694,29.4873 10.614,29.1993 Z M51.224,2.6743 C51.11,2.8363 50.988,2.9593 50.929,3.1073 C50.782,3.4763 50.89,3.7843 51.216,4.0133 C51.375,3.7693 51.632,3.5363 51.657,3.2793 C51.677,3.0973 51.384,2.8823 51.224,2.6743 Z M49.172,114.5723 C49.079,114.6923 48.902,114.8163 48.908,114.9313 C48.924,115.2333 49.019,115.5323 49.082,115.8323 C49.18,115.7093 49.366,115.5813 49.359,115.4633 C49.343,115.1643 49.241,114.8693 49.172,114.5723 Z M6.062,53.5583 C5.931,53.4393 5.818,53.2723 5.666,53.2193 C5.514,53.1663 5.312,53.1963 5.15,53.2483 C4.995,53.2983 4.782,53.3953 4.739,53.5203 C4.647,53.7853 4.883,54.0403 5.291,54.0033 C5.559,53.9793 5.805,53.7153 6.062,53.5583 Z M35.47,40.2143 C35.464,40.3423 35.671,40.4813 35.781,40.6153 C35.901,40.4903 36.113,40.3703 36.121,40.2373 C36.142,39.9303 36.073,39.6153 36.011,39.3093 C36.006,39.2813 35.702,39.2643 35.693,39.2933 C35.593,39.5943 35.486,39.9033 35.47,40.2143 Z M76.364,29.8653 C76.498,30.1333 76.632,30.4013 76.766,30.6683 C76.927,30.4063 77.199,30.1503 77.216,29.8793 C77.232,29.6223 76.98,29.3503 76.846,29.0833 C76.686,29.3443 76.525,29.6043 76.364,29.8653 Z M30.746,58.8213 C30.458,58.9793 30.142,59.1043 29.894,59.3123 C29.804,59.3883 29.83,59.6723 29.882,59.8353 C30.031,60.3073 30.339,60.4313 30.688,60.1513 C30.96,59.9333 31.282,59.6873 31.396,59.3843 C31.499,59.1093 31.163,58.8763 30.746,58.8213 Z M31.374,78.0303 C31.237,77.9173 31.116,77.7563 30.959,77.7053 C30.802,77.6553 30.564,77.6503 30.44,77.7373 C29.967,78.0693 29.839,78.6743 30.133,79.0963 C30.195,79.1853 30.427,79.2783 30.47,79.2413 C30.733,79.0153 30.98,78.7653 31.199,78.4953 C31.298,78.3723 31.318,78.1863 31.374,78.0303 Z M39.374,46.0713 C39.729,45.7053 40.08,45.3603 40.401,44.9883 C40.43,44.9543 40.291,44.7233 40.187,44.6343 C39.9,44.3903 39.538,44.3683 39.316,44.6653 C39.133,44.9113 39.063,45.2643 39.02,45.5803 C39.003,45.6973 39.203,45.8453 39.374,46.0713 Z M81.875,63.4833 C81.942,63.0833 81.808,62.7053 81.427,62.6443 C81.214,62.6103 80.846,62.8723 80.73,63.0953 C80.587,63.3693 80.54,63.7683 80.625,64.0643 C80.705,64.3453 81.008,64.5633 81.212,64.8093 C81.41,64.5363 81.63,64.2743 81.797,63.9833 C81.875,63.8473 81.852,63.6523 81.875,63.4833 Z M23.403,25.5303 C22.878,25.4243 22.346,25.7263 22.265,26.3063 C22.223,26.6043 22.455,26.9403 22.564,27.2593 C22.874,27.1023 23.199,26.9673 23.49,26.7793 C23.623,26.6933 23.713,26.5143 23.782,26.3593 C23.935,26.0213 23.797,25.7393 23.403,25.5303 Z M24.532,32.2703 C24.357,32.2703 24.17,32.2233 24.021,32.2783 C23.49,32.4763 23.3,32.8183 23.414,33.4823 C23.441,33.6433 23.574,33.9043 23.677,33.9133 C24.21,33.9613 25.069,33.0803 24.923,32.5943 C24.882,32.4573 24.663,32.3733 24.532,32.2703 Z M13.342,58.0983 C13.394,58.4403 13.447,58.7833 13.5,59.1253 C13.697,58.9413 13.93,58.7813 14.083,58.5653 C14.283,58.2813 14.377,57.9153 14.596,57.6513 C14.915,57.2683 14.903,56.9993 14.439,56.8093 C14.076,56.6593 13.747,56.7613 13.597,57.1073 C13.464,57.4163 13.423,57.7663 13.342,58.0983 Z M61.882,39.5393 L61.873,39.5393 C61.873,40.0703 61.847,40.6033 61.89,41.1313 C61.901,41.2643 62.116,41.4063 62.266,41.4963 C62.504,41.6383 62.906,41.4903 62.943,41.0683 C63.021,40.1933 62.933,39.3013 62.876,38.4193 C62.867,38.2733 62.601,38.0053 62.562,38.0243 C62.318,38.1393 61.983,38.2773 61.91,38.4873 C61.801,38.8033 61.882,39.1853 61.882,39.5393 Z M66.807,63.8023 C66.704,63.6813 66.621,63.5203 66.49,63.4443 C66.355,63.3673 66.116,63.2903 66.021,63.3553 C65.612,63.6353 65.246,63.9763 64.851,64.2793 C64.443,64.5933 64.457,64.8573 64.927,65.0663 C65.073,65.1313 65.255,65.1773 65.408,65.1553 C66.19,65.0413 66.476,64.3943 66.807,63.8023 Z M51.297,59.2313 C51.135,59.3073 50.946,59.3513 50.817,59.4643 C50.274,59.9413 49.776,60.4883 49.763,61.2413 C49.759,61.4973 50.087,61.7913 50.32,62.0053 C50.398,62.0763 50.671,61.9853 50.827,61.9103 C51.843,61.4173 51.772,60.5473 51.572,59.6523 C51.537,59.4993 51.391,59.3713 51.297,59.2313 Z M24.146,57.5523 C23.949,57.2693 23.809,56.8943 23.54,56.7313 C23.26,56.5603 22.85,56.5323 22.506,56.5593 C22.157,56.5853 21.82,56.7563 21.478,56.8633 C21.616,57.1533 21.686,57.5223 21.908,57.7153 C22.306,58.0593 22.778,58.3383 23.256,58.5673 C23.657,58.7593 24.252,58.0543 24.146,57.5523 Z M38.133,51.7703 C38.298,51.6973 38.52,51.6693 38.619,51.5433 C38.95,51.1263 39.278,50.6963 39.529,50.2283 C39.75,49.8173 39.304,49.1043 38.808,49.0203 C38.398,48.9513 38.111,49.1463 37.914,49.5133 C37.563,50.1683 37.345,50.8303 37.781,51.5263 C37.85,51.6373 38.013,51.6903 38.133,51.7703 Z M5.162,48.2773 C5.056,48.1253 4.89,47.8403 4.86,47.8533 C3.683,48.3873 2.834,49.2573 2.341,50.4503 C2.292,50.5663 2.433,50.7953 2.536,50.9343 C3.132,51.7413 3.881,51.8733 4.108,51.1943 C4.439,50.2123 5.392,49.4513 5.162,48.2773 Z M31.93,55.5853 C31.948,55.7653 31.919,55.9693 31.994,56.1213 C32.132,56.3993 32.331,56.6473 32.504,56.9083 C32.627,56.7753 32.813,56.6623 32.864,56.5053 C33.197,55.4703 33.539,54.4343 33.789,53.3773 C33.858,53.0883 33.621,52.7263 33.524,52.3973 C33.236,52.6113 32.904,52.7853 32.667,53.0453 C32.015,53.7633 31.923,54.6643 31.93,55.5853 Z M90.353,32.6803 C90.318,32.2653 90.366,31.8933 90.239,31.5983 C90.116,31.3123 89.783,31.4303 89.42,31.7403 C88.59,32.4503 87.749,33.1323 87.432,34.2573 C87.306,34.7023 87.39,34.9573 87.805,35.1663 C88.528,35.5303 88.997,35.5253 89.232,35.0533 C89.632,34.2503 90,33.4323 90.353,32.6803 Z M80.64,35.2513 C80.51,35.0483 80.439,34.8723 80.311,34.7613 C80.205,34.6703 79.989,34.5743 79.894,34.6223 C78.149,35.5183 77.263,37.4053 77.745,39.1883 C77.766,39.2673 78.011,39.3773 78.056,39.3433 C79.457,38.3043 79.969,36.7113 80.64,35.2513 Z M34.669,33.8683 C35.132,32.8813 35.169,31.9883 35.086,31.0803 C35.021,30.3623 34.059,29.9053 33.442,30.3143 C33.295,30.4123 33.141,30.5033 33.007,30.6173 C32.467,31.0813 32.315,31.6593 32.67,31.9913 C33.323,32.6033 33.975,33.2173 34.669,33.8683 Z M51.748,51.5943 C51.716,51.5943 51.683,51.5943 51.651,51.5943 C51.651,50.8933 51.669,50.1923 51.637,49.4933 C51.63,49.3423 51.472,49.1173 51.336,49.0723 C51.033,48.9713 50.55,48.8033 50.403,48.9413 C49.132,50.1413 49.292,52.2703 50.715,53.6693 C50.831,53.7843 51.114,53.9013 51.198,53.8423 C51.439,53.6733 51.758,53.4343 51.792,53.1883 C51.864,52.6683 51.772,52.1273 51.748,51.5943 Z M39.648,73.9343 C39.62,73.7323 39.596,73.3773 39.517,73.0343 C39.479,72.8693 39.323,72.5913 39.247,72.6003 C38.931,72.6373 38.615,72.7383 38.321,72.8653 C38.168,72.9313 38.01,73.0773 37.941,73.2263 C37.567,74.0343 37.136,74.8303 36.896,75.6793 C36.753,76.1863 37.137,76.6573 37.591,76.9873 C37.958,77.2543 38.211,77.1673 38.55,76.8803 C39.108,76.4083 39.613,75.9383 39.645,75.1543 C39.66,74.7973 39.648,74.4403 39.648,73.9343 Z M53.853,23.0123 L53.853,23.0373 C54.211,23.0373 54.57,23.0173 54.927,23.0413 C55.548,23.0843 56.02,22.7303 56.184,22.2513 C56.521,21.2703 56.706,20.2363 56.915,19.2173 C56.936,19.1143 56.714,18.9043 56.564,18.8403 C56.417,18.7773 56.207,18.8003 56.045,18.8503 C55.504,19.0163 55.213,19.3963 55.005,19.9333 C54.55,21.1083 53.973,22.2063 52.549,22.4773 C52.443,22.4973 52.372,22.7023 52.285,22.8203 C52.453,22.8843 52.617,22.9893 52.789,23.0033 C53.141,23.0323 53.498,23.0123 53.853,23.0123 Z M12.795,25.3853 C13.868,24.4103 14.351,23.2413 14.897,22.1093 C15.136,21.6143 15.032,21.1753 14.544,20.6923 C13.991,20.1463 13.432,20.0823 13.219,20.5613 C12.489,22.1993 11.748,23.8323 11.049,25.4823 C10.914,25.8003 10.834,26.2213 10.929,26.5333 C11.021,26.8353 10.885,27.8493 11.753,27.0753 C11.879,26.9623 11.951,26.7883 12.042,26.6393 C12.32,26.1803 12.595,25.7203 12.795,25.3853 Z M77.523,60.4833 C77.488,59.8093 77.468,59.4523 77.451,59.0963 C77.425,58.5363 76.878,58.0283 76.412,58.1663 C75.555,58.4193 74.696,58.6723 73.861,58.9863 C73.494,59.1233 73.558,59.4793 74.036,59.6843 C75.085,60.1323 75.186,60.9493 74.943,61.8903 C74.809,62.4083 74.5,62.8903 74.429,63.4103 C74.397,63.6513 74.716,63.9743 74.938,64.1983 C75.025,64.2853 75.293,64.2393 75.46,64.1923 C76.202,63.9833 76.717,63.4653 76.953,62.7743 C77.24,61.9363 77.386,61.0513 77.523,60.4833 Z M83.658,79.4763 C83.614,79.3453 83.604,79.1793 83.516,79.0903 C83.398,78.9723 83.177,78.8063 83.074,78.8473 C80.457,79.8763 77.857,80.4203 75.269,78.7593 C74.886,78.5133 74.588,78.6583 74.353,79.0593 C73.626,80.3043 72.654,81.4663 73.06,83.0673 C73.1,83.2263 73.272,83.4553 73.4,83.4673 C73.723,83.4973 74.094,83.5053 74.379,83.3753 C75.702,82.7723 77.057,82.2103 78.297,81.4613 C79.638,80.6493 81.198,81.2183 82.53,80.5923 C82.848,80.4423 83.124,80.1873 83.389,79.9473 C83.516,79.8313 83.571,79.6363 83.658,79.4763 Z M60.794,26.6203 C59.983,26.8963 59.899,27.6973 59.532,28.3083 C59.261,28.7603 58.846,29.1643 58.41,29.4633 C58.153,29.6403 57.697,29.6773 57.385,29.5873 C56.914,29.4513 56.924,29.1283 57.129,28.7403 C57.899,27.2823 58.627,25.8023 59.345,24.3183 C59.396,24.2133 59.271,23.9793 59.167,23.8563 C59.092,23.7683 58.859,23.6853 58.794,23.7323 C58.204,24.1653 57.662,24.6693 57.049,25.0613 C56.769,25.2403 56.294,25.3693 56.018,25.2543 C54.781,24.7413 53.6,24.5873 52.307,25.1303 C51.865,25.3163 51.243,25.0803 50.705,25.0223 C50.05,24.9513 49.635,25.2163 49.621,25.7673 C49.612,26.1293 49.511,26.6083 49.695,26.8373 C50.603,27.9653 50.762,29.1063 50.08,30.3963 C49.919,30.7003 49.898,31.0993 49.892,31.4553 C49.889,31.6003 50.065,31.8043 50.212,31.8863 C50.668,32.1393 51.233,32.2563 51.601,32.5943 C52.118,33.0713 52.417,33.7983 52.96,34.2293 C53.39,34.5703 53.896,34.8353 54.055,35.3643 C54.279,36.1033 54.027,36.8243 53.708,37.4963 C53.08,38.8253 52.455,40.1593 51.393,41.2243 C51.105,41.5133 51.216,41.8073 51.466,42.1843 C52.011,43.0093 52.002,43.8583 51.589,44.7903 C51.032,46.0463 51.16,46.3733 52.112,47.0373 C52.413,47.2473 52.724,47.4503 53.053,47.6093 C54.9,48.4973 55.619,50.2053 56.093,52.0013 C56.371,53.0543 56.401,54.1893 56.426,55.2903 C56.484,57.8683 56.459,60.4483 56.511,63.0263 C56.516,63.2773 56.824,63.5223 56.99,63.7693 C57.277,63.5543 57.613,63.3803 57.836,63.1123 C58.065,62.8373 58.3,62.4823 58.33,62.1443 C58.48,60.4973 58.584,58.8453 58.649,57.1933 C58.662,56.8483 58.494,56.4633 58.319,56.1483 C57.792,55.2043 57.84,54.5913 58.944,54.0203 C59.703,53.6283 59.653,52.8983 59.117,52.1323 C58.803,51.6843 58.439,51.2713 58.114,50.8303 C57.865,50.4913 57.977,50.1763 58.149,49.7963 C58.478,49.0693 58.422,48.2623 57.68,47.8733 C55.942,46.9633 55.761,45.2983 55.493,43.6753 C55.441,43.3653 55.647,42.9613 55.842,42.6733 C56.039,42.3833 56.359,42.1683 56.646,41.9483 C59.091,40.0713 59.092,40.0743 57.796,37.0483 C57.724,36.8813 57.608,36.6843 57.644,36.5323 C57.721,36.2073 57.858,35.8873 58.032,35.6023 C58.079,35.5233 58.357,35.5333 58.506,35.5783 C58.856,35.6843 59.229,35.7823 59.525,35.9823 C59.93,36.2573 60.23,36.2783 60.446,35.8763 C60.792,35.2333 61.119,34.5793 61.414,33.9113 C61.45,33.8303 61.265,33.6033 61.135,33.5113 C61.014,33.4243 60.831,33.4013 60.674,33.3933 C60.015,33.3573 59.421,34.5033 58.763,33.6183 C58.241,32.9143 58.886,32.2893 59.214,31.6633 C59.64,30.8493 60.04,30.0183 60.399,29.1733 C60.768,28.3043 60.781,27.3833 60.645,26.4583 C61.045,26.4383 61.7,26.6533 61.226,25.8273 C61.082,26.0913 60.938,26.3553 60.794,26.6203 Z M48.504,77.4613 C48.683,77.4153 48.945,77.4293 49.027,77.3143 C49.879,76.1143 50.034,74.6313 50.601,73.3093 C50.839,72.7563 50.425,72.2413 50.142,71.7823 C49.682,71.0383 49.897,70.3573 50.302,69.7283 C50.596,69.2723 51.037,68.9133 51.381,68.4863 C51.458,68.3893 51.475,68.1173 51.403,68.0473 C50.786,67.4543 49.769,67.1053 50.21,65.9063 C50.241,65.8233 50.024,65.6143 49.887,65.5103 C48.858,64.7243 47.811,63.9713 46.43,63.9573 C46.25,63.9553 46.072,63.8803 45.892,63.8393 C46.086,63.6333 46.248,63.3743 46.482,63.2313 C46.972,62.9323 47.348,62.5813 47.394,61.9743 C47.977,61.8413 48.449,61.4503 48.454,60.9033 C48.474,58.7043 48.388,56.5053 48.358,54.3053 C48.348,53.5693 48.386,52.7753 47.734,52.3193 C47.309,52.0223 46.712,51.9623 46.184,51.8303 C45.724,51.7153 45.58,51.4643 45.761,51.0043 C45.931,50.5673 45.835,50.2493 45.456,50.1353 C43.874,49.6583 42.605,50.0493 42.277,51.3113 C41.729,53.4133 40.545,55.3463 40.618,57.6243 C40.633,58.0883 40.252,58.2623 40.053,58.0743 C39.925,57.9543 39.775,57.7843 39.763,57.6263 C39.709,56.8963 39.725,56.1603 39.668,55.4303 C39.615,54.7613 39.15,54.4683 38.651,54.6783 C36.563,55.5533 34.932,56.9573 33.724,58.8613 C33.629,59.0103 33.523,59.3323 33.567,59.3623 C33.857,59.5583 34.187,59.8283 34.504,59.8283 C35.228,59.8293 35.972,59.5443 36.673,59.6373 C38.132,59.8293 39.578,59.8873 41.038,59.7413 C42.364,58.7413 42.987,57.1673 44.099,55.9833 C44.714,55.3303 45.101,54.4673 45.678,53.7723 C45.861,53.5533 46.373,53.4343 46.653,53.5243 C46.902,53.6033 47.261,54.1763 47.19,54.2893 C46.293,55.7043 46.49,57.4533 45.68,58.9113 C45.057,60.0323 45.217,60.2303 46.472,60.9893 C46.945,61.2753 47.416,61.5193 47.57,62.1013 C47.207,62.0723 46.845,62.0433 46.483,62.0163 C45.74,61.9583 44.947,61.9763 44.522,62.6453 C44.023,63.4313 43.325,63.9713 42.653,64.5583 C42.345,64.8263 42.165,65.1453 42.292,65.5293 C42.662,66.6393 42.326,67.6643 41.99,68.7043 C41.713,69.5633 41.281,70.4393 41.283,71.3073 C41.285,72.2103 41.294,73.0823 41.077,73.9643 C40.983,74.3503 41.204,74.6733 41.575,74.8543 C41.924,75.0253 42.271,74.9753 42.535,74.6803 C43.386,73.7263 43.978,72.6213 44.506,71.4593 C44.717,70.9963 45.18,70.6053 45.613,70.3023 C45.84,70.1443 46.254,70.2123 46.574,70.2533 C46.69,70.2683 46.842,70.4953 46.859,70.6393 C46.879,70.8033 46.772,70.9853 46.712,71.1563 C46.192,72.6483 46.313,73.9723 47.583,75.0943 C48.3,75.7273 48.371,76.6993 48.62,77.5643 C47.999,77.5553 47.677,77.9253 47.677,78.4833 C47.677,78.7863 47.921,79.0903 48.055,79.3933 C48.155,79.2563 48.318,79.1283 48.342,78.9783 C48.423,78.4773 48.454,77.9673 48.504,77.4613 Z M28.7,48.6223 C28.684,50.2613 28.614,51.8493 27.951,53.4343 C27.045,55.6063 26.42,57.8953 25.699,60.1423 C25.673,60.2233 25.888,60.4223 26.029,60.5043 C26.162,60.5823 26.392,60.6603 26.494,60.5983 C26.786,60.4193 27.246,60.1863 27.265,59.9463 C27.369,58.6253 28.237,57.5883 28.514,56.3583 C28.842,54.9073 29.573,53.6483 30.173,52.3223 C30.315,52.0083 30.483,51.5673 30.368,51.3003 C29.953,50.3303 29.745,49.1763 28.55,48.7543 C28.465,47.9513 27.79,47.5573 27.328,47.0203 C26.931,46.5583 26.406,46.5423 25.869,46.7473 C25.172,47.0123 24.464,47.3903 24.282,48.1253 C23.957,49.4363 23.22,50.3833 22.215,51.2293 C21.676,51.6833 21.161,52.2673 20.89,52.9003 C20.712,53.3163 20.946,53.9363 21.074,54.4453 C21.194,54.9163 21.506,54.9263 21.953,54.7383 C22.634,54.4533 23.289,54.4903 24.02,54.8453 C24.865,55.2553 25.606,54.9633 25.782,54.2933 C26.244,52.5253 27.069,50.9183 27.895,49.3123 C28.045,49.0213 28.426,48.8493 28.7,48.6223 Z M34.21,75.2313 C34.334,75.4863 34.394,75.8243 34.596,75.9763 C34.95,76.2443 35.115,76.0523 34.816,75.6863 C34.666,75.5033 34.321,75.4803 34.063,75.3853 C34.161,74.4723 34.519,73.6613 34.986,72.8783 C35.372,72.2293 35.374,71.5103 35.181,70.7893 C35.51,70.6963 35.944,70.7043 36.147,70.4913 C36.785,69.8213 37.354,69.0473 38.31,68.8603 C39.129,68.6993 39.519,68.2283 39.834,67.5043 C40.653,65.6223 40.906,63.5983 41.382,61.6323 C41.425,61.4543 40.982,60.9723 40.727,60.9413 C39.822,60.8333 38.898,60.8143 37.984,60.8483 C37.228,60.8753 36.466,61.5653 36.475,62.1893 C36.52,65.1563 35.941,68.0373 35.326,70.9143 C33.892,71.2603 33.431,72.4153 33.171,73.6513 C33.008,74.4273 33.425,74.9923 34.21,75.2313 Z M82.836,40.8643 C84.38,40.1723 85.038,39.3563 84.922,38.2173 C84.907,38.0803 84.696,37.9203 84.54,37.8493 C84.038,37.6173 83.448,37.8843 83.235,38.3503 C82.843,39.2093 82.842,40.0933 82.984,40.9963 C82.727,41.1863 82.448,41.3533 82.224,41.5773 C82.127,41.6753 82.106,41.8913 82.12,42.0463 C82.133,42.1943 82.237,42.3343 82.301,42.4773 C82.443,42.2743 82.645,42.0903 82.712,41.8643 C82.806,41.5463 82.8,41.1993 82.836,40.8643 Z M81.768,73.0493 C82.303,73.0033 82.761,72.8333 82.956,72.2753 C83.257,71.4183 83.093,70.5683 82.87,69.7293 C82.831,69.5813 82.659,69.4443 82.515,69.3633 C82.47,69.3383 82.254,69.4923 82.215,69.5993 C81.803,70.7443 81.459,71.9013 81.848,73.1313 C81.485,73.0133 81.171,73.0783 81.047,73.3823 C80.925,73.6853 81.152,73.9583 81.415,73.8193 C81.613,73.7143 81.656,73.3163 81.768,73.0493 Z M9.85,50.8533 C9.727,51.2263 9.826,51.5173 10.168,51.6783 C10.482,51.8273 10.628,51.7083 10.514,51.3953 C10.386,51.0453 10.102,50.9133 9.723,50.9763 C9.697,50.3223 9.298,49.9833 8.705,50.0473 C8.401,50.0803 8.04,50.3683 7.868,50.6433 C7.689,50.9303 7.636,51.3443 7.656,51.6953 C7.675,52.0363 7.854,52.3683 7.963,52.7043 C8.117,52.6243 8.307,52.5793 8.418,52.4603 C8.908,51.9363 9.375,51.3913 9.85,50.8533 Z M46.284,44.3633 C46.285,43.6323 45.954,43.2173 45.191,43.2103 C44.639,41.8923 43.867,40.6363 44.178,39.0933 C44.246,38.7523 44.154,38.3613 44.066,38.0113 C43.746,36.7273 43.251,35.6433 41.739,35.3003 C41.062,35.1453 40.877,34.5553 41.038,34.0573 C41.371,33.0263 41.981,32.0833 41.938,30.9343 C41.922,30.4843 41.5,29.9343 40.947,29.8653 C40.018,29.7473 39.154,29.7673 38.607,30.7443 C38.164,31.5363 37.633,32.2773 37.157,33.0513 C35.665,35.4803 36.199,36.5573 37.513,37.9583 C38.76,39.2893 39.955,40.6743 41.284,41.9163 C42.386,42.9453 43.741,43.4813 45.31,43.0933 C45.461,43.9943 45.461,43.9943 46.434,44.2123 C46.436,45.1033 46.423,45.9963 46.458,46.8863 C46.463,47.0223 46.676,47.2153 46.827,47.2553 C46.919,47.2803 47.121,47.0893 47.197,46.9533 C47.576,46.2683 47.497,45.5533 47.13,44.9153 C46.98,44.6553 46.574,44.5423 46.284,44.3633 Z M9.686,38.6343 C10.111,38.6253 10.399,38.4343 10.528,38.0513 C10.585,37.8813 10.65,37.6953 10.634,37.5243 C10.618,37.3653 10.539,37.1353 10.42,37.0773 C10.185,36.9633 9.985,37.2063 9.927,37.6753 C9.883,38.0393 9.875,38.4073 9.851,38.7733 C9.319,38.9153 9.029,39.2803 8.955,39.8073 C8.905,40.1733 9.07,40.4403 9.394,40.4793 C9.482,40.4903 9.683,40.2473 9.692,40.1133 C9.722,39.6223 9.693,39.1273 9.686,38.6343 Z M90.741,41.0503 C90.215,40.8193 89.696,40.7953 89.224,41.1653 C89.102,41.2623 88.955,41.4693 88.982,41.5883 C89.079,42.0193 89.399,42.2343 89.812,42.1273 C90.408,41.9723 90.626,41.5143 90.612,40.9273 C90.768,40.8543 90.947,40.8083 91.07,40.6993 C91.14,40.6363 91.12,40.4713 91.141,40.3513 C90.835,40.3713 90.702,40.6033 90.741,41.0503 Z M78.524,67.5943 C78.816,67.4363 79.21,67.3483 79.378,67.1043 C79.706,66.6253 79.418,65.5443 79.125,65.7133 C78.861,65.8663 78.62,66.1673 78.515,66.4563 C78.4,66.7723 78.452,67.1503 78.431,67.5003 C77.999,67.4163 77.673,67.5553 77.611,67.9413 C77.55,68.3183 77.791,68.5583 78.12,68.4603 C78.48,68.3523 78.599,68.0103 78.524,67.5943 Z M55.133,77.4193 C55.381,77.2273 55.653,77.0583 55.868,76.8343 C55.961,76.7373 55.975,76.5243 55.957,76.3723 C55.939,76.2273 55.834,76.0913 55.767,75.9523 C55.636,76.1643 55.449,76.3623 55.39,76.5923 C55.309,76.9063 55.326,77.2453 55.302,77.5733 C55.03,77.7543 54.735,77.9103 54.499,78.1293 C54.397,78.2243 54.381,78.4553 54.395,78.6183 C54.408,78.7733 54.511,78.9213 54.574,79.0733 C54.718,78.8703 54.924,78.6843 54.991,78.4583 C55.09,78.1273 55.09,77.7673 55.133,77.4193 Z M30.789,34.2363 C30.947,34.1873 31.125,34.1673 31.255,34.0773 C31.329,34.0243 31.325,33.8583 31.356,33.7443 C31.079,33.7383 30.942,33.9543 30.944,34.3913 C30.244,34.4133 29.824,34.7423 29.767,35.4663 C29.584,35.4533 29.343,35.3563 29.228,35.4373 C28.357,36.0523 27.678,36.0543 27.18,34.9743 C27.008,34.6013 26.691,34.7163 26.282,34.9533 C25.516,35.3953 25.21,36.4943 24.12,36.4543 L24.249,36.5713 C23.908,36.2033 23.632,35.6893 23.211,35.5003 C22.554,35.2043 21.99,34.9013 21.764,34.1843 C21.627,33.7443 21.408,33.5883 21.068,33.7433 C20.598,33.9553 20.132,34.1753 19.665,34.3923 C19.864,33.3323 20.087,32.2973 20.642,31.3323 C20.887,30.9053 20.824,30.2873 20.846,29.7543 C20.852,29.6133 20.681,29.4333 20.547,29.3273 C20.448,29.2493 20.218,29.1933 20.146,29.2513 C19.734,29.5813 19.322,29.9223 18.964,30.3093 C17.475,31.9153 16.351,33.7103 16.018,35.9373 C15.98,36.1913 15.516,36.3823 15.25,36.6023 C15.252,36.2403 15.262,35.8773 15.251,35.5153 C15.246,35.3383 15.241,35.1423 15.162,34.9943 C15.081,34.8423 14.917,34.6453 14.776,34.6343 C14.465,34.6093 14.048,34.5753 13.845,34.7463 C12.804,35.6283 13.007,37.0893 12.33,38.1653 C11.666,39.2203 10.935,40.2893 11.516,41.6483 C11.141,42.4743 10.805,43.3203 10.375,44.1163 C10.148,44.5353 10.104,44.7793 10.461,45.0083 C10.775,45.2093 11.165,45.2603 11.398,44.9403 C12.23,43.7903 13.157,42.7393 13.352,41.1783 C13.529,39.7683 14.11,38.4003 14.588,37.0403 C14.682,36.7723 15.121,36.6263 15.401,36.4233 C15.417,36.9723 15.422,37.5213 15.453,38.0683 C15.496,38.8383 15.774,39.4763 16.52,39.8253 C16.703,41.0243 16.247,41.9663 15.347,42.7293 C13.71,44.1193 13.053,45.9543 12.958,48.0373 C12.95,48.2163 13.021,48.3973 13.035,48.5803 C13.07,49.0463 13.655,49.3323 14.182,49.1343 C15.965,48.4653 16.465,48.7303 16.806,50.5103 C16.908,51.0423 17.047,51.5413 16.798,52.1013 C15.923,54.0613 16.526,56.0483 16.787,58.0233 C16.793,58.0713 17.046,58.1413 17.161,58.1123 C17.818,57.9463 18.216,57.2303 17.961,56.5053 C17.807,56.0663 17.776,55.7743 18.134,55.6173 C19.01,55.2303 19.624,54.6773 19.851,53.6703 C21.063,48.2683 21.691,46.7213 24.841,41.1133 C24.896,41.0153 25.187,41.0503 25.368,41.0233 L25.252,40.9233 C25.285,41.1043 25.296,41.2923 25.355,41.4633 C25.471,41.8003 25.56,42.1663 25.762,42.4473 C25.918,42.6633 26.72,42.2023 26.969,41.7623 C27.869,40.1693 28.805,38.5933 29.619,36.9563 C29.834,36.5253 29.662,35.9013 29.667,35.3663 C30.443,35.3883 30.718,34.9143 30.789,34.2363 Z M73.985,37.5593 C74.133,37.5253 74.299,37.5213 74.422,37.4463 C74.492,37.4033 74.493,37.2463 74.526,37.1403 C74.229,37.1043 74.095,37.2913 74.125,37.7013 C73.699,37.5473 73.37,37.6633 73.233,38.0793 C73.206,38.1603 73.491,38.4613 73.566,38.4393 C73.989,38.3133 74.119,37.9893 73.985,37.5593 Z M69.52,59.6733 C69.682,59.6413 69.857,59.6353 70.003,59.5673 C70.095,59.5253 70.145,59.3903 70.215,59.2963 C70.042,59.4773 69.87,59.6583 69.698,59.8393 C69.411,59.9763 69.124,60.1153 68.838,60.2523 C68.959,60.3453 69.08,60.4363 69.201,60.5293 C69.307,60.2443 69.414,59.9583 69.52,59.6733 Z M32.993,63.0083 C33.146,62.9393 33.316,62.8933 33.445,62.7943 C33.519,62.7363 33.528,62.5923 33.566,62.4873 C33.428,62.7133 33.29,62.9393 33.153,63.1663 C33.018,63.2313 32.873,63.2823 32.753,63.3683 C32.679,63.4213 32.644,63.5273 32.591,63.6103 C32.725,63.4093 32.86,63.2083 32.993,63.0083 Z M28.846,68.0363 C28.241,68.7013 27.721,69.4443 27.149,70.1413 C27.068,70.2403 26.84,70.3333 26.754,70.2883 C26.607,70.2113 26.424,70.0263 26.418,69.8803 C26.365,68.5773 25.845,67.4123 25.38,66.2293 C25.206,65.7873 24.735,65.7243 24.088,66.0323 C23.122,66.4923 22.222,66.8433 21.842,68.1223 C21.177,70.3623 20.197,72.5103 19.347,74.6953 C19.154,75.1923 18.407,75.3693 18.003,74.9923 C17.609,74.6223 17.245,74.2183 16.878,73.8203 C16.308,73.2043 16.353,72.4583 16.649,71.7903 C16.937,71.1393 17.348,70.5113 17.824,69.9813 C18.786,68.9113 18.772,67.6843 18.588,66.3973 C18.89,66.2493 19.34,66.1773 19.463,65.9383 C19.704,65.4673 19.822,64.9103 19.884,64.3763 C19.986,63.4993 20.553,63.1573 21.303,62.9873 C21.646,62.9103 22.011,62.9243 22.351,62.8373 C22.907,62.6943 23.064,62.1673 22.789,61.5443 C22.581,61.0743 22.348,61.0703 21.928,61.3763 C21.497,61.6883 21.002,62.0173 20.497,62.1003 C19.46,62.2683 18.928,62.7623 18.744,63.8103 C18.583,64.7223 18.466,65.6033 18.716,66.5053 C18.237,66.6943 17.739,66.8453 17.283,67.0803 C16.642,67.4123 15.991,67.5953 15.271,67.4833 C14.777,66.8193 14.777,66.8193 14.106,67.6213 C13.047,67.0763 11.842,66.6713 10.643,66.2503 C10.276,66.1223 9.937,65.3243 10.163,64.8013 C10.626,63.7313 10.79,62.7953 10.044,61.7193 C9.666,61.1753 9.674,60.3233 9.623,59.6013 C9.517,58.1213 9.67,56.6623 10.224,55.2623 C10.272,55.1423 10.22,54.9293 10.136,54.8193 C9.907,54.5213 9.561,54.4733 9.174,54.6633 C8.678,54.9063 8.189,55.1623 7.702,55.4233 C6.849,55.8813 6.312,56.5313 6.141,57.5393 C6.056,58.0413 5.675,58.5003 5.392,58.9563 C5.303,59.1003 5.054,59.2893 4.953,59.2533 C4.574,59.1133 4.444,58.7833 4.52,58.3793 C4.888,56.4023 4.946,56.3203 3.922,55.6003 C2.389,54.5233 1.155,53.1923 0.148,51.6433 C-0.02,51.3843 -0.055,50.8603 0.095,50.6023 C1.026,48.9973 2.175,47.5793 3.828,46.6363 C4.292,46.3723 4.719,46.0353 5.141,45.7043 C5.421,45.4853 5.57,44.3043 5.32,44.1543 C3.911,43.3073 3.273,41.6183 1.668,40.9413 C0.928,40.6293 0.794,39.7853 1.033,39.0403 C1.2,38.5193 1.346,37.9873 1.57,37.4913 C1.872,36.8213 2.217,36.1673 2.587,35.5333 C3.136,34.5933 2.79,33.8093 2.285,32.9883 C1.937,32.4233 2.066,31.9433 2.463,31.5303 C2.899,31.0773 3.429,31.0763 3.983,31.1663 C4.804,31.3003 5.161,31.9803 5.562,32.5793 C5.86,33.0233 6.071,33.0263 6.366,32.5463 C7.647,30.4613 8.15,28.1283 8.489,25.7593 C8.671,24.4873 8.682,23.1903 8.772,21.9053 C8.944,19.4693 10.522,17.9563 13.052,17.8273 C13.414,17.8083 13.832,17.7833 14.137,17.9353 C15.633,18.6783 17.088,19.5743 17.572,21.2743 C17.912,22.4713 18.432,23.2593 19.696,23.4493 C19.876,23.4763 20.057,23.5363 20.221,23.6143 C20.918,23.9473 21.56,24.0783 22.204,23.4443 C22.983,22.6783 23.589,21.6843 24.694,21.3223 C25.001,21.2213 25.454,21.2363 25.712,21.3993 C25.981,21.5693 26.172,21.9623 26.261,22.2943 C26.459,23.0363 26.252,23.7633 25.934,24.4303 C25.605,25.1223 25.509,25.8343 25.584,26.5723 C25.662,27.3353 26.006,27.9423 26.699,28.3543 C27.311,28.7193 28.368,28.6003 28.695,28.0833 C28.989,27.6203 29.312,27.1643 29.528,26.6653 C29.745,26.1633 29.798,25.5903 30.011,25.0853 C30.461,24.0173 31.099,23.1753 32.452,23.2593 C32.792,23.2803 33.151,23.1283 33.489,23.0173 C33.85,22.8993 34.325,21.8823 34.082,21.6223 C32.672,20.1183 33.003,18.6593 34.024,17.1193 C34.446,16.4813 34.488,15.6493 34.03,15.0303 C33.285,14.0233 33.379,13.0193 33.634,11.9033 C33.81,11.1313 32.949,10.6423 32.146,11.0193 C31.649,11.2533 31.196,11.5773 30.712,11.8393 C30.394,12.0123 30.096,11.8663 29.924,11.4263 C29.865,11.2783 29.886,11.0443 29.967,10.9033 C30.876,9.2863 31.971,7.8403 33.677,6.9693 C34.068,6.7693 34.966,7.1243 35.043,7.5473 C35.139,8.0803 35.216,8.6173 35.279,9.1553 C35.343,9.7003 35.336,10.2573 35.438,10.7943 C35.545,11.3583 35.911,11.7643 36.463,11.9583 C37.497,12.3223 38.534,12.6753 39.573,13.0263 C40.545,13.3553 41.492,12.9003 41.748,11.9733 C42.041,10.9133 42.242,9.8173 42.641,8.8003 C42.812,8.3623 43.367,8.0603 43.784,7.7453 C43.889,7.6653 44.159,7.7273 44.309,7.8083 C44.461,7.8893 44.682,8.0973 44.66,8.2083 C44.211,10.5253 43.904,12.8333 44.258,15.2113 C44.359,15.8903 44.049,16.6513 43.844,17.3503 C43.585,18.2283 43.263,19.0913 42.924,19.9433 C42.753,20.3713 42.451,20.5323 42.224,20.3883 C42.078,20.2963 41.907,20.1113 41.898,19.9583 C41.835,18.8583 41.881,17.7473 41.741,16.6583 C41.678,16.1583 41.331,15.6543 41,15.2433 C40.827,15.0293 40.414,14.9823 40.097,14.9353 C40.025,14.9253 39.831,15.2193 39.822,15.3813 C39.694,17.5883 39.565,19.7983 38.34,21.7373 C38.186,21.9823 37.739,22.0413 37.428,22.1873 C37.396,21.8273 37.396,21.4613 37.326,21.1093 C37.153,20.2393 36.899,20.0923 36.38,20.5783 C35.988,20.9463 35.528,21.2803 35.261,21.7263 C35.129,21.9473 35.338,22.3963 35.442,22.7263 C35.578,23.1553 35.875,23.1993 36.279,22.9033 C36.711,22.5863 37.154,22.2843 37.593,21.9753 C37.644,22.7063 37.668,23.4413 37.758,24.1683 C37.827,24.7313 38.123,25.1733 38.655,25.4453 C39.144,25.6963 39.61,25.9943 40.099,26.2463 C40.574,26.4903 41.15,26.2953 41.597,25.9493 C42.643,25.1393 43.17,23.9303 44.006,22.9643 C44.361,22.5543 44.787,22.1983 45.41,22.2773 C45.832,22.3303 46.176,22.7603 46.296,23.4623 C46.357,23.8203 46.342,24.1943 46.429,24.5443 C46.552,25.0383 46.836,25.1463 47.199,24.9073 C47.506,24.7063 47.824,24.5233 48.129,24.3223 C48.765,23.9023 49.24,23.3423 49.343,22.5753 C49.489,21.4873 49.611,20.3933 49.664,19.2973 C49.762,17.3193 50.465,15.7843 52.414,14.9693 C52.924,14.7563 52.956,13.9833 52.618,13.5193 C52.512,13.3733 52.469,13.1633 52.336,13.0593 C51.907,12.7233 51.487,12.3443 50.999,12.1223 C48.553,11.0083 47.779,8.7383 47.044,6.4533 C46.96,6.1903 47.12,5.7303 47.327,5.5143 C48.116,4.6883 48.468,3.6753 48.861,2.6383 C49.107,1.9883 49.646,1.4123 50.156,0.9053 C51.221,-0.1537 52.522,-0.0067 53.449,1.2133 C53.799,1.6753 53.931,2.2353 53.741,2.7603 C53.428,3.6193 53.069,4.4723 52.617,5.2643 C52.048,6.2633 51.907,7.3393 51.864,8.4363 C51.85,8.7603 52.083,9.0933 52.203,9.4213 C52.469,9.2833 52.892,9.2053 52.973,8.9963 C53.367,7.9833 54.14,7.1263 54.149,5.9473 C54.158,4.7903 54.935,3.9133 55.443,2.9493 C55.837,2.1983 57.119,2.0393 57.839,2.6483 C58.086,2.8583 58.341,3.2803 58.299,3.5613 C58.221,4.0803 57.917,4.5623 57.724,5.0673 C57.39,5.9453 57.363,6.8533 57.499,7.7723 C55.929,8.2253 55.208,9.2903 55.266,10.9003 C55.271,11.0583 55.37,11.2363 55.476,11.3623 C55.693,11.6183 55.991,11.5353 56.196,11.0983 C56.714,9.9933 57.715,9.0453 57.361,7.6453 C57.683,7.5073 58.158,7.4603 58.304,7.2163 C59.35,5.4593 60.987,5.5553 62.664,5.7283 C63.457,5.8103 63.79,6.3243 63.672,7.2903 C63.63,7.6353 63.404,8.0583 63.534,8.2973 C63.666,8.5393 64.127,8.6233 64.458,8.7303 C65.744,9.1453 65.741,9.1453 65.476,10.5663 C65.337,11.3103 65.625,11.6913 66.189,11.5013 C66.706,11.3273 67.203,11.0773 67.73,10.9543 C68.425,10.7923 69.303,11.4533 69.303,12.1253 C69.302,13.0373 69.323,13.9703 69.139,14.8533 C68.993,15.5523 68.565,16.1943 68.24,16.8513 C68.026,17.2863 67.244,17.4773 66.795,17.2953 C65.62,16.8193 64.857,15.6133 63.414,15.5643 C62.061,15.5183 61.042,16.4993 59.722,16.5393 C59.018,16.5603 58.576,17.3853 58.606,18.1663 C58.634,18.9283 59.074,19.6753 59.809,19.7833 C60.979,19.9553 61.85,20.3403 62.26,21.5853 C62.41,22.0393 62.952,22.4323 63.405,22.7043 C64.025,23.0793 64.739,23.2953 65.396,23.6133 C65.77,23.7953 65.952,24.1433 65.863,24.5303 C65.617,25.5943 65.33,26.6473 65.07,27.7083 C64.929,28.2793 65.098,28.8093 65.431,29.2543 C66.023,30.0463 66.255,30.8683 65.865,31.8163 C65.217,33.3933 65.163,35.0283 65.514,36.6683 C65.569,36.9223 66.075,37.3063 66.297,37.2603 C67.36,37.0443 68.402,36.7173 69.442,36.3963 C70.271,36.1413 70.766,35.4533 70.457,34.7543 C69.512,32.6223 69.801,30.4363 70.033,28.2483 C70.071,27.8953 70.289,27.5633 70.412,27.2173 C70.736,26.3023 71.24,25.7483 72.321,25.5553 C73.829,25.2863 74.407,24.2063 74.012,22.7783 C73.941,22.5213 73.52,22.2503 73.223,22.1973 C72.891,22.1383 72.489,22.2613 72.165,22.4093 C71.324,22.7903 70.495,23.1763 69.543,23.1473 C70.531,22.3653 71.349,21.4043 72.249,20.5243 C72.78,20.0053 73.513,19.8593 74.261,19.8243 C75.157,19.7823 76.077,20.5033 76.133,21.4023 C76.189,22.3053 76.163,23.2123 76.187,24.1183 C76.204,24.7963 76.613,25.1793 77.116,25.0233 C77.978,24.7583 78.842,24.5023 79.704,24.2423 C79.548,24.5633 79.404,24.8923 79.233,25.2053 C78.974,25.6823 78.806,26.0903 79.114,26.6793 C79.438,27.3013 79.518,28.0503 79.72,28.7393 C79.769,28.9073 79.844,29.1063 79.973,29.2023 C80.187,29.3613 80.449,29.1923 80.664,28.7903 C81.09,27.9953 81.507,27.1963 81.93,26.3993 C82.195,25.9023 82.809,25.9473 83.202,26.4123 C83.593,26.8733 83.595,27.3613 83.489,27.9003 C83.416,28.2683 83.614,28.5273 84.039,28.6123 C84.468,28.6983 84.748,28.5073 84.882,28.0973 C85.449,26.3643 84.539,24.7473 82.761,24.5113 C81.694,24.3703 80.601,24.4303 79.52,24.4003 C79.701,23.8413 80.089,23.4633 80.643,23.3373 C81.731,23.0883 82.831,23.1293 83.92,23.3603 C85.961,23.7923 87.253,25.6813 87.184,27.8373 C87.148,28.9983 86.406,29.8843 86.258,30.9703 C86.237,31.1223 86.315,31.2993 86.382,31.4483 C86.59,31.9123 86.886,31.9383 87.216,31.5163 C87.665,30.9423 88.121,30.3723 88.532,29.7713 C88.963,29.1423 89.575,28.7663 90.212,28.3963 C90.831,28.0383 90.958,27.9543 92.185,28.5453 C93.244,29.0563 93.884,28.2763 94.695,27.9893 C94.851,27.9333 95.134,27.9453 95.224,28.0463 C95.446,28.2943 95.776,28.6453 95.731,28.8953 C95.573,29.7853 95.239,30.6433 95.043,31.5283 C94.886,32.2353 94.898,32.9823 94.707,33.6773 C94.629,33.9613 94.215,34.1523 93.953,34.3863 C93.75,34.1103 93.599,33.7573 93.332,33.5763 C92.779,33.2013 92.163,33.4343 92.075,33.9753 C92.048,34.1453 91.947,34.3123 91.951,34.4793 C91.969,35.1893 91.999,35.8993 92.058,36.6063 C92.072,36.7703 92.216,36.9233 92.301,37.0803 C92.413,36.9443 92.579,36.8243 92.629,36.6673 C92.93,35.7253 92.598,34.4173 94.101,34.1893 C93.957,37.9083 93.071,41.4163 91.136,44.6243 C90.946,44.9383 90.741,45.2433 90.541,45.5503 C90.047,46.3073 88.924,46.2563 88.186,45.4773 C87.12,44.3543 86.511,43.0973 86.84,41.5003 C86.857,41.4173 86.593,41.2303 86.43,41.1683 C86.28,41.1103 86.039,41.0863 85.928,41.1683 C85.647,41.3773 85.351,41.6163 85.177,41.9113 C84.526,43.0153 83.916,44.1433 83.302,45.2673 C82.665,46.4323 81.076,46.5303 80.509,47.8063 C80.314,48.2433 79.916,48.2333 79.719,47.9253 C79.625,47.7763 79.516,47.6083 79.504,47.4423 C79.478,47.0793 79.514,46.7123 79.514,46.3473 C79.516,45.0653 79.54,43.7823 79.493,42.5023 C79.481,42.1993 79.224,41.9053 79.081,41.6063 C78.953,41.7383 78.755,41.8493 78.708,42.0053 C77.798,45.0463 75.866,47.5083 74.135,50.0823 C73.845,50.5143 73.469,50.6033 72.75,50.2613 C72.074,49.9403 71.402,49.7023 70.651,49.7163 C70.907,49.5443 71.023,49.1953 71.128,48.8443 C71.338,48.1423 71.116,47.7853 70.493,47.7363 C69.936,47.6923 69.339,47.6423 68.952,48.1083 C68.132,49.0973 67.405,50.1633 66.574,51.1423 C66.012,51.8033 66.23,52.5263 66.222,53.2423 C66.001,53.3903 65.519,53.6513 65.335,54.0503 C64.985,54.8083 64.906,55.6493 65.195,56.4783 C65.021,56.5083 64.763,56.4743 64.685,56.5763 C63.883,57.6283 63.609,58.3473 63.658,59.2863 C63.663,59.3813 63.911,59.5153 64.061,59.5383 C64.222,59.5613 64.46,59.5333 64.56,59.4283 C65.376,58.5723 65.35,57.5283 65.172,56.4583 C67.031,56.4373 68.888,56.4153 70.746,56.3943 C70.834,56.5283 70.915,56.6673 71.011,56.7943 C70.917,56.6343 70.752,56.6013 70.602,56.5453 C71.162,55.1993 71.723,53.8523 72.306,52.4513 C73.157,53.5563 73.737,54.6583 74.058,55.9033 C74.171,56.3413 75.083,56.6163 75.457,56.4363 C78.347,55.0423 80.503,52.8313 82.385,50.2943 C82.628,49.9663 83.053,50.0353 83.322,50.3273 C83.417,50.4313 83.486,50.6123 83.472,50.7483 C83.454,50.9233 83.347,51.0913 83.269,51.2583 C82.957,51.9233 82.729,52.6513 82.307,53.2383 C81.553,54.2843 80.845,55.2993 80.479,56.5863 C80.307,57.1913 79.501,57.6003 79.083,58.1703 C79.014,58.2643 79.445,58.7533 79.681,59.0283 C79.795,59.1593 80.071,59.3343 80.143,59.2883 C80.906,58.7973 81.646,58.2713 82.386,57.7443 C82.833,57.4253 83.234,57.0173 83.72,56.7863 C83.975,56.6653 84.452,56.7363 84.68,56.9133 C84.932,57.1063 85.139,57.5193 85.141,57.8383 C85.145,58.3673 85.039,58.9233 84.854,59.4223 C84.387,60.6773 84.767,61.7083 85.857,61.8963 C86.756,62.0523 87.677,62.0753 88.585,62.1823 C89.228,62.2573 89.739,63.0613 89.571,63.8663 C89.464,64.3793 89.23,64.8923 88.942,65.3313 C88.755,65.6193 88.384,65.9053 88.065,65.9453 C87.871,65.9693 87.604,65.5343 87.398,65.2833 C87.169,65.0053 86.999,64.6753 86.753,64.4163 C86.41,64.0553 85.654,64.1083 85.305,64.5413 C84.851,65.1053 84.402,65.6863 84.053,66.3153 C83.707,66.9363 83.948,67.9043 84.492,68.3113 C84.959,68.6613 85.475,68.6833 86.002,68.3723 C86.316,68.1883 86.66,68.0533 86.994,67.9023 C87.422,67.7093 87.732,67.8213 87.901,68.2353 C87.967,68.3963 88.083,68.6033 88.033,68.7353 C87.579,69.9263 87.13,71.1223 86.602,72.2823 C86.274,72.9993 86.265,73.7093 86.434,74.4293 C86.56,74.9623 86.849,75.4553 86.983,75.9883 C87.466,77.9073 86.741,79.6413 85.11,80.7813 C83.885,81.6383 82.552,82.3863 81.121,82.5823 C79.222,82.8423 77.62,83.5853 76.081,84.6203 C75.287,85.1533 74.383,85.2673 73.443,85.2093 C72.512,85.1523 71.724,84.3403 71.699,83.4213 C71.59,79.4893 72.977,76.2293 76.059,73.7463 C76.283,73.5663 76.7,73.5823 77.025,73.5953 C77.13,73.5993 77.3,73.8753 77.312,74.0373 C77.379,74.9453 77.414,75.8563 77.446,76.7673 C77.501,78.3443 78.521,78.9763 80.048,78.3033 C80.306,78.1893 80.416,77.7433 80.595,77.4503 C81.259,77.3623 81.738,77.0883 81.733,76.3243 C82.443,76.4713 83.112,76.3953 83.525,75.7403 C83.672,75.5063 83.67,75.1163 83.604,74.8283 C83.517,74.4393 83.259,74.4973 82.887,74.8213 C82.37,75.2703 81.824,75.6693 81.867,76.4553 C81.203,76.5523 80.801,76.9053 80.747,77.5993 C79.143,77.0593 78.361,75.9913 78.524,74.2583 C78.65,72.9323 77.966,72.2053 76.69,71.9793 C76.508,71.9473 76.322,71.9163 76.152,71.8503 C75.487,71.5903 75.282,71.0953 75.465,70.0393 C75.496,69.8593 75.608,69.6923 75.627,69.5133 C75.666,69.1533 75.483,68.8703 75.106,68.7393 C74.946,68.6833 74.69,68.6583 74.579,68.7463 C73.862,69.3193 73.22,69.9973 72.462,70.5043 C71.668,71.0373 70.735,71.1763 69.853,70.6773 C69.353,70.3943 68.905,70.2073 68.384,70.5553 C67.925,70.8613 67.483,71.1943 67.012,71.4793 C66.361,71.8733 66.082,71.8073 65.199,70.8863 C64.869,70.5413 64.629,70.3253 64.435,70.5883 C63.563,71.7723 62.721,72.9803 61.88,74.1873 C61.549,74.6623 61.123,74.9843 60.547,75.0463 C59.539,75.1553 58.858,75.6263 58.528,76.6223 C58.181,77.6663 57.795,78.6993 57.374,79.7153 C57.023,80.5613 56.8,81.6123 56.165,82.1633 C54.014,84.0283 54.154,86.8313 53.043,89.1043 C53.105,90.8213 52.348,92.3433 51.798,93.8873 C51.043,96.0023 50.602,98.1573 50.611,100.3753 C50.625,104.0603 50.564,107.7673 50.93,111.4243 C51.24,114.5273 51.622,117.6323 51.991,120.7323 C52.293,123.2723 52.873,125.7933 53.52,128.2713 C54.027,130.2123 54.067,132.2703 55.03,134.1103 C55.245,134.5213 55.169,135.2703 54.929,135.6973 C54.38,136.6753 54.586,137.4023 55.31,138.1323 C55.565,138.3883 55.826,138.6853 55.947,139.0143 C56.063,139.3313 56.146,139.8033 55.992,140.0513 C55.513,140.8263 54.945,141.5533 54.348,142.2443 C54.123,142.5043 53.743,142.7253 53.406,142.7743 C51.209,143.0973 49.013,143.1123 46.843,142.5633 C46.669,142.5193 46.516,142.3993 46.349,142.3263 C45.888,142.1233 45.348,141.3913 45.509,141.0763 C45.665,140.7703 45.908,140.4513 46.198,140.2843 C46.671,140.0113 47.257,139.9223 47.708,139.6243 C47.943,139.4683 48.167,138.9813 48.095,138.7313 C47.79,137.6763 47.612,136.4523 46.945,135.6623 C45.662,134.1433 45.281,132.4843 45.161,130.5863 C45.057,128.9373 44.482,127.3683 43.544,125.9533 C41.673,123.1313 41.702,119.9753 42.405,116.8923 C42.946,114.5173 43.064,112.2133 42.981,109.7973 C42.861,106.3093 42.909,102.7983 43.654,99.3423 C44.24,96.6223 44.293,93.8563 44.173,91.0863 C44.148,90.4963 43.83,90.0383 43.398,89.6933 C42.39,88.8883 42.262,87.9373 42.67,86.7583 C42.864,86.1983 42.421,85.6753 41.955,85.3983 C40.593,84.5893 40.619,83.2743 40.711,81.9963 C40.761,81.2883 41.113,80.5983 41.345,79.9053 C41.516,79.3893 41.735,78.8863 41.88,78.3623 C41.907,78.2623 41.687,78.0963 41.586,77.9563 C41.341,77.6223 40.959,77.4683 40.625,77.7333 C40.211,78.0633 39.841,78.4903 39.565,78.9433 C38.683,80.3973 37.512,81.5283 36.058,82.4023 C35.3,82.8583 34.799,82.7663 34.223,81.8973 C33.92,81.4403 33.678,80.9413 33.364,80.4923 C33.07,80.0723 32.389,80.0393 31.968,80.4733 C31.45,81.0053 30.934,81.5103 30.199,81.7433 C29.41,81.9943 27.986,81.2263 28.044,80.5083 C28.116,79.6163 28.375,78.7353 28.407,77.8443 C28.431,77.1333 28.131,76.4083 28.172,75.7013 C28.203,75.1653 28.588,74.6173 29.179,74.5073 C30.591,74.2433 31.411,73.3863 31.967,72.1193 C32.63,70.6093 33.512,69.1943 33.931,67.5803 C33.97,67.4333 33.887,67.2393 33.821,67.0833 C33.64,66.6603 33.387,66.6853 33.03,67.0933 C32.666,67.5063 32.275,67.8983 31.87,68.2713 C31.431,68.6753 30.957,68.6963 30.381,68.2893 C30.092,68.0853 29.89,67.7583 29.649,67.4873 C29.824,67.4563 30.024,67.4683 30.161,67.3803 C29.936,66.9193 29.775,67.1313 29.782,67.6203 C29.464,67.7533 29.057,67.8053 28.846,68.0363 Z" id="Fill-1" fill="#1A1E23" fill-rule="nonzero" mask="url(#mask-2)"></path>
                    </g>
                </g>
                <path d="M69.6155,82.8575 C69.6155,83.5815 69.6165,84.3055 69.6145,85.0285 C69.6135,85.4535 68.8015,86.0015 68.4645,85.8095 C67.3725,85.1865 66.3095,84.5055 65.1795,83.9625 C64.3915,83.5845 64.1865,82.9405 64.1335,82.2205 C64.0815,81.5085 63.9185,80.5525 64.5395,80.1815 C65.2185,79.7755 65.7425,80.6085 66.2495,81.0505 C66.6135,81.3675 66.8825,81.3815 67.1255,81.0675 C67.4495,80.6455 67.7385,80.1725 68.1415,79.8445 C68.3525,79.6725 68.7815,79.7215 69.1015,79.7585 C69.2195,79.7725 69.3625,80.0235 69.4005,80.1885 C69.4785,80.5255 69.5175,80.8775 69.5305,81.2255 C69.5505,81.7685 69.5355,82.3135 69.5355,82.8575 L69.6155,82.8575 Z" id="Fill-4" fill="#000000" fill-rule="nonzero"></path>
                <path d="M69.4973,51.6363 C69.7573,53.0953 68.8323,53.9423 67.8363,54.7013 C67.6273,54.8613 67.1703,54.7633 66.8503,54.6903 C66.4983,54.6093 66.3433,54.2833 66.3493,53.8703 L66.2223,54.0463 C66.6623,53.7833 67.1113,53.5363 67.5393,53.2543 C68.2583,52.7793 68.9633,52.2823 69.6743,51.7953 L69.4973,51.6363 Z" id="Fill-6" fill="#000000" fill-rule="nonzero"></path>
                <path d="M69.5427,23.9512 C69.4627,24.2582 69.4767,24.6722 69.2787,24.8432 C69.0607,25.0322 68.5367,25.1652 68.3417,25.0332 C67.5697,24.5092 68.2177,24.2522 68.6467,24.1062 C68.9557,24.0012 69.3317,24.0932 69.6777,24.0972 L69.5427,23.9512 Z" id="Fill-8" fill="#000000" fill-rule="nonzero"></path>
                <path d="M15.2707,68.2877 C15.2647,68.6537 15.3197,69.0337 15.2357,69.3797 C15.1547,69.7117 14.9297,70.0087 14.7677,70.3207 C14.6207,70.0087 14.4237,69.7087 14.3407,69.3807 C14.2537,69.0317 14.2757,68.6547 14.2497,68.2907 L14.1057,68.4257 C14.5407,68.4217 14.9747,68.4167 15.4087,68.4127 L15.2707,68.2877 Z" id="Fill-10" fill="#000000" fill-rule="nonzero"></path>
                <path d="M70.6506,50.5201 C70.5106,51.1451 70.3166,51.7131 69.4976,51.6361 L69.6746,51.7951 C69.8386,51.2151 70.1396,50.7751 70.7956,50.6981 L70.6506,50.5201 Z" id="Fill-12" fill="#000000" fill-rule="nonzero"></path>
                <path d="M24.1203,37.2584 C23.6763,39.6544 23.0023,41.1004 21.6783,42.4424 C21.6153,42.5054 21.3803,42.4824 21.2913,42.4134 C21.1603,42.3124 20.9743,42.1004 21.0063,41.9934 C21.5163,40.2514 22.4433,38.7504 23.7253,37.4724 C23.8283,37.3684 24.0713,37.4044 24.2483,37.3754 L24.1203,37.2584 Z" id="Fill-14" fill="#000000" fill-rule="nonzero"></path>
                <path d="M17.4514,38.5567 C17.5064,38.0427 17.5004,37.5127 17.6334,37.0197 C17.7734,36.5007 18.1844,36.1877 18.7374,36.1067 C18.6804,37.1187 18.7034,38.1717 17.4514,38.5567" id="Fill-16" fill="#000000" fill-rule="nonzero"></path>
                <path d="M16.3513,40.7642 C16.3283,40.4102 16.2703,40.0552 16.2893,39.7032 C16.3343,38.8752 16.8243,38.4462 17.6213,38.3302 C17.5863,38.8502 17.6273,39.3892 17.4953,39.8832 C17.3553,40.4072 16.9163,40.7082 16.3513,40.7642" id="Fill-18" fill="#000000" fill-rule="nonzero"></path>
                <path d="M25.3684,41.8272 C25.3514,41.3342 25.2364,40.8172 25.3484,40.3562 C25.4454,39.9632 25.8224,39.8782 26.0694,40.0532 C26.1924,40.1402 26.3584,40.2822 26.3634,40.4052 C26.3954,41.1682 26.0714,41.6642 25.2524,41.7272 L25.3684,41.8272 Z" id="Fill-20" fill="#000000" fill-rule="nonzero"></path>
                <path d="M18.5481,36.3253 C18.5561,35.4753 19.0721,35.1333 19.8331,35.0343 C19.7481,35.8053 19.3491,36.2653 18.5481,36.3253" id="Fill-22" fill="#000000" fill-rule="nonzero"></path>
            </g>
            <path d="M18.375,186.359375 C18.375,190.130227 17.3515727,193.013011 15.3046875,195.007812 C13.2578023,197.002614 10.3125192,198 6.46875,198 L0.140625,198 L0.140625,175.15625 L7.140625,175.15625 C10.6927261,175.15625 13.4531152,176.140615 15.421875,178.109375 C17.3906348,180.078135 18.375,182.828107 18.375,186.359375 Z M15.5625,186.453125 C15.5625,183.473943 14.8151116,181.229174 13.3203125,179.71875 C11.8255134,178.208326 9.60418141,177.453125 6.65625,177.453125 L2.796875,177.453125 L2.796875,195.703125 L6.03125,195.703125 C9.1979325,195.703125 11.578117,194.924487 13.171875,193.367188 C14.765633,191.809888 15.5625,189.505224 15.5625,186.453125 Z M25.515625,180.875 L25.515625,191.984375 C25.515625,193.380215 25.8333302,194.421872 26.46875,195.109375 C27.1041698,195.796878 28.0989516,196.140625 29.453125,196.140625 C31.2448006,196.140625 32.5546834,195.651047 33.3828125,194.671875 C34.2109416,193.692703 34.625,192.093761 34.625,189.875 L34.625,180.875 L37.21875,180.875 L37.21875,198 L35.078125,198 L34.703125,195.703125 L34.5625,195.703125 C34.0312473,196.546879 33.2942755,197.192706 32.3515625,197.640625 C31.4088495,198.088544 30.3333394,198.3125 29.125,198.3125 C27.0416563,198.3125 25.481776,197.817713 24.4453125,196.828125 C23.408849,195.838537 22.890625,194.255219 22.890625,192.078125 L22.890625,180.875 L25.515625,180.875 Z M53.765625,193.328125 C53.765625,194.921883 53.1718809,196.151037 51.984375,197.015625 C50.7968691,197.880213 49.1302191,198.3125 46.984375,198.3125 C44.7135303,198.3125 42.9427147,197.953129 41.671875,197.234375 L41.671875,194.828125 C42.4947958,195.244794 43.3775995,195.572915 44.3203125,195.8125 C45.2630255,196.052085 46.1718706,196.171875 47.046875,196.171875 C48.4010484,196.171875 49.4427047,195.955731 50.171875,195.523438 C50.9010453,195.091144 51.265625,194.432296 51.265625,193.546875 C51.265625,192.880205 50.9765654,192.309898 50.3984375,191.835938 C49.8203096,191.361977 48.6927167,190.802087 47.015625,190.15625 C45.421867,189.562497 44.2890659,189.044273 43.6171875,188.601562 C42.9453091,188.158852 42.4453141,187.656253 42.1171875,187.09375 C41.7890609,186.531247 41.625,185.859379 41.625,185.078125 C41.625,183.682285 42.1927027,182.580733 43.328125,181.773438 C44.4635473,180.966142 46.0208234,180.5625 48,180.5625 C49.8437592,180.5625 51.6458245,180.937496 53.40625,181.6875 L52.484375,183.796875 C50.7656164,183.088538 49.2083403,182.734375 47.8125,182.734375 C46.5833272,182.734375 45.6562531,182.927081 45.03125,183.3125 C44.4062469,183.697919 44.09375,184.229163 44.09375,184.90625 C44.09375,185.364586 44.2109363,185.755207 44.4453125,186.078125 C44.6796887,186.401043 45.0572891,186.708332 45.578125,187 C46.0989609,187.291668 47.0989509,187.713539 48.578125,188.265625 C50.6093852,189.005212 51.9817673,189.749996 52.6953125,190.5 C53.4088577,191.250004 53.765625,192.192703 53.765625,193.328125 Z M63.515625,196.171875 C63.9739606,196.171875 64.4166645,196.138021 64.84375,196.070312 C65.2708355,196.002604 65.6093738,195.932292 65.859375,195.859375 L65.859375,197.84375 C65.5781236,197.979167 65.1640652,198.091145 64.6171875,198.179688 C64.0703098,198.26823 63.5781272,198.3125 63.140625,198.3125 C59.8281084,198.3125 58.171875,196.567726 58.171875,193.078125 L58.171875,182.890625 L55.71875,182.890625 L55.71875,181.640625 L58.171875,180.5625 L59.265625,176.90625 L60.765625,176.90625 L60.765625,180.875 L65.734375,180.875 L65.734375,182.890625 L60.765625,182.890625 L60.765625,192.96875 C60.765625,194.000005 61.0104142,194.791664 61.5,195.34375 C61.9895858,195.895836 62.6614541,196.171875 63.515625,196.171875 Z M71.875,198 L69.28125,198 L69.28125,180.875 L71.875,180.875 L71.875,198 Z M69.0625,176.234375 C69.0625,175.640622 69.2083319,175.205731 69.5,174.929688 C69.7916681,174.653644 70.1562478,174.515625 70.59375,174.515625 C71.0104187,174.515625 71.3697902,174.656249 71.671875,174.9375 C71.9739598,175.218751 72.125,175.651039 72.125,176.234375 C72.125,176.817711 71.9739598,177.252603 71.671875,177.539062 C71.3697902,177.825522 71.0104187,177.96875 70.59375,177.96875 C70.1562478,177.96875 69.7916681,177.825522 69.5,177.539062 C69.2083319,177.252603 69.0625,176.817711 69.0625,176.234375 Z M89.09375,198 L89.09375,186.921875 C89.09375,185.526035 88.7760448,184.484378 88.140625,183.796875 C87.5052052,183.109372 86.5104234,182.765625 85.15625,182.765625 C83.3645744,182.765625 82.0520875,183.249995 81.21875,184.21875 C80.3854125,185.187505 79.96875,186.786447 79.96875,189.015625 L79.96875,198 L77.375,198 L77.375,180.875 L79.484375,180.875 L79.90625,183.21875 L80.03125,183.21875 C80.5625027,182.374996 81.3072869,181.721356 82.265625,181.257812 C83.2239631,180.794269 84.2916608,180.5625 85.46875,180.5625 C87.5312603,180.5625 89.0833281,181.059891 90.125,182.054688 C91.1666719,183.049484 91.6875,184.640614 91.6875,186.828125 L91.6875,198 L89.09375,198 Z M123.0625,198 L120.40625,198 L120.40625,187.25 L108.375,187.25 L108.375,198 L105.71875,198 L105.71875,175.15625 L108.375,175.15625 L108.375,184.875 L120.40625,184.875 L120.40625,175.15625 L123.0625,175.15625 L123.0625,198 Z M143.71875,189.421875 C143.71875,192.213556 143.015632,194.393221 141.609375,195.960938 C140.203118,197.528654 138.260429,198.3125 135.78125,198.3125 C134.249992,198.3125 132.890631,197.953129 131.703125,197.234375 C130.515619,196.515621 129.598962,195.484382 128.953125,194.140625 C128.307288,192.796868 127.984375,191.223967 127.984375,189.421875 C127.984375,186.630194 128.682285,184.455737 130.078125,182.898438 C131.473965,181.341138 133.411446,180.5625 135.890625,180.5625 C138.28647,180.5625 140.190097,181.359367 141.601562,182.953125 C143.013028,184.546883 143.71875,186.703111 143.71875,189.421875 Z M130.671875,189.421875 C130.671875,191.609386 131.109371,193.276036 131.984375,194.421875 C132.859379,195.567714 134.145825,196.140625 135.84375,196.140625 C137.541675,196.140625 138.830725,195.570318 139.710938,194.429688 C140.59115,193.289057 141.03125,191.619803 141.03125,189.421875 C141.03125,187.244781 140.59115,185.591151 139.710938,184.460938 C138.830725,183.330724 137.531259,182.765625 135.8125,182.765625 C134.114575,182.765625 132.833338,183.322911 131.96875,184.4375 C131.104162,185.552089 130.671875,187.213531 130.671875,189.421875 Z M156.078125,180.5625 C156.838545,180.5625 157.52083,180.624999 158.125,180.75 L157.765625,183.15625 C157.057288,182.999999 156.432294,182.921875 155.890625,182.921875 C154.505201,182.921875 153.320317,183.484369 152.335938,184.609375 C151.351558,185.734381 150.859375,187.135408 150.859375,188.8125 L150.859375,198 L148.265625,198 L148.265625,180.875 L150.40625,180.875 L150.703125,184.046875 L150.828125,184.046875 C151.463545,182.932286 152.229162,182.07292 153.125,181.46875 C154.020838,180.86458 155.005203,180.5625 156.078125,180.5625 Z M169.140625,180.5625 C169.901045,180.5625 170.58333,180.624999 171.1875,180.75 L170.828125,183.15625 C170.119788,182.999999 169.494794,182.921875 168.953125,182.921875 C167.567701,182.921875 166.382817,183.484369 165.398438,184.609375 C164.414058,185.734381 163.921875,187.135408 163.921875,188.8125 L163.921875,198 L161.328125,198 L161.328125,180.875 L163.46875,180.875 L163.765625,184.046875 L163.890625,184.046875 C164.526045,182.932286 165.291662,182.07292 166.1875,181.46875 C167.083338,180.86458 168.067703,180.5625 169.140625,180.5625 Z M189.171875,189.421875 C189.171875,192.213556 188.468757,194.393221 187.0625,195.960938 C185.656243,197.528654 183.713554,198.3125 181.234375,198.3125 C179.703117,198.3125 178.343756,197.953129 177.15625,197.234375 C175.968744,196.515621 175.052087,195.484382 174.40625,194.140625 C173.760413,192.796868 173.4375,191.223967 173.4375,189.421875 C173.4375,186.630194 174.13541,184.455737 175.53125,182.898438 C176.92709,181.341138 178.864571,180.5625 181.34375,180.5625 C183.739595,180.5625 185.643222,181.359367 187.054688,182.953125 C188.466153,184.546883 189.171875,186.703111 189.171875,189.421875 Z M176.125,189.421875 C176.125,191.609386 176.562496,193.276036 177.4375,194.421875 C178.312504,195.567714 179.59895,196.140625 181.296875,196.140625 C182.9948,196.140625 184.28385,195.570318 185.164062,194.429688 C186.044275,193.289057 186.484375,191.619803 186.484375,189.421875 C186.484375,187.244781 186.044275,185.591151 185.164062,184.460938 C184.28385,183.330724 182.984384,182.765625 181.265625,182.765625 C179.5677,182.765625 178.286463,183.322911 177.421875,184.4375 C176.557287,185.552089 176.125,187.213531 176.125,189.421875 Z M200.5625,198.3125 C198.083321,198.3125 196.164069,197.549487 194.804688,196.023438 C193.445306,194.497388 192.765625,192.338556 192.765625,189.546875 C192.765625,186.682277 193.455722,184.468758 194.835938,182.90625 C196.216153,181.343742 198.182279,180.5625 200.734375,180.5625 C201.557296,180.5625 202.380204,180.651041 203.203125,180.828125 C204.026046,181.005209 204.671873,181.21354 205.140625,181.453125 L204.34375,183.65625 C203.77083,183.427082 203.145837,183.23698 202.46875,183.085938 C201.791663,182.934895 201.192711,182.859375 200.671875,182.859375 C197.192691,182.859375 195.453125,185.078103 195.453125,189.515625 C195.453125,191.619802 195.8776,193.234369 196.726562,194.359375 C197.575525,195.484381 198.833325,196.046875 200.5,196.046875 C201.92709,196.046875 203.390617,195.739586 204.890625,195.125 L204.890625,197.421875 C203.744786,198.015628 202.302092,198.3125 200.5625,198.3125 Z M211.515625,189.234375 C211.963544,188.598955 212.645829,187.76563 213.5625,186.734375 L219.09375,180.875 L222.171875,180.875 L215.234375,188.171875 L222.65625,198 L219.515625,198 L213.46875,189.90625 L211.515625,191.59375 L211.515625,198 L208.953125,198 L208.953125,173.6875 L211.515625,173.6875 L211.515625,186.578125 C211.515625,187.151045 211.473959,188.036452 211.390625,189.234375 L211.515625,189.234375 Z" id="Dustin-Horrock" fill="#1A1E23"></path>
            <path d="M50.9648442,212.578125 L50.9648442,219.453125 C50.9648442,220.947924 50.5416714,222.105465 49.695313,222.925781 C48.8489546,223.746098 47.6289147,224.15625 46.0351567,224.15625 C44.4778573,224.15625 43.2812547,223.757816 42.445313,222.960938 C41.6093713,222.164059 41.1914067,221.018237 41.1914067,219.523438 L41.1914067,212.578125 L44.2929692,212.578125 L44.2929692,219.28125 C44.2929692,220.088546 44.4440094,220.674477 44.7460942,221.039062 C45.0481791,221.403648 45.4934871,221.585938 46.0820317,221.585938 C46.7122432,221.585938 47.1692699,221.40495 47.4531255,221.042969 C47.7369811,220.680988 47.8789067,220.088546 47.8789067,219.265625 L47.8789067,212.578125 L50.9648442,212.578125 Z M66.7523441,224 L63.1820316,224 L60.9554691,220.429688 L58.7523441,224 L55.2601566,224 L59.0492191,218.15625 L55.4867191,212.578125 L58.9085941,212.578125 L60.9710941,216.109375 L62.9554691,212.578125 L66.4789066,212.578125 L62.8617191,218.398438 L66.7523441,224 Z M88.0851564,218.046875 C88.0851564,219.953135 87.5604221,221.42187 86.5109377,222.453125 C85.4614533,223.48438 83.9862076,224 82.0851564,224 L78.3898439,224 L78.3898439,212.578125 L82.3429689,212.578125 C84.1763114,212.578125 85.5916619,213.04687 86.5890627,213.984375 C87.5864635,214.92188 88.0851564,216.276033 88.0851564,218.046875 Z M84.8820314,218.15625 C84.8820314,217.10937 84.6750023,216.333336 84.2609377,215.828125 C83.8468731,215.322914 83.2179732,215.070312 82.3742189,215.070312 L81.4757814,215.070312 L81.4757814,221.46875 L82.1632814,221.46875 C83.1007861,221.46875 83.7882793,221.196617 84.2257814,220.652344 C84.6632836,220.10807 84.8820314,219.276047 84.8820314,218.15625 Z M100.013281,224 L93.2320313,224 L93.2320313,212.578125 L100.013281,212.578125 L100.013281,215.054688 L96.3179688,215.054688 L96.3179688,216.851562 L99.7398438,216.851562 L99.7398438,219.328125 L96.3179688,219.328125 L96.3179688,221.484375 L100.013281,221.484375 L100.013281,224 Z M112.582031,220.53125 C112.582031,221.239587 112.402346,221.868487 112.042969,222.417969 C111.683592,222.967451 111.165368,223.39453 110.488281,223.699219 C109.811195,224.003908 109.016932,224.15625 108.105469,224.15625 C107.345048,224.15625 106.707034,224.102865 106.191406,223.996094 C105.675779,223.889322 105.139326,223.703126 104.582031,223.4375 L104.582031,220.6875 C105.170576,220.989585 105.782549,221.22526 106.417969,221.394531 C107.053389,221.563803 107.636716,221.648438 108.167969,221.648438 C108.626304,221.648438 108.962239,221.569011 109.175781,221.410156 C109.389324,221.251301 109.496094,221.046876 109.496094,220.796875 C109.496094,220.640624 109.453125,220.503907 109.367188,220.386719 C109.28125,220.269531 109.14323,220.151042 108.953125,220.03125 C108.76302,219.911458 108.256515,219.666669 107.433594,219.296875 C106.688798,218.958332 106.13021,218.63021 105.757812,218.3125 C105.385415,217.99479 105.109376,217.63021 104.929688,217.21875 C104.749999,216.80729 104.660156,216.320315 104.660156,215.757812 C104.660156,214.705724 105.042965,213.88542 105.808594,213.296875 C106.574223,212.70833 107.626295,212.414062 108.964844,212.414062 C110.147141,212.414062 111.352858,212.687497 112.582031,213.234375 L111.636719,215.617188 C110.569005,215.127602 109.647139,214.882812 108.871094,214.882812 C108.47005,214.882812 108.178386,214.953124 107.996094,215.09375 C107.813801,215.234376 107.722656,215.408853 107.722656,215.617188 C107.722656,215.841147 107.838541,216.041666 108.070312,216.21875 C108.302084,216.395834 108.930984,216.718748 109.957031,217.1875 C110.941411,217.630211 111.624998,218.105466 112.007812,218.613281 C112.390627,219.121096 112.582031,219.760413 112.582031,220.53125 Z M117.447656,224 L117.447656,212.578125 L120.549219,212.578125 L120.549219,224 L117.447656,224 Z M130.703906,217.3125 L135.633594,217.3125 L135.633594,223.46875 C134.295045,223.927086 132.823706,224.15625 131.219531,224.15625 C129.459106,224.15625 128.098442,223.645838 127.1375,222.625 C126.176558,221.604162 125.696094,220.148447 125.696094,218.257812 C125.696094,216.414053 126.22213,214.979172 127.274219,213.953125 C128.326307,212.927078 129.800251,212.414062 131.696094,212.414062 C132.414847,212.414062 133.093226,212.48177 133.73125,212.617188 C134.369274,212.752605 134.925258,212.924478 135.399219,213.132812 L134.422656,215.554688 C133.599735,215.148435 132.696098,214.945312 131.711719,214.945312 C130.810672,214.945312 130.114065,215.238278 129.621875,215.824219 C129.129685,216.410159 128.883594,217.24739 128.883594,218.335938 C128.883594,219.403651 129.106248,220.217445 129.551562,220.777344 C129.996877,221.337242 130.638798,221.617188 131.477344,221.617188 C131.935679,221.617188 132.35755,221.572917 132.742969,221.484375 L132.742969,219.695312 L130.703906,219.695312 L130.703906,217.3125 Z M151.936718,224 L147.889843,224 L143.717968,215.953125 L143.647656,215.953125 C143.746615,217.218756 143.796093,218.184892 143.796093,218.851562 L143.796093,224 L141.061718,224 L141.061718,212.578125 L145.092968,212.578125 L149.249218,220.515625 L149.296093,220.515625 C149.223176,219.364578 149.186718,218.440108 149.186718,217.742188 L149.186718,212.578125 L151.936718,212.578125 L151.936718,224 Z M164.286718,224 L157.505468,224 L157.505468,212.578125 L164.286718,212.578125 L164.286718,215.054688 L160.591406,215.054688 L160.591406,216.851562 L164.013281,216.851562 L164.013281,219.328125 L160.591406,219.328125 L160.591406,221.484375 L164.286718,221.484375 L164.286718,224 Z M172.472656,219.84375 L172.472656,224 L169.386718,224 L169.386718,212.578125 L173.128906,212.578125 C176.233088,212.578125 177.785156,213.703114 177.785156,215.953125 C177.785156,217.276048 177.139329,218.299476 175.847656,219.023438 L179.175781,224 L175.675781,224 L173.253906,219.84375 L172.472656,219.84375 Z M172.472656,217.523438 L173.050781,217.523438 C174.128911,217.523438 174.667968,217.04688 174.667968,216.09375 C174.667968,215.307288 174.139328,214.914062 173.082031,214.914062 L172.472656,214.914062 L172.472656,217.523438 Z" id="UX-DESIGNER" fill="#1A1E23"></path>
        </g>
    </g>
</svg>