<?xml version="1.0" encoding="UTF-8"?>
<svg width="3000px" height="1500px" viewBox="0 0 3000 1500" version="1.1" xmlns="http://www.w3.org/2000/svg" xmlns:xlink="http://www.w3.org/1999/xlink">
    <!-- Generator: Sketch 50.2 (55047) - http://www.bohemiancoding.com/sketch -->
    <title>Artboard 2 Copy 3</title>
    <desc>Created with Sketch.</desc>
    <defs></defs>
    <g id="Artboard-2-Copy-3" stroke="none" stroke-width="1" fill="none" fill-rule="evenodd">
        <rect id="Rectangle-12" fill="#333333" x="0" y="0" width="3000" height="1500"></rect>
        <g id="Group-5" transform="translate(823.000000, 85.000000)">
            <g id="Group-3-Copy" transform="translate(1691.000000, 222.000000)">
                <rect id="Rectangle-14" stroke="#FFFFFF" stroke-width="3" fill="#333333" x="1.5" y="1.5" width="397" height="1104"></rect>
                <g id="Group" transform="translate(60.895522, 157.631068)" fill="#D8D8D8" stroke="#979797">
                    <rect id="Rectangle" x="0.5" y="0.5" width="278.402985" height="22.1046855"></rect>
                    <rect id="Rectangle-Copy" x="0.5" y="42.0884339" width="278.402985" height="22.1046855"></rect>
                    <rect id="Rectangle-Copy-2" x="0.5" y="83.6768679" width="100.601085" height="22.1046855"></rect>
                </g>
                <g id="Group-Copy-3" transform="translate(60.895522, 340.339806)" fill="#D8D8D8" stroke="#979797">
                    <rect id="Rectangle" x="0.5" y="0.5" width="278.402985" height="22.1046855"></rect>
                    <rect id="Rectangle-Copy" x="0.5" y="42.0884339" width="278.402985" height="22.1046855"></rect>
                    <rect id="Rectangle-Copy-2" x="0.5" y="83.6768679" width="100.601085" height="22.1046855"></rect>
                </g>
                <path d="M128.401353,47.9617434 C121.387593,47.9617434 117.014925,42.9063258 117.014925,34.7371909 C117.014925,26.5505632 121.370103,21.4951456 128.383862,21.4951456 C133.945896,21.4951456 138.248601,25.0986613 138.878265,30.2415428 L134.977845,30.2415428 C134.243237,27.1453182 131.70709,25.1511396 128.383862,25.1511396 C123.853778,25.1511396 121.020289,28.8421192 121.020289,34.7371909 C121.020289,40.6147698 123.853778,44.3057494 128.401353,44.3057494 C131.742071,44.3057494 134.278218,42.5039916 134.977845,39.6526661 L138.878265,39.6526661 C138.178638,44.6381125 134.033349,47.9617434 128.401353,47.9617434 Z M159.835079,28.2998426 L159.835079,47.3494956 L156.21451,47.3494956 L156.21451,44.3232422 L155.917168,44.3232422 C154.990163,46.4923487 153.048698,47.7168443 150.162737,47.7168443 C145.947486,47.7168443 143.603736,45.1454035 143.603736,40.6672482 L143.603736,28.2998426 L147.36423,28.2998426 L147.36423,39.6876517 C147.36423,42.7663835 148.606068,44.2357782 151.369594,44.2357782 C154.412971,44.2357782 156.074584,42.4340204 156.074584,39.4427526 L156.074584,28.2998426 L159.835079,28.2998426 Z M165.050288,33.6876233 C165.050288,30.311514 168.146137,27.9324939 172.448842,27.9324939 C176.734057,27.9324939 179.532564,29.9266725 179.899869,33.285289 L176.29679,33.285289 C175.946977,31.8858654 174.582704,30.9937329 172.448842,30.9937329 C170.349962,30.9937329 168.758311,31.9908222 168.758311,33.4777097 C168.758311,34.6147414 169.720298,35.3319459 171.784197,35.8042514 L174.950008,36.5389487 C178.570577,37.3786029 180.267173,38.9354615 180.267173,41.7343086 C180.267173,45.3203315 176.926454,47.7168443 172.37888,47.7168443 C167.848796,47.7168443 164.892872,45.6701873 164.56055,42.294078 L168.321044,42.294078 C168.793292,43.7634728 170.192546,44.6730981 172.466333,44.6730981 C174.810083,44.6730981 176.471697,43.6235304 176.471697,42.1016573 C176.471697,40.9646257 175.579673,40.2299283 173.673189,39.7751157 L170.349962,39.0054327 C166.729393,38.1482858 165.050288,36.5214559 165.050288,33.6876233 Z M186.182009,23.5592954 L189.942503,23.5592954 L189.942503,28.3873066 L194.070302,28.3873066 L194.070302,31.5535024 L189.942503,31.5535024 L189.942503,41.3494672 C189.942503,43.3436457 190.764565,44.2182854 192.636067,44.2182854 C193.213259,44.2182854 193.545582,44.1832998 194.070302,44.1308215 L194.070302,47.2620316 C193.458128,47.3669884 192.758502,47.4544524 192.023893,47.4544524 C187.843623,47.4544524 186.182009,45.9850576 186.182009,42.3115708 L186.182009,31.5535024 L183.156123,31.5535024 L183.156123,28.3873066 L186.182009,28.3873066 L186.182009,23.5592954 Z M206.526649,47.7168443 C200.947125,47.7168443 197.536444,43.9908791 197.536444,37.8159227 C197.536444,31.6759519 200.964616,27.9324939 206.526649,27.9324939 C212.071192,27.9324939 215.499364,31.6759519 215.499364,37.8159227 C215.499364,43.9908791 212.088683,47.7168443 206.526649,47.7168443 Z M206.526649,44.3757206 C209.779914,44.3757206 211.633926,41.961715 211.633926,37.8159227 C211.633926,33.6876233 209.779914,31.2736176 206.526649,31.2736176 C203.255894,31.2736176 201.419373,33.6876233 201.419373,37.8159227 C201.419373,41.9792078 203.255894,44.3757206 206.526649,44.3757206 Z M220.207344,47.3494956 L220.207344,28.2998426 L223.827913,28.2998426 L223.827913,31.3610816 L224.107764,31.3610816 C224.947316,29.2094679 226.87129,27.9324939 229.407437,27.9324939 C232.013547,27.9324939 233.815086,29.2794391 234.654639,31.3610816 L234.95198,31.3610816 C235.913967,29.2794391 238.100301,27.9324939 240.741392,27.9324939 C244.58934,27.9324939 246.828146,30.2590356 246.828146,34.2298999 L246.828146,47.3494956 L243.067652,47.3494956 L243.067652,35.2094964 C243.067652,32.6380556 241.843305,31.3785744 239.37712,31.3785744 C236.945917,31.3785744 235.354266,33.1278538 235.354266,35.3669315 L235.354266,47.3494956 L231.663734,47.3494956 L231.663734,34.8421477 C231.663734,32.690534 230.229499,31.3785744 227.990693,31.3785744 C225.699415,31.3785744 223.967838,33.2503034 223.967838,35.6992946 L223.967838,47.3494956 L220.207344,47.3494956 Z M260.124046,31.1336753 C257.343029,31.1336753 255.401565,33.0928682 255.191677,36.0666433 L264.811546,36.0666433 C264.724093,33.0753755 262.905063,31.1336753 260.124046,31.1336753 Z M264.794055,42.2066141 L268.414624,42.2066141 C267.557581,45.617709 264.514204,47.7168443 260.159027,47.7168443 C254.701938,47.7168443 251.361219,43.9733863 251.361219,37.8858939 C251.361219,31.7984015 254.7719,27.9324939 260.141537,27.9324939 C265.44121,27.9324939 268.642003,31.5535024 268.642003,37.536038 L268.642003,38.8479976 L255.191677,38.8479976 L255.191677,39.0579111 C255.314111,42.3990348 257.255576,44.5156629 260.263971,44.5156629 C262.537759,44.5156629 264.094428,43.6935016 264.794055,42.2066141 Z M273.349983,47.3494956 L273.349983,28.2998426 L276.970552,28.2998426 L276.970552,31.2211393 L277.250403,31.2211393 C277.792614,29.3494103 279.908985,27.9849723 282.39266,27.9849723 C282.952362,27.9849723 283.669479,28.0374507 284.071765,28.1424075 L284.071765,31.8508799 C283.756933,31.7459231 282.63753,31.6234735 281.972884,31.6234735 C279.121905,31.6234735 277.110477,33.4252313 277.110477,36.1016289 L277.110477,47.3494956 L273.349983,47.3494956 Z M173.69068,90.3397869 L169.77277,90.3397869 L169.77277,65.0976847 L173.69068,65.0976847 L173.69068,90.3397869 Z M179.762932,90.3397869 L179.762932,71.2901339 L183.383502,71.2901339 L183.383502,74.3163873 L183.663352,74.3163873 C184.590358,72.1997592 186.47935,70.9227852 189.347821,70.9227852 C193.598054,70.9227852 195.941804,73.4767332 195.941804,78.0073669 L195.941804,90.3397869 L192.181309,90.3397869 L192.181309,78.9519778 C192.181309,75.8907388 190.852018,74.3688657 188.071002,74.3688657 C185.289985,74.3688657 183.523427,76.2231019 183.523427,79.1968769 L183.523427,90.3397869 L179.762932,90.3397869 Z M202.766155,90.3397869 L202.766155,74.5437936 L199.635325,74.5437936 L199.635325,71.3775978 L202.766155,71.3775978 L202.766155,69.5233617 C202.766155,65.6399613 204.882526,64.0306242 208.852909,64.0306242 C209.587517,64.0306242 210.147218,64.0831026 210.881827,64.2055522 L210.881827,67.2143128 C210.514523,67.1443416 209.849877,67.0743704 209.220213,67.0743704 C207.418674,67.0743704 206.474177,67.8965318 206.474177,69.7682608 L206.474177,71.3775978 L210.724411,71.3775978 L210.724411,74.5437936 L206.526649,74.5437936 L206.526649,90.3397869 L202.766155,90.3397869 Z M222.481131,90.7071355 C216.901607,90.7071355 213.490926,86.9811704 213.490926,80.806214 C213.490926,74.6662432 216.919098,70.9227852 222.481131,70.9227852 C228.025674,70.9227852 231.453846,74.6662432 231.453846,80.806214 C231.453846,86.9811704 228.043165,90.7071355 222.481131,90.7071355 Z M222.481131,87.3660118 C225.734396,87.3660118 227.588407,84.9520062 227.588407,80.806214 C227.588407,76.6779145 225.734396,74.2639089 222.481131,74.2639089 C219.210376,74.2639089 217.373855,76.6779145 217.373855,80.806214 C217.373855,84.969499 219.210376,87.3660118 222.481131,87.3660118 Z" id="Customer-Info" fill="#979797"></path>
            </g>
            <g id="Group-18">
                <rect id="Rectangle-14-Copy" stroke="#FFFFFF" stroke-width="3" fill="#333333" x="1.5" y="1.5" width="2088" height="221.945568"></rect>
                <rect id="Rectangle-3-Copy-3" stroke="#979797" fill="#D8D8D8" x="729.437664" y="112.972784" width="84.7127302" height="84.6935496"></rect>
                <rect id="Rectangle-3-Copy-5" stroke="#979797" fill="#D8D8D8" x="1329.42678" y="112.972784" width="84.7127302" height="84.6935496"></rect>
                <rect id="Rectangle-3-Copy-8" stroke="#979797" fill="#D8D8D8" x="1798.16827" y="112.972784" width="84.7127302" height="84.6935496"></rect>
                <rect id="Rectangle-3-Copy" stroke="#979797" fill="#D8D8D8" x="279.445831" y="112.972784" width="84.7127302" height="84.6935496"></rect>
                <rect id="Rectangle-3-Copy-6" stroke="#979797" fill="#D8D8D8" x="879.434942" y="112.972784" width="84.7127302" height="84.6935496"></rect>
                <rect id="Rectangle-3-Copy-2" stroke="#979797" fill="#D8D8D8" x="429.443109" y="112.972784" width="84.7127302" height="84.6935496"></rect>
                <rect id="Rectangle-3-Copy-7" stroke="#979797" fill="#D8D8D8" x="1029.43222" y="112.972784" width="84.7127302" height="84.6935496"></rect>
                <path d="M993.471765,51.6305184 L989.553379,51.6305184 L989.553379,29.9280444 L981.61165,29.9280444 L981.61165,26.3547557 L1001.396,26.3547557 L1001.396,29.9280444 L993.471765,29.9280444 L993.471765,51.6305184 Z M1011.22994,51.9983569 C1005.64974,51.9983569 1002.23864,48.2674231 1002.23864,42.0842324 C1002.23864,35.9360739 1005.66723,32.187624 1011.22994,32.187624 C1016.77516,32.187624 1020.20374,35.9360739 1020.20374,42.0842324 C1020.20374,48.2674231 1016.79265,51.9983569 1011.22994,51.9983569 Z M1011.22994,48.6527778 C1014.4836,48.6527778 1016.33784,46.2355531 1016.33784,42.0842324 C1016.33784,37.9504278 1014.4836,35.5332031 1011.22994,35.5332031 C1007.95879,35.5332031 1006.12204,37.9504278 1006.12204,42.0842324 C1006.12204,46.2530692 1007.95879,48.6527778 1011.22994,48.6527778 Z M1032.95898,51.9983569 C1027.37878,51.9983569 1023.96768,48.2674231 1023.96768,42.0842324 C1023.96768,35.9360739 1027.39627,32.187624 1032.95898,32.187624 C1038.5042,32.187624 1041.93278,35.9360739 1041.93278,42.0842324 C1041.93278,48.2674231 1038.52169,51.9983569 1032.95898,51.9983569 Z M1032.95898,48.6527778 C1036.21264,48.6527778 1038.06688,46.2355531 1038.06688,42.0842324 C1038.06688,37.9504278 1036.21264,35.5332031 1032.95898,35.5332031 C1029.68783,35.5332031 1027.85109,37.9504278 1027.85109,42.0842324 C1027.85109,46.2530692 1029.68783,48.6527778 1032.95898,48.6527778 Z M1046.81626,51.6305184 L1046.81626,25.1111111 L1050.57721,25.1111111 L1050.57721,51.6305184 L1046.81626,51.6305184 Z M1066.49865,51.9458085 C1063.83974,51.9458085 1061.61816,50.7196801 1060.48113,48.6177455 L1060.20124,48.6177455 L1060.20124,51.6305184 L1056.58023,51.6305184 L1056.58023,25.1111111 L1060.34118,25.1111111 L1060.34118,35.5857515 L1060.63856,35.5857515 C1061.65314,33.5013331 1063.89222,32.2401724 1066.49865,32.2401724 C1071.32666,32.2401724 1074.3704,36.0236545 1074.3704,42.0842324 C1074.3704,48.1272941 1071.30917,51.9458085 1066.49865,51.9458085 Z M1065.41409,35.6207837 C1062.26539,35.6207837 1060.28871,38.1080729 1060.27121,42.1017485 C1060.28871,46.0954241 1062.2479,48.5651972 1065.41409,48.5651972 C1068.59778,48.5651972 1070.5045,46.1304563 1070.5045,42.0842324 C1070.5045,38.0730407 1068.59778,35.6207837 1065.41409,35.6207837 Z M1085.30639,48.7753906 C1088.14022,48.7753906 1090.23936,46.9712302 1090.23936,44.6065538 L1090.23936,43.0125868 L1085.58628,43.3103609 C1082.96236,43.4855221 1081.77285,44.3788442 1081.77285,46.0603919 C1081.77285,47.7769717 1083.25973,48.7753906 1085.30639,48.7753906 Z M1084.34429,51.9458085 C1080.6708,51.9458085 1077.9944,49.7212612 1077.9944,46.2355531 C1077.9944,42.8023934 1080.54835,40.8230717 1085.07898,40.5428137 L1090.23936,40.2450397 L1090.23936,38.5985243 C1090.23936,36.5841704 1088.90991,35.4456225 1086.33847,35.4456225 C1084.23933,35.4456225 1082.78743,36.2163318 1082.3676,37.5650732 L1078.7291,37.5650732 C1079.11394,34.2895585 1082.19267,32.187624 1086.51339,32.187624 C1091.28893,32.187624 1093.98282,34.5698165 1093.98282,38.5985243 L1093.98282,51.6305184 L1090.36181,51.6305184 L1090.36181,48.9505518 L1090.06443,48.9505518 C1088.9274,50.859809 1086.84576,51.9458085 1084.34429,51.9458085 Z M1099.53102,51.6305184 L1099.53102,32.5554625 L1103.15203,32.5554625 L1103.15203,35.4806548 L1103.43192,35.4806548 C1103.97419,33.6064298 1106.09082,32.2401724 1108.5748,32.2401724 C1109.13457,32.2401724 1109.85177,32.2927207 1110.2541,32.3978175 L1110.2541,36.1112351 C1109.93923,36.0061384 1108.8197,35.8835255 1108.15497,35.8835255 C1105.30364,35.8835255 1103.29197,37.687686 1103.29197,40.3676525 L1103.29197,51.6305184 L1099.53102,51.6305184 Z" id="Toolbar" fill="#979797"></path>
            </g>
            <g id="Group-3" transform="translate(0.000000, 222.000000)">
                <rect id="Rectangle-14" stroke="#FFFFFF" stroke-width="3" fill="#333333" x="1.5" y="1.5" width="460.849314" height="1103.98986"></rect>
                <rect id="Rectangle-2" stroke="#979797" fill="#D8D8D8" x="43.3993585" y="128.846651" width="379.731807" height="79.2166568"></rect>
                <rect id="Rectangle-2-Copy" stroke="#979797" fill="#D8D8D8" x="43.3993585" y="225.106639" width="379.731807" height="79.2166568"></rect>
                <rect id="Rectangle-2-Copy-2" stroke="#979797" fill="#D8D8D8" x="43.3993585" y="321.366627" width="379.731807" height="79.2166568"></rect>
                <path d="M120.178154,51.4781031 C113.156506,51.4781031 108.77892,46.4235714 108.77892,38.2558678 C108.77892,30.0706745 113.138996,25.0161427 120.160643,25.0161427 C125.728932,25.0161427 130.036477,28.619027 130.666849,33.7610074 L126.762043,33.7610074 C126.026608,30.6653253 123.487608,28.6714962 120.160643,28.6714962 C115.625464,28.6714962 112.788789,32.361829 112.788789,38.2558678 C112.788789,44.1324168 115.625464,47.8227497 120.178154,47.8227497 C123.522629,47.8227497 126.061629,46.0213076 126.762043,43.1704817 L130.666849,43.1704817 C129.966435,48.1550546 125.816484,51.4781031 120.178154,51.4781031 Z M143.627496,51.2332469 C138.041696,51.2332469 134.627179,47.5079346 134.627179,41.3340601 C134.627179,35.1951652 138.059207,31.4523631 143.627496,31.4523631 C149.178274,31.4523631 152.610302,35.1951652 152.610302,41.3340601 C152.610302,47.5079346 149.195785,51.2332469 143.627496,51.2332469 Z M143.627496,47.8927086 C146.884419,47.8927086 148.740516,45.479126 148.740516,41.3340601 C148.740516,37.206484 146.884419,34.7929014 143.627496,34.7929014 C140.353061,34.7929014 138.514475,37.206484 138.514475,41.3340601 C138.514475,45.4966157 140.353061,47.8927086 143.627496,47.8927086 Z M157.323577,50.8659626 L157.323577,31.8196474 L160.948218,31.8196474 L160.948218,34.8453706 L161.228383,34.8453706 C162.156431,32.7291133 164.047548,31.4523631 166.919244,31.4523631 C171.174258,31.4523631 173.520644,34.0058636 173.520644,38.5357035 L173.520644,50.8659626 L169.75592,50.8659626 L169.75592,39.4801488 C169.75592,36.4194462 168.425134,34.8978398 165.640989,34.8978398 C162.856845,34.8978398 161.0883,36.7517511 161.0883,39.7250051 L161.0883,50.8659626 L157.323577,50.8659626 Z M194.518538,31.8196474 L187.654483,50.8659626 L183.609594,50.8659626 L176.728029,31.8196474 L180.755408,31.8196474 L185.500711,46.8433249 L185.798387,46.8433249 L190.52618,31.8196474 L194.518538,31.8196474 Z M205.623088,34.6529836 C202.838943,34.6529836 200.895295,36.6118332 200.685171,39.5850872 L210.31586,39.5850872 C210.228308,36.5943435 208.407232,34.6529836 205.623088,34.6529836 Z M210.29835,45.7239822 L213.922991,45.7239822 C213.064984,49.1344794 210.018184,51.2332469 205.658109,51.2332469 C200.194882,51.2332469 196.850406,47.4904448 196.850406,41.4040191 C196.850406,35.3175933 200.264923,31.4523631 205.640598,31.4523631 C210.946232,31.4523631 214.150625,35.0727371 214.150625,41.0542245 L214.150625,42.3659542 L200.685171,42.3659542 L200.685171,42.5758309 C200.807744,45.9163692 202.751392,48.0326264 205.763171,48.0326264 C208.039515,48.0326264 209.597936,47.2106092 210.29835,45.7239822 Z M218.8639,50.8659626 L218.8639,31.8196474 L222.488541,31.8196474 L222.488541,34.7404322 L222.768706,34.7404322 C223.311527,32.8690312 225.430279,31.5048323 227.916747,31.5048323 C228.477078,31.5048323 229.195002,31.5573015 229.59774,31.6622399 L229.59774,35.3700625 C229.282554,35.2651241 228.161892,35.142696 227.496499,35.142696 C224.642313,35.142696 222.628624,36.9441381 222.628624,39.6200667 L222.628624,50.8659626 L218.8639,50.8659626 Z M232.595002,37.206484 C232.595002,33.8309663 235.694332,31.4523631 240.001877,31.4523631 C244.291911,31.4523631 247.093566,33.4461922 247.461283,36.8042203 L243.854152,36.8042203 C243.503945,35.4050419 242.138138,34.5130657 240.001877,34.5130657 C237.900635,34.5130657 236.307194,35.5099803 236.307194,36.9966073 C236.307194,38.1334397 237.270263,38.8505186 239.336484,39.3227413 L242.505856,40.0573099 C246.130497,40.8968169 247.829,42.4534028 247.829,45.2517595 C247.829,48.837154 244.484524,51.2332469 239.931835,51.2332469 C235.396656,51.2332469 232.437408,49.1869486 232.104712,45.8114308 L235.869436,45.8114308 C236.342215,47.2805681 237.743042,48.190034 240.019387,48.190034 C242.365773,48.190034 244.029256,47.1406503 244.029256,45.6190438 C244.029256,44.4822114 243.136228,43.7476428 241.227601,43.2929098 L237.900635,42.5233617 C234.275994,41.666365 232.595002,40.0398202 232.595002,37.206484 Z M258.793467,48.0151367 C261.630143,48.0151367 263.731384,46.2136946 263.731384,43.8525812 L263.731384,42.2610158 L259.073633,42.5583412 C256.447081,42.7332385 255.256378,43.6252147 255.256378,45.3042287 C255.256378,47.0182222 256.744757,48.0151367 258.793467,48.0151367 Z M257.830398,51.1807777 C254.153226,51.1807777 251.474144,48.9595821 251.474144,45.479126 C251.474144,42.051139 254.030654,40.0747996 258.565833,39.794964 L263.731384,39.4976386 L263.731384,37.853604 C263.731384,35.8422852 262.400598,34.7054528 259.826578,34.7054528 C257.725336,34.7054528 256.271978,35.4750008 255.85173,36.82171 L252.209578,36.82171 C252.594806,33.5511306 255.676626,31.4523631 260.001681,31.4523631 C264.782005,31.4523631 267.478597,33.8309663 267.478597,37.853604 L267.478597,50.8659626 L263.853956,50.8659626 L263.853956,48.190034 L263.556281,48.190034 C262.418108,50.0964145 260.334378,51.1807777 257.830398,51.1807777 Z M274.363155,27.0799308 L278.127879,27.0799308 L278.127879,31.9070961 L282.26032,31.9070961 L282.26032,35.0727371 L278.127879,35.0727371 L278.127879,44.8669855 C278.127879,46.8608146 278.950865,47.7353011 280.824472,47.7353011 C281.402313,47.7353011 281.735009,47.7003216 282.26032,47.6478524 L282.26032,50.7785139 C281.647458,50.8834523 280.947044,50.970901 280.21161,50.970901 C276.026638,50.970901 274.363155,49.5017637 274.363155,45.8289206 L274.363155,35.0727371 L271.333866,35.0727371 L271.333866,31.9070961 L274.363155,31.9070961 L274.363155,27.0799308 Z M286.956084,50.8659626 L286.956084,31.8196474 L290.703298,31.8196474 L290.703298,50.8659626 L286.956084,50.8659626 Z M288.829691,28.4791091 C287.428864,28.4791091 286.395753,27.4821946 286.395753,26.1879546 C286.395753,24.8762249 287.428864,23.8793103 288.829691,23.8793103 C290.230518,23.8793103 291.263629,24.8762249 291.263629,26.1879546 C291.263629,27.4821946 290.230518,28.4791091 288.829691,28.4791091 Z M304.48693,51.2332469 C298.901131,51.2332469 295.486614,47.5079346 295.486614,41.3340601 C295.486614,35.1951652 298.918641,31.4523631 304.48693,31.4523631 C310.037709,31.4523631 313.469736,35.1951652 313.469736,41.3340601 C313.469736,47.5079346 310.055219,51.2332469 304.48693,51.2332469 Z M304.48693,47.8927086 C307.743854,47.8927086 309.59995,45.479126 309.59995,41.3340601 C309.59995,37.206484 307.743854,34.7929014 304.48693,34.7929014 C301.212496,34.7929014 299.37391,37.206484 299.37391,41.3340601 C299.37391,45.4966157 301.212496,47.8927086 304.48693,47.8927086 Z M318.183011,50.8659626 L318.183011,31.8196474 L321.807652,31.8196474 L321.807652,34.8453706 L322.087818,34.8453706 C323.015866,32.7291133 324.906983,31.4523631 327.778679,31.4523631 C332.033693,31.4523631 334.380079,34.0058636 334.380079,38.5357035 L334.380079,50.8659626 L330.615355,50.8659626 L330.615355,39.4801488 C330.615355,36.4194462 329.284569,34.8978398 326.500424,34.8978398 C323.71628,34.8978398 321.947735,36.7517511 321.947735,39.7250051 L321.947735,50.8659626 L318.183011,50.8659626 Z M339.42605,37.206484 C339.42605,33.8309663 342.525381,31.4523631 346.832925,31.4523631 C351.122959,31.4523631 353.924614,33.4461922 354.292331,36.8042203 L350.685201,36.8042203 C350.334994,35.4050419 348.969187,34.5130657 346.832925,34.5130657 C344.731684,34.5130657 343.138243,35.5099803 343.138243,36.9966073 C343.138243,38.1334397 344.101312,38.8505186 346.167532,39.3227413 L349.336904,40.0573099 C352.961545,40.8968169 354.660048,42.4534028 354.660048,45.2517595 C354.660048,48.837154 351.315573,51.2332469 346.762884,51.2332469 C342.227705,51.2332469 339.268457,49.1869486 338.93576,45.8114308 L342.700484,45.8114308 C343.173263,47.2805681 344.574091,48.190034 346.850435,48.190034 C349.196821,48.190034 350.860304,47.1406503 350.860304,45.6190438 C350.860304,44.4822114 349.967276,43.7476428 348.058649,43.2929098 L344.731684,42.5233617 C341.107043,41.666365 339.42605,40.0398202 339.42605,37.206484 Z" id="Conversations" fill="#979797"></path>
            </g>
            <g id="Group-2" transform="translate(460.000000, 222.000000)">
                <rect id="Rectangle-14-Copy-2" stroke="#FFFFFF" stroke-width="3" fill="#333333" x="1.5" y="1.5" width="1232" height="872"></rect>
                <g id="Group-4" transform="translate(842.045455, 153.990450)" fill="#D8D8D8" stroke="#979797">
                    <g id="Group" transform="translate(0.904165, 0.813144)">
                        <rect id="Rectangle" x="0.5" y="0.5" width="323.159873" height="25.7334862"></rect>
                        <rect id="Rectangle-Copy" x="0.5" y="48.6202752" width="323.159873" height="25.7334862"></rect>
                        <rect id="Rectangle-Copy-2" x="206.783555" y="96.7405505" width="116.876317" height="25.7334862"></rect>
                    </g>
                </g>
                <g id="Group-4-Copy-2" transform="translate(842.045455, 666.098226)" fill="#D8D8D8" stroke="#979797">
                    <g id="Group" transform="translate(0.904165, 0.813144)">
                        <rect id="Rectangle" x="0.5" y="0.5" width="323.159873" height="25.7334862"></rect>
                        <rect id="Rectangle-Copy" x="0.5" y="48.6202752" width="323.159873" height="25.7334862"></rect>
                        <rect id="Rectangle-Copy-2" x="206.783555" y="96.7405505" width="116.876317" height="25.7334862"></rect>
                    </g>
                </g>
                <g id="Group-4-Copy" transform="translate(233.537718, 470.253752) scale(-1, 1) translate(-233.537718, -470.253752) translate(70.537718, 408.253752)" fill="#D8D8D8" stroke="#979797">
                    <g id="Group" transform="translate(0.904165, 0.813144)">
                        <rect id="Rectangle" x="0.5" y="0.5" width="323.159873" height="25.7334862"></rect>
                        <rect id="Rectangle-Copy" x="0.5" y="48.6202752" width="323.159873" height="25.7334862"></rect>
                        <rect id="Rectangle-Copy-2" x="206.783555" y="96.7405505" width="116.876317" height="25.7334862"></rect>
                    </g>
                </g>
                <path d="M521.394704,51.4677082 C514.378825,51.4677082 510.004836,46.4141971 510.004836,38.2481428 C510.004836,30.0646023 514.361329,25.0110912 521.377208,25.0110912 C526.940923,25.0110912 531.244928,28.6132479 531.874783,33.75419 L527.973184,33.75419 C527.238354,30.6591331 524.70144,28.6657065 521.377208,28.6657065 C516.845755,28.6657065 514.01141,32.3552942 514.01141,38.2481428 C514.01141,44.1235052 516.845755,47.8130929 521.394704,47.8130929 C524.736432,47.8130929 527.273346,46.0120145 527.973184,43.1617643 L531.874783,43.1617643 C531.174944,48.1453306 527.028402,51.4677082 521.394704,51.4677082 Z M536.951601,50.8556912 L536.951601,24.3815881 L540.67824,24.3815881 L540.67824,34.8733067 L540.975671,34.8733067 C541.902957,32.7399906 543.914992,31.4634981 546.784329,31.4634981 C550.843391,31.4634981 553.345313,34.0339692 553.345313,38.5628944 L553.345313,50.8556912 L549.583682,50.8556912 L549.583682,39.4896628 C549.583682,36.4470645 548.16651,34.9082791 545.507124,34.9082791 C542.427836,34.9082791 540.713232,36.849247 540.713232,39.7344696 L540.713232,50.8556912 L536.951601,50.8556912 Z M565.053099,48.005441 C567.887444,48.005441 569.986959,46.2043627 569.986959,43.843726 L569.986959,42.252482 L565.333034,42.5497474 C562.708641,42.7246094 561.518916,43.6164055 561.518916,45.2950804 C561.518916,47.0087278 563.006072,48.005441 565.053099,48.005441 Z M564.090821,51.1704428 C560.41667,51.1704428 557.739789,48.9496957 557.739789,45.4699424 C557.739789,42.0426477 560.294199,40.0667073 564.825652,39.7869282 L569.986959,39.4896628 L569.986959,37.8459603 C569.986959,35.8350475 568.657266,34.6984447 566.085361,34.6984447 C563.985846,34.6984447 562.533681,35.4678374 562.113778,36.8142746 L558.474619,36.8142746 C558.85953,33.5443557 561.938819,31.4460119 566.26032,31.4460119 C571.036717,31.4460119 573.731094,33.8241348 573.731094,37.8459603 L573.731094,50.8556912 L570.109431,50.8556912 L570.109431,48.180303 L569.812,48.180303 C568.674762,50.0862985 566.592743,51.1704428 564.090821,51.1704428 Z M580.609996,27.0744626 L584.371627,27.0744626 L584.371627,31.9006531 L588.500673,31.9006531 L588.500673,35.0656548 L584.371627,35.0656548 L584.371627,44.8579255 C584.371627,46.851352 585.193937,47.7256619 587.066004,47.7256619 C587.643371,47.7256619 587.975794,47.6906895 588.500673,47.6382309 L588.500673,50.7682603 C587.888314,50.8731774 587.188476,50.9606084 586.453646,50.9606084 C582.272112,50.9606084 580.609996,49.4917678 580.609996,45.8196663 L580.609996,35.0656548 L577.583195,35.0656548 L577.583195,31.9006531 L580.609996,31.9006531 L580.609996,27.0744626 Z M624.338375,50.8556912 L620.436776,50.8556912 L620.436776,39.7869282 L607.472271,39.7869282 L607.472271,50.8556912 L603.553177,50.8556912 L603.553177,25.6231082 L607.472271,25.6231082 L607.472271,36.2197439 L620.436776,36.2197439 L620.436776,25.6231082 L624.338375,25.6231082 L624.338375,50.8556912 Z M630.499942,50.8556912 L630.499942,31.8132221 L634.244077,31.8132221 L634.244077,50.8556912 L630.499942,50.8556912 Z M632.372009,28.4733584 C630.972333,28.4733584 629.940071,27.4766451 629.940071,26.1826665 C629.940071,24.8712017 630.972333,23.8744884 632.372009,23.8744884 C633.771686,23.8744884 634.803948,24.8712017 634.803948,26.1826665 C634.803948,27.4766451 633.771686,28.4733584 632.372009,28.4733584 Z M639.530846,37.1989709 C639.530846,33.8241348 642.627631,31.4460119 646.931636,31.4460119 C651.218146,31.4460119 654.017499,33.4394385 654.384914,36.7967884 L650.780747,36.7967884 C650.430828,35.3978926 649.066143,34.5060965 646.931636,34.5060965 C644.832122,34.5060965 643.239989,35.5028098 643.239989,36.9891366 C643.239989,38.1257394 644.202267,38.8426735 646.26679,39.3148009 L649.433558,40.0492211 C653.055222,40.8885586 654.75233,42.4448302 654.75233,45.2426218 C654.75233,48.8272923 651.410602,51.2229014 646.861653,51.2229014 C642.3302,51.2229014 639.373383,49.1770163 639.04096,45.8021801 L642.80259,45.8021801 C643.274981,47.2710207 644.674658,48.180303 646.949132,48.180303 C649.293591,48.180303 650.955707,47.1311312 650.955707,45.609832 C650.955707,44.4732291 650.063413,43.7388088 648.156353,43.2841677 L644.832122,42.514775 C641.210458,41.6579513 639.530846,40.031735 639.530846,37.1989709 Z M660.668953,27.0744626 L664.430584,27.0744626 L664.430584,31.9006531 L668.55963,31.9006531 L668.55963,35.0656548 L664.430584,35.0656548 L664.430584,44.8579255 C664.430584,46.851352 665.252894,47.7256619 667.124962,47.7256619 C667.702329,47.7256619 668.034752,47.6906895 668.55963,47.6382309 L668.55963,50.7682603 C667.947272,50.8731774 667.247434,50.9606084 666.512603,50.9606084 C662.331069,50.9606084 660.668953,49.4917678 660.668953,45.8196663 L660.668953,35.0656548 L657.642153,35.0656548 L657.642153,31.9006531 L660.668953,31.9006531 L660.668953,27.0744626 Z M681.019743,51.2229014 C675.438532,51.2229014 672.02682,47.4983413 672.02682,41.3257136 C672.02682,35.1880582 675.456028,31.4460119 681.019743,31.4460119 C686.565961,31.4460119 689.995169,35.1880582 689.995169,41.3257136 C689.995169,47.4983413 686.583457,51.2229014 681.019743,51.2229014 Z M681.019743,47.8830377 C684.273991,47.8830377 686.128562,45.4699424 686.128562,41.3257136 C686.128562,37.1989709 684.273991,34.7858757 681.019743,34.7858757 C677.747998,34.7858757 675.910923,37.1989709 675.910923,41.3257136 C675.910923,45.4874286 677.747998,47.8830377 681.019743,47.8830377 Z M694.704572,50.8556912 L694.704572,31.8132221 L698.326235,31.8132221 L698.326235,34.7334171 L698.60617,34.7334171 C699.148545,32.862394 701.265556,31.4984705 703.749982,31.4984705 C704.309853,31.4984705 705.027187,31.5509291 705.429594,31.6558463 L705.429594,35.3629202 C705.114667,35.258003 703.994925,35.1355996 703.330079,35.1355996 C700.478238,35.1355996 698.466203,36.936678 698.466203,39.6120662 L698.466203,50.8556912 L694.704572,50.8556912 Z M711.223746,57.7627393 C710.908819,57.7627393 710.016525,57.7277669 709.666606,57.6753083 L709.666606,54.4403617 C709.964037,54.4928203 710.541404,54.5103065 710.891323,54.5103065 C712.675911,54.5103065 713.690676,53.7758862 714.338027,51.8524045 L714.617962,50.925636 L707.724555,31.8132221 L711.818609,31.8132221 L716.595005,46.938783 L716.892436,46.938783 L721.651337,31.8132221 L725.640415,31.8132221 L718.537056,51.6425701 C716.909932,56.2764125 715.107849,57.7627393 711.223746,57.7627393 Z" id="Chat-History" fill="#979797"></path>
            </g>
            <g id="Group-16" transform="translate(460.000000, 1092.000000)">
                <rect id="Rectangle-14-Copy-3" stroke="#FFFFFF" stroke-width="3" fill="#333333" x="1.5" y="1.5" width="1232" height="233"></rect>
                <g id="Group-Copy" transform="translate(605.108986, 128.256398) scale(-1, 1) translate(-605.108986, -128.256398) translate(101.108986, 90.756398)" fill="#D8D8D8" stroke="#979797">
                    <rect id="Rectangle" x="0.5" y="0.5" width="1006.30671" height="25.6930581"></rect>
                    <rect id="Rectangle-Copy" x="530.943428" y="48.5475046" width="475.863284" height="25.6930581"></rect>
                </g>
                <path d="M130.513141,51.3377947 L126.873982,51.3377947 L126.873982,33.1447313 L126.629038,33.1447313 L119.228248,50.6044851 L116.253935,50.6044851 L108.853145,33.1447313 L108.608202,33.1447313 L108.608202,51.3377947 L104.969042,51.3377947 L104.969042,26.14337 L109.552983,26.14337 L117.583628,45.2792602 L117.881059,45.2792602 L125.9292,26.14337 L130.513141,26.14337 L130.513141,51.3377947 Z M144.425417,35.152603 C141.64356,35.152603 139.701509,37.1080954 139.491557,40.0762536 L149.114334,40.0762536 C149.026854,37.0906357 147.207275,35.152603 144.425417,35.152603 Z M149.096838,46.2046271 L152.718501,46.2046271 C151.861199,49.6092791 148.816903,51.7044496 144.460409,51.7044496 C139.00167,51.7044496 135.659943,47.9680623 135.659943,41.8920679 C135.659943,35.8160736 139.071654,31.957468 144.442913,31.957468 C149.744189,31.957468 152.945949,35.5716371 152.945949,41.5428729 L152.945949,42.8523544 L139.491557,42.8523544 L139.491557,43.0618714 C139.614029,46.3966844 141.55608,48.5093146 144.565385,48.5093146 C146.83986,48.5093146 148.397,47.6887062 149.096838,46.2046271 Z M157.217953,37.701727 C157.217953,34.3319946 160.314737,31.957468 164.618743,31.957468 C168.905252,31.957468 171.704606,33.94788 172.072021,37.3001527 L168.467854,37.3001527 C168.117934,35.9033724 166.75325,35.012925 164.618743,35.012925 C162.519228,35.012925 160.927096,36.0081309 160.927096,37.49221 C160.927096,38.627094 161.889373,39.3429439 163.953896,39.8143572 L167.120665,40.5476669 C170.742328,41.3857351 172.439436,42.9396532 172.439436,45.7332138 C172.439436,49.3124633 169.097708,51.7044496 164.548759,51.7044496 C160.017306,51.7044496 157.060489,49.6616584 156.728066,46.2919259 L160.489697,46.2919259 C160.962088,47.7585452 162.361764,48.6664524 164.636239,48.6664524 C166.980697,48.6664524 168.642813,47.6188672 168.642813,46.0998686 C168.642813,44.9649846 167.750519,44.231675 165.84346,43.7777214 L162.519228,43.0094922 C158.897565,42.1539643 157.217953,40.5302071 157.217953,37.701727 Z M176.379017,37.701727 C176.379017,34.3319946 179.475801,31.957468 183.779807,31.957468 C188.066316,31.957468 190.86567,33.94788 191.233085,37.3001527 L187.628917,37.3001527 C187.278998,35.9033724 185.914314,35.012925 183.779807,35.012925 C181.680292,35.012925 180.08816,36.0081309 180.08816,37.49221 C180.08816,38.627094 181.050437,39.3429439 183.11496,39.8143572 L186.281729,40.5476669 C189.903392,41.3857351 191.6005,42.9396532 191.6005,45.7332138 C191.6005,49.3124633 188.258772,51.7044496 183.709823,51.7044496 C179.17837,51.7044496 176.221553,49.6616584 175.88913,46.2919259 L179.650761,46.2919259 C180.123152,47.7585452 181.522828,48.6664524 183.797303,48.6664524 C186.141761,48.6664524 187.803877,47.6188672 187.803877,46.0998686 C187.803877,44.9649846 186.911583,44.231675 185.004524,43.7777214 L181.680292,43.0094922 C178.058629,42.1539643 176.379017,40.5302071 176.379017,37.701727 Z M202.55596,48.4918549 C205.390305,48.4918549 207.48982,46.6935002 207.48982,44.3364335 L207.48982,42.7475959 L202.835895,43.0444117 C200.211501,43.2190092 199.021776,44.1094567 199.021776,45.785593 C199.021776,47.4966489 200.508933,48.4918549 202.55596,48.4918549 Z M201.593682,51.6520703 C197.919531,51.6520703 195.242649,49.4346816 195.242649,45.9601906 C195.242649,42.5380788 197.797059,40.5651267 202.328512,40.2857706 L207.48982,39.9889548 L207.48982,38.3477379 C207.48982,36.3398662 206.160127,35.2049822 203.588221,35.2049822 C201.488706,35.2049822 200.036542,35.9732114 199.616639,37.3176125 L195.97748,37.3176125 C196.362391,34.0526385 199.441679,31.957468 203.763181,31.957468 C208.539577,31.957468 211.233955,34.3319946 211.233955,38.3477379 L211.233955,51.3377947 L207.612291,51.3377947 L207.612291,48.6664524 L207.31486,48.6664524 C206.177623,50.5695656 204.095604,51.6520703 201.593682,51.6520703 Z M224.76132,47.8109245 C227.980576,47.8109245 229.922628,45.4014785 229.922628,41.5952521 C229.922628,37.8064856 227.963081,35.3795798 224.76132,35.3795798 C221.524568,35.3795798 219.704988,37.8064856 219.704988,41.5952521 C219.704988,45.3840187 221.524568,47.8109245 224.76132,47.8109245 Z M224.813808,58.6010523 C220.054908,58.6010523 216.975619,56.4709624 216.573212,53.2409079 L220.422323,53.2409079 C220.73725,54.6202285 222.329382,55.5106759 224.866296,55.5106759 C227.998072,55.5106759 229.852644,54.0265968 229.852644,51.5123923 L229.852644,47.8633037 L229.572709,47.8633037 C228.417975,49.9235547 226.31846,51.0584387 223.694067,51.0584387 C218.830191,51.0584387 215.820886,47.3045916 215.820886,41.6127119 C215.820886,35.8160736 218.865182,32.0098473 223.729059,32.0098473 C226.353452,32.0098473 228.645423,33.3018691 229.712676,35.36212 L230.010108,35.36212 L230.010108,32.3241229 L233.614275,32.3241229 L233.614275,51.4949325 C233.614275,55.8424112 230.202563,58.6010523 224.813808,58.6010523 Z M247.089153,35.152603 C244.307295,35.152603 242.365244,37.1080954 242.155292,40.0762536 L251.778069,40.0762536 C251.690589,37.0906357 249.87101,35.152603 247.089153,35.152603 Z M251.760573,46.2046271 L255.382237,46.2046271 C254.524935,49.6092791 251.480638,51.7044496 247.124144,51.7044496 C241.665406,51.7044496 238.323678,47.9680623 238.323678,41.8920679 C238.323678,35.8160736 241.735389,31.957468 247.106648,31.957468 C252.407924,31.957468 255.609684,35.5716371 255.609684,41.5428729 L255.609684,42.8523544 L242.155292,42.8523544 L242.155292,43.0618714 C242.277764,46.3966844 244.219815,48.5093146 247.22912,48.5093146 C249.503595,48.5093146 251.060735,47.6887062 251.760573,46.2046271 Z M286.443542,38.5397952 L282.786887,38.5397952 C282.349488,36.6890613 280.809844,35.3097408 278.290426,35.3097408 C275.141153,35.3097408 273.216598,37.7191868 273.216598,41.7698497 C273.216598,45.8903516 275.158649,48.3521768 278.290426,48.3521768 C280.669876,48.3521768 282.297,47.2696721 282.786887,45.2268809 L286.443542,45.2268809 C285.953655,49.050567 283.014334,51.7044496 278.307922,51.7044496 C272.761703,51.7044496 269.367487,47.9680623 269.367487,41.7698497 C269.367487,35.6763956 272.744207,31.957468 278.290426,31.957468 C283.066822,31.957468 285.953655,34.7335689 286.443542,38.5397952 Z M298.973638,51.7044496 C293.392427,51.7044496 289.980716,47.985522 289.980716,41.8222289 C289.980716,35.6938553 293.409923,31.957468 298.973638,31.957468 C304.519856,31.957468 307.949064,35.6938553 307.949064,41.8222289 C307.949064,47.985522 304.537352,51.7044496 298.973638,51.7044496 Z M298.973638,48.3696366 C302.227886,48.3696366 304.082458,45.9601906 304.082458,41.8222289 C304.082458,37.701727 302.227886,35.292281 298.973638,35.292281 C295.701894,35.292281 293.864818,37.701727 293.864818,41.8222289 C293.864818,45.9776503 295.701894,48.3696366 298.973638,48.3696366 Z M312.658467,51.3377947 L312.658467,32.3241229 L316.28013,32.3241229 L316.28013,35.3795798 L316.560066,35.3795798 C317.399872,33.2320301 319.324427,31.957468 321.861341,31.957468 C324.468239,31.957468 326.270322,33.3018691 327.110128,35.3795798 L327.407559,35.3795798 C328.369837,33.3018691 330.556832,31.957468 333.198721,31.957468 C337.047832,31.957468 339.287315,34.2796153 339.287315,38.2429794 L339.287315,51.3377947 L335.525684,51.3377947 L335.525684,39.2207256 C335.525684,36.6541418 334.300967,35.3970395 331.834037,35.3970395 C329.402099,35.3970395 327.809966,37.1430149 327.809966,39.3778634 L327.809966,51.3377947 L324.118319,51.3377947 L324.118319,38.8540708 C324.118319,36.7065211 322.683651,35.3970395 320.444168,35.3970395 C318.152198,35.3970395 316.420098,37.2652332 316.420098,39.7095987 L316.420098,51.3377947 L312.658467,51.3377947 Z M354.651756,32.0098473 C359.498136,32.0098473 362.559929,35.7811541 362.559929,41.8222289 C362.559929,47.8633037 359.498136,51.6520703 354.686748,51.6520703 C351.974874,51.6520703 349.822872,50.4648071 348.825602,48.4569354 L348.528171,48.4569354 L348.528171,57.6582256 L344.76654,57.6582256 L344.76654,32.3241229 L348.388203,32.3241229 L348.388203,35.4668786 L348.668138,35.4668786 C349.822872,33.3018691 352.062354,32.0098473 354.651756,32.0098473 Z M353.584502,48.2823378 C356.786263,48.2823378 358.693322,45.8554321 358.693322,41.8222289 C358.693322,37.8064856 356.786263,35.3795798 353.601998,35.3795798 C350.43523,35.3795798 348.458187,37.8588648 348.458187,41.8396887 C348.458187,45.8030528 350.43523,48.2823378 353.584502,48.2823378 Z M375.317472,51.7044496 C369.736262,51.7044496 366.32455,47.985522 366.32455,41.8222289 C366.32455,35.6938553 369.753758,31.957468 375.317472,31.957468 C380.863691,31.957468 384.292899,35.6938553 384.292899,41.8222289 C384.292899,47.985522 380.881187,51.7044496 375.317472,51.7044496 Z M375.317472,48.3696366 C378.57172,48.3696366 380.426292,45.9601906 380.426292,41.8222289 C380.426292,37.701727 378.57172,35.292281 375.317472,35.292281 C372.045728,35.292281 370.208653,37.701727 370.208653,41.8222289 C370.208653,45.9776503 372.045728,48.3696366 375.317472,48.3696366 Z M388.564902,37.701727 C388.564902,34.3319946 391.661687,31.957468 395.965693,31.957468 C400.252202,31.957468 403.051555,33.94788 403.418971,37.3001527 L399.814803,37.3001527 C399.464884,35.9033724 398.100199,35.012925 395.965693,35.012925 C393.866178,35.012925 392.274045,36.0081309 392.274045,37.49221 C392.274045,38.627094 393.236323,39.3429439 395.300846,39.8143572 L398.467614,40.5476669 C402.089278,41.3857351 403.786386,42.9396532 403.786386,45.7332138 C403.786386,49.3124633 400.444658,51.7044496 395.895709,51.7044496 C391.364256,51.7044496 388.407439,49.6616584 388.075016,46.2919259 L391.836647,46.2919259 C392.309037,47.7585452 393.708714,48.6664524 395.983188,48.6664524 C398.327647,48.6664524 399.989763,47.6188672 399.989763,46.0998686 C399.989763,44.9649846 399.097469,44.231675 397.19041,43.7777214 L393.866178,43.0094922 C390.244514,42.1539643 388.564902,40.5302071 388.564902,37.701727 Z M408.583268,51.3377947 L408.583268,32.3241229 L412.327403,32.3241229 L412.327403,51.3377947 L408.583268,51.3377947 Z M410.455336,28.9893099 C409.055659,28.9893099 408.023398,27.9941039 408.023398,26.7020821 C408.023398,25.3926006 409.055659,24.3973946 410.455336,24.3973946 C411.855012,24.3973946 412.887274,25.3926006 412.887274,26.7020821 C412.887274,27.9941039 411.855012,28.9893099 410.455336,28.9893099 Z M419.381264,27.5925296 L423.142895,27.5925296 L423.142895,32.4114216 L427.271941,32.4114216 L427.271941,35.5716371 L423.142895,35.5716371 L423.142895,45.3490992 C423.142895,47.3395111 423.965205,48.2124988 425.837273,48.2124988 C426.414639,48.2124988 426.747063,48.1775793 427.271941,48.1252 L427.271941,51.250496 C426.659583,51.3552545 425.959745,51.4425533 425.224914,51.4425533 C421.04338,51.4425533 419.381264,49.9759339 419.381264,46.3093857 L419.381264,35.5716371 L416.354464,35.5716371 L416.354464,32.4114216 L419.381264,32.4114216 L419.381264,27.5925296 Z M431.963848,51.3377947 L431.963848,32.3241229 L435.707983,32.3241229 L435.707983,51.3377947 L431.963848,51.3377947 Z M433.835916,28.9893099 C432.436239,28.9893099 431.403978,27.9941039 431.403978,26.7020821 C431.403978,25.3926006 432.436239,24.3973946 433.835916,24.3973946 C435.235592,24.3973946 436.267854,25.3926006 436.267854,26.7020821 C436.267854,27.9941039 435.235592,28.9893099 433.835916,28.9893099 Z M449.480292,51.7044496 C443.899082,51.7044496 440.48737,47.985522 440.48737,41.8222289 C440.48737,35.6938553 443.916578,31.957468 449.480292,31.957468 C455.026511,31.957468 458.455718,35.6938553 458.455718,41.8222289 C458.455718,47.985522 455.044007,51.7044496 449.480292,51.7044496 Z M449.480292,48.3696366 C452.73454,48.3696366 454.589112,45.9601906 454.589112,41.8222289 C454.589112,37.701727 452.73454,35.292281 449.480292,35.292281 C446.208548,35.292281 444.371473,37.701727 444.371473,41.8222289 C444.371473,45.9776503 446.208548,48.3696366 449.480292,48.3696366 Z M463.165121,51.3377947 L463.165121,32.3241229 L466.786785,32.3241229 L466.786785,35.3446603 L467.06672,35.3446603 C467.994006,33.2320301 469.883569,31.957468 472.752906,31.957468 C477.004424,31.957468 479.348882,34.5065921 479.348882,39.0286683 L479.348882,51.3377947 L475.587251,51.3377947 L475.587251,39.971495 C475.587251,36.9160381 474.257559,35.3970395 471.475701,35.3970395 C468.693844,35.3970395 466.926752,37.2477734 466.926752,40.2159316 L466.926752,51.3377947 L463.165121,51.3377947 Z" id="Message-composition" fill="#979797"></path>
            </g>
        </g>
        <rect id="Rectangle-13" stroke="#FFFFFF" stroke-width="3" fill="#333333" x="87.5" y="86.5" width="652" height="779"></rect>
        <text id="MVP" font-family="SFUIText-Medium, SF UI Text" font-size="30" font-weight="400" letter-spacing="0.1636364" fill="#979797">
            <tspan x="380" y="155">MVP</tspan>
        </text>
        <text id="--Start-a-new-text-c" font-family="SFUIText-Medium, SF UI Text" font-size="30" font-weight="400" letter-spacing="0.1636364" fill="#979797">
            <tspan x="140" y="243">- Start a new text conversation with a</tspan>
            <tspan x="140" y="279">customer in CRM.</tspan>
            <tspan x="140" y="315"></tspan>
            <tspan x="140" y="351">- View all text conversations.</tspan>
            <tspan x="140" y="387"></tspan>
            <tspan x="140" y="423">- Send and receive text messages.</tspan>
            <tspan x="140" y="459"></tspan>
            <tspan x="140" y="495">- View customer CRM info</tspan>
            <tspan x="140" y="531"></tspan>
        </text>
    </g>
</svg>