<?xml version="1.0" encoding="UTF-8"?>
<svg width="300px" height="300px" viewBox="0 0 300 300" version="1.1" xmlns="http://www.w3.org/2000/svg" xmlns:xlink="http://www.w3.org/1999/xlink">
    <!-- Generator: Sketch 50.2 (55047) - http://www.bohemiancoding.com/sketch -->
    <title>Artboard Copy 2</title>
    <desc>Created with Sketch.</desc>
    <defs></defs>
    <g id="Artboard-Copy-2" stroke="none" stroke-width="1" fill="none" fill-rule="evenodd">
        <g id="Group-2" transform="translate(53.000000, 51.000000)">
            <path d="M106.91355,138.82532 C106.85357,138.945281 106.792945,139.065887 106.732964,139.185848 C106.603329,139.445118 106.992235,139.673431 107.12187,139.413515 C107.18185,139.29291 107.242476,139.172949 107.302456,139.052343 C107.432091,138.793072 107.043831,138.565405 106.91355,138.82532" id="Fill-32" fill="#77A6CD"></path>
            <path d="M105.328906,139.995906 C105.27602,139.938506 105.223134,139.88175 105.170248,139.824349 C105.021264,139.61474 104.759414,139.569594 104.562059,139.74631 C104.517557,139.785652 104.473055,139.825639 104.428554,139.864981 C104.244098,140.030734 104.262156,140.33773 104.428554,140.506063 C107.214743,143.318695 113.687472,141.560558 116.834834,140.359014 C122.036365,138.372564 127.197909,135.074284 130.069876,130.166851 C130.583902,129.289717 129.426215,128.466115 128.705805,129.114936 C126.78256,130.846629 125.127616,132.805991 123.060547,134.389991 C121.165036,135.842421 118.950274,136.899496 116.802586,137.918519 C114.678762,138.927222 112.509147,139.464467 110.208606,139.851437 C109.147661,140.029444 108.099616,140.153274 107.024482,140.159079 C106.468534,140.140375 105.920971,140.061046 105.381147,139.919802 C104.749739,140.253887 104.637518,140.442212 105.043837,140.485424 C105.322456,140.552499 105.544964,140.20616 105.328906,139.995906" id="Fill-33" fill="#808489"></path>
            <path d="M125.624228,145.887535 C128.767075,141.082649 132.255616,135.180056 131.234013,129.18846 C131.100508,128.405489 129.946691,128.644766 129.910573,129.367756 C129.611961,135.370317 127.764176,140.202936 124.709042,145.35287 C124.357544,145.944936 125.252736,146.455737 125.624228,145.887535" id="Fill-34" fill="#808489"></path>
            <path d="M126.324645,138.290655 C128.127283,135.360642 129.29787,132.215216 130.397511,128.973691 C130.598091,128.382271 129.630664,127.965633 129.382358,128.545444 C128.064078,131.62573 127.082463,134.841457 125.453316,137.781144 C125.13729,138.351281 125.984111,138.844024 126.324645,138.290655" id="Fill-35" fill="#808489"></path>
            <path d="M124.115687,130.302936 C128.367205,126.109463 132.101472,121.957913 135.043739,116.704786 C137.973107,111.472297 140.008573,105.749646 141.50873,99.9586294 C144.395531,88.8183883 145.451316,75.8658346 142.69028,64.5978932 C142.391668,63.3782906 140.345883,63.6130528 140.469068,64.8984405 C141.562261,76.3179453 141.846684,87.2214893 139.295902,98.5081343 C136.81155,109.501971 131.66871,121.688968 123.689375,129.876623 C123.41785,130.155242 123.838358,130.576395 124.115687,130.302936" id="Fill-36" fill="#808489"></path>
            <path d="M152.104632,81.4723949 C152.554808,83.84646 151.539655,86.5913721 150.604476,88.7332548 C149.520313,91.2169616 148.193003,93.0576522 145.46615,93.4730007 C144.318782,93.6477825 144.560638,95.2427466 145.46615,95.5561929 C148.388423,96.5661864 150.639948,92.8035414 151.617049,90.6739128 C152.863739,87.9580235 153.935648,84.1805447 153.126879,81.1905512 C152.946293,80.5230268 151.979511,80.8093851 152.104632,81.4723949" id="Fill-37" fill="#808489"></path>
            <path d="M159.542208,58.0290659 C161.448039,62.1367597 160.914664,67.5324209 160.683772,71.9471115 C160.427726,76.8474502 159.484808,81.7000626 158.039472,86.3824079 C155.724743,93.8831896 150.314893,101.522636 142.105309,102.935724 C141.155941,103.098896 141.44359,104.500375 142.322658,104.542297 C146.177531,104.724818 149.596417,102.044401 152.231687,99.5103883 C155.42484,96.4404209 157.563498,92.6926098 159.027537,88.5526685 C160.908215,83.2350463 161.794378,77.562701 162.098795,71.9471115 C162.348391,67.3505447 162.579283,61.7646229 160.136208,57.6820821 C159.904671,57.2951115 159.359042,57.6330659 159.542208,58.0290659" id="Fill-38" fill="#808489"></path>
            <path d="M164.191016,70.1354437 C165.12555,77.2557043 163.733746,84.3121147 160.387739,90.6474698 C158.734085,93.7787076 156.507713,96.5648965 153.967251,99.0163558 C151.021759,101.858655 147.552567,102.972486 143.586762,103.490382 C142.809596,103.592284 142.4323,104.885411 143.380378,105.013756 C151.167518,106.066962 157.280365,98.8351245 160.805668,92.8183753 C164.79856,86.0038216 166.283883,77.8000431 164.865635,70.0438607 C164.796625,69.6652743 164.14071,69.7510528 164.191016,70.1354437" id="Fill-39" fill="#808489"></path>
            <path d="M162.232945,89.7322841 C160.661199,96.0676392 158.637987,102.419118 153.869863,107.115007 C149.799577,111.123379 144.250417,113.182063 141.088866,118.128193 C140.599993,118.89375 141.733818,119.772818 142.347166,119.098844 C146.478723,114.555164 152.261355,111.89345 156.22587,107.198851 C160.297446,102.377841 161.857583,95.9741212 162.863062,89.905776 C162.930782,89.4988118 162.336137,89.3162906 162.232945,89.7322841" id="Fill-40" fill="#808489"></path>
            <path d="M129.142436,31.6131571 C136.259472,35.7098867 141.648684,41.9955805 146.244606,48.6940431 C150.67542,55.1519388 153.112046,62.6804535 151.580287,70.4914567 C151.459681,71.1067401 152.269739,71.7671701 152.748938,71.1712352 C154.856638,68.5514437 154.099466,64.8965056 153.613818,61.8110593 C152.900502,57.2815675 151.026919,53.2641668 148.543212,49.4415414 C143.769928,42.094258 137.381042,35.0094698 129.497805,31.0049681 C129.095355,30.8005186 128.746436,31.3854893 129.142436,31.6131571" id="Fill-41" fill="#808489"></path>
            <path d="M95.9332573,31.7640756 C97.7023583,38.5805642 100.989029,44.7037304 105.362443,50.2064535 C108.659433,54.3541343 113.372091,59.8697564 119.297902,58.8397694 C120.265329,58.6714372 120.288547,57.0171375 119.297902,56.8707336 C116.476886,56.4547401 114.265993,56.0052092 111.980287,54.1870919 C109.803577,52.4560431 107.873883,50.3509225 106.06157,48.2522515 C101.870033,43.3983492 98.6930033,37.6305512 96.6123909,31.5770398 C96.465987,31.1507271 95.818456,31.3203492 95.9332573,31.7640756" id="Fill-42" fill="#808489"></path>
            <path d="M122.16213,52.9139584 C128.073752,59.2318997 135.882821,65.9697043 144.850866,66.9177825 C145.916971,67.0306489 146.102717,65.3337825 145.099818,65.0790268 C136.405231,62.8681343 129.457818,58.2418997 123.114723,51.9613655 C122.49557,51.348017 121.56942,52.2806164 122.16213,52.9139584" id="Fill-43" fill="#808489"></path>
            <path d="M75.7695049,47.2087206 C75.3038502,43.7640365 80.1306645,40.6115154 82.5331075,38.953346 C83.6817655,38.1600561 84.8413876,37.3848248 85.9881107,36.5863753 C87.5082606,35.5280105 88.9600456,35.178447 90.5962866,34.5012483 C91.4792248,34.1362059 91.6294984,33.1371766 90.8503974,32.5580105 C88.228671,30.6121929 82.7820586,36.0523558 80.7885147,37.593789 C77.972013,39.7724339 73.2941824,43.4299519 74.5189446,47.5537694 C74.764671,48.3805968 75.8778567,48.0123297 75.7695049,47.2087206" id="Fill-44" fill="#808489"></path>
            <path d="M86.3131661,32.4664274 C85.3986254,38.8849812 89.7294723,45.3480365 93.337329,50.2999714 C97.270886,55.7007922 102.76458,57.882662 109.336632,56.9281343 C110.433049,56.7688313 110.029309,55.2377173 109.094775,55.1383949 C106.39501,54.8533264 103.684925,54.7843167 101.087062,53.9304014 C98.1435049,52.9629747 95.9345472,50.2135479 94.195759,47.8007857 C90.8046059,43.0945773 88.1074202,38.2168118 87.0903322,32.4664274 C87.0232573,32.0859063 86.3692769,32.0742971 86.3131661,32.4664274" id="Fill-45" fill="#808489"></path>
            <path d="M79.5979349,28.1865317 C75.0935961,31.0572092 72.2880586,35.6021799 71.6437524,40.9159323 C70.9904169,46.3025642 71.6656808,53.3080235 74.7627362,57.9284535 C75.3032052,58.7346424 76.5666645,58.2360952 76.3344821,57.2654437 C75.1722801,52.3928378 73.3502932,48.1516392 73.3748013,43.0126685 C73.4005993,37.4931766 75.6824365,32.3980626 80.0816482,29.014004 C80.5550423,28.6496066 80.1338893,27.8453525 79.5979349,28.1865317" id="Fill-46" fill="#808489"></path>
            <path d="M69.3883583,30.4438607 C67.7340586,36.5096261 66.4828534,42.7230854 67.3141954,49.024903 C67.6953616,51.9091245 68.6047427,54.753359 69.9804235,57.3163949 C71.359329,59.8839453 73.4283322,61.7710724 74.2422606,64.6546489 C74.5776352,65.8426489 76.5524756,65.6491636 76.4473485,64.3566815 C76.2667622,62.1283753 74.8794723,60.3683036 73.5592573,58.6443492 C71.6553616,56.1574177 70.382873,53.631144 69.5463713,50.5882646 C67.7663062,44.1136001 68.9807492,37.1345838 70.4267296,30.730219 C70.5789381,30.0549551 69.5715244,29.7718216 69.3883583,30.4438607" id="Fill-47" fill="#808489"></path>
            <path d="M73.1432638,108.815743 C69.5708795,100.131476 74.8278762,91.4136717 77.6895244,83.3414633 C77.9784625,82.52689 76.6285798,81.9509486 76.2880456,82.750688 C72.7969251,90.9396326 67.7888795,100.429444 72.1435896,109.237541 C72.4164039,109.78833 73.3799609,109.390395 73.1432638,108.815743" id="Fill-48" fill="#808489"></path>
            <path d="M95.4940456,103.78061 C97.0019414,105.10147 97.9139023,106.28431 99.9487231,106.821554 C101.938397,107.346545 104.151225,106.962154 106.090593,106.42491 C107.243765,106.105014 106.758117,104.343652 105.597205,104.635815 C103.659127,105.123398 101.745557,105.558095 99.7462085,105.180154 C98.2112248,104.889281 97.2399283,103.707085 95.8203909,103.220792 C95.5069446,103.113085 95.2438046,103.561971 95.4940456,103.78061" id="Fill-49" fill="#808489"></path>
            <path d="M135.856378,148.338994 C136.907648,150.398968 139.574521,151.507639 141.550007,152.42476 C144.771537,153.920401 148.062078,155.183216 151.227498,156.811072 C158.054951,160.320896 164.514137,164.4976 171.33643,168.011294 C172.297407,168.505971 173.074573,167.165763 172.179381,166.569828 C166.346443,162.691092 160.269068,159.154825 154.020137,155.98876 C151.20428,154.562128 148.345212,153.238688 145.390046,152.130017 C142.42456,151.017476 138.847661,150.081007 136.449733,147.881724 C136.128547,147.586981 135.660958,147.955893 135.856378,148.338994" id="Fill-50" fill="#323A45"></path>
            <path d="M111.725531,186.938675 C115.595238,185.510108 119.0683,183.210212 122.614886,181.139274 C126.954117,178.605261 131.214664,175.946128 135.339127,173.07416 C138.611609,170.795548 141.853779,168.348603 144.778632,165.634649 C147.724769,162.900701 148.585779,159.668206 149.532567,155.891372 C149.715088,155.163867 148.63157,154.867835 148.412932,155.583085 C147.241055,159.414095 145.880853,162.213183 142.955355,165.013561 C139.895707,167.943574 136.382013,170.484037 132.933459,172.925177 C129.377844,175.442421 125.679049,177.755861 121.991218,180.072525 C118.555564,182.230532 115.190208,184.685861 111.461101,186.311138 C111.104443,186.465926 111.361779,187.07347 111.725531,186.938675" id="Fill-392" fill="#323A45"></path>
            <path d="M77.4463779,52.152916 C77.6779153,51.7427271 77.7424104,51.5911636 77.9036482,51.1467922 C78.1390554,50.4973264 77.1767883,50.1580821 76.8330293,50.6953264 C75.1542215,53.3202776 74.818202,56.7552874 74.5060456,59.795587 C74.0900521,63.8510398 74.2061433,68.0000105 74.0449055,72.0728769 C73.7017915,80.744245 73.5805407,89.3840105 74.0191075,98.0553786 C74.4202671,105.986988 75.7327427,113.639333 79.4076743,120.74218 C82.3299479,126.389372 85.8649251,131.692805 91.3386254,135.092988 C101.983544,141.705027 115.383694,140.527991 125.761603,134.114597 C131.891218,130.326154 135.975694,123.414857 139.034052,117.087242 C142.481316,109.956017 144.768313,102.393965 146.539993,94.697118 C147.411967,90.9093199 148.050469,87.0325186 147.755726,83.1402385 C147.643505,81.6529812 145.599655,81.6723297 145.460345,83.1402385 C144.761863,90.5081603 142.810886,97.8864014 140.340723,104.851874 C137.800906,112.012121 134.547127,118.9576 130.056332,125.103339 C122.314984,135.696662 107.354052,138.649893 95.659798,133.390317 C89.7559153,130.735053 86.4847231,125.967574 83.2715765,120.564818 C79.1445342,113.623854 77.7811075,106.019235 77.2348339,98.0553786 C76.6892052,90.0941017 76.5724691,82.1212157 76.6898502,74.1451049 C76.7466059,70.2741082 76.7872378,66.4147206 76.7150033,62.5443688 C76.6414788,58.568245 77.1548599,55.0242385 77.9036482,51.1467922 C77.5199023,51.0945512 77.1368013,51.0429551 76.7530554,50.9907141 C76.8033616,51.3151245 76.8001368,51.6395349 76.7427362,51.9626554 C76.7066189,52.3464014 77.2709511,52.4644274 77.4463779,52.152916" id="Fill-460" fill="#323A45"></path>
            <path d="M145.771857,75.3756717 C145.707362,75.4498411 145.642866,75.5240105 145.578371,75.5981799 C145.286208,75.9341994 145.569342,76.3985642 145.998235,76.3192352 C146.664469,76.1960496 147.266208,75.7503883 147.673173,75.2099193 C148.258143,74.4327532 151.499668,69.8955219 151.820853,73.1576848 C151.984671,74.8255284 151.644782,76.361802 151.337785,77.9832092 C150.94114,80.0747857 150.437433,82.1476587 149.795062,84.176675 C149.470651,85.2002124 149.074651,86.1902124 148.553531,87.1292613 C148.055629,88.0263883 148.268463,87.964473 147.748632,87.5916913 C146.348443,86.5875023 144.92955,88.7081017 145.98856,89.8728835 C150.959844,95.343359 153.853739,80.2947141 154.250384,77.9709551 C154.670248,75.5104665 155.425485,71.2383102 152.848906,69.7291245 C151.301023,68.8223232 149.559655,69.709776 148.43873,70.8390854 C147.337798,71.9484014 145.699622,74.2353981 145.46744,75.7884405 C145.749928,75.8264926 146.032417,75.8645447 146.31555,75.9032418 C146.31555,75.8019844 146.314906,75.7013721 146.314906,75.6007597 C146.314906,75.3369747 145.958893,75.160258 145.771857,75.3756717" id="Fill-461" fill="#323A45"></path>
            <path d="M90.0035765,31.1320235 C86.1132313,27.8466424 79.3483388,34.6728053 77.2380586,37.4377108 C72.3944756,43.7820952 71.1168274,53.0971245 72.6885733,60.7881668 C72.9259153,61.9503688 74.5976287,61.6014502 74.6601889,60.5211571 C74.8536743,57.2028835 74.593114,53.8942841 74.8975309,50.5766554 C75.2354853,46.8972092 76.4460586,43.3796457 78.2441824,40.1697238 C80.5040912,36.1361994 84.9781173,31.824701 89.7546254,31.733118 C90.0403388,31.7279584 90.2493029,31.3396978 90.0035765,31.1320235" id="Fill-462" fill="#323A45"></path>
            <path d="M88.8445993,24.5354633 C89.4940651,29.3532483 89.3760391,33.7414958 91.0993485,38.3799844 C92.5356547,42.2477564 94.815557,45.6634177 97.3785928,48.86689 C99.8926124,52.007802 102.910339,54.6456522 106.573016,56.3476782 C108.482717,57.235776 110.434984,58.0490593 112.430463,58.7223883 C114.794208,59.5195479 117.463016,59.2673721 119.913831,59.3860431 C120.991544,59.4382841 121.057974,57.9465121 120.153107,57.6130724 C118.20342,56.8945968 116.173114,56.8410659 114.135068,56.5108509 C111.967388,56.1593525 109.870651,54.9790919 107.876463,54.1174372 C104.326651,52.5843883 101.626886,50.0007141 99.1122215,47.1332613 C96.2692769,43.8917369 93.9326189,40.167144 92.2712248,36.1884405 C90.6756156,32.3671049 90.5666189,28.3052027 89.4418241,24.3703558 C89.3289577,23.9743558 88.7930033,24.1517173 88.8445993,24.5354633" id="Fill-463" fill="#323A45"></path>
            <path d="M111.313407,46.8082059 C113.942873,52.8339844 118.111192,57.6504795 123.421075,61.4840691 C129.789967,66.0825707 137.159179,68.7526685 144.977922,68.9532483 C146.463244,68.9919453 146.725094,66.7907271 145.323616,66.3992418 C143.844743,65.987118 142.402632,65.9445512 140.871518,65.8794111 C138.664495,65.7858932 136.458117,64.9809942 134.391049,64.2612287 C131.208215,63.1519128 128.156306,61.6085447 125.274664,59.8691115 C119.71841,56.5160105 115.321134,51.9478216 111.804215,46.5205577 C111.60041,46.2064665 111.168938,46.4779909 111.313407,46.8082059" id="Fill-464" fill="#323A45"></path>
            <path d="M125.125036,46.1329421 C127.135993,51.1326033 130.312378,55.0345577 134.557446,58.330903 C136.794137,60.0677564 139.144984,61.6407922 141.302345,63.4808378 C142.536137,64.5327532 143.666736,65.7175284 144.588371,67.0532222 C145.577726,68.4882385 145.972436,70.3740756 146.825062,71.9090593 C147.553857,73.22089 149.589322,72.0374046 148.836664,70.7333134 C147.418417,68.2760496 146.595459,65.8529681 144.579987,63.7788053 C142.759935,61.9058672 140.51744,60.4205447 138.366528,58.9623102 C133.103726,55.3944405 128.69742,51.6098672 125.675824,45.9007597 C125.518456,45.6034372 124.996046,45.8136913 125.125036,46.1329421" id="Fill-465" fill="#323A45"></path>
            <path d="M143.313303,69.2189681 C144.045967,70.4908118 144.763798,71.8826164 145.838287,72.9061538 C146.585785,73.6181799 147.719609,72.4875805 146.970821,71.7736196 C145.915036,70.7681408 144.889564,69.6775284 143.690599,68.8416717 C143.455192,68.6772092 143.182378,68.9913004 143.313303,69.2189681" id="Fill-466" fill="#323A45"></path>
            <path d="M142.732847,54.2077304 C144.708332,56.7030463 145.7983,59.7626945 147.263629,62.5617825 C148.774749,65.4479388 148.979844,68.0625707 149.724117,71.122219 C149.904059,71.8632678 151.066261,71.8806815 151.235883,71.122219 C151.896313,68.1689877 150.396156,65.1086945 148.992098,62.5740365 C147.308775,59.5350268 145.608039,56.2793134 143.14755,53.7930268 C142.874736,53.5176326 142.505179,53.9187922 142.732847,54.2077304" id="Fill-467" fill="#323A45"></path>
            <path d="M71.6398827,19.3797238 C77.5811726,14.0350137 85.3109121,11.4274763 92.664645,8.67224501 C100.431147,5.76222547 108.327928,3.06052515 116.671661,2.58390625 C124.781922,2.12147629 133.319785,3.9112157 140.6503,7.36557401 C147.586104,10.6341864 152.851485,16.7618672 157.577042,22.6360821 C166.826287,34.135561 172.340619,49.2287076 173.893016,63.8175023 C175.419616,78.1728248 174.100046,94.1876066 164.258736,105.519398 C160.256814,110.127574 155.437739,112.341046 149.460977,113.076291 C148.396808,113.207216 147.935668,114.86732 149.184938,115.114981 C162.179414,117.692851 171.715016,102.428792 174.902365,91.9896131 C178.975231,78.6481538 177.825928,63.4073134 174.179375,50.1155154 C170.325147,36.0691245 162.995277,23.971131 153.046906,13.4403688 C142.925687,2.72773036 126.896072,-1.63665401 112.472384,0.547150552 C104.400821,1.76868801 96.8755309,4.78125479 89.350886,7.82477922 C82.6949902,10.5161603 76.1455114,13.5932222 71.1897068,18.9295479 C70.9091531,19.2313851 71.3354658,19.6538281 71.6398827,19.3797238" id="Fill-468" fill="#323A45"></path>
            <path d="M69.1768143,21.6035154 C69.3980326,21.3358607 69.4405993,21.2584665 69.5657199,20.9314763 C69.7237329,20.5187076 69.0562085,20.2458932 68.8569186,20.6328639 C65.1594137,27.799561 63.8301694,36.5721864 63.8508078,44.563776 C63.861772,48.761118 64.7840521,52.6572678 66.1294202,56.6127532 C67.5644365,60.8313786 69.5624951,65.0919258 70.593127,69.4137434 C71.597316,73.6226945 69.4438241,77.8490593 67.4457655,81.3859714 C65.5238111,84.7867988 63.5728339,88.0663753 62.633785,91.8941603 C61.0246319,98.4578281 62.6905407,105.640649 68.1861694,109.807033 C69.2516287,110.614512 70.4641368,108.904747 69.577329,108.004395 C64.1558697,102.499737 63.9094984,94.6674502 67.2071336,87.9728574 C70.3970619,81.496903 74.7627362,76.2773134 73.5063713,68.6107792 C73.2522606,67.0616066 72.5305603,65.5807988 71.9217264,64.1464274 C71.0187948,62.0200235 70.3222476,59.8297694 69.5270228,57.6620887 C68.0481498,53.631789 66.712456,49.7369291 66.3835309,45.4254307 C65.7456743,37.0687988 67.5889446,28.9753069 69.5657199,20.9314763 C69.3116091,20.8972939 69.0581433,20.8631115 68.8040326,20.8289291 C68.7653355,20.9921017 68.7259935,21.1552743 68.6872964,21.318447 C68.5782997,21.5880365 68.9942932,21.8234437 69.1768143,21.6035154" id="Fill-469" fill="#323A45"></path>
            <path d="M67.8804625,96.5139453 C66.844671,100.754499 65.7166515,105.661932 67.6624691,109.820577 C69.1690749,113.040173 72.5950554,117.420037 76.5969772,116.802173 C77.6534072,116.639001 77.5140977,115.287828 76.8594723,114.79702 C75.8320651,114.027594 74.6002085,113.607085 73.5231401,112.893769 C71.9275309,111.836695 70.7569446,110.188199 69.8301498,108.553893 C67.7585668,104.90218 68.8698176,100.546825 68.4389902,96.5894046 C68.4060977,96.2895023 67.9617264,96.1798607 67.8804625,96.5139453" id="Fill-470" fill="#323A45"></path>
            <path d="M73.0233029,108.73061 C73.8378762,112.168199 76.1790489,114.676414 79.2174137,116.341033 C80.005544,116.772506 80.6479153,115.642551 79.9146059,115.147874 C77.3044886,113.389092 74.883342,111.614186 73.8817329,108.493913 C73.7069511,107.948284 72.890443,108.170147 73.0233029,108.73061" id="Fill-471" fill="#323A45"></path>
            <path d="M94.4975961,113.959874 C99.0554658,116.906655 104.306658,117.136903 109.56301,116.624167 C113.423042,116.24816 119.655205,116.057255 122.373674,112.906668 C122.972189,112.212056 122.393668,111.269782 121.51202,111.426506 C119.644886,111.75801 117.889974,112.731887 116.037029,113.21947 C113.58557,113.865066 111.030274,114.127561 108.516899,114.395216 C106.06157,114.656421 103.639779,114.772512 101.17284,114.634493 C98.9458241,114.510662 96.8761759,113.435528 94.6452899,113.4136 C94.3434528,113.41102 94.2596091,113.80573 94.4975961,113.959874" id="Fill-472" fill="#323A45"></path>
            <path d="M119.899642,110.96988 C120.176971,111.630955 120.71744,112.177229 121.160521,112.734467 C121.644879,113.3433 122.006697,114.025014 122.467192,114.646747 C123.257902,115.715431 124.970248,114.796375 124.288534,113.581932 C123.853837,112.807991 123.143101,112.284936 122.449134,111.754141 C121.82998,111.280747 121.161811,110.726734 120.436886,110.432636 C120.145368,110.31461 119.776456,110.675782 119.899642,110.96988" id="Fill-473" fill="#323A45"></path>
            <path d="M98.5859414,115.771541 C99.197355,116.070154 99.5082215,117.440675 99.6823583,118.017261 C99.9854853,119.02532 99.9596873,120.426154 101.089642,120.836988 C101.500476,120.986616 102.093186,120.750564 102.280866,120.352629 C102.803277,119.242668 101.682352,117.879887 101.083192,116.953092 C100.485967,116.030812 99.8500456,115.291053 98.7207362,115.272994 C98.4646906,115.269124 98.3421498,115.65287 98.5859414,115.771541" id="Fill-474" fill="#323A45"></path>
            <path d="M97.2908795,119.415515 C101.537883,123.013053 107.337283,123.703151 112.545909,122.170747 C116.131192,121.116252 121.399798,118.760245 121.77516,114.521626 C121.877707,113.358779 120.380775,113.269776 119.825472,113.993411 C117.463016,117.072408 114.51301,118.586753 110.896769,119.832154 C106.270534,121.425183 102.084801,119.939216 97.5759479,118.925997 C97.310873,118.866662 97.0528925,119.213646 97.2908795,119.415515" id="Fill-475" fill="#323A45"></path>
            <path d="M101.404378,118.682851 C105.165733,120.569333 111.323081,122.79119 115.121844,119.871496 C115.979629,119.213001 115.528808,117.727678 114.348547,118.03661 C112.189251,118.601587 110.363394,119.098844 108.095101,118.932447 C105.902912,118.771209 103.768124,118.222356 101.574,118.058538 C101.243785,118.033385 101.11157,118.535802 101.404378,118.682851" id="Fill-476" fill="#323A45"></path>
            <path d="M101.564326,125.127203 C104.551739,127.67476 108.839375,128.00046 112.362098,126.406141 C113.202469,126.02562 112.587186,124.779574 111.757779,124.973704 C108.361466,125.767639 105.148964,125.963059 101.857779,124.623496 C101.578515,124.509984 101.342463,124.938232 101.564326,125.127203" id="Fill-477" fill="#323A45"></path>
            <path d="M114.836775,73.180903 C114.362736,74.052232 114.43884,75.4221082 114.324684,76.3824405 C114.171186,77.6768574 113.980925,78.9809486 113.969961,80.2876196 C113.951902,82.434662 117.280495,82.4327271 117.298554,80.2876196 C117.311453,78.7261929 117.759694,73.049333 115.383049,72.8674567 C115.17086,72.851333 114.936098,72.9977369 114.836775,73.180903" id="Fill-478" fill="#323A45"></path>
            <path d="M93.9416482,57.8749225 C91.8023453,56.9919844 88.149342,57.987789 86.1764365,58.9184535 C83.88557,59.9993916 81.6230814,62.2896131 82.5595505,65.0422646 C82.909114,66.0716066 84.2177199,65.7949225 84.348645,64.8004079 C84.7014332,62.1116066 86.0235831,60.9655284 88.5743648,60.1051636 C90.2847752,59.5285773 92.4737394,59.5105186 94.0422606,58.6424144 C94.3924691,58.4482841 94.2544495,58.0039128 93.9416482,57.8749225" id="Fill-479" fill="#323A45"></path>
            <path d="M115.226971,59.5743688 C120.329179,59.9103883 122.549101,64.2779975 125.562313,67.7097825 C126.268534,68.5133916 127.653244,67.4505121 127.046345,66.5649942 C124.315622,62.5804861 120.51944,58.3115545 115.226971,59.0222906 C114.881277,59.0687271 114.862573,59.5505056 115.226971,59.5743688" id="Fill-480" fill="#323A45"></path>
            <path d="M140.430371,111.906994 C140.084678,111.472942 139.827342,111.411672 139.65772,111.723183 C139.372651,112.279131 139.25527,112.56291 139.05598,113.160134 C138.737375,114.115952 138.814769,115.26719 138.92699,116.241066 C139.168847,118.341672 140.145303,120.237828 141.689961,121.665105 C144.879244,124.611242 150.054332,124.285541 153.853094,123.005313 C155.056573,122.599639 154.937257,120.513222 153.536423,120.667366 C150.74701,120.974362 147.813127,121.39487 145.073375,120.6119 C141.190769,119.501294 140.38071,115.006629 141.008248,111.609672 C141.083062,111.204642 140.570326,110.788649 140.248495,111.167235 C140.129824,111.30719 140.089837,111.418121 140.025342,111.595483 C139.938274,111.83218 140.233661,112.019861 140.430371,111.906994" id="Fill-481" fill="#323A45"></path>
            <path d="M158.821153,115.091118 C157.801485,116.52033 155.671212,116.851835 154.078827,116.421007 C152.147844,115.898597 152.761192,114.897633 152.604469,113.299444 C152.506436,112.300414 151.492573,111.887001 150.717342,112.517118 C148.151081,114.60289 150.418085,118.057248 152.897922,118.778949 C155.574469,119.55805 158.53028,118.020486 159.663459,115.583216 C159.929179,115.011144 159.187485,114.577092 158.821153,115.091118" id="Fill-482" fill="#323A45"></path>
            <path d="M160.030436,116.221072 C158.051726,119.425835 153.973055,120.168818 150.509023,119.381978 C149.402932,119.130447 148.971459,120.718317 150.042723,121.07304 C154.138808,122.429372 159.230052,120.87117 160.519309,116.426812 C160.605088,116.130134 160.187805,115.965672 160.030436,116.221072" id="Fill-483" fill="#323A45"></path>
            <path d="M99.1128664,137.971405 C100.865844,139.359339 100.963231,142.381581 101.156717,144.388024 C101.365681,146.557639 101.082547,149.043281 101.779094,151.130343 C102.209922,152.42218 104.387922,152.284805 104.266671,150.793678 C104.020945,147.784336 103.804886,137.336128 99.3321498,137.442545 C99.0877134,137.448349 98.8877785,137.793398 99.1128664,137.971405" id="Fill-484" fill="#323A45"></path>
            <path d="M132.246586,124.50676 C132.289153,126.989177 131.825433,129.485138 131.67516,131.964975 C131.510697,134.678284 131.580997,137.405138 131.702893,140.119092 C131.846072,143.305796 131.782866,149.312225 134.808332,151.195483 C135.626775,151.704994 136.49101,151.021346 136.573564,150.18291 C136.7477,148.422193 135.669987,146.605366 135.257218,144.886571 C134.64258,142.330629 134.433616,139.666336 134.218202,137.053639 C134.023427,134.684734 133.935713,132.300994 133.866704,129.926284 C133.810593,127.979177 134.000853,126.053997 133.186925,124.252004 C132.974736,123.781835 132.238847,124.031431 132.246586,124.50676" id="Fill-485" fill="#323A45"></path>
            <path d="M113.635876,157.518584 C113.568156,159.061952 114.307915,160.485359 116.040899,160.349919 C117.6823,160.222219 119.113446,159.172883 120.227922,158.03648 C121.158586,157.087756 119.766137,155.731424 118.783876,156.593079 C118.069915,157.219326 117.251472,157.775274 116.428515,158.247379 C115.396593,158.840089 114.965765,158.49633 114.759381,157.366375 C114.638775,156.704655 113.662319,156.901366 113.635876,157.518584" id="Fill-486" fill="#323A45"></path>
            <path d="M58.1487948,197.641639 C59.4457915,196.165991 59.8430814,194.081509 60.4267622,192.249203 C61.2903518,189.540408 62.0610684,186.797431 63.0368795,184.126043 C64.9233616,178.963854 68.2912964,175.381151 72.4641303,171.955815 C77.616,167.726225 82.9794137,163.750102 88.43957,159.930056 C90.9200521,158.195138 93.4605147,156.551802 95.9564756,154.841392 C98.4788795,153.112278 100.734919,151.116154 103.431459,149.638571 C104.658156,148.966532 103.793922,146.782727 102.462098,147.33932 C99.804899,148.450571 97.5701433,150.126799 95.2463844,151.800447 C92.5459739,153.74562 89.6888404,155.487633 86.9458632,157.37347 C81.5205342,161.103222 76.2609577,165.060642 71.1510098,169.209613 C67.1136156,172.487255 63.6431336,175.765541 61.5541368,180.60719 C59.2819739,185.873216 58.7363453,191.796447 57.7160326,197.389463 C57.6734658,197.622936 57.9624039,197.853828 58.1487948,197.641639" id="Fill-487" fill="#323A45"></path>
            <path d="M133.600339,145.501209 C139.98213,146.894949 145.389401,150.113255 150.909537,153.47345 C156.513518,156.884597 162.413531,159.697874 168.180684,162.809763 C174.098111,166.002271 179.726599,169.944212 184.491498,174.703952 C189.113218,179.319222 189.261557,185.013496 190.103218,191.10248 C190.33798,192.796121 192.641746,192.121502 192.823622,190.734212 C193.537583,185.299854 192.276059,178.596232 188.651433,174.324076 C183.988436,168.827157 177.704678,164.490506 171.452521,161.00132 C165.170697,157.49601 158.533505,154.694988 152.283928,151.122603 C146.745733,147.957183 140.398769,143.979124 133.770606,144.244199 C133.072124,144.272577 132.869609,145.341906 133.600339,145.501209" id="Fill-488" fill="#323A45"></path>
            <path d="M96.940671,153.717887 C96.9432508,153.710792 96.9458306,153.703698 96.9484104,153.696603 C97.0361238,153.445717 96.7259023,153.232883 96.5117785,153.361229 C94.8407101,154.364128 95.8010423,159.935216 95.9222932,161.245756 C96.293785,165.270896 97.0361238,169.354082 97.9758176,173.288929 C98.7697524,176.614297 101.455974,187.27276 106.811003,184.89289 C107.788749,184.458193 107.791329,182.744558 106.811003,182.311151 C102.69299,180.489164 101.544977,175.238616 100.490482,171.170265 C99.6146384,167.790721 98.8742345,164.362805 98.2260586,160.9336 C97.8771401,159.08904 97.7604039,157.218037 97.4714658,155.368317 C97.4005212,154.912981 97.3295765,154.458291 97.2483127,154.004245 C97.0832052,153.08519 96.940671,153.907502 96.6833355,153.914597 C96.809101,153.911372 96.900684,153.833333 96.940671,153.717887" id="Fill-489" fill="#323A45"></path>
            <path d="M147.205583,151.029085 C145.718971,155.18644 141.730593,158.122903 138.507772,160.912317 C134.440065,164.43246 130.468456,167.991945 126.096332,171.141242 C122.442039,173.773932 118.562013,175.936453 114.674893,178.189913 C111.951909,179.768108 109.072847,181.630727 105.853251,181.733274 C104.309238,181.782291 103.979023,183.617822 105.115427,184.455613 C107.597844,186.285984 112.097023,183.358551 114.261479,182.144753 C118.574267,179.726831 122.833524,177.170245 126.837381,174.26732 C131.642912,170.782649 135.936997,166.714942 140.209153,162.614343 C143.477765,159.476655 147.569336,156.05261 148.456143,151.374134 C148.612221,150.551177 147.488072,150.239665 147.205583,151.029085" id="Fill-490" fill="#323A45"></path>
            <path d="M88.1609511,74.5436848 C88.320899,76.3411636 86.1764365,81.5852613 89.219316,82.0979975 C90.0758111,82.2424665 90.7291466,81.7535935 90.8117003,80.8854893 C90.8620065,80.3527597 90.5820977,79.9703036 90.5195375,79.4672418 C90.4427883,78.8448639 90.5040586,78.1928183 90.5105081,77.5678607 C90.5240521,76.3269747 90.4756808,75.2034698 89.9687492,74.0535219 C89.5824235,73.1783232 88.0777524,73.6078607 88.1609511,74.5436848" id="Fill-676" fill="#323A45"></path>
            <path d="M92.1738371,97.4678281 C93.2496156,100.444923 93.746873,102.899607 96.6575375,104.594538 C99.5914202,106.303014 103.790697,105.772219 106.920645,105.024721 C107.990619,104.76932 107.657824,103.307216 106.676208,103.219502 C103.831329,102.964102 101.012248,103.652265 98.1970358,102.969261 C95.0419349,102.203704 94.5195244,99.3239975 92.7620326,97.1247141 C92.5427492,96.8506098 92.057101,97.1453525 92.1738371,97.4678281" id="Fill-677" fill="#323A45"></path>
            <g id="Group" transform="translate(0.000000, 80.180558)">
                <path d="M29.422671,108.771655 C31.3736482,107.524964 30.9905472,103.218625 31.0763257,101.200573 C31.2923844,96.135772 31.9541042,91.0703257 32.0940586,86.0139088 C32.1243713,84.9265212 30.5668143,84.7801173 30.2553029,85.7649577 C28.9370228,89.9306971 29.198873,95.0032378 29.2188664,99.3611726 C29.2278958,101.232176 29.211772,103.101244 29.2001629,104.972248 C29.1943583,105.938384 29.3310879,107.51787 28.9550814,108.412417 C28.8441498,108.675557 29.2046775,108.910964 29.422671,108.771655" id="Fill-127" fill="#808489"></path>
                <path d="M8.67910749,82.7594853 C14.9454528,87.6720782 27.3826906,92.1383648 33.6683844,85.0026254 C34.4139479,84.1558046 33.2923779,83.0529381 32.4397524,83.7746384 C25.6587362,89.5159935 16.0173616,85.7578632 9.13637785,82.1661303 C8.77456026,81.9778046 8.32696417,82.4834463 8.67910749,82.7594853" id="Fill-128" fill="#808489"></path>
                <path d="M14.6165277,89.7584951 C19.9109316,92.7717068 26.8525407,92.3776417 32.1295309,89.4579479 C32.9692573,88.9929381 32.3991205,87.6037134 31.4729707,87.9016808 C26.0244235,89.6520782 20.7138958,91.4205342 15.193759,88.77043 C14.5365537,88.4544039 13.9670619,89.3889381 14.6165277,89.7584951" id="Fill-129" fill="#808489"></path>
                <path d="M11.8574267,59.8063192 C15.0286515,62.6041173 20.0354072,63.1587752 23.8818958,61.5393029 C24.9015635,61.1097655 25.2182345,59.439342 23.8818958,59.1433094 C19.971557,58.2771401 20.8332117,62.6324951 22.4378502,64.5421954 C24.6061759,67.122645 29.026671,68.4802671 30.3688143,64.3777329 C30.7441759,63.2303648 29.2536938,62.5241433 28.4500847,63.2606775 C27.284658,64.3293616 26.4971726,64.5957264 25.185342,63.5412313 C24.6455179,63.1071792 24.2146906,62.5621954 23.8483583,61.9798046 C23.7290423,61.789544 23.6322997,61.5889642 23.5581303,61.3767752 C23.3678697,60.8633941 22.9247883,61.5360782 23.5516808,61.5838046 C23.3427166,60.811798 23.1337524,60.0404365 22.9247883,59.26843 C19.7593681,61.3129251 15.6755375,60.5028664 12.4378827,59.0536612 C11.9767427,58.8472769 11.418215,59.4187036 11.8574267,59.8063192" id="Fill-130" fill="#808489"></path>
                <path d="M30.121798,44.1636743 C30.9518502,47.6399609 28.6074528,51.0433681 26.9886254,53.9424235 C26.5881107,54.6602541 27.6284169,55.5425472 28.1669511,54.8511596 C30.5416612,51.7998958 32.6970879,47.6315765 31.0589121,43.7683192 C30.8241498,43.2143062 29.9921629,43.6219153 30.121798,44.1636743" id="Fill-131" fill="#808489"></path>
                <path d="M20.9692964,50.7995765 C20.8802932,52.826013 20.0276678,54.7202345 20.0470163,56.7589251 C20.0566906,57.842443 21.5568469,57.776013 21.6819674,56.7589251 C21.9270489,54.7686059 22.4849316,52.8182736 22.3849642,50.7995765 C22.3398176,49.8882606 21.0099283,49.8863257 20.9692964,50.7995765" id="Fill-132" fill="#808489"></path>
                <path d="M28.7003257,1.34794788 C27.9057459,3.74652117 28.392684,6.46047557 28.4249316,8.94869707 C28.472013,12.6204039 28.1617915,16.4172313 27.6058436,20.0437915 C26.769342,25.5013681 25.647772,30.8028664 23.9928274,36.0656678 C23.5349121,37.5226124 25.6142345,38.3010684 26.3849511,37.0743713 C29.3007752,32.4313681 29.5819739,26.1031075 30.3655896,20.8048339 C31.2981889,14.4959218 31.0305342,7.48788274 29.2162866,1.34794788 C29.1388925,1.08674267 28.7828795,1.09899674 28.7003257,1.34794788" id="Fill-1070" fill="#323A45"></path>
                <path d="M29.0743974,2.14059283 C32.4262085,1.4137329 33.7328795,6.65912052 34.2423909,9.03318567 C34.9460326,12.3069577 33.9728013,15.5717003 33.9844104,18.8409577 C33.9889251,20.077329 35.6451596,20.1934202 36.0398697,19.1195765 C37.7444756,14.4843127 37.4555375,8.87839739 35.3936287,4.42887948 C34.2888274,2.04514007 31.1401759,-1.20992834 28.6493746,1.41050814 C28.3391531,1.73620847 28.6500195,2.2321759 29.0743974,2.14059283" id="Fill-1071" fill="#323A45"></path>
                <path d="M11.0202801,48.6957459 C11.5355961,49.552241 12.7171466,50.0617524 13.5336547,50.5925472 C14.453355,51.1910619 15.2098827,52.351329 16.3172638,52.5577134 C16.8738567,52.6615505 17.3878827,52.3210163 17.4059414,51.7283062 C17.4478632,50.3558502 16.116684,49.7250879 15.0441303,49.2213811 C14.0141433,48.7376678 12.513342,48.0004886 11.3537199,48.114645 C11.0738111,48.1423779 10.8571075,48.4248664 11.0202801,48.6957459" id="Fill-1072" fill="#323A45"></path>
                <path d="M16.8667622,51.0369186 C16.2740521,50.7312117 15.7529316,51.2936091 15.4536743,51.7495896 C15.1311987,52.2423322 15.0389707,52.8376221 15.0009186,53.4122736 C14.9706059,53.8714788 15.4078827,54.2558697 15.8445147,54.2558697 C16.3269381,54.2558697 16.6571531,53.8708339 16.6874658,53.4122736 C16.7100391,53.0710945 16.7416417,52.7305603 16.7738893,52.3900261 C16.7829186,52.2894137 16.8022671,52.1617134 16.8538632,52.0540065 C16.9299674,51.8953485 17.0712117,51.797316 17.1008795,51.61157 C17.1357068,51.3922866 17.0841107,51.1491401 16.8667622,51.0369186" id="Fill-1073" fill="#323A45"></path>
                <path d="M14.889987,52.4016352 C12.6649055,49.8843909 7.70265147,50.7957068 9.48013681,54.7724756 C11.3633941,58.9846515 17.2576026,61.6141173 21.4078632,58.9182215 C22.4230163,58.2584365 21.7329186,56.9027492 20.6274723,57.0672117 C17.9547948,57.4651466 15.7245537,57.8211596 13.3046971,56.2855309 C12.7010228,55.9030749 10.1263779,53.2142736 11.4427231,52.7189511 C12.4133746,52.3539088 13.5317199,52.8982476 14.4649642,53.1317199 C14.9035309,53.2420065 15.1763453,52.7254007 14.889987,52.4016352" id="Fill-1074" fill="#323A45"></path>
                <path d="M16.1689251,51.6315635 C15.8741824,51.9733876 15.7703453,52.4338827 15.6781173,52.8679349 C15.5691205,53.381316 15.4594788,53.8682541 15.4852769,54.3951792 C15.5181694,55.0846319 16.6023322,55.3052052 16.7422866,54.5648013 C16.8390293,54.0527101 16.8635375,53.552228 16.8932052,53.0323974 C16.9177134,52.5944756 16.9319023,52.0843192 16.6952052,51.6992834 C16.5887883,51.5264365 16.3140391,51.4632313 16.1689251,51.6315635" id="Fill-1075" fill="#323A45"></path>
                <path d="M12.4088599,41.4181173 C15.417557,43.0408143 18.9099674,44.4216547 21.4917068,46.6983322 C24.7577394,49.5780391 21.2092182,54.4822476 21.5394332,57.9030684 C21.6722932,59.2793941 23.3472313,59.452241 23.8606124,58.2178046 C25.3685081,54.5893094 26.5739218,49.0130619 23.9863779,45.6302932 C22.9215635,44.2378436 21.1885798,43.4342345 19.6052248,42.794443 C17.3756287,41.8934463 15.048,40.7402736 12.6165342,40.6512704 C12.20957,40.6364365 12.051557,41.2252769 12.4088599,41.4181173" id="Fill-1076" fill="#323A45"></path>
                <path d="M21.1273094,39.8450814 C24.5674788,41.3671661 27.1698567,43.5670945 27.4007492,47.4967818 C27.6084235,51.0362736 24.2508078,53.6289772 24.4172052,57.0614072 C24.4655765,58.0578567 25.6755049,58.3422801 26.2250033,57.5509251 C28.6829121,54.0114332 30.4384691,49.2349251 29.5000651,44.946 C28.7977134,41.7341433 24.6023062,38.7299609 21.31757,39.1414397 C20.9963844,39.1814267 20.7396938,39.6735244 21.1273094,39.8450814" id="Fill-1077" fill="#323A45"></path>
                <path d="M26.5958502,37.3259023 C28.9150945,38.7409251 31.4910293,39.2362476 33.4955375,41.2265668 C37.2581824,44.9647036 31.5419805,49.4090619 29.9205733,52.4422671 C29.3485016,53.512241 30.7512704,54.6783127 31.6303388,53.7611922 C34.7738306,50.4816156 38.6744951,46.1978502 36.3571857,41.303316 C34.9589316,38.3507296 29.8625277,36.3281629 26.7906254,36.6067818 C26.4197785,36.6403192 26.2495114,37.1143583 26.5958502,37.3259023" id="Fill-1078" fill="#323A45"></path>
                <path d="M25.5806971,36.194013 C21.2311466,33.0879283 17.0718567,36.8338046 12.6539414,38.068886 C10.5449511,38.6583713 8.42370684,39.3052573 6.95837785,41.0150228 C5.73490554,42.4422997 5.64912704,44.5796678 5.43435831,46.3532834 C4.77134853,51.8411726 4.03545928,57.9417655 5.08543974,63.3948274 C5.98643648,68.0765277 8.65137459,71.7637134 13.3298502,73.1651922 C14.7145603,73.5798958 15.4510945,71.6347231 14.2856678,70.896899 C12.8867687,70.0107362 11.4562671,69.2683974 10.2373094,68.1261889 C8.76037134,66.7427687 8.25214984,64.5409055 7.76263192,62.6570033 C6.65525081,58.3983909 7.41113355,53.683798 7.47756352,49.3348925 C7.50787622,47.3103909 7.50723127,45.1846319 8.0612443,43.2272052 C8.79842345,40.6254723 12.8383974,40.1752964 15.0299414,39.5290554 C16.6681173,39.045987 18.215355,38.2707557 19.7496938,37.5348664 C21.7851596,36.5584104 23.4265603,37.2975244 25.4768599,36.9924625 C25.8922085,36.9305472 25.8483518,36.3849186 25.5806971,36.194013" id="Fill-1079" fill="#323A45"></path>
                <path d="M31.4220195,51.8798697 C28.8473746,52.0037003 26.9976547,54.766671 25.1666384,56.3093941 C23.3839935,57.8121303 21.6903518,59.7205407 23.4942801,61.8849967 C24.9789577,63.6657068 28.7132248,63.3380717 30.7112834,63.0884756 C33.9386189,62.6860261 37.1794984,60.9072508 38.7957459,58.0191596 C39.2923583,57.1317068 38.2617264,55.9475765 37.3413811,56.5641498 C35.6748274,57.6805603 34.3133355,59.1220261 32.4165342,59.8817785 C30.650658,60.588645 28.5300586,60.6860326 26.6590554,60.3887101 C24.1972769,59.9972248 26.8280326,58.2313485 27.7606319,57.3625993 C29.1356678,56.0830163 30.0147362,53.9695114 31.7709381,53.1671922 C32.4010554,52.878899 32.0837394,51.8476221 31.4220195,51.8798697" id="Fill-1080" fill="#323A45"></path>
                <path d="M29.8644625,62.1152443 C26.8602801,63.2484235 24.9576743,67.5566971 26.0624756,70.5312117 C26.5371596,71.808215 28.2946515,71.3025733 28.0805277,69.9752638 C27.8470554,68.5260586 27.9734658,67.2903322 28.5610163,65.9410945 C29.0479544,64.8227492 29.911544,63.9997915 30.5203779,62.9678697 C30.7622345,62.5576808 30.3578502,61.9288534 29.8644625,62.1152443" id="Fill-1081" fill="#323A45"></path>
                <path d="M34.6925668,50.0869055 C35.1608013,49.5045147 38.5274463,53.1613876 38.7912313,53.5812508 C40.1965798,55.8179414 39.7528534,58.5583388 39.0704951,60.9394984 C37.7380261,65.5870163 34.7738306,69.1007101 31.8889642,72.8253029 C31.3033485,73.5811857 32.076,74.9504169 33.013114,74.2822476 C37.8941042,70.8008013 41.2730033,64.930456 42.1153094,59.004 C42.7699349,54.3958241 39.7128664,48.7944235 34.5210098,48.9924235 C34.1701564,49.0053225 33.8489707,49.4238958 34.0843779,49.7534658 C34.1514528,49.8469837 34.2185277,49.9411466 34.2856026,50.0346645 C34.373316,50.1572052 34.5797003,50.2281498 34.6925668,50.0869055" id="Fill-1082" fill="#323A45"></path>
                <path d="M16.7468013,62.6847362 C21.3420782,64.5802476 21.5839349,69.6057068 22.6487492,73.7959544 C22.8306254,74.5099153 23.9702541,74.3673811 23.9392964,73.6211726 C23.7451661,68.956241 22.2437199,63.0214007 16.9067492,62.1036352 C16.5184886,62.0365603 16.3894984,62.5376873 16.7468013,62.6847362" id="Fill-1083" fill="#323A45"></path>
                <path d="M10.4972248,70.5118632 C10.9744886,71.0129902 10.5565603,72.2048599 10.4224104,72.771772 C10.217316,73.6366515 9.95869055,74.4596091 9.82002606,75.3406124 C9.63814984,76.4970098 11.2015114,76.969114 11.5929967,75.8294853 C12.1057329,74.3357785 13.3737068,70.2725863 10.9719088,69.6972899 C10.4959349,69.5831336 10.1560456,70.1539153 10.4972248,70.5118632" id="Fill-1084" fill="#323A45"></path>
                <path d="M34.1288795,71.4309186 C32.9860261,71.1387557 32.2088599,73.0897329 31.8883192,73.8778632 C31.4117003,75.0503844 30.2069316,77.1825928 30.9679739,78.3938111 C31.2659414,78.8672052 31.8496221,79.0226384 32.3417199,78.7543388 C33.5071466,78.1190619 33.4162085,76.1764691 33.6548404,75.0271661 C33.7960847,74.3473876 33.9540977,73.6663192 34.1733811,73.0078241 C34.3133355,72.5886059 34.5693811,72.217114 34.4642541,71.7656482 C34.4268469,71.6069902 34.2856026,71.4702606 34.1288795,71.4309186" id="Fill-1085" fill="#323A45"></path>
                <path d="M5.69298371,76.2641824 C8.04963518,78.8762345 11.0228599,81.628886 14.3359739,82.9426515 C18.5288013,84.6053355 22.875127,84.6762801 27.3188404,84.8091401 C30.3875179,84.9013681 32.7074072,84.6936938 34.8892769,82.4673225 C36.3571857,80.9697459 36.1527362,78.896228 34.0766384,78.2590163 C32.4410423,77.7565993 31.8625212,80.1680717 33.3858958,80.7665863 C33.3800912,79.965557 33.2214332,79.8720391 32.9092769,80.4873225 C32.6938632,80.7291792 32.4636156,80.9574919 32.2204691,81.1716156 C31.3014137,82.0313355 30.3913876,82.0539088 29.1292182,82.1532313 C26.4584756,82.3628404 23.667127,82.2525537 20.9957394,82.1132443 C17.7813029,81.945557 14.6603844,81.1090554 11.9148274,79.4199283 C9.92128339,78.1945212 8.27085342,76.480241 6.06899023,75.6192313 C5.68201954,75.4676678 5.45757655,76.0029772 5.69298371,76.2641824" id="Fill-1086" fill="#323A45"></path>
                <path d="M11.0654267,74.9123648 C10.7900326,74.4144625 10.8319544,74.1003713 10.3011596,73.814658 C9.84388925,73.5682866 9.3350228,73.5295896 8.82486645,73.5308795 C7.946443,73.5341042 6.70233225,73.7340391 6.11736156,74.4583192 C5.86518567,74.7711205 5.742,75.1864691 5.97547231,75.556671 C6.01674919,75.622456 6.06770033,75.6811466 6.11736156,75.7404821 C6.32955049,75.9945928 6.69910749,76.0345798 6.99965472,75.9733094 C7.64073616,75.8430293 8.22957655,75.4676678 8.86743322,75.2974007 C9.20925733,75.2058176 10.4591726,75.0000782 10.6591075,75.226456 C10.8590423,75.4534788 11.2047362,75.1632508 11.0654267,74.9123648" id="Fill-1087" fill="#323A45"></path>
                <path d="M6.23667752,75.5450619 C6.32632573,75.4928208 6.41532899,75.4412248 6.5049772,75.3896287 C6.27988925,75.1645407 6.0548013,74.9394528 5.82971336,74.7143648 C0.95581759,85.1335505 -0.536599349,96.9735635 0.484358306,108.361466 C0.583680782,109.470137 2.22830619,109.509479 2.23798046,108.361466 C2.28570684,102.985798 2.29602606,97.6120651 2.86809772,92.2602606 C3.50272964,86.3215505 5.55689902,80.8884821 6.73135505,75.094886 C6.89452769,74.2919218 5.60785016,74.3054658 5.78005212,75.094886 C5.8013355,75.1916287 5.82261889,75.2883713 5.84390228,75.385114 C5.8806645,75.5560261 6.09349837,75.6282606 6.23667752,75.5450619" id="Fill-1088" fill="#323A45"></path>
                <path d="M34.2043388,81.773355 C34.5500326,82.605342 33.6277524,85.5482541 33.5168208,86.4002345 C33.2053094,88.8013876 32.9550684,91.2064104 32.7261107,93.6159479 C32.2694853,98.4247036 32.0108599,103.259257 32.0669707,108.090586 C32.0818046,109.3663 33.9992443,109.35985 34.0411661,108.090586 C34.2340065,102.22927 34.5319739,96.3763388 34.9473225,90.5266319 C35.1156547,88.1590163 35.2007883,85.7810814 35.4336156,83.4186254 C35.5097199,82.6504886 35.5929186,81.5076352 34.6377459,81.3399479 C34.4081433,81.2999609 34.0901824,81.4992508 34.2043388,81.773355" id="Fill-1089" fill="#323A45"></path>
                <path d="M34.2159479,19.0486319 C34.0850228,22.7403322 33.9199153,26.3585081 33.5497134,30.0424691 C33.2104691,33.4187883 32.1166319,38.0282541 33.3588078,41.2472052 C33.7348143,42.2210814 35.0601889,42.2946059 35.4097524,41.2472052 C36.6422541,37.5490554 36.3249381,33.0021498 36.471987,29.1298632 C36.6022671,25.7180717 36.9795635,21.8670684 35.2665733,18.7642085 C34.9853746,18.255987 34.2352964,18.506228 34.2159479,19.0486319" id="Fill-1090" fill="#323A45"></path>
                <path d="M35.7161042,44.998886 C35.0582541,46.3552182 34.6074332,49.512899 35.8476743,50.6241498 C36.6370945,51.3310163 37.6367687,50.7892573 37.7638241,49.830215 C37.8683062,49.0478893 37.3981368,48.0688534 37.2646319,47.2755635 C37.1337068,46.4996873 37.131772,45.7302606 36.8138111,44.998886 C36.6274202,44.5699935 35.9115244,44.5964365 35.7161042,44.998886" id="Fill-1091" fill="#323A45"></path>
            </g>
        </g>
    </g>
</svg>