<?xml version="1.0" encoding="UTF-8"?>
<svg width="300px" height="300px" viewBox="0 0 300 300" version="1.1" xmlns="http://www.w3.org/2000/svg" xmlns:xlink="http://www.w3.org/1999/xlink">
    <!-- Generator: Sketch 50.2 (55047) - http://www.bohemiancoding.com/sketch -->
    <title>Artboard</title>
    <desc>Created with Sketch.</desc>
    <defs></defs>
    <g id="Artboard" stroke="none" stroke-width="1" fill="none" fill-rule="evenodd">
        <g id="Group" transform="translate(85.000000, 54.000000)">
            <path d="M47.4956708,134.419173 C47.4070994,134.559637 47.3175756,134.69935 47.2290041,134.839815 C47.0375756,135.141776 47.6118613,135.40693 47.8032898,135.104969 C47.8918613,134.964505 47.9813851,134.824041 48.0699565,134.684328 C48.2613851,134.382367 47.6880518,134.116461 47.4956708,134.419173" id="Fill-31" fill="#808489"></path>
            <path d="M46.2723525,135.238553 C46.2217916,135.185048 46.1712307,135.130936 46.1206697,135.077432 C45.9782358,134.879223 45.7278975,134.836662 45.5392188,135.003255 C45.4966736,135.040952 45.4541284,135.07804 45.4115833,135.115736 C45.2352365,135.271385 45.2525013,135.561402 45.4115833,135.720091 C48.0752819,138.370986 54.2634486,136.714177 57.2724415,135.581467 C62.2452956,133.708816 67.1799207,130.598879 69.9256268,125.97319 C70.4170545,125.146306 69.3102631,124.369886 68.6215243,124.980929 C66.7828323,126.614026 65.2006446,128.46114 63.2244515,129.954396 C61.4122732,131.323619 59.2948794,132.319529 57.2416117,133.280782 C55.211158,134.231091 53.136926,134.737558 50.9375248,135.10236 C49.9232229,135.270777 48.9212529,135.386905 47.8933858,135.392986 C47.3618793,135.375353 46.8383885,135.299961 46.3222969,135.167416 C45.7186485,135.481754 45.6113607,135.659899 45.9998167,135.700027 C46.2661866,135.763868 46.4789125,135.436762 46.2723525,135.238553" id="Fill-32" fill="#808489"></path>
            <path d="M65.3111644,141.661767 C68.3984959,136.93603 71.8254148,131.132082 70.8218579,125.239974 C70.6907112,124.46937 69.5572747,124.705308 69.5217954,125.415659 C69.2284578,131.318549 67.4133121,136.070924 64.4121446,141.13598 C64.0668551,141.718214 64.9462346,142.220534 65.3111644,141.661767" id="Fill-33" fill="#808489"></path>
            <path d="M66.1743784,133.108499 C67.8773014,130.390665 68.9831352,127.472375 70.0219487,124.464328 C70.2114331,123.916214 69.297521,123.529661 69.0629502,124.067603 C67.8175925,126.925457 66.8902763,129.908372 65.3512482,132.636378 C65.0527036,133.165345 65.8526813,133.622505 66.1743784,133.108499" id="Fill-34" fill="#808489"></path>
            <path d="M63.87768,126.580718 C67.9862399,122.50196 71.5949415,118.465226 74.4382744,113.355959 C77.2691419,108.268017 79.2361648,102.70214 80.6858781,97.0710335 C83.4737404,86.2428502 84.4946477,73.6352671 81.8276987,62.6822686 C81.5391273,61.4968385 79.5621321,61.7245163 79.6811757,62.9745493 C80.7376091,74.0843507 81.0137153,84.6792113 78.5474575,95.6598071 C76.1466425,106.351258 71.176731,118.203051 63.4657022,126.166131 C63.2033078,126.437087 63.6096763,126.846029 63.87768,126.580718" id="Fill-35" fill="#808489"></path>
            <path d="M91.6229317,78.7293153 C92.0657353,81.0033711 91.067207,83.632034 90.1473429,85.6836883 C89.0809349,88.0627671 87.7753623,89.826535 85.0931655,90.2237689 C83.9645875,90.3911879 84.2024833,91.9195808 85.0931655,92.2192051 C87.9675822,93.1866518 90.1822343,89.5831289 91.1433336,87.5432124 C92.3696076,84.941732 93.4239622,81.3233823 92.6284383,78.4593445 C92.4508094,77.81994 91.4998603,78.0942353 91.6229317,78.7293153" id="Fill-36" fill="#808489"></path>
            <path d="M98.8671029,55.7409727 C100.70571,59.7335684 100.191149,64.9772193 99.9684008,69.2675361 C99.7213865,74.0298191 98.8117269,78.7450935 97.4173718,83.2961512 C95.1842882,90.5856156 89.9652563,98.009838 82.0452448,99.3831155 C81.1293632,99.5416911 81.4068654,100.903686 82.254927,100.9438 C85.9738294,101.12118 89.2721231,98.516904 91.8144412,96.0542809 C94.8949642,93.070176 96.9581866,89.4279509 98.3705856,85.4046429 C100.184927,80.2368325 101.039833,74.7249193 101.333512,69.2675361 C101.574305,64.800467 101.797053,59.3719157 99.4401511,55.4037644 C99.2167805,55.0283226 98.6903975,55.3561291 98.8671029,55.7409727" id="Fill-37" fill="#808489"></path>
            <path d="M103.168741,67.9446691 C104.07563,74.8575887 102.724997,81.7078968 99.4779712,87.8582101 C97.8732343,90.8979913 95.7127228,93.6021756 93.2474114,95.9826593 C90.3890521,98.7413155 87.0224844,99.8232397 83.1739949,100.326009 C82.4198187,100.424309 82.0536833,101.680292 82.9737158,101.804889 C90.5304992,102.826706 96.4625179,95.8060953 99.8835365,89.9657082 C103.758313,83.3501926 105.199697,75.3854024 103.823403,67.8563871 C103.756435,67.4882324 103.119923,67.5721316 103.168741,67.9446691" id="Fill-38" fill="#808489"></path>
            <path d="M100.868177,86.8927488 C99.3643528,92.9576502 97.428573,99.0386061 92.8665008,103.534487 C88.9721091,107.372751 83.6627531,109.343752 80.6378271,114.079216 C80.1700804,114.812166 81.254907,115.653176 81.8417501,115.007908 C85.7947643,110.657752 91.3275033,108.110024 95.1206939,103.61476 C99.0163197,98.9990873 100.509036,92.8687329 101.471064,87.0588512 C101.535857,86.6692205 100.96691,86.4938559 100.868177,86.8927488" id="Fill-39" fill="#808489"></path>
            <path d="M69.2664239,30.1522234 C76.2636227,34.1076544 81.5620907,40.1759282 86.0806261,46.6439795 C90.4368342,52.8785159 92.8324316,60.1479903 91.3264645,67.6889647 C91.2078894,68.2830266 92.0043082,68.9213006 92.4754381,68.3459199 C94.5476489,65.8164866 93.8032256,62.2876095 93.3257547,59.3085821 C92.6244496,54.9346924 90.782414,51.056477 88.340528,47.3650735 C83.6476174,40.2712023 77.3663077,33.4313953 69.6158083,29.5650113 C69.2201352,29.3676134 68.8770918,29.9317854 69.2664239,30.1522234" id="Fill-40" fill="#808489"></path>
            <path d="M36.7271429,30.8937291 C38.4041393,37.4720492 41.5196966,43.3807125 45.6654175,48.6906678 C48.7907567,52.6930497 53.2580599,58.0154521 58.8753558,57.021547 C59.7924155,56.8591117 59.8144249,55.262142 58.8753558,55.1214892 C56.20121,54.7200685 54.105423,54.2856629 51.9387168,52.5318591 C49.8753326,50.8614512 48.0461043,48.8300759 46.3281459,46.8049242 C42.3548322,42.1210607 39.3432084,36.554694 37.3709188,30.7132453 C37.2321371,30.3024893 36.6183185,30.4661694 36.7271429,30.8937291" id="Fill-41" fill="#808489"></path>
            <path d="M62.611332,51.5626913 C68.2916701,57.515338 75.7952195,63.8635721 84.4124028,64.7568337 C85.4367971,64.8631743 85.615276,63.2644184 84.651614,63.0243923 C76.2971914,60.9407229 69.6215856,56.5825785 63.526656,50.6651761 C62.9317264,50.0866828 62.0418109,50.9659682 62.611332,51.5626913" id="Fill-42" fill="#808489"></path>
            <path d="M17.1406654,45.8875717 C16.6981515,42.5810754 21.2850954,39.5562069 23.5681481,37.964236 C24.6597231,37.2035314 25.7617173,36.4589198 26.8514536,35.6932635 C28.296059,34.6775465 29.675697,34.34145 31.2306244,33.6921586 C32.0696845,33.341826 32.2124903,32.3824345 31.472107,31.8272253 C28.9806683,29.9591973 23.8047275,35.1807628 21.9102535,36.6600825 C19.233719,38.750937 14.788355,42.2604529 15.9522522,46.2187165 C16.1857671,47.0116071 17.2436326,46.6581796 17.1406654,45.8875717" id="Fill-43" fill="#808489"></path>
            <path d="M27.3094049,31.704647 C26.4313451,37.8257441 30.5894351,43.9886612 34.0533748,48.7106328 C37.8300227,53.8606445 43.1045738,55.9411902 49.4144676,55.0303749 C50.4671486,54.8784699 50.0795143,53.4184594 49.1822586,53.3243644 C46.5901864,53.0525343 43.9882066,52.9867292 41.4939719,52.172469 C38.667833,51.2499686 36.5469904,48.6282228 34.8775621,46.327507 C31.6216817,41.8398505 29.0320864,37.1879889 28.05557,31.704647 C27.9911707,31.3424119 27.3632774,31.3307269 27.3094049,31.704647" id="Fill-44" fill="#808489"></path>
            <path d="M20.8100701,27.6998353 C16.457497,30.5031102 13.7464871,34.9429937 13.1238897,40.133147 C12.4925671,45.3944846 13.1450792,52.2369952 16.1377848,56.7493229 C16.6600437,57.5367597 17.880933,57.0504387 17.6565735,56.1023648 C16.5335299,51.343097 14.7729315,47.2005496 14.7966139,42.1811126 C14.8215427,36.7893755 17.0264974,31.813405 21.2774855,28.5080604 C21.7349295,28.1521389 21.3279664,27.3659621 20.8100701,27.6998353" id="Fill-45" fill="#808489"></path>
            <path d="M11.4640386,29.8957014 C9.78819735,35.7729885 8.52069952,41.7940052 9.3628669,47.8993848 C9.74899639,50.6939864 10.670219,53.4498435 12.0638133,55.9338644 C13.4606743,58.4216347 15.5566192,60.2501241 16.3811461,63.0441008 C16.7208878,64.1945618 18.7214437,64.0077134 18.6149477,62.754767 C18.4320099,60.5963247 17.0266553,58.8909428 15.6892491,57.2199311 C13.7605617,54.8108995 12.4715033,52.3624985 11.6241092,49.4141689 C9.82086482,43.1406882 11.0511217,36.3791521 12.5159311,30.1731619 C12.6701215,29.519505 11.6495898,29.2445442 11.4640386,29.8957014" id="Fill-46" fill="#808489"></path>
            <path d="M14.4195245,105.993956 C11.1485591,97.4590225 15.9619982,88.8911285 18.5821956,80.9570951 C18.8467546,80.1565292 17.6107679,79.5911255 17.2989662,80.3764788 C14.102408,88.4246071 9.51691489,97.7518661 13.5041975,106.407867 C13.7539932,106.949184 14.6362503,106.558726 14.4195245,105.993956" id="Fill-47" fill="#808489"></path>
            <path d="M36.8145534,100.568106 C38.3322167,101.86858 39.2500849,103.033733 41.2980864,103.562944 C43.3006489,104.080719 45.5278099,103.702076 47.4797404,103.17223 C48.6403827,102.857753 48.1515887,101.122094 46.9831568,101.409888 C45.0325246,101.890815 43.1065593,102.319012 41.0942599,101.946087 C39.5493333,101.660199 38.5717452,100.495045 37.1430126,100.016024 C36.827536,99.9105628 36.5626914,100.352101 36.8145534,100.568106" id="Fill-48" fill="#808489"></path>
            <path d="M75.8062066,143.412015 C76.8138447,145.436508 79.370031,146.526425 81.2635252,147.428032 C84.3513487,148.898373 87.5053178,150.14046 90.5393595,151.740146 C97.0834435,155.190598 103.274545,159.297283 109.813684,162.75154 C110.734776,163.23785 111.479687,161.919678 110.621649,161.334458 C105.030803,157.521334 99.2056654,154.044886 93.2160914,150.932378 C90.5171049,149.529878 87.7767001,148.228826 84.9441861,147.138275 C82.1017812,146.044554 78.6733389,145.12456 76.3749349,142.961846 C76.0670798,142.672723 75.6188972,143.03476 75.8062066,143.412015" id="Fill-49" fill="#808489"></path>
            <path d="M52.3748864,180.933961 C56.1313182,179.564223 59.5027158,177.359038 62.9454855,175.373383 C67.1576978,172.943722 71.2935292,170.394093 75.2972595,167.640395 C78.4739487,165.455617 81.6212125,163.10882 84.4604489,160.506628 C87.3203456,157.885266 88.1561517,154.786505 89.0752254,151.165203 C89.2524037,150.467039 88.2006028,150.183816 87.9883644,150.868994 C86.8507916,154.542859 85.5304059,157.22606 82.6905434,159.911735 C79.720458,162.72047 76.3096179,165.156315 72.962011,167.496928 C69.5104762,169.91051 65.9199535,172.1293 62.3400739,174.350563 C59.0049885,176.419701 55.738145,178.7733 52.1181969,180.331647 C51.771979,180.480679 52.0217818,181.062586 52.3748864,180.933961" id="Fill-380" fill="#808489"></path>
            <path d="M19.332616,50.2303356 C19.5558521,49.835663 19.6180349,49.6898327 19.7734918,49.2616502 C20.0004588,48.6373725 19.0726921,48.3109609 18.7412581,48.8272622 C17.122641,51.3529184 16.7986688,54.6579909 16.4977043,57.5839047 C16.0966255,61.4859506 16.2091763,65.4779768 16.0549631,69.396157 C15.7266381,77.7401309 15.6134655,86.0530772 16.0369301,94.3964305 C16.423085,102.026146 17.6878822,109.387783 21.2310555,116.220707 C24.0473124,121.65304 27.4549274,126.755238 32.7305122,130.025559 C42.9912884,136.386241 55.9078901,135.25373 65.9112297,129.084178 C71.8204568,125.440283 75.7566252,118.791043 78.7053313,112.704025 C82.0283777,105.843176 84.2333782,98.567797 85.9415384,91.1627218 C86.7803838,87.523791 87.4046986,83.784951 87.1211453,80.0454904 C87.0129473,78.6138715 85.0423758,78.6324881 84.9080611,80.0454904 C84.2346218,87.1390473 82.3629209,94.2313631 79.979456,100.937694 C77.5306991,107.827709 74.3935792,114.51108 70.0631722,120.424963 C62.5968889,130.621912 48.1680027,133.464051 36.888673,128.401568 C31.1958418,125.846126 28.0406889,121.257747 24.9421223,116.058122 C20.9618042,109.378474 19.6472608,102.060277 19.1205729,94.3964305 C18.5945068,86.7363075 18.4850651,79.0643939 18.600725,71.3899982 C18.6566895,67.6654309 18.6971083,63.9526542 18.6274636,60.2280869 C18.5565753,56.4029898 19.05155,52.9930436 19.7734918,49.2616502 C19.4035044,49.2120059 19.0341388,49.161741 18.6641514,49.1120966 C18.712654,49.4242355 18.7095448,49.7357537 18.6542022,50.0466515 C18.6193799,50.4165019 19.163479,50.5294428 19.332616,50.2303356" id="Fill-433" fill="#323A45"></path>
            <path d="M85.5767374,72.4759452 C85.5167791,72.5475871 85.4568209,72.619229 85.3968626,72.6908709 C85.1252517,73.0154399 85.3884685,73.4646034 85.7871909,73.3879777 C86.4065598,73.2689899 86.9659704,72.8385155 87.3443071,72.3164641 C87.8899273,71.5632897 90.9088261,67.1756907 91.2080178,70.334164 C91.3603118,71.9408114 91.0437322,73.4340777 90.7583308,74.997117 C90.3901871,77.0174186 89.921913,79.0196539 89.3241291,80.979527 C89.022539,81.9688082 88.6543952,82.9256947 88.1693329,83.8333664 C87.7088534,84.6961841 87.8953236,84.6444773 87.4108608,84.283153 C86.1163618,83.3187907 84.8050745,85.3552895 85.7835934,86.4741491 C90.3967825,91.7476157 93.0835124,77.2192618 93.4510566,74.9809197 C93.8407853,72.6092614 94.5434962,68.4833111 92.1529601,67.0280461 C90.7151609,66.153392 89.0998852,67.006865 88.0566113,68.0945759 C87.0319245,69.1629747 85.5095842,71.3770208 85.2937344,72.8746479 C85.5563516,72.9120263 85.8189688,72.9487817 86.0821856,72.9855371 C86.0821856,72.8883534 86.081586,72.7911696 86.081586,72.6933628 C86.081586,72.4391898 85.7506164,72.2678722 85.5767374,72.4759452" id="Fill-434" fill="#323A45"></path>
            <path d="M30.8968204,30.377099 C27.2039652,27.1734733 20.7824867,33.8291409 18.7793331,36.5252429 C14.1816304,42.7123787 12.968841,51.7956072 14.4607985,59.2946322 C14.6860921,60.4285421 16.2729423,60.0876773 16.3323268,59.0348957 C16.51599,55.799196 16.2686569,52.5729299 16.5576203,49.3372302 C16.8784188,45.7499743 18.0275383,42.3193151 19.7343819,39.1898998 C21.8795683,35.2561191 26.1264743,31.0519106 30.660507,30.9632355 C30.9317164,30.9575754 31.1300727,30.5796054 30.8968204,30.377099" id="Fill-435" fill="#323A45"></path>
            <path d="M30.0509481,24.1872899 C30.6706441,28.8752117 30.5580281,33.1446027 32.2023455,37.6574569 C33.5728152,41.4204695 35.7482127,44.7436169 38.1937657,47.859695 C40.5925492,50.9161623 43.4719509,53.4819383 46.9667409,55.1384921 C48.7889056,56.0025356 50.6516859,56.793791 52.5556972,57.4482553 C54.8110952,58.2244511 57.3575718,57.978478 59.6960473,58.0939348 C60.7243611,58.1447608 60.7877461,56.6940213 59.9243563,56.3696128 C58.0640376,55.6705973 56.1267953,55.6185163 54.1821684,55.2966177 C52.1138484,54.9552673 50.1132211,53.8063468 48.2104406,52.9686576 C44.8233436,51.4765042 42.2473283,48.9634368 39.8479294,46.173022 C37.1352979,43.0192949 34.9057462,39.3962109 33.320506,35.5252713 C31.7980354,31.8074375 31.6940348,27.8549251 30.6207977,24.0272818 C30.5131047,23.6413801 30.0017171,23.8145652 30.0509481,24.1872899" id="Fill-436" fill="#323A45"></path>
            <path d="M51.980048,45.1756952 C54.4864416,51.0224798 58.4612522,55.6982802 63.5238474,59.4171406 C69.6194999,63.8951693 76.6104685,66.4073715 84.0767665,66.6658517 C85.491071,66.7146688 85.7456458,64.5554516 84.406361,64.1874459 C82.995131,63.7994127 81.6195662,63.7537249 80.1616027,63.6911389 C78.0561337,63.6003892 75.9525095,62.81869 73.9817069,62.1183526 C70.9471014,61.0406216 68.0373236,59.540435 65.2904982,57.8512388 C59.9942353,54.5936372 55.8023597,50.1650515 52.4479984,44.8971874 C52.2536852,44.5917677 51.8423071,44.8552548 51.980048,45.1756952" id="Fill-437" fill="#323A45"></path>
            <path d="M65.3051119,44.1708771 C67.2286249,48.9811926 70.266887,52.7358576 74.3273624,55.9083945 C76.4667925,57.5796859 78.7154149,59.0927228 80.7789655,60.8633111 C81.9591067,61.8761398 83.040543,63.015572 83.9221017,64.3014672 C84.8684355,65.6816945 85.245982,67.4963459 86.0615318,68.9740082 C86.7586356,70.2363204 88.7055909,69.0975088 87.9856616,67.8426439 C86.6290853,65.4775152 85.8419132,63.1465198 83.9140819,61.1506516 C82.1731731,59.3477918 80.0281909,57.9191572 77.9708094,56.5159675 C72.9368563,53.0827763 68.7221544,49.4410615 65.8319497,43.947459 C65.6814246,43.6607391 65.1817307,43.8630566 65.3051119,44.1708771" id="Fill-438" fill="#323A45"></path>
            <path d="M82.4614981,67.0386052 C83.1704305,68.1557482 83.8650095,69.3782607 84.9046938,70.2773002 C85.6279797,70.902719 86.7250775,69.9090736 86.0005436,69.2825218 C84.978957,68.3993443 83.9867013,67.440822 82.8265733,66.7066347 C82.5987913,66.5627431 82.3348138,66.8386298 82.4614981,67.0386052" id="Fill-439" fill="#323A45"></path>
            <path d="M82.4981833,52.8636472 C84.4367667,55.2422955 85.5063736,58.1595057 86.9443304,60.8277232 C88.4272233,63.5783235 88.6284866,66.071324 89.3588572,68.9873045 C89.5354373,69.6943207 90.6759294,69.7109202 90.842383,68.9873045 C91.4904762,66.1721506 90.0183426,63.2555552 88.6405117,60.8394043 C86.9886336,57.9424825 85.3196671,54.8383741 82.9051402,52.4689478 C82.6374221,52.2064296 82.2747684,52.5888331 82.4981833,52.8636472" id="Fill-440" fill="#323A45"></path>
            <path d="M33.7587557,8.37443486 C41.2686967,5.5637809 48.904614,2.95553389 56.9727178,2.49529164 C64.8156855,2.048128 73.0715066,3.77512631 80.1611104,7.11016995 C86.8684194,10.2652271 91.9611098,16.1817378 96.5311851,21.8541145 C105.478006,32.9584708 110.8108,47.5348847 112.311915,61.6248991 C113.788708,75.4888405 112.510858,90.9552222 102.993401,101.899521 C99.1274219,106.345001 94.4600579,108.504216 88.6788627,109.191154 C87.6479764,109.313221 87.2058117,110.925625 88.4119424,111.159795 C100.98651,113.596151 110.181541,98.9337925 113.271705,88.8265239 C117.210028,75.9447232 116.098691,61.2294271 112.572599,48.3955813 C108.846316,34.8336933 101.75983,23.1507645 92.1425906,12.9824625 C82.358214,2.63666511 66.8587487,-1.58025001 52.912161,0.527896153 C45.1072356,1.70808433 37.8305382,4.6171392 30.5544644,7.55546523 C24.1184413,10.1549932 17.7853197,13.1263271 12.9932265,18.2792965 C12.7219406,18.5707625 13.1341704,18.9786903 13.4285311,18.7140043 C19.1735549,13.5529387 26.647948,11.0343735 33.7587557,8.37443486 Z" id="Fill-441" fill="#323A45"></path>
            <path d="M11.3103483,21.1188406 C11.5271537,20.8598654 11.5688713,20.784981 11.6914959,20.4692185 C11.8463569,20.0698351 11.1921483,19.8058677 10.9968339,20.1802896 C7.37308739,27.114584 6.06972697,35.6021055 6.09501039,43.3345427 C6.1076521,47.3951487 7.01406279,51.1643296 8.33196118,54.9909219 C9.73771946,59.0727452 11.6959205,63.1951308 12.7066253,67.3767999 C13.6914146,71.4517587 11.5808809,75.5429425 9.62078363,78.9676552 C7.73780076,82.256952 5.82574195,85.430178 4.90605746,89.1332111 C3.33153234,95.4721746 4.95915265,102.435175 10.3394649,106.462707 C11.3836703,107.244001 12.5719911,105.58968 11.7028735,104.718525 C6.38450558,99.3873801 6.13546387,91.8203126 9.37300609,85.3322043 C12.4980371,79.0681251 16.7759921,74.0196692 15.5453216,66.6042426 C15.2969119,65.1059308 14.5896082,63.6737668 13.9935515,62.2865335 C13.1079996,60.2284609 12.4247152,58.1086087 11.6453537,56.0105977 C10.1953494,52.1103691 8.88819647,48.3418122 8.56772909,44.1682556 C7.94765316,36.0838617 9.75415368,28.2515787 11.6914959,20.4692185 C11.4424542,20.4361446 11.1940446,20.4024466 10.9450029,20.3693727 C10.9070777,20.5272539 10.8685205,20.6851352 10.8305954,20.8430164 C10.7237729,21.1038637 11.1314681,21.3322611 11.3103483,21.1188406" id="Fill-442" fill="#323A45"></path>
            <path d="M10.3414763,93.5330716 C9.33472658,97.6584271 8.23388811,102.440474 10.129463,106.486098 C11.6035202,109.632066 14.9248533,113.845943 18.8188734,113.282167 C19.8444408,113.133376 19.7127166,111.80053 19.0741675,111.330298 C18.0686723,110.58948 16.8731179,110.179518 15.8249691,109.48453 C14.2725046,108.454918 13.1384214,106.845206 12.2376784,105.252446 C10.2254335,101.695261 11.3036907,97.4606662 10.8846821,93.6065256 C10.8526919,93.313965 10.4205108,93.2078647 10.3414763,93.5330716" id="Fill-443" fill="#323A45"></path>
            <path d="M14.822939,105.27013 C15.5742665,108.442104 17.7336637,110.755919 20.5361211,112.291916 C21.2630586,112.690645 21.8555544,111.647405 21.1791812,111.191545 C18.771721,109.568661 16.5385593,107.930898 15.614718,105.051722 C15.4535068,104.547658 14.7003947,104.752973 14.822939,105.27013" id="Fill-444" fill="#323A45"></path>
            <path d="M55.540541,70.7751017 C55.136896,71.6034409 55.202248,72.9041541 55.1083387,73.8170427 C54.9814789,75.0472981 54.8189225,76.2855182 54.8095865,77.526189 C54.7942095,79.555375 57.6142334,79.5541497 57.6296103,77.526189 C57.6405939,76.0435108 58.0305095,70.6501156 56.005694,70.4773407 C55.8250147,70.4620238 55.6251143,70.6017141 55.540541,70.7751017" id="Fill-445" fill="#323A45"></path>
            <path d="M80.1583389,108.471247 C79.8259768,108.055105 79.5785655,107.995745 79.4154849,108.294402 C79.1414103,108.828028 79.028556,109.100097 78.8369518,109.672059 C78.530633,110.588437 78.6050424,111.69217 78.7129361,112.625861 C78.9454655,114.640407 79.8836441,116.458321 81.3705922,117.824849 C84.4474213,120.652509 89.3993675,120.311805 93.0634109,119.11161 C94.2272981,118.730096 94.0989419,116.712458 92.7589524,116.870134 C90.082694,117.184869 87.2495557,117.574422 84.6210432,116.821286 C80.8906515,115.752179 80.1105928,111.44298 80.7139291,108.185574 C80.7858582,107.797876 80.2928959,107.39843 79.9834767,107.762013 C79.8693823,107.895574 79.8309375,108.002546 79.7689296,108.172589 C79.685219,108.399519 79.9692149,108.579456 80.1583389,108.471247" id="Fill-446" fill="#323A45"></path>
            <path d="M97.7736596,111.402714 C96.814345,112.811272 94.8101602,113.137204 93.3120276,112.713429 C91.489876,112.196894 92.06146,111.222276 91.9249351,109.637728 C91.8399863,108.656121 90.8721769,108.243148 90.1495053,108.867691 C87.7569833,110.93383 89.8679608,114.317038 92.2010187,115.034976 C94.7167166,115.809461 97.5018234,114.28527 98.5661105,111.887482 C98.8161026,111.323931 98.118309,110.89698 97.7736596,111.402714" id="Fill-447" fill="#323A45"></path>
            <path d="M99.0994052,112.512921 C97.2327857,115.871734 93.3851645,116.651109 90.1173635,115.825769 C89.0739304,115.562824 88.6669003,117.226345 89.6774789,117.598796 C93.5415273,119.020326 98.3443613,117.386546 99.5605843,112.729226 C99.6415036,112.417612 99.2478586,112.24592 99.0994052,112.512921" id="Fill-448" fill="#323A45"></path>
            <path d="M39.6602908,133.852563 C41.2480955,135.213754 41.3345225,138.176384 41.5120483,140.143251 C41.7053412,142.285247 41.4775943,144.680766 42.0744079,146.752584 C42.4434747,148.034746 44.4628306,147.86847 44.3267664,146.42256 C44.0476305,143.464988 43.9436844,133.229184 39.8588394,133.334135 C39.6375161,133.339825 39.4564865,133.678068 39.6602908,133.852563" id="Fill-449" fill="#323A45"></path>
            <path d="M71.6335736,120.493483 C71.6740437,122.911229 71.2331656,125.343427 71.0902942,127.75866 C70.9339327,130.402599 71.0044487,133.059104 71.1221796,135.702415 C71.2619852,138.828898 71.2061856,144.616913 74.0691334,146.493682 C74.8374508,146.997589 75.6781236,146.319011 75.7474132,145.506603 C75.8945769,143.786912 74.8815999,142.027637 74.4879369,140.349414 C73.9035742,137.858783 73.7073559,135.262596 73.5050058,132.716046 C73.3216643,130.408254 73.2394979,128.086639 73.1738874,125.772564 C73.1205405,123.876317 73.3014293,122.000176 72.5275933,120.2453 C72.3258564,119.786631 71.6262154,120.029788 71.6335736,120.493483" id="Fill-450" fill="#323A45"></path>
            <path d="M53.8612434,152.560352 C53.7958425,154.015398 54.5102699,155.357349 56.1839111,155.22966 C57.7691054,155.108659 59.1512453,154.119982 60.2275579,153.04861 C61.1263537,152.154179 59.7815858,150.875465 58.8329607,151.687202 C58.1434479,152.27822 57.3530308,152.801745 56.5582537,153.24744 C55.5616679,153.806232 55.1455933,153.481537 54.9462762,152.416854 C54.8298002,151.793002 53.8867809,151.977847 53.8612434,152.560352" id="Fill-451" fill="#323A45"></path>
            <path d="M0.946188507,191.34803 C2.19983567,189.928067 2.58384694,187.922246 3.14801933,186.159085 C3.98274512,183.552511 4.72271487,180.911182 5.66341779,178.339983 C7.48123735,173.371356 10.7453331,169.920128 14.7774514,166.625294 C19.7577533,162.555314 24.9419054,158.728615 30.2208135,155.052104 C32.6177669,153.382655 35.0733195,151.801334 37.4858578,150.155468 C39.9252021,148.490985 42.1077077,146.577014 44.7153686,145.156431 C45.9016891,144.509753 45.0650931,142.407116 43.778406,142.943946 C41.2112658,144.013883 39.0530726,145.633683 36.8076041,147.243553 C34.1974496,149.115321 31.4364336,150.791597 28.7845116,152.606269 C23.5417604,156.194653 18.4579749,160.002733 13.5194405,163.994516 C9.61761171,167.14847 6.26374709,170.301805 4.24457098,174.960125 C2.04772731,180.028671 1.51410127,185.722794 0.527890522,191.10537 C0.486746458,191.330032 0.766027378,191.552211 0.946188507,191.34803" id="Fill-452" fill="#323A45"></path>
            <path d="M73.3509787,140.285407 C79.5439915,141.643607 84.7906844,144.782556 90.1494085,148.056068 C95.5894961,151.378626 101.316233,154.118918 106.912789,157.152859 C112.655799,160.266028 118.117793,164.109857 122.742994,168.750372 C127.228625,173.251293 127.373202,178.80419 128.190592,184.74191 C128.416532,186.383068 130.638381,185.729749 130.814251,184.384754 C131.507092,179.089035 130.284137,172.555216 126.767982,168.391958 C122.242921,163.033359 116.145667,158.805335 110.079081,155.404177 C103.983704,151.986671 97.5440973,149.253924 91.4806402,145.767879 C86.1081469,142.679234 79.9483054,138.801449 73.5162092,139.059884 C72.8383888,139.086922 72.6418647,140.130095 73.3509787,140.285407" id="Fill-453" fill="#323A45"></path>
            <path d="M38.050148,148.948926 C38.0526052,148.942149 38.0550623,148.935372 38.0575195,148.928595 C38.1410636,148.688943 37.8455878,148.485638 37.641642,148.608237 C36.0500043,149.566232 36.9646892,154.887266 37.0801766,156.139129 C37.4340104,159.984048 38.1490494,163.883182 39.0434626,167.641235 C39.7984308,170.810321 42.3551255,180.990333 47.4476288,178.720715 C48.3733709,178.307945 48.3758281,176.680277 47.4476288,176.268739 C43.5228997,174.527097 42.4282265,169.509789 41.4232403,165.621744 C40.5896424,162.393515 39.8918036,159.117232 39.2744374,155.841565 C38.9427182,154.079592 38.8309166,152.292361 38.5557125,150.52546 C38.4881401,150.090512 38.4205677,149.655563 38.3431666,149.221847 C38.1859071,148.344557 38.050148,149.130052 37.8050444,149.136212 C37.9248319,149.133132 38.0120617,149.059203 38.050148,148.948926" id="Fill-454" fill="#323A45"></path>
            <path d="M86.9110251,146.155975 C85.4637948,150.177275 81.5810734,153.017637 78.4436287,155.715763 C74.4836799,159.120081 70.6197945,162.567443 66.3647488,165.616794 C62.8091455,168.165197 59.0300221,170.255075 55.2465035,172.434786 C52.593771,173.962581 49.7903508,175.763619 46.6541618,175.863434 C45.1598415,175.910846 44.83963,177.675701 45.9402785,178.481708 C48.3531663,180.249058 52.7312736,177.418053 54.8352515,176.24585 C59.0337892,173.907059 63.180842,171.43414 67.0780042,168.626842 C71.7562314,165.256212 75.9409561,161.328489 80.0999383,157.361464 C83.2819615,154.326462 87.2651414,151.015098 88.1284567,146.489108 C88.2804002,145.693707 87.1860303,145.39239 86.9110251,146.155975" id="Fill-455" fill="#323A45"></path>
            <path d="M29.6076894,72.3965345 C29.7564868,74.2932061 27.8603182,79.3105003 30.5432314,79.9664191 C31.2712552,80.1441311 31.9143334,79.5987169 31.9508201,78.7508691 C31.9736243,78.2209643 31.7398813,77.8325828 31.6851513,77.3298194 C31.6173088,76.7062119 31.6720389,76.0535242 31.6800203,75.4266855 C31.6954131,74.1827016 31.6543656,73.0595618 31.2056931,71.9060494 C30.8642004,71.0291215 29.5341459,71.4588614 29.6076894,72.3965345" id="Fill-626" fill="#323A45"></path>
            <path d="M33.8747783,94.7293905 C34.9374001,97.6580998 35.4285761,100.072366 38.3036435,101.73939 C41.2016453,103.419734 45.3495655,102.897679 48.4412345,102.162489 C49.4981228,101.911294 49.1693981,100.473264 48.1997875,100.38636 C45.3897005,100.135799 42.6050961,100.811997 39.824314,100.140874 C36.7077995,99.3879222 36.1917781,96.5556313 34.4557802,94.3925603 C34.2391786,94.1223351 33.7594698,94.412859 33.8747783,94.7293905" id="Fill-627" fill="#323A45"></path>
            <path d="M24.5014693,63.4869152 C26.0860774,64.3565766 27.7800805,65.0253567 29.3892863,65.8548418 C31.0463929,66.7096689 32.6659556,68.0367215 34.4706482,68.5361432 C35.403418,68.7945075 36.2326185,67.5706769 35.4513187,66.928475 C34.0201224,65.7522379 31.9823991,65.1514483 30.256678,64.4387834 C28.4649316,63.6989222 26.6466455,62.9627696 24.6794788,62.8576933 C24.3221652,62.8385323 24.2056499,63.324974 24.5014693,63.4869152" id="Fill-1004" fill="#323A45" transform="translate(30.047619, 65.714286) rotate(-15.000000) translate(-30.047619, -65.714286) "></path>
            <path d="M50.2796008,65.8397629 C49.4455043,67.1556234 51.0197058,68.3666712 52.4762625,68.5176448 C54.2795294,68.7044612 56.1213888,68.3514652 57.9259006,68.2651169 C59.9781516,68.1679073 62.1001181,68.480173 63.9718556,67.6601361 C64.5868461,67.3902299 64.3422193,66.6674027 63.7969443,66.4925339 C61.4894847,65.7534146 58.418889,66.2649873 56.0037438,66.4599497 C55.0084301,66.5403242 54.0268106,66.6744626 53.0283846,66.7336574 C51.9963457,66.7950244 51.4566728,66.1737514 50.6773528,65.7490701 C50.5453912,65.6768416 50.354296,65.7219165 50.2796008,65.8397629" id="Fill-1005" fill="#323A45" transform="translate(57.190476, 67.142857) rotate(-345.000000) translate(-57.190476, -67.142857) "></path>
            <path d="M35.0993407,115.63901 C38.384392,116.199358 41.7684466,116.075506 45.0831988,116.36137 C48.6980547,116.673344 52.3023914,118.531799 55.9290039,118.000238 C57.2383217,117.808769 56.7488745,115.825793 55.6406569,115.694576 C48.7054799,114.874473 42.1131016,113.548917 35.0993407,114.798153 C34.7138469,114.867108 34.7119906,115.572732 35.0993407,115.63901" id="Fill-1028" fill="#323A45"></path>
            <path d="M39.6589508,119.552547 C40.6251019,120.370218 41.7400285,120.702089 42.9260827,121.050584 C44.3385601,121.464961 45.9833879,121.91505 47.4569165,121.904583 C48.3134125,121.899041 48.3578673,120.748883 47.6459976,120.450877 C46.4634998,119.955225 45.0741389,119.886881 43.8222916,119.644904 C42.5170985,119.39246 41.1911598,119.074135 39.8604793,119.047659 C39.6281288,119.043349 39.4615715,119.385688 39.6589508,119.552547" id="Fill-1029" fill="#323A45"></path>
        </g>
    </g>
</svg>