<?xml version="1.0" encoding="UTF-8"?>
<svg width="300px" height="300px" viewBox="0 0 300 300" version="1.1" xmlns="http://www.w3.org/2000/svg" xmlns:xlink="http://www.w3.org/1999/xlink">
    <!-- Generator: Sketch 50.2 (55047) - http://www.bohemiancoding.com/sketch -->
    <title>Artboard Copy 3</title>
    <desc>Created with Sketch.</desc>
    <defs></defs>
    <g id="Artboard-Copy-3" stroke="none" stroke-width="1" fill="none" fill-rule="evenodd">
        <g id="Group" transform="translate(50.000000, 51.000000)">
            <path d="M52.4348988,195.802272 C53.945619,188.604327 56.4982152,181.527556 57.1397299,174.145352 C57.2111394,173.325871 56.0393215,173.021064 55.6992485,173.729366 C54.1323372,176.996673 54.0211257,180.992894 53.2906419,184.546895 C52.5314772,188.242056 51.6845139,191.872259 51.4298982,195.656739 C51.3889255,196.273848 52.3096395,196.399394 52.4348988,195.802272" id="Fill-28" fill="#808489"></path>
            <path d="M46.0264424,176.098353 C50.3565319,176.488676 53.8383346,175.624474 57.6856021,173.77551 C58.6155286,173.328488 57.7972188,172.033975 56.8692058,172.46906 C53.4492707,174.070342 49.9062383,175.431699 46.0264424,175.493769 C45.602299,175.500334 45.6182443,176.061349 46.0264424,176.098353" id="Fill-29" fill="#808489"></path>
            <path d="M53.6552389,152.093817 C56.5077181,158.302298 52.1396915,164.910183 52.3914993,171.274395 C52.4512617,172.787125 55.1251252,172.712007 54.9223359,171.274395 C53.9970261,164.712313 58.3455796,157.987171 54.7276046,151.682198 C54.4240922,151.152712 53.3967162,151.531352 53.6552389,152.093817" id="Fill-30" fill="#808489"></path>
            <path d="M116.495671,134.419173 C116.407099,134.559637 116.317576,134.69935 116.229004,134.839815 C116.037576,135.141776 116.611861,135.40693 116.80329,135.104969 C116.891861,134.964505 116.981385,134.824041 117.069957,134.684328 C117.261385,134.382367 116.688052,134.116461 116.495671,134.419173" id="Fill-31" fill="#808489"></path>
            <path d="M115.272353,135.238553 C115.221792,135.185048 115.171231,135.130936 115.12067,135.077432 C114.978236,134.879223 114.727897,134.836662 114.539219,135.003255 C114.496674,135.040952 114.454128,135.07804 114.411583,135.115736 C114.235237,135.271385 114.252501,135.561402 114.411583,135.720091 C117.075282,138.370986 123.263449,136.714177 126.272442,135.581467 C131.245296,133.708816 136.179921,130.598879 138.925627,125.97319 C139.417055,125.146306 138.310263,124.369886 137.621524,124.980929 C135.782832,126.614026 134.200645,128.46114 132.224452,129.954396 C130.412273,131.323619 128.294879,132.319529 126.241612,133.280782 C124.211158,134.231091 122.136926,134.737558 119.937525,135.10236 C118.923223,135.270777 117.921253,135.386905 116.893386,135.392986 C116.361879,135.375353 115.838389,135.299961 115.322297,135.167416 C114.718649,135.481754 114.611361,135.659899 114.999817,135.700027 C115.266187,135.763868 115.478913,135.436762 115.272353,135.238553" id="Fill-32" fill="#808489"></path>
            <path d="M134.311164,141.661767 C137.398496,136.93603 140.825415,131.132082 139.821858,125.239974 C139.690711,124.46937 138.557275,124.705308 138.521795,125.415659 C138.228458,131.318549 136.413312,136.070924 133.412145,141.13598 C133.066855,141.718214 133.946235,142.220534 134.311164,141.661767" id="Fill-33" fill="#808489"></path>
            <path d="M135.174378,133.108499 C136.877301,130.390665 137.983135,127.472375 139.021949,124.464328 C139.211433,123.916214 138.297521,123.529661 138.06295,124.067603 C136.817593,126.925457 135.890276,129.908372 134.351248,132.636378 C134.052704,133.165345 134.852681,133.622505 135.174378,133.108499" id="Fill-34" fill="#808489"></path>
            <path d="M132.87768,126.580718 C136.98624,122.50196 140.594942,118.465226 143.438274,113.355959 C146.269142,108.268017 148.236165,102.70214 149.685878,97.0710335 C152.47374,86.2428502 153.494648,73.6352671 150.827699,62.6822686 C150.539127,61.4968385 148.562132,61.7245163 148.681176,62.9745493 C149.737609,74.0843507 150.013715,84.6792113 147.547457,95.6598071 C145.146642,106.351258 140.176731,118.203051 132.465702,126.166131 C132.203308,126.437087 132.609676,126.846029 132.87768,126.580718" id="Fill-35" fill="#808489"></path>
            <path d="M160.622932,78.7293153 C161.065735,81.0033711 160.067207,83.632034 159.147343,85.6836883 C158.080935,88.0627671 156.775362,89.826535 154.093166,90.2237689 C152.964587,90.3911879 153.202483,91.9195808 154.093166,92.2192051 C156.967582,93.1866518 159.182234,89.5831289 160.143334,87.5432124 C161.369608,84.941732 162.423962,81.3233823 161.628438,78.4593445 C161.450809,77.81994 160.49986,78.0942353 160.622932,78.7293153" id="Fill-36" fill="#808489"></path>
            <path d="M167.867103,55.7409727 C169.70571,59.7335684 169.191149,64.9772193 168.968401,69.2675361 C168.721387,74.0298191 167.811727,78.7450935 166.417372,83.2961512 C164.184288,90.5856156 158.965256,98.009838 151.045245,99.3831155 C150.129363,99.5416911 150.406865,100.903686 151.254927,100.9438 C154.973829,101.12118 158.272123,98.516904 160.814441,96.0542809 C163.894964,93.070176 165.958187,89.4279509 167.370586,85.4046429 C169.184927,80.2368325 170.039833,74.7249193 170.333512,69.2675361 C170.574305,64.800467 170.797053,59.3719157 168.440151,55.4037644 C168.216781,55.0283226 167.690397,55.3561291 167.867103,55.7409727" id="Fill-37" fill="#808489"></path>
            <path d="M172.168741,67.9446691 C173.07563,74.8575887 171.724997,81.7078968 168.477971,87.8582101 C166.873234,90.8979913 164.712723,93.6021756 162.247411,95.9826593 C159.389052,98.7413155 156.022484,99.8232397 152.173995,100.326009 C151.419819,100.424309 151.053683,101.680292 151.973716,101.804889 C159.530499,102.826706 165.462518,95.8060953 168.883536,89.9657082 C172.758313,83.3501926 174.199697,75.3854024 172.823403,67.8563871 C172.756435,67.4882324 172.119923,67.5721316 172.168741,67.9446691" id="Fill-38" fill="#808489"></path>
            <path d="M169.868177,86.8927488 C168.364353,92.9576502 166.428573,99.0386061 161.866501,103.534487 C157.972109,107.372751 152.662753,109.343752 149.637827,114.079216 C149.17008,114.812166 150.254907,115.653176 150.84175,115.007908 C154.794764,110.657752 160.327503,108.110024 164.120694,103.61476 C168.01632,98.9990873 169.509036,92.8687329 170.471064,87.0588512 C170.535857,86.6692205 169.96691,86.4938559 169.868177,86.8927488" id="Fill-39" fill="#808489"></path>
            <path d="M138.266424,30.1522234 C145.263623,34.1076544 150.562091,40.1759282 155.080626,46.6439795 C159.436834,52.8785159 161.832432,60.1479903 160.326464,67.6889647 C160.207889,68.2830266 161.004308,68.9213006 161.475438,68.3459199 C163.547649,65.8164866 162.803226,62.2876095 162.325755,59.3085821 C161.62445,54.9346924 159.782414,51.056477 157.340528,47.3650735 C152.647617,40.2712023 146.366308,33.4313953 138.615808,29.5650113 C138.220135,29.3676134 137.877092,29.9317854 138.266424,30.1522234" id="Fill-40" fill="#808489"></path>
            <path d="M105.727143,30.8937291 C107.404139,37.4720492 110.519697,43.3807125 114.665418,48.6906678 C117.790757,52.6930497 122.25806,58.0154521 127.875356,57.021547 C128.792415,56.8591117 128.814425,55.262142 127.875356,55.1214892 C125.20121,54.7200685 123.105423,54.2856629 120.938717,52.5318591 C118.875333,50.8614512 117.046104,48.8300759 115.328146,46.8049242 C111.354832,42.1210607 108.343208,36.554694 106.370919,30.7132453 C106.232137,30.3024893 105.618319,30.4661694 105.727143,30.8937291" id="Fill-41" fill="#808489"></path>
            <path d="M131.611332,51.5626913 C137.29167,57.515338 144.79522,63.8635721 153.412403,64.7568337 C154.436797,64.8631743 154.615276,63.2644184 153.651614,63.0243923 C145.297191,60.9407229 138.621586,56.5825785 132.526656,50.6651761 C131.931726,50.0866828 131.041811,50.9659682 131.611332,51.5626913" id="Fill-42" fill="#808489"></path>
            <path d="M86.1406654,45.8875717 C85.6981515,42.5810754 90.2850954,39.5562069 92.5681481,37.964236 C93.6597231,37.2035314 94.7617173,36.4589198 95.8514536,35.6932635 C97.296059,34.6775465 98.675697,34.34145 100.230624,33.6921586 C101.069685,33.341826 101.21249,32.3824345 100.472107,31.8272253 C97.9806683,29.9591973 92.8047275,35.1807628 90.9102535,36.6600825 C88.233719,38.750937 83.788355,42.2604529 84.9522522,46.2187165 C85.1857671,47.0116071 86.2436326,46.6581796 86.1406654,45.8875717" id="Fill-43" fill="#808489"></path>
            <path d="M96.3094049,31.704647 C95.4313451,37.8257441 99.5894351,43.9886612 103.053375,48.7106328 C106.830023,53.8606445 112.104574,55.9411902 118.414468,55.0303749 C119.467149,54.8784699 119.079514,53.4184594 118.182259,53.3243644 C115.590186,53.0525343 112.988207,52.9867292 110.493972,52.172469 C107.667833,51.2499686 105.54699,48.6282228 103.877562,46.327507 C100.621682,41.8398505 98.0320864,37.1879889 97.05557,31.704647 C96.9911707,31.3424119 96.3632774,31.3307269 96.3094049,31.704647" id="Fill-44" fill="#808489"></path>
            <path d="M89.8100701,27.6998353 C85.457497,30.5031102 82.7464871,34.9429937 82.1238897,40.133147 C81.4925671,45.3944846 82.1450792,52.2369952 85.1377848,56.7493229 C85.6600437,57.5367597 86.880933,57.0504387 86.6565735,56.1023648 C85.5335299,51.343097 83.7729315,47.2005496 83.7966139,42.1811126 C83.8215427,36.7893755 86.0264974,31.813405 90.2774855,28.5080604 C90.7349295,28.1521389 90.3279664,27.3659621 89.8100701,27.6998353" id="Fill-45" fill="#808489"></path>
            <path d="M80.4640386,29.8957014 C78.7881974,35.7729885 77.5206995,41.7940052 78.3628669,47.8993848 C78.7489964,50.6939864 79.670219,53.4498435 81.0638133,55.9338644 C82.4606743,58.4216347 84.5566192,60.2501241 85.3811461,63.0441008 C85.7208878,64.1945618 87.7214437,64.0077134 87.6149477,62.754767 C87.4320099,60.5963247 86.0266553,58.8909428 84.6892491,57.2199311 C82.7605617,54.8108995 81.4715033,52.3624985 80.6241092,49.4141689 C78.8208648,43.1406882 80.0511217,36.3791521 81.5159311,30.1731619 C81.6701215,29.519505 80.6495898,29.2445442 80.4640386,29.8957014" id="Fill-46" fill="#808489"></path>
            <path d="M83.4195245,105.993956 C80.1485591,97.4590225 84.9619982,88.8911285 87.5821956,80.9570951 C87.8467546,80.1565292 86.6107679,79.5911255 86.2989662,80.3764788 C83.102408,88.4246071 78.5169149,97.7518661 82.5041975,106.407867 C82.7539932,106.949184 83.6362503,106.558726 83.4195245,105.993956" id="Fill-47" fill="#808489"></path>
            <path d="M105.814553,100.568106 C107.332217,101.86858 108.250085,103.033733 110.298086,103.562944 C112.300649,104.080719 114.52781,103.702076 116.47974,103.17223 C117.640383,102.857753 117.151589,101.122094 115.983157,101.409888 C114.032525,101.890815 112.106559,102.319012 110.09426,101.946087 C108.549333,101.660199 107.571745,100.495045 106.143013,100.016024 C105.827536,99.9105628 105.562691,100.352101 105.814553,100.568106" id="Fill-48" fill="#808489"></path>
            <path d="M144.806207,143.412015 C145.813845,145.436508 148.370031,146.526425 150.263525,147.428032 C153.351349,148.898373 156.505318,150.14046 159.539359,151.740146 C166.083444,155.190598 172.274545,159.297283 178.813684,162.75154 C179.734776,163.23785 180.479687,161.919678 179.621649,161.334458 C174.030803,157.521334 168.205665,154.044886 162.216091,150.932378 C159.517105,149.529878 156.7767,148.228826 153.944186,147.138275 C151.101781,146.044554 147.673339,145.12456 145.374935,142.961846 C145.06708,142.672723 144.618897,143.03476 144.806207,143.412015" id="Fill-49" fill="#808489"></path>
            <path d="M121.374886,180.933961 C125.131318,179.564223 128.502716,177.359038 131.945486,175.373383 C136.157698,172.943722 140.293529,170.394093 144.297259,167.640395 C147.473949,165.455617 150.621212,163.10882 153.460449,160.506628 C156.320346,157.885266 157.156152,154.786505 158.075225,151.165203 C158.252404,150.467039 157.200603,150.183816 156.988364,150.868994 C155.850792,154.542859 154.530406,157.22606 151.690543,159.911735 C148.720458,162.72047 145.309618,165.156315 141.962011,167.496928 C138.510476,169.91051 134.919953,172.1293 131.340074,174.350563 C128.004989,176.419701 124.738145,178.7733 121.118197,180.331647 C120.771979,180.480679 121.021782,181.062586 121.374886,180.933961" id="Fill-380" fill="#808489"></path>
            <path d="M88.332616,50.2303356 C88.5558521,49.835663 88.6180349,49.6898327 88.7734918,49.2616502 C89.0004588,48.6373725 88.0726921,48.3109609 87.7412581,48.8272622 C86.122641,51.3529184 85.7986688,54.6579909 85.4977043,57.5839047 C85.0966255,61.4859506 85.2091763,65.4779768 85.0549631,69.396157 C84.7266381,77.7401309 84.6134655,86.0530772 85.0369301,94.3964305 C85.423085,102.026146 86.6878822,109.387783 90.2310555,116.220707 C93.0473124,121.65304 96.4549274,126.755238 101.730512,130.025559 C111.991288,136.386241 124.90789,135.25373 134.91123,129.084178 C140.820457,125.440283 144.756625,118.791043 147.705331,112.704025 C151.028378,105.843176 153.233378,98.567797 154.941538,91.1627218 C155.780384,87.523791 156.404699,83.784951 156.121145,80.0454904 C156.012947,78.6138715 154.042376,78.6324881 153.908061,80.0454904 C153.234622,87.1390473 151.362921,94.2313631 148.979456,100.937694 C146.530699,107.827709 143.393579,114.51108 139.063172,120.424963 C131.596889,130.621912 117.168003,133.464051 105.888673,128.401568 C100.195842,125.846126 97.0406889,121.257747 93.9421223,116.058122 C89.9618042,109.378474 88.6472608,102.060277 88.1205729,94.3964305 C87.5945068,86.7363075 87.4850651,79.0643939 87.600725,71.3899982 C87.6566895,67.6654309 87.6971083,63.9526542 87.6274636,60.2280869 C87.5565753,56.4029898 88.05155,52.9930436 88.7734918,49.2616502 C88.4035044,49.2120059 88.0341388,49.161741 87.6641514,49.1120966 C87.712654,49.4242355 87.7095448,49.7357537 87.6542022,50.0466515 C87.6193799,50.4165019 88.163479,50.5294428 88.332616,50.2303356" id="Fill-433" fill="#323A45"></path>
            <path d="M154.576737,72.4759452 C154.516779,72.5475871 154.456821,72.619229 154.396863,72.6908709 C154.125252,73.0154399 154.388468,73.4646034 154.787191,73.3879777 C155.40656,73.2689899 155.96597,72.8385155 156.344307,72.3164641 C156.889927,71.5632897 159.908826,67.1756907 160.208018,70.334164 C160.360312,71.9408114 160.043732,73.4340777 159.758331,74.997117 C159.390187,77.0174186 158.921913,79.0196539 158.324129,80.979527 C158.022539,81.9688082 157.654395,82.9256947 157.169333,83.8333664 C156.708853,84.6961841 156.895324,84.6444773 156.410861,84.283153 C155.116362,83.3187907 153.805075,85.3552895 154.783593,86.4741491 C159.396782,91.7476157 162.083512,77.2192618 162.451057,74.9809197 C162.840785,72.6092614 163.543496,68.4833111 161.15296,67.0280461 C159.715161,66.153392 158.099885,67.006865 157.056611,68.0945759 C156.031925,69.1629747 154.509584,71.3770208 154.293734,72.8746479 C154.556352,72.9120263 154.818969,72.9487817 155.082186,72.9855371 C155.082186,72.8883534 155.081586,72.7911696 155.081586,72.6933628 C155.081586,72.4391898 154.750616,72.2678722 154.576737,72.4759452" id="Fill-434" fill="#323A45"></path>
            <path d="M99.8968204,30.377099 C96.2039652,27.1734733 89.7824867,33.8291409 87.7793331,36.5252429 C83.1816304,42.7123787 81.968841,51.7956072 83.4607985,59.2946322 C83.6860921,60.4285421 85.2729423,60.0876773 85.3323268,59.0348957 C85.51599,55.799196 85.2686569,52.5729299 85.5576203,49.3372302 C85.8784188,45.7499743 87.0275383,42.3193151 88.7343819,39.1898998 C90.8795683,35.2561191 95.1264743,31.0519106 99.660507,30.9632355 C99.9317164,30.9575754 100.130073,30.5796054 99.8968204,30.377099" id="Fill-435" fill="#323A45"></path>
            <path d="M99.0509481,24.1872899 C99.6706441,28.8752117 99.5580281,33.1446027 101.202346,37.6574569 C102.572815,41.4204695 104.748213,44.7436169 107.193766,47.859695 C109.592549,50.9161623 112.471951,53.4819383 115.966741,55.1384921 C117.788906,56.0025356 119.651686,56.793791 121.555697,57.4482553 C123.811095,58.2244511 126.357572,57.978478 128.696047,58.0939348 C129.724361,58.1447608 129.787746,56.6940213 128.924356,56.3696128 C127.064038,55.6705973 125.126795,55.6185163 123.182168,55.2966177 C121.113848,54.9552673 119.113221,53.8063468 117.210441,52.9686576 C113.823344,51.4765042 111.247328,48.9634368 108.847929,46.173022 C106.135298,43.0192949 103.905746,39.3962109 102.320506,35.5252713 C100.798035,31.8074375 100.694035,27.8549251 99.6207977,24.0272818 C99.5131047,23.6413801 99.0017171,23.8145652 99.0509481,24.1872899" id="Fill-436" fill="#323A45"></path>
            <path d="M120.980048,45.1756952 C123.486442,51.0224798 127.461252,55.6982802 132.523847,59.4171406 C138.6195,63.8951693 145.610469,66.4073715 153.076767,66.6658517 C154.491071,66.7146688 154.745646,64.5554516 153.406361,64.1874459 C151.995131,63.7994127 150.619566,63.7537249 149.161603,63.6911389 C147.056134,63.6003892 144.952509,62.81869 142.981707,62.1183526 C139.947101,61.0406216 137.037324,59.540435 134.290498,57.8512388 C128.994235,54.5936372 124.80236,50.1650515 121.447998,44.8971874 C121.253685,44.5917677 120.842307,44.8552548 120.980048,45.1756952" id="Fill-437" fill="#323A45"></path>
            <path d="M134.305112,44.1708771 C136.228625,48.9811926 139.266887,52.7358576 143.327362,55.9083945 C145.466792,57.5796859 147.715415,59.0927228 149.778966,60.8633111 C150.959107,61.8761398 152.040543,63.015572 152.922102,64.3014672 C153.868436,65.6816945 154.245982,67.4963459 155.061532,68.9740082 C155.758636,70.2363204 157.705591,69.0975088 156.985662,67.8426439 C155.629085,65.4775152 154.841913,63.1465198 152.914082,61.1506516 C151.173173,59.3477918 149.028191,57.9191572 146.970809,56.5159675 C141.936856,53.0827763 137.722154,49.4410615 134.83195,43.947459 C134.681425,43.6607391 134.181731,43.8630566 134.305112,44.1708771" id="Fill-438" fill="#323A45"></path>
            <path d="M151.461498,67.0386052 C152.17043,68.1557482 152.86501,69.3782607 153.904694,70.2773002 C154.62798,70.902719 155.725078,69.9090736 155.000544,69.2825218 C153.978957,68.3993443 152.986701,67.440822 151.826573,66.7066347 C151.598791,66.5627431 151.334814,66.8386298 151.461498,67.0386052" id="Fill-439" fill="#323A45"></path>
            <path d="M151.498183,52.8636472 C153.436767,55.2422955 154.506374,58.1595057 155.94433,60.8277232 C157.427223,63.5783235 157.628487,66.071324 158.358857,68.9873045 C158.535437,69.6943207 159.675929,69.7109202 159.842383,68.9873045 C160.490476,66.1721506 159.018343,63.2555552 157.640512,60.8394043 C155.988634,57.9424825 154.319667,54.8383741 151.90514,52.4689478 C151.637422,52.2064296 151.274768,52.5888331 151.498183,52.8636472" id="Fill-440" fill="#323A45"></path>
            <path d="M102.758756,8.37443486 C110.268697,5.5637809 117.904614,2.95553389 125.972718,2.49529164 C133.815686,2.048128 142.071507,3.77512631 149.16111,7.11016995 C155.868419,10.2652271 160.96111,16.1817378 165.531185,21.8541145 C174.478006,32.9584708 179.8108,47.5348847 181.311915,61.6248991 C182.788708,75.4888405 181.510858,90.9552222 171.993401,101.899521 C168.127422,106.345001 163.460058,108.504216 157.678863,109.191154 C156.647976,109.313221 156.205812,110.925625 157.411942,111.159795 C169.98651,113.596151 179.181541,98.9337925 182.271705,88.8265239 C186.210028,75.9447232 185.098691,61.2294271 181.572599,48.3955813 C177.846316,34.8336933 170.75983,23.1507645 161.142591,12.9824625 C151.358214,2.63666511 135.858749,-1.58025001 121.912161,0.527896153 C114.107236,1.70808433 106.830538,4.6171392 99.5544644,7.55546523 C93.1184413,10.1549932 86.7853197,13.1263271 81.9932265,18.2792965 C81.7219406,18.5707625 82.1341704,18.9786903 82.4285311,18.7140043 C88.1735549,13.5529387 95.647948,11.0343735 102.758756,8.37443486 Z" id="Fill-441" fill="#323A45"></path>
            <path d="M80.3103483,21.1188406 C80.5271537,20.8598654 80.5688713,20.784981 80.6914959,20.4692185 C80.8463569,20.0698351 80.1921483,19.8058677 79.9968339,20.1802896 C76.3730874,27.114584 75.069727,35.6021055 75.0950104,43.3345427 C75.1076521,47.3951487 76.0140628,51.1643296 77.3319612,54.9909219 C78.7377195,59.0727452 80.6959205,63.1951308 81.7066253,67.3767999 C82.6914146,71.4517587 80.5808809,75.5429425 78.6207836,78.9676552 C76.7378008,82.256952 74.8257419,85.430178 73.9060575,89.1332111 C72.3315323,95.4721746 73.9591526,102.435175 79.3394649,106.462707 C80.3836703,107.244001 81.5719911,105.58968 80.7028735,104.718525 C75.3845056,99.3873801 75.1354639,91.8203126 78.3730061,85.3322043 C81.4980371,79.0681251 85.7759921,74.0196692 84.5453216,66.6042426 C84.2969119,65.1059308 83.5896082,63.6737668 82.9935515,62.2865335 C82.1079996,60.2284609 81.4247152,58.1086087 80.6453537,56.0105977 C79.1953494,52.1103691 77.8881965,48.3418122 77.5677291,44.1682556 C76.9476532,36.0838617 78.7541537,28.2515787 80.6914959,20.4692185 C80.4424542,20.4361446 80.1940446,20.4024466 79.9450029,20.3693727 C79.9070777,20.5272539 79.8685205,20.6851352 79.8305954,20.8430164 C79.7237729,21.1038637 80.1314681,21.3322611 80.3103483,21.1188406" id="Fill-442" fill="#323A45"></path>
            <path d="M79.3414763,93.5330716 C78.3347266,97.6584271 77.2338881,102.440474 79.129463,106.486098 C80.6035202,109.632066 83.9248533,113.845943 87.8188734,113.282167 C88.8444408,113.133376 88.7127166,111.80053 88.0741675,111.330298 C87.0686723,110.58948 85.8731179,110.179518 84.8249691,109.48453 C83.2725046,108.454918 82.1384214,106.845206 81.2376784,105.252446 C79.2254335,101.695261 80.3036907,97.4606662 79.8846821,93.6065256 C79.8526919,93.313965 79.4205108,93.2078647 79.3414763,93.5330716" id="Fill-443" fill="#323A45"></path>
            <path d="M83.822939,105.27013 C84.5742665,108.442104 86.7336637,110.755919 89.5361211,112.291916 C90.2630586,112.690645 90.8555544,111.647405 90.1791812,111.191545 C87.771721,109.568661 85.5385593,107.930898 84.614718,105.051722 C84.4535068,104.547658 83.7003947,104.752973 83.822939,105.27013" id="Fill-444" fill="#323A45"></path>
            <path d="M124.540541,70.7751017 C124.136896,71.6034409 124.202248,72.9041541 124.108339,73.8170427 C123.981479,75.0472981 123.818922,76.2855182 123.809586,77.526189 C123.79421,79.555375 126.614233,79.5541497 126.62961,77.526189 C126.640594,76.0435108 127.03051,70.6501156 125.005694,70.4773407 C124.825015,70.4620238 124.625114,70.6017141 124.540541,70.7751017" id="Fill-445" fill="#323A45"></path>
            <path d="M149.158339,108.471247 C148.825977,108.055105 148.578566,107.995745 148.415485,108.294402 C148.14141,108.828028 148.028556,109.100097 147.836952,109.672059 C147.530633,110.588437 147.605042,111.69217 147.712936,112.625861 C147.945465,114.640407 148.883644,116.458321 150.370592,117.824849 C153.447421,120.652509 158.399368,120.311805 162.063411,119.11161 C163.227298,118.730096 163.098942,116.712458 161.758952,116.870134 C159.082694,117.184869 156.249556,117.574422 153.621043,116.821286 C149.890651,115.752179 149.110593,111.44298 149.713929,108.185574 C149.785858,107.797876 149.292896,107.39843 148.983477,107.762013 C148.869382,107.895574 148.830937,108.002546 148.76893,108.172589 C148.685219,108.399519 148.969215,108.579456 149.158339,108.471247" id="Fill-446" fill="#323A45"></path>
            <path d="M166.77366,111.402714 C165.814345,112.811272 163.81016,113.137204 162.312028,112.713429 C160.489876,112.196894 161.06146,111.222276 160.924935,109.637728 C160.839986,108.656121 159.872177,108.243148 159.149505,108.867691 C156.756983,110.93383 158.867961,114.317038 161.201019,115.034976 C163.716717,115.809461 166.501823,114.28527 167.56611,111.887482 C167.816103,111.323931 167.118309,110.89698 166.77366,111.402714" id="Fill-447" fill="#323A45"></path>
            <path d="M168.099405,112.512921 C166.232786,115.871734 162.385164,116.651109 159.117363,115.825769 C158.07393,115.562824 157.6669,117.226345 158.677479,117.598796 C162.541527,119.020326 167.344361,117.386546 168.560584,112.729226 C168.641504,112.417612 168.247859,112.24592 168.099405,112.512921" id="Fill-448" fill="#323A45"></path>
            <path d="M108.660291,133.852563 C110.248095,135.213754 110.334522,138.176384 110.512048,140.143251 C110.705341,142.285247 110.477594,144.680766 111.074408,146.752584 C111.443475,148.034746 113.462831,147.86847 113.326766,146.42256 C113.04763,143.464988 112.943684,133.229184 108.858839,133.334135 C108.637516,133.339825 108.456486,133.678068 108.660291,133.852563" id="Fill-449" fill="#323A45"></path>
            <path d="M140.633574,120.493483 C140.674044,122.911229 140.233166,125.343427 140.090294,127.75866 C139.933933,130.402599 140.004449,133.059104 140.12218,135.702415 C140.261985,138.828898 140.206186,144.616913 143.069133,146.493682 C143.837451,146.997589 144.678124,146.319011 144.747413,145.506603 C144.894577,143.786912 143.8816,142.027637 143.487937,140.349414 C142.903574,137.858783 142.707356,135.262596 142.505006,132.716046 C142.321664,130.408254 142.239498,128.086639 142.173887,125.772564 C142.120541,123.876317 142.301429,122.000176 141.527593,120.2453 C141.325856,119.786631 140.626215,120.029788 140.633574,120.493483" id="Fill-450" fill="#323A45"></path>
            <path d="M122.861243,152.560352 C122.795842,154.015398 123.51027,155.357349 125.183911,155.22966 C126.769105,155.108659 128.151245,154.119982 129.227558,153.04861 C130.126354,152.154179 128.781586,150.875465 127.832961,151.687202 C127.143448,152.27822 126.353031,152.801745 125.558254,153.24744 C124.561668,153.806232 124.145593,153.481537 123.946276,152.416854 C123.8298,151.793002 122.886781,151.977847 122.861243,152.560352" id="Fill-451" fill="#323A45"></path>
            <path d="M69.9461885,191.34803 C71.1998357,189.928067 71.5838469,187.922246 72.1480193,186.159085 C72.9827451,183.552511 73.7227149,180.911182 74.6634178,178.339983 C76.4812374,173.371356 79.7453331,169.920128 83.7774514,166.625294 C88.7577533,162.555314 93.9419054,158.728615 99.2208135,155.052104 C101.617767,153.382655 104.073319,151.801334 106.485858,150.155468 C108.925202,148.490985 111.107708,146.577014 113.715369,145.156431 C114.901689,144.509753 114.065093,142.407116 112.778406,142.943946 C110.211266,144.013883 108.053073,145.633683 105.807604,147.243553 C103.19745,149.115321 100.436434,150.791597 97.7845116,152.606269 C92.5417604,156.194653 87.4579749,160.002733 82.5194405,163.994516 C78.6176117,167.14847 75.2637471,170.301805 73.244571,174.960125 C71.0477273,180.028671 70.5141013,185.722794 69.5278905,191.10537 C69.4867465,191.330032 69.7660274,191.552211 69.9461885,191.34803" id="Fill-452" fill="#323A45"></path>
            <path d="M142.350979,140.285407 C148.543991,141.643607 153.790684,144.782556 159.149408,148.056068 C164.589496,151.378626 170.316233,154.118918 175.912789,157.152859 C181.655799,160.266028 187.117793,164.109857 191.742994,168.750372 C196.228625,173.251293 196.373202,178.80419 197.190592,184.74191 C197.416532,186.383068 199.638381,185.729749 199.814251,184.384754 C200.507092,179.089035 199.284137,172.555216 195.767982,168.391958 C191.242921,163.033359 185.145667,158.805335 179.079081,155.404177 C172.983704,151.986671 166.544097,149.253924 160.48064,145.767879 C155.108147,142.679234 148.948305,138.801449 142.516209,139.059884 C141.838389,139.086922 141.641865,140.130095 142.350979,140.285407" id="Fill-453" fill="#323A45"></path>
            <path d="M107.050148,148.948926 C107.052605,148.942149 107.055062,148.935372 107.05752,148.928595 C107.141064,148.688943 106.845588,148.485638 106.641642,148.608237 C105.050004,149.566232 105.964689,154.887266 106.080177,156.139129 C106.43401,159.984048 107.149049,163.883182 108.043463,167.641235 C108.798431,170.810321 111.355125,180.990333 116.447629,178.720715 C117.373371,178.307945 117.375828,176.680277 116.447629,176.268739 C112.5229,174.527097 111.428227,169.509789 110.42324,165.621744 C109.589642,162.393515 108.891804,159.117232 108.274437,155.841565 C107.942718,154.079592 107.830917,152.292361 107.555713,150.52546 C107.48814,150.090512 107.420568,149.655563 107.343167,149.221847 C107.185907,148.344557 107.050148,149.130052 106.805044,149.136212 C106.924832,149.133132 107.012062,149.059203 107.050148,148.948926" id="Fill-454" fill="#323A45"></path>
            <path d="M155.911025,146.155975 C154.463795,150.177275 150.581073,153.017637 147.443629,155.715763 C143.48368,159.120081 139.619795,162.567443 135.364749,165.616794 C131.809146,168.165197 128.030022,170.255075 124.246504,172.434786 C121.593771,173.962581 118.790351,175.763619 115.654162,175.863434 C114.159841,175.910846 113.83963,177.675701 114.940279,178.481708 C117.353166,180.249058 121.731274,177.418053 123.835251,176.24585 C128.033789,173.907059 132.180842,171.43414 136.078004,168.626842 C140.756231,165.256212 144.940956,161.328489 149.099938,157.361464 C152.281962,154.326462 156.265141,151.015098 157.128457,146.489108 C157.2804,145.693707 156.18603,145.39239 155.911025,146.155975" id="Fill-455" fill="#323A45"></path>
            <path d="M55.1358975,170.298314 C56.2437325,168.587722 56.5011651,166.632399 56.7492251,164.641217 C57.0978838,161.837204 57.5921294,159.060244 57.956409,156.259377 C58.5287591,151.858014 57.3203256,147.356621 54.5360546,143.905238 C51.2669106,139.853669 46.8411945,136.880422 43.3852244,132.981101 C41.9231072,131.331534 40.6840567,129.488196 39.5743472,127.58572 C38.4308967,125.624736 38.391532,123.819145 37.8804158,121.717866 C37.6398538,120.727622 36.4370437,120.760337 35.9228034,121.459925 C33.9558184,124.135596 36.7044737,128.665929 38.1790876,130.951542 C40.6553142,134.788579 43.9619484,137.910929 47.3479368,140.91752 C51.6099458,144.702969 55.1583917,148.348752 55.3764596,154.394649 C55.5645353,159.6101 54.3517279,164.868331 54.439205,170.108318 C54.4454533,170.492714 54.9347002,170.608473 55.1358975,170.298314" id="Fill-456" fill="#323A45"></path>
            <path d="M33.6676151,173.724402 C37.4736384,176.029344 43.4060197,175.046507 47.6555855,174.936076 C50.2966797,174.867363 52.961715,174.693128 55.5738277,174.296189 C57.6201716,173.985142 59.6721859,173.594338 60.7690716,171.725599 C61.5729924,170.355641 59.536099,168.69672 58.4625244,169.992445 C57.3984004,171.276513 55.4484513,171.409644 53.8803017,171.675905 C51.5088612,172.078365 49.0952087,172.24892 46.6966768,172.420702 C42.6966037,172.707209 38.1433624,173.416422 34.2069225,172.478985 C33.430723,172.294319 32.9897006,173.313353 33.6676151,173.724402" id="Fill-468" fill="#323A45"></path>
            <path d="M56.1904762,167.969317 C56.1904762,168.052999 56.1904762,168.137478 56.1904762,168.22116 C56.1904762,168.688185 57.0552381,168.688185 57.0552381,168.22116 C57.0552381,168.137478 57.0552381,168.052999 57.0552381,167.969317 C57.0552381,167.502291 56.1904762,167.502291 56.1904762,167.969317" id="Fill-469" fill="#005093"></path>
            <path d="M58.9506075,172.48415 C59.0584462,172.450796 59.1662849,172.417442 59.2741236,172.384089 C59.1740338,172.143691 59.073944,171.903923 58.9738542,171.664155 C57.0489015,175.090763 56.7383003,179.738868 56.0744789,183.550615 C55.3570611,187.670097 54.7100291,191.775733 54.2915892,195.934232 C54.1527549,197.320608 56.5181027,197.625196 56.7822106,196.262734 C57.5157719,192.486228 57.9794137,188.697765 58.4630734,184.884129 C58.9874147,180.749544 60.360905,176.063681 59.9108238,171.911475 C59.8539986,171.389775 59.073944,171.21042 58.9234864,171.781207 C58.8479348,171.874975 58.7730289,171.968113 58.6974772,172.061881 C58.4417639,172.249416 58.6542126,172.622598 58.9506075,172.48415" id="Fill-471" fill="#323A45"></path>
            <path d="M54.9697782,167.839338 C54.753671,168.229605 54.7022797,168.656204 54.6113565,169.081044 C54.498032,169.608432 54.3748246,170.125273 54.2944433,170.658521 C54.1429047,171.666418 56.0134176,171.703921 56.1036819,170.658521 C56.1787923,169.792432 56.3421904,168.625732 55.8447486,167.839338 C55.6675144,167.558651 55.139106,167.532867 54.9697782,167.839338" id="Fill-472" fill="#323A45"></path>
            <path d="M98.6076894,72.3965345 C98.7564868,74.2932061 96.8603182,79.3105003 99.5432314,79.9664191 C100.271255,80.1441311 100.914333,79.5987169 100.95082,78.7508691 C100.973624,78.2209643 100.739881,77.8325828 100.685151,77.3298194 C100.617309,76.7062119 100.672039,76.0535242 100.68002,75.4266855 C100.695413,74.1827016 100.654366,73.0595618 100.205693,71.9060494 C99.8642004,71.0291215 98.5341459,71.4588614 98.6076894,72.3965345" id="Fill-626" fill="#323A45"></path>
            <path d="M102.874778,94.7293905 C103.9374,97.6580998 104.428576,100.072366 107.303644,101.73939 C110.201645,103.419734 114.349566,102.897679 117.441235,102.162489 C118.498123,101.911294 118.169398,100.473264 117.199787,100.38636 C114.389701,100.135799 111.605096,100.811997 108.824314,100.140874 C105.7078,99.3879222 105.191778,96.5556313 103.45578,94.3925603 C103.239179,94.1223351 102.75947,94.412859 102.874778,94.7293905" id="Fill-627" fill="#323A45"></path>
            <path d="M93.5014693,63.4869152 C95.0860774,64.3565766 96.7800805,65.0253567 98.3892863,65.8548418 C100.046393,66.7096689 101.665956,68.0367215 103.470648,68.5361432 C104.403418,68.7945075 105.232619,67.5706769 104.451319,66.928475 C103.020122,65.7522379 100.982399,65.1514483 99.256678,64.4387834 C97.4649316,63.6989222 95.6466455,62.9627696 93.6794788,62.8576933 C93.3221652,62.8385323 93.2056499,63.324974 93.5014693,63.4869152" id="Fill-1004" fill="#323A45" transform="translate(99.047619, 65.714286) rotate(-45.000000) translate(-99.047619, -65.714286) "></path>
            <path d="M119.279601,65.8397629 C118.445504,67.1556234 120.019706,68.3666712 121.476262,68.5176448 C123.279529,68.7044612 125.121389,68.3514652 126.925901,68.2651169 C128.978152,68.1679073 131.100118,68.480173 132.971856,67.6601361 C133.586846,67.3902299 133.342219,66.6674027 132.796944,66.4925339 C130.489485,65.7534146 127.418889,66.2649873 125.003744,66.4599497 C124.00843,66.5403242 123.026811,66.6744626 122.028385,66.7336574 C120.996346,66.7950244 120.456673,66.1737514 119.677353,65.7490701 C119.545391,65.6768416 119.354296,65.7219165 119.279601,65.8397629" id="Fill-1005" fill="#323A45" transform="translate(126.190476, 67.142857) rotate(-330.000000) translate(-126.190476, -67.142857) "></path>
            <path d="M104.099341,115.63901 C107.384392,116.199358 110.768447,116.075506 114.083199,116.36137 C117.698055,116.673344 121.302391,118.531799 124.929004,118.000238 C126.238322,117.808769 125.748874,115.825793 124.640657,115.694576 C117.70548,114.874473 111.113102,113.548917 104.099341,114.798153 C103.713847,114.867108 103.711991,115.572732 104.099341,115.63901" id="Fill-1028" fill="#323A45"></path>
            <path d="M108.658951,119.552547 C109.625102,120.370218 110.740028,120.702089 111.926083,121.050584 C113.33856,121.464961 114.983388,121.91505 116.456917,121.904583 C117.313412,121.899041 117.357867,120.748883 116.645998,120.450877 C115.4635,119.955225 114.074139,119.886881 112.822292,119.644904 C111.517098,119.39246 110.19116,119.074135 108.860479,119.047659 C108.628129,119.043349 108.461571,119.385688 108.658951,119.552547" id="Fill-1029" fill="#323A45"></path>
            <path d="M37.4810146,121.115561 C33.5939842,119.9829 32.4189864,125.02513 32.3820041,127.651717 C32.3125813,132.512697 35.6883481,139.123085 40.0029453,141.732351 C41.0598595,142.371368 42.3970602,141.101376 41.7222961,140.092435 C39.2860085,136.447628 36.2041534,133.637316 35.2276919,129.193893 C34.6736068,126.674325 34.8403513,123.098183 37.5919614,121.925931 C37.9818972,121.760145 37.8307241,121.217631 37.4810146,121.115561" id="Fill-457" fill="#323A45"></path>
            <path d="M40.1832344,141.059546 C37.3479891,143.640575 40.4369982,148.470776 42.7514299,150.317432 C43.3659102,150.807645 44.1690526,150.058762 43.6342887,149.478961 C41.5377483,147.203921 40.0649885,144.458226 40.8482017,141.426732 C40.9431971,141.058915 40.4735348,140.795197 40.1832344,141.059546" id="Fill-458" fill="#323A45"></path>
            <path d="M2.20676211,127.210449 C6.16471634,126.291022 9.7477969,127.131326 13.3603274,128.941966 C15.6169319,130.072389 17.6489804,131.598429 19.5705914,133.218928 C21.389741,134.753555 22.9800398,136.815059 25.0691475,137.965723 C25.9636906,138.458865 27.086471,137.449274 26.5079016,136.527393 C24.9771164,134.088059 22.2272247,132.121626 19.9970025,130.334294 C17.9526833,128.696008 15.7243016,127.231917 13.2762723,126.271395 C10.3220715,125.11337 4.02407112,123.284943 1.93803107,126.860221 C1.82882074,127.046682 2.00674769,127.257065 2.20676211,127.210449" id="Fill-459" fill="#323A45"></path>
            <path d="M25.0211707,137.134272 C26.9055134,137.950716 28.9400883,138.500953 30.8857502,139.184006 C33.1122546,139.965377 35.4521998,140.997431 37.868794,140.950859 C39.2662613,140.923836 39.4808789,139.119035 38.1907205,138.718288 C36.0255354,138.046159 33.7009201,137.700033 31.4952642,137.110699 C29.4974809,136.577711 27.3635687,135.995851 25.2756459,136.253433 C24.8439579,136.306904 24.5079281,136.911188 25.0211707,137.134272" id="Fill-460" fill="#323A45"></path>
            <path d="M20.4038123,148.282961 C25.0042759,149.372589 29.8011721,148.719817 34.4133355,150.049841 C38.4294276,151.208512 41.3260386,153.620004 43.943703,156.808547 C44.6364511,157.65213 45.9394335,156.747036 45.6808075,155.77792 C44.6555402,151.935977 40.2804507,149.67889 36.9380177,148.341334 C31.9717831,146.353516 25.606505,146.372346 20.4038123,147.177641 C19.843456,147.264259 19.8877919,148.161194 20.4038123,148.282961" id="Fill-462" fill="#323A45"></path>
            <path d="M2.16416155,134.895118 C3.41973188,134.886935 4.57905425,137.593782 5.07705989,138.489559 C5.99483088,140.139477 6.78406426,141.873747 7.59937774,143.576543 C9.35978422,147.254077 11.6417926,150.851666 14.7478079,153.504376 C18.3599012,156.588922 23.5318326,157.186317 27.8772733,158.625352 C29.8183776,159.268071 31.7656914,159.890016 33.6776109,160.616458 C35.77147,161.412145 37.4871677,163.055768 39.53756,163.758289 C40.332382,164.030862 41.1570098,163.164671 40.9067651,162.370243 C39.7834581,158.797205 33.4490995,157.439375 30.3828254,156.444137 C25.0686954,154.71868 18.9678158,153.960133 14.8434349,149.849503 C11.7082348,146.724668 9.92174819,142.714129 7.54659659,139.05359 C6.51519089,137.463475 4.47597577,133.688368 2.09337272,134.366339 C1.80524975,134.448174 1.86175663,134.897636 2.16416155,134.895118" id="Fill-463" fill="#323A45"></path>
            <path d="M0.329869697,127.443564 C5.86092378,126.491725 11.0614166,130.188749 15.181107,133.475615 C19.2439131,136.718224 23.0621164,140.590406 25.1320744,145.326535 C25.4038551,145.948004 26.4751769,145.776586 26.5965301,145.137663 C27.0863675,142.56452 24.9064332,140.270633 23.2909179,138.482897 C20.9877341,135.934064 18.4810308,133.433228 15.7246685,131.360002 C12.0960796,128.631025 4.55511213,123.222936 0.0833708865,127.025303 C-0.128365271,127.204825 0.10359643,127.482834 0.329869697,127.443564" id="Fill-466" fill="#323A45"></path>
            <path d="M40.0216784,162.085085 C40.1460748,162.065156 40.2711157,162.052298 40.3974458,162.047798 C40.2343769,161.764292 40.0713081,161.480786 39.9082392,161.19728 C38.7126159,162.823744 37.9894411,164.762644 37.2959151,166.643043 C36.6339716,168.439868 35.9720282,170.434055 36.2594934,172.353669 C36.4605901,173.694055 38.6359156,173.625268 38.8956655,172.353669 C39.2379167,170.678989 39.2243814,168.961237 39.5821016,167.271771 C39.9836505,165.379158 40.6829774,163.55276 40.9433719,161.632503 C41.0819482,160.614838 39.5717889,160.8437 39.8508751,161.632503 C39.8360507,161.658218 39.8205817,161.683933 39.8051127,161.709005 C39.6968298,161.852365 39.8418515,162.106942 40.0216784,162.085085" id="Fill-467" fill="#323A45"></path>
            <path d="M33.2821338,173.677154 C32.4351804,177.091049 31.8141218,180.477055 30.7333581,183.837074 C29.5484758,187.522255 28.2162443,191.119332 27.6329363,194.975018 C27.4508809,196.181228 29.1131259,196.726335 29.4303529,195.490969 C30.3887315,191.755714 31.5498675,188.08004 32.6251513,184.379646 C33.6048407,181.006951 34.6368939,177.223523 34.1698822,173.677154 C34.1053409,173.189726 33.388688,173.248674 33.2821338,173.677154" id="Fill-470" fill="#323A45"></path>
        </g>
    </g>
</svg>