<?xml version="1.0" encoding="UTF-8"?>
<svg width="300px" height="300px" viewBox="0 0 300 300" version="1.1" xmlns="http://www.w3.org/2000/svg" xmlns:xlink="http://www.w3.org/1999/xlink">
    <!-- Generator: Sketch 50.2 (55047) - http://www.bohemiancoding.com/sketch -->
    <title>Artboard Copy</title>
    <desc>Created with Sketch.</desc>
    <defs></defs>
    <g id="Artboard-Copy" stroke="none" stroke-width="1" fill="none" fill-rule="evenodd">
        <g id="Group-3" transform="translate(64.000000, 56.000000)">
            <path d="M90.7775057,132.461144 C90.7202749,132.575606 90.6624288,132.690683 90.605198,132.80576 C90.4815057,133.052529 90.8525826,133.270375 90.9762749,133.022375 C91.0335057,132.907298 91.0913519,132.792837 91.1485826,132.67776 C91.2722749,132.430991 90.9018134,132.213144 90.7775057,132.461144" id="Fill-31" fill="#77A6CD"></path>
            <path d="M89.2655057,133.578068 C89.2150442,133.523298 89.1645826,133.469144 89.1141211,133.414375 C88.9719672,133.214375 88.7221211,133.171298 88.5338134,133.339914 C88.4913519,133.377452 88.4488903,133.415606 88.4064288,133.45376 C88.2304288,133.611298 88.2476596,133.904837 88.4064288,134.064837 C91.0648903,136.748529 97.2408903,135.071606 100.243967,133.924529 C105.207044,132.029144 110.131967,128.882068 112.872275,124.200221 C113.362736,123.362683 112.258121,122.576837 111.570736,123.195914 C109.73566,124.848221 108.156583,126.71776 106.184275,128.229144 C104.37566,129.614991 102.262429,130.623606 100.213198,131.596529 C98.1867365,132.558375 96.1165826,133.070991 93.9215057,133.440221 C92.909198,133.610683 91.909198,133.728221 90.8833519,133.73376 C90.3528903,133.716529 89.8304288,133.640221 89.3153519,133.505452 C88.7128903,133.824221 88.6058134,134.003914 88.9935057,134.045144 C89.2593519,134.109144 89.4716596,133.778683 89.2655057,133.578068" id="Fill-32" fill="#808489"></path>
            <path d="M108.630429,139.200221 C111.629198,134.614991 114.957813,128.983606 113.983044,123.266068 C113.85566,122.518991 112.754736,122.747298 112.720275,123.437144 C112.435352,129.164529 110.672275,133.775606 107.757198,138.689452 C107.421813,139.254375 108.275967,139.74176 108.630429,139.200221" id="Fill-33" fill="#B1B5B8"></path>
            <path d="M109.298736,131.950991 C111.018736,129.155298 112.13566,126.154068 113.18489,123.061144 C113.376275,122.496837 112.453198,122.099298 112.216275,122.652529 C110.958429,125.591606 110.021813,128.659914 108.467352,131.464837 C108.165813,132.008837 108.973813,132.478991 109.298736,131.950991" id="Fill-34" fill="#B1B5B8"></path>
            <path d="M107.191044,124.329452 C111.24766,120.328221 114.810736,116.366991 117.618121,111.354683 C120.413198,106.362068 122.355352,100.90176 123.786736,95.3762214 C126.541198,84.7466829 127.548583,72.388529 124.914121,61.636529 C124.629198,60.4728367 122.677198,60.6968367 122.794736,61.9232983 C123.837813,72.8192983 124.109198,83.223606 121.675352,93.9922214 C119.30489,104.482068 114.397813,116.110375 106.784275,123.922683 C106.525198,124.188529 106.926429,124.590375 107.191044,124.329452" id="Fill-35" fill="#808489"></path>
            <path d="M133.89689,77.7374521 C134.326429,80.0026829 133.357813,82.6217598 132.465506,84.6654521 C131.431044,87.0352983 130.164583,88.791606 127.562736,89.1879137 C126.467967,89.3546829 126.698736,90.876529 127.562736,91.175606 C130.351044,92.1392983 132.499352,88.5491444 133.43166,86.5171444 C134.621198,83.9257598 135.643967,80.3214521 134.872275,77.468529 C134.699967,76.8322214 133.777506,77.1048367 133.89689,77.7374521" id="Fill-36" fill="#808489"></path>
            <path d="M140.993506,55.3688367 C142.811967,59.2882214 142.303044,64.4371444 142.082736,68.6488367 C141.838429,73.324529 140.938736,77.9546829 139.55966,82.4229906 C137.351044,89.5792983 132.189198,96.868529 124.355967,98.2168367 C123.450121,98.3731444 123.724583,99.7097598 124.563352,99.7497598 C128.241506,99.9239137 131.50366,97.3663752 134.018121,94.9491444 C137.06489,92.0192983 139.105506,88.4432983 140.502429,84.4931444 C142.29689,79.4192983 143.142429,74.007606 143.43289,68.6488367 C143.671044,64.2629906 143.891352,58.9337598 141.560275,55.0377598 C141.339352,54.6691444 140.818736,54.9909906 140.993506,55.3688367" id="Fill-37" fill="#808489"></path>
            <path d="M145.429198,66.9202214 C146.32089,73.7140675 144.99289,80.4469906 141.800275,86.4919137 C140.222429,89.479606 138.098121,92.1380675 135.674121,94.4777598 C132.86366,97.1891444 129.553506,98.2519137 125.769506,98.7466829 C125.027967,98.8432983 124.667967,100.077144 125.572583,100.199606 C133.002736,101.204529 138.835352,94.3042214 142.199044,88.5632983 C146.00889,82.0611444 147.426121,74.2334521 146.07289,66.8328367 C146.007044,66.471606 145.381198,66.5540675 145.429198,66.9202214" id="Fill-38" fill="#808489"></path>
            <path d="M143.56089,85.6186829 C142.061198,91.663606 140.130736,97.7239137 135.581198,102.204529 C131.697506,106.02976 126.402736,107.993452 123.386121,112.712837 C122.91966,113.443298 124.001506,114.282068 124.586736,113.638991 C128.52889,109.303606 134.046429,106.763914 137.829198,102.284529 C141.714121,97.684529 143.202736,91.5743752 144.162121,85.7848367 C144.226736,85.3959137 143.659352,85.2217598 143.56089,85.6186829" id="Fill-39" fill="#808489"></path>
            <path d="M111.987352,30.1639137 C118.778121,34.0728367 123.920275,40.0703752 128.305506,46.4617598 C132.533198,52.623606 134.858121,59.8069906 133.396583,67.2599137 C133.281506,67.8469906 134.054429,68.4771444 134.51166,67.908529 C136.522736,65.4088367 135.800275,61.9214521 135.33689,58.9774521 C134.656275,54.655606 132.868583,50.8229906 130.498736,47.1749906 C125.944275,40.164529 119.848275,33.4051444 112.326429,29.583606 C111.942429,29.388529 111.609506,29.9466829 111.987352,30.1639137" id="Fill-40" fill="#808489"></path>
            <path d="M80.3005826,30.3079137 C81.9885826,36.8119137 85.1245826,42.6549906 89.2975057,47.9048367 C92.4433519,51.8623752 96.9399672,57.1251444 102.594121,56.1423752 C103.517198,55.9823752 103.539352,54.4032983 102.594121,54.2642214 C99.9024288,53.8666829 97.7928903,53.4377598 95.6119672,51.7029906 C93.5350442,50.0512983 91.6938134,48.0426829 89.9645826,46.0402214 C85.965198,41.4088367 82.9338134,35.9054521 80.9485826,30.1294521 C80.8088903,29.7232983 80.1910442,29.884529 80.3005826,30.3079137" id="Fill-41" fill="#808489"></path>
            <path d="M105.327044,50.4888367 C110.96766,56.516529 118.418736,62.9460675 126.97566,63.8506829 C127.99289,63.9577598 128.170121,62.3392983 127.213198,62.095606 C118.917198,59.9860675 112.288275,55.5719137 106.235967,49.5792983 C105.645198,48.9940675 104.761506,49.884529 105.327044,50.4888367" id="Fill-42" fill="#808489"></path>
            <path d="M61.061198,45.0451444 C60.6168903,41.7577598 65.2224288,38.7497598 67.5147365,37.167606 C68.6107365,36.4106829 69.717198,35.6709906 70.8113519,34.9091444 C72.2618134,33.8992983 73.6470442,33.5657598 75.2082749,32.9202214 C76.0507365,32.5712983 76.1941211,31.6180675 75.4507365,31.0654521 C72.949198,29.2088367 67.7522749,34.399606 65.8501211,35.8709906 C63.1627365,37.9491444 58.6993519,41.4389906 59.8679672,45.3737598 C60.1024288,46.1626829 61.1645826,45.8112983 61.061198,45.0451444" id="Fill-43" fill="#808489"></path>
            <path d="M71.1215057,30.9780675 C70.2488903,37.1023752 74.381198,43.2691444 77.8236596,47.9946829 C81.5768903,53.1472983 86.8187365,55.2297598 93.0895057,54.3183752 C94.1356596,54.1663752 93.7504288,52.7054521 92.8587365,52.6112983 C90.2827365,52.3386829 87.6968903,52.2734521 85.2181211,51.4586829 C82.4095057,50.5349906 80.3018134,47.911606 78.6427365,45.6094521 C75.4070442,41.1189906 72.8335057,36.4648367 71.8630442,30.9780675 C71.7990442,30.6149906 71.1750442,30.6039137 71.1215057,30.9780675" id="Fill-44" fill="#808489"></path>
            <path d="M64.7141211,26.8943752 C60.4162749,29.6334521 57.7393519,33.9700675 57.1245826,39.0402214 C56.501198,44.1799137 57.1455057,50.8642214 60.1005826,55.2728367 C60.6162749,56.0420675 61.8218134,55.5663752 61.6002749,54.6402214 C60.4913519,49.991606 58.7528903,45.9442214 58.7762749,41.0408367 C58.8008903,35.7743752 60.9781211,30.9134521 65.1756596,27.6839137 C65.6273519,27.3362214 65.2255057,26.5688367 64.7141211,26.8943752" id="Fill-45" fill="#808489"></path>
            <path d="M54.9725826,29.0482214 C53.3941211,34.8359137 52.2002749,40.7651444 52.9935057,46.7774521 C53.357198,49.5294521 54.2248903,52.2432983 55.5375057,54.6888367 C56.853198,57.1386829 58.8273519,58.9392983 59.6039672,61.6912983 C59.9239672,62.8242214 61.8082749,62.639606 61.7079672,61.4063752 C61.5356596,59.2802214 60.2119672,57.6008367 58.9522749,55.9559137 C57.1356596,53.583606 55.9215057,51.172529 55.1233519,48.2691444 C53.4248903,42.0912983 54.5836596,35.4322214 55.9633519,29.3214521 C56.1085826,28.6771444 55.1473519,28.4069906 54.9725826,29.0482214" id="Fill-46" fill="#808489"></path>
            <path d="M58.5553519,103.827298 C55.1467365,95.5411444 60.1627365,87.2229906 62.893198,79.5208367 C63.1688903,78.743606 61.8808903,78.1946829 61.5559672,78.9571444 C58.2248903,86.7706829 53.4464288,95.8254521 57.6015057,104.22976 C57.8618134,104.755298 58.781198,104.375606 58.5553519,103.827298" id="Fill-47" fill="#808489"></path>
            <path d="M79.8815057,99.0229906 C81.3202749,100.283298 82.1904288,101.411914 84.1319672,101.924529 C86.0304288,102.425452 88.1418134,102.058683 89.9922749,101.546068 C91.0925826,101.240837 90.629198,99.5602214 89.5215057,99.8389906 C87.6722749,100.304221 85.8464288,100.718991 83.9387365,100.358375 C82.4741211,100.081452 81.5473519,98.9528367 80.1928903,98.4888367 C79.8938134,98.3860675 79.6427365,98.8143752 79.8815057,99.0229906" id="Fill-48" fill="#808489"></path>
            <path d="M118.393506,141.538683 C119.396583,143.504221 121.941198,144.562068 123.826121,145.437144 C126.899967,146.864221 130.03966,148.069144 133.059967,149.622375 C139.574429,152.971298 145.737506,156.957144 152.247044,160.309144 C153.163967,160.781144 153.905506,159.502375 153.051352,158.93376 C147.485813,155.232837 141.687044,151.859298 135.724583,148.83776 C133.037813,147.476529 130.309813,146.21376 127.490121,145.155914 C124.660583,144.094375 121.24766,143.201452 118.95966,141.102375 C118.653198,140.821144 118.207044,141.173144 118.393506,141.538683" id="Fill-49" fill="#B1B5B8"></path>
            <path d="M95.3688903,178.369452 C99.061198,177.006375 102.375044,174.811914 105.759044,172.835914 C109.899352,170.418068 113.964583,167.880221 117.899967,165.139914 C121.022429,162.96576 124.115967,160.630991 126.906736,158.041452 C129.717813,155.432837 130.539352,152.349144 131.442736,148.745452 C131.61689,148.050683 130.583044,147.768221 130.374429,148.450683 C129.256275,152.106683 127.958429,154.776837 125.167044,157.449452 C122.24766,160.244529 118.895044,162.668529 115.604583,164.99776 C112.211967,167.399606 108.682736,169.606991 105.163967,171.817452 C101.885813,173.876529 98.6747365,176.219298 95.1165826,177.770068 C94.7762749,177.91776 95.0218134,178.497452 95.3688903,178.369452" id="Fill-380" fill="#808489"></path>
            <path d="M84.341198,115.834683 C86.8987365,118.595914 89.9916596,118.080837 93.2679672,117.195914 C94.0402749,116.987298 94.1418134,115.675298 93.2679672,115.534991 C92.0045826,115.333144 90.9762749,115.571298 89.749198,115.899914 C87.8661211,116.403298 86.549198,115.371914 84.8015057,115.043914 C84.341198,114.95776 84.005198,115.472221 84.341198,115.834683" id="Fill-381" fill="#808489"></path>
            <path d="M62.661198,49.7620675 C62.8821211,49.3706829 62.9436596,49.2260675 63.0975057,48.8020675 C63.3221211,48.1823752 62.4039672,47.8586829 62.0759672,48.3712983 C60.4741211,50.8759137 60.1535057,54.1534521 59.8556596,57.0549906 C59.4587365,60.9239137 59.5695057,64.8826829 59.4156596,68.7688367 C59.0882749,77.0426829 58.9725826,85.2863752 59.3910442,93.5608367 C59.7738134,101.128221 61.0261211,108.42976 64.5325826,115.206991 C67.3208903,120.595914 70.6938134,125.656221 75.9165826,128.899914 C86.0735057,135.208837 98.8593519,134.086375 108.761506,127.966375 C114.610121,124.351606 118.507352,117.757144 121.425506,111.719606 C124.714736,104.915298 126.89689,97.6999137 128.587352,90.356529 C129.419352,86.7417598 130.028583,83.0426829 129.747352,79.3288367 C129.640275,77.9097598 127.690121,77.9282214 127.557198,79.3288367 C126.890736,86.3589906 125.029198,93.3989906 122.672275,100.045144 C120.24889,106.87776 117.144275,113.504221 112.859352,119.368221 C105.47289,129.476529 91.1978134,132.29376 80.0396596,127.275298 C74.4064288,124.74176 71.285198,120.192837 68.2193519,115.03776 C64.2815057,108.414991 62.9805826,101.159606 62.4593519,93.5608367 C61.9387365,85.964529 61.8273519,78.356529 61.9393519,70.7460675 C61.9935057,67.052529 62.0322749,63.3700675 61.9633519,59.6771444 C61.893198,55.8839137 62.3830442,52.5017598 63.0975057,48.8020675 C62.7313519,48.7522214 62.3658134,48.7029906 61.9996596,48.6531444 C62.0476596,48.9626829 62.0445826,49.2722214 61.9898134,49.580529 C61.9553519,49.9466829 62.4938134,50.0592983 62.661198,49.7620675" id="Fill-445" fill="#323A45"></path>
            <path d="M127.854429,71.9202214 C127.79289,71.9909906 127.731352,72.0617598 127.669813,72.132529 C127.391044,72.4531444 127.661198,72.8968367 128.070429,72.820529 C128.706121,72.7029906 129.280275,72.2777598 129.668583,71.7620675 C130.226736,71.020529 133.31966,66.6919137 133.626121,69.804529 C133.782429,71.3952983 133.458121,72.8617598 133.165198,74.4088367 C132.786736,76.4039137 132.306121,78.3817598 131.693198,80.3177598 C131.38366,81.2943752 131.005813,82.2389906 130.508583,83.1349906 C130.033506,83.9909906 130.236583,83.9319137 129.740583,83.5762214 C128.404583,82.6180675 127.050736,84.6414521 128.061198,85.7534521 C132.804583,90.972529 135.565813,76.6137598 135.944275,74.396529 C136.34489,72.0494521 137.065506,67.972529 134.607044,66.532529 C133.130121,65.6672983 131.468583,66.5140675 130.399044,67.591606 C129.348583,68.6500675 127.785506,70.8322214 127.563967,72.3140675 C127.833506,72.3503752 128.103044,72.3872983 128.373198,72.423606 C128.373198,72.327606 128.372583,72.2309906 128.372583,72.1349906 C128.372583,71.8832983 128.03289,71.7146829 127.854429,71.9202214" id="Fill-446" fill="#323A45"></path>
            <path d="M74.6427365,29.7048367 C70.9307365,26.5706829 64.4759672,33.0832983 62.4624288,35.7214521 C57.8408903,41.7749906 56.6218134,50.6629906 58.1215057,58.0014521 C58.3479672,59.1103752 59.9430442,58.7774521 60.0027365,57.7466829 C60.1873519,54.580529 59.9387365,51.423606 60.229198,48.2580675 C60.5516596,44.7472983 61.7067365,41.3909906 63.4224288,38.3282214 C65.5787365,34.479606 69.8476596,30.3657598 74.405198,30.2783752 C74.6778134,30.2734521 74.877198,29.9029906 74.6427365,29.7048367" id="Fill-447" fill="#323A45"></path>
            <path d="M73.5368903,23.4106829 C74.1565826,28.007606 74.0439672,32.1946829 75.6882749,36.620529 C77.0587365,40.3109906 79.2341211,43.5706829 81.6796596,46.6266829 C84.0784288,49.6242214 86.9578134,52.140529 90.4525826,53.7651444 C92.2747365,54.6119137 94.1375057,55.3879137 96.0415057,56.0303752 C98.2968903,56.7909906 100.843352,56.5503752 103.181813,56.663606 C104.210121,56.7134521 104.273506,55.2900675 103.410121,54.9719137 C101.549813,54.2863752 99.6125826,54.2352983 97.6679672,53.9202214 C95.5996596,53.5848367 93.5990442,52.4586829 91.6962749,51.636529 C88.309198,50.1737598 85.733198,47.708529 83.3338134,44.972529 C80.621198,41.879606 78.3916596,38.3257598 76.8064288,34.5300675 C75.2839672,30.8832983 75.1799672,27.007606 74.1067365,23.2531444 C73.9990442,22.8752983 73.4876596,23.0451444 73.5368903,23.4106829" id="Fill-448" fill="#323A45"></path>
            <path d="M94.9756596,44.6623752 C97.4845826,50.4119137 101.461813,55.007606 106.528275,58.6654521 C112.605198,63.0531444 119.636583,65.6008367 127.09689,65.7928367 C128.514121,65.8291444 128.763967,63.7288367 127.426736,63.3559137 C126.01566,62.9620675 124.63966,62.9214521 123.178736,62.8592983 C121.07289,62.7706829 118.96766,62.0020675 116.995352,61.3152983 C113.958429,60.2568367 111.046429,58.7842214 108.29689,57.124529 C102.995352,53.9251444 98.7996596,49.5663752 95.4439672,44.388529 C95.2495057,44.0882214 94.8378134,44.3472983 94.9756596,44.6623752" id="Fill-449" fill="#323A45"></path>
            <path d="M108.154121,44.0186829 C110.07289,48.788529 113.10366,52.511606 117.154121,55.6568367 C119.288275,57.3140675 121.531352,58.8149906 123.589813,60.5706829 C124.767044,61.5743752 125.845813,62.7048367 126.725198,63.9799137 C127.669198,65.348529 128.045813,67.1479137 128.859352,68.612529 C129.554736,69.8648367 131.49689,68.7349906 130.778736,67.4906829 C129.425506,65.1460675 128.640275,62.8340675 126.717198,60.8549906 C124.980583,59.0679137 122.84089,57.6506829 120.788583,56.2599137 C115.767044,52.8549906 111.562736,49.2439137 108.67966,43.796529 C108.529506,43.5128367 108.031044,43.7134521 108.154121,44.0186829" id="Fill-450" fill="#323A45"></path>
            <path d="M125.508583,66.0457598 C126.20766,67.2592983 126.892583,68.5872983 127.917813,69.564529 C128.631044,70.2432983 129.71289,69.164529 128.998429,68.4839137 C127.991044,67.5239137 127.012583,66.4832983 125.868583,65.6857598 C125.643967,65.5288367 125.38366,65.828529 125.508583,66.0457598" id="Fill-451" fill="#323A45"></path>
            <path d="M124.954736,51.7226829 C126.83966,54.103606 127.87966,57.023606 129.277813,59.6937598 C130.71966,62.447606 130.915352,64.9423752 131.625506,67.8617598 C131.797198,68.5694521 132.906121,68.5854521 133.067967,67.8617598 C133.698121,65.0439137 132.266736,62.124529 130.927044,59.7054521 C129.32089,56.8063752 127.698121,53.6992983 125.350429,51.3269906 C125.090121,51.0642214 124.737506,51.447606 124.954736,51.7226829" id="Fill-452" fill="#323A45"></path>
            <path d="M57.1208903,18.4912983 C62.7898134,13.391606 70.165198,10.903606 77.1818134,8.27468289 C84.5922749,5.4980675 92.1270442,2.92022135 100.088275,2.4660675 C107.826736,2.02422135 115.973198,3.73191366 122.96766,7.02852904 C129.585506,10.1472983 134.609506,15.9934521 139.118429,21.5989906 C147.94366,32.5706829 153.205198,46.9719137 154.686429,60.892529 C156.143044,74.5891444 154.883967,89.8697598 145.493813,100.682068 C141.675352,105.079606 137.077198,107.190991 131.374429,107.892529 C130.359044,108.017452 129.919044,109.601452 131.111044,109.83776 C143.509813,112.297452 152.608275,97.7337598 155.649506,87.772529 C159.53566,75.0426829 158.439044,60.500529 154.95966,47.8180675 C151.282121,34.415606 144.288275,22.8722214 134.795967,12.8242214 C125.138736,2.60268289 109.843967,-1.5616248 96.0815057,0.522067505 C88.3799672,1.68760597 81.1996596,4.56268289 74.0199672,7.4660675 C67.669198,10.0340675 61.4199672,12.9706829 56.6913519,18.0617598 C56.4236596,18.3497598 56.8304288,18.7528367 57.1208903,18.4912983" id="Fill-453" fill="#323A45"></path>
            <path d="M54.7707365,20.6131444 C54.9818134,20.3577598 55.0224288,20.2839137 55.1418134,19.972529 C55.2925826,19.5780675 54.6556596,19.3183752 54.4655057,19.6869906 C50.9375057,26.5251444 49.669198,34.8962214 49.6888903,42.5208367 C49.6993519,46.5257598 50.5793519,50.2432983 51.8630442,54.0174521 C53.2322749,58.0432983 55.1387365,62.1079137 56.1221211,66.231606 C57.0802749,70.247606 55.0255057,74.2802214 53.1190442,77.655606 C51.285198,80.8999137 49.4236596,84.0297598 48.5276596,87.6820675 C46.9922749,93.9442214 48.5818134,100.79776 53.8255057,104.773144 C54.8421211,105.543606 55.9990442,103.912837 55.1528903,103.053144 C49.9799672,97.8008367 49.7448903,90.327606 52.8913519,83.9399137 C55.9350442,77.7608367 60.1005826,72.780529 58.9018134,65.4654521 C58.6593519,63.9872983 57.9707365,62.5743752 57.3898134,61.2057598 C56.5282749,59.1768367 55.8636596,57.0869906 55.1048903,55.0186829 C53.6938134,51.1737598 52.4193519,47.4568367 52.1055057,43.3429906 C51.4968903,35.3700675 53.2556596,27.647606 55.1418134,19.972529 C54.8993519,19.9392983 54.6575057,19.9066829 54.4150442,19.8740675 C54.3781211,20.0297598 54.3405826,20.1854521 54.3036596,20.3411444 C54.1996596,20.5983752 54.5965826,20.8229906 54.7707365,20.6131444" id="Fill-454" fill="#323A45"></path>
            <path d="M53.5338134,92.0894521 C52.5455057,96.135606 51.469198,100.818068 53.3258134,104.786068 C54.7633519,107.858068 58.0322749,112.03776 61.8507365,111.447606 C62.8587365,111.292529 62.7258134,110.002683 62.101198,109.534375 C61.1208903,108.800221 59.9455057,108.399606 58.9178134,107.718375 C57.3953519,106.70976 56.2784288,105.136837 55.3941211,103.577452 C53.4175057,100.093144 54.4778134,95.9374521 54.0667365,92.1614521 C54.0353519,91.8752983 53.6113519,91.7706829 53.5338134,92.0894521" id="Fill-455" fill="#323A45"></path>
            <path d="M58.4408903,103.746068 C59.2181211,107.026068 61.4519672,109.419298 64.3510442,111.007606 C65.1030442,111.419914 65.7159672,110.341144 65.0162749,109.869144 C62.5258134,108.190991 60.2156596,106.498068 59.2599672,103.520221 C59.093198,102.999606 58.3141211,103.211298 58.4408903,103.746068" id="Fill-456" fill="#323A45"></path>
            <path d="M98.3375057,69.8260675 C97.885198,70.6574521 97.9578134,71.964529 97.8488903,72.8808367 C97.7024288,74.116529 97.5208903,75.3602214 97.5104288,76.6069906 C97.493198,78.655606 100.669198,78.6537598 100.686429,76.6069906 C100.698736,75.1171444 101.126429,69.700529 98.8587365,69.5269906 C98.6562749,69.511606 98.4322749,69.6512983 98.3375057,69.8260675" id="Fill-457" fill="#323A45"></path>
            <path d="M122.757813,106.777452 C122.427967,106.362683 122.182429,106.304221 122.020583,106.601452 C121.748583,107.132529 121.636583,107.403298 121.446429,107.972529 C121.142429,108.884529 121.216275,109.982991 121.323352,110.912221 C121.554121,112.916529 122.485813,114.72576 123.95966,116.087606 C127.002736,118.899298 131.940583,118.588529 135.565198,117.366375 C136.713506,116.979298 136.59966,114.988529 135.263044,115.135606 C132.601506,115.428529 129.802121,115.82976 127.187967,115.082683 C123.483352,114.023606 122.710429,109.734375 123.309198,106.493144 C123.380583,106.106683 122.891352,105.70976 122.584275,106.070991 C122.471044,106.204529 122.43289,106.310375 122.371352,106.479606 C122.288275,106.705452 122.570121,106.884529 122.757813,106.777452" id="Fill-458" fill="#323A45"></path>
            <path d="M140.305506,109.814991 C139.332583,111.178683 137.299967,111.494991 135.780583,111.083914 C133.938121,110.585452 134.523352,109.630375 134.373813,108.105452 C134.280275,107.152221 133.31289,106.758375 132.573198,107.359606 C130.124583,109.349144 132.28766,112.645144 134.653813,113.334375 C137.20766,114.07776 140.027967,112.610068 141.109198,110.284529 C141.362736,109.738683 140.655044,109.325144 140.305506,109.814991" id="Fill-459" fill="#323A45"></path>
            <path d="M141.459352,110.893144 C139.571352,113.950991 135.67966,114.659914 132.374429,113.909144 C131.319044,113.669144 130.907352,115.184221 131.929506,115.522683 C135.837813,116.816837 140.69566,115.330068 141.925813,111.089452 C142.00766,110.806375 141.609506,110.649452 141.459352,110.893144" id="Fill-460" fill="#323A45"></path>
            <path d="M83.3344288,131.646375 C85.0070442,132.970683 85.0999672,135.854375 85.2845826,137.768837 C85.4839672,139.838991 85.2138134,142.211298 85.8784288,144.202683 C86.2895057,145.434683 88.3676596,145.303606 88.2519672,143.881452 C88.0175057,141.009452 87.8113519,131.040221 83.5436596,131.14176 C83.3104288,131.147298 83.1196596,131.476529 83.3344288,131.646375" id="Fill-461" fill="#323A45"></path>
            <path d="M114.949198,118.798991 C114.989813,121.167606 114.547352,123.549144 114.403967,125.915298 C114.247044,128.504221 114.314121,131.106068 114.430429,133.695606 C114.567044,136.736221 114.506736,142.467298 117.393506,144.264221 C118.174429,144.750991 118.999044,144.098068 119.077813,143.298068 C119.243967,141.618068 118.21566,139.884529 117.821813,138.244529 C117.235352,135.80576 117.035967,133.263606 116.830429,130.770683 C116.644583,128.510375 116.56089,126.236529 116.495044,123.970068 C116.441506,122.112837 116.623044,120.275298 115.846429,118.555914 C115.643967,118.107298 114.941813,118.345452 114.949198,118.798991" id="Fill-462" fill="#323A45"></path>
            <path d="M97.1916596,150.297452 C97.1270442,151.770068 97.8328903,153.128221 99.4864288,152.999606 C101.052583,152.877144 102.418121,151.876529 103.481506,150.791606 C104.369506,149.886375 103.04089,148.592221 102.10366,149.414375 C101.422429,150.011914 100.641506,150.542375 99.8562749,150.993452 C98.8716596,151.558991 98.4605826,151.230375 98.2636596,150.152221 C98.1485826,149.521452 97.2168903,149.708529 97.1916596,150.297452" id="Fill-463" fill="#323A45"></path>
            <path d="M44.2482749,188.581144 C45.4858134,187.173144 45.8648903,185.184221 46.4218134,183.436529 C47.2458134,180.851298 47.981198,178.234068 48.9122749,175.685144 C50.7122749,170.759606 53.9258134,167.341144 57.9073519,164.072837 C62.8230442,160.037144 67.9405826,156.243298 73.1504288,152.598375 C75.517198,150.942991 77.941198,149.374991 80.3227365,147.742991 C82.7295057,146.093144 84.8821211,144.188529 87.4550442,142.778683 C88.6255057,142.137452 87.8008903,140.05376 86.5301211,140.584837 C83.9947365,141.64576 81.8624288,143.244529 79.645198,144.841452 C77.0685826,146.697452 74.3424288,148.359606 71.725198,150.159606 C66.5485826,153.71776 61.5301211,157.49376 56.6544288,161.452529 C52.8021211,164.580529 49.4907365,167.707914 47.4975057,172.327606 C45.3295057,177.352221 44.8088903,183.004529 43.8353519,188.341144 C43.7947365,188.563298 44.0704288,188.783606 44.2482749,188.581144" id="Fill-464" fill="#323A45"></path>
            <path d="M116.24089,138.831606 C122.330121,140.160837 127.489506,143.231606 132.756583,146.43776 C138.10366,149.692529 143.733198,152.376837 149.235967,155.346068 C154.882121,158.392221 160.252583,162.153452 164.799044,166.694991 C169.20889,171.098683 169.350429,176.532529 170.153506,182.34176 C170.377506,183.95776 172.57566,183.314683 172.749198,181.990375 C173.430429,176.805144 172.226736,170.408837 168.768275,166.332529 C164.319044,161.087606 158.323352,156.94976 152.357813,153.620529 C146.363967,150.275914 140.031044,147.603914 134.067967,144.195298 C128.78366,141.174991 122.72766,137.378683 116.403352,137.632221 C115.73689,137.658683 115.54366,138.678991 116.24089,138.831606" id="Fill-465" fill="#323A45"></path>
            <path d="M81.2618134,146.670991 C81.2642749,146.664221 81.2667365,146.657452 81.269198,146.650683 C81.3528903,146.411298 81.0568903,146.208221 80.8525826,146.330683 C79.2581211,147.288221 80.1744288,152.603298 80.2901211,153.85376 C80.6445826,157.694991 81.3528903,161.590375 82.2495057,165.344837 C83.0070442,168.51776 85.5701211,178.687606 90.6796596,176.416837 C91.6125826,176.002068 91.6150442,174.366991 90.6796596,173.953452 C86.7504288,172.214991 85.6550442,167.205144 84.6488903,163.323298 C83.813198,160.098683 83.1067365,156.828529 82.4882749,153.555914 C82.1553519,151.796529 82.0439672,150.011298 81.7682749,148.246375 C81.7005826,147.811298 81.6328903,147.377452 81.5553519,146.944221 C81.3978134,146.067914 81.2618134,146.852529 81.0162749,146.858683 C81.1362749,146.855606 81.2236596,146.78176 81.2618134,146.670991" id="Fill-466" fill="#323A45"></path>
            <path d="M129.222429,144.105452 C127.803967,148.072221 123.998429,150.874068 120.923352,153.535606 C117.042121,156.894375 113.252583,160.290683 109.08089,163.296221 C105.594121,165.807606 101.891967,167.870991 98.1830442,170.021144 C95.5848903,171.527606 92.8378134,173.304221 89.7658134,173.402068 C88.2925826,173.449452 87.9775057,175.200221 89.0618134,176.000221 C91.4304288,177.746068 95.7233519,174.952837 97.7885826,173.794683 C101.90366,171.487606 105.96766,169.048221 109.787967,166.278375 C114.373198,162.953452 118.470429,159.072837 122.546736,155.159606 C125.665506,152.16576 129.569506,148.898683 130.41566,144.434683 C130.564583,143.649452 129.491967,143.352221 129.222429,144.105452" id="Fill-467" fill="#323A45"></path>
            <path d="M72.8845826,71.1263752 C73.037198,72.8414521 70.9910442,77.8451444 73.8944288,78.3343752 C74.7116596,78.4722214 75.3350442,78.0057598 75.4138134,77.1774521 C75.4618134,76.6691444 75.1947365,76.3042214 75.1350442,75.8242214 C75.0618134,75.2303752 75.1202749,74.6082214 75.1264288,74.0119137 C75.1393519,72.8279137 75.093198,71.756529 74.6095057,70.6592983 C74.2408903,69.823606 72.805198,70.2334521 72.8845826,71.1263752" id="Fill-638" fill="#323A45"></path>
            <path d="M76.7135057,92.999606 C77.7399672,95.8408367 78.2144288,98.1823752 80.9916596,99.8002214 C83.7910442,101.430375 87.7978134,100.923298 90.7842749,100.210683 C91.805198,99.9669906 91.4876596,98.5712983 90.5510442,98.487606 C87.8365826,98.2439137 85.1467365,98.900529 82.4605826,98.2488367 C79.4501211,97.5183752 78.9516596,94.7712983 77.2747365,92.6722214 C77.0655057,92.4106829 76.6021211,92.6919137 76.7135057,92.999606" id="Fill-639" fill="#323A45"></path>
            <path d="M79.8255057,112.462991 C81.3867365,111.721452 83.5996596,112.029144 85.2802749,112.044529 C87.597198,112.064837 89.9264288,112.244529 92.2181211,112.580529 C95.7036596,113.091914 98.8415057,115.328221 102.323352,115.526375 C103.465506,115.591606 103.96766,113.842683 102.916583,113.334991 C98.8679672,111.379914 94.3116596,110.307298 89.8408903,110.038991 C87.4279672,109.894375 85.0181211,110.049452 82.6199672,110.31776 C81.1861211,110.478375 80.0255057,110.600837 79.2993519,111.936837 C79.1067365,112.291914 79.4839672,112.624837 79.8255057,112.462991" id="Fill-1000" fill="#323A45"></path>
            <path d="M82.3485826,117.72576 C85.1381211,119.771914 88.4827365,119.90976 91.7405826,119.073452 C93.4002749,118.647606 94.9953519,117.944221 96.5867365,117.320837 C98.3153519,116.643914 100.186121,116.278991 101.848275,115.473452 C102.800275,115.011914 102.285198,113.606991 101.336275,113.582991 C98.5836596,113.512221 95.7264288,115.272221 93.2384288,116.304221 C89.5928903,117.816221 86.5042749,117.944837 82.7190442,116.846375 C82.1608903,116.683914 81.9307365,117.419298 82.3485826,117.72576" id="Fill-1001" fill="#323A45"></path>
            <path d="M82.8298134,111.94976 C82.845198,111.827914 82.8642749,111.706683 82.8864288,111.585452 C82.7664288,111.65376 82.6464288,111.722068 82.5264288,111.790375 C82.5725826,111.804529 82.6187365,111.819298 82.6655057,111.834068 C82.5621211,111.652529 82.4587365,111.470375 82.3553519,111.288837 C82.0101211,113.343606 82.1375057,116.856837 83.7036596,118.418068 C84.3787365,119.091298 85.2673519,118.378683 85.1559672,117.572529 C85.0175057,116.571914 84.3719672,115.652529 84.053198,114.68576 C83.6858134,113.572529 83.5258134,112.414375 83.2107365,111.288837 C83.0950442,110.875298 82.4593519,110.85376 82.3553519,111.288837 C82.3061211,111.494991 82.3824288,111.615606 82.3528903,111.818068 C82.3079672,112.130068 82.7842749,112.264221 82.8298134,111.94976" id="Fill-1002" fill="#323A45"></path>
            <path d="M83.5781211,114.366991 C83.4488903,114.383606 85.2685826,115.110375 85.6728903,115.229144 C87.4242749,115.744837 89.261198,116.051298 91.061198,116.339914 C93.8439672,116.786683 98.8285826,116.794068 100.493198,114.126991 C100.95289,113.390375 100.19166,112.331298 99.3381211,112.624837 C96.0550442,113.753452 93.2328903,114.304221 89.7682749,113.981144 C87.6981211,113.787914 85.3805826,113.608221 83.5781211,113.840837 C83.2458134,113.883298 83.2421211,114.410683 83.5781211,114.366991" id="Fill-1003" fill="#323A45"></path>
            <path d="M105.178736,111.218683 C105.614429,112.78976 105.653198,114.455606 105.610121,116.077144 C105.589813,116.828529 106.717198,116.81376 106.767044,116.077144 C106.886429,114.292529 106.539352,112.581144 105.690121,111.003298 C105.538121,110.720837 105.095044,110.915298 105.178736,111.218683" id="Fill-1004" fill="#323A45"></path>
            <path d="M86.0784288,122.158375 C86.1553519,125.192221 92.2876596,122.910375 93.6605826,122.294375 C94.3639672,121.978683 93.8519672,120.917144 93.1528903,121.090068 C92.0273519,121.368221 87.3270442,123.401452 86.6895057,121.992837 C86.5516596,121.688221 86.0704288,121.847606 86.0784288,122.158375" id="Fill-1045" fill="#323A45"></path>
            <path d="M68.2458134,62.3854521 C69.7522749,63.2512983 71.3627365,63.9171444 72.8925826,64.743606 C74.4679672,65.5940675 76.0076596,66.9159137 77.7233519,67.4131444 C78.6101211,67.6697598 79.3984288,66.4512983 78.6556596,65.8119137 C77.2950442,64.6414521 75.3578134,64.0432983 73.717198,63.3337598 C72.0138134,62.5971444 70.285198,61.863606 68.4150442,61.759606 C68.0753519,61.740529 67.9645826,62.2242214 68.2458134,62.3854521" id="Fill-1073" fill="#323A45"></path>
            <path d="M93.2378134,65.0519137 C92.413198,66.5429906 93.9695057,67.9146829 95.4095057,68.0857598 C97.1922749,68.2974521 99.013198,67.8974521 100.797198,67.8002214 C102.826121,67.6894521 104.923967,68.0439137 106.774429,67.1140675 C107.382429,66.8088367 107.140583,65.9897598 106.601506,65.791606 C104.320275,64.9540675 101.284583,65.5337598 98.8968903,65.7546829 C97.9128903,65.8457598 96.9424288,65.9971444 95.9553519,66.0648367 C94.9350442,66.1337598 94.4015057,65.4303752 93.6310442,64.948529 C93.5005826,64.8672983 93.3116596,64.9177598 93.2378134,65.0519137" id="Fill-1074" fill="#323A45"></path>
            <g id="Group-2" transform="translate(0.000000, 122.000000)">
                <path d="M23.4640204,65.9423183 C26.5399111,63.7539385 26.9364104,58.6078426 27.6948807,55.4263385 C28.130512,53.6004542 28.777341,51.8292278 29.3320947,50.0317038 C29.7780845,48.5868781 30.376574,46.7496496 29.6848582,45.3115273 C29.443736,44.8087774 28.5068698,44.9547038 28.3929266,45.46261 C28.0390121,47.0430493 27.9008992,48.6193634 27.4393717,50.1977401 C26.9674858,51.8091178 26.4196377,53.3869789 26.08011,55.0272325 C25.6905164,56.9082904 25.3601962,58.793989 24.9003952,60.6631871 C24.4659148,62.4302884 23.6222748,64.0014461 23.0145778,65.7082174 C22.9248044,65.9603658 23.2712377,66.0794788 23.4640204,65.9423183" id="Fill-76" fill="#808489"></path>
                <path d="M11.1486289,44.5743994 C14.6989186,46.7985753 18.238534,47.7409752 22.2947881,48.3462427 C24.8801163,48.7321779 28.761311,49.9270063 30.8166576,47.6181266 C31.3258242,47.0459553 30.6810933,46.1484316 30.0224857,46.5354887 C27.5796601,47.9698437 24.6378085,47.2097533 22.007648,46.9057172 C18.2219888,46.4676134 14.9369567,45.6856459 11.4501794,44.0325195 C11.1059315,43.8692823 10.8118531,44.3629204 11.1486289,44.5743994" id="Fill-77" fill="#808489"></path>
                <path d="M19.4864212,49.8642156 C21.8464101,49.9262403 24.2336258,50.1766857 26.5545727,49.7837512 C27.340037,49.650985 26.9958506,48.9234528 26.2263113,49.0065993 C23.9880719,49.2483278 21.7431542,49.1755745 19.4864212,49.2077603 C18.8360629,49.2168125 18.8396588,49.847117 19.4864212,49.8642156" id="Fill-78" fill="#808489"></path>
                <path d="M15.0296002,26.445221 C15.9277538,28.3752198 19.2511287,29.3712786 21.0841268,29.7990869 C23.3103901,30.3187227 26.7670927,29.9238643 27.867305,27.502318 C28.2667715,26.6240146 27.2595786,25.7051991 26.5448798,26.4360383 C25.8353489,27.1614758 26.0069179,27.7254049 26.5159405,28.5361881 C27.0378824,29.3664171 28.132927,28.8149117 27.9866799,27.8879937 C27.9055463,27.3764603 27.7319102,27.2959762 27.5226166,26.8773506 C27.4275302,27.2549238 27.3329605,27.6330372 27.237874,28.0111506 C27.3469134,27.9468714 27.4559528,27.8825921 27.5649921,27.8183128 C27.2817999,27.3116409 26.9986076,26.8049689 26.7148985,26.2982969 C25.8239798,26.7963263 25.1800792,27.5125811 24.2018256,27.8734093 C23.0261643,28.3066193 21.6479275,28.1613157 20.4505616,27.935528 C18.6372009,27.5936054 17.0403686,26.2070096 15.2735176,26.001748 C15.0420028,25.9747399 14.9463996,26.2669675 15.0296002,26.445221" id="Fill-79" fill="#808489"></path>
                <path d="M27.7554552,18.3937504 C28.0116865,20.0156859 27.5153548,21.557123 26.7807839,23.0316594 C26.2658398,24.063998 25.2167188,25.0196455 25.0101207,26.1303069 C24.9139565,26.6459323 25.5194811,27.2583735 26.129969,26.8852521 C27.5519593,26.0155422 28.163688,24.0444173 28.6407868,22.6438525 C29.1495268,21.1502794 29.1625555,19.568593 28.3895189,18.1593257 C28.2033946,17.8193828 27.7070629,18.0831785 27.7554552,18.3937504" id="Fill-80" fill="#808489"></path>
                <path d="M33.4657387,17.4053367 C35.3161793,18.2247888 31.3109068,25.5706105 31.0194433,27.0134527 C30.8137735,28.0349243 32.2987095,28.4032174 32.6947707,27.4391562 C33.395811,25.7325511 36.8792698,17.8304986 33.6473158,17.0077969 C33.3946357,16.9433456 33.2201102,17.2964737 33.4657387,17.4053367" id="Fill-81" fill="#808489"></path>
                <path d="M37.6149762,15.249213 C37.5356812,16.3795069 37.2506244,17.3883989 37.0170803,18.4507822 C36.8972696,18.9963932 37.4430739,19.238732 37.5562284,18.6898649 C37.7889043,17.559571 38.1596229,16.3888097 37.9252107,15.1817674 C37.8690675,14.8929145 37.6343659,14.9729189 37.6149762,15.249213" id="Fill-82" fill="#808489"></path>
                <path d="M20.9116892,22.204339 C20.714642,23.1210808 20.691985,24.1089938 19.8859451,24.8918771 C20.1722472,24.7787573 20.4585492,24.6661088 20.7455379,24.5534603 C20.4791465,24.5619443 20.4228473,24.5091551 20.1145748,24.4327992 C19.0277256,24.1627257 18.6329446,25.2005999 19.3950435,25.6040605 C19.7754065,25.8053195 20.2326659,26.1112143 20.7819264,25.9589739 C21.5021442,25.7591289 21.6751613,25.532418 21.8591636,25.0224362 C22.1825407,24.1217197 21.8680891,23.1799973 21.7191022,22.2792809 C21.6717284,21.991768 20.9851528,21.8630943 20.9116892,22.204339" id="Fill-83" fill="#808489"></path>
                <path d="M16.9019638,22.3816318 C16.0630449,21.3994881 15.0793923,20.5598673 13.9301001,20.0426471 C13.5098366,19.8529997 12.9609209,20.3299916 13.0021968,20.8000873 C13.0300714,21.1155917 13.0675949,21.3736271 13.3114979,21.5828139 C13.5580811,21.7942995 13.7387301,21.7575194 14.0158682,21.8442975 C14.630182,22.0362436 15.065455,21.1908759 14.6291099,20.7144587 C14.5680001,20.6403238 14.4983136,20.5759586 14.4200502,20.5219378 C14.1359435,20.331141 14.6103481,21.0345605 14.4414922,20.5909005 C14.2061661,20.9224961 13.9708399,21.2540917 13.7349777,21.5856874 C14.8086868,21.6305131 15.6256277,22.1586524 16.4184463,22.9000014 C16.7491894,23.2097588 17.201616,22.7327668 16.9019638,22.3816318" id="Fill-84" fill="#808489"></path>
                <path d="M30.2873109,32.1066351 C27.4882376,34.5042219 22.5552495,38.2528299 23.0322168,42.3223504 C23.1268531,43.1328602 24.1505482,43.2429167 24.4766381,42.5080065 C25.3613529,40.5141317 25.8150667,38.7578557 27.28166,37.011351 C28.5189628,35.5379305 29.9482423,34.2342234 30.9405722,32.5859467 C31.1817598,32.1853204 30.6334096,31.8098939 30.2873109,32.1066351" id="Fill-85" fill="#808489"></path>
                <path d="M9.23261306,13.1906659 C8.40260329,15.0118647 8.21561663,17.6417636 8.08490181,19.5813452 C7.95946248,21.4380089 8.04269792,23.3221454 8.04035326,25.1818061 C8.03859477,26.8761303 7.83167849,28.6199057 8.37212271,30.2637798 C8.67517006,31.1868668 10.4770416,31.3022527 10.6956811,30.2637798 C11.4694191,26.5854179 10.5456229,22.5029556 10.3609809,18.7876303 C10.3017782,17.6023026 11.3410489,13.6711906 9.69158033,13.031823 C9.49521502,12.9553986 9.31057302,13.0198349 9.23261306,13.1906659" id="Fill-518" fill="#323A45"></path>
                <path d="M9.49654934,14.8643059 C9.81683089,14.210708 10.0888867,13.5208292 10.4269908,12.87752 C11.0492072,11.6943291 12.4975507,11.1371193 13.6109354,10.5939887 C15.7192371,9.56512711 17.6147168,8.09060598 19.6166075,6.86301164 C21.3417246,5.80490871 23.1271239,4.81395253 24.9140957,3.87227341 C27.0548974,2.7448577 29.0599332,2.38800517 31.3648071,1.9201439 C32.2292004,1.74415441 32.1940795,0.357357271 31.3648071,0.157541518 C27.2042922,-0.84695231 22.0719246,3.20297186 18.6783031,5.20546144 C16.0835508,6.73629921 13.5726693,8.40088898 10.9731993,9.92414566 C9.07929221,11.0336917 8.983365,12.7047795 9.00171173,14.7262218 C9.0043327,14.9877693 9.37388833,15.1155647 9.49654934,14.8643059" id="Fill-519" fill="#323A45"></path>
                <path d="M31.4103147,1.06148147 C33.1300566,1.57589863 34.3550336,2.82069818 35.6152735,3.95651527 C36.8548981,5.07383534 38.1840361,6.05717699 39.5153442,7.07951236 C43.0074509,9.7625803 40.4571334,13.4744826 39.4008756,16.7054623 C39.037397,17.8157835 40.8477373,18.5346677 41.4385256,17.4973347 C43.0871992,14.6028009 45.5127405,9.80007426 42.7351133,6.84505012 C41.023509,5.02484323 38.6505907,3.75754731 36.6568837,2.21429583 C35.3044179,1.1674644 33.4419971,-0.192316628 31.5627587,0.0226487554 C30.9388776,0.0941372434 30.7582233,0.867012784 31.4103147,1.06148147" id="Fill-520" fill="#323A45"></path>
                <path d="M31.095045,7.6267797 C32.8803344,9.54524754 34.4413634,11.2108499 35.6989811,13.5347298 C36.578434,15.1594808 36.8626073,16.5122333 36.3541735,18.3345192 C35.8946594,19.9809886 34.84866,21.3756268 34.6507831,23.0831149 C34.5271101,24.1499071 36.0359215,24.2486746 36.5679905,23.5717812 C39.0579417,20.4039823 39.8329596,16.3922644 37.9630228,12.8707642 C37.0297033,11.1136338 33.9433732,6.2962628 31.2467506,7.08691975 C30.9900603,7.16241741 30.9235516,7.44268953 31.095045,7.6267797" id="Fill-521" fill="#323A45"></path>
                <path d="M27.0436287,11.4498697 C28.7137172,13.9640153 30.4062905,16.1730462 30.1096836,19.501185 C29.9063643,21.7882192 29.5681367,23.5430271 28.6390871,25.5668666 C28.270242,26.3707777 28.8682399,27.1168496 29.6221957,26.9847216 C31.8701894,26.5899297 31.8955445,21.7404621 31.9883538,19.8917319 C32.1758859,16.1412082 30.0747605,13.0767947 27.4096034,11.0439344 C27.1948026,10.8799683 26.8848004,11.2105536 27.0436287,11.4498697" id="Fill-522" fill="#323A45"></path>
                <path d="M19.214437,13.7695136 C20.3061176,14.4408143 21.3651039,15.0204729 22.2897375,15.8755026 C23.1065822,16.6317725 23.7017193,17.5940146 24.8644076,17.9605831 C25.5090968,18.1638862 26.1563403,17.5410757 25.9663051,17.0010101 C25.568866,15.8697194 24.2115448,15.1001036 23.1781008,14.40567 C22.097148,13.6796509 20.8322903,13.0866464 19.4535135,13.0012324 C18.9426663,12.969647 18.8639958,13.5537542 19.214437,13.7695136" id="Fill-523" fill="#323A45"></path>
                <path d="M23.5793004,17.6763946 C23.5007542,18.963438 23.7314835,20.2484538 23.6458464,21.5415802 C23.5585729,22.8559967 22.6738379,23.8753919 23.1298419,25.2105917 C23.4669357,26.1985585 25.1496777,26.3257928 25.4158618,25.2105917 C26.0289581,22.6456292 26.5155078,19.7096089 24.950585,17.3311891 C24.5567634,16.732022 23.6196643,17.0052463 23.5793004,17.6763946" id="Fill-524" fill="#323A45"></path>
                <path d="M15.0462169,17.4376385 C15.5680701,18.2405221 16.2890894,18.8627043 16.9014291,19.5797152 C17.5429734,20.3309699 18.1079155,21.5837634 19.0008111,21.9546493 C19.4901084,22.1580044 19.9980775,21.6417144 19.9999925,21.1175219 C20.0033439,20.0096057 18.8815988,19.2256878 18.1567494,18.6345884 C17.3423711,17.9707869 16.3623403,17.2089958 15.348796,17.0045871 C15.1429273,16.9634946 14.8958849,17.2058348 15.0462169,17.4376385" id="Fill-525" fill="#323A45"></path>
                <path d="M20.8699626,20.1200744 C18.8514802,21.3259525 18.3044422,23.333105 20.0377043,24.7399628 C20.6608011,25.2454973 22.1534542,24.9709132 21.8206971,24.286877 C21.5281634,23.6874639 21.1932124,23.1228697 21.1976004,22.4908414 C21.2027197,21.7988719 21.7738917,21.1791845 21.98671,20.5118966 C22.1081115,20.1297708 21.3709266,19.8208086 20.8699626,20.1200744" id="Fill-526" fill="#323A45"></path>
                <path d="M23.2325541,26.291398 C24.9757936,27.5161244 28.9012992,27.1504547 29.9075092,25.2162417 C30.266245,24.5266654 29.5184071,23.6826629 28.7468936,24.1206895 C27.9311172,24.5844539 27.2177633,25.0657004 26.2779477,25.285685 C25.3062216,25.5129538 24.3164816,25.2730589 23.3514464,25.4337982 C22.8779359,25.5124682 22.9288897,26.0777265 23.2325541,26.291398" id="Fill-527" fill="#323A45"></path>
                <path d="M28.080402,24.8365029 C30.4820826,27.877259 35.7481161,24.2866275 35.9965462,21.7217602 C36.0768871,20.887813 34.7338833,20.7992118 34.231895,21.3390397 C33.0569804,22.6018349 31.3031553,25.4982716 28.8536121,24.2167513 C28.3789739,23.9683026 27.7812603,24.4578927 28.080402,24.8365029" id="Fill-528" fill="#323A45"></path>
                <path d="M29.6011162,25.0016012 C26.0064602,25.3179224 23.8243068,31.1128468 25.6698073,33.6052395 C26.3298242,34.4956984 27.6886175,33.7301814 27.2340253,32.7866717 C26.2074553,30.6586929 27.4316981,26.7165775 29.8048799,25.6758908 C30.1564829,25.5216966 29.9992305,24.9663993 29.6011162,25.0016012" id="Fill-529" fill="#323A45"></path>
                <path d="M9.04170094,30.007676 C7.57021078,30.4291762 8.05762907,33.2470766 8.15613887,34.3068774 C8.3490539,36.3856398 8.7687467,37.8366896 10.7148283,38.8642225 C15.6675112,41.4799439 22.8669359,44.6840514 28.4537756,41.9644675 C29.4804324,41.4648183 28.9247756,39.9951136 27.9011972,39.9593163 C25.5333704,39.8771339 23.3143345,40.3959422 20.9162366,40.0399862 C18.3016223,39.6522665 15.8378511,38.5934741 13.5095309,37.4071224 C11.9318348,36.6034486 10.9036388,36.3301793 10.4162205,34.5256945 C10.0704101,33.2440515 9.98831856,31.1884816 9.27463557,30.1009506 C9.2248676,30.0248183 9.13302774,29.9814583 9.04170094,30.007676" id="Fill-530" fill="#323A45"></path>
                <path d="M5.47590069,34.1368689 C3.91487997,36.3594924 6.56672212,38.7909346 8.07248547,40.0917809 C10.4869256,42.1783142 13.5741753,43.4130439 16.5493754,44.1987308 C19.2068456,44.9012209 21.9466903,44.9877236 24.6686274,44.9976411 C26.2531837,45.0031508 29.103543,45.099571 29.8981236,43.2130408 C30.4394411,41.9270707 28.6732519,40.8041885 28.1283528,42.0989742 C27.676061,43.1728198 24.6624877,42.8576635 23.7517644,42.8620713 C21.9221314,42.8708868 20.1139875,42.8301148 18.2997038,42.5375484 C16.0351749,42.1728045 13.8044144,41.458744 11.7153788,40.4559738 C10.0806816,39.6713888 5.10444836,37.0344339 6.02335797,34.3859085 C6.15229184,34.0134511 5.66316178,33.8707491 5.47590069,34.1368689" id="Fill-531" fill="#323A45"></path>
                <path d="M30.84815,42.2705078 C28.8872364,45.2094713 28.6268959,49.1740297 27.9008085,52.4676868 C26.9931992,56.5872285 26.1214167,60.7119711 25.0340769,64.799788 C24.7116368,66.012091 26.7734623,66.5129266 27.174124,65.3136256 C29.6503447,57.9071877 30.4086761,50.2453914 31.9886327,42.6891709 C32.1104434,42.1040826 31.2213446,41.7103832 30.84815,42.2705078" id="Fill-532" fill="#323A45"></path>
                <path d="M4.51969896,38.269122 C4.63933171,38.1012826 4.75896446,37.9334432 4.87859721,37.7656037 C4.66277973,37.5825062 4.44696225,37.3994086 4.23114477,37.2163111 C2.51465405,40.885628 1.79111517,45.3983511 1.0460424,49.414922 C0.266036859,53.6182734 -0.202444995,57.8873926 0.0856306702,62.175453 C0.158845914,63.2650938 1.6001813,63.2845611 1.63798525,62.175453 C1.78920105,57.7826903 2.15144902,53.4262315 2.86589581,49.0987104 C3.50186351,45.2484006 4.77475599,41.3502117 4.99918703,37.445183 C5.02837742,36.9390341 4.26224928,36.8185475 4.18951257,37.3246964 C4.15745099,37.5483069 4.12538941,37.7724436 4.09332784,37.9960541 C4.0588736,38.235975 4.34264249,38.516935 4.51969896,38.269122" id="Fill-533" fill="#323A45"></path>
                <path d="M28.1154137,39.0857107 C28.4281857,39.5327077 28.7002858,39.8050467 28.7151797,40.357157 C28.7277822,40.8227346 28.448808,41.3668817 28.3405408,41.8229036 C28.1096853,42.7944053 29.2708368,43.3539478 30.0567765,42.7492809 C31.7025526,41.4831434 31.097631,38.5766014 28.9947267,38.0255529 C28.357726,37.8583272 27.7367649,38.5463415 28.1154137,39.0857107" id="Fill-534" fill="#323A45"></path>
                <path d="M40.4358162,17.9898378 C36.8742225,19.8462155 33.5260536,23.3801651 31.6359416,26.9696246 C30.0774189,29.9297945 31.4813386,32.2339873 34.7784937,31.9809905 C40.4436244,31.5465191 47.9619084,21.3279017 41.5294889,17.120895 C40.8460085,16.6741474 39.9912677,17.5585689 40.4207203,18.2577796 C41.2197625,19.5579912 42.0568047,20.4979226 41.6460918,22.174427 C41.3754065,23.2766179 40.6414329,24.4956998 40.0870486,25.4831347 C38.9293485,27.5450057 37.1678119,28.9663782 34.9221651,29.5449618 C31.2778041,30.4832918 35.0741653,25.1783643 35.7706594,24.2624516 C37.3208532,22.2240656 39.0365815,20.3281905 40.8465291,18.5353289 C41.1338719,18.2508408 40.7700084,17.815302 40.4358162,17.9898378" id="Fill-535" fill="#323A45"></path>
                <path d="M34.8972125,30.2517179 C34.4718414,31.1085845 32.2101741,31.7540223 31.3175585,32.0992668 C30.1282555,32.5595929 27.9345046,32.6514797 27.1297208,33.5868515 C26.9412911,33.8063093 26.9729513,34.1774248 27.1297208,34.400005 C28.2107661,35.9326409 31.4692214,34.1136393 32.6529073,33.5346634 C33.801869,32.9730834 36.3009884,31.8213762 35.9700874,30.3743823 C35.8761279,29.9622299 35.0989191,29.8462563 34.8972125,30.2517179" id="Fill-536" fill="#323A45"></path>
                <path d="M28.4743621,34.0094756 C27.3628603,34.2208229 26.6816346,35.3208599 26.2125851,36.2203746 C25.6013668,37.3930944 24.6524975,39.0524284 25.1296248,40.3679365 C25.3789588,41.0545575 26.3806028,41.2659048 26.7909538,40.5761909 C27.3569366,39.6251281 27.2826211,38.3761171 27.6439669,37.3224735 C27.9519993,36.4260516 28.2250281,35.4100381 28.8841746,34.6832096 C29.1663582,34.3723744 28.8954835,33.929576 28.4743621,34.0094756" id="Fill-537" fill="#323A45"></path>
                <path d="M23.0501733,28.4867023 C24.4768065,30.6784371 24.4234127,32.7828352 23.7700891,35.1877131 C23.5883104,35.854695 24.7653727,36.3574008 25.1025333,35.6743032 C26.3119919,33.2247172 26.7247436,29.5612554 23.5631133,28.042221 C23.2337518,27.8841832 22.8635951,28.2002588 23.0501733,28.4867023" id="Fill-538" fill="#323A45"></path>
                <path d="M9.0992352,28.1666131 C8.6718856,30.2496357 9.68415777,32.1032939 10.9984041,33.6792486 C12.7370731,35.7642442 14.5752617,36.5248458 17.1910706,36.988507 C18.0013762,37.1320447 18.3521346,35.8865718 17.5335357,35.7326758 C15.6392452,35.3765445 14.0044866,34.9908179 12.5121779,33.6728363 C10.9144953,32.2616292 9.80075201,30.3487802 9.54658632,28.227777 C9.51829149,27.9905206 9.15582488,27.8903895 9.0992352,28.1666131" id="Fill-539" fill="#323A45"></path>
                <path d="M13.3559385,17.5459187 C13.5243625,17.7522141 13.2152006,20.5266995 13.1904809,20.9021249 C13.115992,22.0278625 12.9399872,23.2457059 13.0207385,24.3800616 C13.0658932,25.0183387 13.7006969,25.3038128 13.7735378,24.5464984 C13.9172421,23.0496444 13.9716256,21.5436337 13.9890942,20.0279277 C13.9966749,19.360026 14.0978612,17.2184314 13.4946988,17.0083655 C13.2857344,16.936189 13.1954248,17.3493186 13.3559385,17.5459187" id="Fill-540" fill="#323A45"></path>
                <path d="M13.0062933,22.2935695 C13.6938219,25.0605147 15.5453843,28.1629302 18.0719081,29.4145132 C20.3989282,30.5675894 24.0528315,30.1779405 23.999421,26.7914973 C23.9852829,25.891255 22.8971759,25.6411573 22.4421398,26.3509532 C19.4181657,31.066143 15.5380534,23.6781367 13.3251851,22.0369047 C13.1623356,21.9165076 12.9617846,22.1140683 13.0062933,22.2935695" id="Fill-541" fill="#323A45"></path>
                <path d="M16.931058,21.0704037 C16.5582226,20.5863676 16.278596,20.2495997 15.7174599,20.0601 C15.2104602,19.8884675 14.6851011,20.1104528 14.249185,20.3979508 C13.3029738,21.0222167 12.7832638,22.3736197 13.086428,23.5739644 C13.2205922,24.1034805 13.98933,24.1792803 14.0830096,23.5739644 C14.1804552,22.9410357 14.4219509,22.3275983 14.787725,21.8419379 C15.3097888,21.1494521 16.0027355,21.3606089 16.6810888,21.564727 C16.9395316,21.6426926 17.0986457,21.2880576 16.931058,21.0704037" id="Fill-542" fill="#323A45"></path>
            </g>
        </g>
    </g>
</svg>