<svg xmlns="http://www.w3.org/2000/svg" viewBox="0 0 200 100"><defs><style>.cls-1{fill:#939393;}.cls-2{fill:#9f9f9f;}.cls-3{fill:#d9d9d9;}.cls-4{fill:#484848;}.cls-5{fill:#585858;}.cls-6{fill:#868686;}.cls-7{fill:#686868;}.cls-8{fill:#f1f1f1;}.cls-9{fill:#f9f9f9;}.cls-10{fill:#c5c5c5;}.cls-11{fill:#767676;}.cls-12{fill:#bdbdbd;}.cls-13{fill:#646464;}.cls-14{fill:#eee;}.cls-15{fill:#9b9b9b;}.cls-16{fill:none;stroke:#000;stroke-linecap:round;stroke-linejoin:round;stroke-width:0;}</style></defs><title>RQ-PortfolioItemLogoA</title><g id="RQ_2" data-name="RQ 2"><path class="cls-1" d="M2.28,83.84l0,0Z"/><path class="cls-1" d="M0,75.78H0v0l0,0L.11,76A.12.12,0,0,0,.17,76l.07.15,0,0c0-.61,0-.83,0-.76h0l0,0c0-.12-.08-.23-.13-.35A3.54,3.54,0,0,0,0,74.74v1l0,.05Z"/><path class="cls-1" d="M1.41,82.76l0,0Z"/><path class="cls-1" d="M1.85,83.31l0,0Z"/><path class="cls-1" d="M3.6,85.32l.06.06Z"/><path class="cls-1" d="M3.16,84.84l0,.05Z"/><path class="cls-1" d="M2.72,84.35l0,0Z"/><path class="cls-1" d="M.93,79.75l-.07-.13Z"/><path class="cls-1" d="M.78,79.47l0-.07Z"/><path class="cls-1" d="M1,82.19H1Z"/><path class="cls-1" d="M4.51,86.2l.07.06Z"/><path class="cls-1" d="M1.12,80.07,1,79.91Z"/><path class="cls-1" d="M179.87,49.66c1.82,2.11,4.33,1.94,6.53,2,.76,0,.56,0,.75-.09a3.63,3.63,0,0,0,.72-.33,1.39,1.39,0,0,0,.59-1c-.16-.84-1.55-1.95-2.41-2.34-1.44-.58-2.74-.87-6.12.08C178,48.54,178.78,48.34,179.87,49.66Z"/><path class="cls-1" d="M9.53,89.53l.15.06Z"/><path class="cls-1" d="M9,89.27l.14.06Z"/><path class="cls-1" d="M5,86.62l.07.06Z"/><path class="cls-1" d="M8.44,89l.13.06Z"/><path class="cls-1" d="M10.68,90l.17.06Z"/><path class="cls-1" d="M7.91,88.72l.12.06Z"/><path class="cls-1" d="M10.1,89.76l.16.06Z"/><path class="cls-1" d="M1.34,80.44l-.12-.19Z"/><path class="cls-1" d="M5.44,87l.08.07Z"/><path class="cls-1" d="M5.91,87.39l.09.06Z"/><path class="cls-1" d="M7.39,88.42l.11.06Z"/><path class="cls-1" d="M11.28,90.18l.19.06Z"/><path class="cls-1" d="M6.4,87.75l.09.07Z"/><path class="cls-1" d="M6.89,88.09l.1.07Z"/><path class="cls-1" d="M1.47,53.53l.06-.05Z"/><path class="cls-1" d="M1.16,53.82l0,0Z"/><path class="cls-1" d="M1.85,53.2l0,0Z"/><path class="cls-1" d="M.9,54.07h0Z"/><path class="cls-1" d="M.43,54.57h0Z"/><path class="cls-1" d="M2.28,52.86l.1-.07Z"/><path class="cls-1" d="M73.53,16.78s0,.1,0,.15l.07-.06-.07.06S73.52,16.83,73.53,16.78Z"/><path class="cls-1" d="M1.68,81l-.24-.36Z"/><path class="cls-1" d="M104.18,43.39a1.23,1.23,0,0,0-.29,0,1.23,1.23,0,0,1,.29,0Z"/><path class="cls-1" d="M180.9,0c.13.14.32.32.63.6A9.07,9.07,0,0,1,183,2.29a28.33,28.33,0,0,1,4.12,6.59c1.07,2.55,1.31,7.63.57,10.7-1.05,3.95-1.4,4-4.75,10.26-.52,1-7.34,10.28-5.36,16.35l.71-.57c3.4-2.68,9.9-2.74,12.8-2.32,3.5.51,3.77,1.15,5.94,2.43A10.68,10.68,0,0,1,200,48.21V0Z"/><path class="cls-1" d="M.33,54.66l0,0Z"/><path class="cls-1" d="M200,100V94.31a18.86,18.86,0,0,1-3.52,5.69Z"/><path class="cls-1" d="M.3,54.69l0,0Z"/><path class="cls-1" d="M4.85,84.63l-.4-.38Z"/><path class="cls-1" d="M3.73,83.5l-.37-.41Z"/><path class="cls-1" d="M4.25,84l-.35-.36Z"/><path class="cls-1" d="M2.7,82.33,2.46,82Z"/><path class="cls-1" d="M2,81.38l-.18-.26Z"/><path class="cls-1" d="M2.31,81.83l-.2-.26Z"/><path class="cls-1" d="M.72,56.67l-.05,0A5.94,5.94,0,0,0,0,57.5v2l.18-.32C.17,57,.1,57.36.72,56.67Z"/><path class="cls-1" d="M1,76.79l-.14-.26Z"/><path class="cls-1" d="M.23,54.7h0c-.08,0,0-.38,0-1.22S.12,52.85,1,52.1a12.15,12.15,0,0,1,11-2.6c1.37.36.08.63,2.37-1.11A8,8,0,0,1,20,46.59c3.47.06,5.55.69,6.45,4a8.08,8.08,0,0,1-.29,5.66c-.42,1.1-.47,1.32-.85,1.32,0,0,0,0,0,0,0,.19-.16.42-.05,0,0-.08,0,0-.14-.1s-.21-.49-.21-.62c.11-3-.93-3.85-2.55-4.45a2,2,0,0,0-2.63.67,3.2,3.2,0,0,0-.89,2.06A4,4,0,0,0,19,57a4.36,4.36,0,0,0,1,2.14c1.52,2,3.35,3.13,5.57,1.89A14.56,14.56,0,0,0,30,57.13c.65-.65,1.33-5,.62-8.65-.36-1.7-1.54-5.16-1.87-6.16-.42-1.32-8.67-18.7-3.93-32.17a24.18,24.18,0,0,1,4.22-6.92c.71-.8,2-2.12,3.05-3.24H0V55l.06-.09Z"/><path class="cls-1" d="M.65,76.17l0-.07Z"/><path class="cls-1" d="M5.68,85.39,5,84.81Z"/><path class="cls-1" d="M.78,76.43l-.07-.13Z"/><path class="cls-1" d="M3.26,83l-.42-.49Z"/><path class="cls-1" d="M117,65.5l-1.44-1-.71-.5.71.5Z"/><path class="cls-1" d="M120.8,68.23l.4.29Z"/><path class="cls-1" d="M120.07,67.7l.5.36Z"/><path class="cls-1" d="M103.16,43.73a4.4,4.4,0,0,1,.52-.22A4.4,4.4,0,0,0,103.16,43.73Z"/><path class="cls-1" d="M197.24,64a18.67,18.67,0,0,1-3.8,3.08c-.15.08-.16-.05,1.09,1.71A10.3,10.3,0,0,1,196.39,72c.28.75.73,1.2,1.13,2A47,47,0,0,1,200,80V60.54A12,12,0,0,1,197.24,64Z"/><path class="cls-1" d="M119.25,67.11l.56.4Z"/><path class="cls-1" d="M114.56,97.92c.07.25.15.57.27,1l.36,1.09h0l-.36-1.09C114.71,98.49,114.62,98.17,114.56,97.92Z"/><path class="cls-1" d="M113.13,63.15a4.28,4.28,0,0,1,.66.22A4.28,4.28,0,0,0,113.13,63.15Z"/><path class="cls-1" d="M114.28,63.61c.17.1.36.21.58.35C114.65,63.82,114.46,63.71,114.28,63.61Z"/><path class="cls-1" d="M11.9,90.36l.2.05Z"/><path class="cls-1" d="M118.67,66.69l.58.42Z"/><path class="cls-1" d="M117,65.5l.52.38Z"/><path class="cls-1" d="M117.53,65.87l1.14.82Z"/><path class="cls-1" d="M15.27,91l.34,0Z"/><path class="cls-1" d="M14.56,90.93l.3,0Z"/><path class="cls-1" d="M16,91.12l.39,0Z"/><path class="cls-1" d="M13.19,90.68l.24,0Z"/><path class="cls-1" d="M13.86,90.81l.27,0Z"/><path class="cls-1" d="M12.54,90.53l.21,0Z"/><path class="cls-1" d="M16.77,91.19l.49,0Z"/><path class="cls-1" d="M4.11,85.83l-.06-.06Z"/><path class="cls-1" d="M7.38,93.56c-.11,0-6.5-2.84-6.57-2.88-.43-.21-.67-.33-.81-.42v5.55a4.92,4.92,0,0,1,2.52-1.43A15.49,15.49,0,0,1,7.38,93.56Z"/><path class="cls-1" d="M.39,81.46a.27.27,0,0,0,.15.14l-.21-.29c-.06-.1,0,0,0-.85,0-1.66-.11-2.13.08-1.77A7.93,7.93,0,0,0,0,77.54v3.13l.12.22C.21,81.07.29,81.27.39,81.46Z"/><path class="cls-1" d="M17.55,91.25l.81,0Z"/><path class="cls-2" d="M199.39,58.65A12.86,12.86,0,0,0,200,57.2v-.32a13.36,13.36,0,0,1-.74,2Z"/><path class="cls-2" d="M200,51.9V51a7.22,7.22,0,0,0-1.85-2.62A9.48,9.48,0,0,1,200,51.9Z"/><path class="cls-2" d="M29.78,78.4c1.86-1.24,1.23-.71,2.48-2.44,4.37-7.21,3.74-7.86,4.94-14.69,1-5.95.24,1.82-6.74,6.87-2.2,1.6-2.73,2.26-6.34,2.76-4.37.63-6.15-.54-7.72-1.43a6.22,6.22,0,0,1-1.94-1.82,12,12,0,0,1-3-4.74c-1.7-4.34-.75-7.77-1.35-4C8.15,71.21,21,79.12,30.57,71.83c2.33-1.82,2.5-3.11,3.88-5,.07-.08.26-.41-.67,1.65-1.37,3-3.1,5.23-6.92,6.33-8.92,2.67-15.58-2.79-17.44-9.73-1.27-4.69,0-6.82-1.14-3.39-1.7,8.76-.25,9.6,1.79,13.68,1.23,2.5,1.72,2.42,3.86,4.22a5.72,5.72,0,0,0,2.41,1.23,10.64,10.64,0,0,0,5.29.76C23.85,81.3,25.57,81,29.78,78.4Z"/><path class="cls-2" d="M32.69,50.78c-.07-.66-.09-1-.1-1.18,0,.85.21,9.79-4.93,14.91C32.69,61.09,33.09,56.81,32.69,50.78Z"/><path class="cls-2" d="M16.75,56.78c.17-1.59.74-3.82,2-4.61a2.36,2.36,0,0,0-.68.17,5.63,5.63,0,0,0-2.3,2,5.16,5.16,0,0,0-1.12,5.15,7.23,7.23,0,0,0,1.08,2.33,5.15,5.15,0,0,0,1,1.46,6.14,6.14,0,0,0,4.67,1.89A12.44,12.44,0,0,1,18.6,63,9.67,9.67,0,0,1,16.75,56.78Z"/><path class="cls-3" d="M135.38,81.24c-.16-4-.64-4.09-3-5.86-4.47-3-6-3.15-10.65-6.46l-.57-.41-.4-.29-.23-.16-.5-.36-.27-.19-.56-.4-.58-.42-1.14-.82L117,65.5l-1.44-1-.71-.5c-.21-.14-.4-.26-.58-.35a5.09,5.09,0,0,0-.49-.24,4.28,4.28,0,0,0-.66-.22c-.52-.13-1.08-.19-2-.41-4-.93-4.54-1.64-7.66-2.39a31.51,31.51,0,0,1-4-1.08,1.59,1.59,0,0,1-1.77.8,6.26,6.26,0,0,1-1.33-.65,2.78,2.78,0,0,1-1.14-.88l-.81-.93c0,2.83,2.07,3.79,4.59,4.92,3.7,1.63,3.7.85,6.61,2.44,3.51,1.69,1.13,1.4,5.14,1.4s4.17,0,5.65,1c2.87,1.84,3.85,2.09,5.89,3.38a37.5,37.5,0,0,0,4.76,2.51c1.42.61,8,4.9,5.52,3.53-2.27-1.24-7.24-3.22-7.32-3.25-2.34-1.06-3.3-1.88-6.07-3.33-4.93-2.36-2.82-2.76-7.45-2.76-.82,0-.86,0-.73,0s0,0-.06,0a8.24,8.24,0,0,0-1.74-.07c-1.95.11-6-.23-6.09-.24-1.83-.09-2.9.49-4.69,1.31-.78.36-3.06,1.61-3.19,1.57.64,1.12-.24,2.49-1.75,2.94a11.72,11.72,0,0,1-2.07.56c2.51.9,3.33.73,5.16.07a25,25,0,0,0,5-2c.9-.52.85-.13,1.82-.31a15.13,15.13,0,0,1,4.43,0c4.94.66,2.57.86,4.75.35,2.93-.69,3.22-.42,9.14,1.93,10.14,4,17.73,5.42,4.11,2.61-1.65-.43-8.26-3.1-8.34-3.13-2.67-1.08-3.27-.93-11.79,1.68A16.14,16.14,0,0,0,102.27,76c-.5.42-2.28,3.15-2.94,3.37.76.66,1,2.09-1.43,3.84-.11.08-.46.18.58,0A8.84,8.84,0,0,0,99.82,83c2-.54,2.32-.68,3.33-1.74,1.78-2,.81-1.39,5-2.9,2.77-1.07,2.27-1.16,3.47-1.27,2-.15,2,.11,4.41,2a9.72,9.72,0,0,0,1.77,1.16,14,14,0,0,0,1.37.87c.28.12.4.16.46.33.25.11.2.1.29.08,4-.7,11.4-3.24,6.88-1.46a38.5,38.5,0,0,1-10.5,3.2c-6.76,1-2.52.32-8.19,3.39-2.92,1.58-1.85.51-3.77,2,0,0-.52.42-.55.38,1.28,1.73-1.3,3.15-3.44,3.29-.3,0-.62-.1,0,.31,1.19.73,4.27.71,6.56-.9,1.57-1,.3-.07,4.68-1.87,2.55-1,2.13-2,7.48-2.65,5-.7,4.57,0,8.63-1.42,1.81-.78-.44.56-1.54,1-5.9,2.46-5.11-1.59-4,5.76.36,2.33.54,4.86.68,7.4h14.57c-.23-1.24-.44-2.53-.56-3.7C137,96.23,135.44,82.59,135.38,81.24Zm-.69-1.38.06,0S134.69,79.88,134.7,79.86Z"/><path class="cls-4" d="M102.82,94.37c-.1,0,0-.11.24,1.09a11.45,11.45,0,0,1,.13,4.54h1.05a17.5,17.5,0,0,0-.9-5.1C103.1,94.11,103.34,94.34,102.82,94.37Z"/><path class="cls-4" d="M101.56,97a9.17,9.17,0,0,0-3,3H100C101.64,97,101.68,99.08,101.56,97Z"/><path class="cls-3" d="M118.55,88.57c-.09-.18.15-.12-.9.1a22.89,22.89,0,0,0-5.24,2.19,52.14,52.14,0,0,1,4.77,9.14h3.58c0-4.76-.32-9.53-.32-9.53C119.59,90.36,118.92,89.36,118.55,88.57Z"/><path class="cls-3" d="M114.56,97.92a16.63,16.63,0,0,0-.66-2.24,14.34,14.34,0,0,0-1.65-3.13,8.19,8.19,0,0,0-.78-1.26,23.37,23.37,0,0,0-3,1.12c-4.32,2.34-4.62.82-4,2.53a7,7,0,0,1,2.3.58c1.76.7,2.9,2.57,3.48,4.48h5l-.36-1.09C114.71,98.49,114.62,98.17,114.56,97.92Z"/><path class="cls-3" d="M101.22,100l0,0h.56l0-.14C101.93,99.09,102,98.95,101.22,100Z"/><path class="cls-5" d="M87,59.69s-2.24,0-2.48,0c-.64,0-.67-.12-.56,0C84.55,60.49,86.56,60.49,87,59.69Z"/><path class="cls-3" d="M105.21,73.78c3.83-1.1,3.27-.87,2.47-1a18.65,18.65,0,0,0-3-.18c-.17,0-.13-.14,0,.77C104.82,74,104.69,73.93,105.21,73.78Z"/><path class="cls-3" d="M105.26,100h.24C105.26,99.52,105.26,99.57,105.26,100Z"/><path class="cls-4" d="M104.91,96.45s.28,1.41.26,1.54a6.89,6.89,0,0,1,1.51,2h2.19C107.73,96.87,105.22,96.34,104.91,96.45Z"/><path class="cls-6" d="M102.39,74.75c.76-.36.75-.13.64-.59,0-.3,0-.24-.23-.27a4.52,4.52,0,0,0-2.19.15c-1.09.2-.77-.16-.77,2.5C99.83,77.52,100.2,75.75,102.39,74.75Z"/><path class="cls-7" d="M118.51,16.44a1.43,1.43,0,0,0,0-1.39c-.1-.22,0,.1-.31.34a1.15,1.15,0,0,1-.85.27.81.81,0,0,1,0,.14A1.74,1.74,0,0,1,118.51,16.44Z"/><path class="cls-7" d="M115.09,15.88a1,1,0,0,1,.57-1,.91.91,0,0,1,1.06.06.86.86,0,0,1,.65-.86c-1.55-.66-4,.68-3.18,2.4A1.38,1.38,0,0,1,115.09,15.88Z"/><path class="cls-8" d="M117.57,14.2c-1.1.5-.26,1.63.61,1,.26-.22.33-.37-.09-.75C118,14.41,117.65,14.17,117.57,14.2Z"/><path class="cls-9" d="M97.41,46.7l2.93,0c2.1,0,3.6,1,5.38-.27.35-.28.26-.19-.14-.44-1.46-.91-1.49-2.13-2.77-1.7-.64.61-1.11,1.77-3.57,1.18-1.7-.41-2.13-1.2-3.6-.17-.3.21-.66.43-1,.62S96.08,46.7,97.41,46.7Z"/><path class="cls-2" d="M128.29,8.66c2.64,5.4,5.34,8.45,8,16.59a48.83,48.83,0,0,1,2,11.11c0,1.41-1,.58.36,1.26a14.29,14.29,0,0,1,4.56,4,7.6,7.6,0,0,1,1.2,4.5c1.72-4.18,3.08-7.42,3.65-12.23.24-2.2.37-4.3.4-6.3-1.47-1.14-.43-1-7.1.79a.56.56,0,0,1-.69-.7c.32-.34.07-.1,2.23-2.16s2.19-1.9,2.13-2a8.71,8.71,0,0,1,1.66-9.65l.23-.24A48.14,48.14,0,0,0,141.27,0h-7a80.76,80.76,0,0,1,4,19.87c.29,3.28.49,3.85-.85-2.25L134.09,0h-2.62A67.44,67.44,0,0,1,134,6.76c1.08,3.58,2.36,10.86,2.33,10.79-2-5.51-2.18-7.55-3.31-11S131.18,1.21,130.72,0h-5.54c.25.78.6,1.87.69,2.14C127.09,5.39,125.76,3.6,128.29,8.66Z"/><path class="cls-5" d="M90.32,48.05c4-.49,7.52,1.68,11,3.75,2.28,1.35,5.19,1.93,6.95-.1,1.91-2.54.94-2.4,1.89-4.31.26-.52.49-.24-.51-1.5-4.18-5.29-3.32-3.9-5.34-5.3a1.93,1.93,0,0,0-1.88-.39c-.38.2-1.35,2.59-3.82.53-.72-.6-.79-.86-1.44-.8a2.66,2.66,0,0,0-1.25.42c-2.91,2.29-1.63.88-4,3.09a6.61,6.61,0,0,0-1.65,1.79c-.44.77-.33.9-.81,1.84C88.77,48.45,88.14,48.32,90.32,48.05Zm4.29-2.95c1.2-.93,1.27-1.1,2.15-1.17a3.51,3.51,0,0,1,2.1.55c2.46.93,2.81.25,3.36-.18a5.69,5.69,0,0,1,.93-.59,4.4,4.4,0,0,1,.52-.22l.21-.06a1.23,1.23,0,0,1,.29,0h0l-.34.17,0,0c-.56.28-.32.22-.12.25,1.06.19,1.18,1.29,2.56,2.16.45.29.91.48,1.35.73-.52-.13-.46-.15-.48,0,0,.44.13,1.11,0,1.45-.63,1.52-2.75-.44-4.24-.44-.07,0-3.36-.21-4-.29a8.92,8.92,0,0,1-3-.51c-1-.37-.72-.51-1.72-.32-1.78.33-1.23.73-3.32.8C92.78,46.91,92.66,46.63,94.62,45.11Z"/><path class="cls-7" d="M85.13,16.07a1.74,1.74,0,0,0,0-1.42,1.41,1.41,0,0,1-1,.29,1.24,1.24,0,0,1-.07.57A1.77,1.77,0,0,1,85.13,16.07Z"/><path class="cls-7" d="M80.47,15.9l.06.15a1.68,1.68,0,0,1,.88-.51,1,1,0,0,1,0-.1,1.32,1.32,0,0,1,2-1.43,1.26,1.26,0,0,1,.35-.55c.21-.21.28-.14.08-.24C82,12.53,79.71,14,80.47,15.9Z"/><path class="cls-10" d="M149.31,28.16c0,1.76-.11,3.57-.29,5.4-.67,7.85-5.72,16.71-3.12,11.92,3.12-5.69,3.38-5,5.26-11.43a36.41,36.41,0,0,0,1.17-4.47,14.31,14.31,0,0,1-2.21-1C149.81,28.46,149.55,28.31,149.31,28.16Z"/><path class="cls-10" d="M150.68,10.86c-.77-3.29-1-4.67-3-7-1.1-1.28-2.36-2.71-3.35-3.84h-2.43a45,45,0,0,1,5.73,12.87A13.07,13.07,0,0,1,150.68,10.86Z"/><path class="cls-8" d="M85.17,14.61a3,3,0,0,0-1.06-1.22c-.16.11-.53.57-.4.94S84.64,14.8,85.17,14.61Z"/><path class="cls-10" d="M158.12,60.26c.13.22.23.67-.29-1a9,9,0,0,1-.36-4.32c.56-4.77,2-5.19,2.9-6.74,1.67-2.55,6-6.23,8.41-8.22a19.73,19.73,0,0,0,3.85-4.08c3.88-4.89,7.74-11.57,7.86-18.07.15-4.35-3-12.59-5-15.06a25.15,25.15,0,0,1-2-2.72h-2a33.72,33.72,0,0,1,5.77,11.89C183.42,38.35,147.94,44.73,158.12,60.26Z"/><path class="cls-3" d="M70.47,13.26C69.11,30,70.15,35,72.09,41.34c.17.54,0,.5.77.24,5.51-1.54,7-4.7,6.39.48-.42,3.38-4,5.26-4.35,5.25a19.39,19.39,0,0,0,1.66,2.76c.73,1,.27.65,1.24,1.07.47.2.54.35,1.21.63s3.82,1.51,3.82,1.51a3.57,3.57,0,0,0,1.06.18c1.21.25-.95,2.57-2.25,3.33-.26.16-.32-.11.74,1.19.71.87.62.58,1.27.17a14.56,14.56,0,0,1,9.83-1.7C93.82,55,95.74,56,97,56.8c1.89,1.2,2.29,1.46,6.76,2.52C107,60,107.53,61,112.82,62c1.9.37.76.47,1.62,0a50.4,50.4,0,0,0,6.76-4.84,42.9,42.9,0,0,0,5.26-7.54,55.65,55.65,0,0,0,3.67-17A31.64,31.64,0,0,1,132,22.93c.49-1.46.55-.61-.27-2.32-.52-1.1-5-11.68-5.36-12.32-3.91-7.82.41-1.57-11.2-6.16-.91-.34-1.55-.73-3.6.44-2.24,1.23-2.22,2.88-3.87,3.72-.22.12-1,.46-.86.25,2-2.56,1.09-3.89,4-5.57,1.57-.92,2.88-1.31,4.59-.61C116.83.93,122.28,3,122.28,3c2.32.83,2.07.95,1.95.52-.49-1.68-.87-2.8-1.14-3.54H88.42a4,4,0,0,1,1.14.26A10.59,10.59,0,0,1,92.3,2a12.47,12.47,0,0,0-5.65-.3C79.38,3,81,2.19,77.64,3c-1.23.31-1.4.26-2.07,1.08C74,6,74.25,5.79,74.33,5.23c.5-3.53,2.43-4.13,6.86-4.32,3.2-.14,5-.8,6.48-.91H77.14c-.68.88-1.78,2.24-3.52,4.35C70.12,8.61,70.91,7.77,70.47,13.26Zm42.08-3.44a8.63,8.63,0,0,1,1.19-1.31c.38-.35.75-.69.9-.79a4.55,4.55,0,0,1,4.75-.19c.95.66.31.2-.37.07-3.53-.66-6.25,2.51-7.15,3.29C110.78,11.82,111.26,11.48,112.54,9.82Zm-1.73,4.38a7.68,7.68,0,0,1,7.08-4.76c.59,0,1,.23,1.4-.92a1.32,1.32,0,0,1,.07.79,4.72,4.72,0,0,0,2.14-1c-.18,1.17-1.27,1.56-.21,1.16a8.59,8.59,0,0,0,1.53-.65c.11-.09.54-.66.54-.66a1.64,1.64,0,0,1-.51,1.61c-.27.3-.44.29.3.21,2.11-.32,2.41-1.15,1.94-.2a3.39,3.39,0,0,1-2.32,1.5c.39.36.27.37.66.37a3.18,3.18,0,0,0,2.07-.88c.12-.11.28-.31.26-.22A2.51,2.51,0,0,1,125,12.2a2.72,2.72,0,0,1-1.12.68l0,.1a5.28,5.28,0,0,0,.75,0c.84-.13,1-.78,1.26-1.19.3,2.88-2.35,2.16-1.36,2.56.08,0,.22-.2.1,0,.7.23,1.22-.3,1.74-.81a2.1,2.1,0,0,1-1.1,1.85,1.14,1.14,0,0,1,.47.62c.49,1.35,0,.46-.67.12a15.72,15.72,0,0,0-2.26.61c-.36.35-.31.19.1.36a2.7,2.7,0,0,1,.74.41h-1c-1.2,0-.32-.06-1.28.38a11.44,11.44,0,0,1-3.15.83c-3.86.44-4.5-.87-7.13-1.21l.73-.21a1.67,1.67,0,0,1-.39-.13c-.22-.14-.29-.51-.51-.94s0-.59.19-1q-.37.43-.72.89A5.26,5.26,0,0,1,110.81,14.2ZM106.2,8.83c1.09-2-1,1.1-.17,7C106.12,16.17,104.49,12,106.2,8.83Zm-1.72,24.35a1.44,1.44,0,0,1,1.67,1.07,2.27,2.27,0,0,0-2.45.06s0,.23,0,.27a1,1,0,0,1-.28-.2C103.21,34.1,103.56,33.33,104.49,33.18Zm-6.05.8c.6.7.26.36-.79.2-.59-.07-1.91-.09-1.7.46a.43.43,0,0,1-.21-.09C95.24,34,97,32.27,98.43,34Zm-7.5,9.33a18.15,18.15,0,0,1,2.12-2.1c.83-.63.27-.12,2.13-1.56a3.59,3.59,0,0,1,2.51-.72c1.05.16,1.87,1.64,2.72,1.62.89-.19,1-1.1,1.92-1.24,1.61-.24,1.86.14,3.54,1.19a10.86,10.86,0,0,1,2.61,2.66,25.47,25.47,0,0,1,2.1,2.63c.59,1,1,.69.33,1.82-1,1.79-.21,4.05-3.31,5.92-2.59,1.57-6.4-.47-8.89-2.11a26.09,26.09,0,0,0-6.39-2.64c-1.27-.28-5.76,1.41-3.87-1.48C89.72,45.38,89,45.13,90.93,43.3ZM87.83,8.06c1,.82.53,1.14,1.11,1.64,0,0-.25-.12-.35-.26-.47-.64-.25-.61-1.2-1.16-3.06-1.75-2.3-1.07-7-1a4.93,4.93,0,0,1-.57,0C83.44,6.72,84.47,5.27,87.83,8.06ZM75,12.43c.35,0,.2,0-.08-.3-.73-.86-.27-1.37-.24-1.3.12.34.29.47.81.69A1.71,1.71,0,0,1,75,9.12c.1.47.09,1.33,2,1.66.29-.3.3-.18,0-.37A2.32,2.32,0,0,1,76,8.29a3,3,0,0,0,1.88,1.15c-.94-1.36.11-2,.1-1.92,0,.6-.08.62.61,1.19.54.38-.21-.22.68-.84a.7.7,0,0,0,.15.81c.38.45.2.25,1.48.06,5.38-.76,6.74,2.63,8.27,4.91.67,1,1.22,2,1,1.78L89.45,15a1.72,1.72,0,0,1,.12.69c-.07.65-.14.72-.65.94l-.06,0c.88.12.61.07-.55.25-2.93.46-3.46,1.27-5.9,1.31A7.06,7.06,0,0,1,78.12,17C77,17,75.62,17,75,17.5c-.14.13,0-.83,1.21-1.34,1-.44-2.33.49-2.44.56l-.16.15-.07.06s0-.1,0-.15a.89.89,0,0,1,.2-.46c.72-.87,1-.58.51-.79a1.05,1.05,0,0,1-.6-.52A2.11,2.11,0,0,0,75,14.79c-1.6-.24-2.61-2-1.85-2.31,0,.15-.05.15,0,.21a3.25,3.25,0,0,0,2.29.84h.12c-.12,0-1.71-.15-1.63-1.64A1.27,1.27,0,0,0,75,12.43Z"/><path class="cls-10" d="M180.58,10.1a20.32,20.32,0,0,1,.48,13.55,35,35,0,0,1-6.14,11l.44-.45a67.81,67.81,0,0,0,7.19-7.75c.74-1.06.94-1.05,1.44-1.88a19.07,19.07,0,0,0,1.52-5.17,19.41,19.41,0,0,0-3.44-13.09A31.08,31.08,0,0,0,175.46,0h-.11c.08.13.27.4.67.93C177.75,3.23,177.78,2.64,180.58,10.1Z"/><path class="cls-2" d="M173.28,17.39A30.18,30.18,0,0,1,170,26.86c-1.88,3.2-1.5,2.09-3.37,4.79a16.7,16.7,0,0,1-2.42,2.87c-1.29,1.39-1.29,1.55-2,2.39-.94,1-1.63,1.4-3,3.1-2.28,2.8-.87.57-4.59,5.05-1.45,1.77-3.08,7.49-2.4,12.87,1.25,8.71,7.6,10,9,10.76.53.42,7.07,2.35,12,2.4,3.69,0,10.48-1.61,11.37-1.61.32,0,3-.37,3-.37S190,67.66,190,67.62l-6.65,1.71c-8,1.8-15.92-.12-20.18-2.52-3.38-1.88-7.75-7.63-7.85-11.74C155,42.2,186.23,32.93,175.56,7.46A36.88,36.88,0,0,0,171.31,0H169.6a41.44,41.44,0,0,1,2.92,8.62A16.32,16.32,0,0,1,173.28,17.39Z"/><path class="cls-10" d="M185.8,21l.06-.22a19.85,19.85,0,0,0,.49-8.94,10.56,10.56,0,0,0-1.79-4.67C181.5,2,180.9,2.49,179,0h-3.17C188.49,8.66,186,20.25,185.8,21Z"/><path class="cls-10" d="M172,12.54a54,54,0,0,0-2.89-9.08A24.43,24.43,0,0,0,166.86,0H164c2,2.85,4,4.77,6.57,9.82C172,12.67,172.16,14,172,12.54Z"/><path class="cls-3" d="M171.84,6.77c-.49-1.91-1.72-5.16-2.33-6.77h-.79l.64,1A19.2,19.2,0,0,1,171.84,6.77Z"/><path class="cls-11" d="M162.94,10.16A14.15,14.15,0,0,1,166.58,12c-.66-2.15-1.39-4.52-1.51-4.81A52.94,52.94,0,0,0,161.14,0h-3.52a21.59,21.59,0,0,1,5.26,9.92Z"/><path class="cls-11" d="M161.92,34c-.13.27-.77,1.75-.77,1.75a34.93,34.93,0,0,0,5-7.66,14.15,14.15,0,0,1-2.62,1.31A37.83,37.83,0,0,1,161.92,34Z"/><path class="cls-10" d="M159.6,9.43a22.78,22.78,0,0,0-1.07-4.31c0-.07-1-3-1-3.16A16,16,0,0,0,155.91,0l0,0h-9.65c2.88,3.24,4.87,5.4,6.87,10A17.15,17.15,0,0,1,159.6,9.43Z"/><path class="cls-10" d="M155.81,30.71c-.06.39-.21.45.48-.3l0,0-.45,0Z"/><path class="cls-2" d="M38.64,36.11c-2.7,14,4.35,21.52,2.46,33.59-1.05,6.75.52-2.11-1.84-12.5-.59-2.6-.19-1.8-.22,1.93-.09,4-.54,8.75-2.29,12.49a43.74,43.74,0,0,1-2.29,4.64,7.51,7.51,0,0,1-3.14,2.84c-1.83,1.07-2.6,4.47-10.64,5.62a19.67,19.67,0,0,0,4.22,0c1.65-.21,5.45-1.22,5.86-1.34,5.86-1.64,5.92-2.24,8-3.4a16.83,16.83,0,0,0,6-5.45c1-1.75,3.61-2.32,3.37-12.56-.1-4-2.21-13.14-2.88-17.89-.44-3.13-.2-3.78-.36-2.56a85,85,0,0,0-.47,15c.5,22.91-1,3.06-1.12-2.45-.17-9.56.33-16.05,3.81-24.55,2.78-7.2,6-10.81,11.94-16.07,2-1.75,11.29-8.6,11.33-8.61,0-.19.14-.46.1-.15s-.11.06,1.64-1.15A14.3,14.3,0,0,0,75.93,0H74.76C67.42,5.45,43.17,10.86,38.64,36.11Z"/><path class="cls-3" d="M100,96.8c1.5-1.22,1.8-.76,1.69-1.24-.32-1.46-.26-1.22-.58-1.33-2.31-.78-3.2-2.73-2.9-3.38,0-.09,0,0-.16,0s.17,0,.2-.11c.13-.31.48-.51,1-.7a1.37,1.37,0,0,1,.32-.12S99,89,99,89c-.38.84-1.52,1.24-2-.13a18.7,18.7,0,0,0-1.22-1.49c-.59-.73-1.56-2.44-1.9-2.37-1.87.34-5.24.83-6.19.86-.1.1-.88.48-2.21,2.83a33.2,33.2,0,0,0-2.93,8.64,5.8,5.8,0,0,1-1,2.66H97.23a5.84,5.84,0,0,1,1-1.62A17.7,17.7,0,0,1,100,96.8Z"/><path class="cls-10" d="M29.7,19.28c-2.46,18.79,3.93,21.26,4.06,33.08,0,3.35,0,6.47-1.88,9.24-4.08,6.15-11.72,6.8-15.72,2.43-5.44-6-1.32-12.15,2.4-12.93A6.18,6.18,0,0,1,25.37,54a6.68,6.68,0,0,0-.29-2.75A4.16,4.16,0,0,0,23.94,49c-3.8-2.68-11.3.59-12.74,5.81-.87,3,.67,7.21,1.33,8.43C14,66,14,65.62,15.16,66.69a5.74,5.74,0,0,0,2.5,1.92C20.48,70,22.87,69.79,26,69a6,6,0,0,0,2.65-1.39,21.48,21.48,0,0,0,8.5-11.7c.57-1.71.47-1.11.45-2.28-.1-7.14-.14-4-.45-7.37-.08-.89-1.38-9.53-1.56-11-.6-5.76,0-6.09-.78-9.45-.61-2.77-1.44-5.24-1.44-8C33.36,10.08,37.92,4.46,44,0H42.44C34.27,4.92,30.61,11.4,29.7,19.28Z"/><path class="cls-2" d="M45,6.24c-3.39,4.4-6.9,9.09-8.32,19.61a28.77,28.77,0,0,1,.94-3.1C41.94,11,47.63,6.29,56.38,0H51.7A38.49,38.49,0,0,0,45,6.24Z"/><path class="cls-2" d="M17,97.15c1.95-.26,2.06.11-1.17-.68-5.21-1.38-2.21-.89-4.9-1.2-4.14-.48-5.79-.16-7.94.52a4,4,0,0,0-2.4,1.5c-.54.55-.5.59-.58.39V100H4.57l1-.72C7.67,97.8,9,98.19,17,97.15Z"/><path class="cls-2" d="M27.39,99.36c-4.54-1.82-.54-1.14-7.46-.92-1.79.05-8.12.75-8.19.76-2.74.3-3.65.3-4.65.8h6.55c3.6-.78,5.71-.55,11.35,0h3.86l-.36-.17A9.85,9.85,0,0,0,27.39,99.36Z"/><path class="cls-10" d="M54.66,98.71c1.77-2.22,2.54-1.78,3.32-6.46,1.42-7.21.62-6.2-.36-7.72-.67,6.56-2.48,11.81-7.93,15.46h3.79C53.89,99.58,54.28,99.16,54.66,98.71Z"/><path class="cls-10" d="M42.07,14.91C36.55,24.5,36.22,29.15,37,38.48c.19,2.34-.06.41.62-2.73,1.42-7.87,4.19-13.61,10.3-20C55.7,7.46,67.92,3.19,73.79,0h-16C51.89,4.16,46.07,8.24,42.07,14.91Z"/><path class="cls-2" d="M25.85,27.09c1.69,8,1.76,7,4.13,12.86,1,2.54,2,5.73.2.08-2.72-8.5-2.29-14.32-1.44-20.61,1.15-9,5-14.73,12.51-19.43H33.5c-.23.24-.47.51-.74.81A29.93,29.93,0,0,0,25.85,27.09Z"/><path class="cls-11" d="M5.24,91c3.7,1.75,7.8,2.92,14.89,2.41,3.23-.3,3.9-.38,9.92-2.88a31.64,31.64,0,0,0,7.53-4.67c5.3-4-.55.15-1.08.42-6.39,3.43-10.61,5.34-18.14,5l-.81,0-.3,0-.49,0-.37,0-.39,0-.4,0-.34,0L14.85,91l-.3,0-.43-.07-.27,0-.43-.09-.24,0-.44-.1-.21,0-.43-.11-.2-.05-.43-.13-.19-.06L10.85,90,10.68,90l-.43-.16-.16-.06-.42-.17-.15-.06-.42-.19L9,89.27l-.41-.2L8.44,89,8,88.78l-.12-.06-.41-.24-.11-.06L7,88.16l-.1-.07-.4-.28-.09-.07L6,87.46l-.09-.06-.39-.31L5.44,87,5,86.68,5,86.62l-.39-.35-.07-.06-.39-.38-.06-.06-.39-.4-.06-.06-.4-.42,0-.05-.4-.45,0,0-.4-.47,0,0-.41-.5,0,0-.42-.53,0,0L1,82.2H1L.55,81.6a.27.27,0,0,1-.15-.14c-.1-.19-.18-.39-.27-.58L0,80.66v7.83c.09,0,.25.18.56.35C2,89.75,3.21,90,5.24,91Z"/><path class="cls-2" d="M.28,75.42l0,0h0c0,.05.14.28.31.64l0,.07.07.13.07.13.06.11.14.26a17.1,17.1,0,0,0,7.3,6.32,17.88,17.88,0,0,1-5.44-7.47c-2.63-6.62.23-15.4,4.68-19,2.73-2.39,2.3-2,2.56-2.56a1,1,0,0,1,.12-.2A4.44,4.44,0,0,0,8.73,54c-2.13.56-1.86.07-4.63,1.74A11.33,11.33,0,0,0,.18,59.58c0-.15,0-.28,0-.41L0,59.49V74.74a3.54,3.54,0,0,1,.15.33C.2,75.19.24,75.3.28,75.42Z"/><path class="cls-10" d="M.74,79.4l0,.07.08.15.07.13.09.16.09.16.1.17.12.19.1.16.24.36.11.16.18.26.13.18.2.26.15.19.24.3.14.17.42.49.1.11.37.41.18.19.35.36.2.2.4.38.19.18.63.57c4,3.3,6.95,3.63,7.14,3.69,7.08,1.44,10.54.49,12.15.23,3.34-.53,3.9-1.08,6.4-2.1,1.64-.67,1.39-.76,3.45-1.76,2.32-1.11,1.43-.87,4.21-2.65a17.71,17.71,0,0,0,3.5-2.54,6.64,6.64,0,0,0,2.24-2.85c1.12-2.25-.23,1-5.07,3.73-3.07,1.76-3.4,2.26-8,3.46-4.32,1.17-8,2.08-12.44,1.13a13.58,13.58,0,0,0-2.13-.49C10.63,86.36,3,81.92.27,76.29v-.06l0,0L.17,76A.12.12,0,0,1,.11,76l-.06-.15,0,0v0H0l0-.05v1.82A7.93,7.93,0,0,1,.38,78.7C.45,78.83.57,79.07.74,79.4Z"/><path class="cls-2" d="M.72,56.67h0a13.88,13.88,0,0,1,9.44-4.3c.87,0,.68.11.76-.06A5.14,5.14,0,0,1,11.86,51a10.7,10.7,0,0,0-9,1.44l-.47.34-.1.07-.4.31,0,0-.33.28-.06.05-.29.27,0,0-.25.24h0l-.47.49h0l0,0,0,0,0,0,0,0h0l-.18.2L0,55V57.5a5.94,5.94,0,0,1,.66-.79Z"/><path class="cls-10" d="M167.34,94.31c-.44.06-2.87.26-6,.72-4.91.75-6.92,1.23-11.61-.42-1.75-.63-1.35-.71-2.47-1.51a8.49,8.49,0,0,1-1-.81c-1.91-.34-3.26-.8-4.35-2.42a13.57,13.57,0,0,0,1.3,3.91c2.18,2.34,4.74,3,7.95,3.17,5.59.39,3.61.41,13.78-1.94,1.16-.26,1.5-.38,1.79-.46C167.85,94.25,169.59,94,167.34,94.31Z"/><path class="cls-2" d="M138.66,53.23c-3.71,1.2-2.55-.62-3.18,2a41.72,41.72,0,0,0-.56,13.27c.19-6.27.83-8.28,1.94-11.3C137.61,55.4,138.59,53.26,138.66,53.23Z"/><path class="cls-2" d="M158.54,84.16a13,13,0,0,0,2-4.83,18.22,18.22,0,0,0,.21-3c0-1.77.19.46-2.35,3.44a16,16,0,0,1-2,2.23A10.41,10.41,0,0,1,154,83.21a10.3,10.3,0,0,1-5.08.94c-7.6-.72-8.27-4.27-8.67-4.56a19.65,19.65,0,0,1-3-8.85,26.31,26.31,0,0,1,.92-8.69c3.4-12.37,6.23-12.53,2.4-9.76-1.65,1.17-.58-.63-2.48,4.44a26.8,26.8,0,0,0-1.78,6.68,41.4,41.4,0,0,0-.35,5.7c.23,5.21.44,4.59,1.5,6.37,1.62,2.76,1.36,3.79,3.37,6.43.46.61-.64.45,2.79,2.41C148.44,87,154.19,87.6,158.54,84.16Z"/><path class="cls-11" d="M156.79,79.35c1-1.31,2.89-2.79,3.13-8.61,0-.44.22.06-1.81-1a13.39,13.39,0,0,1-5-3.8,13.85,13.85,0,0,1-2.7-5.56s.36-.68,0,0c-2.16,4-3.26,8.3-1.45,12.58,1.29,2.34-.18,1,3.07,3.82a5.24,5.24,0,0,0,1.48,1.07C154.91,78.67,156.08,79.82,156.79,79.35Z"/><path class="cls-11" d="M139,63.2a40.61,40.61,0,0,0-.06,8.65,17.76,17.76,0,0,0,1.74,5.3c1.77,3.46,2.17,3.87,3.81,4.56,5.12,2.13,7.5.9,9.88-.2.29-.17.35-.06-.67-.29-.38-.08-.54-.18-1.23-.37a15.41,15.41,0,0,1-3.75-1.66,13.84,13.84,0,0,1-5.5-4.09A9.31,9.31,0,0,1,141,71.76C138.15,66,139.33,61.38,139,63.2Z"/><path class="cls-10" d="M160.43,6.91c-.35-.86.07,0,.39,1.8q.09.47.17.93l.35.07C160.95,8.41,160.61,7.36,160.43,6.91Z"/><path class="cls-10" d="M155.57,34.5c-.21.35-.45.8-.81,1.33-.86,1.27-1.08,1.26-1.36,1.9a25.83,25.83,0,0,1-2.2,4.26c.26-.41-3.91,5.91-5.32,7.52a38.7,38.7,0,0,0-4.73,9.14,16,16,0,0,0-.41,2.44,13.49,13.49,0,0,0,.48,6.82c1.48,5,2.63,5.63,3.67,6.82,2.12,2.39,4,2.75,5.38,3.62a13.2,13.2,0,0,0,2.61,1.05c2.52.74,0-.12-1-.81,0,0-1.8-1.5-2.56-2.09a5.85,5.85,0,0,1-1.23-1.58,13.74,13.74,0,0,1-2-3.84c-2.61-6.22-1.79-11,.84-16.54a29.59,29.59,0,0,1,3.55-5.93c2.9-3.93.22-1,4.41-6.27.93-1.33,3.92-3.79,4.46-4.71a49.42,49.42,0,0,0,2.24-6.47c.12-.46.23-.87.33-1.27a17,17,0,0,1-3.87.54C157.12,32.26,156.06,33.65,155.57,34.5Z"/><path class="cls-10" d="M130.26,46.77l.75.55c.22.16,1.83-4.56,1.91-4.81,1.08-3.24,1.22-2.73.43-2.77-1.53-.09.18-.55-2.64,6-.09.21-.13.29-.24.49C130.18,46.8,130.17,46.7,130.26,46.77Z"/><path class="cls-10" d="M132.9,36.76c0,.4.13,0,1.75,0,.69-5.52-.11-8.1-.45-9.34-.65-2.32.17-.44-.84-3.39-.12-.38-.1-.31-.11-.38s0-.14-.16.45C131.27,30,133.55,26.47,132.9,36.76Z"/><path class="cls-10" d="M173.75,56.5c-7.23-6.68,1.06-14.73,4.74-22.1.89-1.79,2.63-4.06,1.73-3-2.32,2.89-11.6,10.62-11.67,10.68-2.05,2.53-2.29,2.74-2.92,4.14a13.72,13.72,0,0,0-.24,9.84c.55,1.16.86,1.46,1.81,3.14a7,7,0,0,0,1.88,2.19,10.21,10.21,0,0,0,2.41,1.83,39.28,39.28,0,0,0,7.27,3.41c1.73.59.46.6,4.07.83a24.1,24.1,0,0,0,6.59-1.37C184.44,62,178.27,60.62,173.75,56.5Z"/><path class="cls-11" d="M175.44,47.09c-3.78,6.33-1.85,7.08.25,8.46s5.86,1.94,8,1.94c4,0,9.37-2.26,10.49-6.14.91-3.13.28-.5-3.26.82-5.26,3-8.17.83-9.22.47-2.58-.9-2.91-2.08-3.54-2.55a9.86,9.86,0,0,1-2-3.44C175.93,45.71,176.29,45.68,175.44,47.09Z"/><path class="cls-2" d="M176.59,67.79c-5-1.7-5.61-2.47-6.75-3.24-2.4-1.65-2.08-1.64-4.07-4.13a11.69,11.69,0,0,1-1.9-4c-1.84-6.36.33-10.47.39-10.54a12.85,12.85,0,0,1-1.41,1.39c-1.16,1.06-.85,1.11-2.53,3.07a7,7,0,0,0-1.64,3.37,9.85,9.85,0,0,0,0,6c2.73,11.1,23.44,9.32,22,9.14A17,17,0,0,1,176.59,67.79Z"/><path class="cls-10" d="M172.68,77.16a13.56,13.56,0,0,0-1.77-3c-1.34-2.12.15-1-2.28-1.65.43,1.94,1.52,3.84-.17,8.69-.67,2-1.24,3.23-3.82,5.69a11.72,11.72,0,0,1-4.29,2.74c-.59.27-5.59,2.13-5.67,2.15a17.72,17.72,0,0,1-3.71.77c-2.53.26-3.26-.44-2.3.2a9.36,9.36,0,0,0,2.6,1c3.92,1.34,9.07-.19,12.75-.58,4.49-.45,7.78-1,8.29-.9C172.3,92.33,175.12,83.68,172.68,77.16Z"/><path class="cls-2" d="M189.9,49.82a1.62,1.62,0,0,1-.07,1.15,10.35,10.35,0,0,0,5.26-4c-4.24-3.19-6.83-2.25-12.68-1.8a8.37,8.37,0,0,0-3.65,1.62C186.05,44.08,189.58,48.23,189.9,49.82Z"/><path class="cls-2" d="M173.43,73a7.79,7.79,0,0,0-.91-.07c-1.27,0-1.53-.44-.07,1.53,3.94,5.34,2.81,15.29.8,17.72,0,0,2.31,0,4.08.17,2.65,0,2.37.09,2.43-.1,1-3,.84-10.44-1.75-14.41C175.78,74.4,173.75,73,173.43,73Z"/><path class="cls-11" d="M187.46,74.4A5.69,5.69,0,0,0,186,72.29c-1-1.2-.26-.92-2.52-.4-1.27.31-1-.13-.45,1.14,2.73,6.61,2.51,12.77.89,16.62s-2.76,2.52.74,3.67c2.46.83,1.83,1.18,2.27.63C189.76,90.36,191.24,83.61,187.46,74.4Z"/><path class="cls-12" d="M136.51,52.18c5.24-.67,9.13-6.31,4.91-11-3.57-3.93-6.08-3.75-8.41-3.56-.2,0-.17,0-.18.16-.1,1.32-.26,1.13.21,1.13h1.4c7.41,0,8.16,8.52,3.71,10.7-4.08,2.05-8.49-1.37-8.61-1.55-.84,1.66-.74,1.42-.56,1.54C131.07,51,132.29,52.7,136.51,52.18Z"/><path class="cls-2" d="M181.08,94.11a40.14,40.14,0,0,0-6.91.33A19,19,0,0,1,186.33,100h5.49a21.81,21.81,0,0,0-4.19-3.32C183.67,94.11,182.27,94.21,181.08,94.11Z"/><path class="cls-10" d="M186.42,71.1c-.05,0,1,1.07,1,1.11,1.41,1.35,2.87,5.92,3.25,7.85.79,4.59.9,7.87-1.11,12.36-1.51,3.32-2.37,2.22-1.11,3a26.74,26.74,0,0,1,4.38,3.49,28.78,28.78,0,0,0,2.09-3c5.58-9.32,3.22-20.3-3.27-27.68C191.36,68.43,187.6,70.91,186.42,71.1Z"/><path class="cls-2" d="M196.28,48c-.69.81-.18,0-.06,3.36.1,2-.11,4.78-1.26,6.38-1.62,2.3-1.65,2.44-3.4,3.59-5.67,3.73-7.74-1-1.32,4.23.23.21.05.27,1.24-.37,5.79-3.21,9.43-8.37,7.14-14.11A10.83,10.83,0,0,0,196.28,48Z"/><path class="cls-2" d="M137.3,48.39a4.38,4.38,0,0,0,1.88-2.09A4.77,4.77,0,0,0,137.89,41c-.11,1.19-.69,4.24-1.14,6.94C136.65,48.62,136.49,48.7,137.3,48.39Z"/><path class="cls-10" d="M172.52,95.21c-7.19,0-16.08,5.72-25.62,2.5-8.42-2.86-6.32-13.87-7.1-14.53-4.2-3.78-1.71-7.32-9.29-13.84a15.6,15.6,0,0,1-3.16-3.57c-1.36-1.8-1.45-2-2.3-4.91a1.37,1.37,0,0,1-.06-.26c-.37,3,.7,6.35,1.8,9.21.53,1.2.35,1.13,1.34,1.64a38.56,38.56,0,0,1,5.58,3.28c.87.72,1.64.83,1.94,2,1.74,1.47,1.7,13.22,3.73,18.66a34.72,34.72,0,0,0,3.49,4.08l.69.52h31.11c.57-.15,1.11-.27,1.63-.36,3.28-.54,5.26-.32,6.9.36H185c-.45-.43-.86-.77-1.26-1.08A19.79,19.79,0,0,0,172.52,95.21Z"/><path class="cls-10" d="M129.53,52.08c.06-.2.33-.12-1.12-1.07-.28-.18-.15-.31-.48.44-2.16,4.84-2.5,5.55-1.38,9.32.8,2.85,1.07,2.82,2.47,4.76a12.17,12.17,0,0,0,1.55,1.86A17.62,17.62,0,0,1,129,63.09,18.62,18.62,0,0,1,129.53,52.08Z"/><path class="cls-10" d="M138.61,97.35A21.41,21.41,0,0,0,139,100h2.21A34.12,34.12,0,0,0,138.61,97.35Z"/><path class="cls-5" d="M82.73,54.49c.36-.48.5.14-3.62-1.43-.92-.37-1.05-.71-.93-.34C79.06,54.57,82.39,54.92,82.73,54.49Z"/><path class="cls-3" d="M80.07,92.34c.25-4.45-.61-4.36-2.68-9-1.57-3.49-7.53-12.5-7.53-12.5-.16-.58.47-.62-.92.39-.51.37,0,.06,1.18-1.62a27.25,27.25,0,0,1,2-2.87c1.76-2,2.74-1,6.4-3,3.87-2.07,4.93-.76,7.46-2.32a1.41,1.41,0,0,0,.46-.39c.47-.53.26-.17-1-.06a2.65,2.65,0,0,1-2-.76c-.69-.82.11-.57-1.32-.77a1.61,1.61,0,0,0-1.29.11,13.45,13.45,0,0,1-6.07,1.16c-2.24.16-2.61-.08-3.95,1.48a14.94,14.94,0,0,1-1.57,1.71c-5.07,4.65.35,0-5.2,4.53-1.45,1.15-2.29,1.86-1.34.86C66.79,65,66.56,65.5,66.64,65c.69-4.72-.33-5.62,3-7,.07,0,3.26-1.53,3.67-1.75,2.75-1.55,5.11,1.7,8.35-.74.26-.2.34-.14-.28-.14-1.72,0-4.22-1.4-4.08-3,0-.26.07-.08-.15-.25,0,0,0,0,0,0a5.09,5.09,0,0,1-.72-.29,3,3,0,0,0-.85-.27c-.93-.12-3.36,1.45-5.94,2l-4.22.86a4,4,0,0,0-2.43,1c-1.19,1.69-1.63,8-3.76,12.65-1.35,2.92-1.11,2.13-.8,1.17.86-2.71.7-2.16,2.38-10.51C61.79,54,62.5,54,65.06,53.32c1.15-.22.6,0,1.83-1.26a11.63,11.63,0,0,1,1.9-2c2.31-2.06,1.15-1.77,4.39-3.24a20.19,20.19,0,0,0,2.29-1.16,5.08,5.08,0,0,0,2.64-3.3,3.31,3.31,0,0,1-1.46,1.1,9.2,9.2,0,0,1-1.75.8c-2.75.89-3.29,0-3.92-.71-.06-.07-.71.16-.78.19-1.6.75-2.37,1.53-4.09,2.54-.07,0-5.13,3-6,3.62-2.93,2.33-1.81,9.21-4.87,17.37-1.4,3.53-1.73,5.86.17-3.35.57-2.78,1.17-8.32,2.07-11.56.59-2.37.8-1.22.48-2.37-.21-.76,0-1,.42-2.41.67-2,.85-2,.65-5.68-.17-3.4,3.47-4.68,1.87-11.07-.33-1.25.2,3.47-2.76,5.4a1.94,1.94,0,0,1-1,.44c-.93.14-.67-.1-1,.37-1.07,1.85-.71,4.54-2.5,9.86-1.43,4.35-1.22,2.86-.73,10.87.74,13-2.33,13.69,2,19.2,5.27,6.88,13.82,13.32,9.8,19.92-1.83,3-1.2,1.94-1.91,3.12H77.95c.12-.28.22-.53.3-.74C80.4,93.45,79.81,96.84,80.07,92.34Z"/><path class="cls-5" d="M60,29.19a53.94,53.94,0,0,1-2.74,6c-.42.81-.52.76-.31.73,1.84-.24,3.09-3.5,3.3-5.19.23-1.21.34-.87-.12-1.66C60.11,29,60.16,28.92,60,29.19Z"/><path class="cls-12" d="M57.09,100h1.83l0,0a3,3,0,0,1,1.51,0h.58c.19-.29.56-.9.59-.91C60.13,98.24,58.55,98.95,57.09,100Z"/><path class="cls-3" d="M62.59,47.11l.06,0S62.63,47.08,62.59,47.11Z"/><path class="cls-3" d="M67.45,52.84s0,0,0,0S67.43,52.81,67.45,52.84Z"/><path class="cls-4" d="M95.73,80.74c-.47-.34-.56-.35-.84-.26a3.72,3.72,0,0,0-1.2,1.38,2.3,2.3,0,0,0,.17,1.25s0,0,0-.06c0-.49.19-.54.86-1.1C96.16,80.75,96,80.91,95.73,80.74Z"/><path class="cls-4" d="M96.54,79.89a1.22,1.22,0,0,0-.19-.59c-.79-.81-1.84-.45-2.82,0a2.29,2.29,0,0,0-1.29,1.16c-1.1,1.93-.06,3.19.13,3.15a2.62,2.62,0,0,1,.47-.06c-.71-1.49-.34-2.17-.17-2.46C94.4,77.92,96.51,79.79,96.54,79.89Z"/><path class="cls-3" d="M71.13,70.16l0,0C71.17,70.08,71.17,70.15,71.13,70.16Z"/><path class="cls-13" d="M77.23,57.45a7.47,7.47,0,0,0-2.64.5,6.3,6.3,0,0,0-2.72,1.63,14.73,14.73,0,0,0-1.74,1.55c-.89,1.12-.2.39.54-.31,1.9-1.81,3.66-.56,8.3-1.68.26-.06,1.85-.59,1.85-.59C79.21,56.52,80.51,57.93,77.23,57.45Z"/><path class="cls-10" d="M52.28,95.69c2-2.56,3.95-5.6,4.72-12.22a13.72,13.72,0,0,0-1.66-2.56C54.58,86.35,53.81,94,45.54,100h1.38c.69-.37,1.25-.78,1.79-1.11A11.12,11.12,0,0,0,52.28,95.69Z"/><path class="cls-2" d="M49.6,55.51c0,5.15.7,6.18,0,13.9-.62,6.5-.29,8.69-1.25,12.66a23.66,23.66,0,0,1-6.18,10.28c-6.3,5.15-14,5.12-8.68,5,3.5-.08,4.69.7,11.41-2.66,3.77-1.88,7.59-7.38,7.74-7.57.4-.48.37-.21.75-2.28,1.35-7.29,1-4.95-1.17-8.82-1.17-2-1.11-3.58-1.08-5.85,0-.93.09-5.18.16-5.95.27-3.76-.1-8.32,0-12,0-1.77.42-2.7,1.87-7.28l-1.32-4.2C51.83,40.69,49.46,43.86,49.6,55.51Z"/><path class="cls-10" d="M61,96.1a12.63,12.63,0,0,0,.41-5.62c-.14-.92,0-.2-1.25-2.26A55.72,55.72,0,0,1,58.34,97C61,96,60.72,97,61,96.1Z"/><path class="cls-10" d="M50.08,41.37c1.5-3.61,1.45-1,.49-4.63-.29-1.11-.38-1.39-.41-1.65A14.47,14.47,0,0,0,47.81,46c.16.7.09.73.51,3.41A25.93,25.93,0,0,1,50.08,41.37Z"/><path class="cls-2" d="M40.54,89.68A21.08,21.08,0,0,0,45.66,85a19,19,0,0,0,1.84-7.39c.14-2,.26-.59-1.12,1.6-2.93,4.78-3.84,4.54-7.45,7.65-1,.91-.52.27-1.06.69a30.75,30.75,0,0,1-8.84,5c-.6.25-2.3,1-3,1.14a33.38,33.38,0,0,0,8.6-1.25A15.36,15.36,0,0,0,40.54,89.68Z"/><path class="cls-13" d="M74,48a8.59,8.59,0,0,0-2.58,3.42c-.21.48-.64.65,2.41-.62.53-.22.64-.27.8-.33,1-.34.66.3-.42-2A4.36,4.36,0,0,1,74,48Z"/><path class="cls-13" d="M88.69,58.15c-.35-.2-.17-.19-.64-.08-2.46.57-1.6.31-2.81.9,1.5.11,2.59-.56,2.8.35a4.49,4.49,0,0,1-1.13,2.59c-1.41,1.85-5.41,1.81-6.87,2.69A11,11,0,0,0,77,67c-.24.31-.27,0,.81,1.36a17.64,17.64,0,0,0,2,2.16,22.67,22.67,0,0,0,1.93,2c1.15.92,2.65,2.91,5.88,3.57s3.37.75,5.73.69c.26.12-2.64.64-6.32.07A8.15,8.15,0,0,1,84,75.68c-2.46-1.31-6.29-6.41-7.21-8.31-1.77,2.41-1.68,1.48-1.76,4A11.73,11.73,0,0,0,78,79.76c1.69,1.58,3.07,5.37,11.83,4.18,2.13-.24,1.78,0,1.55-.44a3.32,3.32,0,0,1-.31-2.58c.38-1.2,1-2.07,3.32-3.19a2,2,0,0,1,3.09,1.6A10.73,10.73,0,0,0,99,77.9a24.82,24.82,0,0,0,.08-3.06c0-.18,0-.06-.19,0s-1.21-.06-2.33,0a6.43,6.43,0,0,1-4.59.07c-1.46-.46-4.08-1.48-3.21-2.74.36-.56.62-.44,3.36-1.76,1.58-.77,1.58-.72,2.8-1.26.67-.31,2.55-1.27,2.55-1.27-.48-.92-1-1.55-1.64-2.73A20.23,20.23,0,0,0,88.69,58.15Z"/><path class="cls-5" d="M92.58,71.32c-1.22.59-2.82,1.28-2.89,1.3.84.89,1.84.23,2.43.09A7.43,7.43,0,0,0,93.88,72c.27-.23.77-.86.48-1.29C94.24,70.52,94.34,70.46,92.58,71.32Z"/><path class="cls-5" d="M95.11,83c-.11.09.76.24.9.26a.4.4,0,0,1,.13-.12,4.22,4.22,0,0,0,2.12-1.26c.51-.5.89-.89.83-1.6a1,1,0,0,0-.22-.49C98.79,79.7,96.25,82.05,95.11,83Z"/><path class="cls-5" d="M96.36,57.67c-1.31-.89-2.49-1.38-1,.08.91.86.45.61,2.24,1.41.06,0,.25.11.26.05s0,0,.06,0a.63.63,0,0,0,.69-.17c.07-.11.13,0-.36-.25A12.21,12.21,0,0,1,96.36,57.67Z"/><path class="cls-4" d="M96.56,84.46c-1.7.53-1.56,0-1,1.09.86,1.63,1.69,2,2.17,3,.1.2.07.19.13.14.62-.54-.44-.66-.09-1.59A2,2,0,0,1,99.91,86a1.13,1.13,0,0,1,.84.56c.12-.53-.94-1.66-1.33-2.08s.13-.14-1.68-.08C96.78,84.44,96.85,84.38,96.56,84.46Z"/><path class="cls-3" d="M106.7,66.36c.11,0,.41.13-.4-.2-.19-.08-2.61-1.09-3.27-1.26a11.3,11.3,0,0,1-1.23-.3l.71,1.53C103.49,66.08,103.41,66.23,106.7,66.36Z"/><path class="cls-6" d="M92.37,57.75a23.82,23.82,0,0,0-3.38.08c6.4,4,6.67,5.93,8.45,8.6.78,1.16.57,1.12.72,1s2-.91,2.25-1c0,0-.44-1-.45-1-.28-.52.17,0-.71-.84-2.59-2.48-2.12-1.52-3.9-2.93a5,5,0,0,1-1.91-3.09C93.34,57.85,93.68,58,92.37,57.75Z"/><path class="cls-3" d="M101.29,87.47c.89,1.58.67,1.45,1,1.3a14.44,14.44,0,0,0,2.4-1.55c.14-.11,2.52-1.5,3.14-1.77.82-.37.78-.22.47-.73-.19-.31-2.43-3.27-2.9-4.22-.82.42-2.22,3.14-4.88,3.41h0C101.44,85.11,101.94,87,101.29,87.47Z"/><path class="cls-4" d="M101,89.34c.32-.14.25,0-.13-.74a5.77,5.77,0,0,0-.73-1.26c-.23-.27,0-.45-.66-.42s-.77.47-.82.54,0,0,.21,0,.26,0,1.6,1.78C100.68,89.55,100.57,89.53,101,89.34Z"/><path class="cls-5" d="M78.44,40.24c-1.39.65-3.6,2.62-6.7,3a1.4,1.4,0,0,0,1.25.61c1.41,0,4.4-1.15,5.28-2.62A2.84,2.84,0,0,0,78.44,40.24Z"/><path class="cls-6" d="M67.68,20.87a14.36,14.36,0,0,1,1.35-.7s0-1.22,0-1.64a24.18,24.18,0,0,0-1.3-6.3,3.72,3.72,0,0,1-.35-.59c-1.61.55-3.14,1.25-3.14,1.25a15.36,15.36,0,0,1,1.4,2.76C67.93,21.16,65.71,22,67.68,20.87Z"/><path class="cls-13" d="M64,24.59c-.17-1.74.18-1.76,2-2.79a11,11,0,0,0-.24-3.37,17.8,17.8,0,0,0-2.11-5.19c-1.85,1.07-2.07,1.38-3.3,2.07-2.46,1.42-1.92,1-3,3.41a5.78,5.78,0,0,0-.48,3.62c.44,4.49,2.47,8.8,1.39,6.76a17.91,17.91,0,0,1-1.87-4.36,11,11,0,0,1-.54-4.13c.47-2.75,2.4-3.78.29-2.11C53,21,53.16,21.25,51,23.89a4.32,4.32,0,0,0-.65,1c-.35.64,0,0,0,.87-.39,5.81,3.49,16.39,3.49,16.39.72-3.2.28-4,2.17-6.75a56.44,56.44,0,0,0,3.51-7c.66-1.28,1.78.76,2.32,2.17,1.81,4.68-.86,7.77-.89,10a16.87,16.87,0,0,0,.65,3.88,4.25,4.25,0,0,0,1,1.59c.09.12.06.23.93.18,1.89-.07,5-3.56,6.59-4.06,1.21-.36-.27.54-4.77-12.15A17.46,17.46,0,0,1,64,24.59Z"/><path class="cls-3" d="M109.39,84.69c2.4-1.44,1-1.54,4.73-2.13.12,0,.12.11-.26-.34a6.87,6.87,0,0,0-.64-.66c-.65-.62-.57-.91-1.44-2-1.11-1.38-.72-1.29-1.17-1.05a39.24,39.24,0,0,1-4.11,1.59,41.7,41.7,0,0,1,2.65,4.28C109.33,84.79,109.3,84.74,109.39,84.69Z"/><path class="cls-5" d="M99.43,90.91c-.37.14-.46.05-.07.7.07.18,4,0,3.94-1.81,0-.09,0,0-.14-.26A37.32,37.32,0,0,1,99.43,90.91Z"/><path class="cls-14" d="M86.21,12.45c-.22-.16-1.24-.74-1.31-.78-2-1.15-6.73-.09-8.24,2.69-.06.11.4.84,1.25,1.34s.46.52,2.3.64c.18,0,.17,0,.09-.06-2.21-2.89,3.11-6.09,5.15-2.62a2.19,2.19,0,0,1-.14,2.78,10.6,10.6,0,0,1,2.94.09l.6.08.06,0c.51-.22.58-.29.65-.94a1.72,1.72,0,0,0-.12-.69c-.46-.3-1-.68-1.4-1C88.05,14,87.07,13.14,86.21,12.45Z"/><path class="cls-14" d="M114.21,17.18c-2.5-2.06,1.52-5.91,4.41-3.4a2.71,2.71,0,0,1,.77,1.93,1.69,1.69,0,0,1-.66,1.28,8.53,8.53,0,0,0,4.42-2c-2.18-3.58-6.87-3.64-9.19-2.23a12.14,12.14,0,0,0-2.82,2.46c-.2.43-.35.71-.19,1s.29.8.51.94a1.67,1.67,0,0,0,.39.13,4.09,4.09,0,0,1,1.13-.11C113,17.18,113.94,17.16,114.21,17.18Z"/><path class="cls-15" d="M80.53,16.05c.18.44.15.33,2.14.5a8.27,8.27,0,0,0,2,0,.86.86,0,0,0,.49-.45,1.77,1.77,0,0,0-1-.56,1.55,1.55,0,0,1-2.71,0A1.68,1.68,0,0,0,80.53,16.05Z"/><path class="cls-15" d="M118.51,16.44a1.74,1.74,0,0,0-1.17-.63,1.11,1.11,0,0,1-1.22.93,1.07,1.07,0,0,1-1-.86,1.38,1.38,0,0,0-.9.6,2.22,2.22,0,0,0,.21.37c.31.38.28.36,1.47.33,2-.05,1.86,0,2.12-.16A2.29,2.29,0,0,0,118.51,16.44Z"/><path d="M136.33,17.55c0,.07-1.25-7.21-2.33-10.79A67.44,67.44,0,0,0,131.46,0h-.74c.45,1.21,1.18,3.22,2.29,6.59S134.37,12,136.33,17.55Z"/><path d="M138.25,19.87A80.76,80.76,0,0,0,134.3,0h-.21l3.32,17.62C138.74,23.72,138.54,23.14,138.25,19.87Z"/><path d="M74.33,5.23c-.08.56-.28.74,1.23-1.11.67-.82.84-.77,2.07-1.08,3.39-.85,1.75,0,9-1.33A12.47,12.47,0,0,1,92.3,2,10.59,10.59,0,0,0,89.56.26,4,4,0,0,0,88.42,0h-.75c-1.51.11-3.28.77-6.48.91C76.76,1.1,74.83,1.7,74.33,5.23Z"/><path d="M119,7.6c.69.13,1.32.58.37-.07a4.55,4.55,0,0,0-4.75.19c-.15.1-.52.44-.9.79a8.63,8.63,0,0,0-1.19,1.31c-1.28,1.66-1.76,2-.68,1.07C112.76,10.11,115.48,6.94,119,7.6Z"/><path d="M95.94,34.63c-.21-.55,1.12-.53,1.7-.46,1,.16,1.39.5.79-.2-1.48-1.7-3.19,0-2.7.57A.43.43,0,0,0,95.94,34.63Z"/><path d="M103.74,34.58s0-.24,0-.27a2.27,2.27,0,0,1,2.45-.06,1.44,1.44,0,0,0-1.67-1.07c-.92.16-1.27.92-1,1.2A1,1,0,0,0,103.74,34.58Z"/><path d="M75.48,13.53h-.12a3.25,3.25,0,0,1-2.29-.84c0-.06,0-.05,0-.21-.76.35.25,2.07,1.85,2.31a2.11,2.11,0,0,1-1.31.21,1.05,1.05,0,0,0,.6.52c.5.21.21-.08-.51.79a.89.89,0,0,0-.2.46s0,.1,0,.15l.07-.06.16-.15c.1-.07,3.47-1,2.44-.56-1.2.51-1.35,1.47-1.21,1.34.65-.54,2-.5,3.15-.47a7.06,7.06,0,0,0,4.28,1.13c2.45,0,3-.85,5.9-1.31,1.16-.18,1.43-.13.55-.25l-.6-.08a10.6,10.6,0,0,0-2.94-.09,2.19,2.19,0,0,0,.14-2.78c-2-3.47-7.35-.26-5.15,2.62.07.1.09.08-.09.06-1.84-.12-1.54-.19-2.3-.64s-1.31-1.23-1.25-1.34c1.51-2.79,6.22-3.84,8.24-2.69.07,0,1.09.62,1.31.78.86.69,1.84,1.54,1.84,1.54.37.28.94.66,1.4,1l.73.48c.24.19-.31-.79-1-1.78C87.67,11.37,86.31,8,80.93,8.74c-1.28.18-1.1.39-1.48-.06a.7.7,0,0,1-.15-.81c-.89.61-.14,1.22-.68.84-.69-.57-.64-.59-.61-1.19,0-.07-1,.57-.1,1.92A3,3,0,0,1,76,8.29a2.32,2.32,0,0,0,1.08,2.12c.27.19.26.07,0,.37-2-.33-1.94-1.19-2-1.66a1.71,1.71,0,0,0,.48,2.4c-.52-.22-.69-.35-.81-.69,0-.07-.49.44.24,1.3.28.33.43.3.08.3a1.27,1.27,0,0,1-1.17-.53C73.77,13.38,75.36,13.52,75.48,13.53Zm8.22.8c-.13-.37.24-.84.4-.94a3,3,0,0,1,1.06,1.22C84.64,14.8,83.92,14.77,83.7,14.33Zm0-.87a1.26,1.26,0,0,0-.35.55,1.32,1.32,0,0,0-2,1.43,1,1,0,0,0,0,.1,1.55,1.55,0,0,0,2.71,0,1.24,1.24,0,0,0,.07-.57,1.41,1.41,0,0,0,1-.29,1.74,1.74,0,0,1,0,1.42.86.86,0,0,1-.49.45,8.27,8.27,0,0,1-2,0c-2-.17-2-.06-2.14-.5l-.06-.15c-.76-1.9,1.57-3.37,3.34-2.68C84,13.32,83.94,13.25,83.73,13.46Z"/><path d="M110.42,16.09q.35-.46.72-.89A12.14,12.14,0,0,1,114,12.74c2.31-1.41,7-1.35,9.19,2.23a8.53,8.53,0,0,1-4.42,2,1.69,1.69,0,0,0,.66-1.28,2.71,2.71,0,0,0-.77-1.93c-2.89-2.51-6.91,1.34-4.41,3.4-.26,0-1.16,0-1.23,0a4.09,4.09,0,0,0-1.13.11l-.73.21c2.63.35,3.28,1.66,7.13,1.21a11.44,11.44,0,0,0,3.15-.83c1-.43.08-.38,1.28-.38h1a2.7,2.7,0,0,0-.74-.41c-.42-.17-.46,0-.1-.36a15.72,15.72,0,0,1,2.26-.61c.68.33,1.16,1.22.67-.12a1.14,1.14,0,0,0-.47-.62,2.1,2.1,0,0,0,1.1-1.85c-.52.51-1,1-1.74.81.13-.23,0,0-.1,0-1-.4,1.66.32,1.36-2.56-.28.41-.42,1.06-1.26,1.19a5.28,5.28,0,0,1-.75,0l0-.1A2.72,2.72,0,0,0,125,12.2a2.51,2.51,0,0,0,.73-1.66c0-.09-.14.11-.26.22a3.18,3.18,0,0,1-2.07.88c-.38,0-.27,0-.66-.37a3.39,3.39,0,0,0,2.32-1.5c.47-.94.17-.11-1.94.2-.73.08-.57.09-.3-.21a1.64,1.64,0,0,0,.51-1.61s-.44.57-.54.66a8.59,8.59,0,0,1-1.53.65c-1.06.39,0,0,.21-1.16a4.72,4.72,0,0,1-2.14,1,1.32,1.32,0,0,0-.07-.79c-.45,1.15-.81.93-1.4.92a7.68,7.68,0,0,0-7.08,4.76A5.26,5.26,0,0,0,110.42,16.09Zm4,.77a2.22,2.22,0,0,1-.21-.37c-.77-1.72,1.64-3.06,3.18-2.4a.86.86,0,0,0-.65.86.91.91,0,0,0-1.06-.06,1,1,0,0,0-.57,1,1.07,1.07,0,0,0,1,.86,1.11,1.11,0,0,0,1.22-.93.81.81,0,0,0,0-.14,1.15,1.15,0,0,0,.85-.27c.3-.24.21-.56.31-.34a1.43,1.43,0,0,1,0,1.39A2.29,2.29,0,0,1,118,17c-.27.19-.16.1-2.12.16C114.68,17.21,114.71,17.24,114.4,16.86Zm3.78-1.65c-.87.62-1.71-.51-.61-1,.07,0,.45.22.51.26C118.51,14.84,118.44,15,118.18,15.21Z"/><path d="M92.33,48.8a26.09,26.09,0,0,1,6.39,2.64c2.49,1.63,6.3,3.68,8.89,2.11,3.1-1.87,2.29-4.14,3.31-5.92.65-1.14.26-.85-.33-1.82a25.47,25.47,0,0,0-2.1-2.63,10.86,10.86,0,0,0-2.61-2.66c-1.68-1-1.93-1.43-3.54-1.19-.94.14-1,1.06-1.92,1.24-.84,0-1.66-1.46-2.72-1.62a3.59,3.59,0,0,0-2.51.72c-1.86,1.44-1.29.93-2.13,1.56a18.15,18.15,0,0,0-2.12,2.1c-1.89,1.83-1.21,2.08-2.47,4C86.57,50.21,91.06,48.52,92.33,48.8Zm-2.86-1.72c.48-.95.37-1.07.81-1.84a6.61,6.61,0,0,1,1.65-1.79c2.36-2.22,1.08-.8,4-3.09a2.66,2.66,0,0,1,1.25-.42c.65-.07.72.19,1.44.8,2.47,2.06,3.44-.34,3.82-.53a1.93,1.93,0,0,1,1.88.39c2,1.4,1.17,0,5.34,5.3,1,1.26.77,1,.51,1.5-.94,1.91,0,1.77-1.89,4.31-1.75,2-4.67,1.45-6.95.1-3.49-2.07-7-4.24-11-3.75C88.14,48.32,88.77,48.45,89.47,47.08Z"/><path d="M95.91,46.94a8.92,8.92,0,0,0,3,.51c.62.09,3.91.29,4,.29,1.49,0,3.61,2,4.24.44.14-.34,0-1,0-1.45,0-.17,0-.15.48,0-.44-.25-.89-.44-1.35-.73-1.38-.87-1.5-2-2.56-2.16-.2,0-.44,0,.12-.25l0,0,.34-.17h0a1.23,1.23,0,0,0-.29,0l-.21.06a4.4,4.4,0,0,0-.52.22,5.69,5.69,0,0,0-.93.59c-.55.43-.91,1.11-3.36.18a3.51,3.51,0,0,0-2.1-.55c-.88.07-1,.24-2.15,1.17-2,1.52-1.84,1.8-3.76,2.31,2.09-.07,1.54-.47,3.32-.8C95.19,46.43,94.94,46.57,95.91,46.94Zm-1.24-1c.31-.19.67-.41,1-.62,1.48-1,1.9-.23,3.6.17,2.46.59,2.92-.57,3.57-1.18,1.28-.42,1.31.79,2.77,1.7.39.25.49.15.14.44-1.78,1.28-3.28.31-5.38.27l-2.93,0C96.08,46.7,94.34,46.14,94.67,45.94Z"/><path d="M134.75,79.91l-.06,0S134.73,79.89,134.75,79.91Z"/><path d="M87.39,8.28c1,.54.74.51,1.2,1.16.1.14.4.31.35.26-.58-.5-.12-.82-1.11-1.64-3.36-2.79-4.39-1.35-8-.79a4.93,4.93,0,0,0,.57,0C85.09,7.21,84.33,6.54,87.39,8.28Z"/><path d="M106,15.81c-.85-5.88,1.26-9,.17-7C104.49,12,106.12,16.17,106,15.81Z"/><path d="M198,48.27l.14.14C197.9,48.12,197.8,48.06,198,48.27Z"/><path d="M174.92,34.67c-.21.23-.19.22,0,0Z"/><path d="M157.53,2c0,.14,1,3.09,1,3.16a22.78,22.78,0,0,1,1.07,4.31c.46.05.92.12,1.38.21q-.08-.46-.17-.93c-.32-1.76-.74-2.66-.39-1.8.18.44.52,1.49.9,2.81a16,16,0,0,1,1.62.44l-.06-.25A21.59,21.59,0,0,0,157.62,0h-1.76l0,0A16,16,0,0,1,157.53,2Z"/><path d="M59,100l0,0h1.55A3,3,0,0,0,59,100Z"/><path d="M176.3,99.64c-.52.09-1.07.21-1.63.36h8.53C181.56,99.32,179.58,99.1,176.3,99.64Z"/><path d="M150.68,10.86a15.18,15.18,0,0,1,2.4-.9c-2-4.56-4-6.72-6.87-10h-1.91c1,1.13,2.25,2.56,3.35,3.84C149.68,6.19,149.91,7.57,150.68,10.86Z"/><path d="M197.06,45.74c-2.18-1.29-2.44-1.93-5.94-2.43-2.89-.42-9.4-.36-12.8,2.32l-.71.57c-2-6.08,4.83-15.36,5.36-16.35,3.35-6.26,3.7-6.31,4.75-10.26.73-3.06.5-8.15-.57-10.7A28.33,28.33,0,0,0,183,2.29,9.07,9.07,0,0,0,181.53.6c-.31-.28-.5-.46-.63-.6H179c1.87,2.49,2.47,2,5.54,7.12a10.56,10.56,0,0,1,1.79,4.67,19.85,19.85,0,0,1-.49,8.94l-.06.22v0c.17-.7,2.69-12.29-9.94-21h-.4a31.08,31.08,0,0,1,6.62,6.3,19.41,19.41,0,0,1,3.44,13.09A19.07,19.07,0,0,1,184,24.58c-.5.83-.71.82-1.44,1.88a67.81,67.81,0,0,1-7.19,7.75l-.44.45c-.19.22-.21.23,0,0a35,35,0,0,0,6.14-11,20.32,20.32,0,0,0-.48-13.55c-2.8-7.45-2.83-6.87-4.56-9.17-.4-.53-.59-.8-.67-.93h-1.77a25.15,25.15,0,0,0,2,2.72c2,2.46,5.12,10.71,5,15.06-.11,6.5-4,13.18-7.86,18.07a19.73,19.73,0,0,1-3.85,4.08c-2.46,2-6.74,5.67-8.41,8.22-.92,1.55-2.34,2-2.9,6.74a9,9,0,0,0,.36,4.32c.52,1.71.42,1.27.29,1-10.18-15.53,25.3-21.91,19.28-48.38A33.72,33.72,0,0,0,171.62,0h-.31a36.88,36.88,0,0,1,4.24,7.46C186.23,32.93,155,42.2,155.34,55.07c.11,4.11,4.47,9.86,7.85,11.74,4.26,2.4,12.19,4.32,20.18,2.52L190,67.62c-.07,0-2.45,1.45-2.59,1.49s-2.71.37-3,.37c-.89,0-7.68,1.63-11.37,1.61-4.89,0-11.42-2-12-2.4-1.37-.78-7.72-2.06-9-10.76-.68-5.38.95-11.1,2.4-12.87,3.72-4.48,2.3-2.26,4.59-5.05,1.4-1.71,2.09-2.06,3-3.1.74-.84.74-1,2-2.39a16.7,16.7,0,0,0,2.42-2.87c1.88-2.7,1.49-1.59,3.37-4.79a30.18,30.18,0,0,0,3.31-9.47,16.32,16.32,0,0,0-.76-8.77A41.44,41.44,0,0,0,169.6,0h-.08c.61,1.61,1.84,4.85,2.33,6.77A19.2,19.2,0,0,0,169.37,1l-.64-1h-1.87a24.43,24.43,0,0,1,2.2,3.46A54,54,0,0,1,172,12.54c.21,1.44.08.13-1.39-2.71C168,4.77,166,2.85,164,0h-2.86a52.94,52.94,0,0,1,3.93,7.15c.12.29.85,2.66,1.51,4.81a12.27,12.27,0,0,1,1.64,1.36,8.79,8.79,0,0,1,1.13,11.83,12.29,12.29,0,0,1-1,1.22,12.37,12.37,0,0,1-2.12,1.7,34.93,34.93,0,0,1-5,7.66s.64-1.48.77-1.75a37.83,37.83,0,0,0,1.64-4.6,15.66,15.66,0,0,1-1.59.52c-.1.4-.21.82-.33,1.27a49.42,49.42,0,0,1-2.24,6.47c-.54.92-3.53,3.39-4.46,4.71-4.19,5.28-1.51,2.34-4.41,6.27A29.59,29.59,0,0,0,147,54.55c-2.63,5.59-3.45,10.33-.84,16.54a13.74,13.74,0,0,0,2,3.84,5.85,5.85,0,0,0,1.23,1.58c.76.59,2.53,2.06,2.56,2.09,1,.69,3.49,1.55,1,.81a13.2,13.2,0,0,1-2.61-1.05c-1.37-.87-3.26-1.23-5.38-3.62-1-1.19-2.19-1.83-3.67-6.82a13.49,13.49,0,0,1-.48-6.82,16,16,0,0,1,.41-2.44,38.7,38.7,0,0,1,4.73-9.14c1.41-1.61,5.58-7.93,5.32-7.52a25.83,25.83,0,0,0,2.2-4.26c.28-.64.5-.64,1.36-1.9.37-.53.61-1,.81-1.33.49-.85,1.56-2.24,2.54-4.07a17.32,17.32,0,0,1-1.79,0l0,0c-.69.74-.54.69-.48.3l.06-.36a16.27,16.27,0,0,1-3.54-.77,36.41,36.41,0,0,1-1.17,4.47c-1.88,6.48-2.13,5.74-5.26,11.43-2.6,4.79,2.46-4.07,3.12-11.92.18-1.83.27-3.64.29-5.4a9.93,9.93,0,0,1-.87-.6c0,2-.15,4.1-.4,6.3-.57,4.81-1.93,8-3.65,12.23a7.6,7.6,0,0,0-1.2-4.5,14.29,14.29,0,0,0-4.56-4c-1.34-.68-.33.15-.36-1.26a48.83,48.83,0,0,0-2-11.11c-2.65-8.14-5.35-11.19-8-16.59-2.53-5.05-1.2-3.27-2.41-6.52-.1-.27-.44-1.36-.69-2.14h-2.1c.27.74.65,1.86,1.14,3.54.12.43.38.31-1.95-.52,0,0-5.45-2.08-6.82-2.65-1.71-.7-3-.3-4.59.61-2.93,1.68-2.06,3-4,5.57-.16.21.64-.13.86-.25,1.65-.84,1.63-2.48,3.87-3.72,2.05-1.17,2.69-.79,3.6-.44,11.61,4.6,7.29-1.66,11.2,6.16.33.64,4.85,11.22,5.36,12.32.82,1.7.76.86.27,2.32a31.64,31.64,0,0,0-1.87,9.73,55.65,55.65,0,0,1-3.67,17,42.9,42.9,0,0,1-5.26,7.54A50.4,50.4,0,0,1,114.44,62c-.86.47.28.36-1.62,0-5.29-1-5.86-2-9.09-2.68C99.26,58.27,98.86,58,97,56.8c-1.23-.83-3.15-1.78-3.49-.35a14.56,14.56,0,0,0-9.83,1.7c-.64.4-.56.7-1.27-.17-1.05-1.3-1-1-.74-1.19,1.3-.77,3.45-3.09,2.25-3.33a3.57,3.57,0,0,1-1.06-.18s-3.11-1.2-3.82-1.51-.74-.43-1.21-.63c-1-.42-.51,0-1.24-1.07a19.39,19.39,0,0,1-1.66-2.76c.31,0,3.93-1.87,4.35-5.25.6-5.18-.88-2-6.39-.48-.82.26-.61.3-.77-.24C70.15,35,69.11,30,70.47,13.26c.44-5.49-.34-4.66,3.15-8.91C75.37,2.24,76.47.88,77.14,0H75.93a14.3,14.3,0,0,1-3.82,3.55c-1.75,1.21-1.67,1.32-1.64,1.15s-.06,0-.1.15c0,0-9.36,6.85-11.33,8.61-5.95,5.26-9.16,8.87-11.94,16.07-3.49,8.5-4,15-3.81,24.55.1,5.52,1.62,25.36,1.12,2.45a85,85,0,0,1,.47-15c.17-1.21-.08-.57.36,2.56C45.91,48.8,48,58,48.12,61.94c.23,10.23-2.37,10.81-3.37,12.56a16.83,16.83,0,0,1-6,5.45c-2.07,1.15-2.13,1.75-8,3.4-.41.12-4.21,1.13-5.86,1.34a19.67,19.67,0,0,1-4.22,0c8-1.15,8.81-4.55,10.64-5.62a7.51,7.51,0,0,0,3.14-2.84,43.74,43.74,0,0,0,2.29-4.64c1.75-3.74,2.2-8.44,2.29-12.49,0-3.73-.37-4.53.22-1.93,2.36,10.39.79,19.25,1.84,12.5C43,57.64,35.94,50.16,38.64,36.11,43.17,10.86,67.42,5.45,74.76,0h-1C67.92,3.19,55.7,7.46,47.93,15.75c-6.11,6.39-8.88,12.13-10.3,20-.68,3.14-.42,5.08-.62,2.73-.79-9.33-.47-14,5.05-23.57C46.07,8.24,51.89,4.16,57.8,0H56.38C47.63,6.29,41.94,11,37.59,22.74a28.77,28.77,0,0,0-.94,3.1h0C38.06,15.33,41.57,10.64,45,6.24A38.49,38.49,0,0,1,51.7,0H44C37.92,4.46,33.36,10.08,33.36,17.76c0,2.8.83,5.27,1.44,8,.74,3.36.18,3.69.78,9.45.18,1.49,1.48,10.13,1.56,11,.3,3.34.35.23.45,7.37,0,1.18.12.57-.45,2.28a21.48,21.48,0,0,1-8.5,11.7A6,6,0,0,1,26,69c-3.12.78-5.51,1-8.32-.41a5.74,5.74,0,0,1-2.5-1.92C14,65.62,14,66,12.53,63.26c-.66-1.21-2.2-5.45-1.33-8.43,1.44-5.23,8.94-8.49,12.74-5.81a4.16,4.16,0,0,1,1.14,2.18A6.68,6.68,0,0,1,25.37,54a6.18,6.18,0,0,0-6.8-2.85c-3.72.78-7.85,6.94-2.4,12.93,4,4.37,11.64,3.71,15.72-2.43,1.87-2.78,1.92-5.89,1.88-9.24-.13-11.82-6.52-14.3-4.06-33.08C30.61,11.4,34.27,4.92,42.44,0H41.25C33.72,4.7,29.9,10.43,28.74,19.43c-.85,6.29-1.28,12.1,1.44,20.61C32,45.68,31,42.49,30,40c-2.37-5.85-2.44-4.9-4.13-12.86A29.93,29.93,0,0,1,32.77.81c.26-.3.51-.57.74-.81h-1.4C31,1.12,29.76,2.44,29.06,3.24a24.18,24.18,0,0,0-4.22,6.92C20.1,23.64,28.35,41,28.76,42.33c.32,1,1.5,4.45,1.87,6.16.71,3.68,0,8-.62,8.65a14.56,14.56,0,0,1-4.39,3.94c-2.22,1.24-4,.07-5.57-1.89A4.36,4.36,0,0,1,19,57a4,4,0,0,1-.22-1.86,3.2,3.2,0,0,1,.89-2.06,2,2,0,0,1,2.63-.67c1.62.61,2.66,1.48,2.55,4.45,0,.12-.1.44.21.62s.18,0,.14.1c-.11.37,0,.14.05,0,0,0,0,0,0,0,.37,0,.42-.23.85-1.32a8.08,8.08,0,0,0,.29-5.66c-.9-3.31-3-3.95-6.45-4a8,8,0,0,0-5.56,1.8c-2.29,1.74-1,1.47-2.37,1.11A12.15,12.15,0,0,0,1,52.1c-.92.74-.73.63-.77,1.38s-.1,1.2,0,1.22h0l0,0,0,0,0,0,0,0h0l.47-.49h0l.25-.24,0,0,.29-.27.06-.05.33-.28,0,0,.4-.31.1-.07.47-.34a10.7,10.7,0,0,1,9-1.44,5.14,5.14,0,0,0-.93,1.28c-.08.17.11.06-.76.06a13.88,13.88,0,0,0-9.44,4.3h0c-.62.69-.55.38-.54,2.5,0,.13,0,.26,0,.41A11.33,11.33,0,0,1,4.1,55.73C6.87,54.07,6.6,54.55,8.73,54a4.44,4.44,0,0,1,1.48-.13,1,1,0,0,0-.12.2c-.26.53.16.18-2.56,2.56C3.08,60.24.22,69,2.85,75.64a17.88,17.88,0,0,0,5.44,7.47A17.1,17.1,0,0,1,1,76.79l-.14-.26-.06-.11-.07-.13-.07-.13,0-.07c-.18-.36-.27-.58-.31-.64s0,.15,0,.76v.06C3,81.92,10.63,86.36,17.12,85.23a13.58,13.58,0,0,1,2.13.49c4.39.95,8.12,0,12.44-1.13,4.6-1.2,4.93-1.69,8-3.46,4.84-2.72,6.19-6,5.07-3.73a6.64,6.64,0,0,1-2.24,2.85A17.71,17.71,0,0,1,39,82.79c-2.77,1.78-1.89,1.54-4.21,2.65-2.06,1-1.81,1.1-3.45,1.76-2.5,1-3.07,1.57-6.4,2.1-1.61.26-5.07,1.21-12.15-.23-.19-.06-3.12-.39-7.14-3.69L5,84.81l-.19-.18-.4-.38-.2-.2-.35-.36-.18-.19-.37-.41L3.26,83l-.42-.49-.14-.17L2.46,82l-.15-.19-.2-.26L2,81.38l-.18-.26L1.68,81l-.24-.36-.1-.16-.12-.19-.1-.17L1,79.91l-.09-.16-.07-.13-.08-.15,0-.07c-.18-.34-.29-.58-.36-.71-.19-.36-.07.11-.08,1.77,0,.89,0,.75,0,.85l.21.29.43.59H1l.42.56,0,0,.42.53,0,0,.41.5,0,0,.4.47,0,0,.4.45,0,.05.4.42.06.06.39.4.06.06.39.38.07.06.39.35.07.06.39.33.08.07.39.31.09.06.4.29.09.07.4.28.1.07.4.26.11.06.41.24.12.06.41.22.13.06.41.2.14.06.42.19.15.06.42.17.16.06.43.16.17.06.43.14.19.06.43.13.2.05.43.11.21,0,.44.1.24,0,.43.09.27,0,.43.07.3,0,.42.06.34,0,.4,0,.39,0,.37,0,.49,0,.3,0,.81,0c7.53.34,11.75-1.58,18.14-5,.53-.28,6.38-4.47,1.08-.42a31.64,31.64,0,0,1-7.53,4.67c-6,2.5-6.69,2.58-9.92,2.88C13,93.92,8.94,92.75,5.24,91,3.21,90,2,89.75.56,88.84c-.31-.17-.47-.32-.56-.35v1.77c.14.08.38.2.81.42.07,0,6.46,2.88,6.57,2.88a15.49,15.49,0,0,0-4.86.83A4.92,4.92,0,0,0,0,95.81v1.86c.07.19,0,.15.58-.39A4,4,0,0,1,3,95.78c2.16-.67,3.81-1,7.94-.52,2.69.31-.31-.18,4.9,1.2,3.23.79,3.11.42,1.17.68-8,1-9.32.65-11.44,2.13l-1,.72H7.09c1-.49,1.91-.49,4.65-.8.07,0,6.41-.71,8.19-.76,6.92-.22,2.92-.9,7.46.92a9.85,9.85,0,0,1,1.12.47l.36.17H45.54c8.27-6,9-13.65,9.82-19.09A13.72,13.72,0,0,1,57,83.47c-.78,6.62-2.68,9.66-4.72,12.22a11.12,11.12,0,0,1-3.58,3.2c-.55.33-1.11.74-1.79,1.11h2.78c5.44-3.65,7.25-8.91,7.93-15.46,1,1.52,1.78.5.36,7.72-.78,4.68-1.54,4.24-3.32,6.46-.38.44-.77.87-1.17,1.29h3.61c1.46-1.05,3-1.76,4.56-.91,0,0-.4.62-.59.91h1.76c.71-1.19.08-.16,1.91-3.12,4-6.6-4.52-13-9.8-19.92-4.31-5.51-1.24-6.2-2-19.2-.49-8-.7-6.52.73-10.87,1.78-5.32,1.43-8,2.5-9.86.29-.47,0-.23,1-.37a1.94,1.94,0,0,0,1-.44c3-1.93,2.43-6.65,2.76-5.4,1.6,6.4-2,7.67-1.87,11.07.2,3.64,0,3.67-.65,5.68-.46,1.37-.63,1.64-.42,2.41.32,1.15.11,0-.48,2.37-.9,3.25-1.5,8.78-2.07,11.56-1.9,9.21-1.57,6.88-.17,3.35,3.06-8.16,1.95-15,4.87-17.37.88-.65,5.93-3.58,6-3.62,1.72-1,2.48-1.78,4.09-2.54.07,0,.72-.26.78-.19.64.75,1.18,1.6,3.92.71a9.2,9.2,0,0,0,1.75-.8,3.31,3.31,0,0,0,1.46-1.1,5.08,5.08,0,0,1-2.64,3.3,20.19,20.19,0,0,1-2.29,1.16c-3.24,1.47-2.07,1.19-4.39,3.24a11.63,11.63,0,0,0-1.9,2c-1.22,1.3-.68,1-1.83,1.26-2.57.72-3.27.71-4.22,5.36-1.68,8.35-1.53,7.81-2.38,10.51-.31,1-.56,1.75.8-1.17,2.13-4.6,2.57-11,3.76-12.65a4,4,0,0,1,2.43-1l4.22-.86c2.58-.53,5-2.1,5.94-2a3,3,0,0,1,.85.27,5.09,5.09,0,0,0,.72.29s0,0,0,0c.22.17.18,0,.15.25-.14,1.58,2.36,2.94,4.08,3,.62,0,.54-.06.28.14-3.25,2.44-5.61-.81-8.35.74-.41.23-3.6,1.72-3.67,1.75-3.37,1.42-2.35,2.33-3,7-.09.54.15,0-3.95,4.36-1,1-.11.3,1.34-.86,5.55-4.49.13.12,5.2-4.53a14.94,14.94,0,0,0,1.57-1.71c1.34-1.57,1.71-1.32,3.95-1.48a13.45,13.45,0,0,0,6.07-1.16,1.61,1.61,0,0,1,1.29-.11c1.43.2.63,0,1.32.77a2.65,2.65,0,0,0,2,.76c1.28-.11,1.49-.47,1,.06a1.41,1.41,0,0,1-.46.39c-2.53,1.56-3.59.25-7.46,2.32-3.66,2-4.64,1-6.4,3a27.25,27.25,0,0,0-2,2.87c-1.22,1.68-1.68,2-1.18,1.62,1.39-1,.76-1,.92-.39,0,0,6,9,7.53,12.5,2.07,4.62,2.93,4.54,2.68,9s.34,1.11-1.81,6.91c-.08.22-.18.47-.3.74H81.5a5.8,5.8,0,0,0,1-2.66,33.2,33.2,0,0,1,2.93-8.64c1.33-2.36,2.11-2.74,2.21-2.83.94,0,4.32-.52,6.19-.86.35-.07,1.32,1.64,1.9,2.37A18.7,18.7,0,0,1,97,88.87c.46,1.36,1.61,1,2,.13,0,0,.58.88.6.91a1.37,1.37,0,0,0-.32.12c-.52.18-.87.39-1,.7,0,.06-.32,0-.2.11s.2-.06.16,0c-.3.65.59,2.59,2.9,3.38.32.11.25-.13.58,1.33.1.48-.2,0-1.69,1.24a17.7,17.7,0,0,0-1.83,1.58,5.84,5.84,0,0,0-1,1.62h1.32a9.17,9.17,0,0,1,3-3c.12,2,.07-.05-1.6,3h1.23l0,0c.83-1,.71-.87.56-.1l0,.14h1.44a11.45,11.45,0,0,0-.13-4.54c-.27-1.19-.34-1.08-.24-1.09.51,0,.27-.26.53.53a17.5,17.5,0,0,1,.9,5.1h1c0-.43,0-.48.24,0h1.18a6.89,6.89,0,0,0-1.51-2c0-.13-.27-1.54-.26-1.54.32-.11,2.82.43,4,3.55h1.37c-.58-1.92-1.72-3.78-3.48-4.48a7,7,0,0,0-2.3-.58c-.58-1.72-.27-.19,4-2.53a23.37,23.37,0,0,1,3-1.12,8.19,8.19,0,0,1,.78,1.26,14.34,14.34,0,0,1,1.65,3.13,16.63,16.63,0,0,1,.66,2.24c.07.25.15.57.27,1l.36,1.09h2a52.14,52.14,0,0,0-4.77-9.14,22.89,22.89,0,0,1,5.24-2.19c1.05-.23.81-.28.9-.1.38.79,1,1.79,1.9,1.9,0,0,.31,4.77.32,9.53H123c-.14-2.54-.32-5.07-.68-7.4-1.13-7.36-1.92-3.31,4-5.76,1.1-.44,3.35-1.77,1.54-1-4.06,1.46-3.6.72-8.63,1.42-5.35.69-4.93,1.62-7.48,2.65-4.38,1.79-3.11.82-4.68,1.87-2.29,1.61-5.38,1.63-6.56.9-.66-.41-.34-.29,0-.31,2.14-.13,4.73-1.55,3.44-3.29,0,0,.51-.35.55-.38,1.92-1.52.85-.46,3.77-2,5.67-3.07,1.43-2.36,8.19-3.39a38.5,38.5,0,0,0,10.5-3.2c4.51-1.78-2.9.75-6.88,1.46-.09,0,0,0-.29-.08-.06-.17-.18-.21-.46-.33a14,14,0,0,1-1.37-.87,9.72,9.72,0,0,1-1.77-1.16c-2.46-1.87-2.44-2.14-4.41-2-1.2.11-.71.2-3.47,1.27-4.23,1.51-3.26.95-5,2.9-1,1.06-1.37,1.2-3.33,1.74a8.84,8.84,0,0,1-1.34.29c-1,.13-.69,0-.58,0,2.4-1.75,2.19-3.19,1.43-3.84.66-.22,2.45-3,2.94-3.37a16.14,16.14,0,0,1,3.41-1.29c8.52-2.6,9.13-2.76,11.79-1.68.08,0,6.69,2.7,8.34,3.13,13.62,2.82,6,1.4-4.11-2.61-5.92-2.35-6.21-2.61-9.14-1.93-2.18.5.18.3-4.75-.35a15.13,15.13,0,0,0-4.43,0c-1,.17-.91-.21-1.82.31a25,25,0,0,1-5,2c-1.83.65-2.65.83-5.16-.07A11.72,11.72,0,0,0,93.52,73c1.51-.46,2.39-1.82,1.75-2.94.14,0,2.41-1.21,3.19-1.57,1.78-.82,2.85-1.4,4.69-1.31.07,0,4.14.35,6.09.24a8.24,8.24,0,0,1,1.74.07c.07,0,.12,0,.06,0s-.09,0,.73,0c4.64,0,2.53.4,7.45,2.76,2.78,1.45,3.73,2.27,6.07,3.33.07,0,5.05,2,7.32,3.25,2.48,1.37-4.1-2.92-5.52-3.53a37.5,37.5,0,0,1-4.76-2.51c-2-1.29-3-1.54-5.89-3.38-1.48-1-1.58-1-5.65-1s-1.63.29-5.14-1.4c-2.91-1.6-2.91-.81-6.61-2.44-2.52-1.13-4.62-2.09-4.59-4.92l.81.93a2.78,2.78,0,0,0,1.14.88,6.26,6.26,0,0,0,1.33.65,1.59,1.59,0,0,0,1.77-.8,31.51,31.51,0,0,0,4,1.08c3.12.75,3.68,1.46,7.66,2.39.94.23,1.5.29,2,.41a4.28,4.28,0,0,1,.66.22,5.09,5.09,0,0,1,.49.24c.17.1.36.21.58.35l.71.5,1.44,1,.52.38,1.14.82.58.42.56.4.27.19.5.36.23.16.4.29.57.41c4.66,3.31,6.19,3.47,10.65,6.46,2.32,1.77,2.8,1.84,3,5.86.05,1.35,1.57,15,1.58,15.06.12,1.17.33,2.46.56,3.7H139a21.41,21.41,0,0,1-.44-2.65,34.12,34.12,0,0,1,2.65,2.65h2.3l-.69-.52a34.72,34.72,0,0,1-3.49-4.08c-2-5.45-2-17.19-3.73-18.66-.3-1.19-1.07-1.3-1.94-2a38.56,38.56,0,0,0-5.58-3.28c-1-.51-.81-.44-1.34-1.64-1.1-2.85-2.18-6.19-1.8-9.21a1.37,1.37,0,0,0,.06.26c.85,2.88.94,3.11,2.3,4.91a15.6,15.6,0,0,0,3.16,3.57c7.58,6.51,5.09,10.05,9.29,13.84.78.66-1.31,11.67,7.1,14.53,9.53,3.22,18.42-2.5,25.62-2.5a19.79,19.79,0,0,1,11.23,3.71c.4.31.81.66,1.26,1.08h1.33a19,19,0,0,0-12.16-5.56,40.14,40.14,0,0,1,6.91-.33c1.19.1,2.58,0,6.55,2.57a21.81,21.81,0,0,1,4.19,3.32h4.66A18.86,18.86,0,0,0,200,94.31V80a47,47,0,0,0-2.48-5.91c-.4-.84-.86-1.29-1.13-2a10.3,10.3,0,0,0-1.87-3.24c-1.24-1.76-1.24-1.62-1.09-1.71a18.67,18.67,0,0,0,3.8-3.08A12,12,0,0,0,200,60.54V57.2a12.86,12.86,0,0,1-.61,1.45l-.13.25,0,0,0,0a13.36,13.36,0,0,0,.74-2v-5a9.48,9.48,0,0,0-1.85-3.49l-.14-.14c-.21-.21-.11-.14.14.14A7.22,7.22,0,0,1,200,51V48.21A10.68,10.68,0,0,0,197.06,45.74ZM32.59,49.6c0-.09,0-.08,0,0s0,.52.1,1.18c.4,6,0,10.31-5,13.73C32.8,59.39,32.63,50.45,32.59,49.6ZM21.44,65.21a6.14,6.14,0,0,1-4.67-1.89,5.15,5.15,0,0,1-1-1.46,7.23,7.23,0,0,1-1.08-2.33,5.16,5.16,0,0,1,1.12-5.15,5.63,5.63,0,0,1,2.3-2,2.36,2.36,0,0,1,.68-.17c-1.29.79-1.87,3-2,4.61A9.67,9.67,0,0,0,18.6,63,12.44,12.44,0,0,0,21.44,65.21Zm-5.1,15.64a5.72,5.72,0,0,1-2.41-1.23c-2.15-1.79-2.63-1.72-3.86-4.22-2-4.08-3.5-4.92-1.79-13.68,1.14-3.43-.12-1.31,1.14,3.39,1.87,6.95,8.53,12.4,17.44,9.73,3.82-1.11,5.55-3.29,6.92-6.33.93-2.06.75-1.73.67-1.65-1.38,1.86-1.55,3.15-3.88,5C21,79.12,8.15,71.21,10.14,59c.59-3.82-.36-.39,1.35,4a12,12,0,0,0,3,4.74,6.22,6.22,0,0,0,1.94,1.82c1.57.89,3.35,2.06,7.72,1.43,3.61-.5,4.13-1.16,6.34-2.76,7-5.05,7.71-12.82,6.74-6.87C36,68.1,36.63,68.75,32.26,76c-1.25,1.72-.62,1.2-2.48,2.44-4.2,2.63-5.93,2.91-8.14,3.22A10.64,10.64,0,0,1,16.34,80.86Zm45,9.63A12.63,12.63,0,0,1,61,96.1c-.25.87,0-.09-2.63.89a55.72,55.72,0,0,0,1.79-8.77C61.4,90.28,61.24,89.56,61.38,90.48Zm6-78.85a3.72,3.72,0,0,0,.35.59,24.18,24.18,0,0,1,1.3,6.3c0,.42,0,1.64,0,1.64a14.36,14.36,0,0,0-1.35.7c-2,1.12.25.29-2-5.22a15.36,15.36,0,0,0-1.4-2.76S65.81,12.18,67.41,11.63ZM47.81,46a14.47,14.47,0,0,1,2.35-10.91c0,.26.13.54.41,1.65,1,3.66,1,1-.49,4.63a25.93,25.93,0,0,0-1.77,8C47.9,46.73,48,46.7,47.81,46ZM26,93.71c.72-.18,2.41-.89,3-1.14a30.75,30.75,0,0,0,8.84-5c.54-.42,0,.22,1.06-.69,3.6-3.11,4.52-2.87,7.45-7.65,1.37-2.19,1.25-3.64,1.12-1.6A19,19,0,0,1,45.66,85a21.08,21.08,0,0,1-5.12,4.7,15.36,15.36,0,0,1-5.93,2.78A33.38,33.38,0,0,1,26,93.71ZM51.3,52.24c-.13,3.69.24,8.25,0,12-.07.77-.14,5-.16,5.95,0,2.26-.09,3.89,1.08,5.85,2.2,3.87,2.52,1.53,1.17,8.82-.38,2.06-.35,1.8-.75,2.28-.16.19-4,5.69-7.74,7.57-6.72,3.36-7.91,2.58-11.41,2.66-5.37.11,2.38.14,8.68-5a23.66,23.66,0,0,0,6.18-10.28c1-4,.64-6.16,1.25-12.66.73-7.73,0-8.75,0-13.9-.14-11.65,2.23-14.82,2.25-14.75L53.17,45C51.71,49.54,51.33,50.47,51.3,52.24Zm9-21.52c-.21,1.69-1.46,4.94-3.3,5.19-.22,0-.12.08.31-.73a53.94,53.94,0,0,0,2.74-6c.12-.27.07-.23.14-.12C60.63,29.85,60.52,29.52,60.29,30.72Zm2.3,16.39s0,0,.06,0Zm7.55-5c-1.59.5-4.7,4-6.59,4.06-.87,0-.84-.06-.93-.18a4.25,4.25,0,0,1-1-1.59,16.87,16.87,0,0,1-.65-3.88c0-2.24,2.69-5.33.89-10-.54-1.41-1.66-3.45-2.32-2.17a56.44,56.44,0,0,1-3.51,7c-1.89,2.72-1.45,3.55-2.17,6.75,0,0-3.88-10.59-3.49-16.39,0-.85-.33-.23,0-.87a4.32,4.32,0,0,1,.65-1c2.14-2.64,2-2.92,5.09-5.37,2.12-1.67.18-.64-.29,2.11a11,11,0,0,0,.54,4.13,17.91,17.91,0,0,0,1.87,4.36c1.08,2-1-2.28-1.39-6.76a5.78,5.78,0,0,1,.48-3.62c1.09-2.39.55-2,3-3.41,1.23-.69,1.45-1,3.3-2.07a17.8,17.8,0,0,1,2.11,5.19A11,11,0,0,1,66,21.8c-1.82,1-2.17,1-2,2.79A17.46,17.46,0,0,0,65.38,30C69.88,42.67,71.36,41.77,70.15,42.13ZM73,43.88a1.4,1.4,0,0,1-1.25-.61c3.1-.41,5.31-2.38,6.7-3a2.84,2.84,0,0,1-.18,1C77.38,42.73,74.39,43.88,73,43.88Zm-5.54,8.92s0,0,0,0S67.39,52.85,67.44,52.81Zm7.23-2.29c-.16.05-.27.11-.8.33-3,1.28-2.61,1.1-2.41.62A8.59,8.59,0,0,1,74,48a4.36,4.36,0,0,0,.21.46C75.34,50.81,75.64,50.17,74.67,50.51Zm3.51,2.2c-.13-.37,0,0,.93.34,4.12,1.58,4,1,3.62,1.43S79.06,54.57,78.18,52.72ZM79,59.13c-4.64,1.12-6.4-.13-8.3,1.68-.74.7-1.43,1.43-.54.31a14.73,14.73,0,0,1,1.74-1.55,6.3,6.3,0,0,1,2.72-1.63,7.47,7.47,0,0,1,2.64-.5c3.28.48,2-.93,3.59,1.1C80.82,58.54,79.23,59.07,79,59.13ZM71.16,70.19l0,0S71.17,70.08,71.16,70.19Zm33.52,2.41a18.65,18.65,0,0,1,3,.18c.81.12,1.36-.11-2.47,1-.51.15-.39.24-.5-.4C104.55,72.47,104.51,72.58,104.68,72.61ZM100.61,74a4.52,4.52,0,0,1,2.19-.15c.22,0,.2,0,.23.27.12.46.12.24-.64.59-2.19,1-2.56,2.77-2.55,1.79C99.85,73.88,99.52,74.24,100.61,74ZM84,59.74c-.11-.14-.08,0,.56,0,.24,0,2.51-.06,2.48,0C86.56,60.49,84.55,60.49,84,59.74Zm8.86,23.84a2.62,2.62,0,0,0-.47.06c-.19,0-1.23-1.23-.13-3.15a2.29,2.29,0,0,1,1.29-1.16c1-.47,2-.82,2.82,0a1.22,1.22,0,0,1,.19.59c0-.1-2.15-2-3.87,1.22C92.5,81.41,92.14,82.09,92.84,83.58Zm1-.52c0,.06,0,.09,0,.06a2.3,2.3,0,0,1-.17-1.25,3.72,3.72,0,0,1,1.2-1.38c.27-.09.36-.08.84.26.23.16.43,0-1,1.21C94.06,82.52,93.9,82.57,93.87,83.06Zm5,4.42c-.19,0-.15.07-.21,0s.14-.4.82-.54.43.16.66.42a5.77,5.77,0,0,1,.73,1.26c.38.78.45.61.13.74s-.32.21-.53-.08C99.13,87.47,99.14,87.48,98.87,87.48Zm.49,4.13c-.39-.65-.3-.56.07-.7a37.32,37.32,0,0,0,3.73-1.37c.15.24.12.17.14.26C103.39,91.59,99.43,91.79,99.36,91.61ZM110.6,78.51c.46-.24.07-.33,1.17,1.05.87,1.08.79,1.37,1.44,2a6.87,6.87,0,0,1,.64.66c.38.45.38.36.26.34-3.7.59-2.33.69-4.73,2.13-.09,0-.06.1-.24-.31a41.7,41.7,0,0,0-2.65-4.28A39.24,39.24,0,0,0,110.6,78.51Zm-10.08,5.4c2.66-.26,4.06-3,4.88-3.41.47,1,2.71,3.92,2.9,4.22.31.51.34.36-.47.73-.61.27-3,1.66-3.14,1.77a14.44,14.44,0,0,1-2.4,1.55c-.34.15-.11.28-1-1.3.66-.44.15-2.36-.79-3.57Zm-1.11.6c.4.42,1.46,1.55,1.33,2.08a1.13,1.13,0,0,0-.84-.56,2,2,0,0,0-2.09,1.06c-.35.93.71,1.06.09,1.59-.06,0,0,.05-.13-.14-.48-1-1.31-1.35-2.17-3-.6-1.12-.74-.56,1-1.09.29-.09.22,0,1.18,0C99.55,84.36,99,84.06,99.41,84.5Zm-1.15-2.59a4.22,4.22,0,0,1-2.12,1.26.4.4,0,0,0-.13.12c-.14,0-1-.17-.9-.26,1.14-1,3.68-3.32,3.76-3.2a1,1,0,0,1,.22.49C99.15,81,98.78,81.42,98.26,81.91ZM93.88,72a7.43,7.43,0,0,1-1.76.76c-.59.13-1.59.79-2.43-.09.07,0,1.67-.7,2.89-1.3,1.77-.86,1.66-.8,1.78-.66C94.64,71.09,94.15,71.72,93.88,72Zm1-2.84c-1.21.54-1.22.49-2.8,1.26-2.74,1.32-3,1.2-3.36,1.76-.88,1.26,1.75,2.28,3.21,2.74a6.43,6.43,0,0,0,4.59-.07c1.12,0,2,.1,2.33,0s.18-.16.19,0A24.82,24.82,0,0,1,99,77.9a10.73,10.73,0,0,1-1.46,1.44,2,2,0,0,0-3.09-1.6c-2.34,1.11-2.94,2-3.32,3.19a3.32,3.32,0,0,0,.31,2.58c.22.4.58.2-1.55.44C81.11,85.13,79.73,81.34,78,79.76A11.73,11.73,0,0,1,75,71.37c.07-2.51,0-1.59,1.76-4,.93,1.9,4.75,7,7.21,8.31a8.15,8.15,0,0,0,3.15,1.19c3.68.56,6.58,0,6.32-.07-2.35.06-2.52-.07-5.73-.69S83,73.46,81.82,72.54a22.67,22.67,0,0,1-1.93-2,17.64,17.64,0,0,1-2-2.16c-1.08-1.39-1-1-.81-1.36a11,11,0,0,1,3-2.38c1.46-.87,5.46-.84,6.87-2.69A4.49,4.49,0,0,0,88,59.32c-.21-.92-1.3-.25-2.8-.35,1.21-.59.35-.33,2.81-.9.47-.1.29-.12.64.08a20.23,20.23,0,0,1,7.12,7c.62,1.18,1.16,1.81,1.64,2.73C97.44,67.84,95.56,68.81,94.89,69.11ZM103,64.9c.65.16,3.08,1.18,3.27,1.26.81.33.51.2.4.2-3.3-.13-3.21-.28-4.18-.23l-.71-1.53A11.3,11.3,0,0,0,103,64.9Zm-7.68-3.19c1.78,1.42,1.31.46,3.9,2.93.87.84.43.32.71.84,0,0,.46,1,.45,1-.27.05-2,.85-2.25,1s.06.12-.72-1c-1.78-2.67-2.05-4.61-8.45-8.6a23.82,23.82,0,0,1,3.38-.08c1.31.21,1,.09,1.08.86A5,5,0,0,0,95.36,61.71Zm3.29-2.65a.63.63,0,0,1-.69.17s0,0-.06,0-.2,0-.26-.05c-1.8-.8-1.33-.55-2.24-1.41-1.53-1.46-.35-1,1-.08a12.21,12.21,0,0,0,1.93,1.12C98.78,59,98.72,58.94,98.65,59.05Zm54.84,18.86A5.24,5.24,0,0,1,152,76.84c-3.25-2.79-1.78-1.48-3.07-3.82-1.81-4.28-.71-8.55,1.45-12.58.39-.71,0,0,0,0a13.85,13.85,0,0,0,2.7,5.56,13.39,13.39,0,0,0,5,3.8c2,1,1.84.53,1.81,1-.25,5.81-2.1,7.3-3.13,8.61C156.08,79.82,154.91,78.67,153.49,77.91ZM141,71.76a9.31,9.31,0,0,0,2.12,3.32,13.84,13.84,0,0,0,5.5,4.09,15.41,15.41,0,0,0,3.75,1.66c.7.19.85.29,1.23.37,1,.23,1,.12.67.29-2.37,1.1-4.76,2.33-9.88.2-1.64-.68-2-1.1-3.81-4.56a17.76,17.76,0,0,1-1.74-5.3A40.61,40.61,0,0,1,139,63.2C139.33,61.38,138.15,66,141,71.76Zm-8-47.64c.19-.59.16-.52.16-.45s0,0,.11.38c1,3,.2,1.07.84,3.39.34,1.23,1.14,3.81.45,9.34-1.62,0-1.78.38-1.75,0C133.55,26.47,131.27,30,133.09,24.12ZM130.48,46.2c.1-.21.14-.28.24-.49,2.82-6.52,1.11-6.06,2.64-6,.79,0,.65-.47-.43,2.77-.09.25-1.69,5-1.91,4.81l-.75-.55C130.17,46.7,130.18,46.8,130.48,46.2ZM129,65.54c-1.4-1.94-1.66-1.91-2.47-4.76-1.12-3.78-.78-4.48,1.38-9.32.34-.75.2-.62.48-.44,1.45.94,1.18.87,1.12,1.07a18.62,18.62,0,0,0-.51,11,17.62,17.62,0,0,0,1.55,4.31A12.17,12.17,0,0,1,129,65.54Zm0-15.94c-.18-.11-.27.12.56-1.54.12.19,4.53,3.61,8.61,1.55,4.45-2.18,3.7-10.72-3.71-10.7H133c-.46,0-.3.19-.21-1.13,0-.2,0-.16.18-.16,2.33-.19,4.84-.37,8.41,3.56,4.22,4.69.33,10.33-4.91,11C132.29,52.7,131.07,51,129,49.6ZM136.75,48c.45-2.7,1-5.75,1.14-6.94a4.77,4.77,0,0,1,1.29,5.26,4.38,4.38,0,0,1-1.88,2.09C136.49,48.7,136.65,48.62,136.75,48Zm-1.27,7.23c.63-2.6-.53-.78,3.18-2-.07,0-1.05,2.17-1.8,4-1.12,3-1.75,5-1.94,11.3A41.72,41.72,0,0,1,135.48,55.21Zm5.35,26.68c-2-2.64-1.75-3.67-3.37-6.43-1.06-1.78-1.27-1.16-1.5-6.37a41.4,41.4,0,0,1,.35-5.7,26.8,26.8,0,0,1,1.78-6.68c1.9-5.07.83-3.27,2.48-4.44,3.83-2.77,1-2.61-2.4,9.76a26.31,26.31,0,0,0-.92,8.69,19.65,19.65,0,0,0,3,8.85c.4.29,1.07,3.85,8.67,4.56a10.3,10.3,0,0,0,5.08-.94A10.41,10.41,0,0,0,156.42,82a16,16,0,0,0,2-2.23c2.54-3,2.35-5.21,2.35-3.44a18.22,18.22,0,0,1-.21,3,13,13,0,0,1-2,4.83c-4.35,3.43-10.1,2.88-14.92.14C140.19,82.35,141.29,82.5,140.83,81.89Zm25.89,12.67c-.3.08-.63.21-1.79.46-10.17,2.35-8.19,2.33-13.78,1.94-3.21-.21-5.77-.83-7.95-3.17a13.57,13.57,0,0,1-1.3-3.91c1.09,1.61,2.45,2.08,4.35,2.42a8.49,8.49,0,0,0,1,.81c1.12.79.72.88,2.47,1.51,4.69,1.66,6.7,1.18,11.61.42,3.12-.47,5.55-.67,6-.72C169.59,94,167.85,94.25,166.71,94.57Zm5.58-2.31c-.51-.09-3.8.45-8.29.9-3.68.38-8.83,1.92-12.75.58a9.36,9.36,0,0,1-2.6-1c-1-.64-.23.05,2.3-.2a17.72,17.72,0,0,0,3.71-.77c.08,0,5.08-1.88,5.67-2.15a11.72,11.72,0,0,0,4.29-2.74c2.58-2.46,3.15-3.7,3.82-5.69,1.7-4.84.6-6.74.17-8.69,2.43.7.95-.47,2.28,1.65a13.56,13.56,0,0,1,1.77,3C175.12,83.68,172.3,92.33,172.3,92.25Zm7.47,0c-.06.19.22.07-2.43.1-1.77-.18-4.08-.17-4.08-.17,2-2.43,3.14-12.38-.8-17.72-1.46-2-1.2-1.53.07-1.53a7.79,7.79,0,0,1,.91.07c.31,0,2.35,1.41,4.59,4.85C180.61,81.81,180.77,89.24,179.77,92.25Zm2.63-47.1c5.85-.45,8.43-1.4,12.68,1.8a10.35,10.35,0,0,1-5.26,4,1.62,1.62,0,0,0,.07-1.15c-.32-1.59-3.84-5.74-11.14-3.06A8.37,8.37,0,0,1,182.41,45.14ZM179.92,48c3.38-1,4.67-.66,6.12-.08.87.39,2.26,1.49,2.41,2.34a1.39,1.39,0,0,1-.59,1,3.63,3.63,0,0,1-.72.33c-.19.11,0,.09-.75.09-2.2,0-4.71.15-6.53-2C178.78,48.34,178,48.54,179.92,48Zm-1.71,2.1c.63.47,1,1.65,3.54,2.55,1.05.37,4,2.58,9.22-.47,3.54-1.31,4.16-3.95,3.26-.82-1.12,3.88-6.46,6.14-10.49,6.14-2.19,0-6.08-.65-8-1.94s-4-2.13-.25-8.46c.84-1.41.49-1.37.78-.44A9.86,9.86,0,0,0,178.21,50.08Zm-19.54,9.63a9.85,9.85,0,0,1,0-6,7,7,0,0,1,1.64-3.37c1.68-2,1.38-2,2.53-3.07a12.85,12.85,0,0,0,1.41-1.39c-.06.07-2.23,4.18-.39,10.54a11.69,11.69,0,0,0,1.9,4c2,2.49,1.68,2.48,4.07,4.13,1.14.77,1.8,1.53,6.75,3.24a17,17,0,0,0,4,1.05C182.11,69,161.4,70.81,158.67,59.71Zm24.16,7.8c-3.61-.23-2.34-.24-4.07-.83a39.28,39.28,0,0,1-7.27-3.41,10.21,10.21,0,0,1-2.41-1.83,7,7,0,0,1-1.88-2.19c-1-1.68-1.26-2-1.81-3.14a13.72,13.72,0,0,1,.24-9.84c.63-1.4.87-1.62,2.92-4.14.07-.06,9.36-7.79,11.67-10.68.9-1.1-.84,1.17-1.73,3-3.68,7.36-12,15.42-4.74,22.1,4.52,4.12,10.69,5.54,15.67,9.63A24.1,24.1,0,0,1,182.83,67.51Zm4.1,26.43c-.44.55.19.2-2.27-.63-3.5-1.15-2.36.33-.74-3.67s1.85-10-.89-16.62c-.57-1.27-.82-.83.45-1.14,2.27-.52,1.48-.8,2.52.4a5.69,5.69,0,0,1,1.45,2.11C191.24,83.61,189.76,90.36,186.93,93.95Zm8,1.95a28.78,28.78,0,0,1-2.09,3,26.74,26.74,0,0,0-4.38-3.49c-1.26-.79-.4.31,1.11-3,2-4.5,1.9-7.78,1.11-12.36-.38-1.92-1.84-6.5-3.25-7.85,0,0-1.07-1.1-1-1.11,1.18-.19,4.94-2.66,5.24-2.88C198.15,75.6,200.52,86.58,194.94,95.89ZM198.61,51c2.29,5.73-1.35,10.9-7.14,14.11-1.18.65-1,.58-1.24.37-6.42-5.27-4.34-.5,1.32-4.23,1.75-1.15,1.78-1.29,3.4-3.59,1.15-1.6,1.36-4.43,1.26-6.38-.12-3.32-.63-2.56.06-3.36A10.83,10.83,0,0,1,198.61,51Z"/><path d="M13.65,100H25C19.36,99.45,17.25,99.22,13.65,100Z"/><path d="M147.61,12.87A45,45,0,0,0,141.88,0h-.61a48.14,48.14,0,0,1,5.63,13.57C147.13,13.33,147.37,13.09,147.61,12.87Z"/><path class="cls-16" d="M199.26,58.9l0,0"/><path d="M32.59,49.6c0-.08,0-.09,0,0Z"/><path class="cls-16" d="M185.8,21v0"/><path class="cls-16" d="M36.64,25.85h0"/><path class="cls-9" d="M159.83,10.59C151.44,9.51,143,15.21,146,23.08c.26.69.33.48.13.66,0,0-.21.14-2.56,2.37-.82.77-.77.68-.45.59,5.11-1.38,4.44-1.35,4.75-1,5.84,5.75,18.09,4.56,21.43-2.61a7.59,7.59,0,0,0,.32-5.54C168.45,14,164.64,11.27,159.83,10.59Zm-7.38,11.18a1.35,1.35,0,1,1,1.35-1.35A1.37,1.37,0,0,1,152.45,21.77Zm3.9-1.57a1.35,1.35,0,1,1,1.35,1.35A1.37,1.37,0,0,1,156.35,20.2Zm6.51,1.32a1.35,1.35,0,1,1,1.35-1.35A1.37,1.37,0,0,1,162.85,21.51Z"/><path d="M161.33,9.72,161,9.65c-.45-.09-.91-.16-1.38-.21a17.15,17.15,0,0,0-6.52.53,15.18,15.18,0,0,0-2.4.9,13.07,13.07,0,0,0-3.07,2c-.25.22-.48.45-.71.69l-.23.24A8.71,8.71,0,0,0,145,23.45c.06.14,0,0-2.13,2s-1.91,1.82-2.23,2.16a.56.56,0,0,0,.69.7c6.67-1.77,5.63-1.93,7.1-.79a9.93,9.93,0,0,0,.87.6c.23.14.5.3.81.46a14.31,14.31,0,0,0,2.21,1,16.27,16.27,0,0,0,3.54.77l.45,0a17.32,17.32,0,0,0,1.79,0,17,17,0,0,0,3.87-.54,15.66,15.66,0,0,0,1.59-.52,14.15,14.15,0,0,0,2.62-1.31,12.37,12.37,0,0,0,2.12-1.7,12.29,12.29,0,0,0,1-1.22,8.79,8.79,0,0,0-1.13-11.83A12.27,12.27,0,0,0,166.58,12a14.15,14.15,0,0,0-3.63-1.79A16,16,0,0,0,161.33,9.72Zm8.28,7.79a7.59,7.59,0,0,1-.32,5.54c-3.34,7.16-15.59,8.36-21.43,2.61-.31-.31.35-.33-4.75,1-.32.09-.37.18.45-.59,2.35-2.23,2.56-2.37,2.56-2.37.21-.18.14,0-.13-.66-3-7.87,5.46-13.57,13.85-12.49C164.64,11.27,168.45,14,169.61,17.51Z"/><path d="M152.45,19.06a1.35,1.35,0,1,0,1.35,1.35A1.37,1.37,0,0,0,152.45,19.06Z"/><path d="M159.06,20.2a1.35,1.35,0,1,0-1.35,1.35A1.37,1.37,0,0,0,159.06,20.2Z"/><path d="M162.85,18.81a1.35,1.35,0,1,0,1.35,1.35A1.37,1.37,0,0,0,162.85,18.81Z"/></g></svg>