<svg xmlns="http://www.w3.org/2000/svg" viewBox="-6737 5258 144 144"><defs><style>.a{fill:#1fd9cc;}.b{fill:#30d2d2;}.c{fill:#42cbd8;}.d{fill:#59c1e0;}.e{fill:#57b6df;}.f{fill:#4ca9db;}.g{fill:#419dd7;}.h{fill:#fff;}</style></defs><g transform="translate(-6737 5258)"><path class="a" d="M3944.551,5466.351c9.66-2.771,19.182-5.666,29.045-7.664,15.559-3.158,31.2-3.327,46.849-1.687v-12.2H3881.4c11.285,9.057,23.114,17.9,36.336,23.8C3925.725,5472.157,3936.469,5468.673,3944.551,5466.351Z" transform="translate(-3876.461 -5444.8)"/><path class="b" d="M3898.446,5505.4c10.326-.341,19.089-5.28,27.341-11.055,8.794-6.163,17.293-12.633,27.373-16.644,13-5.154,26.753-5.93,40.408-4.613V5457c-15.637-1.64-31.289-1.471-46.849,1.688-9.877,2-19.383,4.892-29.044,7.664-8.1,2.323-18.826,5.822-26.815,2.246-13.222-5.9-25.05-14.74-36.337-23.8H3849.6v43.055C3864.261,5496.772,3881,5505.969,3898.446,5505.4Z" transform="translate(-3849.584 -5444.799)"/><path class="c" d="M3909.793,5684.445c12.154-2.616,21.83-11.147,30.624-19.506,8.035-7.648,16.1-16.877,26.536-21.2a66.138,66.138,0,0,1,26.63-4.737v-14.583c-13.671-1.317-27.419-.542-40.409,4.613-10.078,3.995-18.578,10.481-27.371,16.644-8.252,5.775-17.015,10.713-27.342,11.054-17.448.572-34.185-8.624-48.861-17.557v39.232C3869,5684.507,3889.7,5688.764,3909.793,5684.445Z" transform="translate(-3849.584 -5596.134)"/><path class="d" d="M3919.611,5791.359c14.011-5.433,25.313-16.04,35.686-26.645,8.545-8.732,17.107-19.584,28.518-24.632a50.329,50.329,0,0,1,9.769-3.174v-15.266a66.19,66.19,0,0,0-26.63,4.739c-10.45,4.319-18.5,13.547-26.536,21.2-8.779,8.36-18.47,16.891-30.624,19.506-20.1,4.336-40.795.062-60.195-6.022v37.885C3873.226,5800.99,3897.27,5800.046,3919.611,5791.359Z" transform="translate(-3849.584 -5678.773)"/><path class="e" d="M3965.042,5868.208c8.948-8.344,17.836-17.867,28.44-24.292V5820.4a50.241,50.241,0,0,0-9.769,3.174c-11.41,5.047-19.972,15.9-28.518,24.633-10.358,10.6-21.659,21.2-35.687,26.644-22.34,8.67-46.384,9.615-70.009,7.571v23.828h59.25q6.317-2.554,12.479-5.668C3937.623,5892.283,3951.681,5880.656,3965.042,5868.208Z" transform="translate(-3849.5 -5762.248)"/><path class="f" d="M4316.933,6003.1v-30.9c-10.6,6.426-19.508,15.962-28.441,24.291-13.36,12.463-27.435,24.075-43.814,32.358q-6.146,3.111-12.478,5.666h41.864c4.257-3.05,8.469-6.146,12.679-9.243C4296.326,6018.211,4306.28,6009.557,4316.933,6003.1Z" transform="translate(-4172.95 -5890.545)"/><path class="g" d="M4545.47,6171.8c-10.667,6.471-20.606,15.11-30.189,22.17-4.211,3.1-8.423,6.209-12.68,9.244h42.87Z" transform="translate(-4401.486 -6059.244)"/><path class="h" d="M4009.531,5743.935H4004.7V5735.7h23.61c9.646,0,16.411,5.93,16.411,15.885,0,9.506-6.533,13.439-8.762,13.873v.155a6.032,6.032,0,0,1,2.6,2.678l5.124,10.172c.821,1.563,2.075,1.7,3.716,1.7h.96v8.221h-5.124c-3.933,0-5.636-.588-7.355-3.933l-6.75-13.283c-1.115-2.075-2.23-2.446-4.97-2.446h-4.908v19.661h-9.722Zm17.448,16.475c4.893,0,7.788-3.036,7.788-8.316s-2.9-8.159-7.648-8.159h-7.865v16.475Z" transform="translate(-3980.672 -5690.661)"/><path class="h" d="M4307.57,5730.4c15.591,0,27.31,11.736,27.31,26.861a27.687,27.687,0,0,1-5.79,16.627l5.714,5.2-5.792,6.318-5.712-5.636a25.389,25.389,0,0,1-15.73,5.047c-15.436,0-27.171-12.169-27.171-27.542S4292.135,5730.4,4307.57,5730.4Zm0,45.348a14.57,14.57,0,0,0,8.686-2.524l-5.341-4.97,5.712-6.316,5.341,5.342a18.834,18.834,0,0,0,2.819-10.018c0-10.172-7.571-17.8-17.217-17.8s-17.076,7.648-17.076,17.8C4290.494,5767.728,4298.065,5775.748,4307.57,5775.748Z" transform="translate(-4213.688 -5686.183)"/></g></svg>