<?xml version="1.0" encoding="UTF-8"?>
<svg width="144px" height="144px" viewBox="0 0 144 144" version="1.1" xmlns="http://www.w3.org/2000/svg" xmlns:xlink="http://www.w3.org/1999/xlink">
    <!-- Generator: Sketch 50.2 (55047) - http://www.bohemiancoding.com/sketch -->
    <title>Rq-PortfolioItemLogo</title>
    <desc>Created with Sketch.</desc>
    <defs></defs>
    <g id="Page-1" stroke="none" stroke-width="1" fill="none" fill-rule="evenodd">
        <g id="Rq-PortfolioItemLogo" transform="translate(-1.000000, -1.000000)">
            <rect id="Rectangle" fill="#2C2C2C" x="1" y="1" width="144" height="144"></rect>
            <path d="M69.09,22.551 C78.75,19.78 88.272,16.885 98.135,14.887 C113.694,11.729 129.335,11.56 144.984,13.2 L144.984,1 L5.939,1 C17.224,10.057 29.053,18.9 42.275,24.8 C50.264,28.357 61.008,24.873 69.09,22.551 Z" id="Shape" fill="#0B0B0B" fill-rule="nonzero"></path>
            <path d="M49.862,61.601 C60.188,61.26 68.951,56.321 77.203,50.546 C85.997,44.383 94.496,37.913 104.576,33.902 C117.576,28.748 131.329,27.972 144.984,29.289 L144.984,13.201 C129.347,11.561 113.695,11.73 98.135,14.889 C88.258,16.889 78.752,19.781 69.091,22.553 C60.991,24.876 50.265,28.375 42.276,24.799 C29.054,18.899 17.226,10.059 5.939,0.999 L1.016,0.999 L1.016,44.054 C15.677,52.973 32.416,62.17 49.862,61.601 Z" id="Shape" fill="#161616" fill-rule="nonzero"></path>
            <path d="M61.209,89.311 C73.363,86.695 83.039,78.164 91.833,69.805 C99.868,62.157 107.933,52.928 118.369,48.605 C126.824561,45.2083622 135.890791,43.5956423 144.999,43.868 L144.999,29.285 C131.328,27.968 117.58,28.743 104.59,33.898 C94.512,37.893 86.012,44.379 77.219,50.542 C68.967,56.317 60.204,61.255 49.877,61.596 C32.429,62.168 15.692,52.972 1.016,44.039 L1.016,83.271 C20.416,89.373 41.116,93.63 61.209,89.311 Z" id="Shape" fill="#2C2C2C" fill-rule="nonzero"></path>
            <path d="M71.027,113.586 C85.038,108.153 96.34,97.546 106.713,86.941 C115.258,78.209 123.82,67.357 135.231,62.309 C138.370565,60.9206051 141.643942,59.8570676 145,59.135 L145,43.869 C135.891761,43.5987765 126.82583,45.2121241 118.37,48.608 C107.92,52.927 99.87,62.155 91.834,69.808 C83.055,78.168 73.364,86.699 61.21,89.314 C41.11,93.65 20.415,89.376 1.015,83.292 L1.015,121.177 C24.642,123.217 48.686,122.273 71.027,113.586 Z" id="Shape" fill="#494949" fill-rule="nonzero"></path>
            <path d="M116.542,106.96 C125.49,98.616 134.378,89.093 144.982,82.668 L144.982,59.152 C141.625781,59.8734713 138.352344,60.9370283 135.213,62.326 C123.803,67.373 115.241,78.226 106.695,86.959 C96.337,97.559 85.036,108.159 71.008,113.603 C48.668,122.273 24.624,123.218 0.999,121.174 L0.999,145.002 L60.249,145.002 C64.4603333,143.299333 68.62,141.41 72.728,139.334 C89.123,131.035 103.181,119.408 116.542,106.96 Z" id="Shape" fill="#464646" fill-rule="nonzero"></path>
            <path d="M144.983,113.555 L144.983,82.655 C134.383,89.081 125.475,98.617 116.542,106.946 C103.182,119.409 89.107,131.021 72.728,139.304 C68.6306667,141.378 64.4713333,143.266667 60.25,144.97 L102.114,144.97 C106.371,141.92 110.583,138.824 114.793,135.727 C124.376,128.666 134.33,120.012 144.983,113.555 Z" id="Shape" fill="#373737" fill-rule="nonzero"></path>
            <path d="M144.984,113.556 C134.317,120.027 124.378,128.666 114.795,135.726 C110.584,138.826 106.372,141.935 102.115,144.97 L144.985,144.97 L144.984,113.556 Z" id="Shape" fill="#2B2B2B" fill-rule="nonzero"></path>
            <path d="M29.859,54.274 L25.028,54.274 L25.028,46.039 L48.638,46.039 C58.284,46.039 65.049,51.969 65.049,61.924 C65.049,71.43 58.516,75.363 56.287,75.797 L56.287,75.952 C57.4150009,76.5473319 58.3252607,77.4848995 58.887,78.63 L64.011,88.802 C64.832,90.365 66.086,90.502 67.727,90.502 L68.687,90.502 L68.687,98.723 L63.563,98.723 C59.63,98.723 57.927,98.135 56.208,94.79 L49.458,81.507 C48.343,79.432 47.228,79.061 44.488,79.061 L39.58,79.061 L39.58,98.722 L29.858,98.722 L29.859,54.274 Z M47.307,70.749 C52.2,70.749 55.095,67.713 55.095,62.433 C55.095,57.153 52.195,54.274 47.447,54.274 L39.582,54.274 L39.582,70.749 L47.307,70.749 Z" id="Shape" fill="#FFFFFF" fill-rule="nonzero"></path>
            <path d="M94.882,45.217 C110.473,45.217 122.192,56.953 122.192,72.078 C122.122549,78.1026918 120.089727,83.9402961 116.402,88.705 L122.116,93.905 L116.324,100.223 L110.612,94.587 C106.077901,97.9758282 100.541349,99.7522413 94.882,99.634 C79.446,99.634 67.711,87.465 67.711,72.092 C67.711,56.719 79.447,45.217 94.882,45.217 Z M94.882,90.565 C97.9717827,90.6664658 101.013757,89.7825211 103.568,88.041 L98.227,83.071 L103.939,76.755 L109.28,82.097 C111.141933,79.0887145 112.118901,75.6168212 112.099,72.079 C112.099,61.907 104.528,54.279 94.882,54.279 C85.236,54.279 77.806,61.927 77.806,72.079 C77.806,82.545 85.377,90.565 94.882,90.565 Z" id="Shape" fill="#FFFFFF" fill-rule="nonzero"></path>
        </g>
    </g>
</svg>