<?xml version="1.0" encoding="UTF-8"?>
<svg width="3000px" height="1500px" viewBox="0 0 3000 1500" version="1.1" xmlns="http://www.w3.org/2000/svg" xmlns:xlink="http://www.w3.org/1999/xlink">
    <!-- Generator: Sketch 50.2 (55047) - http://www.bohemiancoding.com/sketch -->
    <title>Artboard 4</title>
    <desc>Created with Sketch.</desc>
    <defs></defs>
    <g id="Artboard-4" stroke="none" stroke-width="1" fill="none" fill-rule="evenodd">
        <path d="M945.720703,573.984375 C945.720703,582.90369 943.018907,590.48825 937.615234,596.738281 C932.211562,602.988313 924.627002,607.285145 914.861328,609.628906 L914.861328,610.214844 C926.384823,611.647143 935.108694,615.146457 941.033203,620.712891 C946.957712,626.279325 949.919922,633.782505 949.919922,643.222656 C949.919922,656.959704 944.939503,667.652957 934.978516,675.302734 C925.017528,682.952512 910.79241,686.777344 892.302734,686.777344 C876.807865,686.777344 863.071023,684.205755 851.091797,679.0625 L851.091797,653.378906 C856.625679,656.178399 862.712857,658.457022 869.353516,660.214844 C875.994174,661.972665 882.569629,662.851562 889.080078,662.851562 C899.041065,662.851562 906.397763,661.158871 911.150391,657.773438 C915.903019,654.388004 918.279297,648.95186 918.279297,641.464844 C918.279297,634.759081 915.544949,630.006524 910.076172,627.207031 C904.607395,624.407538 895.883523,623.007812 883.904297,623.007812 L873.064453,623.007812 L873.064453,599.863281 L884.099609,599.863281 C895.167373,599.863281 903.256485,598.414728 908.367188,595.517578 C913.47789,592.620428 916.033203,587.656285 916.033203,580.625 C916.033203,569.817654 909.262438,564.414062 895.720703,564.414062 C891.03318,564.414062 886.264347,565.195305 881.414062,566.757812 C876.563778,568.32032 871.176462,571.022116 865.251953,574.863281 L851.287109,554.0625 C864.308008,544.687453 879.835196,540 897.869141,540 C912.64786,540 924.317666,542.994762 932.878906,548.984375 C941.440147,554.973988 945.720703,563.307238 945.720703,573.984375 Z M1014.86133,540.195312 C1028.53327,540.195312 1039.55204,543.304005 1047.91797,549.521484 C1056.2839,555.738963 1060.4668,564.121041 1060.4668,574.667969 C1060.4668,581.959672 1058.44859,588.453748 1054.41211,594.150391 C1050.37563,599.847034 1043.86528,604.941384 1034.88086,609.433594 C1045.558,615.162789 1053.22394,621.136037 1057.87891,627.353516 C1062.53388,633.570995 1064.86133,640.390588 1064.86133,647.8125 C1064.86133,659.531309 1060.27153,668.955042 1051.0918,676.083984 C1041.91206,683.212926 1029.83536,686.777344 1014.86133,686.777344 C999.23625,686.777344 986.964237,683.457064 978.044922,676.816406 C969.125606,670.175748 964.666016,660.76829 964.666016,648.59375 C964.666016,640.455688 966.830708,633.229198 971.160156,626.914062 C975.489605,620.598927 982.439405,615.032576 992.009766,610.214844 C983.871704,605.071589 978.012388,599.570342 974.431641,593.710938 C970.850894,587.851533 969.060547,581.438837 969.060547,574.472656 C969.060547,564.251251 973.292275,555.983104 981.755859,549.667969 C990.219443,543.352833 1001.25449,540.195312 1014.86133,540.195312 Z M992.595703,646.835938 C992.595703,652.434924 994.548809,656.796859 998.455078,659.921875 C1002.36135,663.046891 1007.69984,664.609375 1014.4707,664.609375 C1021.95772,664.609375 1027.55662,662.998063 1031.26758,659.775391 C1034.97853,656.552718 1036.83398,652.304714 1036.83398,647.03125 C1036.83398,642.669249 1034.99481,638.584003 1031.31641,634.775391 C1027.638,630.966778 1021.66475,626.914084 1013.39648,622.617188 C999.529228,628.997428 992.595703,637.070264 992.595703,646.835938 Z M1014.66602,562.265625 C1009.52276,562.265625 1005.37241,563.583971 1002.21484,566.220703 C999.057276,568.857435 997.478516,572.389301 997.478516,576.816406 C997.478516,580.722676 998.731758,584.22199 1001.23828,587.314453 C1003.7448,590.406917 1008.28577,593.580713 1014.86133,596.835938 C1021.24157,593.841131 1025.70116,590.781266 1028.24023,587.65625 C1030.77931,584.531234 1032.04883,580.917989 1032.04883,576.816406 C1032.04883,572.324196 1030.42124,568.776055 1027.16602,566.171875 C1023.91079,563.567695 1019.74417,562.265625 1014.66602,562.265625 Z M1102.55664,584.824219 C1102.55664,593.092489 1103.28906,599.261047 1104.75391,603.330078 C1106.21876,607.399109 1108.57876,609.433594 1111.83398,609.433594 C1118.08402,609.433594 1121.20898,601.230551 1121.20898,584.824219 C1121.20898,568.548096 1118.08402,560.410156 1111.83398,560.410156 C1108.57876,560.410156 1106.21876,562.412089 1104.75391,566.416016 C1103.28906,570.419942 1102.55664,576.555948 1102.55664,584.824219 Z M1145.81836,584.628906 C1145.81836,599.602939 1142.92125,610.849572 1137.12695,618.369141 C1131.33265,625.888709 1122.83664,629.648438 1111.63867,629.648438 C1100.89643,629.648438 1092.59573,625.791054 1086.73633,618.076172 C1080.87692,610.36129 1077.94727,599.212313 1077.94727,584.628906 C1077.94727,554.876153 1089.17762,540 1111.63867,540 C1122.64133,540 1131.08851,543.857383 1136.98047,551.572266 C1142.87243,559.287148 1145.81836,570.305918 1145.81836,584.628906 Z M1213.00586,542.050781 L1133.80664,684.824219 L1110.36914,684.824219 L1189.56836,542.050781 L1213.00586,542.050781 Z M1202.55664,641.855469 C1202.55664,650.123739 1203.28906,656.292297 1204.75391,660.361328 C1206.21876,664.430359 1208.57876,666.464844 1211.83398,666.464844 C1218.08402,666.464844 1221.20898,658.261801 1221.20898,641.855469 C1221.20898,625.579346 1218.08402,617.441406 1211.83398,617.441406 C1208.57876,617.441406 1206.21876,619.443339 1204.75391,623.447266 C1203.28906,627.451192 1202.55664,633.587198 1202.55664,641.855469 Z M1245.81836,641.660156 C1245.81836,656.569085 1242.92125,667.783166 1237.12695,675.302734 C1231.33265,682.822303 1222.83664,686.582031 1211.63867,686.582031 C1200.89643,686.582031 1192.59573,682.724648 1186.73633,675.009766 C1180.87692,667.294883 1177.94727,656.178458 1177.94727,641.660156 C1177.94727,611.907403 1189.17762,597.03125 1211.63867,597.03125 C1222.64133,597.03125 1231.08851,600.888633 1236.98047,608.603516 C1242.87243,616.318398 1245.81836,627.337168 1245.81836,641.660156 Z M1321.89258,684.824219 L1321.89258,542.050781 L1352.16602,542.050781 L1352.16602,684.824219 L1321.89258,684.824219 Z M1486.54102,684.824219 L1456.75586,684.824219 L1456.75586,621.054688 C1456.75586,613.177044 1455.35613,607.2689 1452.55664,603.330078 C1449.75715,599.391256 1445.29756,597.421875 1439.17773,597.421875 C1430.84436,597.421875 1424.82228,600.20505 1421.11133,605.771484 C1417.40037,611.337918 1415.54492,620.566342 1415.54492,633.457031 L1415.54492,684.824219 L1385.75977,684.824219 L1385.75977,575.644531 L1408.51367,575.644531 L1412.51758,589.609375 L1414.17773,589.609375 C1417.49806,584.335911 1422.07159,580.348321 1427.89844,577.646484 C1433.72529,574.944648 1440.34957,573.59375 1447.77148,573.59375 C1460.46686,573.59375 1470.10218,577.02796 1476.67773,583.896484 C1483.25329,590.765008 1486.54102,600.677019 1486.54102,613.632812 L1486.54102,684.824219 Z M1561.54102,686.777344 C1527.55647,686.777344 1510.56445,668.125187 1510.56445,630.820312 C1510.56445,612.265532 1515.1868,598.089242 1524.43164,588.291016 C1533.67648,578.49279 1546.92504,573.59375 1564.17773,573.59375 C1576.80801,573.59375 1588.13602,576.067684 1598.16211,581.015625 L1589.37305,604.0625 C1584.68552,602.17447 1580.32359,600.628261 1576.28711,599.423828 C1572.25063,598.219395 1568.21421,597.617188 1564.17773,597.617188 C1548.68287,597.617188 1540.93555,608.619682 1540.93555,630.625 C1540.93555,651.979273 1548.68287,662.65625 1564.17773,662.65625 C1569.90693,662.65625 1575.21287,661.891284 1580.0957,660.361328 C1584.97854,658.831373 1589.8613,656.438818 1594.74414,653.183594 L1594.74414,678.671875 C1589.92641,681.731786 1585.05992,683.84765 1580.14453,685.019531 C1575.22914,686.191412 1569.02803,686.777344 1561.54102,686.777344 Z M1680.97461,573.59375 C1685.01109,573.59375 1688.36392,573.886716 1691.0332,574.472656 L1688.78711,602.402344 C1686.37824,601.751299 1683.44858,601.425781 1679.99805,601.425781 C1670.49279,601.425781 1663.08727,603.867163 1657.78125,608.75 C1652.47523,613.632837 1649.82227,620.468706 1649.82227,629.257812 L1649.82227,684.824219 L1620.03711,684.824219 L1620.03711,575.644531 L1642.5957,575.644531 L1646.99023,594.003906 L1648.45508,594.003906 C1651.84051,587.884084 1656.41403,582.952493 1662.17578,579.208984 C1667.93753,575.465476 1674.20374,573.59375 1680.97461,573.59375 Z M1756.07227,594.785156 C1749.75713,594.785156 1744.80926,596.787089 1741.22852,600.791016 C1737.64777,604.794942 1735.59701,610.475224 1735.07617,617.832031 L1776.87305,617.832031 C1776.74284,610.475224 1774.82228,604.794942 1771.11133,600.791016 C1767.40037,596.787089 1762.3874,594.785156 1756.07227,594.785156 Z M1760.27148,686.777344 C1742.69327,686.777344 1728.95643,681.927132 1719.06055,672.226562 C1709.16466,662.525993 1704.2168,648.789151 1704.2168,631.015625 C1704.2168,612.721263 1708.79032,598.577524 1717.9375,588.583984 C1727.08468,578.590445 1739.73104,573.59375 1755.87695,573.59375 C1771.30672,573.59375 1783.31832,577.988237 1791.91211,586.777344 C1800.5059,595.56645 1804.80273,607.708256 1804.80273,623.203125 L1804.80273,637.65625 L1734.39258,637.65625 C1734.7181,646.119834 1737.22459,652.727841 1741.91211,657.480469 C1746.59963,662.233097 1753.17509,664.609375 1761.63867,664.609375 C1768.21423,664.609375 1774.43161,663.925788 1780.29102,662.558594 C1786.15042,661.191399 1792.27015,659.010432 1798.65039,656.015625 L1798.65039,679.0625 C1793.44203,681.66668 1787.87568,683.603509 1781.95117,684.873047 C1776.02666,686.142584 1768.80017,686.777344 1760.27148,686.777344 Z M1898.35742,684.824219 L1892.5957,669.980469 L1891.81445,669.980469 C1886.80141,676.295604 1881.64195,680.673816 1876.33594,683.115234 C1871.02992,685.556653 1864.11267,686.777344 1855.58398,686.777344 C1845.10216,686.777344 1836.85029,683.782582 1830.82812,677.792969 C1824.80596,671.803355 1821.79492,663.274795 1821.79492,652.207031 C1821.79492,640.618432 1825.84762,632.073595 1833.95312,626.572266 C1842.05863,621.070936 1854.28182,618.027347 1870.62305,617.441406 L1889.56836,616.855469 L1889.56836,612.070312 C1889.56836,601.002549 1883.90435,595.46875 1872.57617,595.46875 C1863.85217,595.46875 1853.59837,598.105442 1841.81445,603.378906 L1831.95117,583.261719 C1844.51634,576.686165 1858.44849,573.398438 1873.74805,573.398438 C1888.39656,573.398438 1899.62691,576.58851 1907.43945,582.96875 C1915.25199,589.34899 1919.1582,599.049414 1919.1582,612.070312 L1919.1582,684.824219 L1898.35742,684.824219 Z M1889.56836,634.238281 L1878.04492,634.628906 C1869.38602,634.889324 1862.94078,636.451809 1858.70898,639.316406 C1854.47719,642.181004 1852.36133,646.542939 1852.36133,652.402344 C1852.36133,660.800823 1857.17899,665 1866.81445,665 C1873.71553,665 1879.23305,663.014343 1883.36719,659.042969 C1887.50132,655.071595 1889.56836,649.79821 1889.56836,643.222656 L1889.56836,634.238281 Z M2025.99414,652.402344 C2025.99414,663.600316 2022.10421,672.128877 2014.32422,677.988281 C2006.54423,683.847686 1994.90698,686.777344 1979.41211,686.777344 C1971.46936,686.777344 1964.6986,686.24024 1959.09961,685.166016 C1953.50062,684.091792 1948.25979,682.513031 1943.37695,680.429688 L1943.37695,655.820312 C1948.91083,658.424492 1955.1445,660.60546 1962.07812,662.363281 C1969.01175,664.121103 1975.11521,665 1980.38867,665 C1991.19602,665 1996.59961,661.875031 1996.59961,655.625 C1996.59961,653.281238 1995.88347,651.37696 1994.45117,649.912109 C1993.01887,648.447258 1990.54494,646.787119 1987.0293,644.931641 C1983.51365,643.076163 1978.8262,640.911471 1972.9668,638.4375 C1964.56832,634.921857 1958.39976,631.666682 1954.46094,628.671875 C1950.52212,625.677068 1947.65756,622.242858 1945.86719,618.369141 C1944.07681,614.495423 1943.18164,609.726591 1943.18164,604.0625 C1943.18164,594.361931 1946.94137,586.85875 1954.46094,581.552734 C1961.98051,576.246718 1972.64121,573.59375 1986.44336,573.59375 C1999.59447,573.59375 2012.38731,576.458305 2024.82227,582.1875 L2015.83789,603.671875 C2010.36911,601.328113 2005.25849,599.40756 2000.50586,597.910156 C1995.75323,596.412753 1990.90302,595.664062 1985.95508,595.664062 C1977.16597,595.664062 1972.77148,598.040341 1972.77148,602.792969 C1972.77148,605.462253 1974.18749,607.773428 1977.01953,609.726562 C1979.85158,611.679697 1986.05269,614.576804 1995.62305,618.417969 C2004.15174,621.868507 2010.40167,625.091131 2014.37305,628.085938 C2018.34442,631.080744 2021.27408,634.53123 2023.16211,638.4375 C2025.05014,642.34377 2025.99414,646.998671 2025.99414,652.402344 Z M2094.45117,594.785156 C2088.13604,594.785156 2083.18817,596.787089 2079.60742,600.791016 C2076.02667,604.794942 2073.97591,610.475224 2073.45508,617.832031 L2115.25195,617.832031 C2115.12174,610.475224 2113.20119,604.794942 2109.49023,600.791016 C2105.77928,596.787089 2100.76631,594.785156 2094.45117,594.785156 Z M2098.65039,686.777344 C2081.07218,686.777344 2067.33534,681.927132 2057.43945,672.226562 C2047.54357,662.525993 2042.5957,648.789151 2042.5957,631.015625 C2042.5957,612.721263 2047.16923,598.577524 2056.31641,588.583984 C2065.46359,578.590445 2078.10995,573.59375 2094.25586,573.59375 C2109.68562,573.59375 2121.69722,577.988237 2130.29102,586.777344 C2138.88481,595.56645 2143.18164,607.708256 2143.18164,623.203125 L2143.18164,637.65625 L2072.77148,637.65625 C2073.09701,646.119834 2075.60349,652.727841 2080.29102,657.480469 C2084.97854,662.233097 2091.55399,664.609375 2100.01758,664.609375 C2106.59313,664.609375 2112.81052,663.925788 2118.66992,662.558594 C2124.52933,661.191399 2130.64906,659.010432 2137.0293,656.015625 L2137.0293,679.0625 C2131.82094,681.66668 2126.25459,683.603509 2120.33008,684.873047 C2114.40557,686.142584 2107.17908,686.777344 2098.65039,686.777344 Z M348.992188,838.195312 C337.598901,838.195312 328.777375,842.475869 322.527344,851.037109 C316.277312,859.59835 313.152344,871.528569 313.152344,886.828125 C313.152344,918.664222 325.098839,934.582031 348.992188,934.582031 C359.018279,934.582031 371.160085,932.075546 385.417969,927.0625 L385.417969,952.453125 C373.69916,957.335962 360.613354,959.777344 346.160156,959.777344 C325.391823,959.777344 309.506565,953.478579 298.503906,940.880859 C287.501247,928.28314 282,910.200639 282,886.632812 C282,871.788988 284.701796,858.784561 290.105469,847.619141 C295.509142,836.45372 303.272736,827.892608 313.396484,821.935547 C323.520233,815.978486 335.385349,813 348.992188,813 C362.859444,813 376.791597,816.352831 390.789062,823.058594 L381.023438,847.667969 C375.684869,845.128894 370.313829,842.915374 364.910156,841.027344 C359.506483,839.139313 354.200547,838.195312 348.992188,838.195312 Z M490.789062,957.824219 L486.785156,943.859375 L485.222656,943.859375 C482.032536,948.937525 477.507842,952.860012 471.648438,955.626953 C465.789033,958.393894 459.115923,959.777344 451.628906,959.777344 C438.803321,959.777344 429.135449,956.343133 422.625,949.474609 C416.114551,942.606085 412.859375,932.726627 412.859375,919.835938 L412.859375,848.644531 L442.644531,848.644531 L442.644531,912.414062 C442.644531,920.291706 444.044257,926.19985 446.84375,930.138672 C449.643243,934.077494 454.102834,936.046875 460.222656,936.046875 C468.556031,936.046875 474.578106,933.2637 478.289062,927.697266 C482.000019,922.130832 483.855469,912.902408 483.855469,900.011719 L483.855469,848.644531 L513.640625,848.644531 L513.640625,957.824219 L490.789062,957.824219 Z M621.0625,925.402344 C621.0625,936.600316 617.172565,945.128877 609.392578,950.988281 C601.612591,956.847686 589.975338,959.777344 574.480469,959.777344 C566.537721,959.777344 559.766955,959.24024 554.167969,958.166016 C548.568982,957.091792 543.328149,955.513031 538.445312,953.429688 L538.445312,928.820312 C543.979194,931.424492 550.212856,933.60546 557.146484,935.363281 C564.080113,937.121103 570.183567,938 575.457031,938 C586.264377,938 591.667969,934.875031 591.667969,928.625 C591.667969,926.281238 590.95183,924.37696 589.519531,922.912109 C588.087232,921.447258 585.613299,919.787119 582.097656,917.931641 C578.582014,916.076163 573.894561,913.911471 568.035156,911.4375 C559.636677,907.921857 553.468119,904.666682 549.529297,901.671875 C545.590475,898.677068 542.72592,895.242858 540.935547,891.369141 C539.145173,887.495423 538.25,882.726591 538.25,877.0625 C538.25,867.361931 542.009728,859.85875 549.529297,854.552734 C557.048866,849.246718 567.709566,846.59375 581.511719,846.59375 C594.662826,846.59375 607.455667,849.458305 619.890625,855.1875 L610.90625,876.671875 C605.437473,874.328113 600.326847,872.40756 595.574219,870.910156 C590.821591,869.412753 585.971379,868.664062 581.023438,868.664062 C572.234331,868.664062 567.839844,871.040341 567.839844,875.792969 C567.839844,878.462253 569.255845,880.773428 572.087891,882.726562 C574.919936,884.679697 581.121046,887.576804 590.691406,891.417969 C599.220095,894.868507 605.470032,898.091131 609.441406,901.085938 C613.41278,904.080744 616.342438,907.53123 618.230469,911.4375 C620.118499,915.34377 621.0625,919.998671 621.0625,925.402344 Z M690.300781,936.046875 C695.509141,936.046875 701.759078,934.907563 709.050781,932.628906 L709.050781,954.796875 C701.628869,958.117204 692.514377,959.777344 681.707031,959.777344 C669.792909,959.777344 661.117866,956.766306 655.681641,950.744141 C650.245416,944.721975 647.527344,935.688862 647.527344,923.644531 L647.527344,871.007812 L633.269531,871.007812 L633.269531,858.410156 L649.675781,848.449219 L658.269531,825.402344 L677.3125,825.402344 L677.3125,848.644531 L707.878906,848.644531 L707.878906,871.007812 L677.3125,871.007812 L677.3125,923.644531 C677.3125,927.876323 678.500639,931.001292 680.876953,933.019531 C683.253267,935.037771 686.394512,936.046875 690.300781,936.046875 Z M754.851562,903.039062 C754.851562,913.846408 756.625633,922.016899 760.173828,927.550781 C763.722023,933.084663 769.49996,935.851562 777.507812,935.851562 C785.450561,935.851562 791.163394,933.100939 794.646484,927.599609 C798.129575,922.09828 799.871094,913.911513 799.871094,903.039062 C799.871094,892.231717 798.113299,884.126329 794.597656,878.722656 C791.082014,873.318983 785.320353,870.617188 777.3125,870.617188 C769.369752,870.617188 763.640643,873.302708 760.125,878.673828 C756.609357,884.044949 754.851562,892.166612 754.851562,903.039062 Z M830.339844,903.039062 C830.339844,920.812589 825.652391,934.712189 816.277344,944.738281 C806.902297,954.764373 793.849042,959.777344 777.117188,959.777344 C766.635364,959.777344 757.390665,957.482445 749.382812,952.892578 C741.37496,948.302711 735.222678,941.71098 730.925781,933.117188 C726.628885,924.523395 724.480469,914.497453 724.480469,903.039062 C724.480469,885.200432 729.13537,871.333383 738.445312,861.4375 C747.755255,851.541617 760.841062,846.59375 777.703125,846.59375 C788.184948,846.59375 797.429647,848.872373 805.4375,853.429688 C813.445353,857.987002 819.597635,864.529905 823.894531,873.058594 C828.191428,881.587282 830.339844,891.580672 830.339844,903.039062 Z M952.703125,957.824219 L922.917969,957.824219 L922.917969,894.054688 C922.917969,886.177044 921.599623,880.2689 918.962891,876.330078 C916.326159,872.391256 912.17581,870.421875 906.511719,870.421875 C898.894493,870.421875 893.360694,873.221326 889.910156,878.820312 C886.459618,884.419299 884.734375,893.631446 884.734375,906.457031 L884.734375,957.824219 L854.949219,957.824219 L854.949219,848.644531 L877.703125,848.644531 L881.707031,862.609375 L883.367188,862.609375 C886.29689,857.596329 890.528618,853.673842 896.0625,850.841797 C901.596382,848.009751 907.943975,846.59375 915.105469,846.59375 C931.446696,846.59375 942.514294,851.932238 948.308594,862.609375 L950.945312,862.609375 C953.875015,857.531225 958.188123,853.592462 963.884766,850.792969 C969.581409,847.993476 976.010381,846.59375 983.171875,846.59375 C995.541729,846.59375 1004.90036,849.767546 1011.24805,856.115234 C1017.59573,862.462922 1020.76953,872.635347 1020.76953,886.632812 L1020.76953,957.824219 L990.886719,957.824219 L990.886719,894.054688 C990.886719,886.177044 989.568373,880.2689 986.931641,876.330078 C984.294909,872.391256 980.14456,870.421875 974.480469,870.421875 C967.188766,870.421875 961.736346,873.026016 958.123047,878.234375 C954.509748,883.442734 952.703125,891.710881 952.703125,903.039062 L952.703125,957.824219 Z M1096.55078,867.785156 C1090.23565,867.785156 1085.28778,869.787089 1081.70703,873.791016 C1078.12628,877.794942 1076.07552,883.475224 1075.55469,890.832031 L1117.35156,890.832031 C1117.22135,883.475224 1115.3008,877.794942 1111.58984,873.791016 C1107.87889,869.787089 1102.86592,867.785156 1096.55078,867.785156 Z M1100.75,959.777344 C1083.17179,959.777344 1069.43495,954.927132 1059.53906,945.226562 C1049.64318,935.525993 1044.69531,921.789151 1044.69531,904.015625 C1044.69531,885.721263 1049.26883,871.577524 1058.41602,861.583984 C1067.5632,851.590445 1080.20955,846.59375 1096.35547,846.59375 C1111.78523,846.59375 1123.79683,850.988237 1132.39062,859.777344 C1140.98442,868.56645 1145.28125,880.708256 1145.28125,896.203125 L1145.28125,910.65625 L1074.87109,910.65625 C1075.19662,919.119834 1077.7031,925.727841 1082.39062,930.480469 C1087.07815,935.233097 1093.6536,937.609375 1102.11719,937.609375 C1108.69274,937.609375 1114.91013,936.925788 1120.76953,935.558594 C1126.62894,934.191399 1132.74867,932.010432 1139.12891,929.015625 L1139.12891,952.0625 C1133.92055,954.66668 1128.3542,956.603509 1122.42969,957.873047 C1116.50518,959.142584 1109.27869,959.777344 1100.75,959.777344 Z M1230.4375,846.59375 C1234.47398,846.59375 1237.82681,846.886716 1240.49609,847.472656 L1238.25,875.402344 C1235.84113,874.751299 1232.91148,874.425781 1229.46094,874.425781 C1219.95568,874.425781 1212.55016,876.867163 1207.24414,881.75 C1201.93812,886.632837 1199.28516,893.468706 1199.28516,902.257812 L1199.28516,957.824219 L1169.5,957.824219 L1169.5,848.644531 L1192.05859,848.644531 L1196.45312,867.003906 L1197.91797,867.003906 C1201.3034,860.884084 1205.87692,855.952493 1211.63867,852.208984 C1217.40042,848.465476 1223.66663,846.59375 1230.4375,846.59375 Z M1375.26172,838.195312 C1363.86843,838.195312 1355.04691,842.475869 1348.79688,851.037109 C1342.54684,859.59835 1339.42188,871.528569 1339.42188,886.828125 C1339.42188,918.664222 1351.36837,934.582031 1375.26172,934.582031 C1385.28781,934.582031 1397.42962,932.075546 1411.6875,927.0625 L1411.6875,952.453125 C1399.96869,957.335962 1386.88288,959.777344 1372.42969,959.777344 C1351.66135,959.777344 1335.7761,953.478579 1324.77344,940.880859 C1313.77078,928.28314 1308.26953,910.200639 1308.26953,886.632812 C1308.26953,871.788988 1310.97133,858.784561 1316.375,847.619141 C1321.77867,836.45372 1329.54227,827.892608 1339.66602,821.935547 C1349.78976,815.978486 1361.65488,813 1375.26172,813 C1389.12898,813 1403.06113,816.352831 1417.05859,823.058594 L1407.29297,847.667969 C1401.9544,845.128894 1396.58336,842.915374 1391.17969,841.027344 C1385.77601,839.139313 1380.47008,838.195312 1375.26172,838.195312 Z M1463.44531,903.039062 C1463.44531,913.846408 1465.21938,922.016899 1468.76758,927.550781 C1472.31577,933.084663 1478.09371,935.851562 1486.10156,935.851562 C1494.04431,935.851562 1499.75714,933.100939 1503.24023,927.599609 C1506.72332,922.09828 1508.46484,913.911513 1508.46484,903.039062 C1508.46484,892.231717 1506.70705,884.126329 1503.19141,878.722656 C1499.67576,873.318983 1493.9141,870.617188 1485.90625,870.617188 C1477.9635,870.617188 1472.23439,873.302708 1468.71875,878.673828 C1465.20311,884.044949 1463.44531,892.166612 1463.44531,903.039062 Z M1538.93359,903.039062 C1538.93359,920.812589 1534.24614,934.712189 1524.87109,944.738281 C1515.49605,954.764373 1502.44279,959.777344 1485.71094,959.777344 C1475.22911,959.777344 1465.98442,957.482445 1457.97656,952.892578 C1449.96871,948.302711 1443.81643,941.71098 1439.51953,933.117188 C1435.22263,924.523395 1433.07422,914.497453 1433.07422,903.039062 C1433.07422,885.200432 1437.72912,871.333383 1447.03906,861.4375 C1456.349,851.541617 1469.43481,846.59375 1486.29688,846.59375 C1496.7787,846.59375 1506.0234,848.872373 1514.03125,853.429688 C1522.0391,857.987002 1528.19138,864.529905 1532.48828,873.058594 C1536.78518,881.587282 1538.93359,891.580672 1538.93359,903.039062 Z M1664.32422,957.824219 L1634.53906,957.824219 L1634.53906,894.054688 C1634.53906,886.177044 1633.13934,880.2689 1630.33984,876.330078 C1627.54035,872.391256 1623.08076,870.421875 1616.96094,870.421875 C1608.62756,870.421875 1602.60549,873.20505 1598.89453,878.771484 C1595.18358,884.337918 1593.32812,893.566342 1593.32812,906.457031 L1593.32812,957.824219 L1563.54297,957.824219 L1563.54297,848.644531 L1586.29688,848.644531 L1590.30078,862.609375 L1591.96094,862.609375 C1595.28127,857.335911 1599.85479,853.348321 1605.68164,850.646484 C1611.50849,847.944648 1618.13278,846.59375 1625.55469,846.59375 C1638.25006,846.59375 1647.88538,850.02796 1654.46094,856.896484 C1661.03649,863.765008 1664.32422,873.677019 1664.32422,886.632812 L1664.32422,957.824219 Z M1720.96484,957.824219 L1679.36328,848.644531 L1710.51562,848.644531 L1731.60938,910.851562 C1733.95314,918.729206 1735.41797,926.183559 1736.00391,933.214844 L1736.58984,933.214844 C1736.91537,926.964812 1738.3802,919.51046 1740.98438,910.851562 L1761.98047,848.644531 L1793.13281,848.644531 L1751.53125,957.824219 L1720.96484,957.824219 Z M1853.97266,867.785156 C1847.65752,867.785156 1842.70965,869.787089 1839.12891,873.791016 C1835.54816,877.794942 1833.4974,883.475224 1832.97656,890.832031 L1874.77344,890.832031 C1874.64323,883.475224 1872.72267,877.794942 1869.01172,873.791016 C1865.30076,869.787089 1860.28779,867.785156 1853.97266,867.785156 Z M1858.17188,959.777344 C1840.59366,959.777344 1826.85682,954.927132 1816.96094,945.226562 C1807.06505,935.525993 1802.11719,921.789151 1802.11719,904.015625 C1802.11719,885.721263 1806.69071,871.577524 1815.83789,861.583984 C1824.98507,851.590445 1837.63143,846.59375 1853.77734,846.59375 C1869.20711,846.59375 1881.21871,850.988237 1889.8125,859.777344 C1898.40629,868.56645 1902.70312,880.708256 1902.70312,896.203125 L1902.70312,910.65625 L1832.29297,910.65625 C1832.61849,919.119834 1835.12498,925.727841 1839.8125,930.480469 C1844.50002,935.233097 1851.07548,937.609375 1859.53906,937.609375 C1866.11462,937.609375 1872.332,936.925788 1878.19141,935.558594 C1884.05081,934.191399 1890.17054,932.010432 1896.55078,929.015625 L1896.55078,952.0625 C1891.34242,954.66668 1885.77607,956.603509 1879.85156,957.873047 C1873.92705,959.142584 1866.70056,959.777344 1858.17188,959.777344 Z M1987.85938,846.59375 C1991.89585,846.59375 1995.24868,846.886716 1997.91797,847.472656 L1995.67188,875.402344 C1993.26301,874.751299 1990.33335,874.425781 1986.88281,874.425781 C1977.37756,874.425781 1969.97203,876.867163 1964.66602,881.75 C1959.36,886.632837 1956.70703,893.468706 1956.70703,902.257812 L1956.70703,957.824219 L1926.92188,957.824219 L1926.92188,848.644531 L1949.48047,848.644531 L1953.875,867.003906 L1955.33984,867.003906 C1958.72528,860.884084 1963.2988,855.952493 1969.06055,852.208984 C1974.82229,848.465476 1981.08851,846.59375 1987.85938,846.59375 Z M2093.91406,925.402344 C2093.91406,936.600316 2090.02413,945.128877 2082.24414,950.988281 C2074.46415,956.847686 2062.8269,959.777344 2047.33203,959.777344 C2039.38928,959.777344 2032.61852,959.24024 2027.01953,958.166016 C2021.42054,957.091792 2016.17971,955.513031 2011.29688,953.429688 L2011.29688,928.820312 C2016.83076,931.424492 2023.06442,933.60546 2029.99805,935.363281 C2036.93168,937.121103 2043.03513,938 2048.30859,938 C2059.11594,938 2064.51953,934.875031 2064.51953,928.625 C2064.51953,926.281238 2063.80339,924.37696 2062.37109,922.912109 C2060.93879,921.447258 2058.46486,919.787119 2054.94922,917.931641 C2051.43358,916.076163 2046.74612,913.911471 2040.88672,911.4375 C2032.48824,907.921857 2026.31968,904.666682 2022.38086,901.671875 C2018.44204,898.677068 2015.57748,895.242858 2013.78711,891.369141 C2011.99674,887.495423 2011.10156,882.726591 2011.10156,877.0625 C2011.10156,867.361931 2014.86129,859.85875 2022.38086,854.552734 C2029.90043,849.246718 2040.56113,846.59375 2054.36328,846.59375 C2067.51439,846.59375 2080.30723,849.458305 2092.74219,855.1875 L2083.75781,876.671875 C2078.28904,874.328113 2073.17841,872.40756 2068.42578,870.910156 C2063.67315,869.412753 2058.82294,868.664062 2053.875,868.664062 C2045.08589,868.664062 2040.69141,871.040341 2040.69141,875.792969 C2040.69141,878.462253 2042.10741,880.773428 2044.93945,882.726562 C2047.7715,884.679697 2053.97261,887.576804 2063.54297,891.417969 C2072.07166,894.868507 2078.32159,898.091131 2082.29297,901.085938 C2086.26434,904.080744 2089.194,907.53123 2091.08203,911.4375 C2092.97006,915.34377 2093.91406,919.998671 2093.91406,925.402344 Z M2186.49219,957.824219 L2180.73047,942.980469 L2179.94922,942.980469 C2174.93617,949.295604 2169.77672,953.673816 2164.4707,956.115234 C2159.16469,958.556653 2152.24744,959.777344 2143.71875,959.777344 C2133.23693,959.777344 2124.98506,956.782582 2118.96289,950.792969 C2112.94073,944.803355 2109.92969,936.274795 2109.92969,925.207031 C2109.92969,913.618432 2113.98238,905.073595 2122.08789,899.572266 C2130.1934,894.070936 2142.41658,891.027347 2158.75781,890.441406 L2177.70312,889.855469 L2177.70312,885.070312 C2177.70312,874.002549 2172.03912,868.46875 2160.71094,868.46875 C2151.98694,868.46875 2141.73313,871.105442 2129.94922,876.378906 L2120.08594,856.261719 C2132.6511,849.686165 2146.58326,846.398438 2161.88281,846.398438 C2176.53132,846.398438 2187.76168,849.58851 2195.57422,855.96875 C2203.38676,862.34899 2207.29297,872.049414 2207.29297,885.070312 L2207.29297,957.824219 L2186.49219,957.824219 Z M2177.70312,907.238281 L2166.17969,907.628906 C2157.52079,907.889324 2151.07554,909.451809 2146.84375,912.316406 C2142.61196,915.181004 2140.49609,919.542939 2140.49609,925.402344 C2140.49609,933.800823 2145.31375,938 2154.94922,938 C2161.85029,938 2167.36782,936.014343 2171.50195,932.042969 C2175.63609,928.071595 2177.70312,922.79821 2177.70312,916.222656 L2177.70312,907.238281 Z M2283.95312,936.046875 C2289.16148,936.046875 2295.41142,934.907563 2302.70312,932.628906 L2302.70312,954.796875 C2295.28121,958.117204 2286.16672,959.777344 2275.35938,959.777344 C2263.44525,959.777344 2254.77021,956.766306 2249.33398,950.744141 C2243.89776,944.721975 2241.17969,935.688862 2241.17969,923.644531 L2241.17969,871.007812 L2226.92188,871.007812 L2226.92188,858.410156 L2243.32812,848.449219 L2251.92188,825.402344 L2270.96484,825.402344 L2270.96484,848.644531 L2301.53125,848.644531 L2301.53125,871.007812 L2270.96484,871.007812 L2270.96484,923.644531 C2270.96484,927.876323 2272.15298,931.001292 2274.5293,933.019531 C2276.90561,935.037771 2280.04686,936.046875 2283.95312,936.046875 Z M2323.50391,820.421875 C2323.50391,810.721306 2328.9075,805.871094 2339.71484,805.871094 C2350.52219,805.871094 2355.92578,810.721306 2355.92578,820.421875 C2355.92578,825.044294 2354.57488,828.641263 2351.87305,831.212891 C2349.17121,833.784518 2345.11852,835.070312 2339.71484,835.070312 C2328.9075,835.070312 2323.50391,830.187549 2323.50391,820.421875 Z M2354.55859,957.824219 L2324.77344,957.824219 L2324.77344,848.644531 L2354.55859,848.644531 L2354.55859,957.824219 Z M2409.53906,903.039062 C2409.53906,913.846408 2411.31313,922.016899 2414.86133,927.550781 C2418.40952,933.084663 2424.18746,935.851562 2432.19531,935.851562 C2440.13806,935.851562 2445.85089,933.100939 2449.33398,927.599609 C2452.81707,922.09828 2454.55859,913.911513 2454.55859,903.039062 C2454.55859,892.231717 2452.8008,884.126329 2449.28516,878.722656 C2445.76951,873.318983 2440.00785,870.617188 2432,870.617188 C2424.05725,870.617188 2418.32814,873.302708 2414.8125,878.673828 C2411.29686,884.044949 2409.53906,892.166612 2409.53906,903.039062 Z M2485.02734,903.039062 C2485.02734,920.812589 2480.33989,934.712189 2470.96484,944.738281 C2461.5898,954.764373 2448.53654,959.777344 2431.80469,959.777344 C2421.32286,959.777344 2412.07817,957.482445 2404.07031,952.892578 C2396.06246,948.302711 2389.91018,941.71098 2385.61328,933.117188 C2381.31638,924.523395 2379.16797,914.497453 2379.16797,903.039062 C2379.16797,885.200432 2383.82287,871.333383 2393.13281,861.4375 C2402.44275,851.541617 2415.52856,846.59375 2432.39062,846.59375 C2442.87245,846.59375 2452.11715,848.872373 2460.125,853.429688 C2468.13285,857.987002 2474.28513,864.529905 2478.58203,873.058594 C2482.87893,881.587282 2485.02734,891.580672 2485.02734,903.039062 Z M2610.41797,957.824219 L2580.63281,957.824219 L2580.63281,894.054688 C2580.63281,886.177044 2579.23309,880.2689 2576.43359,876.330078 C2573.6341,872.391256 2569.17451,870.421875 2563.05469,870.421875 C2554.72131,870.421875 2548.69924,873.20505 2544.98828,878.771484 C2541.27733,884.337918 2539.42188,893.566342 2539.42188,906.457031 L2539.42188,957.824219 L2509.63672,957.824219 L2509.63672,848.644531 L2532.39062,848.644531 L2536.39453,862.609375 L2538.05469,862.609375 C2541.37502,857.335911 2545.94854,853.348321 2551.77539,850.646484 C2557.60224,847.944648 2564.22653,846.59375 2571.64844,846.59375 C2584.34381,846.59375 2593.97913,850.02796 2600.55469,856.896484 C2607.13024,863.765008 2610.41797,873.677019 2610.41797,886.632812 L2610.41797,957.824219 Z M2717.25391,925.402344 C2717.25391,936.600316 2713.36397,945.128877 2705.58398,950.988281 C2697.804,956.847686 2686.16674,959.777344 2670.67188,959.777344 C2662.72913,959.777344 2655.95836,959.24024 2650.35938,958.166016 C2644.76039,957.091792 2639.51956,955.513031 2634.63672,953.429688 L2634.63672,928.820312 C2640.1706,931.424492 2646.40426,933.60546 2653.33789,935.363281 C2660.27152,937.121103 2666.37497,938 2671.64844,938 C2682.45578,938 2687.85938,934.875031 2687.85938,928.625 C2687.85938,926.281238 2687.14324,924.37696 2685.71094,922.912109 C2684.27864,921.447258 2681.80471,919.787119 2678.28906,917.931641 C2674.77342,916.076163 2670.08597,913.911471 2664.22656,911.4375 C2655.82808,907.921857 2649.65952,904.666682 2645.7207,901.671875 C2641.78188,898.677068 2638.91733,895.242858 2637.12695,891.369141 C2635.33658,887.495423 2634.44141,882.726591 2634.44141,877.0625 C2634.44141,867.361931 2638.20113,859.85875 2645.7207,854.552734 C2653.24027,849.246718 2663.90097,846.59375 2677.70312,846.59375 C2690.85423,846.59375 2703.64707,849.458305 2716.08203,855.1875 L2707.09766,876.671875 C2701.62888,874.328113 2696.51825,872.40756 2691.76562,870.910156 C2687.013,869.412753 2682.16279,868.664062 2677.21484,868.664062 C2668.42574,868.664062 2664.03125,871.040341 2664.03125,875.792969 C2664.03125,878.462253 2665.44725,880.773428 2668.2793,882.726562 C2671.11134,884.679697 2677.31245,887.576804 2686.88281,891.417969 C2695.4115,894.868507 2701.66144,898.091131 2705.63281,901.085938 C2709.60419,904.080744 2712.53384,907.53123 2714.42188,911.4375 C2716.30991,915.34377 2717.25391,919.998671 2717.25391,925.402344 Z" id="38%-Increase-Custome" fill="#1A1E23"></path>
    </g>
</svg>