<svg id="Layer_1" data-name="Layer 1" xmlns="http://www.w3.org/2000/svg" viewBox="0 0 141.95 60.97"><defs><style>.cls-1{fill:#40a5e2;}.cls-2{fill:none;stroke:#000;stroke-linecap:round;stroke-miterlimit:10;stroke-width:0.5px;}.cls-3{opacity:0.4;}</style></defs><title>Rq-TakeawayImage1</title><path class="cls-1" d="M33.67,41.9l6.58-11.4A28.09,28.09,0,0,0,33.67,41.9Z" transform="translate(-30.95 -17.5)"/><path class="cls-1" d="M43.46,27.61l-.12.1L32.78,46q-.17,1.2-.24,2.41l11.54-20Z" transform="translate(-30.95 -17.5)"/><path class="cls-1" d="M44.93,29.5,32.52,51q0,.9.12,1.79l13-22.44Z" transform="translate(-30.95 -17.5)"/><path class="cls-1" d="M46.44,31.44,32.92,54.85q.13.74.3,1.48l13.88-24Z" transform="translate(-30.95 -17.5)"/><path class="cls-1" d="M47.95,33.38,33.69,58.07q.19.64.42,1.28l14.5-25.12Z" transform="translate(-30.95 -17.5)"/><path class="cls-1" d="M49.45,35.31,34.69,60.88c.16.38.33.75.5,1.13L50.12,36.17Z" transform="translate(-30.95 -17.5)"/><path class="cls-1" d="M51,37.25,35.88,63.37c.18.34.38.67.57,1L51.62,38.11Z" transform="translate(-30.95 -17.5)"/><path class="cls-1" d="M62.53,21.77,61.21,24v2l2.41-4.18Z" transform="translate(-30.95 -17.5)"/><path class="cls-1" d="M52.47,39.19,37.23,65.59q.31.46.63.91L53.13,40Z" transform="translate(-30.95 -17.5)"/><path class="cls-1" d="M54,41.13,38.69,67.6c.22.28.45.56.68.83L54.64,42Z" transform="translate(-30.95 -17.5)"/><path class="cls-1" d="M65,22l-3.79,6.56v2l4.84-8.38Z" transform="translate(-30.95 -17.5)"/><path class="cls-1" d="M67.36,22.49,61.21,33.14v2l7.15-12.38Z" transform="translate(-30.95 -17.5)"/><path class="cls-1" d="M55.48,43.07,40.27,69.42c.24.25.49.49.73.73L56.14,43.92Z" transform="translate(-30.95 -17.5)"/><path class="cls-1" d="M69.61,23.14l-8.4,14.55v2l9.37-16.22Z" transform="translate(-30.95 -17.5)"/><path class="cls-1" d="M57,45,42,71l.77.66L57.65,45.86Z" transform="translate(-30.95 -17.5)"/><path class="cls-1" d="M58.5,46.95,43.74,72.51c.27.2.54.41.81.6L59.16,47.8Z" transform="translate(-30.95 -17.5)"/><path class="cls-1" d="M71.77,24,61.21,42.24v2L72.69,24.37Z" transform="translate(-30.95 -17.5)"/><path class="cls-1" d="M73.83,24.93,61.21,46.79v2L74.71,25.4Z" transform="translate(-30.95 -17.5)"/><path class="cls-1" d="M60,48.88,45.61,73.81l.86.52,14.2-24.59Z" transform="translate(-30.95 -17.5)"/><path class="cls-1" d="M75.81,26.06,47.58,74.95l.89.45L76.64,26.61Z" transform="translate(-30.95 -17.5)"/><path class="cls-1" d="M77.68,27.36l-28,48.57.93.38L78.48,28Z" transform="translate(-30.95 -17.5)"/><path class="cls-1" d="M79.47,28.81,51.79,76.75l1,.3L80.22,29.51Z" transform="translate(-30.95 -17.5)"/><path class="cls-1" d="M81.16,30.44,54,77.39l1,.23,26.8-46.41Q81.52,30.82,81.16,30.44Z" transform="translate(-30.95 -17.5)"/><path class="cls-1" d="M83.09,32.67l-.35-.43L56.41,77.86l1.07.15L83.4,33.1Z" transform="translate(-30.95 -17.5)"/><path class="cls-1" d="M84.21,34.24,58.87,78.14l1.12.06,24.83-43C84.63,34.87,84.42,34.56,84.21,34.24Z" transform="translate(-30.95 -17.5)"/><path class="cls-1" d="M85.56,36.46,61.47,78.19l1.18-.05L86.11,37.51C85.94,37.16,85.75,36.81,85.56,36.46Z" transform="translate(-30.95 -17.5)"/><path class="cls-1" d="M86.76,38.93,64.21,78c.42-.05.84-.11,1.26-.18L87.23,40.11C87.09,39.72,86.93,39.32,86.76,38.93Z" transform="translate(-30.95 -17.5)"/><path class="cls-1" d="M87.77,41.73,67.14,77.47q.68-.16,1.36-.35l19.65-34Q88,42.4,87.77,41.73Z" transform="translate(-30.95 -17.5)"/><path class="cls-1" d="M88.54,44.94,70.3,76.54c.5-.18,1-.37,1.49-.58l17-29.44C88.72,46,88.64,45.47,88.54,44.94Z" transform="translate(-30.95 -17.5)"/><path class="cls-1" d="M89,48.76,73.82,75c.58-.3,1.15-.62,1.71-1L89,50.73C89,50.07,89,49.42,89,48.76Z" transform="translate(-30.95 -17.5)"/><path class="cls-1" d="M88.74,53.69,78,72.34l0,0a28.55,28.55,0,0,0,2.24-1.93l7.91-13.7A28.4,28.4,0,0,0,88.74,53.69Z" transform="translate(-30.95 -17.5)"/><path d="M90.4,48.25c-.37,16-13,29.27-29.28,29.27A29.56,29.56,0,0,1,31.85,48.25,29.56,29.56,0,0,1,61.12,19C77.35,19,90,32.28,90.4,48.25a.23.23,0,0,0,.45,0,29.72,29.72,0,0,0-52.9-18.61C21.12,50.7,40,82.49,66.63,77.46,80.74,74.79,90.52,62.4,90.85,48.25a.23.23,0,0,0-.45,0Z" transform="translate(-30.95 -17.5)"/><path d="M78.49,24.4A29.57,29.57,0,0,1,90.54,43.12a30.59,30.59,0,0,1-.12,11.43,30.22,30.22,0,1,1-26-35.81,28.87,28.87,0,0,1,10.73,3.57A29.34,29.34,0,0,0,33.12,55.06,28.85,28.85,0,0,0,85,64.46a28.71,28.71,0,0,0,4.44-10.14,30,30,0,0,0,.4-11.07A29.63,29.63,0,0,0,78.49,24.4Z" transform="translate(-30.95 -17.5)"/><path d="M61.67,17.75c.17,2.58.24,5.17.32,7.75s.1,5.17.07,7.75-.15,5.17-.23,7.75-.06,5.17,0,7.75v.5l-.33-.38c-1.8-2-3.65-4-5.44-6.09s-3.57-4.1-5.33-6.19-3.46-4.2-5.15-6.33-3.36-4.28-5-6.48l.08-.06q2.83,3,5.52,6c1.81,2,3.6,4.08,5.35,6.17S55,40.09,56.7,42.2s3.36,4.28,5.06,6.41l-.33.12c0-2.58.06-5.17,0-7.75s-.2-5.17-.23-7.75,0-5.17.07-7.75.15-5.17.32-7.75Z" transform="translate(-30.95 -17.5)"/><polyline class="cls-2" points="30.67 0.25 30.67 31.25 9.67 6.25"/><path class="cls-1" d="M97.28,32a2.7,2.7,0,0,1,1.65.47,1.48,1.48,0,0,1,.63,1.26,1.64,1.64,0,0,1-.3,1,2.58,2.58,0,0,1-1,.76,3.45,3.45,0,0,1,1.15.9,1.67,1.67,0,0,1,.35,1,1.7,1.7,0,0,1-.69,1.41,2.87,2.87,0,0,1-1.81.53,3,3,0,0,1-1.84-.5,1.65,1.65,0,0,1-.67-1.41,1.88,1.88,0,0,1,.32-1.08,2.7,2.7,0,0,1,1-.83,2.67,2.67,0,0,1-.88-.83,1.81,1.81,0,0,1-.27-1,1.48,1.48,0,0,1,.63-1.24A2.7,2.7,0,0,1,97.28,32Zm-1.11,5.33a.79.79,0,0,0,.29.65,1.53,1.53,0,0,0,1.64,0,.8.8,0,0,0,.28-.64.87.87,0,0,0-.28-.61,3.54,3.54,0,0,0-.9-.61Q96.17,36.62,96.17,37.35Zm1.1-4.23a.94.94,0,0,0-.62.2.66.66,0,0,0-.24.53.81.81,0,0,0,.19.52,2.07,2.07,0,0,0,.68.48,1.91,1.91,0,0,0,.67-.46.83.83,0,0,0,.19-.54.64.64,0,0,0-.24-.53A1,1,0,0,0,97.27,33.12Z" transform="translate(-30.95 -17.5)"/><path class="cls-1" d="M105.24,33.71a1.68,1.68,0,0,1-.41,1.14,2.1,2.1,0,0,1-1.14.64v0A2.27,2.27,0,0,1,105,36a1.47,1.47,0,0,1,.44,1.13,1.91,1.91,0,0,1-.75,1.6,3.44,3.44,0,0,1-2.13.57,5.18,5.18,0,0,1-2.06-.39V37.68a4.64,4.64,0,0,0,.91.34,3.84,3.84,0,0,0,1,.13,1.92,1.92,0,0,0,1.1-.25.93.93,0,0,0,.36-.82.74.74,0,0,0-.41-.71,3,3,0,0,0-1.31-.21h-.54V35h.55a2.56,2.56,0,0,0,1.21-.22.78.78,0,0,0,.38-.74q0-.81-1-.81a2.33,2.33,0,0,0-.72.12,3.5,3.5,0,0,0-.81.41l-.7-1a3.88,3.88,0,0,1,2.33-.7,3,3,0,0,1,1.75.45A1.44,1.44,0,0,1,105.24,33.71Z" transform="translate(-30.95 -17.5)"/><path class="cls-1" d="M109.54,34.24a2.74,2.74,0,0,1-.43,1.69,1.51,1.51,0,0,1-1.27.56,1.47,1.47,0,0,1-1.25-.58,2.73,2.73,0,0,1-.44-1.67q0-2.23,1.68-2.23a1.5,1.5,0,0,1,1.27.58A2.68,2.68,0,0,1,109.54,34.24Zm-2.16,0a2.88,2.88,0,0,0,.11.93q.11.31.35.31.47,0,.47-1.23T107.84,33q-.24,0-.35.3A2.83,2.83,0,0,0,107.37,34.25Zm5.52-2.14-4,7.14h-1.17l4-7.14Zm1.64,5a2.73,2.73,0,0,1-.43,1.68,1.51,1.51,0,0,1-1.27.56,1.47,1.47,0,0,1-1.25-.58,2.72,2.72,0,0,1-.44-1.67q0-2.23,1.68-2.23a1.5,1.5,0,0,1,1.27.58A2.68,2.68,0,0,1,114.54,37.09Zm-2.16,0a2.88,2.88,0,0,0,.11.93q.11.31.35.31.47,0,.47-1.23t-.47-1.22q-.24,0-.35.3A2.83,2.83,0,0,0,112.37,37.1Z" transform="translate(-30.95 -17.5)"/><path class="cls-1" d="M121.53,37.66a1.48,1.48,0,0,1-.56,1.22,2.42,2.42,0,0,1-1.55.45,3.64,3.64,0,0,1-1.62-.34V37.86a6.69,6.69,0,0,0,1,.36,2.89,2.89,0,0,0,.73.11,1,1,0,0,0,.61-.15.52.52,0,0,0,.21-.45.5.5,0,0,0-.09-.3,1,1,0,0,0-.28-.25,7.18,7.18,0,0,0-.74-.39,3.53,3.53,0,0,1-.79-.47,1.77,1.77,0,0,1-.42-.53,1.5,1.5,0,0,1-.16-.7,1.47,1.47,0,0,1,.51-1.19,2.13,2.13,0,0,1,1.42-.43,3.35,3.35,0,0,1,.85.11,5.85,5.85,0,0,1,.85.3l-.39.94a5.69,5.69,0,0,0-.76-.26,2.44,2.44,0,0,0-.59-.07.78.78,0,0,0-.53.16.53.53,0,0,0-.18.42.51.51,0,0,0,.07.28.81.81,0,0,0,.24.23,7.41,7.41,0,0,0,.77.4,3.06,3.06,0,0,1,1.1.77A1.5,1.5,0,0,1,121.53,37.66Z" transform="translate(-30.95 -17.5)"/><path class="cls-1" d="M127.22,33.54v3.7a2.13,2.13,0,0,1-.28,1.11,1.84,1.84,0,0,1-.82.73,2.92,2.92,0,0,1-1.27.25,2.42,2.42,0,0,1-1.71-.56,2,2,0,0,1-.61-1.54V33.54h1.21V37a1.47,1.47,0,0,0,.27,1,1.1,1.1,0,0,0,.88.31,1.08,1.08,0,0,0,.86-.31,1.47,1.47,0,0,0,.27-1V33.54Z" transform="translate(-30.95 -17.5)"/><path class="cls-1" d="M131,34.46A1.23,1.23,0,0,0,130,35a2.39,2.39,0,0,0-.37,1.43q0,1.91,1.43,1.91a4.53,4.53,0,0,0,1.46-.3v1a4,4,0,0,1-1.57.29,2.39,2.39,0,0,1-1.91-.76,3.2,3.2,0,0,1-.66-2.17,3.55,3.55,0,0,1,.32-1.56,2.34,2.34,0,0,1,.93-1,2.76,2.76,0,0,1,1.42-.36,3.84,3.84,0,0,1,1.67.4l-.39,1a6.57,6.57,0,0,0-.64-.27A1.92,1.92,0,0,0,131,34.46Z" transform="translate(-30.95 -17.5)"/><path class="cls-1" d="M136.14,34.46a1.23,1.23,0,0,0-1.06.51,2.39,2.39,0,0,0-.37,1.43q0,1.91,1.43,1.91a4.53,4.53,0,0,0,1.46-.3v1a4,4,0,0,1-1.57.29,2.39,2.39,0,0,1-1.91-.76,3.2,3.2,0,0,1-.66-2.17,3.55,3.55,0,0,1,.32-1.56,2.34,2.34,0,0,1,.93-1,2.76,2.76,0,0,1,1.42-.36,3.84,3.84,0,0,1,1.67.4l-.39,1a6.57,6.57,0,0,0-.64-.27A1.92,1.92,0,0,0,136.14,34.46Z" transform="translate(-30.95 -17.5)"/><path class="cls-1" d="M142.1,39.25h-3.29V33.54h3.29v1H140v1.25H142v1H140v1.47h2.08Z" transform="translate(-30.95 -17.5)"/><path class="cls-1" d="M146.66,37.66a1.48,1.48,0,0,1-.56,1.22,2.42,2.42,0,0,1-1.55.45,3.64,3.64,0,0,1-1.62-.34V37.86a6.69,6.69,0,0,0,1,.36,2.89,2.89,0,0,0,.73.11,1,1,0,0,0,.61-.15.52.52,0,0,0,.21-.45.5.5,0,0,0-.09-.3,1,1,0,0,0-.28-.25,7.18,7.18,0,0,0-.74-.39,3.53,3.53,0,0,1-.79-.47,1.77,1.77,0,0,1-.42-.53,1.5,1.5,0,0,1-.16-.7,1.47,1.47,0,0,1,.51-1.19,2.13,2.13,0,0,1,1.42-.43,3.35,3.35,0,0,1,.85.11,5.85,5.85,0,0,1,.85.3l-.39.94a5.69,5.69,0,0,0-.76-.26,2.44,2.44,0,0,0-.59-.07.78.78,0,0,0-.53.16.53.53,0,0,0-.18.42.51.51,0,0,0,.07.28.81.81,0,0,0,.24.23,7.41,7.41,0,0,0,.77.4,3.06,3.06,0,0,1,1.1.77A1.5,1.5,0,0,1,146.66,37.66Z" transform="translate(-30.95 -17.5)"/><path class="cls-1" d="M151.07,37.66a1.48,1.48,0,0,1-.56,1.22,2.42,2.42,0,0,1-1.55.45,3.64,3.64,0,0,1-1.62-.34V37.86a6.69,6.69,0,0,0,1,.36,2.89,2.89,0,0,0,.73.11,1,1,0,0,0,.61-.15.52.52,0,0,0,.21-.45.5.5,0,0,0-.09-.3,1,1,0,0,0-.28-.25,7.18,7.18,0,0,0-.74-.39,3.53,3.53,0,0,1-.79-.47,1.77,1.77,0,0,1-.42-.53,1.5,1.5,0,0,1-.16-.7,1.47,1.47,0,0,1,.51-1.19,2.13,2.13,0,0,1,1.42-.43,3.35,3.35,0,0,1,.85.11,5.85,5.85,0,0,1,.85.3l-.39.94a5.69,5.69,0,0,0-.76-.26,2.44,2.44,0,0,0-.59-.07.78.78,0,0,0-.53.16.53.53,0,0,0-.18.42.51.51,0,0,0,.07.28.81.81,0,0,0,.24.23,7.41,7.41,0,0,0,.77.4,3.06,3.06,0,0,1,1.1.77A1.5,1.5,0,0,1,151.07,37.66Z" transform="translate(-30.95 -17.5)"/><path class="cls-1" d="M155.39,37.06v2.19h-1.21V33.54h1.66a2.85,2.85,0,0,1,1.72.42,1.69,1.69,0,0,1,.28,2.18,1.83,1.83,0,0,1-.79.62q1.29,1.93,1.68,2.49H157.4L156,37.06Zm0-1h.39a1.5,1.5,0,0,0,.85-.19.68.68,0,0,0,.27-.6.62.62,0,0,0-.28-.58,1.69,1.69,0,0,0-.87-.17h-.37Z" transform="translate(-30.95 -17.5)"/><path class="cls-1" d="M163,39.25l-.41-1.36h-2.08L160,39.25h-1.3l2-5.73h1.48l2,5.73Zm-.7-2.37-.65-2.09c0-.16-.08-.29-.1-.38q-.13.5-.74,2.47Z" transform="translate(-30.95 -17.5)"/><path class="cls-1" d="M167.18,39.25H166v-4.7h-1.55v-1h4.31v1h-1.55Z" transform="translate(-30.95 -17.5)"/><path class="cls-1" d="M172.9,39.25h-3.29V33.54h3.29v1h-2.08v1.25h1.93v1h-1.93v1.47h2.08Z" transform="translate(-30.95 -17.5)"/><path class="cls-1" d="M101.49,49.25H99.94l-.87-3.37q0-.18-.16-.75t-.13-.76c0,.16-.06.41-.13.76s-.12.6-.16.75l-.87,3.37H96.06l-1.64-6.42h1.34l.82,3.51q.22,1,.31,1.68,0-.25.12-.78c.06-.35.12-.62.18-.81l.94-3.6h1.29l.94,3.6c0,.16.09.41.15.74s.11.62.14.85q0-.34.14-.85t.18-.83l.82-3.51h1.34Z" transform="translate(-30.95 -17.5)"/><path class="cls-1" d="M103.93,49.25V42.83h1.36v6.42Z" transform="translate(-30.95 -17.5)"/><path class="cls-1" d="M109.39,49.25H108V44h-1.75V42.83h4.85V44h-1.74Z" transform="translate(-30.95 -17.5)"/><path class="cls-1" d="M117.39,49.25H116V46.48h-2.54v2.77h-1.36V42.83h1.36v2.52H116V42.83h1.36Z" transform="translate(-30.95 -17.5)"/><path class="cls-1" d="M125.14,47.47a1.66,1.66,0,0,1-.63,1.37,2.72,2.72,0,0,1-1.74.5,4.09,4.09,0,0,1-1.82-.39V47.69a7.52,7.52,0,0,0,1.1.41,3.26,3.26,0,0,0,.82.12,1.17,1.17,0,0,0,.69-.17.59.59,0,0,0,.24-.51.56.56,0,0,0-.11-.34,1.18,1.18,0,0,0-.31-.28,8,8,0,0,0-.83-.44,3.93,3.93,0,0,1-.88-.53,2,2,0,0,1-.47-.59,1.68,1.68,0,0,1-.18-.79,1.66,1.66,0,0,1,.58-1.34,2.4,2.4,0,0,1,1.6-.49,3.78,3.78,0,0,1,1,.12,6.59,6.59,0,0,1,1,.33l-.44,1.06a6.41,6.41,0,0,0-.85-.29,2.73,2.73,0,0,0-.66-.08.88.88,0,0,0-.59.18.59.59,0,0,0-.21.47.58.58,0,0,0,.08.31.92.92,0,0,0,.27.26,8.27,8.27,0,0,0,.86.45,3.45,3.45,0,0,1,1.24.86A1.69,1.69,0,0,1,125.14,47.47Z" transform="translate(-30.95 -17.5)"/><path class="cls-1" d="M129,49.25l-1.55-5h0q.08,1.54.08,2.05v3H126.3V42.83h1.85l1.52,4.91h0l1.61-4.91h1.86v6.42H131.9v-3c0-.14,0-.31,0-.5s0-.69.06-1.49h0l-1.66,5Z" transform="translate(-30.95 -17.5)"/><path class="cls-1" d="M138.58,47.47a1.66,1.66,0,0,1-.63,1.37,2.72,2.72,0,0,1-1.74.5,4.09,4.09,0,0,1-1.82-.39V47.69a7.52,7.52,0,0,0,1.1.41,3.26,3.26,0,0,0,.82.12A1.17,1.17,0,0,0,137,48a.59.59,0,0,0,.24-.51.56.56,0,0,0-.11-.34,1.18,1.18,0,0,0-.31-.28,8,8,0,0,0-.83-.44,3.93,3.93,0,0,1-.88-.53,2,2,0,0,1-.47-.59,1.68,1.68,0,0,1-.18-.79,1.66,1.66,0,0,1,.58-1.34,2.4,2.4,0,0,1,1.6-.49,3.78,3.78,0,0,1,1,.12,6.59,6.59,0,0,1,1,.33l-.44,1.06a6.41,6.41,0,0,0-.85-.29,2.73,2.73,0,0,0-.66-.08A.88.88,0,0,0,136,44a.59.59,0,0,0-.21.47.58.58,0,0,0,.08.31.92.92,0,0,0,.27.26,8.27,8.27,0,0,0,.86.45,3.45,3.45,0,0,1,1.24.86A1.69,1.69,0,0,1,138.58,47.47Z" transform="translate(-30.95 -17.5)"/><g class="cls-3"><path d="M97.72,59.25H96.52V55.4l0-.59c-.2.2-.34.33-.42.39l-.66.53L94.89,55l1.84-1.46h1Z" transform="translate(-30.95 -17.5)"/><path d="M99.87,59.25,102,54.56H99.2v-1h4.1v.76l-2.16,4.95Z" transform="translate(-30.95 -17.5)"/><path d="M106.51,55.24a2.19,2.19,0,0,1-.35,1.35,1.21,1.21,0,0,1-1,.45,1.18,1.18,0,0,1-1-.46,2.18,2.18,0,0,1-.35-1.34q0-1.78,1.35-1.79a1.2,1.2,0,0,1,1,.46A2.15,2.15,0,0,1,106.51,55.24Zm-1.73,0a2.33,2.33,0,0,0,.09.74c.06.16.15.24.28.24s.38-.33.38-1-.12-1-.37-1-.22.08-.28.24A2.29,2.29,0,0,0,104.78,55.25Zm4.42-1.71L106,59.25h-.94l3.17-5.71Zm1.31,4a2.19,2.19,0,0,1-.35,1.35,1.21,1.21,0,0,1-1,.45,1.18,1.18,0,0,1-1-.46,2.18,2.18,0,0,1-.35-1.33q0-1.78,1.35-1.79a1.2,1.2,0,0,1,1,.46A2.15,2.15,0,0,1,110.51,57.52Zm-1.73,0a2.33,2.33,0,0,0,.09.74c.06.16.15.24.28.24s.38-.33.38-1-.12-1-.37-1-.22.08-.28.24A2.29,2.29,0,0,0,108.78,57.53Z" transform="translate(-30.95 -17.5)"/><path d="M119.12,59.25h-1.38l-.77-3q0-.16-.15-.66c-.07-.33-.11-.56-.12-.67,0,.14-.05.37-.12.68s-.11.53-.14.67l-.77,3h-1.37l-1.46-5.71H114l.73,3.12q.19.86.28,1.5c0-.15.05-.38.11-.69s.11-.55.16-.72l.83-3.2h1.14l.83,3.2q.05.21.14.66c.05.29.1.55.13.76,0-.2.07-.46.13-.76s.11-.55.16-.74l.73-3.12h1.19Z" transform="translate(-30.95 -17.5)"/><path d="M121.29,59.25V53.54h1.21v5.71Z" transform="translate(-30.95 -17.5)"/><path d="M126.14,59.25h-1.21v-4.7h-1.55v-1h4.31v1h-1.55Z" transform="translate(-30.95 -17.5)"/><path d="M133.25,59.25H132V56.79h-2.26v2.46h-1.21V53.54h1.21v2.24H132V53.54h1.21Z" transform="translate(-30.95 -17.5)"/><path d="M140,53.54h1.22l-1.94,5.71H138l-1.94-5.71h1.22l1.07,3.4c.06.2.12.43.19.7s.1.45.12.56a9.89,9.89,0,0,1,.29-1.26Z" transform="translate(-30.95 -17.5)"/><path d="M147.15,56.39a3.1,3.1,0,0,1-.7,2.18,3,3,0,0,1-4,0,3.11,3.11,0,0,1-.7-2.19,3.07,3.07,0,0,1,.71-2.18,2.63,2.63,0,0,1,2-.75,2.6,2.6,0,0,1,2,.76A3.11,3.11,0,0,1,147.15,56.39Zm-4.17,0a2.38,2.38,0,0,0,.36,1.44,1.27,1.27,0,0,0,1.09.48q1.45,0,1.45-1.93t-1.44-1.93a1.28,1.28,0,0,0-1.09.49A2.37,2.37,0,0,0,143,56.39Z" transform="translate(-30.95 -17.5)"/><path d="M148.34,59.25V53.54h1.21v5.71Z" transform="translate(-30.95 -17.5)"/><path d="M153.41,54.46a1.24,1.24,0,0,0-1.06.51,2.39,2.39,0,0,0-.37,1.43q0,1.91,1.43,1.91a4.51,4.51,0,0,0,1.46-.3v1a4,4,0,0,1-1.57.29,2.39,2.39,0,0,1-1.91-.76,3.2,3.2,0,0,1-.66-2.17,3.55,3.55,0,0,1,.32-1.56,2.34,2.34,0,0,1,.93-1,2.76,2.76,0,0,1,1.42-.36,3.85,3.85,0,0,1,1.67.4l-.39,1a6.69,6.69,0,0,0-.64-.27A1.91,1.91,0,0,0,153.41,54.46Z" transform="translate(-30.95 -17.5)"/><path d="M159.37,59.25h-3.29V53.54h3.29v1h-2.08v1.25h1.93v1h-1.93v1.47h2.08Z" transform="translate(-30.95 -17.5)"/></g></svg>